<svg xmlns="http://www.w3.org/2000/svg" xmlns:xlink="http://www.w3.org/1999/xlink" width="500" zoomAndPan="magnify" viewBox="0 0 375 374.999991" height="500" preserveAspectRatio="xMidYMid meet" version="1.0"><defs><clipPath id="4ef388aab7"><path d="M 62 20.441406 L 299 20.441406 L 299 337 L 62 337 Z M 62 20.441406 " clip-rule="nonzero"/></clipPath><clipPath id="232c35462c"><path d="M 52 200 L 360.640625 200 L 360.640625 354.191406 L 52 354.191406 Z M 52 200 " clip-rule="nonzero"/></clipPath></defs><path fill="#f29f02" d="M 330.277344 134.167969 C 327.996094 134.167969 332.488281 333.703125 330.277344 335.910156 C 329.828125 336.359375 317.46875 336.628906 298.050781 336.765625 C 264.300781 299.351562 249.910156 336.917969 219.816406 336.855469 C 136.175781 336.667969 35.605469 335.910156 35.605469 335.910156 C 35.605469 335.910156 35.605469 178.726562 36.191406 177.558594 C 99.265625 84.117188 332.554688 134.167969 330.277344 134.167969 Z M 330.277344 134.167969 " fill-opacity="1" fill-rule="nonzero"/><g clip-path="url(#4ef388aab7)"><path fill="#5ba698" d="M 290.15625 75.339844 C 290.246094 75.023438 290.34375 74.761719 290.40625 74.644531 C 290.316406 74.726562 290.234375 74.8125 290.15625 74.90625 C 290.15625 73.53125 290.15625 72.148438 290.15625 70.761719 C 290.214844 70.820312 290.273438 70.8125 290.332031 70.859375 L 290.179688 69.171875 L 290.152344 69.25 C 290.152344 67.101562 290.152344 64.976562 290.152344 62.902344 C 290.46875 62.746094 290.8125 62.375 291.066406 61.945312 C 290.941406 61.914062 290.832031 61.914062 290.667969 60.878906 C 290.535156 61.195312 290.363281 62.703125 290.152344 62.511719 C 290.152344 61.988281 290.152344 61.464844 290.152344 60.949219 C 290.199219 60.839844 290.253906 60.722656 290.300781 60.515625 C 290.246094 60.605469 290.199219 60.617188 290.152344 60.582031 C 290.152344 58.933594 290.152344 57.335938 290.152344 55.8125 L 290.441406 54.824219 C 290.660156 55.863281 291.117188 57.148438 290.976562 58.441406 C 291.40625 57.851562 290.929688 58.148438 291.425781 57.226562 C 290.804688 58.023438 291.453125 53.914062 290.796875 55.195312 C 291.375 54.25 291.046875 53.5625 291.535156 52.332031 C 291.390625 52.371094 291.261719 52.765625 291.335938 51.683594 C 291.292969 51.636719 291.238281 51.519531 291.210938 51.445312 C 291.21875 51.410156 291.21875 51.394531 291.226562 51.367188 C 291.21875 51.386719 291.210938 51.410156 291.210938 51.429688 C 291.191406 51.382812 291.183594 51.382812 291.203125 51.449219 C 291.144531 51.710938 291.066406 51.917969 290.992188 52 C 290.660156 51.464844 290.675781 49.738281 290.503906 49.152344 C 290.570312 48.503906 290.667969 49.417969 290.820312 49.070312 L 290.5625 48.195312 C 290.882812 48.105469 291.085938 46.480469 291.273438 48.003906 L 291.289062 46.640625 C 291.464844 45.828125 291.535156 44.738281 291.410156 44.066406 C 291.488281 43.433594 291.082031 42.441406 291.320312 43.003906 L 291.144531 40.851562 L 291.226562 40.828125 C 291.265625 38.675781 290.703125 36.433594 290.941406 33.832031 C 290.765625 33.085938 290.550781 32.328125 290.308594 31.042969 L 290.507812 30.71875 C 290.332031 30.238281 290.15625 29.480469 289.917969 28.796875 C 289.675781 28.117188 289.386719 27.511719 289.140625 27.386719 C 289.1875 26.699219 288.464844 25.480469 287.363281 24.476562 C 286.273438 23.449219 284.871094 22.75 284.035156 22.289062 L 283.816406 22.582031 C 282.660156 22.011719 281.453125 21.742188 279.953125 21.605469 L 279.980469 21.9375 C 279.65625 21.929688 279.296875 21.886719 278.90625 21.832031 C 278.519531 21.765625 278.101562 21.6875 277.652344 21.605469 C 276.777344 21.433594 275.765625 21.308594 274.824219 21.316406 C 274.945312 21.191406 275.429688 21.226562 275.785156 21.316406 C 273.492188 20.582031 271.050781 21.828125 269.003906 21.304688 C 268.5 21.421875 268.128906 21.378906 267.777344 21.296875 C 267.828125 21.296875 267.867188 21.289062 267.902344 21.28125 C 267.847656 21.28125 267.769531 21.28125 267.695312 21.277344 C 267.476562 21.222656 267.242188 21.160156 266.992188 21.109375 C 267.207031 21.1875 267.40625 21.25 267.585938 21.28125 C 267.191406 21.289062 266.601562 21.332031 266.023438 21.40625 L 265.789062 21.070312 C 265.738281 21.070312 265.707031 21.078125 265.65625 21.078125 C 265.085938 20.953125 265.203125 21.234375 265.503906 21.488281 C 265.214844 21.542969 264.949219 21.613281 264.742188 21.695312 C 264.28125 21.144531 263.21875 21.882812 262.585938 21.296875 C 262.234375 21.550781 260.148438 21.523438 259.515625 21.957031 C 259.382812 21.957031 259.253906 21.957031 259.121094 21.957031 C 258.722656 21.921875 258.335938 21.902344 257.964844 21.957031 C 257.835938 21.957031 257.703125 21.957031 257.566406 21.957031 L 257.332031 21.59375 L 256.449219 21.957031 C 256.070312 21.957031 255.691406 21.957031 255.308594 21.957031 C 254.96875 21.800781 254.964844 21.65625 255.5625 21.425781 C 253.792969 21.867188 253.828125 21.695312 252.765625 21.957031 C 252.582031 21.957031 252.386719 21.957031 252.203125 21.957031 L 252.234375 21.847656 C 252.007812 21.855469 251.726562 21.902344 251.445312 21.957031 C 250.996094 21.957031 250.542969 21.957031 250.085938 21.957031 C 248.496094 21.496094 243.207031 21.910156 239.722656 21.433594 C 240.417969 22.253906 238.058594 21.070312 237.914062 21.703125 C 237.707031 21.511719 237.203125 21.398438 237.78125 21.226562 C 235.949219 21.421875 235.027344 20.917969 233.765625 21.453125 C 233.5625 21.261719 234.160156 21.171875 233.972656 21.054688 C 233.828125 21.097656 233.386719 21.226562 233.203125 21.109375 C 233.015625 20.992188 233.472656 20.945312 233.761719 20.863281 C 231.996094 20.890625 231.730469 21.425781 231.589844 21.957031 C 231.445312 21.957031 231.300781 21.957031 231.15625 21.957031 C 230.710938 21.859375 230.371094 21.859375 230.035156 21.957031 C 229.710938 21.957031 229.386719 21.957031 229.058594 21.957031 C 228.980469 21.867188 229.097656 21.792969 229.738281 21.757812 C 229.085938 21.730469 225.746094 21.488281 225.675781 21.9375 C 225.46875 21.820312 224.761719 21.902344 224.589844 21.957031 C 223.121094 21.929688 222.992188 21.886719 221.550781 21.929688 L 221.703125 21.957031 C 219.945312 21.957031 218.164062 21.957031 216.367188 21.957031 C 216.207031 21.9375 216.042969 21.910156 215.84375 21.875 L 215.878906 21.957031 C 214.382812 21.957031 212.867188 21.957031 211.347656 21.957031 C 210.683594 21.648438 209.996094 21.226562 209.515625 21.171875 C 209.335938 21.109375 209.804688 21.070312 210.058594 21.019531 C 207.867188 20.59375 209.777344 21.460938 208.144531 21.566406 C 207.839844 21.324219 208.53125 20.960938 207.433594 20.910156 C 206.890625 20.71875 204.246094 21.6875 202.753906 21.226562 C 203.082031 21.414062 203.414062 21.59375 202.65625 21.738281 C 201.492188 21.804688 199.515625 21.042969 198.460938 21.621094 C 198.316406 21.570312 198.253906 21.523438 198.253906 21.476562 C 197.457031 21.605469 195.785156 21.703125 195.054688 21.949219 C 194.949219 21.949219 194.839844 21.949219 194.738281 21.949219 C 193.71875 20.980469 189.308594 22.578125 189.332031 21.53125 L 186.597656 21.585938 L 186.664062 21.476562 C 184.917969 21.40625 184.304688 21.660156 183.691406 21.921875 C 183.285156 21.847656 183.582031 21.75 183.617188 21.695312 C 181.246094 21.496094 180.855469 21.515625 179.105469 21.949219 C 178.933594 21.949219 178.765625 21.949219 178.59375 21.949219 L 178.445312 21.710938 C 177.867188 21.914062 174.753906 21.160156 172.253906 21.570312 C 172.28125 21.53125 172.328125 21.460938 172.527344 21.414062 C 169.710938 21.828125 165.785156 20.441406 164.753906 21.714844 L 163.363281 21.949219 C 162.335938 21.949219 161.316406 21.949219 160.296875 21.949219 C 159.832031 21.921875 159.480469 21.867188 159.5 21.722656 C 154.769531 21.757812 150.15625 21.386719 145.726562 21.359375 L 146.238281 21.875 L 144.695312 21.847656 C 144.289062 21.730469 144.152344 21.441406 145.253906 21.46875 C 144.675781 21.179688 143.398438 21.714844 143.371094 21.828125 C 141.210938 21.621094 144.210938 21.226562 143.550781 21.214844 L 142.648438 21.253906 L 142.847656 21.316406 C 142.121094 21.53125 142.058594 21.75 140.726562 21.722656 C 139.886719 21.621094 140.300781 21.40625 139.972656 21.386719 C 139.972656 21.351562 139.859375 21.332031 139.460938 21.371094 L 137.511719 21.332031 L 138.289062 21.738281 C 137.617188 21.894531 136.871094 21.792969 137.023438 21.964844 C 136.90625 21.964844 136.796875 21.964844 136.679688 21.964844 C 134.65625 21.566406 129.992188 21.894531 129.285156 21.703125 C 128.511719 21.886719 127.746094 21.949219 126.914062 21.964844 C 126.570312 21.964844 126.226562 21.964844 125.886719 21.964844 C 125.730469 21.964844 125.570312 21.957031 125.40625 21.957031 C 125.414062 21.957031 125.421875 21.964844 125.425781 21.964844 C 125.125 21.964844 124.820312 21.964844 124.519531 21.964844 C 123.863281 21.695312 122.121094 21.859375 121.351562 21.351562 C 122.191406 21.765625 118.472656 21.515625 118.941406 21.964844 C 118.84375 21.964844 118.746094 21.964844 118.652344 21.964844 C 118.582031 21.839844 118.832031 21.675781 118.300781 21.53125 C 115.765625 21.894531 112.722656 21.289062 109.589844 21.414062 C 109.539062 21.539062 110.0625 21.730469 109.394531 21.910156 L 107.742188 21.289062 C 107.125 21.351562 107.171875 22.003906 106.042969 21.570312 C 106.199219 21.675781 106.441406 21.832031 106.027344 21.875 C 99.898438 21.269531 93.496094 22.371094 87.269531 21.234375 C 88.109375 21.476562 87.554688 21.496094 86.90625 21.511719 C 87.304688 21.566406 86.933594 21.792969 86.976562 21.964844 C 86.933594 21.964844 86.890625 21.964844 86.859375 21.964844 L 84.371094 21.515625 C 83.910156 21.972656 81.707031 21.570312 81.335938 21.964844 C 81.101562 21.964844 80.902344 21.964844 80.75 21.964844 C 71.21875 21.964844 62.824219 24.550781 62.824219 33.519531 C 62.824219 40.5 62.824219 93.929688 62.824219 93.929688 C 73.816406 114.070312 290.15625 100.339844 290.15625 100.339844 C 290.15625 100.339844 290.15625 88.390625 290.15625 75.339844 Z M 291.09375 45.59375 C 291.085938 45.578125 291.085938 45.566406 291.082031 45.558594 C 291.210938 44.808594 291.164062 45.070312 291.09375 45.59375 Z M 139.792969 21.511719 L 140.09375 21.597656 C 139.40625 21.695312 139.597656 21.605469 139.792969 21.511719 Z M 290.476562 54.039062 L 290.15625 54.238281 C 290.15625 54.167969 290.15625 54.101562 290.15625 54.03125 C 290.226562 53.722656 290.253906 53.21875 290.164062 52.949219 C 290.214844 53.109375 290.199219 53.34375 290.15625 53.605469 C 290.15625 53.378906 290.15625 53.148438 290.15625 52.929688 C 290.15625 52.9375 290.164062 52.9375 290.164062 52.9375 C 290.164062 52.929688 290.15625 52.929688 290.15625 52.929688 C 290.15625 52.144531 290.15625 51.394531 290.15625 50.679688 C 290.371094 51.636719 290.632812 52.714844 290.476562 54.039062 Z M 290.640625 45.515625 C 290.476562 45.972656 290.308594 46.039062 290.15625 45.992188 C 290.15625 45.460938 290.15625 44.980469 290.15625 44.554688 C 290.15625 43.714844 290.164062 42.859375 290.179688 42.015625 C 290.425781 43.335938 290.96875 43.578125 290.640625 45.515625 Z M 290.371094 39.164062 C 290.460938 40.164062 290.316406 40.246094 290.199219 40.195312 C 290.207031 39.523438 290.207031 38.855469 290.199219 38.1875 C 290.261719 38.496094 290.324219 38.820312 290.371094 39.164062 Z M 274.492188 21.839844 C 274.4375 21.875 274.367188 21.914062 274.300781 21.964844 C 274.140625 21.964844 273.976562 21.964844 273.804688 21.964844 Z M 272.617188 21.867188 L 272.761719 21.957031 C 272.597656 21.957031 272.417969 21.957031 272.246094 21.957031 C 272.363281 21.929688 272.488281 21.886719 272.617188 21.867188 Z M 82.128906 21.910156 C 82.09375 21.921875 82.070312 21.945312 82.050781 21.957031 C 81.90625 21.957031 81.769531 21.957031 81.636719 21.957031 Z M 298.042969 336.765625 C 277.804688 336.910156 249.902344 336.917969 219.808594 336.855469 C 219.808594 336.855469 220.347656 198.027344 219.808594 198.027344 C 219.273438 198.027344 295.96875 198.496094 297.933594 199.445312 C 299.59375 200.257812 298.429688 305.132812 298.042969 336.765625 Z M 291.171875 100.917969 C 291.09375 100.9375 291.425781 100.550781 291.492188 101.246094 C 291.4375 101.1875 291.144531 101.332031 291.171875 100.917969 Z M 290.496094 94.035156 L 290.324219 93.140625 L 290.621094 94.152344 Z M 290.695312 91.785156 L 290.289062 91.269531 L 290.40625 91.082031 C 290.585938 89.933594 290 88.210938 290.503906 87.605469 C 290.363281 88.578125 290.632812 90.386719 290.695312 91.785156 Z M 291.527344 84.96875 C 291.417969 83.429688 291.390625 84.386719 291.589844 84.171875 C 291.578125 84.496094 291.578125 84.6875 291.578125 84.824219 C 291.5625 84.867188 291.550781 84.886719 291.527344 84.96875 Z M 291.578125 84.824219 C 291.742188 84.378906 291.597656 85.5 291.578125 84.824219 Z M 291.644531 82.589844 L 291.472656 81.695312 C 291.667969 81.171875 291.777344 80.984375 291.871094 81.898438 C 291.78125 81.605469 291.753906 82.394531 291.644531 82.589844 Z M 291.175781 81.308594 L 291.101562 80.847656 C 291.238281 81.109375 291.226562 81.226562 291.175781 81.308594 Z M 291.175781 81.308594 L 291.335938 82.292969 C 291.230469 81.871094 291.085938 81.679688 291.238281 81.761719 C 290.929688 81.453125 291.09375 81.4375 291.175781 81.308594 Z M 290.902344 83.097656 C 291.074219 83.992188 291.144531 83.34375 291.253906 82.84375 C 291.320312 84.550781 290.96875 84.804688 290.902344 83.097656 Z M 291.433594 77.15625 L 291.308594 76.496094 C 291.445312 76.429688 291.625 76.078125 291.726562 76.132812 C 291.570312 76.171875 291.5 76.820312 291.433594 77.15625 Z M 291.121094 75.511719 L 291.308594 76.496094 C 291.191406 76.550781 291.101562 76.394531 291.121094 75.511719 Z M 290.929688 82.304688 L 290.542969 80.6875 L 290.535156 80.378906 Z M 291.988281 72.925781 L 291.742188 72.367188 L 291.617188 71.933594 Z M 291.804688 67.957031 C 291.960938 68.476562 292.140625 69.058594 292.175781 69.738281 C 292.050781 69.296875 291.90625 70.28125 291.699219 69.867188 C 291.867188 69.097656 291.886719 68.507812 291.804688 67.957031 Z M 291.570312 67.074219 C 291.6875 67.363281 291.753906 67.660156 291.804688 67.949219 C 291.707031 67.640625 291.617188 67.355469 291.570312 67.074219 Z M 291.175781 73.832031 C 291.175781 73.695312 291.175781 73.566406 291.183594 73.449219 L 291.488281 73.0625 C 291.410156 73.605469 291.238281 73.757812 291.175781 73.832031 Z M 291.199219 72.601562 C 291.199219 72.726562 291.191406 73.019531 291.183594 73.441406 L 291.175781 73.453125 C 291.183594 72.964844 291.191406 72.710938 291.199219 72.601562 Z M 291.175781 73.832031 C 291.175781 73.867188 291.175781 73.894531 291.175781 73.929688 C 291.136719 73.886719 291.144531 73.867188 291.175781 73.832031 Z M 290.8125 78.101562 C 290.558594 77.226562 290.414062 77.902344 290.207031 77.480469 C 290.46875 76.3125 290.648438 77.523438 290.8125 78.101562 Z M 290.730469 75.457031 L 290.796875 74.410156 L 291.011719 75.539062 C 290.921875 75.25 290.804688 75.4375 290.730469 75.457031 Z M 290.820312 74.019531 L 290.792969 74.40625 L 290.695312 73.886719 Z M 291.03125 69.171875 C 291.03125 68.582031 291.066406 67.960938 291.121094 67.363281 C 291.144531 67.921875 291.15625 68.417969 291.289062 68.871094 C 291.300781 69.519531 291.128906 69.257812 291.03125 69.171875 Z M 291.183594 70.996094 C 291.191406 71.023438 291.199219 71.066406 291.203125 71.101562 C 291.148438 71.109375 291.164062 71.058594 291.183594 70.996094 Z M 291.121094 61.96875 L 291.074219 61.945312 L 291.128906 61.855469 Z M 291.03125 69.171875 C 291.03125 69.558594 291.054688 69.917969 291.085938 70.246094 C 290.992188 69.992188 290.921875 69.722656 290.976562 69.269531 C 290.964844 69.132812 290.992188 69.140625 291.03125 69.171875 Z M 291.261719 66.324219 C 291.308594 66.042969 291.363281 65.78125 291.425781 65.546875 C 291.507812 65.621094 291.355469 66.089844 291.261719 66.324219 Z M 291.28125 70.914062 C 291.273438 70.886719 291.273438 70.867188 291.265625 70.847656 C 291.316406 70.785156 291.347656 70.769531 291.28125 70.914062 Z M 291.183594 70.996094 C 291.144531 70.777344 291.109375 70.523438 291.082031 70.246094 C 291.148438 70.433594 291.21875 70.613281 291.265625 70.847656 C 291.238281 70.886719 291.203125 70.941406 291.183594 70.996094 Z M 291.085938 64.066406 L 291.128906 61.96875 C 291.21875 62.015625 291.328125 62.160156 291.460938 62.867188 C 291.238281 63.507812 291.128906 63.859375 291.082031 64.34375 L 291.046875 63.914062 Z M 291.082031 64.347656 L 291.246094 66.371094 L 291.238281 66.378906 C 291.226562 66.378906 291.210938 66.359375 291.191406 66.351562 C 291.15625 66.164062 291.136719 65.675781 291.074219 66.261719 C 291.109375 66.304688 291.148438 66.339844 291.191406 66.351562 C 291.191406 66.367188 291.191406 66.386719 291.199219 66.394531 C 291.175781 66.488281 291.199219 66.460938 291.238281 66.371094 L 291.246094 66.371094 L 291.246094 66.367188 C 291.253906 66.351562 291.261719 66.339844 291.265625 66.316406 C 291.210938 66.648438 291.164062 67 291.128906 67.363281 C 291.113281 67.027344 291.101562 66.667969 291.046875 66.277344 C 290.875 67.734375 290.625 65.132812 290.703125 67.15625 C 290.570312 66.40625 290.335938 66.785156 290.316406 65.53125 C 290.648438 64.90625 290.769531 65.933594 291.082031 66.261719 C 291.046875 65.3125 291.03125 64.777344 291.082031 64.347656 Z M 290.476562 74.582031 C 290.453125 74.605469 290.433594 74.625 290.40625 74.644531 C 290.441406 74.582031 290.46875 74.554688 290.476562 74.582031 Z M 291.144531 60.914062 L 291.597656 61.882812 L 291.273438 61.664062 Z M 291.347656 58.980469 L 291.515625 59.558594 L 291.230469 59.476562 Z M 265.789062 21.070312 L 265.566406 20.765625 C 265.476562 20.449219 266.285156 20.855469 267.007812 21.117188 C 266.675781 21.046875 266.289062 21.015625 265.789062 21.070312 Z M 291.183594 35.371094 C 291.203125 35.828125 291.191406 36.347656 291.101562 36.996094 C 290.839844 36.804688 291.074219 36.171875 291.183594 35.371094 Z M 198.242188 21.480469 C 198.234375 21.414062 198.359375 21.351562 198.660156 21.296875 C 198.730469 21.371094 198.550781 21.433594 198.242188 21.480469 Z M 291.183594 35.371094 C 291.148438 34.785156 291.066406 34.304688 290.941406 33.832031 C 290.949219 33.707031 290.949219 33.589844 290.96875 33.472656 C 291.273438 34.089844 291.265625 34.78125 291.183594 35.371094 Z M 86.898438 21.503906 C 86.589844 21.511719 86.25 21.511719 86.050781 21.523438 C 86.492188 21.488281 86.746094 21.480469 86.898438 21.503906 Z M 291.371094 50.679688 C 291.40625 50.75 291.390625 51.140625 291.371094 50.679688 Z M 291.320312 50.78125 C 291.300781 51.003906 291.265625 51.203125 291.230469 51.375 C 291.273438 51.058594 291.300781 50.878906 291.320312 50.78125 Z M 291.347656 51.683594 C 291.355469 51.566406 291.371094 51.4375 291.375 51.277344 C 291.433594 51.691406 291.398438 51.746094 291.347656 51.683594 Z M 291.320312 50.78125 C 291.34375 50.542969 291.355469 50.292969 291.355469 50.03125 C 291.363281 50.347656 291.371094 50.542969 291.371094 50.679688 C 291.363281 50.652344 291.34375 50.691406 291.320312 50.78125 Z M 291.515625 55.375 C 291.488281 55.214844 291.390625 55.359375 291.320312 55.375 C 291.375 55.125 291.453125 54.953125 291.433594 54.464844 Z M 291.527344 55.476562 L 291.523438 55.375 C 291.523438 55.402344 291.527344 55.433594 291.527344 55.476562 Z M 290.261719 57.699219 C 290.253906 57.742188 290.261719 57.78125 290.261719 57.824219 C 290.207031 57.121094 290.109375 56.488281 290.398438 56.40625 C 290.53125 57.15625 290.660156 57.90625 290.261719 57.699219 Z M 290.273438 58.636719 C 290.289062 58.421875 290.28125 58.203125 290.269531 57.980469 C 290.308594 58.375 290.441406 58.71875 290.273438 58.636719 Z M 291.382812 49.550781 C 291.5 49.363281 291.058594 49.488281 291.136719 49.152344 C 290.941406 47.328125 291.75 49.921875 291.382812 49.550781 Z M 82.285156 21.234375 L 81.6875 20.992188 L 82.621094 21.144531 Z M 80.039062 21.632812 L 80.605469 21.222656 L 80.824219 21.675781 C 80.660156 21.570312 80.253906 21.613281 80.039062 21.632812 Z M 80.039062 21.632812 " fill-opacity="1" fill-rule="nonzero"/></g><path fill="#ebd5c4" d="M 287.988281 211.367188 C 287.988281 211.367188 287.28125 268.867188 286.363281 268.816406 C 285.449219 268.769531 229.945312 267.882812 229.945312 267.882812 L 229.945312 209.914062 Z M 287.988281 211.367188 " fill-opacity="1" fill-rule="nonzero"/><g clip-path="url(#232c35462c)"><path fill="#072e36" d="M 194.480469 200.671875 C 194.804688 201.316406 199.269531 298.605469 197.339844 300.074219 C 195.410156 301.539062 55.644531 302.054688 53.578125 301.957031 C 53.578125 301.957031 51.421875 205.246094 53.578125 203.339844 C 55.734375 201.433594 194.15625 200.023438 194.480469 200.671875 Z M 344.070312 299.351562 L 311.800781 299.351562 C 311.800781 299.351562 295.074219 350.992188 293.628906 354.171875 L 299.566406 354.171875 L 302.351562 345.796875 L 326.992188 345.796875 L 324.285156 354.171875 L 329.972656 354.171875 L 333.492188 344.433594 L 352.042969 344.433594 L 354.757812 354.171875 L 360.398438 354.171875 Z M 262.910156 230.417969 C 262.65625 229.777344 262.261719 229.214844 262.160156 228.492188 C 262.097656 228.105469 261.816406 227.796875 261.65625 227.445312 C 261.503906 227.101562 261.410156 226.730469 261.257812 226.386719 C 261.140625 226.109375 260.988281 225.855469 260.816406 225.613281 C 260.652344 225.378906 260.417969 225.203125 260.25 224.96875 C 259.988281 224.582031 259.753906 224.191406 259.507812 223.796875 C 259.320312 223.523438 259.15625 223.234375 258.949219 222.972656 C 258.867188 222.867188 258.59375 222.820312 258.621094 222.730469 C 258.714844 222.414062 258.46875 222.316406 258.363281 222.136719 C 258.128906 221.703125 257.71875 221.414062 257.394531 221.058594 C 257.125 220.761719 256.835938 220.417969 256.457031 220.09375 C 256.085938 219.777344 255.535156 219.453125 254.875 219.460938 C 254.210938 219.453125 253.640625 219.847656 253.296875 220.21875 C 252.9375 220.597656 252.675781 220.96875 252.347656 221.296875 C 252.1875 221.457031 252.140625 221.710938 252.0625 221.882812 C 251.972656 222.082031 251.960938 222.34375 251.78125 222.46875 C 251.589844 222.597656 251.679688 222.800781 251.601562 222.957031 C 251.1875 223.867188 250.832031 224.800781 250.410156 225.710938 C 249.996094 226.605469 249.8125 227.597656 249.171875 228.402344 C 248.992188 228.628906 248.828125 228.917969 248.984375 229.277344 C 248.691406 229.703125 248.777344 230.253906 248.621094 230.722656 C 248.433594 231.277344 248.007812 231.753906 248.140625 232.414062 C 248.144531 232.441406 248.109375 232.488281 248.078125 232.496094 C 247.828125 232.523438 247.898438 232.71875 247.816406 232.828125 C 247.546875 233.191406 247.628906 233.660156 247.566406 234.082031 C 247.546875 234.285156 247.519531 234.492188 247.5 234.699219 C 247.476562 234.832031 247.53125 234.980469 247.59375 235.125 C 247.675781 235.320312 247.910156 235.402344 248.160156 235.375 C 248.71875 235.3125 248.917969 234.996094 249.0625 234.664062 C 249.316406 234.074219 249.570312 233.46875 249.722656 232.839844 C 249.867188 232.214844 250.460938 231.761719 250.410156 231.066406 C 250.410156 231.03125 250.425781 230.988281 250.453125 230.960938 C 250.535156 230.871094 250.671875 230.8125 250.714844 230.707031 C 250.753906 230.582031 250.695312 230.425781 250.722656 230.292969 C 250.753906 230.136719 250.941406 229.976562 250.867188 229.839844 C 250.707031 229.539062 250.84375 229.316406 250.996094 229.179688 C 251.363281 228.847656 251.402344 228.402344 251.617188 228.015625 C 251.800781 227.679688 251.796875 227.253906 252.195312 227.019531 C 252.269531 226.976562 252.3125 226.839844 252.261719 226.777344 C 252.125 226.585938 252.257812 226.480469 252.304688 226.359375 C 252.492188 225.890625 252.628906 225.394531 252.902344 224.972656 C 253.179688 224.566406 252.917969 223.949219 253.449219 223.660156 C 253.480469 223.640625 253.511719 223.582031 253.488281 223.5625 C 253.28125 223.320312 253.480469 223.199219 253.550781 223.046875 C 253.667969 222.785156 253.785156 222.496094 254.011719 222.324219 C 254.246094 222.152344 254.273438 221.84375 254.433594 221.675781 C 254.585938 221.511719 254.789062 221.484375 254.851562 221.476562 C 254.941406 221.476562 254.90625 221.457031 255.023438 221.484375 C 255.074219 221.5 255.109375 221.539062 255.257812 221.503906 C 255.410156 221.464844 255.5625 221.59375 255.535156 221.835938 C 255.527344 221.882812 255.535156 221.964844 255.554688 221.960938 C 255.851562 221.882812 255.878906 222.105469 255.980469 222.261719 C 256.09375 222.421875 256.304688 222.476562 256.4375 222.597656 C 256.648438 222.800781 256.734375 223.09375 256.84375 223.371094 C 256.988281 223.753906 257.257812 224.074219 257.523438 224.375 C 257.777344 224.664062 257.792969 225.085938 258.109375 225.351562 C 258.480469 225.664062 258.621094 226.152344 258.886719 226.550781 C 259.15625 226.949219 259.480469 227.320312 259.734375 227.726562 C 259.996094 228.152344 260.195312 228.609375 260.445312 229.042969 C 260.535156 229.199219 260.375 229.496094 260.519531 229.539062 C 260.824219 229.621094 260.808594 229.855469 260.898438 230.027344 C 261.148438 230.496094 261.351562 230.988281 261.566406 231.476562 C 261.808594 232.027344 262.054688 232.585938 262.242188 233.15625 C 262.371094 233.542969 262.777344 233.742188 263.09375 234.011719 C 263.121094 234.03125 263.171875 234.046875 263.21875 234.046875 C 263.453125 234.039062 263.992188 233.605469 263.929688 233.441406 C 263.796875 233.089844 263.886719 232.683594 263.714844 232.332031 C 263.40625 231.691406 263.15625 231.050781 262.910156 230.417969 Z M 262.910156 230.417969 " fill-opacity="1" fill-rule="nonzero"/></g><path fill="#f29f02" d="M 237.960938 233.417969 L 274.996094 233.417969 L 274.996094 249.792969 L 238.441406 249.792969 C 238.441406 249.792969 237.410156 235.105469 237.960938 233.417969 Z M 345.019531 302.132812 C 344.910156 301.992188 344.398438 302.164062 344.332031 302.390625 C 344.179688 302.886719 343.898438 303.300781 343.773438 303.804688 C 343.546875 304.699219 343.269531 305.578125 342.996094 306.453125 C 342.71875 307.335938 342.535156 308.25 342.128906 309.097656 C 341.90625 309.550781 341.839844 310.09375 341.671875 310.589844 C 341.515625 311.070312 341.316406 311.53125 341.15625 312.007812 C 341.03125 312.386719 340.914062 312.773438 340.828125 313.15625 C 340.738281 313.527344 340.703125 313.90625 340.605469 314.273438 C 340.449219 314.871094 340.261719 315.46875 340.089844 316.070312 C 339.964844 316.503906 339.828125 316.929688 339.726562 317.363281 C 339.683594 317.535156 339.738281 317.824219 339.667969 317.886719 C 339.429688 318.105469 339.441406 318.414062 339.347656 318.675781 C 339.125 319.296875 339.042969 319.949219 338.890625 320.582031 C 338.644531 321.625 338.328125 322.648438 338.011719 323.667969 C 337.691406 324.691406 337.507812 325.765625 337.019531 326.738281 C 336.902344 326.972656 336.859375 327.261719 336.785156 327.523438 C 336.703125 327.8125 336.667969 328.140625 336.523438 328.367188 C 336.371094 328.609375 336.414062 328.828125 336.351562 329.058594 C 335.957031 330.371094 335.605469 331.691406 335.199219 333 C 334.800781 334.289062 334.554688 335.625 333.988281 336.863281 C 333.828125 337.214844 333.671875 337.632812 333.746094 338.046875 C 333.480469 338.6875 333.472656 339.367188 333.292969 340.027344 C 333.085938 340.800781 332.707031 341.542969 332.714844 342.363281 C 332.714844 342.394531 332.679688 342.464844 332.660156 342.484375 C 332.472656 342.589844 332.496094 342.824219 332.417969 342.988281 C 332.171875 343.53125 332.15625 344.117188 332.054688 344.675781 C 332.003906 344.941406 331.949219 345.226562 331.902344 345.5 C 331.867188 345.671875 331.882812 345.859375 331.902344 346.03125 C 331.929688 346.257812 332.085938 346.3125 332.273438 346.214844 C 332.695312 346.003906 332.90625 345.519531 333.058594 345.050781 C 333.339844 344.199219 333.625 343.339844 333.816406 342.472656 C 334.015625 341.605469 334.511719 340.839844 334.566406 339.9375 C 334.566406 339.890625 334.585938 339.835938 334.609375 339.792969 C 334.683594 339.65625 334.792969 339.527344 334.835938 339.382812 C 334.882812 339.210938 334.855469 339.015625 334.890625 338.835938 C 334.933594 338.617188 335.089844 338.363281 335.054688 338.203125 C 334.972656 337.859375 335.105469 337.53125 335.234375 337.300781 C 335.542969 336.757812 335.628906 336.152344 335.828125 335.589844 C 336.007812 335.09375 336.046875 334.535156 336.363281 334.09375 C 336.425781 334.011719 336.472656 333.828125 336.441406 333.75 C 336.355469 333.550781 336.46875 333.371094 336.515625 333.195312 C 336.703125 332.519531 336.851562 331.832031 337.109375 331.191406 C 337.347656 330.5625 337.226562 329.855469 337.636719 329.289062 C 337.664062 329.257812 337.6875 329.171875 337.679688 329.152344 C 337.546875 328.917969 337.707031 328.683594 337.777344 328.464844 C 337.886719 328.074219 337.996094 327.695312 338.195312 327.324219 C 338.394531 326.949219 338.449219 326.46875 338.589844 326.050781 C 338.726562 325.644531 338.910156 325.25 339.042969 324.84375 C 339.222656 324.300781 339.375 323.75 339.519531 323.191406 C 339.574219 322.992188 339.636719 322.808594 339.621094 322.566406 C 339.609375 322.324219 339.691406 321.996094 339.882812 321.769531 C 339.925781 321.71875 339.984375 321.617188 339.980469 321.597656 C 339.863281 321.335938 340.019531 321.074219 340.097656 320.832031 C 340.179688 320.570312 340.152344 320.316406 340.207031 320.066406 C 340.289062 319.667969 340.460938 319.304688 340.621094 318.925781 C 340.839844 318.410156 340.984375 317.835938 341.101562 317.28125 C 341.21875 316.757812 341.5 316.308594 341.578125 315.753906 C 341.667969 315.105469 341.941406 314.464844 342.105469 313.816406 L 342.574219 311.84375 L 343.148438 309.832031 C 343.207031 309.585938 343.464844 309.378906 343.429688 309.21875 C 343.359375 308.898438 343.511719 308.648438 343.582031 308.378906 C 343.773438 307.65625 343.992188 306.949219 344.199219 306.234375 C 344.433594 305.421875 344.660156 304.609375 344.921875 303.804688 C 345.101562 303.261719 345.035156 302.765625 345.046875 302.246094 C 345.0625 302.207031 345.039062 302.160156 345.019531 302.132812 Z M 345.019531 302.132812 " fill-opacity="1" fill-rule="nonzero"/><path fill="#f2532e" d="M 346.695312 148.347656 C 346.78125 148.15625 346.84375 147.914062 346.832031 147.597656 L 347.148438 147.492188 C 347.464844 147.480469 347.003906 147.933594 346.695312 148.347656 Z M 333.519531 108.9375 C 333.390625 108.792969 333.300781 108.75 333.246094 108.785156 C 333.367188 108.9375 333.472656 109.003906 333.519531 108.9375 Z M 341.695312 165.160156 C 341.632812 165.210938 341.589844 165.265625 341.535156 165.3125 C 341.445312 165.589844 341.355469 165.878906 341.164062 166.175781 C 341.453125 165.925781 341.699219 165.601562 341.695312 165.160156 Z M 274.070312 91.933594 C 274.195312 91.914062 274.394531 91.914062 274.589844 91.914062 C 274.5 91.894531 274.339844 91.894531 274.070312 91.933594 Z M 346.480469 148.691406 C 346.519531 148.589844 346.597656 148.472656 346.695312 148.347656 C 346.625 148.492188 346.546875 148.628906 346.472656 148.761719 C 346.464844 148.808594 346.460938 148.855469 346.445312 148.890625 C 346.4375 148.871094 346.4375 148.84375 346.4375 148.808594 C 346.328125 149.015625 346.253906 149.234375 346.316406 149.566406 C 345.625 150.722656 346.535156 152.476562 345.53125 153.703125 C 345.652344 153.515625 345.742188 153.226562 345.640625 153.125 C 345.40625 154.273438 344.667969 155.285156 344.710938 156.054688 L 345.027344 156.089844 C 344.917969 156.957031 344.847656 157.632812 344.601562 158.292969 L 344.929688 158.4375 C 344.695312 158.898438 344.550781 159.695312 344.324219 160.425781 C 344.078125 161.140625 343.78125 161.789062 343.320312 161.941406 C 343.5 162.292969 342.664062 163.199219 342.511719 163.765625 L 342.203125 163.777344 C 341.804688 164.417969 341.660156 164.867188 341.527344 165.304688 C 341.328125 165.484375 341.164062 165.679688 341.011719 165.871094 C 340.9375 166.0625 340.867188 166.257812 340.785156 166.449219 C 340.894531 166.367188 341.027344 166.269531 341.15625 166.167969 C 341.03125 166.351562 340.867188 166.550781 340.652344 166.765625 C 335.144531 179.910156 324.933594 188.355469 309.816406 188.472656 C 283.328125 188.679688 280.578125 161.082031 279.457031 140.273438 L 213.210938 139.433594 L 213.238281 140.878906 C 211.441406 162.734375 205.597656 188.480469 180.902344 188.480469 C 153.289062 188.480469 146.878906 154.335938 147.746094 140.28125 C 147.746094 140.28125 84.875 138.945312 83.917969 139.640625 C 83.429688 141.25 84.578125 188.480469 45.90625 188.480469 C 18.90625 188.480469 14.382812 149.105469 17.246094 142.25 C 20.109375 135.394531 41.105469 93.285156 41.105469 93.285156 L 93.226562 93.285156 L 115.394531 108.441406 L 154.019531 93.285156 L 212.226562 93.285156 L 230.882812 107.65625 L 270.410156 93.285156 L 271.984375 93.285156 C 271.640625 92.941406 271.324219 92.617188 271.6875 92.328125 L 271.1875 92.410156 C 271.351562 91.960938 272.761719 92.394531 273.054688 91.933594 L 274.636719 92.402344 C 274.589844 92.238281 274.851562 91.984375 274.59375 91.929688 C 274.988281 91.921875 275.324219 91.894531 274.816406 91.652344 C 278.601562 92.789062 282.488281 91.6875 286.210938 92.292969 C 286.46875 92.25 286.324219 92.09375 286.21875 91.992188 C 286.90625 92.417969 286.875 91.761719 287.253906 91.707031 L 288.257812 92.328125 C 288.664062 92.140625 288.347656 91.957031 288.375 91.832031 C 290.273438 91.707031 292.128906 92.3125 293.671875 91.949219 C 294.160156 92.167969 293.554688 92.453125 294.199219 92.527344 C 293.320312 91.886719 296.085938 92.222656 295.523438 91.777344 C 296.148438 92.457031 297.851562 91.921875 297.566406 92.863281 C 298.34375 92.917969 298.207031 92.464844 297.988281 92.375 C 298.882812 92.410156 299.613281 92.417969 300.34375 92.121094 C 300.832031 92.339844 304.445312 91.886719 305.253906 92.597656 C 304.707031 92.136719 305.292969 92.355469 305.816406 92.15625 L 305.34375 91.75 L 306.527344 91.789062 C 306.765625 91.75 306.835938 91.769531 306.835938 91.804688 C 307.035156 91.824219 306.789062 92.039062 307.296875 92.140625 C 308.101562 92.167969 308.144531 91.941406 308.585938 91.734375 L 308.460938 91.671875 L 309.003906 91.632812 C 309.40625 91.644531 307.578125 92.039062 308.894531 92.246094 C 308.914062 92.136719 309.6875 91.597656 310.039062 91.886719 C 309.371094 91.867188 309.453125 92.148438 309.699219 92.265625 L 310.636719 92.292969 L 310.328125 91.777344 C 313.019531 91.804688 315.824219 92.167969 318.703125 92.140625 C 318.660156 92.597656 320.738281 92.164062 320.476562 92.832031 L 320.367188 92.769531 C 319.660156 92.832031 320.574219 93.292969 321.144531 93.214844 C 320.546875 93.003906 322.21875 92.546875 320.761719 92.453125 L 321.890625 92.136719 C 321.984375 91.933594 322.125 91.804688 322.296875 91.722656 C 322.378906 91.679688 322.476562 91.644531 322.578125 91.625 C 322.625 91.613281 322.679688 91.605469 322.738281 91.597656 C 322.820312 91.589844 322.910156 91.589844 322.992188 91.585938 C 323.742188 91.5625 324.625 91.667969 325.457031 91.761719 C 325.65625 92.328125 325.847656 92.878906 326.0625 93.378906 C 326.164062 93.636719 326.277344 93.875 326.398438 94.109375 L 326.488281 94.277344 L 326.558594 94.386719 C 326.605469 94.453125 326.65625 94.523438 326.710938 94.59375 C 326.613281 94.503906 326.539062 94.503906 326.496094 94.507812 C 327.507812 95.714844 327.625 97.746094 327.957031 97.976562 L 327.695312 98.246094 C 328.726562 99.195312 328.835938 99.320312 329.292969 100.8125 C 329.230469 100.820312 329.066406 100.695312 329.105469 100.953125 C 329.5 101.179688 329.890625 101.414062 330.277344 102.402344 L 330.160156 102.410156 L 330.910156 103.890625 C 329.925781 104.332031 332.707031 106.191406 331.859375 107.132812 C 332.28125 107.296875 332.886719 108.351562 333.25 108.777344 C 333.210938 108.796875 333.183594 108.851562 333.175781 108.957031 C 333.96875 109.285156 333.789062 110.699219 334.148438 111.3125 C 334.464844 111.667969 334.546875 111.414062 334.628906 111.152344 C 334.601562 112.171875 336.152344 113.21875 336.117188 113.59375 C 336.355469 114.222656 335.847656 113.996094 335.710938 114.261719 C 336.21875 115.117188 336.523438 113.699219 336.695312 115.089844 C 336.585938 114.964844 336.433594 114.722656 336.417969 114.855469 C 336.550781 115.359375 335.8125 116.699219 336.253906 117.050781 L 336.289062 116.664062 C 336.929688 117.386719 336.417969 119.027344 337.140625 118.855469 L 337.410156 118.632812 C 337.679688 120.273438 337.816406 119.191406 338.148438 120.824219 L 338.085938 120.828125 C 338.445312 121.441406 338.222656 121.964844 338.855469 122.046875 L 338.824219 121.800781 C 339.230469 122.578125 339.230469 122.667969 339.582031 123.488281 C 339.667969 123.5625 339.925781 123.914062 339.875 124.078125 C 340.304688 123.925781 340.9375 125.867188 341.082031 126.238281 C 340.722656 125.625 340.6875 126.011719 340.605469 126.273438 C 341.117188 126.496094 341.273438 126.742188 341.273438 127.375 C 341.816406 127.210938 342.410156 127.066406 342.917969 128.085938 C 342.769531 127.960938 342.609375 127.734375 342.554688 127.882812 C 342.5 128.035156 342.726562 128.222656 342.804688 128.289062 C 342.746094 128.441406 342.511719 128.144531 342.390625 128.34375 C 343.203125 128.8125 342.980469 129.53125 343.628906 130.457031 C 343.324219 130.210938 343.355469 130.535156 343.230469 130.726562 C 343.84375 130.535156 343.375 132.335938 343.9375 131.609375 C 344.421875 133.804688 346.226562 136.613281 346.136719 137.664062 C 346.082031 137.851562 346.257812 138.0625 346.402344 138.332031 C 346.464844 138.609375 346.5625 138.972656 346.5625 139.171875 L 346.289062 139.117188 C 346.78125 140.199219 346.472656 139.949219 346.960938 141.230469 C 346.636719 140.695312 346.492188 140.914062 346.203125 141.429688 L 346.75 142.316406 L 346.308594 142.46875 C 346.460938 142.835938 346.375 143.226562 346.289062 143.617188 C 346.292969 143.425781 346.246094 143.527344 346.171875 143.535156 C 346.761719 143.761719 346.554688 145.320312 346.824219 145.585938 C 346.21875 145.925781 346.878906 146.648438 346.292969 146.875 C 346.363281 147.011719 346.40625 147.183594 346.4375 147.371094 C 346.714844 147.210938 347.011719 147.175781 346.839844 147.515625 C 346.839844 147.550781 346.839844 147.570312 346.839844 147.597656 L 346.480469 147.707031 C 346.507812 148.078125 346.5 148.449219 346.480469 148.691406 Z M 340.226562 126.34375 C 340.21875 126.464844 340.1875 126.660156 340.136719 126.878906 L 340.242188 127.101562 C 340.324219 127.167969 340.40625 127.238281 340.476562 127.292969 C 340.421875 127.273438 340.359375 127.25 340.304688 127.230469 L 340.539062 127.738281 C 340.621094 127.707031 340.667969 127.609375 340.660156 127.4375 C 340.605469 127.402344 340.542969 127.347656 340.476562 127.292969 C 340.722656 127.382812 340.914062 127.417969 340.921875 127.265625 Z M 306.910156 92.003906 L 306.726562 91.914062 C 306.617188 92.019531 306.5 92.101562 306.910156 92.003906 Z M 344.109375 156.660156 C 344.054688 156.585938 343.953125 156.515625 343.828125 156.449219 C 343.765625 156.738281 343.703125 157.027344 343.636719 157.308594 C 343.882812 156.992188 344.089844 156.703125 344.109375 156.660156 Z M 345.109375 151.851562 L 345.386719 151.664062 C 345.363281 151.191406 345.144531 150.707031 344.867188 150.265625 C 344.800781 150.816406 344.722656 151.363281 344.648438 151.90625 C 344.855469 152.269531 345.039062 152.59375 345.191406 152.808594 Z M 346.121094 141.332031 C 345.921875 141.097656 345.722656 140.867188 345.515625 140.636719 C 345.515625 140.867188 345.507812 141.09375 345.503906 141.320312 C 345.75 141.292969 345.96875 141.273438 346.121094 141.332031 Z M 271.984375 91.550781 L 271.414062 91.398438 L 271.777344 91.640625 Z M 270.898438 92.085938 L 270.765625 91.632812 L 270.421875 92.046875 C 270.546875 92.019531 270.800781 91.984375 270.898438 92.085938 Z M 270.898438 92.085938 " fill-opacity="1" fill-rule="nonzero"/><path fill="#ebd5c4" d="M 116.570312 188.472656 C 92.285156 188.289062 83.710938 167.792969 83.929688 139.632812 L 93.234375 93.277344 L 154.027344 93.277344 L 147.753906 140.273438 C 146.628906 161.082031 143.0625 188.679688 116.570312 188.472656 Z M 270.421875 93.277344 L 212.234375 93.277344 L 213.164062 140.871094 C 214.960938 162.726562 222.90625 188.472656 247.601562 188.472656 C 275.214844 188.472656 280.332031 154.328125 279.472656 140.273438 Z M 275.53125 33.292969 L 83.113281 30.699219 C 78.683594 30.636719 75 34.078125 74.757812 38.496094 L 72.664062 77.082031 C 72.410156 81.804688 76.171875 85.773438 80.910156 85.773438 L 275.421875 85.773438 C 279.980469 85.773438 283.671875 82.078125 283.671875 77.53125 L 283.671875 41.539062 C 283.671875 37.023438 280.050781 33.347656 275.53125 33.292969 Z M 60.402344 212.578125 C 60.84375 214.703125 62.191406 288.386719 62.238281 290.328125 C 62.289062 292.269531 188.078125 292.136719 189.6875 290.328125 C 191.300781 288.515625 187.03125 214.230469 187.085938 212.117188 C 187.148438 210.003906 59.953125 210.457031 60.402344 212.578125 Z M 60.402344 212.578125 " fill-opacity="1" fill-rule="nonzero"/><path fill="#072e36" d="M 229.152344 274.59375 C 229.152344 276.328125 227.75 277.730469 226.011719 277.730469 C 224.277344 277.730469 222.875 276.328125 222.875 274.59375 C 222.875 272.859375 224.277344 271.453125 226.011719 271.453125 C 227.75 271.453125 229.152344 272.859375 229.152344 274.59375 Z M 323.886719 136.46875 C 320.628906 136.570312 317.515625 136.363281 314.15625 136.460938 C 308.214844 136.597656 302.238281 136.640625 296.28125 136.675781 C 290.289062 136.703125 284.296875 136.867188 278.285156 136.6875 C 275.058594 136.589844 271.542969 136.734375 268.164062 136.730469 C 264.90625 136.703125 261.671875 136.675781 258.414062 136.644531 C 255.84375 136.640625 253.25 136.652344 250.6875 136.695312 C 248.234375 136.734375 245.804688 136.859375 243.351562 136.886719 C 239.332031 136.914062 235.296875 136.941406 231.273438 136.96875 C 228.375 136.992188 225.46875 137.003906 222.578125 137.023438 C 221.414062 137.039062 219.71875 137.253906 219.214844 137.175781 C 217.425781 136.921875 215.519531 137.085938 213.707031 137.074219 C 209.460938 137.039062 205.265625 137.21875 201.058594 137.28125 C 194.15625 137.382812 187.203125 137.390625 180.28125 137.390625 C 173.328125 137.390625 166.316406 137.597656 159.398438 137.328125 C 157.722656 137.265625 155.863281 137.335938 154.09375 137.339844 C 152.160156 137.347656 150.011719 137.453125 148.351562 137.339844 C 146.582031 137.222656 145.285156 137.390625 143.777344 137.390625 C 134.917969 137.417969 126.054688 137.4375 117.199219 137.464844 C 108.464844 137.453125 99.714844 137.679688 90.988281 137.402344 C 88.515625 137.328125 85.640625 137.285156 83.195312 137.570312 C 78.738281 137.457031 74.476562 137.746094 70.0625 137.773438 C 64.882812 137.800781 59.589844 137.589844 54.5 137.941406 C 54.265625 137.953125 53.777344 137.941406 53.644531 137.90625 C 52.660156 137.679688 51.269531 137.816406 50.078125 137.773438 C 46.25 137.652344 42.59375 137.886719 38.902344 137.953125 C 37.132812 137.996094 35.308594 138.035156 33.488281 138.085938 C 32.359375 138.09375 31.21875 138.175781 30.21875 138.269531 C 28.855469 138.394531 28.84375 138.636719 29.804688 138.882812 C 30.878906 139.152344 32.257812 139.324219 33.765625 139.425781 C 35.261719 139.515625 36.878906 139.550781 38.476562 139.566406 C 44.265625 139.632812 50.105469 139.648438 55.871094 139.570312 C 61.605469 139.488281 67.265625 139.867188 72.96875 139.570312 C 73.265625 139.558594 73.628906 139.558594 73.925781 139.570312 C 74.929688 139.621094 75.921875 139.722656 76.914062 139.714844 C 78.078125 139.710938 79.207031 139.585938 80.386719 139.566406 C 81.816406 139.53125 83.726562 139.648438 84.640625 139.53125 C 86.636719 139.269531 88.902344 139.308594 90.5625 139.398438 C 94.496094 139.605469 98.398438 139.46875 102.296875 139.507812 C 105.710938 139.542969 109.222656 139.363281 112.558594 139.632812 C 113.167969 139.683594 114.429688 139.667969 114.824219 139.597656 C 115.929688 139.394531 117.210938 139.46875 118.417969 139.460938 C 122.925781 139.441406 127.492188 139.359375 131.933594 139.433594 C 136.253906 139.507812 140.433594 139.015625 144.695312 139.363281 C 144.949219 139.386719 145.515625 139.386719 145.625 139.359375 C 146.851562 139.074219 148.59375 139.191406 150.085938 139.1875 C 152.710938 139.171875 155.273438 139.160156 157.957031 139.28125 C 160.628906 139.40625 163.714844 139.269531 166.605469 139.28125 C 169.382812 139.324219 172.136719 139.359375 174.910156 139.398438 C 178.609375 139.414062 182.320312 139.386719 186.027344 139.351562 C 187.375 139.335938 188.65625 139.351562 190.101562 139.21875 C 191.589844 139.089844 193.765625 139.070312 195.550781 139.242188 C 195.921875 139.277344 196.664062 139.324219 196.78125 139.304688 C 198.214844 139.019531 200.085938 139.132812 201.734375 139.132812 C 203.507812 139.132812 205.03125 138.988281 206.65625 138.945312 C 209.265625 138.882812 211.863281 138.964844 214.492188 139.027344 C 218.09375 139.109375 221.902344 139.054688 225.578125 138.980469 C 229.050781 138.910156 232.3125 139.109375 235.941406 138.964844 C 240.125 138.800781 244.613281 138.902344 248.953125 138.847656 C 253.335938 138.765625 257.703125 138.691406 262.089844 138.609375 C 266.59375 138.574219 271.117188 138.53125 275.621094 138.496094 C 277.289062 138.476562 279.023438 138.746094 279.953125 138.613281 C 281.824219 138.359375 283.65625 138.464844 285.453125 138.4375 C 290.28125 138.386719 295.121094 138.347656 299.957031 138.296875 C 305.4375 138.234375 310.917969 138.167969 316.394531 138.105469 C 320.097656 138.0625 323.074219 137.71875 326.332031 137.363281 C 326.585938 137.335938 326.832031 137.28125 326.949219 137.238281 C 327.527344 136.984375 325.386719 136.414062 323.886719 136.46875 Z M 145.664062 233.335938 C 145.121094 233.757812 144.480469 233.96875 143.945312 234.417969 C 142.992188 235.207031 142.007812 235.960938 141.015625 236.695312 C 140.019531 237.4375 139.109375 238.300781 137.996094 238.890625 C 137.394531 239.214844 136.894531 239.757812 136.328125 240.171875 C 135.785156 240.570312 135.199219 240.921875 134.648438 241.3125 C 134.214844 241.625 133.792969 241.960938 133.394531 242.320312 C 133.015625 242.664062 132.691406 243.0625 132.304688 243.394531 C 131.671875 243.9375 131.003906 244.445312 130.363281 244.976562 C 129.894531 245.355469 129.421875 245.726562 128.972656 246.125 C 128.792969 246.285156 128.648438 246.660156 128.519531 246.667969 C 128.066406 246.703125 127.851562 247.066406 127.546875 247.289062 C 126.832031 247.804688 126.261719 248.480469 125.613281 249.070312 C 124.550781 250.042969 123.4375 250.949219 122.316406 251.851562 C 121.191406 252.761719 120.199219 253.839844 118.914062 254.550781 C 118.601562 254.722656 118.347656 255.019531 118.074219 255.257812 C 117.769531 255.519531 117.488281 255.878906 117.15625 256.015625 C 116.800781 256.160156 116.695312 256.457031 116.460938 256.664062 L 112.296875 260.285156 C 110.910156 261.453125 109.683594 262.808594 108.136719 263.800781 C 107.695312 264.082031 107.21875 264.441406 107.027344 264.992188 C 106.261719 265.519531 105.792969 266.328125 105.125 266.960938 C 104.347656 267.695312 103.382812 268.28125 102.839844 269.25 C 102.8125 269.292969 102.730469 269.355469 102.6875 269.347656 C 102.386719 269.320312 102.261719 269.617188 102.054688 269.753906 C 101.386719 270.203125 100.988281 270.890625 100.484375 271.476562 C 100.25 271.757812 100.003906 272.054688 99.761719 272.347656 C 99.605469 272.527344 99.5 272.761719 99.425781 272.980469 C 99.316406 273.277344 99.488281 273.457031 99.789062 273.484375 C 100.464844 273.546875 101.015625 273.148438 101.519531 272.707031 C 102.421875 271.921875 103.328125 271.125 104.15625 270.257812 C 104.976562 269.394531 106.105469 268.894531 106.78125 267.882812 C 106.8125 267.828125 106.867188 267.777344 106.925781 267.75 C 107.109375 267.648438 107.332031 267.585938 107.480469 267.449219 C 107.652344 267.28125 107.75 267.035156 107.914062 266.855469 C 108.117188 266.636719 108.488281 266.457031 108.550781 266.242188 C 108.679688 265.777344 109.066406 265.5 109.382812 265.335938 C 110.132812 264.949219 110.648438 264.316406 111.28125 263.820312 C 111.839844 263.386719 112.273438 262.78125 112.976562 262.527344 C 113.109375 262.480469 113.292969 262.300781 113.308594 262.195312 C 113.34375 261.894531 113.597656 261.777344 113.78125 261.613281 C 114.472656 260.984375 115.144531 260.316406 115.898438 259.78125 C 116.625 259.265625 116.964844 258.328125 117.875 258.03125 C 117.929688 258.011719 118.019531 257.941406 118.019531 257.910156 C 118.023438 257.53125 118.382812 257.390625 118.617188 257.191406 C 119.03125 256.835938 119.421875 256.484375 119.933594 256.230469 C 120.433594 255.96875 120.839844 255.464844 121.316406 255.09375 C 121.769531 254.742188 122.273438 254.453125 122.722656 254.09375 C 123.320312 253.621094 123.90625 253.117188 124.476562 252.617188 C 124.683594 252.429688 124.898438 252.273438 125.054688 251.988281 C 125.214844 251.699219 125.550781 251.398438 125.949219 251.300781 C 126.035156 251.28125 126.183594 251.21875 126.183594 251.183594 C 126.234375 250.785156 126.613281 250.625 126.878906 250.414062 C 127.167969 250.1875 127.320312 249.875 127.5625 249.636719 C 127.949219 249.25 128.421875 248.980469 128.890625 248.699219 C 129.53125 248.308594 130.125 247.785156 130.675781 247.253906 C 131.199219 246.757812 131.859375 246.496094 132.363281 245.933594 C 132.945312 245.277344 133.753906 244.796875 134.433594 244.210938 C 135.121094 243.621094 135.769531 242.980469 136.457031 242.394531 C 137.167969 241.789062 137.925781 241.238281 138.640625 240.640625 C 138.902344 240.417969 139.363281 240.417969 139.441406 240.207031 C 139.597656 239.777344 139.972656 239.632812 140.253906 239.402344 C 141.015625 238.761719 141.824219 238.160156 142.613281 237.550781 C 143.511719 236.855469 144.390625 236.136719 145.316406 235.476562 C 145.933594 235.03125 146.230469 234.398438 146.636719 233.824219 C 146.671875 233.785156 146.683594 233.714844 146.679688 233.667969 C 146.65625 233.390625 145.921875 233.136719 145.664062 233.335938 Z M 139.648438 253.867188 C 139.503906 253.695312 138.953125 253.332031 138.898438 253.394531 C 138.78125 253.523438 138.511719 253.488281 138.414062 253.640625 C 138.242188 253.902344 138.023438 254.125 137.792969 254.328125 C 137.566406 254.542969 137.4375 254.847656 137.058594 254.929688 C 136.859375 254.96875 136.816406 255.191406 136.679688 255.300781 C 136.542969 255.410156 136.363281 255.464844 136.226562 255.570312 C 136.113281 255.652344 136.023438 255.746094 135.957031 255.863281 C 135.886719 255.972656 135.878906 256.140625 135.8125 256.25 C 135.6875 256.421875 135.535156 256.566406 135.390625 256.71875 C 135.289062 256.828125 135.179688 256.929688 135.089844 257.054688 C 135.054688 257.101562 135.144531 257.304688 135.066406 257.277344 C 134.8125 257.164062 134.855469 257.34375 134.773438 257.390625 C 134.578125 257.515625 134.542969 257.777344 134.425781 257.96875 C 134.234375 258.28125 133.972656 258.527344 133.703125 258.777344 C 133.4375 259.023438 133.320312 259.410156 132.859375 259.476562 C 132.746094 259.492188 132.726562 259.609375 132.664062 259.671875 C 132.597656 259.746094 132.589844 259.890625 132.445312 259.878906 C 132.292969 259.863281 132.363281 260.023438 132.304688 260.078125 C 131.984375 260.40625 131.699219 260.773438 131.355469 261.082031 C 131.019531 261.390625 130.859375 261.859375 130.332031 261.988281 C 130.179688 262.03125 130.039062 262.105469 130.164062 262.390625 C 129.917969 262.480469 129.972656 262.828125 129.835938 263.015625 C 129.667969 263.230469 129.316406 263.277344 129.394531 263.710938 C 129.402344 263.730469 129.367188 263.738281 129.339844 263.726562 C 129.140625 263.609375 129.1875 263.753906 129.117188 263.773438 C 128.890625 263.835938 128.933594 264.128906 128.871094 264.332031 C 128.835938 264.425781 128.820312 264.535156 128.789062 264.632812 C 128.765625 264.695312 128.800781 264.804688 128.84375 264.914062 C 128.90625 265.066406 129.082031 265.230469 129.285156 265.347656 C 129.730469 265.609375 129.910156 265.535156 130.039062 265.429688 C 130.273438 265.238281 130.503906 265.039062 130.648438 264.765625 C 130.792969 264.488281 131.28125 264.535156 131.265625 264.125 C 131.265625 264.101562 131.28125 264.089844 131.300781 264.089844 C 131.371094 264.082031 131.488281 264.117188 131.515625 264.074219 C 131.554688 264.027344 131.507812 263.902344 131.527344 263.839844 C 131.554688 263.765625 131.714844 263.773438 131.660156 263.664062 C 131.535156 263.40625 131.652344 263.359375 131.785156 263.351562 C 132.078125 263.347656 132.121094 263.113281 132.300781 262.996094 C 132.449219 262.898438 132.449219 262.644531 132.773438 262.707031 C 132.835938 262.71875 132.871094 262.664062 132.835938 262.601562 C 132.726562 262.421875 132.828125 262.429688 132.871094 262.382812 C 133.023438 262.203125 133.132812 261.984375 133.359375 261.875 C 133.582031 261.769531 133.375 261.28125 133.792969 261.371094 C 133.820312 261.378906 133.84375 261.355469 133.828125 261.335938 C 133.664062 261.101562 133.820312 261.117188 133.871094 261.0625 C 133.960938 260.957031 134.046875 260.855469 134.242188 260.847656 C 134.433594 260.832031 134.449219 260.632812 134.570312 260.539062 C 134.6875 260.449219 134.859375 260.414062 134.976562 260.324219 C 135.128906 260.199219 135.253906 260.050781 135.371094 259.898438 C 135.414062 259.84375 135.46875 259.800781 135.433594 259.664062 C 135.390625 259.527344 135.460938 259.429688 135.660156 259.484375 C 135.703125 259.5 135.761719 259.5 135.75 259.476562 C 135.597656 259.238281 135.75 259.242188 135.820312 259.1875 C 135.886719 259.125 135.839844 258.976562 135.875 258.894531 C 135.929688 258.761719 136.09375 258.726562 136.238281 258.679688 C 136.445312 258.609375 136.546875 258.445312 136.636719 258.265625 C 136.71875 258.101562 137.003906 258.121094 137.039062 257.902344 C 137.078125 257.648438 137.332031 257.566406 137.464844 257.378906 C 137.59375 257.191406 137.679688 256.957031 137.816406 256.773438 C 137.953125 256.582031 138.144531 256.4375 138.277344 256.242188 C 138.324219 256.175781 138.59375 256.296875 138.539062 256.179688 C 138.429688 255.945312 138.578125 255.953125 138.636719 255.878906 C 138.785156 255.679688 138.964844 255.5 139.136719 255.3125 C 139.332031 255.105469 139.503906 254.878906 139.722656 254.6875 C 139.867188 254.5625 139.738281 254.226562 139.703125 253.964844 C 139.703125 253.945312 139.675781 253.902344 139.648438 253.867188 Z M 247.148438 241.164062 C 247.085938 240.914062 247.058594 240.652344 246.980469 240.40625 C 246.925781 240.210938 246.835938 240.019531 246.734375 239.839844 C 246.628906 239.667969 246.480469 239.53125 246.367188 239.367188 C 246.191406 239.097656 246.019531 238.816406 245.796875 238.546875 C 245.632812 238.359375 245.460938 238.160156 245.226562 238.011719 C 245.136719 237.941406 244.921875 237.976562 244.902344 237.90625 C 244.828125 237.667969 244.585938 237.671875 244.386719 237.617188 C 243.839844 237.488281 243.53125 237.695312 243.167969 237.839844 C 242.59375 238.09375 242.097656 238.457031 241.722656 238.917969 C 241.527344 239.144531 241.398438 239.421875 241.273438 239.683594 C 241.164062 239.929688 241.046875 240.171875 240.859375 240.40625 C 240.769531 240.515625 240.761719 240.675781 240.730469 240.820312 C 240.6875 240.96875 240.707031 241.15625 240.613281 241.28125 C 240.507812 241.417969 240.597656 241.542969 240.585938 241.664062 C 240.496094 242.421875 240.679688 243.199219 240.921875 243.859375 C 241.164062 244.542969 241.582031 245.015625 241.742188 245.710938 C 241.796875 245.917969 241.933594 246.179688 242.238281 246.234375 C 242.355469 246.429688 242.566406 246.566406 242.78125 246.632812 C 242.996094 246.710938 243.207031 246.738281 243.414062 246.777344 C 243.875 246.875 244.398438 246.992188 244.777344 246.65625 C 244.792969 246.640625 244.839844 246.640625 244.855469 246.65625 C 244.984375 246.773438 245.074219 246.648438 245.175781 246.632812 C 245.523438 246.578125 245.699219 246.296875 245.90625 246.105469 C 246.003906 246.015625 246.101562 245.917969 246.195312 245.824219 C 246.257812 245.765625 246.292969 245.671875 246.320312 245.574219 C 246.363281 245.445312 246.292969 245.300781 246.15625 245.195312 C 245.851562 244.976562 245.589844 245.066406 245.382812 245.167969 C 245.003906 245.359375 244.703125 245.503906 244.425781 245.617188 C 244.28125 245.679688 244.117188 245.636719 243.972656 245.601562 C 243.828125 245.5625 243.71875 245.527344 243.566406 245.574219 C 243.550781 245.582031 243.53125 245.574219 243.523438 245.5625 C 243.496094 245.511719 243.496094 245.429688 243.464844 245.417969 C 243.429688 245.394531 243.347656 245.4375 243.296875 245.417969 C 243.234375 245.390625 243.242188 245.277344 243.152344 245.292969 C 242.953125 245.328125 242.898438 245.175781 242.898438 245.058594 C 242.898438 244.777344 242.683594 244.550781 242.589844 244.292969 C 242.503906 244.066406 242.292969 243.894531 242.375 243.621094 C 242.390625 243.570312 242.355469 243.496094 242.300781 243.488281 C 242.148438 243.476562 242.167969 243.371094 242.132812 243.304688 C 242.023438 243.035156 241.90625 242.757812 241.925781 242.492188 C 241.949219 242.242188 241.632812 241.980469 241.898438 241.734375 C 241.914062 241.71875 241.921875 241.6875 241.90625 241.679688 C 241.726562 241.582031 241.832031 241.480469 241.851562 241.382812 C 241.886719 241.21875 241.921875 241.050781 242.066406 240.914062 C 242.203125 240.777344 242.195312 240.5625 242.285156 240.390625 C 242.382812 240.21875 242.507812 240.101562 242.59375 239.980469 C 242.71875 239.8125 242.835938 239.648438 242.972656 239.503906 C 243.023438 239.449219 243.078125 239.414062 243.089844 239.304688 C 243.105469 239.195312 243.207031 239.113281 243.347656 239.171875 C 243.375 239.1875 243.421875 239.199219 243.421875 239.179688 C 243.402344 238.980469 243.539062 239.007812 243.613281 238.996094 C 243.703125 238.972656 243.757812 238.863281 243.839844 238.828125 C 243.902344 238.800781 244 238.800781 244.042969 238.824219 C 244.082031 238.84375 244.117188 238.871094 244.160156 238.910156 C 244.25 239.007812 244.394531 239.0625 244.570312 239.171875 C 244.742188 239.277344 244.757812 239.523438 244.949219 239.65625 C 245.183594 239.8125 245.261719 240.117188 245.40625 240.363281 C 245.554688 240.613281 245.730469 240.867188 245.851562 241.140625 C 245.984375 241.425781 246.046875 241.734375 246.140625 242.03125 C 246.175781 242.140625 246.023438 242.296875 246.113281 242.339844 C 246.292969 242.429688 246.246094 242.574219 246.273438 242.691406 C 246.347656 243.015625 246.375 243.335938 246.382812 243.65625 C 246.398438 244.011719 246.367188 244.371094 246.257812 244.625 C 246.175781 244.78125 246.320312 244.976562 246.238281 245.195312 C 246.230469 245.210938 246.238281 245.246094 246.246094 245.277344 C 246.265625 245.355469 246.339844 245.476562 246.457031 245.554688 C 246.570312 245.628906 246.726562 245.664062 246.78125 245.601562 C 247.035156 245.359375 247.296875 245.132812 247.367188 244.824219 C 247.472656 244.292969 247.484375 243.8125 247.472656 243.335938 C 247.457031 242.855469 247.296875 242.421875 247.339844 241.933594 C 247.359375 241.65625 247.210938 241.417969 247.148438 241.164062 Z M 254.109375 239.015625 C 254.148438 239.207031 254.261719 239.402344 254.289062 239.605469 C 254.296875 239.820312 254.28125 240.039062 254.238281 240.246094 C 254.144531 240.5 254.039062 240.742188 253.917969 240.96875 C 253.777344 241.195312 253.742188 241.5 253.511719 241.652344 C 253.132812 241.941406 252.855469 242.292969 252.46875 242.53125 C 252.277344 242.636719 252.089844 242.765625 251.882812 242.84375 C 251.683594 242.917969 251.476562 243 251.277344 243.097656 C 251.148438 243.144531 251.015625 243.132812 250.886719 243.117188 C 250.839844 243.21875 250.824219 243.359375 250.984375 243.476562 C 251.066406 243.53125 250.984375 243.660156 251.003906 243.75 C 251.015625 243.828125 251.101562 243.902344 251.101562 243.976562 C 251.101562 244.039062 251.03125 244.109375 251.003906 244.171875 C 250.996094 244.191406 250.996094 244.210938 251.003906 244.230469 C 251.203125 244.605469 250.933594 244.96875 250.988281 245.339844 C 251.039062 245.710938 251.011719 246.089844 250.96875 246.46875 C 250.949219 246.675781 250.886719 246.890625 250.542969 247.011719 C 250.390625 247.066406 250.226562 247.066406 250.128906 246.972656 C 250.058594 246.902344 249.996094 246.828125 249.976562 246.757812 C 249.949219 246.640625 249.921875 246.523438 249.894531 246.40625 C 249.839844 246.171875 249.695312 245.933594 249.777344 245.691406 C 249.804688 245.617188 249.714844 245.527344 249.867188 245.464844 C 249.886719 245.457031 249.902344 245.421875 249.886719 245.410156 C 249.660156 245.078125 249.8125 244.75 249.796875 244.417969 C 249.785156 244.136719 249.597656 243.867188 249.675781 243.585938 C 249.488281 243.433594 249.515625 243.25 249.570312 243.089844 C 249.757812 242.53125 249.605469 241.976562 249.605469 241.425781 C 249.605469 240.859375 249.550781 240.296875 249.523438 239.730469 C 249.515625 239.632812 249.40625 239.558594 249.480469 239.441406 C 249.550781 239.332031 249.480469 239.199219 249.46875 239.078125 C 249.460938 238.96875 249.414062 238.851562 249.445312 238.738281 C 249.488281 238.621094 249.503906 238.511719 249.515625 238.402344 C 249.523438 238.265625 249.503906 238.042969 249.488281 237.867188 C 249.503906 237.535156 249.207031 236.949219 249.769531 237.054688 C 250.136719 237.019531 250.554688 236.949219 250.851562 236.9375 C 251.105469 236.949219 251.363281 236.945312 251.617188 236.945312 C 251.925781 237.003906 252.296875 236.929688 252.585938 237.15625 C 252.710938 237.238281 252.910156 237.226562 252.929688 237.445312 C 252.929688 237.515625 253.117188 237.492188 253.199219 237.554688 C 253.296875 237.632812 253.394531 237.714844 253.476562 237.796875 L 253.683594 238.101562 C 253.785156 238.238281 253.867188 238.382812 253.917969 238.546875 C 254 238.699219 254.074219 238.855469 254.109375 239.015625 Z M 252.863281 239.558594 C 252.835938 239.460938 252.84375 239.359375 252.835938 239.257812 C 252.800781 239.167969 252.765625 239.070312 252.691406 239 C 252.636719 238.941406 252.585938 238.890625 252.574219 238.816406 C 252.546875 238.746094 252.546875 238.652344 252.464844 238.621094 C 252.3125 238.546875 252.195312 238.449219 252.070312 238.332031 C 252.03125 238.285156 251.988281 238.230469 251.941406 238.183594 C 251.882812 238.140625 251.816406 238.128906 251.746094 238.128906 C 251.65625 238.128906 251.566406 238.203125 251.484375 238.167969 C 251.417969 238.132812 251.304688 238.070312 251.222656 238.25 C 251.214844 238.265625 251.183594 238.230469 251.160156 238.203125 C 251.070312 238.078125 250.957031 238.085938 250.878906 238.160156 C 250.832031 238.238281 250.867188 238.230469 250.851562 238.238281 C 250.851562 238.25 250.859375 238.25 250.839844 238.246094 C 250.824219 238.238281 250.753906 238.222656 250.734375 238.257812 C 250.722656 238.230469 250.753906 238.382812 250.769531 238.464844 C 250.78125 238.5625 250.789062 238.648438 250.753906 238.738281 C 250.679688 238.917969 250.695312 239.082031 250.707031 239.257812 C 250.714844 239.351562 250.636719 239.46875 250.832031 239.539062 C 250.851562 239.546875 250.851562 239.578125 250.839844 239.601562 C 250.617188 239.890625 250.949219 240.144531 250.90625 240.425781 C 250.859375 240.714844 250.921875 241.011719 250.941406 241.300781 C 250.949219 241.375 250.894531 241.464844 251.03125 241.527344 C 251.078125 241.546875 251.085938 241.628906 251.058594 241.671875 C 250.960938 241.796875 250.957031 241.917969 250.960938 242.042969 C 251.070312 242.015625 251.175781 241.96875 251.285156 241.933594 L 251.5 241.851562 L 251.683594 241.734375 C 251.796875 241.65625 251.917969 241.609375 252.015625 241.527344 L 252.296875 241.257812 C 252.367188 241.195312 252.46875 241.148438 252.40625 240.984375 C 252.375 240.902344 252.582031 240.941406 252.628906 240.867188 C 252.710938 240.644531 252.863281 240.453125 252.890625 240.21875 C 252.953125 239.984375 252.875 239.757812 252.863281 239.558594 Z M 261.875 245.382812 C 261.675781 245.402344 261.484375 245.273438 261.277344 245.3125 C 260.925781 245.382812 260.566406 245.410156 260.210938 245.429688 C 259.851562 245.449219 259.5 245.5625 259.121094 245.449219 C 258.921875 245.390625 258.714844 245.492188 258.515625 245.492188 C 258.335938 245.492188 258.039062 245.457031 258.109375 245.429688 C 258.101562 245.417969 258.109375 245.410156 258.089844 245.429688 L 258.046875 245.472656 C 258.019531 245.492188 257.992188 245.503906 257.984375 245.5 C 257.980469 245.484375 257.972656 245.464844 257.972656 245.4375 L 257.972656 245.394531 L 257.964844 245.214844 C 257.953125 245.042969 257.953125 244.867188 257.925781 244.695312 C 257.910156 244.625 257.773438 244.527344 257.820312 244.5 C 257.984375 244.382812 257.882812 244.273438 257.890625 244.164062 C 257.910156 243.910156 257.792969 243.660156 257.746094 243.414062 C 257.683594 243.0625 257.667969 242.703125 257.664062 242.347656 C 257.675781 242.339844 257.691406 242.265625 257.703125 242.25 C 257.71875 242.230469 257.746094 242.3125 257.75 242.230469 C 257.773438 242.058594 257.800781 242.09375 257.820312 242.152344 C 257.867188 242.296875 257.917969 242.207031 257.957031 242.25 C 258 242.285156 258.042969 242.167969 258.082031 242.351562 C 258.089844 242.386719 258.101562 242.382812 258.109375 242.332031 C 258.125 242.195312 258.136719 242.25 258.152344 242.25 C 258.207031 242.242188 258.261719 242.203125 258.308594 242.265625 C 258.359375 242.324219 258.414062 242.003906 258.460938 242.25 C 258.460938 242.265625 258.46875 242.265625 258.476562 242.25 C 258.488281 242.0625 258.507812 242.148438 258.53125 242.148438 C 258.5625 242.148438 258.59375 242.140625 258.625 242.230469 C 258.660156 242.320312 258.695312 242.238281 258.730469 242.25 C 258.765625 242.269531 258.796875 242.339844 258.824219 242.351562 C 258.867188 242.375 258.914062 242.367188 258.957031 242.351562 C 258.96875 242.347656 258.992188 242.359375 259.003906 242.277344 C 259.027344 242.195312 259.046875 242.1875 259.066406 242.304688 C 259.074219 242.332031 259.082031 242.367188 259.082031 242.347656 C 259.09375 242.160156 259.121094 242.242188 259.144531 242.25 C 259.164062 242.257812 259.183594 242.160156 259.203125 242.140625 C 259.238281 242.105469 259.265625 242.175781 259.300781 242.222656 C 259.34375 242.292969 259.390625 242.269531 259.433594 242.230469 C 259.472656 242.195312 259.515625 242.339844 259.554688 242.257812 C 259.605469 242.160156 259.660156 242.25 259.714844 242.230469 C 259.769531 242.207031 259.816406 242.148438 259.871094 242.125 C 259.929688 242.105469 259.984375 242.132812 260.03125 242.113281 C 260.050781 242.105469 260.074219 242.292969 260.085938 242.214844 C 260.105469 242.058594 260.128906 242.132812 260.15625 242.125 C 260.210938 242.105469 260.273438 242.121094 260.328125 242.121094 C 260.390625 242.121094 260.457031 242.105469 260.519531 242.125 C 260.5625 242.140625 260.601562 241.925781 260.636719 241.789062 C 260.636719 241.773438 260.644531 241.746094 260.644531 241.71875 C 260.652344 241.570312 260.625 241.136719 260.609375 241.136719 C 260.566406 241.136719 260.535156 240.992188 260.492188 241.011719 C 260.421875 241.046875 260.347656 241.03125 260.277344 241.019531 C 260.210938 240.996094 260.132812 241.082031 260.066406 240.929688 C 260.023438 240.847656 259.984375 240.929688 259.941406 240.90625 C 259.898438 240.886719 259.867188 240.824219 259.824219 240.804688 C 259.796875 240.785156 259.761719 240.785156 259.734375 240.804688 C 259.707031 240.824219 259.679688 240.894531 259.644531 240.90625 C 259.597656 240.929688 259.550781 240.914062 259.5 240.914062 C 259.464844 240.914062 259.433594 240.90625 259.398438 240.921875 C 259.382812 240.929688 259.363281 241.058594 259.355469 241.011719 C 259.335938 240.839844 259.316406 240.9375 259.289062 240.921875 C 259.238281 240.878906 259.183594 240.984375 259.136719 241.011719 C 259.054688 241.058594 258.972656 241.039062 258.886719 241.019531 C 258.804688 240.996094 258.722656 241.113281 258.640625 240.921875 C 258.621094 240.875 258.597656 240.914062 258.578125 240.914062 C 258.558594 240.914062 258.53125 240.976562 258.507812 240.902344 C 258.488281 240.820312 258.476562 240.921875 258.453125 240.921875 C 258.351562 240.90625 258.242188 240.9375 258.136719 240.90625 C 258.035156 240.878906 257.929688 241.011719 257.828125 240.820312 C 257.800781 240.761719 257.765625 240.730469 257.730469 240.914062 C 257.710938 240.878906 257.683594 240.902344 257.664062 240.929688 C 257.667969 240.914062 257.664062 240.90625 257.667969 240.894531 C 257.710938 240.792969 257.664062 240.679688 257.65625 240.578125 C 257.648438 240.460938 257.578125 240.335938 257.648438 240.234375 C 257.722656 240.125 257.613281 240.054688 257.605469 239.957031 C 257.585938 239.441406 257.519531 238.863281 257.519531 238.394531 C 257.539062 238.363281 257.484375 238.292969 257.503906 238.257812 C 257.523438 238.25 257.558594 238.25 257.585938 238.265625 C 257.601562 238.273438 257.613281 238.277344 257.628906 238.292969 C 257.636719 238.300781 257.640625 238.304688 257.640625 238.320312 L 257.730469 238.347656 C 257.875 238.390625 258.042969 238.410156 258.171875 238.21875 C 258.433594 238.277344 258.675781 238.085938 258.9375 238.058594 C 259.246094 238.03125 259.578125 238.167969 259.871094 237.921875 C 259.886719 237.90625 259.914062 237.921875 259.929688 237.941406 C 259.996094 238.085938 260.078125 237.988281 260.15625 238.015625 C 260.394531 238.085938 260.609375 237.90625 260.828125 237.824219 C 260.933594 237.785156 261.042969 237.734375 261.148438 237.6875 C 261.214844 237.660156 261.277344 237.582031 261.324219 237.507812 C 261.394531 237.40625 261.367188 237.238281 261.292969 237.09375 C 261.121094 236.777344 260.925781 236.75 260.742188 236.75 C 260.402344 236.757812 260.074219 236.765625 259.734375 236.832031 C 259.40625 236.902344 259.054688 236.65625 258.714844 236.867188 C 258.695312 236.882812 258.675781 236.882812 258.660156 236.867188 C 258.597656 236.839844 258.535156 236.769531 258.476562 236.777344 C 258.40625 236.785156 258.335938 236.867188 258.269531 236.886719 C 258.179688 236.910156 258.054688 236.839844 258.007812 236.921875 C 257.898438 237.101562 257.75 237.082031 257.648438 237.03125 C 257.558594 236.972656 257.296875 236.976562 257.089844 237.003906 C 256.878906 237.03125 256.675781 237.066406 256.449219 237.082031 C 256.355469 237.089844 256.257812 237.101562 256.167969 237.117188 C 256.097656 237.109375 256.121094 237.171875 256.125 237.21875 L 256.140625 237.363281 C 256.15625 237.554688 256.140625 237.714844 256.058594 237.878906 C 256.03125 237.941406 256.042969 238.101562 256.09375 238.148438 C 256.238281 238.285156 256.195312 238.449219 256.203125 238.535156 C 256.222656 238.800781 256.292969 239.078125 256.242188 239.34375 C 256.203125 239.605469 256.53125 239.839844 256.304688 240.109375 C 256.292969 240.125 256.292969 240.15625 256.3125 240.164062 C 256.503906 240.226562 256.421875 240.335938 256.429688 240.425781 C 256.445312 240.585938 256.457031 240.734375 256.375 240.902344 C 256.300781 241.066406 256.386719 241.246094 256.382812 241.425781 C 256.375 241.589844 256.3125 241.761719 256.3125 241.925781 C 256.304688 242.148438 256.332031 242.375 256.355469 242.59375 C 256.359375 242.675781 256.359375 242.753906 256.445312 242.835938 C 256.53125 242.917969 256.546875 243.046875 256.4375 243.164062 C 256.414062 243.191406 256.382812 243.234375 256.394531 243.242188 C 256.589844 243.316406 256.511719 243.433594 256.511719 243.53125 C 256.511719 243.640625 256.617188 243.722656 256.636719 243.820312 C 256.675781 243.972656 256.621094 244.136719 256.582031 244.292969 C 256.527344 244.515625 256.566406 244.742188 256.617188 244.960938 C 256.644531 245.066406 256.617188 245.167969 256.601562 245.273438 C 256.59375 245.328125 256.589844 245.375 256.589844 245.429688 C 256.589844 245.457031 256.589844 245.472656 256.59375 245.519531 C 256.601562 245.566406 256.609375 245.621094 256.621094 245.671875 C 256.738281 246.078125 256.699219 246.550781 256.734375 247.007812 L 256.828125 246.992188 C 257.324219 246.921875 257.835938 246.808594 258.246094 246.746094 C 258.515625 246.695312 258.785156 246.703125 259.054688 246.65625 C 259.148438 246.632812 259.273438 246.8125 259.320312 246.730469 C 259.417969 246.558594 259.535156 246.628906 259.644531 246.613281 C 259.933594 246.566406 260.222656 246.550781 260.511719 246.515625 C 260.84375 246.484375 261.167969 246.433594 261.5 246.421875 C 261.71875 246.414062 261.875 246.179688 262.054688 246.027344 C 262.070312 246.015625 262.082031 245.988281 262.082031 245.953125 C 262.136719 245.789062 261.964844 245.367188 261.875 245.382812 Z M 272.300781 241.011719 C 272.144531 240.839844 272.226562 240.679688 272.21875 240.523438 L 272.199219 239.234375 L 272.128906 237.777344 C 272.125 237.445312 271.882812 237.199219 271.722656 236.929688 C 271.710938 236.910156 271.683594 236.886719 271.648438 236.882812 C 271.496094 236.839844 271.078125 237.058594 271.089844 237.191406 C 271.117188 237.472656 270.988281 237.753906 271.027344 238.042969 C 271.097656 238.554688 271.105469 239.070312 271.105469 239.585938 C 271.097656 240.101562 271.171875 240.625 271.015625 241.140625 C 270.933594 241.417969 271 241.726562 270.972656 242.015625 C 270.945312 242.296875 270.871094 242.574219 270.835938 242.855469 C 270.808594 243.074219 270.792969 243.304688 270.800781 243.53125 C 270.800781 243.640625 270.820312 243.742188 270.835938 243.855469 L 270.855469 244.019531 L 270.863281 244.101562 C 270.863281 244.121094 270.871094 244.117188 270.871094 244.121094 C 270.875 244.183594 270.882812 244.261719 270.835938 244.300781 C 270.800781 244.328125 270.746094 244.316406 270.710938 244.308594 C 270.703125 244.316406 270.628906 244.4375 270.644531 244.371094 C 270.65625 244.289062 270.671875 244.253906 270.664062 244.230469 C 270.664062 244.203125 270.628906 244.21875 270.621094 244.199219 C 270.464844 243.921875 270.140625 243.652344 269.898438 243.386719 C 269.5 242.929688 269.148438 242.429688 268.804688 241.933594 C 268.453125 241.429688 267.992188 241.011719 267.785156 240.40625 C 267.738281 240.261719 267.605469 240.152344 267.507812 240.027344 C 267.40625 239.890625 267.246094 239.777344 267.21875 239.613281 C 267.207031 239.523438 267.160156 239.476562 267.109375 239.433594 C 267.054688 239.386719 267.011719 239.378906 266.929688 239.261719 C 266.71875 238.988281 266.511719 238.679688 266.296875 238.421875 C 266.0625 238.183594 265.878906 238.113281 265.683594 238.058594 C 265.472656 238.003906 265.160156 238.039062 264.933594 238.175781 C 264.6875 238.328125 264.589844 238.484375 264.5 238.679688 C 264.4375 238.824219 264.382812 238.996094 264.390625 239.230469 L 264.425781 240.652344 C 264.425781 240.96875 264.402344 241.292969 264.328125 241.617188 C 264.273438 241.835938 264.246094 242.085938 264.429688 242.296875 C 264.355469 242.691406 264.546875 243.054688 264.5625 243.441406 C 264.582031 243.894531 264.4375 244.355469 264.671875 244.804688 C 264.6875 244.824219 264.671875 244.867188 264.652344 244.878906 C 264.5 244.96875 264.589844 245.085938 264.570312 245.1875 C 264.488281 245.527344 264.652344 245.84375 264.714844 246.167969 C 264.75 246.316406 264.78125 246.484375 264.816406 246.640625 C 264.835938 246.738281 264.90625 246.839844 264.976562 246.929688 C 265.070312 247.046875 265.238281 247.054688 265.386719 246.964844 C 265.726562 246.777344 265.773438 246.488281 265.789062 246.207031 C 265.808594 245.699219 265.824219 245.183594 265.765625 244.679688 C 265.707031 244.175781 265.96875 243.675781 265.761719 243.179688 C 265.746094 243.152344 265.753906 243.125 265.761719 243.097656 C 265.792969 243.007812 265.863281 242.917969 265.855469 242.835938 C 265.851562 242.730469 265.773438 242.636719 265.753906 242.53125 C 265.734375 242.410156 265.808594 242.238281 265.734375 242.160156 C 265.5625 241.988281 265.589844 241.789062 265.648438 241.644531 C 265.789062 241.292969 265.699219 240.957031 265.734375 240.613281 C 265.738281 240.535156 265.738281 240.460938 265.734375 240.386719 C 265.726562 240.324219 265.71875 240.191406 265.71875 240.210938 C 265.71875 240.191406 265.734375 240.15625 265.828125 240.21875 L 265.84375 240.226562 C 265.855469 240.242188 265.851562 240.234375 265.808594 240.191406 C 265.671875 240.0625 265.726562 240.082031 265.726562 240.066406 C 265.683594 239.992188 265.800781 239.855469 265.851562 240.035156 C 265.863281 240.101562 265.878906 240.019531 265.925781 240.007812 C 265.96875 239.992188 266.027344 240.039062 265.960938 240.15625 C 265.960938 240.183594 265.988281 240.226562 266.007812 240.21875 C 266.222656 240.191406 266.242188 240.363281 266.324219 240.472656 C 266.460938 240.660156 266.601562 240.832031 266.667969 241.082031 C 266.738281 241.320312 266.964844 241.484375 267.101562 241.699219 C 267.234375 241.90625 267.324219 242.140625 267.453125 242.339844 C 267.632812 242.609375 267.832031 242.871094 268.039062 243.117188 C 268.117188 243.207031 268.171875 243.304688 268.316406 243.359375 C 268.460938 243.414062 268.578125 243.566406 268.578125 243.757812 C 268.578125 243.796875 268.589844 243.867188 268.605469 243.867188 C 268.824219 243.859375 268.859375 244.039062 268.941406 244.15625 C 269.03125 244.289062 269.183594 244.335938 269.285156 244.4375 C 269.367188 244.523438 269.429688 244.617188 269.484375 244.722656 C 269.554688 244.839844 269.554688 244.886719 269.683594 245.105469 C 269.761719 245.230469 269.835938 245.359375 269.925781 245.492188 C 270.207031 245.863281 270.503906 245.988281 270.875 245.996094 C 271.304688 245.996094 271.847656 245.863281 272.011719 245.394531 C 272.0625 245.085938 272.089844 244.761719 272.152344 244.460938 L 272.183594 244.046875 C 272.191406 243.949219 272.199219 243.855469 272.199219 243.757812 C 272.199219 243.371094 272.152344 242.988281 272.152344 242.601562 C 272.152344 242.203125 272.191406 241.804688 272.179688 241.402344 C 272.183594 241.246094 272.378906 241.09375 272.300781 241.011719 Z M 123.292969 68.015625 C 122.492188 77.417969 113.347656 74.003906 111.738281 73.597656 C 110.125 73.191406 105.988281 78.535156 113.402344 80.976562 C 120.828125 83.421875 129.414062 79.25 132.480469 71.335938 C 135.535156 63.417969 126.867188 55.242188 120.449219 52.839844 C 114.058594 50.011719 115.007812 44.691406 123.238281 44.222656 C 128.421875 44.269531 129.78125 38.929688 126.523438 37.175781 C 117.351562 34.125 104.175781 40.953125 107.820312 53.199219 C 110.738281 60.832031 124.089844 58.609375 123.292969 68.015625 Z M 151.574219 76.316406 C 152.097656 74.796875 152.125 68.972656 151.953125 62.53125 L 166.984375 62.203125 C 167.066406 69.332031 167.523438 75.601562 168.4375 76.730469 C 170.601562 79.394531 173.046875 79.691406 174.203125 75.382812 C 175.359375 71.074219 176.242188 45.351562 174.964844 41.296875 C 173.683594 37.242188 170.691406 34.59375 168.453125 39.144531 C 167.722656 40.628906 167.226562 46.984375 167.046875 54.066406 C 162.652344 54.328125 155.132812 54.980469 151.683594 55.015625 C 151.386719 48.496094 151.003906 42.796875 150.824219 41.835938 C 150.078125 37.808594 144.039062 33.328125 142.511719 40.671875 C 142.09375 42.703125 142.636719 75.582031 144.757812 79.621094 C 146.878906 83.660156 150.3125 79.972656 151.574219 76.316406 Z M 225.242188 79.339844 C 223.113281 72.953125 223.777344 43.191406 226.253906 38.503906 C 227.492188 36.816406 246.609375 32.34375 249.089844 48.117188 C 251.101562 60.929688 238.277344 67.183594 231.730469 67.949219 C 231.757812 72.492188 231.390625 72.023438 231.660156 74.570312 C 232.4375 82.003906 227.617188 83.234375 225.242188 79.339844 Z M 231.742188 59.855469 C 235.011719 58.773438 240.929688 56.027344 241.011719 50.265625 C 241.109375 43.554688 234.546875 45.023438 231.964844 45.703125 C 231.886719 49.289062 231.785156 54.5 231.742188 59.855469 Z M 182.484375 70.839844 C 177.851562 59.605469 181.425781 35.914062 198.441406 36.066406 C 212.585938 36.191406 219.421875 60.21875 211.902344 73.132812 C 204.378906 86.035156 188.195312 84.667969 182.484375 70.839844 Z M 191.046875 65.394531 C 195.121094 77.5625 203.089844 74.667969 205.996094 64.871094 C 208.902344 55.078125 204.734375 46.019531 200.050781 44.917969 C 195.371094 43.824219 185.652344 49.296875 191.046875 65.394531 Z M 191.046875 65.394531 " fill-opacity="1" fill-rule="nonzero"/></svg>