<svg xmlns="http://www.w3.org/2000/svg" xmlns:xlink="http://www.w3.org/1999/xlink" width="500" zoomAndPan="magnify" viewBox="0 0 375 374.999991" height="500" preserveAspectRatio="xMidYMid meet" version="1.0"><defs><clipPath id="d0f95aa320"><path d="M 103.792969 8.796875 L 271.042969 8.796875 L 271.042969 176.046875 L 103.792969 176.046875 Z M 103.792969 8.796875 " clip-rule="nonzero"/></clipPath><clipPath id="d4e5d3fc07"><path d="M 103.792969 199.125 L 271.042969 199.125 L 271.042969 366.375 L 103.792969 366.375 Z M 103.792969 199.125 " clip-rule="nonzero"/></clipPath></defs><g clip-path="url(#d0f95aa320)"><path fill="#000000" d="M 187.417969 8.796875 C 186.046875 8.796875 184.679688 8.832031 183.3125 8.898438 C 181.945312 8.964844 180.582031 9.066406 179.21875 9.203125 C 177.859375 9.335938 176.5 9.503906 175.144531 9.703125 C 173.792969 9.90625 172.445312 10.136719 171.101562 10.40625 C 169.757812 10.671875 168.425781 10.972656 167.097656 11.304688 C 165.769531 11.636719 164.449219 12.003906 163.140625 12.398438 C 161.832031 12.796875 160.53125 13.226562 159.242188 13.6875 C 157.957031 14.148438 156.679688 14.640625 155.414062 15.164062 C 154.148438 15.6875 152.898438 16.242188 151.660156 16.828125 C 150.425781 17.414062 149.203125 18.027344 147.996094 18.671875 C 146.789062 19.316406 145.597656 19.992188 144.425781 20.695312 C 143.25 21.398438 142.09375 22.132812 140.957031 22.890625 C 139.820312 23.652344 138.699219 24.441406 137.601562 25.253906 C 136.5 26.070312 135.421875 26.914062 134.363281 27.78125 C 133.308594 28.648438 132.269531 29.542969 131.257812 30.460938 C 130.242188 31.378906 129.253906 32.324219 128.285156 33.292969 C 127.316406 34.257812 126.375 35.25 125.453125 36.265625 C 124.535156 37.277344 123.640625 38.316406 122.773438 39.371094 C 121.90625 40.429688 121.0625 41.507812 120.246094 42.609375 C 119.433594 43.707031 118.644531 44.828125 117.882812 45.964844 C 117.125 47.101562 116.390625 48.257812 115.6875 49.433594 C 114.984375 50.605469 114.3125 51.796875 113.664062 53.003906 C 113.019531 54.210938 112.40625 55.433594 111.820312 56.667969 C 111.234375 57.90625 110.679688 59.15625 110.15625 60.421875 C 109.632812 61.6875 109.140625 62.960938 108.679688 64.25 C 108.21875 65.539062 107.789062 66.839844 107.390625 68.148438 C 106.996094 69.457031 106.628906 70.777344 106.296875 72.105469 C 105.964844 73.433594 105.664062 74.765625 105.398438 76.109375 C 105.132812 77.453125 104.898438 78.800781 104.695312 80.152344 C 104.496094 81.507812 104.328125 82.863281 104.195312 84.226562 C 104.058594 85.589844 103.960938 86.953125 103.890625 88.320312 C 103.824219 89.6875 103.792969 91.054688 103.792969 92.421875 C 103.792969 93.792969 103.824219 95.160156 103.890625 96.527344 C 103.960938 97.894531 104.058594 99.257812 104.195312 100.621094 C 104.328125 101.980469 104.496094 103.339844 104.695312 104.695312 C 104.898438 106.046875 105.132812 107.394531 105.398438 108.738281 C 105.664062 110.082031 105.964844 111.414062 106.296875 112.742188 C 106.628906 114.070312 106.996094 115.390625 107.390625 116.699219 C 107.789062 118.007812 108.21875 119.308594 108.679688 120.597656 C 109.140625 121.882812 109.632812 123.160156 110.15625 124.425781 C 110.679688 125.691406 111.234375 126.941406 111.820312 128.179688 C 112.40625 129.414062 113.019531 130.636719 113.664062 131.84375 C 114.3125 133.050781 114.984375 134.242188 115.6875 135.414062 C 116.390625 136.589844 117.125 137.746094 117.882812 138.882812 C 118.644531 140.019531 119.433594 141.140625 120.246094 142.238281 C 121.0625 143.339844 121.90625 144.417969 122.773438 145.476562 C 123.640625 146.53125 124.535156 147.570312 125.453125 148.582031 C 126.375 149.597656 127.316406 150.585938 128.285156 151.554688 C 129.253906 152.523438 130.242188 153.464844 131.257812 154.386719 C 132.269531 155.304688 133.308594 156.199219 134.363281 157.066406 C 135.421875 157.933594 136.5 158.777344 137.601562 159.59375 C 138.699219 160.40625 139.820312 161.195312 140.957031 161.957031 C 142.09375 162.714844 143.25 163.449219 144.425781 164.152344 C 145.597656 164.855469 146.789062 165.527344 147.996094 166.175781 C 149.203125 166.820312 150.425781 167.433594 151.660156 168.019531 C 152.898438 168.605469 154.148438 169.160156 155.414062 169.683594 C 156.679688 170.207031 157.957031 170.699219 159.242188 171.160156 C 160.53125 171.621094 161.832031 172.050781 163.140625 172.449219 C 164.449219 172.84375 165.769531 173.210938 167.097656 173.542969 C 168.425781 173.875 169.757812 174.175781 171.101562 174.441406 C 172.445312 174.707031 173.792969 174.941406 175.144531 175.144531 C 176.5 175.34375 177.859375 175.511719 179.21875 175.644531 C 180.582031 175.78125 181.945312 175.878906 183.3125 175.949219 C 184.679688 176.015625 186.046875 176.046875 187.417969 176.046875 C 188.785156 176.046875 190.152344 176.015625 191.519531 175.949219 C 192.886719 175.878906 194.25 175.78125 195.613281 175.644531 C 196.976562 175.511719 198.332031 175.34375 199.6875 175.144531 C 201.039062 174.941406 202.386719 174.707031 203.730469 174.441406 C 205.074219 174.175781 206.40625 173.875 207.734375 173.542969 C 209.0625 173.210938 210.382812 172.84375 211.691406 172.449219 C 213 172.050781 214.300781 171.621094 215.589844 171.160156 C 216.878906 170.699219 218.152344 170.207031 219.417969 169.683594 C 220.683594 169.160156 221.933594 168.605469 223.171875 168.019531 C 224.40625 167.433594 225.628906 166.820312 226.835938 166.175781 C 228.042969 165.527344 229.234375 164.855469 230.40625 164.152344 C 231.582031 163.449219 232.738281 162.714844 233.875 161.957031 C 235.015625 161.195312 236.132812 160.40625 237.230469 159.59375 C 238.332031 158.777344 239.410156 157.933594 240.46875 157.066406 C 241.523438 156.199219 242.5625 155.304688 243.574219 154.386719 C 244.589844 153.464844 245.582031 152.523438 246.546875 151.554688 C 247.515625 150.585938 248.460938 149.597656 249.378906 148.582031 C 250.296875 147.570312 251.191406 146.53125 252.058594 145.476562 C 252.925781 144.417969 253.769531 143.339844 254.585938 142.238281 C 255.398438 141.140625 256.1875 140.019531 256.949219 138.882812 C 257.707031 137.746094 258.441406 136.589844 259.144531 135.414062 C 259.847656 134.242188 260.523438 133.050781 261.167969 131.84375 C 261.8125 130.636719 262.425781 129.414062 263.011719 128.179688 C 263.597656 126.941406 264.152344 125.691406 264.675781 124.425781 C 265.199219 123.160156 265.691406 121.882812 266.152344 120.597656 C 266.613281 119.308594 267.042969 118.007812 267.441406 116.699219 C 267.835938 115.390625 268.203125 114.070312 268.535156 112.742188 C 268.867188 111.414062 269.167969 110.082031 269.433594 108.738281 C 269.703125 107.394531 269.933594 106.046875 270.136719 104.695312 C 270.335938 103.339844 270.503906 101.980469 270.636719 100.621094 C 270.773438 99.257812 270.875 97.894531 270.941406 96.527344 C 271.007812 95.160156 271.042969 93.792969 271.042969 92.421875 C 271.039062 91.054688 271.007812 89.6875 270.9375 88.320312 C 270.871094 86.953125 270.769531 85.589844 270.636719 84.226562 C 270.5 82.867188 270.332031 81.507812 270.132812 80.15625 C 269.929688 78.800781 269.695312 77.453125 269.429688 76.113281 C 269.160156 74.769531 268.859375 73.433594 268.527344 72.109375 C 268.195312 70.78125 267.828125 69.460938 267.429688 68.152344 C 267.035156 66.84375 266.605469 65.546875 266.144531 64.257812 C 265.679688 62.96875 265.1875 61.691406 264.664062 60.429688 C 264.140625 59.164062 263.585938 57.914062 263 56.675781 C 262.414062 55.441406 261.800781 54.21875 261.15625 53.011719 C 260.511719 51.804688 259.835938 50.613281 259.132812 49.441406 C 258.429688 48.265625 257.695312 47.113281 256.933594 45.972656 C 256.175781 44.835938 255.386719 43.71875 254.570312 42.617188 C 253.757812 41.519531 252.914062 40.441406 252.046875 39.382812 C 251.179688 38.324219 250.285156 37.289062 249.367188 36.277344 C 248.445312 35.261719 247.503906 34.269531 246.535156 33.304688 C 245.570312 32.335938 244.578125 31.394531 243.5625 30.472656 C 242.550781 29.554688 241.515625 28.660156 240.457031 27.792969 C 239.398438 26.925781 238.320312 26.082031 237.222656 25.269531 C 236.121094 24.453125 235.003906 23.664062 233.867188 22.90625 C 232.730469 22.144531 231.574219 21.410156 230.398438 20.707031 C 229.226562 20.003906 228.035156 19.332031 226.828125 18.683594 C 225.621094 18.039062 224.398438 17.425781 223.164062 16.839844 C 221.925781 16.253906 220.675781 15.699219 219.410156 15.175781 C 218.148438 14.652344 216.871094 14.160156 215.582031 13.695312 C 214.296875 13.234375 212.996094 12.804688 211.6875 12.410156 C 210.378906 12.011719 209.058594 11.644531 207.730469 11.3125 C 206.40625 10.980469 205.070312 10.679688 203.726562 10.414062 C 202.386719 10.144531 201.039062 9.910156 199.683594 9.710938 C 198.332031 9.507812 196.972656 9.339844 195.613281 9.203125 C 194.25 9.070312 192.886719 8.96875 191.519531 8.902344 C 190.152344 8.832031 188.785156 8.800781 187.417969 8.796875 Z M 176.816406 120.308594 C 175.632812 121.425781 174.351562 122.414062 172.972656 123.277344 C 171.597656 124.140625 170.144531 124.859375 168.625 125.4375 C 167.105469 126.015625 165.542969 126.4375 163.9375 126.703125 C 162.332031 126.972656 160.71875 127.078125 159.09375 127.027344 C 155.945312 127.160156 152.867188 126.761719 149.859375 125.828125 C 146.851562 124.894531 144.085938 123.484375 141.566406 121.59375 C 139.382812 119.90625 137.515625 117.917969 135.972656 115.628906 C 134.425781 113.339844 133.28125 110.867188 132.535156 108.207031 C 132.453125 107.914062 132.429688 107.613281 132.464844 107.3125 C 132.5 107.007812 132.589844 106.722656 132.742188 106.453125 C 132.890625 106.1875 133.085938 105.957031 133.324219 105.769531 C 133.566406 105.578125 133.832031 105.441406 134.128906 105.359375 L 147.242188 101.675781 C 147.523438 101.59375 147.808594 101.570312 148.101562 101.601562 C 148.390625 101.632812 148.667969 101.714844 148.925781 101.847656 C 149.1875 101.984375 149.414062 102.160156 149.605469 102.382812 C 149.796875 102.601562 149.941406 102.851562 150.039062 103.128906 C 150.699219 105.054688 151.8125 106.667969 153.371094 107.976562 C 153.722656 108.269531 154.097656 108.527344 154.492188 108.75 C 154.886719 108.976562 155.300781 109.167969 155.726562 109.320312 C 156.15625 109.472656 156.59375 109.585938 157.042969 109.664062 C 157.492188 109.742188 157.945312 109.777344 158.398438 109.777344 C 158.855469 109.773438 159.304688 109.730469 159.753906 109.648438 C 160.203125 109.570312 160.640625 109.449219 161.066406 109.292969 C 161.492188 109.132812 161.902344 108.941406 162.296875 108.710938 C 162.691406 108.480469 163.058594 108.21875 163.40625 107.925781 C 163.703125 107.609375 163.964844 107.269531 164.199219 106.90625 C 164.429688 106.542969 164.625 106.160156 164.785156 105.757812 C 164.945312 105.355469 165.066406 104.945312 165.148438 104.519531 C 165.230469 104.097656 165.273438 103.667969 165.277344 103.238281 C 165.28125 102.804688 165.242188 102.375 165.164062 101.953125 C 165.085938 101.527344 164.972656 101.113281 164.816406 100.710938 C 164.660156 100.308594 164.46875 99.921875 164.242188 99.554688 C 164.015625 99.1875 163.757812 98.84375 163.464844 98.527344 C 162.714844 97.871094 161.867188 97.390625 160.921875 97.078125 C 159.980469 96.769531 159.011719 96.652344 158.019531 96.730469 C 156.636719 96.6875 155.277344 96.855469 153.945312 97.234375 C 152.613281 97.617188 151.371094 98.195312 150.222656 98.96875 C 149.613281 99.398438 148.953125 99.503906 148.238281 99.292969 L 136.664062 95.882812 C 136.410156 95.808594 136.175781 95.691406 135.960938 95.535156 C 135.746094 95.378906 135.566406 95.191406 135.414062 94.972656 C 135.265625 94.753906 135.15625 94.515625 135.089844 94.261719 C 135.019531 94.003906 135 93.742188 135.019531 93.480469 L 137.640625 61.855469 C 137.664062 61.566406 137.738281 61.292969 137.867188 61.03125 C 137.996094 60.773438 138.164062 60.542969 138.378906 60.347656 C 138.59375 60.152344 138.835938 60 139.105469 59.894531 C 139.375 59.792969 139.65625 59.738281 139.945312 59.742188 L 178.859375 59.742188 C 179.164062 59.742188 179.457031 59.800781 179.742188 59.917969 C 180.023438 60.035156 180.273438 60.199219 180.488281 60.417969 C 180.707031 60.632812 180.871094 60.882812 180.988281 61.164062 C 181.105469 61.449219 181.164062 61.742188 181.164062 62.046875 L 181.164062 75.074219 C 181.164062 75.382812 181.105469 75.675781 180.988281 75.957031 C 180.871094 76.242188 180.707031 76.492188 180.488281 76.707031 C 180.273438 76.921875 180.023438 77.089844 179.742188 77.207031 C 179.457031 77.324219 179.164062 77.382812 178.859375 77.382812 L 154.980469 77.382812 L 154.6875 81.417969 C 156.886719 80.953125 159.109375 80.722656 161.359375 80.734375 C 162.863281 80.691406 164.355469 80.804688 165.839844 81.070312 C 167.320312 81.339844 168.757812 81.757812 170.148438 82.328125 C 171.542969 82.898438 172.863281 83.605469 174.109375 84.449219 C 175.355469 85.292969 176.5 86.257812 177.542969 87.34375 C 178.066406 87.898438 178.558594 88.476562 179.027344 89.078125 C 179.492188 89.679688 179.929688 90.304688 180.332031 90.949219 C 180.738281 91.59375 181.113281 92.257812 181.453125 92.9375 C 181.792969 93.621094 182.101562 94.316406 182.375 95.027344 C 182.648438 95.738281 182.886719 96.460938 183.089844 97.195312 C 183.292969 97.929688 183.460938 98.671875 183.589844 99.421875 C 183.71875 100.171875 183.8125 100.925781 183.871094 101.6875 C 183.929688 102.445312 183.949219 103.207031 183.933594 103.96875 C 183.914062 104.730469 183.863281 105.488281 183.769531 106.246094 C 183.679688 107.003906 183.554688 107.753906 183.390625 108.496094 C 183.226562 109.242188 183.027344 109.972656 182.792969 110.699219 C 182.554688 111.421875 182.285156 112.136719 181.980469 112.832031 C 181.679688 113.53125 181.339844 114.214844 180.96875 114.878906 C 180.597656 115.542969 180.195312 116.191406 179.761719 116.816406 C 179.328125 117.445312 178.867188 118.046875 178.375 118.628906 C 177.882812 119.210938 177.363281 119.765625 176.816406 120.296875 Z M 235.066406 116.761719 C 233.855469 118.328125 232.476562 119.726562 230.929688 120.964844 C 229.382812 122.199219 227.714844 123.234375 225.921875 124.070312 C 224.125 124.90625 222.257812 125.519531 220.320312 125.90625 C 218.378906 126.296875 216.417969 126.449219 214.441406 126.371094 C 212.460938 126.449219 210.496094 126.296875 208.550781 125.910156 C 206.605469 125.523438 204.734375 124.910156 202.9375 124.074219 C 201.136719 123.242188 199.464844 122.207031 197.910156 120.96875 C 196.359375 119.734375 194.976562 118.332031 193.761719 116.765625 C 192.484375 115.039062 191.363281 113.214844 190.398438 111.292969 C 189.433594 109.375 188.636719 107.386719 188.011719 105.332031 C 187.386719 103.273438 186.9375 101.179688 186.667969 99.050781 C 186.394531 96.917969 186.308594 94.777344 186.402344 92.632812 C 186.304688 90.484375 186.394531 88.347656 186.664062 86.21875 C 186.933594 84.089844 187.382812 81.996094 188.007812 79.941406 C 188.636719 77.890625 189.429688 75.902344 190.398438 73.984375 C 191.363281 72.066406 192.484375 70.246094 193.761719 68.519531 C 194.976562 66.957031 196.359375 65.558594 197.910156 64.324219 C 199.460938 63.09375 201.136719 62.058594 202.933594 61.226562 C 204.730469 60.394531 206.597656 59.785156 208.542969 59.398438 C 210.484375 59.011719 212.445312 58.859375 214.425781 58.9375 C 216.402344 58.859375 218.359375 59.011719 220.300781 59.398438 C 222.238281 59.785156 224.105469 60.394531 225.898438 61.226562 C 227.695312 62.0625 229.363281 63.09375 230.910156 64.328125 C 232.457031 65.5625 233.835938 66.960938 235.046875 68.523438 C 236.316406 70.253906 237.433594 72.078125 238.394531 73.996094 C 239.351562 75.914062 240.144531 77.898438 240.769531 79.953125 C 241.390625 82.003906 241.835938 84.09375 242.105469 86.222656 C 242.375 88.351562 242.460938 90.488281 242.367188 92.632812 C 242.460938 94.777344 242.375 96.914062 242.109375 99.042969 C 241.84375 101.171875 241.398438 103.265625 240.777344 105.320312 C 240.15625 107.375 239.367188 109.359375 238.410156 111.28125 C 237.449219 113.203125 236.339844 115.027344 235.070312 116.761719 Z M 235.066406 116.761719 " fill-opacity="1" fill-rule="evenodd"/></g><path fill="#000000" d="M 214.464844 76.488281 C 213.796875 76.460938 213.140625 76.527344 212.492188 76.683594 C 211.84375 76.84375 211.230469 77.085938 210.652344 77.414062 C 210.070312 77.742188 209.546875 78.144531 209.082031 78.621094 C 208.613281 79.097656 208.21875 79.628906 207.902344 80.214844 C 205.953125 84.128906 205.105469 88.265625 205.359375 92.632812 C 205.105469 96.996094 205.953125 101.132812 207.902344 105.046875 C 208.21875 105.636719 208.613281 106.167969 209.078125 106.644531 C 209.546875 107.121094 210.070312 107.523438 210.648438 107.851562 C 211.230469 108.183594 211.84375 108.425781 212.492188 108.582031 C 213.140625 108.742188 213.796875 108.804688 214.464844 108.78125 C 215.125 108.808594 215.777344 108.746094 216.421875 108.589844 C 217.0625 108.433594 217.671875 108.191406 218.246094 107.863281 C 218.820312 107.535156 219.339844 107.132812 219.800781 106.660156 C 220.261719 106.183594 220.648438 105.65625 220.957031 105.070312 C 222.867188 101.140625 223.699219 96.992188 223.449219 92.632812 C 223.699219 88.269531 222.867188 84.125 220.957031 80.195312 C 220.648438 79.613281 220.261719 79.082031 219.800781 78.609375 C 219.339844 78.132812 218.820312 77.734375 218.246094 77.40625 C 217.671875 77.074219 217.0625 76.835938 216.421875 76.679688 C 215.777344 76.523438 215.125 76.460938 214.464844 76.488281 Z M 214.464844 76.488281 " fill-opacity="1" fill-rule="evenodd"/><g clip-path="url(#d4e5d3fc07)"><path fill="#000000" d="M 187.417969 199.125 C 186.046875 199.125 184.679688 199.160156 183.3125 199.226562 C 181.945312 199.292969 180.582031 199.394531 179.21875 199.527344 C 177.859375 199.660156 176.5 199.828125 175.144531 200.03125 C 173.792969 200.230469 172.445312 200.464844 171.101562 200.730469 C 169.757812 201 168.425781 201.296875 167.097656 201.632812 C 165.769531 201.964844 164.449219 202.328125 163.140625 202.726562 C 161.832031 203.125 160.53125 203.550781 159.242188 204.011719 C 157.957031 204.472656 156.679688 204.96875 155.414062 205.492188 C 154.148438 206.015625 152.898438 206.570312 151.660156 207.152344 C 150.425781 207.738281 149.203125 208.355469 147.996094 209 C 146.789062 209.644531 145.597656 210.320312 144.425781 211.023438 C 143.25 211.726562 142.09375 212.457031 140.957031 213.21875 C 139.820312 213.980469 138.699219 214.765625 137.601562 215.582031 C 136.5 216.398438 135.421875 217.238281 134.363281 218.105469 C 133.308594 218.976562 132.269531 219.867188 131.257812 220.789062 C 130.242188 221.707031 129.253906 222.652344 128.285156 223.617188 C 127.316406 224.585938 126.375 225.578125 125.453125 226.589844 C 124.535156 227.605469 123.640625 228.640625 122.773438 229.699219 C 121.90625 230.757812 121.0625 231.835938 120.246094 232.933594 C 119.433594 234.035156 118.644531 235.152344 117.882812 236.289062 C 117.125 237.429688 116.390625 238.585938 115.6875 239.757812 C 114.984375 240.933594 114.3125 242.121094 113.664062 243.328125 C 113.019531 244.535156 112.40625 245.757812 111.820312 246.996094 C 111.234375 248.234375 110.679688 249.484375 110.15625 250.75 C 109.632812 252.011719 109.140625 253.289062 108.679688 254.578125 C 108.21875 255.867188 107.789062 257.164062 107.390625 258.476562 C 106.996094 259.785156 106.628906 261.101562 106.296875 262.429688 C 105.964844 263.757812 105.664062 265.09375 105.398438 266.433594 C 105.132812 267.777344 104.898438 269.125 104.695312 270.480469 C 104.496094 271.832031 104.328125 273.191406 104.195312 274.554688 C 104.058594 275.914062 103.960938 277.28125 103.890625 278.648438 C 103.824219 280.011719 103.792969 281.382812 103.792969 282.75 C 103.792969 284.117188 103.824219 285.484375 103.890625 286.851562 C 103.960938 288.21875 104.058594 289.585938 104.195312 290.945312 C 104.328125 292.308594 104.496094 293.667969 104.695312 295.019531 C 104.898438 296.375 105.132812 297.722656 105.398438 299.0625 C 105.664062 300.40625 105.964844 301.742188 106.296875 303.070312 C 106.628906 304.398438 106.996094 305.714844 107.390625 307.023438 C 107.789062 308.335938 108.21875 309.632812 108.679688 310.921875 C 109.140625 312.210938 109.632812 313.488281 110.15625 314.75 C 110.679688 316.015625 111.234375 317.265625 111.820312 318.503906 C 112.40625 319.742188 113.019531 320.964844 113.664062 322.171875 C 114.3125 323.378906 114.984375 324.566406 115.6875 325.742188 C 116.390625 326.914062 117.125 328.070312 117.882812 329.210938 C 118.644531 330.347656 119.433594 331.464844 120.246094 332.566406 C 121.0625 333.664062 121.90625 334.742188 122.773438 335.800781 C 123.640625 336.859375 124.535156 337.894531 125.453125 338.910156 C 126.375 339.921875 127.316406 340.914062 128.285156 341.882812 C 129.253906 342.847656 130.242188 343.792969 131.257812 344.710938 C 132.269531 345.632812 133.308594 346.523438 134.363281 347.394531 C 135.421875 348.261719 136.5 349.101562 137.601562 349.917969 C 138.699219 350.734375 139.820312 351.519531 140.957031 352.28125 C 142.09375 353.042969 143.25 353.773438 144.425781 354.476562 C 145.597656 355.179688 146.789062 355.855469 147.996094 356.5 C 149.203125 357.144531 150.425781 357.761719 151.660156 358.347656 C 152.898438 358.929688 154.148438 359.484375 155.414062 360.007812 C 156.679688 360.53125 157.957031 361.027344 159.242188 361.488281 C 160.53125 361.949219 161.832031 362.375 163.140625 362.773438 C 164.449219 363.171875 165.769531 363.535156 167.097656 363.867188 C 168.425781 364.203125 169.757812 364.5 171.101562 364.769531 C 172.445312 365.035156 173.792969 365.269531 175.144531 365.46875 C 176.5 365.671875 177.859375 365.839844 179.21875 365.972656 C 180.582031 366.105469 181.945312 366.207031 183.3125 366.273438 C 184.679688 366.339844 186.046875 366.375 187.417969 366.375 C 188.785156 366.375 190.152344 366.339844 191.519531 366.273438 C 192.886719 366.207031 194.25 366.105469 195.613281 365.972656 C 196.976562 365.839844 198.332031 365.671875 199.6875 365.46875 C 201.039062 365.269531 202.386719 365.035156 203.730469 364.769531 C 205.074219 364.5 206.40625 364.203125 207.734375 363.867188 C 209.0625 363.535156 210.382812 363.171875 211.691406 362.773438 C 213 362.375 214.300781 361.949219 215.589844 361.488281 C 216.878906 361.027344 218.152344 360.53125 219.417969 360.007812 C 220.683594 359.484375 221.933594 358.929688 223.171875 358.347656 C 224.40625 357.761719 225.628906 357.144531 226.835938 356.5 C 228.042969 355.855469 229.234375 355.179688 230.40625 354.476562 C 231.582031 353.773438 232.738281 353.042969 233.875 352.28125 C 235.015625 351.519531 236.132812 350.734375 237.230469 349.917969 C 238.332031 349.101562 239.410156 348.261719 240.46875 347.394531 C 241.523438 346.523438 242.5625 345.632812 243.574219 344.710938 C 244.589844 343.792969 245.582031 342.847656 246.546875 341.882812 C 247.515625 340.914062 248.460938 339.921875 249.378906 338.910156 C 250.296875 337.894531 251.191406 336.859375 252.058594 335.800781 C 252.925781 334.742188 253.769531 333.664062 254.585938 332.566406 C 255.398438 331.464844 256.1875 330.347656 256.949219 329.210938 C 257.707031 328.070312 258.441406 326.914062 259.144531 325.742188 C 259.847656 324.566406 260.523438 323.378906 261.167969 322.171875 C 261.8125 320.964844 262.425781 319.742188 263.011719 318.503906 C 263.597656 317.265625 264.152344 316.015625 264.675781 314.75 C 265.199219 313.488281 265.691406 312.210938 266.152344 310.921875 C 266.613281 309.632812 267.042969 308.335938 267.441406 307.023438 C 267.835938 305.714844 268.203125 304.398438 268.535156 303.070312 C 268.867188 301.742188 269.167969 300.40625 269.433594 299.0625 C 269.703125 297.722656 269.933594 296.375 270.136719 295.019531 C 270.335938 293.667969 270.503906 292.308594 270.636719 290.945312 C 270.773438 289.585938 270.875 288.21875 270.941406 286.851562 C 271.007812 285.484375 271.042969 284.117188 271.042969 282.75 C 271.039062 281.382812 271.007812 280.015625 270.9375 278.648438 C 270.871094 277.28125 270.769531 275.917969 270.636719 274.554688 C 270.5 273.191406 270.332031 271.835938 270.132812 270.480469 C 269.929688 269.128906 269.695312 267.78125 269.429688 266.4375 C 269.160156 265.097656 268.859375 263.761719 268.527344 262.433594 C 268.195312 261.105469 267.828125 259.789062 267.429688 258.480469 C 267.035156 257.171875 266.605469 255.871094 266.144531 254.582031 C 265.679688 253.292969 265.1875 252.019531 264.664062 250.753906 C 264.140625 249.488281 263.585938 248.238281 263 247.003906 C 262.414062 245.765625 261.800781 244.542969 261.15625 243.335938 C 260.511719 242.128906 259.835938 240.941406 259.132812 239.765625 C 258.429688 238.59375 257.695312 237.4375 256.933594 236.300781 C 256.175781 235.164062 255.386719 234.042969 254.570312 232.945312 C 253.757812 231.847656 252.914062 230.765625 252.046875 229.710938 C 251.179688 228.652344 250.285156 227.617188 249.367188 226.601562 C 248.445312 225.589844 247.503906 224.597656 246.535156 223.628906 C 245.570312 222.664062 244.578125 221.71875 243.5625 220.800781 C 242.550781 219.882812 241.515625 218.988281 240.457031 218.121094 C 239.398438 217.25 238.320312 216.410156 237.222656 215.59375 C 236.121094 214.777344 235.003906 213.992188 233.867188 213.230469 C 232.730469 212.46875 231.574219 211.738281 230.398438 211.035156 C 229.226562 210.332031 228.035156 209.65625 226.828125 209.011719 C 225.621094 208.367188 224.398438 207.75 223.164062 207.164062 C 221.925781 206.578125 220.675781 206.023438 219.410156 205.5 C 218.148438 204.976562 216.871094 204.484375 215.582031 204.023438 C 214.296875 203.5625 212.996094 203.132812 211.6875 202.734375 C 210.378906 202.335938 209.058594 201.972656 207.730469 201.640625 C 206.40625 201.304688 205.070312 201.007812 203.726562 200.738281 C 202.386719 200.472656 201.039062 200.238281 199.683594 200.035156 C 198.332031 199.835938 196.972656 199.664062 195.613281 199.53125 C 194.25 199.398438 192.886719 199.296875 191.519531 199.226562 C 190.152344 199.160156 188.785156 199.125 187.417969 199.125 Z M 176.816406 310.632812 C 175.632812 311.75 174.351562 312.742188 172.972656 313.605469 C 171.597656 314.46875 170.144531 315.1875 168.625 315.765625 C 167.105469 316.339844 165.542969 316.761719 163.9375 317.03125 C 162.332031 317.296875 160.71875 317.40625 159.09375 317.351562 C 155.945312 317.488281 152.867188 317.085938 149.859375 316.152344 C 146.851562 315.222656 144.085938 313.808594 141.566406 311.921875 C 139.382812 310.234375 137.515625 308.246094 135.972656 305.957031 C 134.425781 303.667969 133.28125 301.191406 132.535156 298.535156 C 132.453125 298.242188 132.429688 297.941406 132.464844 297.636719 C 132.5 297.332031 132.589844 297.046875 132.742188 296.78125 C 132.890625 296.511719 133.085938 296.285156 133.324219 296.09375 C 133.566406 295.90625 133.832031 295.769531 134.128906 295.6875 L 147.242188 292 C 147.523438 291.921875 147.808594 291.898438 148.101562 291.925781 C 148.390625 291.957031 148.667969 292.039062 148.925781 292.175781 C 149.1875 292.308594 149.414062 292.488281 149.605469 292.707031 C 149.796875 292.929688 149.941406 293.179688 150.039062 293.453125 C 150.699219 295.378906 151.8125 296.996094 153.371094 298.304688 C 153.722656 298.59375 154.097656 298.851562 154.492188 299.078125 C 154.886719 299.304688 155.300781 299.492188 155.726562 299.644531 C 156.15625 299.800781 156.59375 299.914062 157.042969 299.992188 C 157.492188 300.066406 157.945312 300.105469 158.398438 300.101562 C 158.855469 300.097656 159.304688 300.058594 159.753906 299.976562 C 160.203125 299.894531 160.640625 299.777344 161.066406 299.617188 C 161.492188 299.460938 161.902344 299.265625 162.296875 299.039062 C 162.691406 298.808594 163.058594 298.546875 163.40625 298.253906 C 163.703125 297.9375 163.964844 297.597656 164.199219 297.234375 C 164.429688 296.867188 164.625 296.484375 164.785156 296.085938 C 164.945312 295.683594 165.066406 295.269531 165.148438 294.847656 C 165.230469 294.421875 165.273438 293.996094 165.277344 293.5625 C 165.28125 293.132812 165.242188 292.703125 165.164062 292.277344 C 165.085938 291.851562 164.972656 291.441406 164.816406 291.035156 C 164.660156 290.632812 164.46875 290.25 164.242188 289.878906 C 164.015625 289.511719 163.757812 289.171875 163.464844 288.851562 C 162.714844 288.199219 161.867188 287.71875 160.921875 287.40625 C 159.980469 287.09375 159.011719 286.980469 158.019531 287.058594 C 156.636719 287.011719 155.277344 287.179688 153.945312 287.5625 C 152.613281 287.945312 151.371094 288.523438 150.222656 289.296875 C 149.613281 289.722656 148.953125 289.832031 148.238281 289.617188 L 136.664062 286.210938 C 136.410156 286.136719 136.175781 286.019531 135.960938 285.863281 C 135.746094 285.707031 135.566406 285.519531 135.414062 285.300781 C 135.265625 285.082031 135.15625 284.84375 135.089844 284.585938 C 135.019531 284.332031 135 284.070312 135.019531 283.804688 L 137.640625 252.183594 C 137.664062 251.894531 137.738281 251.621094 137.867188 251.359375 C 137.996094 251.097656 138.164062 250.871094 138.378906 250.675781 C 138.59375 250.476562 138.835938 250.328125 139.105469 250.222656 C 139.375 250.117188 139.65625 250.066406 139.945312 250.066406 L 178.859375 250.066406 C 179.164062 250.066406 179.457031 250.125 179.742188 250.242188 C 180.023438 250.359375 180.273438 250.527344 180.488281 250.742188 C 180.707031 250.960938 180.871094 251.207031 180.988281 251.492188 C 181.105469 251.773438 181.164062 252.066406 181.164062 252.375 L 181.164062 265.402344 C 181.164062 265.707031 181.105469 266.003906 180.988281 266.285156 C 180.871094 266.566406 180.707031 266.816406 180.488281 267.035156 C 180.273438 267.25 180.023438 267.417969 179.742188 267.535156 C 179.457031 267.652344 179.164062 267.710938 178.859375 267.710938 L 154.980469 267.710938 L 154.6875 271.746094 C 156.886719 271.277344 159.109375 271.050781 161.359375 271.058594 C 162.863281 271.015625 164.355469 271.128906 165.839844 271.398438 C 167.320312 271.667969 168.757812 272.085938 170.148438 272.65625 C 171.542969 273.222656 172.863281 273.929688 174.109375 274.777344 C 175.355469 275.621094 176.5 276.585938 177.542969 277.667969 C 178.066406 278.222656 178.558594 278.800781 179.027344 279.402344 C 179.492188 280.007812 179.929688 280.628906 180.332031 281.273438 C 180.738281 281.921875 181.113281 282.582031 181.453125 283.265625 C 181.792969 283.945312 182.101562 284.640625 182.375 285.351562 C 182.648438 286.0625 182.886719 286.785156 183.089844 287.519531 C 183.292969 288.253906 183.460938 288.996094 183.589844 289.746094 C 183.71875 290.5 183.8125 291.253906 183.871094 292.011719 C 183.929688 292.773438 183.949219 293.535156 183.933594 294.296875 C 183.914062 295.054688 183.863281 295.816406 183.769531 296.570312 C 183.679688 297.328125 183.554688 298.078125 183.390625 298.824219 C 183.226562 299.566406 183.027344 300.300781 182.792969 301.027344 C 182.554688 301.75 182.285156 302.460938 181.980469 303.160156 C 181.679688 303.859375 181.339844 304.539062 180.96875 305.207031 C 180.597656 305.871094 180.195312 306.515625 179.761719 307.144531 C 179.328125 307.769531 178.867188 308.375 178.375 308.953125 C 177.882812 309.535156 177.363281 310.09375 176.816406 310.621094 Z M 235.066406 307.085938 C 233.855469 308.652344 232.476562 310.054688 230.929688 311.289062 C 229.382812 312.523438 227.714844 313.5625 225.921875 314.398438 C 224.125 315.230469 222.257812 315.84375 220.320312 316.234375 C 218.378906 316.621094 216.417969 316.777344 214.441406 316.695312 C 212.460938 316.777344 210.496094 316.625 208.550781 316.238281 C 206.605469 315.847656 204.734375 315.238281 202.9375 314.402344 C 201.136719 313.566406 199.464844 312.53125 197.910156 311.296875 C 196.359375 310.0625 194.976562 308.660156 193.761719 307.09375 C 192.484375 305.363281 191.363281 303.539062 190.398438 301.621094 C 189.433594 299.699219 188.636719 297.710938 188.011719 295.65625 C 187.386719 293.601562 186.9375 291.507812 186.667969 289.375 C 186.394531 287.242188 186.308594 285.105469 186.402344 282.957031 C 186.304688 280.8125 186.394531 278.675781 186.664062 276.542969 C 186.933594 274.414062 187.382812 272.324219 188.007812 270.269531 C 188.636719 268.214844 189.429688 266.230469 190.398438 264.3125 C 191.363281 262.394531 192.484375 260.570312 193.761719 258.84375 C 194.976562 257.28125 196.359375 255.882812 197.910156 254.652344 C 199.460938 253.417969 201.136719 252.386719 202.933594 251.554688 C 204.730469 250.71875 206.597656 250.109375 208.542969 249.722656 C 210.484375 249.335938 212.445312 249.183594 214.425781 249.265625 C 216.402344 249.183594 218.359375 249.335938 220.300781 249.722656 C 222.238281 250.109375 224.105469 250.722656 225.898438 251.554688 C 227.695312 252.386719 229.363281 253.421875 230.910156 254.65625 C 232.457031 255.886719 233.835938 257.285156 235.046875 258.851562 C 236.316406 260.578125 237.433594 262.402344 238.394531 264.320312 C 239.351562 266.238281 240.144531 268.226562 240.769531 270.277344 C 241.390625 272.332031 241.835938 274.421875 242.105469 276.550781 C 242.375 278.679688 242.460938 280.8125 242.367188 282.957031 C 242.460938 285.101562 242.375 287.238281 242.109375 289.367188 C 241.84375 291.5 241.398438 293.589844 240.777344 295.644531 C 240.15625 297.699219 239.367188 299.6875 238.410156 301.609375 C 237.449219 303.527344 236.339844 305.355469 235.070312 307.085938 Z M 235.066406 307.085938 " fill-opacity="1" fill-rule="evenodd"/></g><path fill="#000000" d="M 214.464844 266.816406 C 213.796875 266.789062 213.140625 266.855469 212.492188 267.011719 C 211.84375 267.167969 211.230469 267.410156 210.652344 267.742188 C 210.070312 268.070312 209.546875 268.472656 209.082031 268.949219 C 208.613281 269.425781 208.21875 269.953125 207.902344 270.539062 C 205.953125 274.453125 205.105469 278.59375 205.359375 282.957031 C 205.105469 287.320312 205.953125 291.460938 207.902344 295.375 C 208.21875 295.960938 208.613281 296.492188 209.078125 296.96875 C 209.546875 297.445312 210.070312 297.847656 210.648438 298.179688 C 211.230469 298.507812 211.84375 298.753906 212.492188 298.910156 C 213.140625 299.066406 213.796875 299.132812 214.464844 299.105469 C 215.125 299.132812 215.777344 299.070312 216.421875 298.914062 C 217.0625 298.757812 217.671875 298.515625 218.246094 298.1875 C 218.820312 297.859375 219.339844 297.460938 219.800781 296.984375 C 220.261719 296.511719 220.648438 295.980469 220.957031 295.398438 C 222.867188 291.46875 223.699219 287.320312 223.449219 282.957031 C 223.699219 278.597656 222.867188 274.453125 220.957031 270.523438 C 220.648438 269.9375 220.261719 269.410156 219.800781 268.933594 C 219.339844 268.460938 218.820312 268.058594 218.246094 267.730469 C 217.671875 267.402344 217.0625 267.160156 216.421875 267.003906 C 215.777344 266.847656 215.125 266.785156 214.464844 266.816406 Z M 214.464844 266.816406 " fill-opacity="1" fill-rule="evenodd"/><path stroke-linecap="butt" transform="matrix(0.75, -0.000000000000000093, 0.000000000000000093, 0.75, 62.803294, 184.124988)" fill="none" stroke-linejoin="miter" d="M 0.00185803 4.500016 L 332.522713 4.500016 " stroke="#000000" stroke-width="9" stroke-opacity="1" stroke-miterlimit="4"/></svg>