<svg xmlns="http://www.w3.org/2000/svg" xmlns:xlink="http://www.w3.org/1999/xlink" width="500" zoomAndPan="magnify" viewBox="0 0 375 374.999991" height="500" preserveAspectRatio="xMidYMid meet" version="1.0"><defs><filter x="0%" y="0%" width="100%" height="100%" id="d53a739120"><feColorMatrix values="0 0 0 0 1 0 0 0 0 1 0 0 0 0 1 0 0 0 1 0" color-interpolation-filters="sRGB"/></filter><clipPath id="aa92a2c183"><path d="M 7.84375 7.84375 L 367.09375 7.84375 L 367.09375 367.09375 L 7.84375 367.09375 Z M 7.84375 7.84375 " clip-rule="nonzero"/></clipPath><mask id="9a5dd3e7f1"><g filter="url(#d53a739120)"><rect x="-37.5" width="450" fill="#000000" y="-37.499999" height="449.999989" fill-opacity="0.75"/></g></mask><clipPath id="a80399d49c"><path d="M 1 0.121094 L 63 0.121094 L 63 11.878906 L 1 11.878906 Z M 1 0.121094 " clip-rule="nonzero"/></clipPath><clipPath id="111d9c1e4c"><rect x="0" width="64" y="0" height="12"/></clipPath><mask id="b72326968d"><g filter="url(#d53a739120)"><rect x="-37.5" width="450" fill="#000000" y="-37.499999" height="449.999989" fill-opacity="0.75"/></g></mask><clipPath id="9bbfabc1cc"><path d="M 0.078125 0.761719 L 55 0.761719 L 55 11.800781 L 0.078125 11.800781 Z M 0.078125 0.761719 " clip-rule="nonzero"/></clipPath><clipPath id="6e752234f7"><rect x="0" width="56" y="0" height="12"/></clipPath><mask id="fd628ae5f8"><g filter="url(#d53a739120)"><rect x="-37.5" width="450" fill="#000000" y="-37.499999" height="449.999989" fill-opacity="0.75"/></g></mask><clipPath id="0dc310cf61"><path d="M 0.078125 1 L 54.320312 1 L 54.320312 11.960938 L 0.078125 11.960938 Z M 0.078125 1 " clip-rule="nonzero"/></clipPath><clipPath id="846798f982"><rect x="0" width="55" y="0" height="12"/></clipPath><mask id="1ba624a2f6"><g filter="url(#d53a739120)"><rect x="-37.5" width="450" fill="#000000" y="-37.499999" height="449.999989" fill-opacity="0.75"/></g></mask><clipPath id="a707894f0d"><rect x="0" width="49" y="0" height="12"/></clipPath><mask id="ab2dbae49e"><g filter="url(#d53a739120)"><rect x="-37.5" width="450" fill="#000000" y="-37.499999" height="449.999989" fill-opacity="0.75"/></g></mask><clipPath id="784dca6793"><path d="M 1 0.320312 L 48 0.320312 L 48 8 L 1 8 Z M 1 0.320312 " clip-rule="nonzero"/></clipPath><clipPath id="9aabdbdc35"><rect x="0" width="49" y="0" height="9"/></clipPath><mask id="4b9f23d213"><g filter="url(#d53a739120)"><rect x="-37.5" width="450" fill="#000000" y="-37.499999" height="449.999989" fill-opacity="0.75"/></g></mask><clipPath id="35b699c9f7"><path d="M 0.199219 1 L 23 1 L 23 4.28125 L 0.199219 4.28125 Z M 0.199219 1 " clip-rule="nonzero"/></clipPath><clipPath id="f9371d1de8"><rect x="0" width="24" y="0" height="5"/></clipPath><mask id="9c5b59d974"><g filter="url(#d53a739120)"><rect x="-37.5" width="450" fill="#000000" y="-37.499999" height="449.999989" fill-opacity="0.75"/></g></mask><clipPath id="446c42e6f8"><path d="M 1 0.558594 L 13 0.558594 L 13 5 L 1 5 Z M 1 0.558594 " clip-rule="nonzero"/></clipPath><clipPath id="3d2e54d904"><rect x="0" width="14" y="0" height="6"/></clipPath><mask id="e2d4ae067c"><g filter="url(#d53a739120)"><rect x="-37.5" width="450" fill="#000000" y="-37.499999" height="449.999989" fill-opacity="0.75"/></g></mask><clipPath id="71d38a3a44"><path d="M 1 0.398438 L 93.28125 0.398438 L 93.28125 20.800781 L 1 20.800781 Z M 1 0.398438 " clip-rule="nonzero"/></clipPath><clipPath id="acbabf0e50"><rect x="0" width="94" y="0" height="21"/></clipPath><mask id="1ac24c5f49"><g filter="url(#d53a739120)"><rect x="-37.5" width="450" fill="#000000" y="-37.499999" height="449.999989" fill-opacity="0.75"/></g></mask><clipPath id="61edeb7a9c"><path d="M 0.558594 0.28125 L 6 0.28125 L 6 4.839844 L 0.558594 4.839844 Z M 0.558594 0.28125 " clip-rule="nonzero"/></clipPath><clipPath id="44e76ab55f"><rect x="0" width="7" y="0" height="5"/></clipPath><mask id="1e91505730"><g filter="url(#d53a739120)"><rect x="-37.5" width="450" fill="#000000" y="-37.499999" height="449.999989" fill-opacity="0.75"/></g></mask><clipPath id="c3c3a68b0a"><path d="M 1 0.160156 L 8 0.160156 L 8 14.800781 L 1 14.800781 Z M 1 0.160156 " clip-rule="nonzero"/></clipPath><clipPath id="a7fdd347c9"><rect x="0" width="9" y="0" height="15"/></clipPath><mask id="3feaac1b58"><g filter="url(#d53a739120)"><rect x="-37.5" width="450" fill="#000000" y="-37.499999" height="449.999989" fill-opacity="0.75"/></g></mask><clipPath id="bd42298b43"><path d="M 1 0 L 7.558594 0 L 7.558594 96 L 1 96 Z M 1 0 " clip-rule="nonzero"/></clipPath><clipPath id="4fb04c0e4c"><rect x="0" width="8" y="0" height="97"/></clipPath><mask id="3ed1053fa6"><g filter="url(#d53a739120)"><rect x="-37.5" width="450" fill="#000000" y="-37.499999" height="449.999989" fill-opacity="0.75"/></g></mask><clipPath id="e7860c6c98"><rect x="0" width="14" y="0" height="6"/></clipPath><mask id="c293b7c5c8"><g filter="url(#d53a739120)"><rect x="-37.5" width="450" fill="#000000" y="-37.499999" height="449.999989" fill-opacity="0.75"/></g></mask><clipPath id="5b5e0d6ef8"><path d="M 1 1 L 7.558594 1 L 7.558594 2.960938 L 1 2.960938 Z M 1 1 " clip-rule="nonzero"/></clipPath><clipPath id="b725a9c5e0"><rect x="0" width="8" y="0" height="3"/></clipPath><mask id="3030115814"><g filter="url(#d53a739120)"><rect x="-37.5" width="450" fill="#000000" y="-37.499999" height="449.999989" fill-opacity="0.75"/></g></mask><clipPath id="622e04a58d"><path d="M 1 0.199219 L 7.558594 0.199219 L 7.558594 2.839844 L 1 2.839844 Z M 1 0.199219 " clip-rule="nonzero"/></clipPath><clipPath id="6da82e5674"><rect x="0" width="8" y="0" height="3"/></clipPath><mask id="265b53352b"><g filter="url(#d53a739120)"><rect x="-37.5" width="450" fill="#000000" y="-37.499999" height="449.999989" fill-opacity="0.75"/></g></mask><clipPath id="62d08ff870"><path d="M 1 0.71875 L 7.558594 0.71875 L 7.558594 3 L 1 3 Z M 1 0.71875 " clip-rule="nonzero"/></clipPath><clipPath id="ec73f80826"><rect x="0" width="8" y="0" height="4"/></clipPath><mask id="218cf2e09d"><g filter="url(#d53a739120)"><rect x="-37.5" width="450" fill="#000000" y="-37.499999" height="449.999989" fill-opacity="0.75"/></g></mask><clipPath id="67b4c4b758"><path d="M 0.121094 1 L 9 1 L 9 5.679688 L 0.121094 5.679688 Z M 0.121094 1 " clip-rule="nonzero"/></clipPath><clipPath id="010b28e2fd"><rect x="0" width="9" y="0" height="6"/></clipPath><mask id="07f5ba92ef"><g filter="url(#d53a739120)"><rect x="-37.5" width="450" fill="#000000" y="-37.499999" height="449.999989" fill-opacity="0.75"/></g></mask><clipPath id="6f81201e3b"><path d="M 0.121094 1 L 9 1 L 9 9.800781 L 0.121094 9.800781 Z M 0.121094 1 " clip-rule="nonzero"/></clipPath><clipPath id="453161cf60"><rect x="0" width="9" y="0" height="10"/></clipPath><mask id="b9c5ddabad"><g filter="url(#d53a739120)"><rect x="-37.5" width="450" fill="#000000" y="-37.499999" height="449.999989" fill-opacity="0.75"/></g></mask><clipPath id="cbe0391be3"><path d="M 1 1 L 15 1 L 15 19.761719 L 1 19.761719 Z M 1 1 " clip-rule="nonzero"/></clipPath><clipPath id="f4dc182156"><rect x="0" width="16" y="0" height="20"/></clipPath><mask id="7567fa2b86"><g filter="url(#d53a739120)"><rect x="-37.5" width="450" fill="#000000" y="-37.499999" height="449.999989" fill-opacity="0.75"/></g></mask><clipPath id="cc20508421"><path d="M 1 0.121094 L 63 0.121094 L 63 11.878906 L 1 11.878906 Z M 1 0.121094 " clip-rule="nonzero"/></clipPath><clipPath id="1b35e06c02"><rect x="0" width="64" y="0" height="12"/></clipPath><mask id="0fb260178f"><g filter="url(#d53a739120)"><rect x="-37.5" width="450" fill="#000000" y="-37.499999" height="449.999989" fill-opacity="0.75"/></g></mask><clipPath id="d5a3bea19c"><path d="M 0.160156 1 L 7.601562 1 L 7.601562 73.878906 L 0.160156 73.878906 Z M 0.160156 1 " clip-rule="nonzero"/></clipPath><clipPath id="e1dda74f2c"><rect x="0" width="8" y="0" height="74"/></clipPath><mask id="c4d0abafc0"><g filter="url(#d53a739120)"><rect x="-37.5" width="450" fill="#000000" y="-37.499999" height="449.999989" fill-opacity="0.75"/></g></mask><clipPath id="87b8646eeb"><path d="M 1 1 L 15 1 L 15 19.761719 L 1 19.761719 Z M 1 1 " clip-rule="nonzero"/></clipPath><clipPath id="05bc615f80"><rect x="0" width="16" y="0" height="20"/></clipPath><mask id="cae2b5acde"><g filter="url(#d53a739120)"><rect x="-37.5" width="450" fill="#000000" y="-37.499999" height="449.999989" fill-opacity="0.75"/></g></mask><clipPath id="36568d2266"><path d="M 0.519531 0.71875 L 61.960938 0.71875 L 61.960938 16.800781 L 0.519531 16.800781 Z M 0.519531 0.71875 " clip-rule="nonzero"/></clipPath><clipPath id="33ef5baa45"><rect x="0" width="62" y="0" height="17"/></clipPath><mask id="9cec668035"><g filter="url(#d53a739120)"><rect x="-37.5" width="450" fill="#000000" y="-37.499999" height="449.999989" fill-opacity="0.75"/></g></mask><clipPath id="ccc4f81c59"><path d="M 1 0.199219 L 8.28125 0.199219 L 8.28125 73.878906 L 1 73.878906 Z M 1 0.199219 " clip-rule="nonzero"/></clipPath><clipPath id="e422622f64"><rect x="0" width="9" y="0" height="74"/></clipPath><mask id="5b530622c9"><g filter="url(#d53a739120)"><rect x="-37.5" width="450" fill="#000000" y="-37.499999" height="449.999989" fill-opacity="0.75"/></g></mask><clipPath id="1b3c12fabf"><path d="M 0.640625 0.71875 L 62.320312 0.71875 L 62.320312 16.800781 L 0.640625 16.800781 Z M 0.640625 0.71875 " clip-rule="nonzero"/></clipPath><clipPath id="656f52d9a0"><rect x="0" width="63" y="0" height="17"/></clipPath><mask id="b5a466c652"><g filter="url(#d53a739120)"><rect x="-37.5" width="450" fill="#000000" y="-37.499999" height="449.999989" fill-opacity="0.75"/></g></mask><clipPath id="a6bfe37798"><rect x="0" width="16" y="0" height="21"/></clipPath><clipPath id="328d28a543"><path d="M 113.863281 156 L 147 156 L 147 227 L 113.863281 227 Z M 113.863281 156 " clip-rule="nonzero"/></clipPath><mask id="934a57de4d"><g filter="url(#d53a739120)"><rect x="-37.5" width="450" fill="#000000" y="-37.499999" height="449.999989" fill-opacity="0.75"/></g></mask><clipPath id="6d2fd94c7a"><path d="M 2 2 L 31 2 L 31 70.800781 L 2 70.800781 Z M 2 2 " clip-rule="nonzero"/></clipPath><clipPath id="c9a320b5f9"><rect x="0" width="34" y="0" height="71"/></clipPath><mask id="0b8805d463"><g filter="url(#d53a739120)"><rect x="-37.5" width="450" fill="#000000" y="-37.499999" height="449.999989" fill-opacity="0.75"/></g></mask><clipPath id="8f6318c0c6"><rect x="0" width="38" y="0" height="71"/></clipPath><mask id="7ba12d3c5f"><g filter="url(#d53a739120)"><rect x="-37.5" width="450" fill="#000000" y="-37.499999" height="449.999989" fill-opacity="0.75"/></g></mask><clipPath id="01b049dc91"><rect x="0" width="34" y="0" height="74"/></clipPath><clipPath id="c9b3b9e0b4"><path d="M 227 156 L 260.863281 156 L 260.863281 231 L 227 231 Z M 227 156 " clip-rule="nonzero"/></clipPath><mask id="1f267200a5"><g filter="url(#d53a739120)"><rect x="-37.5" width="450" fill="#000000" y="-37.499999" height="449.999989" fill-opacity="0.75"/></g></mask><clipPath id="d61821fc64"><path d="M 2 2 L 33.863281 2 L 33.863281 72 L 2 72 Z M 2 2 " clip-rule="nonzero"/></clipPath><clipPath id="b0218f6fdd"><rect x="0" width="34" y="0" height="75"/></clipPath></defs><g clip-path="url(#aa92a2c183)"><path fill="#ffb300" d="M 367.09375 187.46875 C 367.09375 190.40625 367.019531 193.34375 366.875 196.28125 C 366.730469 199.21875 366.515625 202.148438 366.226562 205.074219 C 365.9375 208 365.578125 210.914062 365.148438 213.824219 C 364.714844 216.730469 364.214844 219.628906 363.640625 222.511719 C 363.066406 225.394531 362.421875 228.261719 361.710938 231.113281 C 360.996094 233.964844 360.210938 236.796875 359.359375 239.609375 C 358.503906 242.421875 357.582031 245.214844 356.59375 247.980469 C 355.601562 250.75 354.542969 253.492188 353.417969 256.207031 C 352.292969 258.921875 351.101562 261.609375 349.847656 264.265625 C 348.589844 266.925781 347.269531 269.550781 345.882812 272.140625 C 344.496094 274.734375 343.046875 277.292969 341.535156 279.8125 C 340.027344 282.335938 338.453125 284.816406 336.820312 287.261719 C 335.1875 289.707031 333.496094 292.109375 331.742188 294.46875 C 329.992188 296.832031 328.183594 299.148438 326.320312 301.421875 C 324.453125 303.691406 322.535156 305.917969 320.5625 308.097656 C 318.585938 310.273438 316.558594 312.402344 314.480469 314.480469 C 312.402344 316.558594 310.273438 318.585938 308.097656 320.5625 C 305.917969 322.535156 303.691406 324.453125 301.421875 326.320312 C 299.148438 328.183594 296.832031 329.992188 294.46875 331.742188 C 292.109375 333.496094 289.707031 335.1875 287.261719 336.820312 C 284.816406 338.453125 282.335938 340.027344 279.8125 341.535156 C 277.292969 343.046875 274.734375 344.496094 272.140625 345.882812 C 269.550781 347.269531 266.925781 348.589844 264.265625 349.847656 C 261.609375 351.101562 258.921875 352.292969 256.207031 353.417969 C 253.492188 354.542969 250.75 355.601562 247.980469 356.59375 C 245.214844 357.582031 242.421875 358.503906 239.609375 359.359375 C 236.796875 360.210938 233.964844 360.996094 231.113281 361.710938 C 228.261719 362.421875 225.394531 363.066406 222.511719 363.640625 C 219.628906 364.214844 216.730469 364.714844 213.824219 365.148438 C 210.914062 365.578125 208 365.9375 205.074219 366.226562 C 202.148438 366.515625 199.21875 366.730469 196.28125 366.875 C 193.34375 367.019531 190.40625 367.09375 187.46875 367.09375 C 184.527344 367.09375 181.589844 367.019531 178.652344 366.875 C 175.71875 366.730469 172.785156 366.515625 169.859375 366.226562 C 166.933594 365.9375 164.019531 365.578125 161.109375 365.148438 C 158.203125 364.714844 155.308594 364.214844 152.425781 363.640625 C 149.539062 363.066406 146.671875 362.421875 143.820312 361.710938 C 140.96875 360.996094 138.136719 360.210938 135.324219 359.359375 C 132.511719 358.503906 129.722656 357.582031 126.953125 356.59375 C 124.1875 355.601562 121.445312 354.542969 118.726562 353.417969 C 116.011719 352.292969 113.324219 351.101562 110.667969 349.847656 C 108.011719 348.589844 105.386719 347.269531 102.792969 345.882812 C 100.199219 344.496094 97.644531 343.046875 95.121094 341.535156 C 92.601562 340.027344 90.117188 338.453125 87.671875 336.820312 C 85.230469 335.1875 82.824219 333.496094 80.464844 331.742188 C 78.105469 329.992188 75.785156 328.183594 73.515625 326.320312 C 71.242188 324.453125 69.015625 322.535156 66.839844 320.5625 C 64.660156 318.585938 62.53125 316.558594 60.453125 314.480469 C 58.375 312.402344 56.347656 310.273438 54.375 308.097656 C 52.398438 305.917969 50.480469 303.691406 48.617188 301.421875 C 46.75 299.148438 44.941406 296.832031 43.191406 294.46875 C 41.441406 292.109375 39.746094 289.707031 38.113281 287.261719 C 36.480469 284.816406 34.910156 282.335938 33.398438 279.8125 C 31.886719 277.292969 30.4375 274.734375 29.050781 272.140625 C 27.667969 269.550781 26.34375 266.925781 25.089844 264.265625 C 23.832031 261.609375 22.640625 258.921875 21.515625 256.207031 C 20.390625 253.492188 19.332031 250.75 18.34375 247.980469 C 17.351562 245.214844 16.429688 242.421875 15.578125 239.609375 C 14.722656 236.796875 13.941406 233.964844 13.226562 231.113281 C 12.511719 228.261719 11.867188 225.394531 11.292969 222.511719 C 10.71875 219.628906 10.21875 216.730469 9.785156 213.824219 C 9.355469 210.914062 8.996094 208 8.707031 205.074219 C 8.417969 202.148438 8.203125 199.21875 8.058594 196.28125 C 7.914062 193.34375 7.84375 190.40625 7.84375 187.46875 C 7.84375 184.527344 7.914062 181.589844 8.058594 178.652344 C 8.203125 175.71875 8.417969 172.785156 8.707031 169.859375 C 8.996094 166.933594 9.355469 164.019531 9.785156 161.109375 C 10.21875 158.203125 10.71875 155.308594 11.292969 152.425781 C 11.867188 149.539062 12.511719 146.671875 13.226562 143.820312 C 13.941406 140.96875 14.722656 138.136719 15.578125 135.324219 C 16.429688 132.511719 17.351562 129.722656 18.34375 126.953125 C 19.332031 124.1875 20.390625 121.445312 21.515625 118.726562 C 22.640625 116.011719 23.832031 113.324219 25.089844 110.667969 C 26.34375 108.011719 27.667969 105.386719 29.050781 102.792969 C 30.4375 100.199219 31.886719 97.644531 33.398438 95.121094 C 34.910156 92.601562 36.480469 90.117188 38.113281 87.671875 C 39.746094 85.230469 41.441406 82.824219 43.191406 80.464844 C 44.941406 78.105469 46.75 75.785156 48.617188 73.515625 C 50.480469 71.242188 52.398438 69.015625 54.375 66.839844 C 56.347656 64.660156 58.375 62.53125 60.453125 60.453125 C 62.53125 58.375 64.660156 56.347656 66.839844 54.375 C 69.015625 52.398438 71.242188 50.480469 73.515625 48.617188 C 75.785156 46.75 78.105469 44.941406 80.464844 43.191406 C 82.824219 41.441406 85.230469 39.746094 87.671875 38.113281 C 90.117188 36.480469 92.601562 34.910156 95.121094 33.398438 C 97.644531 31.886719 100.199219 30.4375 102.792969 29.050781 C 105.386719 27.667969 108.011719 26.34375 110.667969 25.089844 C 113.324219 23.832031 116.011719 22.640625 118.726562 21.515625 C 121.445312 20.390625 124.1875 19.332031 126.953125 18.34375 C 129.722656 17.351562 132.511719 16.429688 135.324219 15.578125 C 138.136719 14.722656 140.96875 13.941406 143.820312 13.226562 C 146.671875 12.511719 149.539062 11.867188 152.425781 11.292969 C 155.308594 10.71875 158.203125 10.21875 161.109375 9.785156 C 164.019531 9.355469 166.933594 8.996094 169.859375 8.707031 C 172.785156 8.417969 175.71875 8.203125 178.652344 8.058594 C 181.589844 7.914062 184.527344 7.84375 187.46875 7.84375 C 190.40625 7.84375 193.34375 7.914062 196.28125 8.058594 C 199.21875 8.203125 202.148438 8.417969 205.074219 8.707031 C 208 8.996094 210.914062 9.355469 213.824219 9.785156 C 216.730469 10.21875 219.628906 10.71875 222.511719 11.292969 C 225.394531 11.867188 228.261719 12.511719 231.113281 13.226562 C 233.964844 13.941406 236.796875 14.722656 239.609375 15.578125 C 242.421875 16.429688 245.214844 17.351562 247.980469 18.34375 C 250.75 19.332031 253.492188 20.390625 256.207031 21.515625 C 258.921875 22.640625 261.609375 23.832031 264.265625 25.089844 C 266.925781 26.34375 269.550781 27.667969 272.140625 29.050781 C 274.734375 30.4375 277.292969 31.886719 279.8125 33.398438 C 282.335938 34.910156 284.816406 36.480469 287.261719 38.113281 C 289.707031 39.746094 292.109375 41.441406 294.46875 43.191406 C 296.832031 44.941406 299.148438 46.75 301.421875 48.617188 C 303.691406 50.480469 305.917969 52.398438 308.097656 54.375 C 310.273438 56.347656 312.402344 58.375 314.480469 60.453125 C 316.558594 62.53125 318.585938 64.660156 320.5625 66.839844 C 322.535156 69.015625 324.453125 71.242188 326.320312 73.515625 C 328.183594 75.785156 329.992188 78.105469 331.742188 80.464844 C 333.496094 82.824219 335.1875 85.230469 336.820312 87.671875 C 338.453125 90.117188 340.027344 92.601562 341.535156 95.121094 C 343.046875 97.644531 344.496094 100.199219 345.882812 102.792969 C 347.269531 105.386719 348.589844 108.011719 349.847656 110.667969 C 351.101562 113.324219 352.292969 116.011719 353.417969 118.726562 C 354.542969 121.445312 355.601562 124.1875 356.59375 126.953125 C 357.582031 129.722656 358.503906 132.511719 359.359375 135.324219 C 360.210938 138.136719 360.996094 140.96875 361.710938 143.820312 C 362.421875 146.671875 363.066406 149.539062 363.640625 152.425781 C 364.214844 155.308594 364.714844 158.203125 365.148438 161.109375 C 365.578125 164.019531 365.9375 166.933594 366.226562 169.859375 C 366.515625 172.785156 366.730469 175.71875 366.875 178.652344 C 367.019531 181.589844 367.09375 184.527344 367.09375 187.46875 Z M 367.09375 187.46875 " fill-opacity="1" fill-rule="nonzero"/></g><path fill="#ffca28" d="M 356.679688 187.46875 C 356.679688 190.238281 356.609375 193.003906 356.476562 195.769531 C 356.339844 198.535156 356.136719 201.296875 355.863281 204.054688 C 355.59375 206.808594 355.253906 209.554688 354.847656 212.296875 C 354.441406 215.035156 353.96875 217.761719 353.429688 220.480469 C 352.886719 223.195312 352.28125 225.894531 351.609375 228.582031 C 350.933594 231.269531 350.195312 233.9375 349.394531 236.585938 C 348.589844 239.238281 347.71875 241.867188 346.789062 244.472656 C 345.855469 247.082031 344.859375 249.664062 343.796875 252.222656 C 342.738281 254.78125 341.617188 257.3125 340.433594 259.816406 C 339.25 262.316406 338.003906 264.789062 336.699219 267.234375 C 335.394531 269.675781 334.027344 272.085938 332.605469 274.460938 C 331.179688 276.835938 329.699219 279.171875 328.160156 281.476562 C 326.625 283.777344 325.027344 286.042969 323.378906 288.265625 C 321.730469 290.492188 320.027344 292.671875 318.269531 294.8125 C 316.511719 296.953125 314.703125 299.050781 312.84375 301.101562 C 310.984375 303.15625 309.078125 305.160156 307.117188 307.117188 C 305.160156 309.078125 303.15625 310.984375 301.101562 312.84375 C 299.050781 314.703125 296.953125 316.511719 294.8125 318.269531 C 292.671875 320.027344 290.492188 321.730469 288.265625 323.378906 C 286.042969 325.027344 283.777344 326.625 281.476562 328.160156 C 279.171875 329.699219 276.835938 331.179688 274.460938 332.605469 C 272.085938 334.027344 269.675781 335.394531 267.234375 336.699219 C 264.789062 338.003906 262.316406 339.25 259.816406 340.433594 C 257.3125 341.617188 254.78125 342.738281 252.222656 343.796875 C 249.664062 344.859375 247.082031 345.855469 244.472656 346.789062 C 241.867188 347.722656 239.238281 348.589844 236.585938 349.394531 C 233.9375 350.195312 231.269531 350.933594 228.582031 351.609375 C 225.894531 352.28125 223.195312 352.886719 220.480469 353.429688 C 217.761719 353.96875 215.035156 354.441406 212.296875 354.847656 C 209.554688 355.253906 206.808594 355.59375 204.054688 355.863281 C 201.296875 356.136719 198.535156 356.339844 195.769531 356.476562 C 193.003906 356.609375 190.238281 356.679688 187.46875 356.679688 C 184.699219 356.679688 181.929688 356.609375 179.164062 356.476562 C 176.398438 356.339844 173.636719 356.136719 170.882812 355.863281 C 168.125 355.59375 165.378906 355.253906 162.640625 354.847656 C 159.898438 354.441406 157.171875 353.96875 154.457031 353.429688 C 151.738281 352.886719 149.039062 352.28125 146.351562 351.609375 C 143.664062 350.933594 140.996094 350.195312 138.347656 349.394531 C 135.699219 348.589844 133.070312 347.722656 130.460938 346.789062 C 127.855469 345.855469 125.269531 344.859375 122.710938 343.796875 C 120.152344 342.738281 117.625 341.617188 115.121094 340.433594 C 112.617188 339.25 110.144531 338.003906 107.703125 336.699219 C 105.257812 335.394531 102.851562 334.027344 100.476562 332.605469 C 98.101562 331.179688 95.761719 329.699219 93.457031 328.160156 C 91.15625 326.625 88.890625 325.027344 86.667969 323.378906 C 84.445312 321.730469 82.261719 320.027344 80.121094 318.269531 C 77.980469 316.511719 75.882812 314.703125 73.832031 312.84375 C 71.78125 310.984375 69.773438 309.078125 67.816406 307.117188 C 65.859375 305.160156 63.949219 303.15625 62.089844 301.101562 C 60.230469 299.050781 58.421875 296.953125 56.664062 294.8125 C 54.90625 292.671875 53.203125 290.492188 51.554688 288.265625 C 49.90625 286.042969 48.3125 283.777344 46.773438 281.476562 C 45.234375 279.171875 43.753906 276.835938 42.328125 274.460938 C 40.90625 272.085938 39.542969 269.675781 38.234375 267.234375 C 36.929688 264.789062 35.683594 262.316406 34.5 259.816406 C 33.316406 257.3125 32.195312 254.78125 31.136719 252.222656 C 30.074219 249.664062 29.078125 247.082031 28.148438 244.472656 C 27.214844 241.867188 26.34375 239.238281 25.542969 236.585938 C 24.738281 233.9375 24 231.269531 23.328125 228.582031 C 22.652344 225.894531 22.046875 223.195312 21.507812 220.480469 C 20.964844 217.761719 20.492188 215.035156 20.085938 212.296875 C 19.679688 209.554688 19.339844 206.808594 19.070312 204.054688 C 18.796875 201.296875 18.59375 198.535156 18.460938 195.769531 C 18.324219 193.003906 18.253906 190.238281 18.253906 187.46875 C 18.253906 184.699219 18.324219 181.929688 18.460938 179.164062 C 18.59375 176.398438 18.796875 173.636719 19.070312 170.882812 C 19.339844 168.125 19.679688 165.378906 20.085938 162.640625 C 20.492188 159.898438 20.964844 157.171875 21.507812 154.457031 C 22.046875 151.738281 22.652344 149.039062 23.328125 146.351562 C 24 143.664062 24.738281 140.996094 25.542969 138.347656 C 26.34375 135.699219 27.214844 133.070312 28.148438 130.460938 C 29.078125 127.855469 30.074219 125.269531 31.136719 122.710938 C 32.195312 120.152344 33.316406 117.625 34.5 115.121094 C 35.683594 112.617188 36.929688 110.144531 38.234375 107.703125 C 39.542969 105.257812 40.90625 102.851562 42.328125 100.476562 C 43.753906 98.101562 45.234375 95.761719 46.773438 93.457031 C 48.3125 91.15625 49.90625 88.890625 51.554688 86.667969 C 53.203125 84.445312 54.90625 82.261719 56.664062 80.121094 C 58.421875 77.980469 60.230469 75.882812 62.089844 73.832031 C 63.949219 71.78125 65.859375 69.773438 67.816406 67.816406 C 69.773438 65.859375 71.78125 63.949219 73.832031 62.089844 C 75.882812 60.230469 77.980469 58.421875 80.121094 56.664062 C 82.261719 54.90625 84.445312 53.203125 86.667969 51.554688 C 88.890625 49.90625 91.15625 48.3125 93.457031 46.773438 C 95.761719 45.234375 98.101562 43.753906 100.476562 42.328125 C 102.851562 40.90625 105.257812 39.542969 107.703125 38.234375 C 110.144531 36.929688 112.617188 35.683594 115.121094 34.5 C 117.625 33.316406 120.152344 32.195312 122.710938 31.136719 C 125.269531 30.074219 127.855469 29.078125 130.460938 28.148438 C 133.070312 27.214844 135.699219 26.34375 138.347656 25.542969 C 140.996094 24.738281 143.664062 24 146.351562 23.328125 C 149.039062 22.652344 151.738281 22.046875 154.457031 21.507812 C 157.171875 20.964844 159.898438 20.492188 162.640625 20.085938 C 165.378906 19.679688 168.125 19.339844 170.882812 19.070312 C 173.636719 18.796875 176.398438 18.59375 179.164062 18.460938 C 181.929688 18.324219 184.699219 18.253906 187.46875 18.253906 C 190.238281 18.253906 193.003906 18.324219 195.769531 18.460938 C 198.535156 18.59375 201.296875 18.796875 204.054688 19.070312 C 206.808594 19.339844 209.554688 19.679688 212.296875 20.085938 C 215.035156 20.492188 217.761719 20.964844 220.480469 21.507812 C 223.195312 22.046875 225.894531 22.652344 228.582031 23.328125 C 231.269531 24 233.9375 24.738281 236.585938 25.542969 C 239.238281 26.34375 241.867188 27.214844 244.472656 28.148438 C 247.082031 29.078125 249.664062 30.074219 252.222656 31.136719 C 254.78125 32.195312 257.3125 33.316406 259.816406 34.5 C 262.316406 35.683594 264.789062 36.929688 267.234375 38.234375 C 269.675781 39.542969 272.085938 40.90625 274.460938 42.328125 C 276.835938 43.753906 279.171875 45.234375 281.476562 46.773438 C 283.777344 48.3125 286.042969 49.90625 288.265625 51.554688 C 290.492188 53.203125 292.671875 54.90625 294.8125 56.664062 C 296.953125 58.421875 299.050781 60.230469 301.101562 62.089844 C 303.15625 63.949219 305.160156 65.859375 307.117188 67.816406 C 309.078125 69.773438 310.984375 71.78125 312.84375 73.832031 C 314.703125 75.882812 316.511719 77.980469 318.269531 80.121094 C 320.027344 82.261719 321.730469 84.445312 323.378906 86.667969 C 325.027344 88.890625 326.625 91.15625 328.160156 93.457031 C 329.699219 95.761719 331.179688 98.101562 332.605469 100.476562 C 334.027344 102.851562 335.394531 105.257812 336.699219 107.703125 C 338.003906 110.144531 339.25 112.617188 340.433594 115.121094 C 341.617188 117.625 342.738281 120.152344 343.796875 122.710938 C 344.859375 125.269531 345.855469 127.855469 346.789062 130.460938 C 347.71875 133.070312 348.589844 135.699219 349.394531 138.347656 C 350.195312 140.996094 350.933594 143.664062 351.609375 146.351562 C 352.28125 149.039062 352.886719 151.738281 353.429688 154.457031 C 353.96875 157.171875 354.441406 159.898438 354.847656 162.640625 C 355.253906 165.378906 355.59375 168.125 355.863281 170.882812 C 356.136719 173.636719 356.339844 176.398438 356.476562 179.164062 C 356.609375 181.929688 356.679688 184.699219 356.679688 187.46875 Z M 356.679688 187.46875 " fill-opacity="1" fill-rule="nonzero"/><path fill="#ffa000" d="M 330.648438 187.46875 C 330.648438 189.808594 330.589844 192.152344 330.472656 194.492188 C 330.359375 196.832031 330.1875 199.167969 329.957031 201.5 C 329.726562 203.832031 329.441406 206.15625 329.097656 208.476562 C 328.753906 210.792969 328.351562 213.101562 327.894531 215.398438 C 327.4375 217.699219 326.925781 219.984375 326.355469 222.257812 C 325.785156 224.53125 325.160156 226.789062 324.480469 229.03125 C 323.800781 231.273438 323.066406 233.496094 322.277344 235.703125 C 321.488281 237.910156 320.644531 240.09375 319.746094 242.257812 C 318.851562 244.425781 317.902344 246.566406 316.898438 248.683594 C 315.898438 250.800781 314.84375 252.894531 313.738281 254.960938 C 312.636719 257.027344 311.480469 259.066406 310.277344 261.078125 C 309.070312 263.085938 307.816406 265.066406 306.515625 267.011719 C 305.214844 268.960938 303.867188 270.878906 302.46875 272.757812 C 301.074219 274.640625 299.632812 276.488281 298.144531 278.300781 C 296.660156 280.109375 295.128906 281.882812 293.554688 283.621094 C 291.984375 285.355469 290.367188 287.054688 288.710938 288.710938 C 287.054688 290.367188 285.355469 291.984375 283.621094 293.554688 C 281.882812 295.128906 280.109375 296.660156 278.300781 298.144531 C 276.488281 299.632812 274.640625 301.074219 272.757812 302.46875 C 270.878906 303.867188 268.960938 305.214844 267.011719 306.515625 C 265.066406 307.816406 263.085938 309.070312 261.074219 310.277344 C 259.066406 311.480469 257.027344 312.636719 254.960938 313.738281 C 252.894531 314.84375 250.800781 315.898438 248.683594 316.898438 C 246.566406 317.902344 244.425781 318.851562 242.257812 319.746094 C 240.09375 320.644531 237.910156 321.488281 235.703125 322.277344 C 233.496094 323.066406 231.273438 323.800781 229.03125 324.480469 C 226.789062 325.160156 224.53125 325.785156 222.257812 326.355469 C 219.984375 326.925781 217.699219 327.4375 215.398438 327.894531 C 213.101562 328.351562 210.792969 328.753906 208.476562 329.097656 C 206.15625 329.441406 203.832031 329.726562 201.5 329.957031 C 199.167969 330.1875 196.832031 330.359375 194.492188 330.472656 C 192.152344 330.589844 189.808594 330.648438 187.46875 330.648438 C 185.125 330.648438 182.78125 330.589844 180.441406 330.472656 C 178.101562 330.359375 175.765625 330.1875 173.433594 329.957031 C 171.101562 329.726562 168.777344 329.441406 166.457031 329.097656 C 164.140625 328.753906 161.832031 328.351562 159.535156 327.894531 C 157.234375 327.4375 154.949219 326.925781 152.675781 326.355469 C 150.40625 325.785156 148.148438 325.160156 145.90625 324.480469 C 143.664062 323.800781 141.4375 323.066406 139.230469 322.277344 C 137.023438 321.488281 134.839844 320.644531 132.675781 319.746094 C 130.511719 318.851562 128.367188 317.902344 126.25 316.898438 C 124.132812 315.898438 122.039062 314.84375 119.972656 313.738281 C 117.90625 312.636719 115.867188 311.480469 113.859375 310.277344 C 111.847656 309.070312 109.871094 307.820312 107.921875 306.515625 C 105.972656 305.214844 104.058594 303.867188 102.175781 302.46875 C 100.292969 301.074219 98.445312 299.632812 96.636719 298.144531 C 94.824219 296.660156 93.050781 295.128906 91.3125 293.554688 C 89.578125 291.984375 87.882812 290.367188 86.222656 288.710938 C 84.566406 287.054688 82.953125 285.355469 81.378906 283.621094 C 79.804688 281.882812 78.273438 280.109375 76.789062 278.300781 C 75.300781 276.488281 73.859375 274.640625 72.464844 272.757812 C 71.070312 270.878906 69.71875 268.960938 68.417969 267.011719 C 67.117188 265.066406 65.863281 263.085938 64.660156 261.078125 C 63.453125 259.066406 62.300781 257.027344 61.195312 254.960938 C 60.089844 252.894531 59.035156 250.800781 58.035156 248.683594 C 57.03125 246.566406 56.082031 244.425781 55.1875 242.257812 C 54.289062 240.09375 53.445312 237.910156 52.65625 235.703125 C 51.867188 233.496094 51.132812 231.273438 50.453125 229.03125 C 49.773438 226.789062 49.148438 224.53125 48.578125 222.257812 C 48.007812 219.984375 47.496094 217.699219 47.039062 215.398438 C 46.582031 213.101562 46.179688 210.792969 45.835938 208.476562 C 45.492188 206.15625 45.207031 203.832031 44.976562 201.5 C 44.746094 199.167969 44.574219 196.832031 44.460938 194.492188 C 44.34375 192.152344 44.289062 189.808594 44.289062 187.46875 C 44.289062 185.125 44.34375 182.78125 44.460938 180.441406 C 44.574219 178.101562 44.746094 175.765625 44.976562 173.433594 C 45.207031 171.101562 45.492188 168.777344 45.835938 166.457031 C 46.179688 164.140625 46.582031 161.832031 47.039062 159.535156 C 47.496094 157.234375 48.007812 154.949219 48.578125 152.675781 C 49.148438 150.40625 49.773438 148.148438 50.453125 145.90625 C 51.132812 143.664062 51.867188 141.4375 52.65625 139.230469 C 53.445312 137.023438 54.289062 134.839844 55.1875 132.675781 C 56.082031 130.511719 57.03125 128.367188 58.035156 126.25 C 59.035156 124.132812 60.089844 122.039062 61.195312 119.972656 C 62.300781 117.90625 63.453125 115.867188 64.660156 113.859375 C 65.863281 111.847656 67.117188 109.871094 68.417969 107.921875 C 69.71875 105.972656 71.070312 104.058594 72.464844 102.175781 C 73.859375 100.292969 75.300781 98.445312 76.789062 96.636719 C 78.273438 94.824219 79.804688 93.050781 81.378906 91.3125 C 82.953125 89.578125 84.566406 87.882812 86.222656 86.222656 C 87.882812 84.566406 89.578125 82.953125 91.3125 81.378906 C 93.050781 79.804688 94.824219 78.273438 96.636719 76.789062 C 98.445312 75.300781 100.292969 73.859375 102.175781 72.464844 C 104.058594 71.070312 105.972656 69.71875 107.921875 68.417969 C 109.871094 67.117188 111.847656 65.863281 113.859375 64.660156 C 115.867188 63.453125 117.90625 62.300781 119.972656 61.195312 C 122.039062 60.089844 124.132812 59.035156 126.25 58.035156 C 128.367188 57.03125 130.511719 56.082031 132.675781 55.1875 C 134.839844 54.289062 137.023438 53.445312 139.230469 52.65625 C 141.4375 51.867188 143.664062 51.132812 145.90625 50.453125 C 148.148438 49.773438 150.40625 49.148438 152.675781 48.578125 C 154.949219 48.007812 157.234375 47.496094 159.535156 47.039062 C 161.832031 46.582031 164.140625 46.179688 166.457031 45.835938 C 168.777344 45.492188 171.101562 45.207031 173.433594 44.976562 C 175.765625 44.746094 178.101562 44.574219 180.441406 44.460938 C 182.78125 44.34375 185.125 44.289062 187.46875 44.289062 C 189.808594 44.289062 192.152344 44.34375 194.492188 44.460938 C 196.832031 44.574219 199.167969 44.746094 201.5 44.976562 C 203.832031 45.207031 206.15625 45.492188 208.476562 45.835938 C 210.792969 46.179688 213.101562 46.582031 215.398438 47.039062 C 217.699219 47.496094 219.984375 48.007812 222.257812 48.578125 C 224.53125 49.148438 226.789062 49.773438 229.03125 50.453125 C 231.273438 51.132812 233.496094 51.867188 235.703125 52.65625 C 237.910156 53.445312 240.09375 54.289062 242.257812 55.1875 C 244.425781 56.082031 246.566406 57.03125 248.683594 58.035156 C 250.800781 59.035156 252.894531 60.089844 254.960938 61.195312 C 257.027344 62.300781 259.066406 63.453125 261.074219 64.660156 C 263.085938 65.863281 265.066406 67.117188 267.011719 68.417969 C 268.960938 69.71875 270.878906 71.070312 272.757812 72.464844 C 274.640625 73.859375 276.488281 75.300781 278.300781 76.789062 C 280.109375 78.273438 281.882812 79.804688 283.621094 81.378906 C 285.355469 82.953125 287.054688 84.566406 288.710938 86.222656 C 290.367188 87.882812 291.984375 89.578125 293.554688 91.3125 C 295.128906 93.050781 296.660156 94.824219 298.144531 96.636719 C 299.632812 98.445312 301.074219 100.292969 302.46875 102.175781 C 303.867188 104.058594 305.214844 105.972656 306.515625 107.921875 C 307.816406 109.871094 309.070312 111.847656 310.277344 113.859375 C 311.480469 115.867188 312.636719 117.90625 313.738281 119.972656 C 314.84375 122.039062 315.898438 124.132812 316.898438 126.25 C 317.902344 128.367188 318.851562 130.511719 319.746094 132.675781 C 320.644531 134.839844 321.488281 137.023438 322.277344 139.230469 C 323.066406 141.4375 323.800781 143.664062 324.480469 145.90625 C 325.160156 148.148438 325.785156 150.40625 326.355469 152.675781 C 326.925781 154.949219 327.4375 157.234375 327.894531 159.535156 C 328.351562 161.832031 328.753906 164.140625 329.097656 166.457031 C 329.441406 168.777344 329.726562 171.101562 329.957031 173.433594 C 330.1875 175.765625 330.359375 178.101562 330.472656 180.441406 C 330.589844 182.78125 330.648438 185.125 330.648438 187.46875 Z M 330.648438 187.46875 " fill-opacity="1" fill-rule="nonzero"/><g mask="url(#9a5dd3e7f1)"><g transform="matrix(1, 0, 0, 1, 115, 219)"><g clip-path="url(#111d9c1e4c)"><g clip-path="url(#a80399d49c)"><path fill="#545454" d="M 1.59375 4.03125 C 20.394531 14.570312 44.210938 13.984375 62.851562 4.03125 C 64.390625 3.101562 42.484375 0.691406 32.121094 0.691406 C 13.597656 0.691406 1.253906 2.53125 1.59375 4.03125 Z M 1.59375 4.03125 " fill-opacity="1" fill-rule="nonzero"/></g></g></g></g><g mask="url(#b72326968d)"><g transform="matrix(1, 0, 0, 1, 160, 245)"><g clip-path="url(#6e752234f7)"><g clip-path="url(#9bbfabc1cc)"><path fill="#545454" d="M 0.492188 3.964844 C 0.492188 3.964844 0.320312 1.066406 4.734375 1.003906 C 9.148438 0.941406 47.734375 1.003906 50.613281 1.003906 C 53.496094 1.003906 54.210938 2.976562 54.1875 3.976562 C 54.125 6.4375 34.277344 11.570312 34.273438 11.460938 L 7.976562 9.355469 C 5.480469 7.558594 1.949219 7.59375 0.492188 3.964844 Z M 0.492188 3.964844 " fill-opacity="1" fill-rule="nonzero"/></g></g></g></g><g mask="url(#fd628ae5f8)"><g transform="matrix(1, 0, 0, 1, 160, 247)"><g clip-path="url(#846798f982)"><g clip-path="url(#0dc310cf61)"><path fill="#545454" d="M 0.507812 1.625 L 0.507812 7.253906 C 0.320312 13.191406 54.183594 13.484375 54.167969 7.253906 L 54.167969 1.625 C 54.222656 7.890625 0.402344 7.898438 0.507812 1.625 Z M 0.507812 1.625 " fill-opacity="1" fill-rule="nonzero"/></g></g></g></g><g mask="url(#1ba624a2f6)"><g transform="matrix(1, 0, 0, 1, 163, 240)"><g clip-path="url(#a707894f0d)"><path fill="#545454" d="M 1.011719 4.757812 C 1.082031 3.734375 8.277344 1.074219 23.601562 1.074219 C 39.011719 1.074219 47.667969 3.191406 47.667969 4.835938 C 47.667969 5.234375 42.929688 8.46875 42.929688 8.46875 L 23.117188 10.371094 L 1.3125 6.828125 Z M 1.011719 4.757812 " fill-opacity="1" fill-rule="nonzero"/></g></g></g><g mask="url(#ab2dbae49e)"><g transform="matrix(1, 0, 0, 1, 163, 244)"><g clip-path="url(#9aabdbdc35)"><g clip-path="url(#784dca6793)"><path fill="#545454" d="M 1.019531 0.617188 L 1.019531 4.699219 C 1.105469 8.441406 47.667969 8.964844 47.660156 4.699219 L 47.660156 0.617188 C 47.640625 4.65625 1.050781 4.601562 1.019531 0.617188 Z M 1.019531 0.617188 " fill-opacity="1" fill-rule="nonzero"/></g></g></g></g><g mask="url(#4b9f23d213)"><g transform="matrix(1, 0, 0, 1, 175, 241)"><g clip-path="url(#f9371d1de8)"><g clip-path="url(#35b699c9f7)"><path fill="#545454" d="M 22.8125 4.027344 C 22.8125 4.027344 16.226562 3.332031 14.667969 2.292969 C 13.109375 1.253906 13.453125 1.167969 11.851562 1.167969 C 10.25 1.167969 10.597656 1.253906 9.035156 2.292969 C 7.476562 3.332031 0.894531 4.027344 0.894531 4.027344 " fill-opacity="1" fill-rule="nonzero"/></g></g></g></g><g mask="url(#9c5b59d974)"><g transform="matrix(1, 0, 0, 1, 180, 238)"><g clip-path="url(#3d2e54d904)"><g clip-path="url(#446c42e6f8)"><path fill="#545454" d="M 1.679688 0.867188 L 13 0.886719 C 13.082031 1.328125 9.390625 4.578125 8.1875 4.515625 L 5.871094 4.503906 C 4.507812 4.546875 1.664062 1.050781 1.679688 0.867188 Z M 1.679688 0.867188 " fill-opacity="1" fill-rule="nonzero"/></g></g></g></g><g mask="url(#e2d4ae067c)"><g transform="matrix(1, 0, 0, 1, 140, 128)"><g clip-path="url(#acbabf0e50)"><g clip-path="url(#71d38a3a44)"><path fill="#545454" d="M 47.175781 0.855469 C 46.992188 0.855469 46.808594 0.863281 46.636719 0.875 C 46.429688 0.890625 46.238281 0.929688 46.050781 0.960938 C 44.917969 1.160156 44.121094 1.625 44.121094 2.195312 L 44.121094 5.207031 C 40.703125 3.222656 36.472656 2.152344 33.445312 2.152344 C 29.402344 2.152344 27.296875 2.632812 22.441406 5.316406 C 18.40625 7.546875 17.289062 8.507812 14.472656 7.894531 C 11.65625 7.28125 10.3125 5.828125 8.84375 5.335938 C 7.371094 4.847656 5.167969 6.425781 5.03125 6.898438 C 4.875 7.417969 4.394531 6.765625 4.273438 6.398438 C 4.148438 6.03125 1.378906 7.605469 1.5 8.585938 C 1.621094 9.566406 4.007812 12.253906 4.359375 11.097656 C 4.695312 9.996094 5.164062 9.890625 5.59375 10.320312 C 6.027344 10.753906 7.621094 11.636719 7.867188 13.351562 C 8.113281 15.066406 7.246094 15.550781 6.632812 15.0625 C 6.019531 14.570312 5.78125 14.339844 5.65625 13.847656 C 5.535156 13.359375 2.972656 14.585938 3.339844 14.953125 C 3.707031 15.320312 4.433594 17.632812 5.289062 17.878906 C 6.148438 18.121094 6.15625 19.230469 6.15625 19.71875 C 6.15625 20.207031 7.628906 20.101562 7.628906 19.980469 C 7.628906 19.855469 7.738281 18.246094 7.738281 18.246094 C 7.738281 18.246094 10.566406 18.007812 10.445312 14.457031 C 10.320312 10.902344 8.351562 9.804688 9.210938 9.5625 C 10.066406 9.316406 14.347656 11.519531 18.023438 11.640625 C 21.699219 11.761719 26.679688 8.089844 33.292969 8.089844 C 38.203125 8.089844 42.316406 10.371094 44.121094 11.554688 L 44.121094 12.746094 C 44.121094 13.316406 44.917969 13.785156 46.050781 13.980469 C 46.238281 14.011719 46.429688 14.050781 46.636719 14.066406 C 46.808594 14.078125 46.992188 14.085938 47.175781 14.085938 C 47.207031 14.089844 47.234375 14.085938 47.261719 14.085938 L 47.414062 14.085938 C 47.652344 14.085938 47.886719 14.085938 48.109375 14.066406 C 49.503906 13.941406 50.554688 13.398438 50.554688 12.746094 L 50.554688 11.554688 C 52.359375 10.371094 56.476562 8.089844 61.382812 8.089844 C 68 8.089844 72.976562 11.761719 76.652344 11.640625 C 80.328125 11.519531 84.609375 9.316406 85.46875 9.5625 C 86.324219 9.804688 84.355469 10.902344 84.234375 14.457031 C 84.109375 18.007812 86.941406 18.246094 86.941406 18.246094 C 86.941406 18.246094 87.050781 19.855469 87.050781 19.980469 C 87.050781 20.101562 88.523438 20.207031 88.523438 19.71875 C 88.523438 19.230469 88.53125 18.121094 89.386719 17.878906 C 90.246094 17.632812 90.96875 15.320312 91.335938 14.953125 C 91.703125 14.585938 89.140625 13.359375 89.019531 13.847656 C 88.898438 14.339844 88.65625 14.570312 88.046875 15.0625 C 87.433594 15.550781 86.566406 15.066406 86.8125 13.351562 C 87.054688 11.636719 88.652344 10.753906 89.085938 10.320312 C 89.515625 9.890625 89.960938 9.996094 90.296875 11.097656 C 90.652344 12.253906 93.054688 9.566406 93.179688 8.585938 C 93.300781 7.605469 90.527344 6.03125 90.40625 6.398438 C 90.285156 6.765625 89.800781 7.417969 89.648438 6.898438 C 89.507812 6.425781 87.304688 4.847656 85.835938 5.335938 C 84.367188 5.828125 83.023438 7.28125 80.207031 7.894531 C 77.386719 8.507812 76.269531 7.546875 72.234375 5.316406 C 67.382812 2.632812 65.253906 2.152344 61.210938 2.152344 C 58.183594 2.152344 53.976562 3.222656 50.554688 5.207031 L 50.554688 2.195312 C 50.554688 1.542969 49.503906 1 48.109375 0.875 C 48.085938 0.875 48.066406 0.878906 48.042969 0.875 C 47.871094 0.859375 47.683594 0.855469 47.5 0.855469 Z M 47.175781 0.855469 " fill-opacity="1" fill-rule="nonzero"/></g><path fill="#545454" d="M 7.238281 7.105469 C 7.238281 7.105469 11.957031 9.679688 16.609375 9.679688 C 21.265625 9.679688 26.65625 5.148438 32.90625 5.148438 C 38.296875 5.148438 43.035156 8.402344 45.785156 10.117188 " fill-opacity="1" fill-rule="nonzero"/><path fill="#545454" d="M 87.4375 7.105469 C 87.4375 7.105469 82.722656 9.679688 78.066406 9.679688 C 73.410156 9.679688 68.019531 5.148438 61.773438 5.148438 C 56.378906 5.148438 51.640625 8.402344 48.894531 10.117188 " fill-opacity="1" fill-rule="nonzero"/></g></g></g><g mask="url(#1ac24c5f49)"><g transform="matrix(1, 0, 0, 1, 184, 125)"><g clip-path="url(#44e76ab55f)"><g clip-path="url(#61edeb7a9c)"><path fill="#545454" d="M 0.949219 4.191406 L 0.949219 1.714844 C 2.671875 0.964844 4.007812 0.046875 5.726562 1.714844 L 5.726562 3.949219 Z M 0.949219 4.191406 " fill-opacity="1" fill-rule="nonzero"/></g></g></g></g><g mask="url(#1e91505730)"><g transform="matrix(1, 0, 0, 1, 183, 128)"><g clip-path="url(#a7fdd347c9)"><g clip-path="url(#c3c3a68b0a)"><path fill="#545454" d="M 4.175781 0.609375 C 3.984375 0.609375 3.792969 0.617188 3.613281 0.632812 C 3.398438 0.648438 3.203125 0.6875 3.003906 0.722656 C 1.832031 0.925781 1.003906 1.410156 1.003906 2 L 1.003906 12.9375 C 1.003906 13.53125 1.832031 14.015625 3.003906 14.21875 C 3.203125 14.253906 3.398438 14.292969 3.613281 14.308594 C 3.792969 14.324219 3.984375 14.332031 4.175781 14.332031 C 4.203125 14.332031 4.234375 14.332031 4.265625 14.332031 L 4.421875 14.332031 C 4.667969 14.332031 4.910156 14.332031 5.140625 14.308594 C 6.589844 14.179688 7.679688 13.617188 7.679688 12.9375 L 7.679688 2 C 7.679688 1.324219 6.589844 0.761719 5.140625 0.632812 C 5.117188 0.628906 5.09375 0.632812 5.074219 0.632812 C 4.894531 0.617188 4.699219 0.613281 4.511719 0.609375 Z M 4.175781 0.609375 " fill-opacity="1" fill-rule="nonzero"/></g></g></g></g><g mask="url(#3feaac1b58)"><g transform="matrix(1, 0, 0, 1, 183, 144)"><g clip-path="url(#4fb04c0e4c)"><g clip-path="url(#bd42298b43)"><path fill="#545454" d="M 1.445312 94.992188 L 1.445312 0.671875 L 7.234375 0.636719 L 7.203125 95.628906 L 1.445312 94.988281 Z M 1.445312 94.992188 " fill-opacity="1" fill-rule="nonzero"/></g></g></g></g><g mask="url(#3ed1053fa6)"><g transform="matrix(1, 0, 0, 1, 180, 234)"><g clip-path="url(#e7860c6c98)"><path fill="#545454" d="M 1.679688 4.859375 L 13 4.84375 C 13.082031 4.402344 9.390625 1.148438 8.1875 1.210938 L 5.871094 1.226562 C 4.507812 1.183594 1.664062 4.679688 1.679688 4.859375 Z M 1.679688 4.859375 " fill-opacity="1" fill-rule="nonzero"/></g></g></g><g mask="url(#c293b7c5c8)"><g transform="matrix(1, 0, 0, 1, 183, 142)"><g clip-path="url(#b725a9c5e0)"><g clip-path="url(#5b5e0d6ef8)"><path fill="#545454" d="M 1.304688 2.773438 L 7.371094 2.773438 C 7.371094 2.773438 6.277344 1.136719 4.257812 1.136719 C 2.238281 1.136719 1.304688 2.695312 1.304688 2.773438 Z M 1.304688 2.773438 " fill-opacity="1" fill-rule="nonzero"/></g></g></g></g><g mask="url(#3030115814)"><g transform="matrix(1, 0, 0, 1, 183, 139)"><g clip-path="url(#6da82e5674)"><g clip-path="url(#622e04a58d)"><path fill="#545454" d="M 1.304688 2.453125 L 7.371094 2.453125 C 7.371094 2.453125 6.277344 0.714844 4.257812 0.714844 C 2.238281 0.714844 1.304688 2.367188 1.304688 2.453125 Z M 1.304688 2.453125 " fill-opacity="1" fill-rule="nonzero"/></g></g></g></g><g mask="url(#265b53352b)"><g transform="matrix(1, 0, 0, 1, 183, 144)"><g clip-path="url(#ec73f80826)"><g clip-path="url(#62d08ff870)"><path fill="#545454" d="M 1.304688 0.933594 L 7.371094 0.933594 C 7.371094 0.933594 6.277344 2.675781 4.257812 2.675781 C 2.238281 2.675781 1.304688 1.019531 1.304688 0.933594 Z M 1.304688 0.933594 " fill-opacity="1" fill-rule="nonzero"/></g></g></g></g><g mask="url(#218cf2e09d)"><g transform="matrix(1, 0, 0, 1, 183, 122)"><g clip-path="url(#010b28e2fd)"><g clip-path="url(#67b4c4b758)"><path fill="#545454" d="M 2.675781 1.039062 L 2.675781 2.882812 C 2.675781 2.882812 2.5625 2.941406 2.546875 2.945312 C 2.542969 2.949219 2.507812 2.945312 2.503906 2.945312 C 1.789062 3.074219 0.789062 3.320312 0.464844 3.683594 C 0.335938 3.828125 0.371094 3.925781 0.464844 4.050781 C 0.65625 4.300781 2.332031 5.089844 4.214844 5.089844 C 4.246094 5.089844 4.285156 5.089844 4.320312 5.089844 C 4.363281 5.089844 4.410156 5.089844 4.453125 5.089844 C 6.332031 5.089844 8.003906 4.300781 8.199219 4.050781 C 8.351562 3.851562 8.304688 3.816406 8.199219 3.683594 C 7.996094 3.433594 6.871094 3.070312 6.164062 2.945312 C 6.160156 2.945312 6.144531 2.945312 6.140625 2.945312 C 6.121094 2.9375 5.988281 2.882812 5.988281 2.882812 L 5.988281 1.039062 Z M 2.675781 1.039062 " fill-opacity="1" fill-rule="nonzero"/></g></g></g></g><g mask="url(#07f5ba92ef)"><g transform="matrix(1, 0, 0, 1, 183, 115)"><g clip-path="url(#453161cf60)"><g clip-path="url(#6f81201e3b)"><path fill="#545454" d="M 8.335938 5.140625 C 8.335938 5.402344 8.308594 5.664062 8.257812 5.921875 C 8.207031 6.179688 8.132812 6.429688 8.03125 6.671875 C 7.929688 6.914062 7.808594 7.144531 7.660156 7.359375 C 7.515625 7.578125 7.351562 7.78125 7.164062 7.964844 C 6.980469 8.152344 6.777344 8.316406 6.558594 8.464844 C 6.339844 8.609375 6.109375 8.730469 5.867188 8.832031 C 5.625 8.933594 5.375 9.007812 5.117188 9.058594 C 4.863281 9.109375 4.601562 9.136719 4.339844 9.136719 C 4.078125 9.136719 3.816406 9.109375 3.558594 9.058594 C 3.300781 9.007812 3.050781 8.933594 2.808594 8.832031 C 2.566406 8.730469 2.335938 8.609375 2.121094 8.464844 C 1.902344 8.316406 1.699219 8.152344 1.515625 7.964844 C 1.328125 7.78125 1.164062 7.578125 1.015625 7.359375 C 0.871094 7.144531 0.75 6.914062 0.648438 6.671875 C 0.546875 6.429688 0.472656 6.179688 0.421875 5.921875 C 0.371094 5.664062 0.34375 5.402344 0.34375 5.140625 C 0.34375 4.878906 0.371094 4.621094 0.421875 4.363281 C 0.472656 4.105469 0.546875 3.855469 0.648438 3.613281 C 0.75 3.371094 0.871094 3.140625 1.015625 2.921875 C 1.164062 2.703125 1.328125 2.5 1.515625 2.316406 C 1.699219 2.128906 1.902344 1.964844 2.121094 1.820312 C 2.335938 1.671875 2.566406 1.550781 2.808594 1.449219 C 3.050781 1.347656 3.300781 1.273438 3.558594 1.222656 C 3.816406 1.171875 4.078125 1.144531 4.339844 1.144531 C 4.601562 1.144531 4.863281 1.171875 5.117188 1.222656 C 5.375 1.273438 5.625 1.347656 5.867188 1.449219 C 6.109375 1.550781 6.339844 1.671875 6.558594 1.820312 C 6.777344 1.964844 6.980469 2.128906 7.164062 2.316406 C 7.351562 2.5 7.515625 2.703125 7.660156 2.921875 C 7.808594 3.140625 7.929688 3.371094 8.03125 3.613281 C 8.132812 3.855469 8.207031 4.105469 8.257812 4.363281 C 8.308594 4.621094 8.335938 4.878906 8.335938 5.140625 Z M 8.335938 5.140625 " fill-opacity="1" fill-rule="nonzero"/></g></g></g></g><g mask="url(#b9c5ddabad)"><g transform="matrix(1, 0, 0, 1, 220, 142)"><g clip-path="url(#f4dc182156)"><g clip-path="url(#cbe0391be3)"><path fill="#545454" d="M 7.160156 1.085938 C 7.03125 2.253906 7.003906 3.425781 7.160156 4.59375 C 7.160156 4.59375 4.953125 4.5625 4.953125 5.070312 C 4.953125 5.578125 5.230469 14.765625 4.433594 15.683594 C 3.636719 16.601562 3.132812 16.410156 2.765625 15.921875 C 2.398438 15.429688 1.308594 15.503906 1.183594 15.746094 C 1.0625 15.992188 0.792969 17.496094 1.574219 18 C 2.664062 18.703125 5.378906 18.683594 5.625 16.050781 C 5.871094 13.417969 5.863281 11.15625 6.878906 11.15625 C 7.246094 11.15625 7.226562 12.410156 7.226562 13.820312 C 7.226562 15.230469 7.105469 15.59375 6.859375 15.898438 C 6.613281 16.207031 6.675781 19.148438 6.859375 19.148438 L 8.699219 19.148438 C 8.882812 19.148438 8.945312 16.207031 8.699219 15.898438 C 8.453125 15.59375 8.332031 15.230469 8.332031 13.820312 C 8.332031 12.410156 8.160156 11.15625 8.527344 11.15625 C 9.632812 11.15625 9.496094 13.179688 9.738281 15.8125 C 9.984375 18.445312 12.519531 18.515625 13.746094 18.085938 C 14.972656 17.65625 14.375 15.890625 14.265625 15.640625 C 14.101562 15.265625 13.378906 15.582031 12.921875 15.855469 C 12.398438 16.171875 11.878906 16.535156 11.082031 15.617188 C 10.285156 14.699219 10.214844 5.578125 10.214844 5.070312 C 10.214844 4.5625 8.203125 4.59375 8.203125 4.59375 C 8.152344 3.425781 7.984375 2.253906 8.203125 1.085938 C 7.675781 1.371094 7.402344 1.25 7.160156 1.085938 Z M 7.726562 5.308594 C 8.3125 5.308594 8.785156 5.410156 8.785156 5.546875 L 8.785156 7.191406 C 8.785156 7.328125 8.3125 7.429688 7.726562 7.429688 C 7.136719 7.429688 6.664062 7.328125 6.664062 7.191406 L 6.664062 5.546875 C 6.664062 5.410156 7.136719 5.308594 7.726562 5.308594 Z M 7.726562 5.308594 " fill-opacity="1" fill-rule="nonzero"/></g></g></g></g><g mask="url(#7567fa2b86)"><g transform="matrix(1, 0, 0, 1, 196, 219)"><g clip-path="url(#1b35e06c02)"><g clip-path="url(#cc20508421)"><path fill="#545454" d="M 1.59375 4.03125 C 20.398438 14.570312 44.210938 13.984375 62.851562 4.03125 C 64.394531 3.101562 42.488281 0.691406 32.121094 0.691406 C 13.597656 0.691406 1.257812 2.53125 1.59375 4.03125 Z M 1.59375 4.03125 " fill-opacity="1" fill-rule="nonzero"/></g></g></g></g><g mask="url(#0fb260178f)"><g transform="matrix(1, 0, 0, 1, 224, 157)"><g clip-path="url(#e1dda74f2c)"><g clip-path="url(#d5a3bea19c)"><path fill="#545454" d="M 5.867188 1.011719 C 10.792969 5.976562 1.664062 3.976562 1.339844 4.9375 L 0.847656 73.421875 " fill-opacity="1" fill-rule="nonzero"/></g></g></g></g><g mask="url(#c4d0abafc0)"><g transform="matrix(1, 0, 0, 1, 139, 142)"><g clip-path="url(#05bc615f80)"><g clip-path="url(#87b8646eeb)"><path fill="#545454" d="M 8.523438 1.085938 C 8.65625 2.253906 8.679688 3.425781 8.523438 4.59375 C 8.523438 4.59375 10.734375 4.5625 10.734375 5.070312 C 10.734375 5.578125 10.457031 14.765625 11.253906 15.683594 C 12.050781 16.601562 12.554688 16.410156 12.921875 15.921875 C 13.289062 15.429688 14.378906 15.503906 14.503906 15.746094 C 14.625 15.992188 14.894531 17.496094 14.113281 18 C 13.023438 18.703125 10.308594 18.683594 10.0625 16.050781 C 9.816406 13.417969 9.824219 11.15625 8.804688 11.15625 C 8.4375 11.15625 8.460938 12.410156 8.460938 13.820312 C 8.460938 15.230469 8.582031 15.59375 8.828125 15.898438 C 9.074219 16.207031 9.011719 19.148438 8.828125 19.148438 L 6.988281 19.148438 C 6.804688 19.148438 6.742188 16.207031 6.988281 15.898438 C 7.230469 15.59375 7.355469 15.230469 7.355469 13.820312 C 7.355469 12.410156 7.527344 11.15625 7.160156 11.15625 C 6.054688 11.15625 6.191406 13.179688 5.949219 15.8125 C 5.703125 18.445312 3.164062 18.515625 1.941406 18.085938 C 0.714844 17.65625 1.308594 15.890625 1.421875 15.640625 C 1.585938 15.265625 2.308594 15.582031 2.765625 15.855469 C 3.289062 16.171875 3.808594 16.535156 4.605469 15.617188 C 5.402344 14.699219 5.472656 5.578125 5.472656 5.070312 C 5.472656 4.5625 7.484375 4.59375 7.484375 4.59375 C 7.535156 3.425781 7.699219 2.253906 7.484375 1.085938 C 8.011719 1.371094 8.28125 1.25 8.523438 1.085938 Z M 7.960938 5.308594 C 7.375 5.308594 6.902344 5.410156 6.902344 5.546875 L 6.902344 7.191406 C 6.902344 7.328125 7.375 7.429688 7.960938 7.429688 C 8.550781 7.429688 9.023438 7.328125 9.023438 7.191406 L 9.023438 5.546875 C 9.023438 5.410156 8.550781 5.308594 7.960938 5.308594 Z M 7.960938 5.308594 " fill-opacity="1" fill-rule="nonzero"/></g></g></g></g><g mask="url(#cae2b5acde)"><g transform="matrix(1, 0, 0, 1, 197, 222)"><g clip-path="url(#33ef5baa45)"><g clip-path="url(#36568d2266)"><path fill="#545454" d="M 0.59375 0.960938 C 21.113281 10.027344 43.210938 8.214844 61.851562 0.960938 C 61.433594 3.078125 50.902344 16.074219 30.386719 16.070312 C 10.148438 16.070312 0.59375 2.429688 0.59375 0.960938 Z M 0.59375 0.960938 " fill-opacity="1" fill-rule="nonzero"/></g></g></g></g><g mask="url(#9cec668035)"><g transform="matrix(1, 0, 0, 1, 141, 157)"><g clip-path="url(#e422622f64)"><g clip-path="url(#ccc4f81c59)"><path fill="#545454" d="M 2.617188 0.769531 C -2.859375 5.734375 7.285156 3.738281 7.648438 4.699219 L 8.195312 73.179688 " fill-opacity="1" fill-rule="nonzero"/></g></g></g></g><g mask="url(#5b530622c9)"><g transform="matrix(1, 0, 0, 1, 116, 222)"><g clip-path="url(#656f52d9a0)"><g clip-path="url(#1b3c12fabf)"><path fill="#545454" d="M 0.832031 0.960938 C 21.351562 10.027344 43.449219 8.214844 62.089844 0.960938 C 61.671875 3.078125 51.140625 16.074219 30.625 16.070312 C 10.386719 16.070312 0.832031 2.429688 0.832031 0.960938 Z M 0.832031 0.960938 " fill-opacity="1" fill-rule="nonzero"/></g></g></g></g><g mask="url(#b5a466c652)"><g transform="matrix(1, 0, 0, 1, 139, 141)"><g clip-path="url(#a6bfe37798)"><path fill="#545454" d="M 7.503906 1.652344 C 7.371094 2.820312 7.347656 3.992188 7.503906 5.160156 C 7.503906 5.160156 5.292969 5.128906 5.292969 5.636719 C 5.292969 6.144531 5.570312 15.332031 4.773438 16.25 C 3.976562 17.167969 3.476562 16.976562 3.105469 16.488281 C 2.738281 15.996094 1.648438 16.070312 1.527344 16.316406 C 1.402344 16.558594 1.136719 18.0625 1.914062 18.566406 C 3.003906 19.273438 5.722656 19.253906 5.964844 16.617188 C 6.210938 13.984375 6.203125 11.722656 7.222656 11.722656 C 7.589844 11.722656 7.570312 12.976562 7.570312 14.386719 C 7.570312 15.796875 7.445312 16.160156 7.199219 16.464844 C 6.957031 16.773438 7.015625 19.714844 7.199219 19.714844 L 9.042969 19.714844 C 9.226562 19.714844 9.285156 16.773438 9.042969 16.464844 C 8.796875 16.160156 8.671875 15.796875 8.671875 14.386719 C 8.671875 12.976562 8.5 11.722656 8.867188 11.722656 C 9.972656 11.722656 9.835938 13.746094 10.082031 16.378906 C 10.324219 19.015625 12.863281 19.082031 14.085938 18.652344 C 15.3125 18.226562 14.71875 16.457031 14.609375 16.207031 C 14.441406 15.832031 13.71875 16.148438 13.265625 16.421875 C 12.738281 16.738281 12.21875 17.105469 11.421875 16.183594 C 10.628906 15.265625 10.558594 6.144531 10.558594 5.636719 C 10.558594 5.128906 8.542969 5.160156 8.542969 5.160156 C 8.492188 3.992188 8.328125 2.820312 8.542969 1.652344 C 8.015625 1.941406 7.746094 1.820312 7.503906 1.652344 Z M 8.066406 5.875 C 8.65625 5.875 9.128906 5.980469 9.128906 6.113281 L 9.128906 7.757812 C 9.128906 7.894531 8.65625 7.996094 8.066406 7.996094 C 7.480469 7.996094 7.003906 7.894531 7.003906 7.757812 L 7.003906 6.113281 C 7.003906 5.980469 7.480469 5.875 8.066406 5.875 Z M 8.066406 5.875 " fill-opacity="1" fill-rule="nonzero"/></g></g></g><g clip-path="url(#328d28a543)"><g mask="url(#934a57de4d)"><g transform="matrix(1, 0, 0, 1, 113, 156)"><g clip-path="url(#c9a320b5f9)"><g clip-path="url(#6d2fd94c7a)"><path fill="#545454" d="M 28.207031 2.296875 C 21.695312 4.769531 30.753906 6.730469 30.644531 7.738281 L 2.507812 70.175781 " fill-opacity="1" fill-rule="nonzero"/></g></g></g></g></g><g mask="url(#0b8805d463)"><g transform="matrix(1, 0, 0, 1, 190, 156)"><g clip-path="url(#8f6318c0c6)"><path fill="#545454" d="M 32.417969 1.566406 C 26.082031 4.128906 34.824219 5.929688 34.707031 6.929688 L 6.679688 69.414062 " fill-opacity="1" fill-rule="nonzero"/></g></g></g><g mask="url(#7ba12d3c5f)"><g transform="matrix(1, 0, 0, 1, 146, 156)"><g clip-path="url(#01b049dc91)"><path fill="#545454" d="M 2.808594 2.9375 C -0.210938 9.46875 7.914062 4.324219 8.566406 5.140625 L 33.121094 71.125 " fill-opacity="1" fill-rule="nonzero"/></g></g></g><g clip-path="url(#c9b3b9e0b4)"><g mask="url(#1f267200a5)"><g transform="matrix(1, 0, 0, 1, 227, 156)"><g clip-path="url(#b0218f6fdd)"><g clip-path="url(#d61821fc64)"><path fill="#545454" d="M 2.820312 2.648438 C -0.183594 9.222656 7.9375 4.0625 8.589844 4.886719 L 33.367188 71.472656 " fill-opacity="1" fill-rule="nonzero"/></g></g></g></g></g></svg>