<svg xmlns="http://www.w3.org/2000/svg" xmlns:xlink="http://www.w3.org/1999/xlink" width="500" zoomAndPan="magnify" viewBox="0 0 375 374.999991" height="500" preserveAspectRatio="xMidYMid meet" version="1.0"><defs><clipPath id="00f2e32626"><path d="M 152.421875 14.683594 L 216.171875 14.683594 L 216.171875 75.433594 L 152.421875 75.433594 Z M 152.421875 14.683594 " clip-rule="nonzero"/></clipPath><clipPath id="a9d92e1a78"><path d="M 173 108.296875 L 202 108.296875 L 202 145 L 173 145 Z M 173 108.296875 " clip-rule="nonzero"/></clipPath><clipPath id="e93015b72a"><path d="M 54.148438 148 L 177 148 L 177 301 L 54.148438 301 Z M 54.148438 148 " clip-rule="nonzero"/></clipPath></defs><g clip-path="url(#00f2e32626)"><path fill="#a6a6a6" d="M 184.464844 14.894531 L 194.316406 34.859375 L 216.347656 38.0625 L 200.398438 53.613281 L 204.175781 75.554688 L 184.464844 65.195312 L 164.742188 75.554688 L 168.507812 53.613281 L 152.574219 38.0625 L 174.605469 34.859375 Z M 184.464844 14.894531 " fill-opacity="1" fill-rule="nonzero"/><path fill="#a6a6a6" d="M 184.3125 14.703125 L 194.175781 34.667969 L 216.207031 37.871094 L 200.261719 53.421875 L 204.023438 75.363281 L 184.3125 65.003906 L 164.605469 75.363281 L 168.367188 53.421875 L 152.421875 37.871094 L 174.453125 34.667969 Z M 184.3125 14.703125 " fill-opacity="1" fill-rule="nonzero"/><path fill="#a6a6a6" d="M 184.3125 14.703125 L 194.175781 34.667969 L 216.207031 37.871094 L 200.261719 53.421875 L 204.023438 75.363281 L 184.3125 65.003906 L 164.605469 75.363281 L 168.367188 53.421875 L 152.421875 37.871094 L 174.453125 34.667969 Z M 184.3125 14.703125 " fill-opacity="1" fill-rule="nonzero"/><path fill="#a6a6a6" d="M 184.3125 14.703125 L 194.175781 34.667969 L 216.207031 37.871094 L 200.261719 53.421875 L 204.023438 75.363281 L 184.3125 65.003906 L 164.605469 75.363281 L 168.367188 53.421875 L 152.421875 37.871094 L 174.453125 34.667969 Z M 184.3125 14.703125 " fill-opacity="1" fill-rule="nonzero"/></g><path fill="#ffffff" d="M 292.144531 363.15625 L 82.832031 363.15625 C 78.710938 363.15625 75.03125 365.921875 73.878906 369.878906 L 72.394531 374.992188 L 302.582031 374.992188 L 301.097656 369.878906 C 299.945312 365.921875 296.265625 363.15625 292.144531 363.15625 Z M 292.144531 363.15625 " fill-opacity="1" fill-rule="nonzero"/><path fill="#ffffff" d="M 180.46875 148.988281 L 194.507812 148.988281 L 194.507812 156.335938 L 180.46875 156.335938 Z M 180.46875 148.988281 " fill-opacity="1" fill-rule="nonzero"/><g clip-path="url(#a9d92e1a78)"><path fill="#ffffff" d="M 195.71875 144.613281 C 199.207031 140.78125 201.289062 134.847656 201.289062 128.496094 C 201.289062 117.359375 195.097656 108.296875 187.488281 108.296875 C 179.878906 108.296875 173.6875 117.359375 173.6875 128.496094 C 173.6875 134.84375 175.765625 140.777344 179.253906 144.613281 Z M 195.71875 144.613281 " fill-opacity="1" fill-rule="nonzero"/></g><path fill="#ffffff" d="M 180.46875 160.707031 L 194.507812 160.707031 L 194.507812 329.804688 L 180.46875 329.804688 Z M 180.46875 160.707031 " fill-opacity="1" fill-rule="nonzero"/><path fill="#ffffff" d="M 129.484375 347.011719 C 125.429688 347.011719 121.804688 349.730469 120.667969 353.625 L 119.164062 358.785156 L 255.8125 358.785156 L 254.308594 353.625 C 253.171875 349.730469 249.546875 347.011719 245.492188 347.011719 Z M 129.484375 347.011719 " fill-opacity="1" fill-rule="nonzero"/><path fill="#ffffff" d="M 178.285156 334.179688 L 153.703125 334.179688 L 153.703125 342.640625 L 221.273438 342.640625 L 221.273438 334.179688 Z M 178.285156 334.179688 " fill-opacity="1" fill-rule="nonzero"/><g clip-path="url(#e93015b72a)"><path fill="#ffffff" d="M 147.496094 271.75 L 136.84375 271.75 L 113.621094 180.839844 C 115.535156 181.179688 117.453125 181.375 119.335938 181.375 C 128.21875 181.375 135.054688 178.726562 141.671875 176.164062 C 146.925781 174.128906 151.890625 172.207031 157.179688 172.035156 C 164.964844 171.773438 172.035156 175.226562 176.09375 177.71875 L 176.09375 160.023438 C 172.855469 158.925781 163.101562 156.019531 154.375 157.511719 C 149.824219 158.289062 145.417969 160.65625 140.75 163.164062 C 134.238281 166.660156 127.507812 170.273438 119.335938 170.273438 C 109.902344 170.273438 104.671875 166.976562 102.101562 164.574219 C 101.214844 165.574219 100.179688 166.457031 98.988281 167.140625 C 97.941406 167.742188 96.605469 167.378906 96.003906 166.332031 C 95.402344 165.285156 95.769531 163.949219 96.816406 163.347656 C 99.335938 161.902344 100.902344 159.203125 100.902344 156.304688 C 100.902344 151.832031 97.265625 148.195312 92.792969 148.195312 C 88.324219 148.195312 84.683594 151.832031 84.683594 156.304688 C 84.683594 160.597656 87.183594 165.113281 91.128906 169.113281 L 64.910156 271.75 L 54.257812 271.75 C 55.96875 287.664062 76.226562 300.265625 100.875 300.265625 C 125.527344 300.265625 145.785156 287.664062 147.496094 271.75 Z M 132.304688 271.75 L 103.0625 271.75 L 103.0625 177.40625 C 104.914062 178.28125 106.824219 179.03125 108.777344 179.636719 Z M 98.691406 175.0625 L 98.691406 271.75 L 69.449219 271.75 L 94.835938 172.371094 C 96.054688 173.316406 97.332031 174.226562 98.691406 175.0625 Z M 98.691406 175.0625 " fill-opacity="1" fill-rule="nonzero"/></g><path fill="#ffffff" d="M 310.066406 271.75 L 283.847656 169.113281 C 287.789062 165.117188 290.289062 160.601562 290.289062 156.304688 C 290.289062 151.832031 286.652344 148.195312 282.179688 148.195312 C 277.707031 148.195312 274.070312 151.832031 274.070312 156.304688 C 274.070312 159.207031 275.636719 161.90625 278.160156 163.347656 C 279.207031 163.949219 279.570312 165.285156 278.96875 166.332031 C 278.371094 167.378906 277.035156 167.742188 275.984375 167.144531 C 274.792969 166.460938 273.757812 165.578125 272.871094 164.574219 C 270.300781 166.976562 265.070312 170.273438 255.636719 170.273438 C 247.46875 170.273438 240.738281 166.660156 234.222656 163.164062 C 229.558594 160.660156 225.148438 158.292969 220.601562 157.515625 C 211.875 156.019531 202.121094 158.925781 198.878906 160.027344 L 198.878906 177.726562 C 202.9375 175.242188 210.007812 171.796875 217.796875 172.035156 C 223.085938 172.210938 228.046875 174.128906 233.304688 176.164062 C 239.917969 178.726562 246.757812 181.375 255.636719 181.375 C 257.523438 181.375 259.4375 181.179688 261.351562 180.839844 L 238.128906 271.75 L 227.476562 271.75 C 229.191406 287.664062 249.445312 300.265625 274.097656 300.265625 C 298.75 300.265625 319.003906 287.664062 320.714844 271.75 Z M 280.140625 172.371094 L 305.527344 271.75 L 276.285156 271.75 L 276.285156 175.0625 C 277.644531 174.226562 278.921875 173.316406 280.140625 172.371094 Z M 271.910156 177.40625 L 271.910156 271.75 L 242.667969 271.75 L 266.195312 179.640625 C 268.148438 179.03125 270.0625 178.28125 271.910156 177.40625 Z M 271.910156 177.40625 " fill-opacity="1" fill-rule="nonzero"/></svg>