<svg xmlns="http://www.w3.org/2000/svg" xmlns:xlink="http://www.w3.org/1999/xlink" width="500" zoomAndPan="magnify" viewBox="0 0 375 374.999991" height="500" preserveAspectRatio="xMidYMid meet" version="1.0"><defs><clipPath id="d37254099e"><path d="M 42.796875 14.445312 L 101.296875 14.445312 L 101.296875 69.945312 L 42.796875 69.945312 Z M 42.796875 14.445312 " clip-rule="nonzero"/></clipPath><clipPath id="19b48494a3"><path d="M 42.796875 14.445312 L 101 14.445312 L 101 69.945312 L 42.796875 69.945312 Z M 42.796875 14.445312 " clip-rule="nonzero"/></clipPath><clipPath id="4a8e1ddc01"><path d="M 48.148438 112.15625 L 327 112.15625 L 327 360.40625 L 48.148438 360.40625 Z M 48.148438 112.15625 " clip-rule="nonzero"/></clipPath><clipPath id="058c881114"><path d="M 120.375 14.445312 L 178.875 14.445312 L 178.875 69.945312 L 120.375 69.945312 Z M 120.375 14.445312 " clip-rule="nonzero"/></clipPath><clipPath id="65d00f6d4c"><path d="M 197.144531 14.445312 L 255.644531 14.445312 L 255.644531 69.945312 L 197.144531 69.945312 Z M 197.144531 14.445312 " clip-rule="nonzero"/></clipPath><clipPath id="4053ce504d"><path d="M 274 14.445312 L 332.417969 14.445312 L 332.417969 69.945312 L 274 69.945312 Z M 274 14.445312 " clip-rule="nonzero"/></clipPath><clipPath id="4409716b70"><path d="M 273.917969 14.445312 L 332.417969 14.445312 L 332.417969 69.945312 L 273.917969 69.945312 Z M 273.917969 14.445312 " clip-rule="nonzero"/></clipPath></defs><g clip-path="url(#d37254099e)"><path fill="#a6a6a6" d="M 72.011719 14.640625 L 80.992188 32.839844 L 101.074219 35.757812 L 86.539062 49.9375 L 89.980469 69.9375 L 72.011719 60.496094 L 54.03125 69.9375 L 57.464844 49.9375 L 42.9375 35.757812 L 63.023438 32.839844 Z M 72.011719 14.640625 " fill-opacity="1" fill-rule="nonzero"/></g><g clip-path="url(#19b48494a3)"><path fill="#a6a6a6" d="M 71.875 14.464844 L 80.863281 32.664062 L 100.949219 35.585938 L 86.410156 49.761719 L 89.839844 69.765625 L 71.875 60.320312 L 53.90625 69.765625 L 57.335938 49.761719 L 42.796875 35.585938 L 62.882812 32.664062 Z M 71.875 14.464844 " fill-opacity="1" fill-rule="nonzero"/><path fill="#a6a6a6" d="M 71.875 14.464844 L 80.863281 32.664062 L 100.949219 35.585938 L 86.410156 49.761719 L 89.839844 69.765625 L 71.875 60.320312 L 53.90625 69.765625 L 57.335938 49.761719 L 42.796875 35.585938 L 62.882812 32.664062 Z M 71.875 14.464844 " fill-opacity="1" fill-rule="nonzero"/><path fill="#a6a6a6" d="M 71.875 14.464844 L 80.863281 32.664062 L 100.949219 35.585938 L 86.410156 49.761719 L 89.839844 69.765625 L 71.875 60.320312 L 53.90625 69.765625 L 57.335938 49.761719 L 42.796875 35.585938 L 62.882812 32.664062 Z M 71.875 14.464844 " fill-opacity="1" fill-rule="nonzero"/></g><g clip-path="url(#4a8e1ddc01)"><path fill="#a6a6a6" d="M 310.386719 252.085938 C 310.507812 251.703125 310.824219 251.417969 311.207031 251.351562 C 313.90625 250.910156 316.257812 249.84375 318.261719 248.152344 C 319.855469 246.808594 321.347656 244.808594 322.746094 242.148438 C 325.207031 237.460938 326.5625 232.421875 326.8125 227.027344 C 326.835938 226.652344 326.695312 226.578125 326.398438 226.8125 C 321.253906 230.90625 316.484375 235.472656 312.089844 240.511719 C 311.632812 241.035156 311.433594 240.949219 311.496094 240.261719 L 312.574219 228.160156 C 312.605469 227.808594 312.832031 227.5 313.160156 227.359375 C 316.589844 225.898438 319.074219 223.667969 320.609375 220.660156 C 321.800781 218.332031 322.582031 215.253906 322.953125 211.414062 C 323.269531 208.140625 323.042969 204.835938 322.269531 201.503906 C 322.152344 200.996094 321.9375 200.949219 321.617188 201.351562 C 317.800781 206.21875 314.324219 211.351562 311.1875 216.75 C 311.082031 216.925781 311.011719 216.914062 310.980469 216.714844 L 309.066406 205.761719 C 308.964844 205.175781 309.128906 204.585938 309.511719 204.164062 C 314.039062 199.144531 316.003906 193.414062 315.40625 186.972656 C 315.082031 183.476562 314.214844 179.949219 312.816406 176.394531 C 312.71875 176.144531 312.597656 176.136719 312.460938 176.363281 C 309.371094 181.511719 306.792969 186.8125 304.722656 192.269531 C 304.617188 192.546875 304.503906 192.546875 304.378906 192.28125 L 299.984375 182.761719 C 299.683594 182.113281 299.691406 181.46875 300 180.820312 C 302.234375 176.101562 303.078125 171.359375 302.527344 166.601562 C 301.976562 161.855469 300.304688 157.476562 297.507812 153.460938 C 297.214844 153.042969 296.964844 153.0625 296.75 153.527344 C 296.332031 154.441406 296.003906 155.527344 295.757812 156.78125 C 294.941406 161.019531 294.03125 165.433594 293.039062 170.015625 C 292.96875 170.332031 292.828125 170.363281 292.625 170.109375 L 285.738281 161.441406 C 285.300781 160.886719 285.167969 160.292969 285.339844 159.652344 C 287.265625 152.300781 286.484375 145.195312 283 138.339844 C 282.035156 136.441406 280.792969 134.746094 279.277344 133.25 C 279.066406 133.042969 278.925781 133.082031 278.855469 133.371094 C 277.546875 138.777344 276.871094 144.265625 276.820312 149.832031 C 276.820312 150.046875 276.742188 150.074219 276.59375 149.917969 L 268.617188 141.851562 C 268.085938 141.3125 267.875 140.664062 267.984375 139.902344 C 268.253906 138.019531 267.984375 135.964844 267.183594 133.742188 C 264.554688 126.464844 260.199219 120.652344 254.101562 116.300781 C 253.316406 115.738281 252.949219 115.941406 252.996094 116.90625 C 253.265625 122.433594 254.390625 127.703125 256.367188 132.710938 C 256.527344 133.117188 256.4375 133.183594 256.09375 132.910156 C 252.910156 130.390625 249.699219 127.957031 246.457031 125.613281 C 242.476562 122.738281 239.082031 120.578125 236.269531 119.132812 C 230.058594 115.9375 223.457031 113.757812 216.464844 112.59375 C 215.222656 112.386719 213.96875 112.3125 212.699219 112.371094 C 212.445312 112.386719 212.414062 112.480469 212.597656 112.648438 C 215.886719 115.757812 219.324219 118.652344 222.917969 121.332031 C 227.679688 124.894531 231.15625 127.199219 233.347656 128.25 C 237.078125 130.035156 241.332031 131.105469 246.097656 131.453125 C 247.03125 131.523438 247.835938 131.832031 248.519531 132.371094 L 254.511719 137.179688 C 255.707031 138.136719 255.546875 138.507812 254.023438 138.289062 C 247.429688 137.347656 241.847656 138.96875 237.28125 143.152344 C 237.257812 143.171875 237.242188 143.195312 237.230469 143.222656 C 237.179688 143.328125 237.226562 143.453125 237.332031 143.503906 C 246.003906 147.824219 255.082031 148.421875 264.5625 145.300781 C 264.984375 145.160156 265.4375 145.257812 265.742188 145.558594 L 273.421875 153.105469 C 274.066406 153.734375 273.953125 153.929688 273.078125 153.691406 C 272.277344 153.46875 271.511719 153.269531 270.773438 153.089844 C 269.980469 152.894531 269.199219 152.796875 268.421875 152.796875 C 264.019531 152.796875 259.476562 153.378906 254.796875 154.550781 C 254.527344 154.617188 254.503906 154.734375 254.722656 154.902344 C 263 161.078125 272.128906 164.050781 282.109375 163.824219 C 282.308594 163.820312 282.5 163.902344 282.632812 164.050781 C 285.214844 166.910156 287.457031 170.023438 289.367188 173.386719 C 289.464844 173.566406 289.417969 173.617188 289.222656 173.542969 C 282.851562 171.144531 276.261719 169.71875 269.441406 169.265625 C 269.0625 169.242188 268.988281 169.378906 269.21875 169.679688 C 270.652344 171.5625 272.230469 173.371094 273.957031 175.109375 C 279.347656 180.558594 286.496094 183.679688 295.402344 184.476562 C 295.632812 184.492188 295.84375 184.628906 295.957031 184.832031 C 297.890625 188.34375 299.5625 191.875 300.964844 195.429688 C 301.039062 195.617188 300.984375 195.65625 300.808594 195.546875 C 297.371094 193.433594 293.707031 191.847656 289.816406 190.789062 C 287.460938 190.148438 285.136719 189.527344 282.847656 188.925781 C 282.285156 188.777344 282.148438 188.953125 282.445312 189.453125 C 283.847656 191.8125 285.402344 194.050781 287.117188 196.167969 C 289.136719 198.664062 291.082031 200.546875 292.953125 201.8125 C 296.183594 203.988281 299.972656 205.347656 304.320312 205.890625 C 304.761719 205.945312 305.109375 206.261719 305.179688 206.667969 L 306.976562 217.316406 C 307.039062 217.6875 306.925781 217.75 306.632812 217.496094 C 302.109375 213.597656 296.988281 210.78125 291.269531 209.050781 C 291.242188 209.042969 291.210938 209.039062 291.179688 209.046875 C 291.070312 209.0625 290.996094 209.164062 291.011719 209.269531 C 292.183594 217.308594 296.417969 223.042969 303.71875 226.472656 C 304.980469 227.066406 306.382812 227.441406 307.933594 227.597656 C 308.109375 227.613281 308.242188 227.769531 308.226562 227.949219 L 307.511719 239.554688 C 307.472656 240.289062 307.234375 240.359375 306.804688 239.765625 C 303.683594 235.441406 299.761719 231.671875 295.023438 228.457031 C 294.980469 228.429688 294.929688 228.410156 294.878906 228.40625 C 294.710938 228.394531 294.570312 228.519531 294.554688 228.683594 C 294.371094 230.988281 294.347656 233.386719 294.480469 235.878906 C 294.597656 238.109375 295.097656 240.082031 295.984375 241.800781 C 298.132812 245.96875 301.242188 248.976562 305.3125 250.828125 C 305.726562 251.015625 305.953125 251.476562 305.84375 251.925781 C 304.871094 255.871094 303.648438 259.710938 302.171875 263.433594 C 301.9375 264.027344 301.746094 264.011719 301.605469 263.394531 C 300.789062 259.851562 299.4375 256.359375 297.550781 252.925781 C 296.347656 250.730469 295.105469 249.03125 293.828125 247.84375 C 293.804688 247.820312 293.777344 247.808594 293.746094 247.796875 C 293.640625 247.765625 293.527344 247.828125 293.492188 247.933594 C 292.402344 251.242188 291.773438 254.644531 291.605469 258.136719 C 291.328125 263.941406 293.179688 268.917969 297.167969 273.066406 C 297.394531 273.304688 297.445312 273.648438 297.304688 273.921875 L 292.179688 283.425781 C 292.023438 283.710938 291.921875 283.691406 291.871094 283.367188 C 290.964844 277.859375 289.183594 272.789062 286.527344 268.164062 C 286.179688 267.558594 285.867188 267.578125 285.589844 268.214844 C 283.976562 272 282.984375 276.113281 282.605469 280.558594 C 282.261719 284.675781 283.121094 288.671875 285.195312 292.558594 C 285.609375 293.332031 285.554688 294.027344 285.03125 294.640625 L 277.691406 303.292969 C 277.527344 303.480469 277.449219 303.445312 277.453125 303.191406 C 277.515625 297.871094 276.808594 292.515625 275.328125 287.117188 C 275.316406 287.078125 275.296875 287.039062 275.265625 287.007812 C 275.164062 286.894531 274.992188 286.886719 274.882812 286.984375 C 273.820312 287.941406 272.996094 288.925781 272.40625 289.929688 C 270.492188 293.191406 269.023438 296.640625 268.003906 300.28125 C 267.050781 303.671875 266.988281 307.070312 267.820312 310.488281 C 267.863281 310.675781 267.808594 310.875 267.667969 311.007812 C 264.5 313.949219 261.21875 316.585938 257.820312 318.917969 C 257.476562 319.152344 257.375 319.074219 257.519531 318.683594 C 258.351562 316.402344 258.808594 314.191406 258.890625 312.050781 C 259.007812 308.851562 258.875 305.664062 258.492188 302.496094 C 258.421875 301.941406 258.175781 301.84375 257.75 302.199219 C 251.941406 307.085938 248.261719 313.261719 246.714844 320.726562 C 246.546875 321.53125 246.441406 322.566406 246.394531 323.832031 C 246.386719 324.125 246.226562 324.390625 245.976562 324.523438 L 235.910156 330.070312 C 235.476562 330.308594 235.386719 330.210938 235.644531 329.789062 C 238.730469 324.734375 240.269531 319.25 240.269531 313.335938 C 240.269531 313.3125 240.269531 313.289062 240.261719 313.265625 C 240.222656 313.132812 240.089844 313.0625 239.960938 313.097656 C 238.628906 313.476562 237.402344 314.082031 236.289062 314.921875 C 230.859375 318.992188 226.589844 324.195312 223.480469 330.53125 C 223.339844 330.824219 223.09375 331.050781 222.796875 331.167969 C 212.273438 335.359375 201.546875 338.0625 190.617188 339.273438 C 188.371094 339.523438 186.125 339.496094 183.878906 339.191406 C 173.113281 337.71875 162.667969 335.0625 152.546875 331.214844 C 151.867188 330.957031 151.359375 330.507812 151.019531 329.875 C 148.578125 325.351562 145.570312 321.25 141.996094 317.566406 C 140.117188 315.628906 137.890625 314.152344 135.320312 313.132812 C 135.226562 313.097656 135.125 313.082031 135.027344 313.089844 C 134.683594 313.125 134.425781 313.429688 134.460938 313.773438 C 134.992188 319.664062 136.621094 325.003906 139.34375 329.796875 C 139.574219 330.207031 139.5 330.273438 139.125 329.992188 C 136.273438 327.878906 133.066406 325.945312 129.507812 324.195312 C 129.316406 324.097656 129.195312 323.90625 129.1875 323.699219 C 129.140625 322.179688 128.898438 320.71875 128.460938 319.300781 C 126.914062 314.363281 124.503906 309.890625 121.234375 305.886719 C 120 304.375 118.609375 303.125 117.066406 302.128906 C 117.003906 302.089844 116.929688 302.0625 116.851562 302.058594 C 116.601562 302.039062 116.382812 302.226562 116.363281 302.480469 C 116.121094 305.605469 116.09375 308.628906 116.28125 311.558594 C 116.433594 313.953125 116.976562 316.257812 117.910156 318.472656 C 118.179688 319.105469 118.046875 319.207031 117.515625 318.789062 L 107.949219 311.140625 C 107.808594 311.027344 107.75 310.832031 107.804688 310.644531 C 108.445312 308.355469 108.675781 306.519531 108.5 305.140625 C 107.652344 298.515625 105.082031 292.566406 100.796875 287.292969 C 100.234375 286.605469 99.859375 286.691406 99.660156 287.554688 C 98.488281 292.664062 97.972656 297.917969 98.117188 303.308594 C 98.125 303.59375 98.03125 303.628906 97.851562 303.421875 L 89.570312 294.160156 C 89.324219 293.878906 89.289062 293.457031 89.488281 293.109375 C 92.15625 288.445312 93.042969 283.605469 92.140625 278.601562 C 91.773438 276.550781 91.242188 274.613281 90.546875 272.796875 C 89.824219 270.894531 88.835938 269.128906 87.574219 267.5 C 87.554688 267.472656 87.53125 267.457031 87.507812 267.445312 C 87.40625 267.394531 87.289062 267.433594 87.242188 267.53125 C 84.964844 272.210938 83.429688 277.515625 82.640625 283.4375 C 82.570312 283.96875 82.410156 284.003906 82.160156 283.535156 L 76.980469 273.925781 C 76.890625 273.757812 76.917969 273.550781 77.042969 273.390625 C 78.945312 271.011719 80.277344 269.199219 81.039062 267.957031 C 82.21875 266.019531 82.914062 263.679688 83.113281 260.929688 C 83.429688 256.574219 82.835938 252.285156 81.328125 248.070312 C 81.152344 247.582031 80.90625 247.542969 80.59375 247.964844 C 77.066406 252.652344 74.511719 257.761719 72.933594 263.285156 C 72.808594 263.730469 72.664062 263.734375 72.507812 263.300781 C 71.058594 259.363281 69.875 255.445312 68.964844 251.550781 C 68.871094 251.148438 69.0625 250.730469 69.4375 250.542969 C 73.820312 248.339844 77.023438 245.34375 79.046875 241.566406 C 79.839844 240.078125 80.296875 238.492188 80.421875 236.808594 C 80.605469 234.199219 80.667969 231.441406 80.597656 228.53125 C 80.589844 228.207031 80.453125 228.136719 80.191406 228.332031 C 75.507812 231.707031 71.390625 235.742188 67.832031 240.4375 C 67.695312 240.613281 67.617188 240.597656 67.605469 240.375 L 66.855469 228.023438 C 66.839844 227.773438 67.015625 227.542969 67.273438 227.484375 C 77.066406 225.074219 82.738281 218.996094 84.28125 209.253906 C 84.289062 209.226562 84.285156 209.195312 84.273438 209.167969 C 84.242188 209.066406 84.132812 209.007812 84.03125 209.039062 C 78.433594 210.785156 73.394531 213.402344 68.90625 216.890625 C 68.492188 217.210938 68.320312 217.109375 68.382812 216.59375 C 68.785156 213.113281 69.425781 209.671875 70.304688 206.273438 C 70.402344 205.890625 70.746094 205.625 71.140625 205.617188 C 73.617188 205.5625 75.964844 204.957031 78.1875 203.792969 C 84.472656 200.484375 89.265625 195.667969 92.5625 189.347656 C 92.710938 189.0625 92.625 188.953125 92.3125 189.015625 C 86.121094 190.195312 80.132812 192.359375 74.34375 195.496094 C 73.867188 195.757812 73.722656 195.628906 73.90625 195.121094 C 75.117188 191.757812 76.652344 188.335938 78.511719 184.851562 C 78.625 184.636719 78.839844 184.492188 79.085938 184.46875 C 87.730469 183.667969 94.667969 180.632812 99.890625 175.367188 C 101.695312 173.546875 103.367188 171.613281 104.90625 169.5625 C 105.078125 169.332031 105.019531 169.230469 104.738281 169.253906 C 100.320312 169.65625 95.949219 170.355469 91.625 171.355469 C 89.746094 171.789062 87.953125 172.449219 86.242188 173.335938 C 85.519531 173.707031 85.359375 173.539062 85.757812 172.832031 C 87.472656 169.761719 89.570312 166.835938 92.039062 164.046875 C 92.167969 163.902344 92.359375 163.816406 92.5625 163.820312 C 102.347656 164.074219 111.058594 161.109375 118.699219 154.933594 C 119.1875 154.539062 119.125 154.28125 118.511719 154.15625 C 117.222656 153.894531 115.851562 153.671875 114.398438 153.484375 C 114.335938 153.476562 113.132812 153.289062 110.789062 152.917969 C 107.511719 152.40625 104.253906 152.585938 101.011719 153.460938 C 100.8125 153.511719 100.78125 153.464844 100.914062 153.316406 C 103.609375 150.292969 106.578125 147.574219 109.816406 145.152344 C 109.976562 145.035156 110.183594 145 110.367188 145.066406 C 119.023438 148.007812 127.726562 147.46875 136.480469 143.441406 C 136.511719 143.429688 136.542969 143.40625 136.566406 143.382812 C 136.710938 143.257812 136.71875 143.035156 136.59375 142.894531 C 132.753906 138.789062 128.09375 137.117188 122.605469 137.886719 C 121.605469 138.027344 120.613281 138.050781 119.628906 137.949219 C 119.417969 137.929688 119.402344 137.851562 119.570312 137.714844 C 122.253906 135.644531 125.015625 133.683594 127.851562 131.839844 C 128.667969 131.308594 129.558594 130.996094 130.53125 130.902344 C 132.011719 130.75 133.503906 130.632812 134.992188 130.542969 C 137.046875 130.421875 139.488281 129.570312 142.320312 127.992188 C 146.601562 125.609375 150.601562 122.824219 154.328125 119.640625 C 156.972656 117.375 159.734375 115.027344 162.621094 112.601562 C 162.929688 112.347656 162.886719 112.214844 162.484375 112.214844 C 160.539062 112.199219 158.894531 112.324219 157.542969 112.582031 C 147.125 114.601562 137.664062 118.757812 129.15625 125.050781 C 125.363281 127.859375 121.605469 130.707031 117.878906 133.601562 C 117.71875 133.730469 117.679688 133.699219 117.757812 133.511719 C 120.007812 128.25 121.382812 122.523438 121.882812 116.335938 C 121.921875 115.910156 121.757812 115.816406 121.402344 116.054688 C 114.839844 120.398438 110.121094 126.378906 107.25 133.992188 C 106.585938 135.753906 106.417969 138 106.746094 140.726562 C 106.769531 140.929688 106.703125 141.128906 106.5625 141.265625 L 98.039062 149.695312 C 97.785156 149.941406 97.667969 149.886719 97.675781 149.53125 C 97.78125 143.894531 97.242188 138.773438 96.058594 134.171875 C 95.863281 133.414062 95.527344 133.347656 95.054688 133.972656 C 89.507812 141.28125 87.640625 149.769531 89.449219 159.441406 C 89.570312 160.113281 89.410156 160.703125 88.96875 161.21875 C 86.632812 163.90625 84.328125 166.964844 82.058594 170.398438 C 81.78125 170.8125 81.601562 170.769531 81.515625 170.277344 L 78.617188 154.066406 C 78.457031 153.148438 78.101562 153.074219 77.558594 153.839844 C 71.863281 161.871094 70.90625 170.765625 74.679688 180.527344 C 75.039062 181.460938 75.011719 182.375 74.59375 183.269531 L 70.289062 192.449219 C 70.121094 192.800781 69.972656 192.792969 69.84375 192.421875 C 67.941406 187.003906 65.359375 181.9375 62.101562 177.226562 C 61.980469 177.058594 61.882812 177.074219 61.804688 177.269531 C 60.667969 180.230469 59.988281 183.570312 59.765625 187.28125 C 59.378906 193.8125 61.214844 199.316406 65.277344 203.800781 C 65.855469 204.4375 66.074219 205.203125 65.921875 206.09375 L 64.28125 215.699219 C 64.15625 216.421875 63.90625 216.472656 63.519531 215.855469 C 60.382812 210.746094 56.886719 205.859375 53.03125 201.199219 C 52.894531 201.035156 52.804688 201.058594 52.765625 201.261719 C 51.339844 208.152344 52.164062 214.738281 55.242188 221.027344 C 56.652344 223.902344 58.96875 225.957031 62.199219 227.191406 C 62.425781 227.273438 62.582031 227.492188 62.597656 227.742188 L 63.230469 240.542969 C 63.269531 241.308594 63.0625 241.382812 62.617188 240.769531 C 58.703125 235.351562 54.039062 230.597656 48.628906 226.507812 C 48.308594 226.261719 48.152344 226.339844 48.164062 226.746094 C 48.308594 232.0625 49.5 236.996094 51.738281 241.546875 C 53.203125 244.523438 55.128906 246.945312 57.515625 248.8125 C 58.394531 249.492188 59.359375 250.023438 60.414062 250.40625 C 61.457031 250.78125 62.527344 251.066406 63.621094 251.261719 C 64.023438 251.332031 64.355469 251.621094 64.472656 252.003906 L 67.921875 263.371094 C 68.082031 263.886719 67.933594 263.992188 67.488281 263.675781 C 63.589844 260.941406 59.667969 258.34375 55.730469 255.890625 C 53.855469 254.71875 52.285156 253.890625 51.015625 253.414062 C 50.816406 253.335938 50.734375 253.402344 50.773438 253.613281 C 52.316406 261.839844 56.453125 268.179688 63.183594 272.628906 C 64.710938 273.636719 66.175781 274.367188 67.585938 274.824219 C 69.183594 275.339844 70.820312 275.621094 72.492188 275.667969 C 72.765625 275.679688 73.007812 275.832031 73.136719 276.0625 L 78.578125 285.875 C 78.890625 286.429688 78.757812 286.574219 78.179688 286.300781 C 72.238281 283.503906 65.976562 281.035156 59.386719 278.890625 C 59.128906 278.808594 59.058594 278.886719 59.164062 279.136719 C 60.929688 283.152344 63.308594 286.609375 66.304688 289.511719 C 71.261719 294.304688 77.46875 296.414062 84.925781 295.835938 C 85.203125 295.816406 85.46875 295.921875 85.640625 296.125 L 94.527344 306.25 C 94.65625 306.398438 94.703125 306.574219 94.640625 306.664062 C 94.578125 306.746094 94.453125 306.75 94.261719 306.675781 C 90.53125 305.125 86.660156 304.082031 82.660156 303.539062 C 79.796875 303.152344 76.933594 302.769531 74.070312 302.398438 C 73.863281 302.371094 73.816406 302.441406 73.933594 302.613281 C 75.828125 305.328125 78.253906 307.804688 81.203125 310.035156 C 85.492188 313.28125 90.199219 315.191406 95.332031 315.773438 C 98.382812 316.117188 101.296875 315.734375 104.066406 314.628906 C 104.375 314.503906 104.71875 314.539062 104.996094 314.722656 C 108.53125 317.074219 111.910156 319.621094 115.136719 322.351562 C 115.949219 323.035156 115.84375 323.242188 114.816406 322.972656 C 113.164062 322.53125 111.480469 322.382812 109.777344 322.527344 C 105.5625 322.878906 101.121094 323.507812 96.449219 324.414062 C 96.164062 324.46875 96.128906 324.589844 96.355469 324.777344 C 99.015625 326.964844 101.84375 328.722656 104.835938 330.054688 C 108.144531 331.53125 111.332031 332.296875 114.398438 332.351562 C 118.976562 332.433594 123.246094 331.105469 127.210938 328.363281 C 127.375 328.25 127.582031 328.230469 127.753906 328.3125 C 131.382812 329.984375 134.863281 331.832031 138.195312 333.859375 C 139.035156 334.371094 138.964844 334.671875 137.988281 334.761719 C 132.144531 335.308594 126.601562 336.855469 121.355469 339.40625 C 120.886719 339.636719 120.886719 339.867188 121.355469 340.089844 C 126.257812 342.441406 131.433594 343.664062 136.878906 343.746094 C 142.351562 343.824219 146.964844 342.183594 150.722656 338.824219 C 151.121094 338.46875 151.675781 338.347656 152.195312 338.5 C 161.3125 341.207031 170.117188 343.351562 178.609375 344.925781 C 179.742188 345.140625 179.746094 345.367188 178.621094 345.613281 C 169.636719 347.589844 162.203125 352.273438 156.320312 359.664062 C 155.851562 360.253906 155.992188 360.503906 156.742188 360.40625 C 162.40625 359.707031 167.574219 358.261719 172.238281 356.074219 C 177.320312 353.6875 182.167969 350.832031 186.785156 347.496094 C 186.941406 347.382812 187.152344 347.382812 187.308594 347.496094 C 195.109375 353.078125 203.644531 357.105469 212.917969 359.582031 C 214.144531 359.910156 215.484375 360.101562 216.945312 360.160156 C 217.40625 360.175781 217.496094 360 217.21875 359.636719 C 213.699219 354.9375 209.246094 351.191406 203.859375 348.394531 C 201.570312 347.207031 199.144531 346.351562 196.589844 345.835938 C 195.148438 345.546875 195.152344 345.285156 196.609375 345.050781 C 205.6875 343.59375 214.660156 341.308594 223.535156 338.195312 C 223.710938 338.128906 223.914062 338.175781 224.054688 338.3125 C 227.839844 342.050781 232.320312 343.894531 237.5 343.847656 C 243.46875 343.796875 248.960938 342.371094 253.96875 339.566406 C 254.523438 339.257812 254.507812 338.976562 253.925781 338.722656 C 248.300781 336.21875 242.488281 334.847656 236.484375 334.617188 C 235.824219 334.585938 235.792969 334.429688 236.390625 334.140625 L 248.128906 328.445312 C 248.417969 328.308594 248.757812 328.328125 249.015625 328.503906 C 252.359375 330.753906 255.925781 331.992188 259.71875 332.226562 C 262.925781 332.425781 266.304688 331.761719 269.855469 330.226562 C 272.984375 328.878906 275.988281 327.0625 278.871094 324.777344 C 279.144531 324.5625 279.109375 324.410156 278.773438 324.320312 C 272.402344 322.65625 266.222656 322.097656 260.226562 322.660156 C 260.003906 322.679688 259.984375 322.628906 260.160156 322.496094 L 270.628906 314.71875 C 270.777344 314.605469 270.988281 314.570312 271.191406 314.621094 C 279.421875 316.742188 286.960938 315.265625 293.804688 310.1875 C 296.71875 308.027344 299.105469 305.542969 300.964844 302.734375 C 301.078125 302.558594 301.03125 302.480469 300.820312 302.5 C 297.777344 302.824219 294.746094 303.191406 291.71875 303.609375 C 288.15625 304.097656 284.710938 305.023438 281.378906 306.386719 C 280.730469 306.65625 280.617188 306.507812 281.039062 305.949219 C 283.472656 302.726562 286.320312 299.429688 289.578125 296.0625 C 289.808594 295.824219 290.132812 295.699219 290.464844 295.71875 C 296.320312 296.078125 301.429688 294.441406 305.789062 290.808594 C 309.539062 287.6875 312.441406 283.90625 314.496094 279.460938 C 314.683594 279.054688 314.574219 278.929688 314.160156 279.085938 L 296.535156 285.726562 C 296.144531 285.878906 296.050781 285.777344 296.261719 285.425781 L 302.070312 275.726562 C 302.210938 275.496094 302.476562 275.355469 302.773438 275.355469 C 304.898438 275.367188 306.886719 274.910156 308.734375 273.992188 C 316.90625 269.90625 321.972656 263.226562 323.9375 253.960938 C 324.046875 253.453125 323.875 253.328125 323.421875 253.585938 C 317.996094 256.722656 312.757812 260.027344 307.703125 263.496094 C 307.023438 263.957031 306.804688 263.792969 307.046875 263 Z M 310.386719 252.085938 " fill-opacity="1" fill-rule="nonzero"/></g><path fill="#a6a6a6" d="M 191.089844 160.273438 C 191.570312 160.472656 192.023438 160.714844 192.453125 161.003906 C 192.886719 161.292969 193.285156 161.617188 193.652344 161.984375 C 194.015625 162.351562 194.34375 162.75 194.632812 163.179688 C 194.921875 163.613281 195.164062 164.066406 195.363281 164.546875 C 195.5625 165.023438 195.710938 165.519531 195.8125 166.027344 C 195.914062 166.535156 195.964844 167.050781 195.964844 167.566406 C 195.964844 168.085938 195.914062 168.597656 195.8125 169.105469 C 195.710938 169.617188 195.5625 170.109375 195.363281 170.589844 C 195.164062 171.066406 194.921875 171.523438 194.632812 171.953125 C 194.34375 172.382812 194.015625 172.78125 193.652344 173.148438 C 193.285156 173.515625 192.886719 173.84375 192.453125 174.132812 C 192.023438 174.417969 191.570312 174.664062 191.089844 174.859375 C 190.609375 175.058594 190.117188 175.207031 189.609375 175.308594 C 189.101562 175.410156 188.585938 175.460938 188.070312 175.460938 C 187.550781 175.460938 187.039062 175.410156 186.527344 175.308594 C 186.019531 175.207031 185.527344 175.058594 185.046875 174.859375 C 184.570312 174.664062 184.113281 174.417969 183.683594 174.132812 C 183.253906 173.84375 182.851562 173.515625 182.488281 173.148438 C 182.121094 172.78125 181.792969 172.382812 181.503906 171.953125 C 181.21875 171.523438 180.972656 171.066406 180.777344 170.589844 C 180.578125 170.109375 180.425781 169.617188 180.328125 169.105469 C 180.226562 168.597656 180.175781 168.085938 180.175781 167.566406 C 180.175781 167.050781 180.226562 166.535156 180.328125 166.027344 C 180.425781 165.519531 180.578125 165.023438 180.777344 164.546875 C 180.972656 164.066406 181.21875 163.613281 181.503906 163.179688 C 181.792969 162.75 182.121094 162.351562 182.488281 161.984375 C 182.851562 161.617188 183.253906 161.292969 183.683594 161.003906 C 184.113281 160.714844 184.570312 160.472656 185.046875 160.273438 C 185.527344 160.074219 186.019531 159.925781 186.527344 159.824219 C 187.039062 159.722656 187.550781 159.671875 188.070312 159.671875 C 188.585938 159.671875 189.101562 159.722656 189.609375 159.824219 C 190.117188 159.925781 190.609375 160.074219 191.089844 160.273438 Z M 191.089844 160.273438 " fill-opacity="1" fill-rule="nonzero"/><path fill="#a6a6a6" d="M 271.109375 259.015625 C 270.925781 258.921875 270.792969 258.757812 270.742188 258.558594 C 269.371094 253.261719 267.84375 248.054688 266.160156 242.929688 C 261.625 229.144531 256.988281 215.394531 252.253906 201.671875 C 251.867188 200.539062 251.527344 199.628906 251.246094 198.945312 C 252.699219 197.886719 253.652344 196.175781 253.652344 194.238281 C 253.652344 192.15625 252.558594 190.332031 250.917969 189.304688 C 251.199219 189.238281 251.457031 189.164062 251.707031 189.085938 C 254.4375 188.597656 256.511719 186.21875 256.511719 183.351562 C 256.511719 181.273438 255.425781 179.457031 253.792969 178.421875 C 253.015625 177.867188 252.15625 177.570312 251.226562 177.527344 C 251.9375 178.355469 252.40625 179.394531 252.519531 180.535156 C 252.863281 184.007812 249.96875 186.902344 246.496094 186.558594 C 246.234375 186.535156 245.984375 186.484375 245.734375 186.421875 C 245.746094 186.441406 245.757812 186.460938 245.769531 186.480469 C 229.121094 183.589844 212.519531 180.859375 195.964844 178.296875 C 190.625 177.46875 185.398438 177.4375 180.28125 178.203125 C 164.78125 180.511719 148.289062 183.300781 130.808594 186.574219 C 130.816406 186.5625 130.824219 186.550781 130.832031 186.539062 C 130.417969 186.589844 129.992188 186.597656 129.554688 186.554688 C 126.984375 186.300781 124.90625 184.222656 124.648438 181.652344 C 124.492188 180.070312 125.011719 178.609375 125.949219 177.519531 C 125.535156 177.519531 125.132812 177.566406 124.742188 177.644531 C 124.550781 177.679688 124.359375 177.722656 124.164062 177.777344 C 122.976562 178.097656 122.039062 178.769531 121.347656 179.78125 C 120.585938 180.769531 120.125 182.003906 120.125 183.347656 C 120.125 183.40625 120.132812 183.460938 120.132812 183.519531 C 120.074219 184.8125 120.4375 185.953125 121.230469 186.9375 C 122.039062 187.9375 123.074219 188.6875 124.335938 189.195312 C 122.601562 190.207031 121.429688 192.082031 121.429688 194.234375 C 121.429688 196.398438 122.613281 198.28125 124.363281 199.289062 C 122.859375 204.191406 121.226562 209.078125 119.460938 213.933594 C 115.886719 223.757812 112.429688 233.617188 109.082031 243.519531 C 106.839844 250.15625 105.296875 255.332031 104.449219 259.039062 C 104.410156 259.214844 104.253906 259.347656 104.066406 259.363281 C 102.640625 259.480469 101.816406 260.21875 101.597656 261.582031 C 101.21875 263.957031 102.046875 265.585938 104.085938 266.464844 C 104.464844 266.628906 105.011719 266.722656 105.742188 266.746094 C 106.3125 266.773438 106.878906 266.84375 107.441406 266.960938 C 107.636719 267.003906 107.820312 267.105469 107.96875 267.257812 C 108.941406 268.277344 109.902344 269.308594 110.851562 270.355469 C 113.242188 272.992188 116.03125 274.824219 119.226562 275.859375 C 122.085938 276.78125 125.304688 277.148438 128.882812 276.957031 C 135.824219 276.578125 141.441406 273.40625 145.726562 267.445312 C 145.851562 267.28125 146.035156 267.179688 146.222656 267.171875 C 146.726562 267.148438 147.222656 267.148438 147.722656 267.171875 C 148.457031 267.199219 149.050781 267.148438 149.496094 267.019531 C 152.398438 266.1875 153.503906 264.234375 152.816406 261.15625 C 152.707031 260.65625 152.53125 260.269531 152.289062 259.996094 C 151.957031 259.621094 151.558594 259.410156 151.097656 259.371094 C 150.734375 259.339844 150.433594 259.082031 150.335938 258.730469 C 148.914062 253.183594 147.382812 247.878906 145.75 242.820312 C 141.09375 228.390625 136.179688 214.046875 131.003906 199.792969 C 130.917969 199.554688 130.789062 199.289062 130.621094 198.996094 C 132.113281 197.941406 133.089844 196.203125 133.089844 194.238281 C 133.089844 192.171875 132.015625 190.359375 130.394531 189.324219 C 134.3125 188.8125 139.648438 188.027344 146.425781 186.980469 C 158.539062 185.105469 170.503906 183.210938 182.316406 181.285156 C 182.332031 181.28125 182.351562 181.28125 182.367188 181.28125 C 182.667969 181.261719 182.925781 181.492188 182.941406 181.792969 C 184.023438 205.191406 184.507812 228.601562 184.398438 252.019531 C 184.375 256.636719 184.292969 260.816406 184.152344 264.550781 C 183.839844 272.695312 183.382812 279.332031 182.789062 284.460938 C 182.203125 289.496094 181.417969 294.09375 180.433594 298.25 C 179.628906 301.671875 178.480469 305.046875 176.992188 308.390625 C 175.511719 311.710938 173.917969 314.417969 172.203125 316.5 C 170.183594 318.953125 167.792969 321.054688 165.039062 322.800781 C 162.179688 324.621094 159.273438 326.375 156.332031 328.074219 C 155.277344 328.683594 155.347656 329.09375 156.550781 329.300781 C 166.769531 331.054688 176.710938 330.894531 186.375 328.824219 C 187.300781 328.628906 188.234375 328.617188 189.171875 328.789062 C 198.984375 330.597656 208.511719 330.867188 217.746094 329.59375 C 219.265625 329.386719 219.414062 328.8125 218.199219 327.882812 C 217.167969 327.09375 215.90625 326.308594 214.417969 325.539062 C 209.617188 323.039062 205.699219 319.691406 202.652344 315.5 C 200.632812 312.726562 198.832031 308.976562 197.253906 304.253906 C 195.449219 298.859375 194.230469 293.515625 193.605469 288.214844 C 191.554688 270.8125 190.683594 252.578125 191 233.519531 C 191.285156 216.222656 191.785156 198.933594 192.496094 181.644531 C 192.496094 181.636719 192.5 181.621094 192.5 181.609375 C 192.523438 181.457031 192.664062 181.351562 192.816406 181.375 L 244.632812 189.347656 C 243.046875 190.386719 241.996094 192.183594 241.996094 194.222656 C 241.996094 196.308594 243.089844 198.128906 244.734375 199.160156 C 244.707031 199.210938 244.679688 199.261719 244.664062 199.308594 C 241.273438 209.128906 237.835938 218.941406 234.359375 228.738281 C 231.238281 237.527344 228.335938 246.390625 225.65625 255.324219 C 225.351562 256.34375 225.101562 257.488281 224.902344 258.761719 C 224.871094 258.960938 224.738281 259.125 224.550781 259.195312 C 222.609375 259.921875 221.695312 261.125 221.8125 262.800781 C 221.898438 264.117188 222.425781 265.1875 223.394531 266.019531 C 224.40625 266.898438 225.703125 267.195312 227.277344 266.90625 C 227.886719 266.789062 228.511719 267.007812 228.925781 267.476562 C 230.066406 268.773438 231.21875 269.984375 232.390625 271.113281 C 233.765625 272.441406 235.089844 273.453125 236.367188 274.152344 C 239.527344 275.882812 243.140625 276.808594 247.207031 276.929688 C 255.59375 277.179688 262.066406 274.078125 266.617188 267.632812 C 266.730469 267.472656 266.910156 267.375 267.101562 267.375 C 268.699219 267.390625 270.128906 267.023438 271.386719 266.273438 C 272.746094 265.457031 273.519531 264.371094 273.703125 263.007812 C 273.929688 261.328125 273.066406 259.996094 271.109375 259.015625 Z M 152.070312 262.40625 C 152.074219 262.355469 152.078125 262.304688 152.082031 262.261719 C 152.078125 262.308594 152.074219 262.355469 152.070312 262.40625 C 152.066406 262.4375 152.0625 262.464844 152.054688 262.492188 C 152.0625 262.464844 152.066406 262.4375 152.070312 262.40625 Z M 151.949219 261.652344 C 151.914062 261.609375 151.878906 261.585938 151.832031 261.578125 C 151.875 261.582031 151.914062 261.609375 151.949219 261.652344 Z M 151.648438 263.160156 C 151.570312 263.152344 151.507812 263.082031 151.464844 262.976562 C 151.511719 263.082031 151.574219 263.152344 151.648438 263.160156 Z M 125.847656 262.011719 C 125.847656 262.011719 125.847656 262.015625 125.847656 262.015625 C 125.847656 262.1875 125.710938 262.320312 125.546875 262.320312 L 110.03125 262.355469 C 109.621094 262.359375 109.269531 262.054688 109.203125 261.648438 C 109.019531 260.453125 108.550781 259.65625 107.804688 259.246094 C 107.75 259.214844 107.546875 259.183594 107.199219 259.144531 L 105.976562 259.019531 C 105.960938 259.019531 105.949219 259.015625 105.933594 259.011719 C 105.789062 258.96875 105.710938 258.789062 105.753906 258.613281 C 108.445312 248.679688 111.570312 238.886719 115.128906 229.230469 C 118.480469 220.136719 121.707031 211 124.8125 201.820312 C 125.046875 201.128906 125.367188 200.476562 125.773438 199.863281 C 125.953125 199.910156 126.132812 199.949219 126.316406 199.980469 C 126.316406 199.996094 126.316406 200.007812 126.316406 200.027344 C 125.789062 220.632812 125.632812 241.296875 125.847656 262.011719 Z M 149.117188 258.496094 C 149.117188 258.5 149.121094 258.5 149.121094 258.503906 C 149.160156 258.667969 149.0625 258.835938 148.898438 258.878906 C 148.34375 259.015625 147.785156 259.128906 147.222656 259.210938 C 145.898438 259.410156 145.214844 260.203125 145.167969 261.585938 C 145.152344 262.019531 144.796875 262.367188 144.363281 262.367188 L 127.179688 262.328125 C 127.171875 262.328125 127.164062 262.328125 127.152344 262.328125 C 126.992188 262.3125 126.878906 262.171875 126.890625 262.015625 C 126.921875 261.640625 126.972656 261.265625 127.035156 260.894531 C 127.105469 260.472656 127.140625 260.09375 127.140625 259.757812 C 127.226562 242.183594 127.390625 224.613281 127.636719 207.042969 C 127.671875 204.703125 127.753906 202.367188 127.886719 200.03125 C 128.417969 199.972656 128.925781 199.84375 129.402344 199.652344 C 129.515625 199.789062 129.605469 199.941406 129.667969 200.109375 C 137.0625 219.441406 143.542969 238.90625 149.117188 258.496094 Z M 247.8125 205.15625 C 247.652344 224.136719 247.617188 243.117188 247.707031 262.09375 C 247.707031 262.265625 247.566406 262.402344 247.394531 262.402344 L 230.304688 262.363281 C 229.964844 262.363281 229.6875 262.097656 229.679688 261.761719 C 229.648438 260.75 229.191406 259.921875 228.296875 259.285156 C 228.203125 259.214844 228.011719 259.160156 227.726562 259.128906 L 226.527344 258.96875 C 226.527344 258.96875 226.523438 258.96875 226.519531 258.96875 C 226.359375 258.941406 226.253906 258.761719 226.285156 258.5625 C 226.75 255.789062 227.503906 252.769531 228.546875 249.511719 C 234.113281 232.15625 239.890625 215.734375 245.890625 200.25 C 245.953125 200.078125 246.023438 199.933594 246.09375 199.804688 C 246.550781 199.945312 247.035156 200.027344 247.535156 200.050781 C 247.742188 200.632812 247.835938 202.332031 247.8125 205.15625 Z M 267.539062 262.011719 C 267.546875 261.871094 267.578125 261.746094 267.625 261.632812 C 267.578125 261.746094 267.546875 261.871094 267.539062 262.011719 C 267.519531 262.3125 267.605469 262.589844 267.75 262.757812 C 267.601562 262.589844 267.519531 262.3125 267.539062 262.011719 Z M 268.0625 262.933594 C 268.074219 262.933594 268.089844 262.929688 268.101562 262.929688 C 268.089844 262.929688 268.074219 262.933594 268.0625 262.933594 Z M 268.265625 262.890625 C 268.460938 262.800781 268.617188 262.5625 268.675781 262.265625 C 268.617188 262.5625 268.460938 262.800781 268.265625 262.890625 Z M 268.179688 261.167969 C 268.332031 261.179688 268.460938 261.273438 268.554688 261.421875 C 268.460938 261.273438 268.332031 261.179688 268.179688 261.167969 Z M 269.144531 258.882812 C 266.882812 259.046875 265.671875 260.03125 265.515625 261.828125 C 265.484375 262.15625 265.210938 262.40625 264.882812 262.40625 L 249.351562 262.402344 C 249.183594 262.402344 249.046875 262.261719 249.046875 262.085938 L 249.238281 199.882812 C 249.519531 199.8125 249.796875 199.722656 250.058594 199.617188 C 250.097656 199.679688 250.128906 199.75 250.160156 199.835938 C 257.296875 219.15625 263.765625 238.636719 269.5625 258.277344 C 269.574219 258.308594 269.578125 258.34375 269.582031 258.378906 C 269.601562 258.636719 269.402344 258.863281 269.144531 258.882812 Z M 269.144531 258.882812 " fill-opacity="1" fill-rule="nonzero"/><g clip-path="url(#058c881114)"><path fill="#a6a6a6" d="M 149.589844 14.640625 L 158.566406 32.839844 L 178.652344 35.757812 L 164.113281 49.9375 L 167.554688 69.9375 L 149.589844 60.496094 L 131.609375 69.9375 L 135.039062 49.9375 L 120.511719 35.757812 L 140.597656 32.839844 Z M 149.589844 14.640625 " fill-opacity="1" fill-rule="nonzero"/><path fill="#a6a6a6" d="M 149.449219 14.464844 L 158.4375 32.664062 L 178.523438 35.585938 L 163.984375 49.761719 L 167.417969 69.765625 L 149.449219 60.320312 L 131.480469 69.765625 L 134.910156 49.761719 L 120.375 35.585938 L 140.457031 32.664062 Z M 149.449219 14.464844 " fill-opacity="1" fill-rule="nonzero"/><path fill="#a6a6a6" d="M 149.449219 14.464844 L 158.4375 32.664062 L 178.523438 35.585938 L 163.984375 49.761719 L 167.417969 69.765625 L 149.449219 60.320312 L 131.480469 69.765625 L 134.910156 49.761719 L 120.375 35.585938 L 140.457031 32.664062 Z M 149.449219 14.464844 " fill-opacity="1" fill-rule="nonzero"/><path fill="#a6a6a6" d="M 149.449219 14.464844 L 158.4375 32.664062 L 178.523438 35.585938 L 163.984375 49.761719 L 167.417969 69.765625 L 149.449219 60.320312 L 131.480469 69.765625 L 134.910156 49.761719 L 120.375 35.585938 L 140.457031 32.664062 Z M 149.449219 14.464844 " fill-opacity="1" fill-rule="nonzero"/></g><g clip-path="url(#65d00f6d4c)"><path fill="#a6a6a6" d="M 226.359375 14.640625 L 235.339844 32.839844 L 255.421875 35.757812 L 240.886719 49.9375 L 244.328125 69.9375 L 226.359375 60.496094 L 208.378906 69.9375 L 211.8125 49.9375 L 197.285156 35.757812 L 217.371094 32.839844 Z M 226.359375 14.640625 " fill-opacity="1" fill-rule="nonzero"/><path fill="#a6a6a6" d="M 226.21875 14.464844 L 235.210938 32.664062 L 255.296875 35.585938 L 240.757812 49.761719 L 244.1875 69.765625 L 226.21875 60.320312 L 208.253906 69.765625 L 211.683594 49.761719 L 197.144531 35.585938 L 217.230469 32.664062 Z M 226.21875 14.464844 " fill-opacity="1" fill-rule="nonzero"/><path fill="#a6a6a6" d="M 226.21875 14.464844 L 235.210938 32.664062 L 255.296875 35.585938 L 240.757812 49.761719 L 244.1875 69.765625 L 226.21875 60.320312 L 208.253906 69.765625 L 211.683594 49.761719 L 197.144531 35.585938 L 217.230469 32.664062 Z M 226.21875 14.464844 " fill-opacity="1" fill-rule="nonzero"/><path fill="#a6a6a6" d="M 226.21875 14.464844 L 235.210938 32.664062 L 255.296875 35.585938 L 240.757812 49.761719 L 244.1875 69.765625 L 226.21875 60.320312 L 208.253906 69.765625 L 211.683594 49.761719 L 197.144531 35.585938 L 217.230469 32.664062 Z M 226.21875 14.464844 " fill-opacity="1" fill-rule="nonzero"/></g><g clip-path="url(#4053ce504d)"><path fill="#a6a6a6" d="M 303.132812 14.640625 L 312.109375 32.839844 L 332.195312 35.757812 L 317.660156 49.9375 L 321.101562 69.9375 L 303.132812 60.496094 L 285.152344 69.9375 L 288.582031 49.9375 L 274.058594 35.757812 L 294.144531 32.839844 Z M 303.132812 14.640625 " fill-opacity="1" fill-rule="nonzero"/></g><g clip-path="url(#4409716b70)"><path fill="#a6a6a6" d="M 302.992188 14.464844 L 311.984375 32.664062 L 332.066406 35.585938 L 317.53125 49.761719 L 320.960938 69.765625 L 302.992188 60.320312 L 285.023438 69.765625 L 288.457031 49.761719 L 273.917969 35.585938 L 294.003906 32.664062 Z M 302.992188 14.464844 " fill-opacity="1" fill-rule="nonzero"/><path fill="#a6a6a6" d="M 302.992188 14.464844 L 311.984375 32.664062 L 332.066406 35.585938 L 317.53125 49.761719 L 320.960938 69.765625 L 302.992188 60.320312 L 285.023438 69.765625 L 288.457031 49.761719 L 273.917969 35.585938 L 294.003906 32.664062 Z M 302.992188 14.464844 " fill-opacity="1" fill-rule="nonzero"/><path fill="#a6a6a6" d="M 302.992188 14.464844 L 311.984375 32.664062 L 332.066406 35.585938 L 317.53125 49.761719 L 320.960938 69.765625 L 302.992188 60.320312 L 285.023438 69.765625 L 288.457031 49.761719 L 273.917969 35.585938 L 294.003906 32.664062 Z M 302.992188 14.464844 " fill-opacity="1" fill-rule="nonzero"/></g></svg>