<svg xmlns="http://www.w3.org/2000/svg" xmlns:xlink="http://www.w3.org/1999/xlink" width="500" zoomAndPan="magnify" viewBox="0 0 375 374.999991" height="500" preserveAspectRatio="xMidYMid meet" version="1.0"><defs><clipPath id="fa7522a399"><path d="M 158.289062 15.53125 L 216 15.53125 L 216 70.28125 L 158.289062 70.28125 Z M 158.289062 15.53125 " clip-rule="nonzero"/></clipPath><clipPath id="17ae722169"><path d="M 49.597656 113.660156 L 325.597656 113.660156 L 325.597656 359.660156 L 49.597656 359.660156 Z M 49.597656 113.660156 " clip-rule="nonzero"/></clipPath></defs><g clip-path="url(#fa7522a399)"><path fill="#a6a6a6" d="M 187.199219 15.71875 L 196.082031 33.730469 L 215.957031 36.617188 L 201.570312 50.648438 L 204.976562 70.441406 L 187.199219 61.097656 L 169.40625 70.441406 L 172.800781 50.648438 L 158.425781 36.617188 L 178.300781 33.730469 Z M 187.199219 15.71875 " fill-opacity="1" fill-rule="nonzero"/><path fill="#a6a6a6" d="M 187.058594 15.546875 L 195.957031 33.558594 L 215.832031 36.445312 L 201.445312 50.472656 L 204.839844 70.269531 L 187.058594 60.921875 L 169.277344 70.269531 L 172.675781 50.472656 L 158.289062 36.445312 L 178.164062 33.558594 Z M 187.058594 15.546875 " fill-opacity="1" fill-rule="nonzero"/><path fill="#a6a6a6" d="M 187.058594 15.546875 L 195.957031 33.558594 L 215.832031 36.445312 L 201.445312 50.472656 L 204.839844 70.269531 L 187.058594 60.921875 L 169.277344 70.269531 L 172.675781 50.472656 L 158.289062 36.445312 L 178.164062 33.558594 Z M 187.058594 15.546875 " fill-opacity="1" fill-rule="nonzero"/><path fill="#a6a6a6" d="M 187.058594 15.546875 L 195.957031 33.558594 L 215.832031 36.445312 L 201.445312 50.472656 L 204.839844 70.269531 L 187.058594 60.921875 L 169.277344 70.269531 L 172.675781 50.472656 L 158.289062 36.445312 L 178.164062 33.558594 Z M 187.058594 15.546875 " fill-opacity="1" fill-rule="nonzero"/></g><g clip-path="url(#17ae722169)"><path fill="#a6a6a6" d="M 309.113281 252.128906 C 309.234375 251.75 309.546875 251.46875 309.925781 251.402344 C 312.597656 250.964844 314.925781 249.910156 316.910156 248.238281 C 318.484375 246.90625 319.960938 244.925781 321.34375 242.296875 C 323.777344 237.65625 325.121094 232.667969 325.371094 227.332031 C 325.390625 226.957031 325.253906 226.890625 324.960938 227.121094 C 319.867188 231.167969 315.148438 235.6875 310.800781 240.675781 C 310.347656 241.195312 310.148438 241.109375 310.210938 240.425781 L 311.277344 228.453125 C 311.3125 228.105469 311.535156 227.800781 311.859375 227.660156 C 315.253906 226.214844 317.710938 224.003906 319.230469 221.03125 C 320.410156 218.726562 321.183594 215.679688 321.550781 211.882812 C 321.863281 208.640625 321.640625 205.371094 320.875 202.074219 C 320.757812 201.570312 320.542969 201.523438 320.226562 201.921875 C 316.453125 206.738281 313.011719 211.816406 309.90625 217.160156 C 309.800781 217.335938 309.734375 217.324219 309.703125 217.125 L 307.808594 206.285156 C 307.707031 205.707031 307.871094 205.121094 308.25 204.703125 C 312.726562 199.738281 314.671875 194.066406 314.082031 187.695312 C 313.757812 184.230469 312.902344 180.742188 311.519531 177.226562 C 311.421875 176.976562 311.304688 176.96875 311.167969 177.195312 C 308.109375 182.289062 305.558594 187.535156 303.507812 192.933594 C 303.40625 193.207031 303.292969 193.210938 303.167969 192.949219 L 298.820312 183.527344 C 298.523438 182.886719 298.53125 182.242188 298.835938 181.601562 C 301.046875 176.933594 301.882812 172.242188 301.335938 167.53125 C 300.792969 162.839844 299.136719 158.5 296.371094 154.527344 C 296.082031 154.113281 295.832031 154.136719 295.621094 154.59375 C 295.207031 155.5 294.878906 156.574219 294.636719 157.816406 C 293.828125 162.007812 292.929688 166.375 291.945312 170.910156 C 291.875 171.222656 291.738281 171.257812 291.535156 171.003906 L 284.722656 162.425781 C 284.289062 161.878906 284.15625 161.289062 284.328125 160.65625 C 286.234375 153.382812 285.460938 146.351562 282.011719 139.566406 C 281.058594 137.6875 279.828125 136.007812 278.328125 134.527344 C 278.121094 134.320312 277.980469 134.363281 277.910156 134.648438 C 276.617188 140 275.945312 145.429688 275.894531 150.9375 C 275.894531 151.152344 275.820312 151.175781 275.671875 151.023438 L 267.78125 143.039062 C 267.253906 142.507812 267.042969 141.863281 267.152344 141.113281 C 267.417969 139.246094 267.152344 137.214844 266.359375 135.015625 C 263.757812 127.8125 259.445312 122.0625 253.414062 117.753906 C 252.636719 117.199219 252.273438 117.398438 252.320312 118.355469 C 252.585938 123.824219 253.699219 129.039062 255.65625 133.996094 C 255.816406 134.398438 255.726562 134.460938 255.382812 134.195312 C 252.234375 131.699219 249.058594 129.292969 245.847656 126.972656 C 241.910156 124.125 238.550781 121.988281 235.765625 120.554688 C 229.621094 117.398438 223.085938 115.238281 216.167969 114.085938 C 214.9375 113.882812 213.699219 113.808594 212.441406 113.867188 C 212.191406 113.882812 212.15625 113.972656 212.339844 114.140625 C 215.597656 117.21875 219 120.082031 222.554688 122.734375 C 227.265625 126.257812 230.707031 128.539062 232.875 129.578125 C 236.566406 131.347656 240.777344 132.40625 245.492188 132.746094 C 246.414062 132.816406 247.214844 133.125 247.886719 133.660156 L 253.820312 138.417969 C 255.003906 139.363281 254.84375 139.730469 253.335938 139.515625 C 246.808594 138.582031 241.289062 140.1875 236.765625 144.328125 C 236.746094 144.347656 236.730469 144.367188 236.71875 144.394531 C 236.667969 144.5 236.714844 144.625 236.816406 144.675781 C 245.398438 148.949219 254.382812 149.542969 263.765625 146.453125 C 264.183594 146.316406 264.632812 146.410156 264.933594 146.707031 L 272.535156 154.175781 C 273.171875 154.800781 273.058594 154.992188 272.195312 154.757812 C 271.402344 154.539062 270.644531 154.339844 269.910156 154.164062 C 269.128906 153.96875 268.351562 153.871094 267.582031 153.871094 C 263.226562 153.871094 258.734375 154.449219 254.101562 155.609375 C 253.835938 155.675781 253.8125 155.789062 254.027344 155.957031 C 262.21875 162.066406 271.253906 165.007812 281.132812 164.785156 C 281.328125 164.78125 281.515625 164.863281 281.648438 165.007812 C 284.203125 167.839844 286.421875 170.921875 288.3125 174.246094 C 288.410156 174.425781 288.363281 174.476562 288.167969 174.402344 C 281.867188 172.027344 275.34375 170.617188 268.59375 170.171875 C 268.21875 170.144531 268.144531 170.28125 268.371094 170.582031 C 269.789062 172.441406 271.355469 174.234375 273.0625 175.953125 C 278.398438 181.34375 285.472656 184.433594 294.285156 185.222656 C 294.515625 185.238281 294.722656 185.375 294.832031 185.574219 C 296.75 189.046875 298.402344 192.546875 299.789062 196.0625 C 299.863281 196.246094 299.8125 196.285156 299.632812 196.179688 C 296.234375 194.085938 292.609375 192.515625 288.757812 191.46875 C 286.425781 190.835938 284.128906 190.222656 281.863281 189.628906 C 281.304688 189.476562 281.167969 189.652344 281.464844 190.148438 C 282.851562 192.484375 284.390625 194.699219 286.085938 196.792969 C 288.082031 199.261719 290.007812 201.125 291.863281 202.375 C 295.058594 204.53125 298.808594 205.875 303.109375 206.414062 C 303.546875 206.46875 303.890625 206.78125 303.960938 207.183594 L 305.742188 217.71875 C 305.800781 218.085938 305.691406 218.148438 305.398438 217.898438 C 300.925781 214.039062 295.855469 211.253906 290.195312 209.542969 C 290.167969 209.535156 290.136719 209.53125 290.109375 209.539062 C 290 209.554688 289.921875 209.652344 289.941406 209.761719 C 291.101562 217.714844 295.292969 223.390625 302.515625 226.785156 C 303.765625 227.371094 305.152344 227.742188 306.683594 227.894531 C 306.863281 227.910156 306.992188 228.066406 306.976562 228.242188 L 306.269531 239.726562 C 306.230469 240.453125 305.992188 240.527344 305.570312 239.9375 C 302.484375 235.660156 298.597656 231.929688 293.910156 228.746094 C 293.867188 228.71875 293.816406 228.699219 293.765625 228.695312 C 293.601562 228.683594 293.460938 228.804688 293.449219 228.96875 C 293.265625 231.25 293.242188 233.621094 293.371094 236.09375 C 293.488281 238.296875 293.984375 240.25 294.859375 241.949219 C 296.988281 246.074219 300.0625 249.050781 304.089844 250.882812 C 304.503906 251.070312 304.726562 251.527344 304.621094 251.96875 C 303.65625 255.875 302.445312 259.675781 300.984375 263.359375 C 300.753906 263.945312 300.566406 263.933594 300.425781 263.320312 C 299.617188 259.8125 298.277344 256.359375 296.410156 252.960938 C 295.21875 250.785156 293.992188 249.109375 292.726562 247.929688 C 292.703125 247.910156 292.675781 247.894531 292.648438 247.886719 C 292.542969 247.851562 292.429688 247.914062 292.394531 248.023438 C 291.316406 251.296875 290.691406 254.660156 290.53125 258.117188 C 290.253906 263.859375 292.085938 268.789062 296.03125 272.894531 C 296.253906 273.128906 296.308594 273.46875 296.167969 273.738281 L 291.09375 283.144531 C 290.941406 283.425781 290.839844 283.410156 290.792969 283.085938 C 289.894531 277.632812 288.132812 272.621094 285.5 268.042969 C 285.15625 267.441406 284.847656 267.460938 284.574219 268.09375 C 282.980469 271.835938 281.996094 275.90625 281.625 280.308594 C 281.28125 284.378906 282.132812 288.335938 284.183594 292.183594 C 284.59375 292.949219 284.539062 293.632812 284.023438 294.242188 L 276.757812 302.804688 C 276.597656 302.988281 276.519531 302.957031 276.523438 302.703125 C 276.582031 297.441406 275.882812 292.136719 274.417969 286.796875 C 274.410156 286.757812 274.386719 286.71875 274.359375 286.6875 C 274.257812 286.574219 274.085938 286.566406 273.980469 286.667969 C 272.929688 287.613281 272.113281 288.585938 271.527344 289.582031 C 269.636719 292.808594 268.183594 296.222656 267.171875 299.824219 C 266.230469 303.179688 266.167969 306.542969 266.988281 309.925781 C 267.035156 310.113281 266.976562 310.308594 266.839844 310.4375 C 263.703125 313.351562 260.457031 315.960938 257.09375 318.265625 C 256.753906 318.496094 256.65625 318.421875 256.792969 318.035156 C 257.617188 315.777344 258.070312 313.589844 258.152344 311.472656 C 258.269531 308.304688 258.136719 305.148438 257.757812 302.015625 C 257.691406 301.46875 257.445312 301.371094 257.023438 301.722656 C 251.273438 306.558594 247.636719 312.671875 246.105469 320.054688 C 245.9375 320.855469 245.832031 321.878906 245.789062 323.132812 C 245.777344 323.421875 245.621094 323.683594 245.371094 323.8125 L 235.410156 329.304688 C 234.980469 329.539062 234.890625 329.445312 235.148438 329.023438 C 238.203125 324.023438 239.726562 318.597656 239.726562 312.746094 C 239.726562 312.722656 239.726562 312.695312 239.714844 312.671875 C 239.679688 312.542969 239.546875 312.472656 239.421875 312.507812 C 238.101562 312.882812 236.890625 313.484375 235.785156 314.3125 C 230.414062 318.34375 226.1875 323.492188 223.109375 329.761719 C 222.972656 330.046875 222.730469 330.273438 222.433594 330.390625 C 212.019531 334.539062 201.402344 337.210938 190.589844 338.410156 C 188.363281 338.660156 186.140625 338.628906 183.921875 338.328125 C 173.265625 336.875 162.929688 334.242188 152.914062 330.4375 C 152.242188 330.179688 151.738281 329.738281 151.402344 329.109375 C 148.984375 324.632812 146.011719 320.578125 142.472656 316.929688 C 140.613281 315.011719 138.410156 313.550781 135.863281 312.542969 C 135.773438 312.507812 135.675781 312.492188 135.574219 312.5 C 135.234375 312.535156 134.984375 312.835938 135.015625 313.175781 C 135.542969 319.003906 137.15625 324.289062 139.847656 329.035156 C 140.074219 329.441406 140.003906 329.503906 139.628906 329.226562 C 136.808594 327.136719 133.636719 325.222656 130.113281 323.488281 C 129.925781 323.390625 129.804688 323.203125 129.796875 322.996094 C 129.75 321.496094 129.511719 320.046875 129.078125 318.648438 C 127.546875 313.757812 125.160156 309.332031 121.925781 305.371094 C 120.703125 303.875 119.328125 302.636719 117.800781 301.652344 C 117.738281 301.613281 117.664062 301.589844 117.589844 301.582031 C 117.339844 301.566406 117.125 301.75 117.105469 302 C 116.867188 305.09375 116.839844 308.085938 117.023438 310.984375 C 117.175781 313.355469 117.710938 315.632812 118.636719 317.828125 C 118.902344 318.453125 118.769531 318.554688 118.246094 318.136719 L 108.777344 310.570312 C 108.640625 310.460938 108.582031 310.265625 108.636719 310.078125 C 109.269531 307.8125 109.5 305.996094 109.324219 304.632812 C 108.484375 298.078125 105.945312 292.1875 101.699219 286.96875 C 101.144531 286.292969 100.773438 286.378906 100.578125 287.230469 C 99.414062 292.289062 98.90625 297.484375 99.050781 302.820312 C 99.058594 303.101562 98.964844 303.140625 98.785156 302.933594 L 90.589844 293.769531 C 90.347656 293.488281 90.3125 293.070312 90.507812 292.726562 C 93.152344 288.109375 94.027344 283.324219 93.136719 278.371094 C 92.769531 276.339844 92.246094 274.425781 91.558594 272.625 C 90.84375 270.742188 89.863281 268.996094 88.617188 267.382812 C 88.597656 267.359375 88.574219 267.339844 88.550781 267.328125 C 88.449219 267.28125 88.335938 267.316406 88.289062 267.414062 C 86.035156 272.046875 84.515625 277.292969 83.734375 283.152344 C 83.664062 283.683594 83.503906 283.71875 83.257812 283.253906 L 78.132812 273.742188 C 78.042969 273.578125 78.070312 273.371094 78.195312 273.214844 C 80.078125 270.859375 81.394531 269.0625 82.148438 267.835938 C 83.316406 265.921875 84.003906 263.601562 84.203125 260.882812 C 84.515625 256.570312 83.925781 252.328125 82.433594 248.15625 C 82.261719 247.671875 82.019531 247.636719 81.707031 248.050781 C 78.214844 252.691406 75.691406 257.746094 74.125 263.214844 C 74.003906 263.652344 73.859375 263.65625 73.707031 263.226562 C 72.269531 259.332031 71.101562 255.457031 70.199219 251.601562 C 70.105469 251.203125 70.296875 250.789062 70.667969 250.605469 C 75.007812 248.421875 78.175781 245.457031 80.175781 241.71875 C 80.960938 240.246094 81.414062 238.679688 81.535156 237.011719 C 81.722656 234.429688 81.78125 231.699219 81.710938 228.820312 C 81.703125 228.496094 81.566406 228.429688 81.308594 228.621094 C 76.675781 231.960938 72.601562 235.957031 69.078125 240.601562 C 68.941406 240.777344 68.867188 240.757812 68.855469 240.539062 L 68.109375 228.316406 C 68.097656 228.070312 68.273438 227.84375 68.527344 227.785156 C 78.214844 225.398438 83.828125 219.386719 85.359375 209.742188 C 85.363281 209.714844 85.359375 209.683594 85.351562 209.65625 C 85.316406 209.554688 85.210938 209.5 85.109375 209.53125 C 79.570312 211.257812 74.582031 213.847656 70.144531 217.296875 C 69.734375 217.617188 69.5625 217.519531 69.625 217.007812 C 70.019531 213.558594 70.65625 210.15625 71.527344 206.792969 C 71.621094 206.414062 71.960938 206.148438 72.355469 206.140625 C 74.800781 206.089844 77.128906 205.492188 79.328125 204.335938 C 85.546875 201.066406 90.289062 196.300781 93.554688 190.042969 C 93.699219 189.761719 93.613281 189.652344 93.304688 189.714844 C 87.179688 190.882812 81.25 193.023438 75.523438 196.128906 C 75.050781 196.386719 74.90625 196.257812 75.089844 195.753906 C 76.289062 192.429688 77.808594 189.042969 79.648438 185.59375 C 79.761719 185.382812 79.972656 185.238281 80.214844 185.214844 C 88.773438 184.421875 95.632812 181.417969 100.804688 176.207031 C 102.589844 174.40625 104.242188 172.492188 105.769531 170.460938 C 105.9375 170.234375 105.882812 170.132812 105.601562 170.160156 C 101.230469 170.554688 96.90625 171.25 92.621094 172.238281 C 90.765625 172.667969 88.992188 173.320312 87.300781 174.199219 C 86.582031 174.566406 86.421875 174.398438 86.816406 173.695312 C 88.515625 170.660156 90.589844 167.765625 93.035156 165.003906 C 93.160156 164.859375 93.351562 164.777344 93.554688 164.78125 C 103.234375 165.03125 111.855469 162.097656 119.417969 155.984375 C 119.898438 155.597656 119.839844 155.339844 119.230469 155.214844 C 117.957031 154.960938 116.601562 154.738281 115.160156 154.550781 C 115.097656 154.542969 113.910156 154.359375 111.589844 153.992188 C 108.347656 153.484375 105.121094 153.664062 101.914062 154.527344 C 101.71875 154.582031 101.683594 154.53125 101.816406 154.386719 C 104.484375 151.394531 107.421875 148.703125 110.625 146.308594 C 110.785156 146.1875 110.992188 146.15625 111.171875 146.222656 C 119.738281 149.132812 128.351562 148.597656 137.011719 144.613281 C 137.046875 144.601562 137.074219 144.582031 137.101562 144.554688 C 137.242188 144.429688 137.25 144.210938 137.125 144.074219 C 133.328125 140.007812 128.714844 138.355469 123.285156 139.117188 C 122.292969 139.257812 121.3125 139.277344 120.335938 139.179688 C 120.128906 139.15625 120.113281 139.082031 120.28125 138.949219 C 122.9375 136.898438 125.667969 134.957031 128.476562 133.132812 C 129.285156 132.609375 130.167969 132.296875 131.125 132.203125 C 132.59375 132.054688 134.066406 131.9375 135.542969 131.847656 C 137.574219 131.730469 139.992188 130.886719 142.792969 129.324219 C 147.03125 126.964844 150.992188 124.210938 154.675781 121.058594 C 157.292969 118.820312 160.027344 116.496094 162.882812 114.09375 C 163.191406 113.839844 163.144531 113.710938 162.746094 113.710938 C 160.824219 113.695312 159.195312 113.820312 157.859375 114.074219 C 147.546875 116.070312 138.183594 120.1875 129.765625 126.414062 C 126.015625 129.191406 122.292969 132.011719 118.605469 134.875 C 118.445312 135.003906 118.410156 134.972656 118.488281 134.789062 C 120.710938 129.578125 122.070312 123.910156 122.566406 117.789062 C 122.605469 117.367188 122.445312 117.273438 122.089844 117.507812 C 115.597656 121.8125 110.929688 127.726562 108.089844 135.261719 C 107.433594 137.007812 107.261719 139.226562 107.585938 141.925781 C 107.613281 142.128906 107.542969 142.324219 107.40625 142.457031 L 98.972656 150.800781 C 98.722656 151.046875 98.601562 150.992188 98.613281 150.640625 C 98.71875 145.0625 98.183594 139.996094 97.011719 135.441406 C 96.816406 134.691406 96.484375 134.625 96.019531 135.242188 C 90.527344 142.476562 88.679688 150.878906 90.472656 160.449219 C 90.59375 161.109375 90.433594 161.695312 89.996094 162.207031 C 87.683594 164.867188 85.402344 167.894531 83.160156 171.289062 C 82.886719 171.699219 82.707031 171.660156 82.621094 171.171875 L 79.753906 155.128906 C 79.59375 154.222656 79.242188 154.144531 78.703125 154.90625 C 73.070312 162.851562 72.121094 171.652344 75.855469 181.316406 C 76.210938 182.238281 76.183594 183.140625 75.769531 184.027344 L 71.507812 193.109375 C 71.34375 193.460938 71.199219 193.453125 71.070312 193.085938 C 69.1875 187.722656 66.632812 182.710938 63.40625 178.046875 C 63.285156 177.878906 63.191406 177.898438 63.113281 178.089844 C 61.992188 181.019531 61.316406 184.324219 61.097656 187.996094 C 60.714844 194.460938 62.53125 199.910156 66.550781 204.34375 C 67.125 204.976562 67.339844 205.734375 67.1875 206.617188 L 65.5625 216.121094 C 65.441406 216.835938 65.191406 216.886719 64.8125 216.277344 C 61.707031 211.21875 58.246094 206.382812 54.433594 201.769531 C 54.296875 201.609375 54.207031 201.632812 54.167969 201.832031 C 52.757812 208.652344 53.574219 215.171875 56.621094 221.394531 C 58.015625 224.238281 60.308594 226.273438 63.507812 227.492188 C 63.730469 227.574219 63.882812 227.789062 63.898438 228.039062 L 64.523438 240.707031 C 64.5625 241.464844 64.359375 241.539062 63.917969 240.929688 C 60.042969 235.570312 55.429688 230.867188 50.074219 226.816406 C 49.757812 226.570312 49.601562 226.648438 49.617188 227.050781 C 49.757812 232.3125 50.9375 237.195312 53.152344 241.699219 C 54.601562 244.644531 56.507812 247.042969 58.871094 248.890625 C 59.738281 249.5625 60.691406 250.089844 61.734375 250.46875 C 62.769531 250.839844 63.828125 251.121094 64.910156 251.3125 C 65.3125 251.382812 65.636719 251.667969 65.757812 252.050781 L 69.167969 263.296875 C 69.324219 263.808594 69.179688 263.910156 68.738281 263.601562 C 64.878906 260.890625 61 258.324219 57.105469 255.894531 C 55.25 254.734375 53.691406 253.917969 52.4375 253.445312 C 52.238281 253.367188 52.160156 253.429688 52.195312 253.644531 C 53.722656 261.78125 57.816406 268.054688 64.480469 272.457031 C 65.988281 273.457031 67.441406 274.179688 68.835938 274.632812 C 70.414062 275.140625 72.035156 275.417969 73.691406 275.46875 C 73.960938 275.476562 74.203125 275.628906 74.328125 275.859375 L 79.714844 285.566406 C 80.019531 286.117188 79.890625 286.257812 79.316406 285.988281 C 73.441406 283.222656 67.242188 280.777344 60.71875 278.65625 C 60.46875 278.574219 60.394531 278.652344 60.503906 278.898438 C 62.25 282.871094 64.601562 286.292969 67.570312 289.167969 C 72.472656 293.910156 78.617188 295.996094 85.996094 295.425781 C 86.269531 295.40625 86.53125 295.511719 86.703125 295.710938 L 95.496094 305.730469 C 95.625 305.878906 95.667969 306.050781 95.609375 306.140625 C 95.546875 306.222656 95.421875 306.226562 95.234375 306.152344 C 91.542969 304.621094 87.710938 303.585938 83.75 303.050781 C 80.917969 302.667969 78.085938 302.289062 75.253906 301.921875 C 75.046875 301.890625 75 301.960938 75.117188 302.132812 C 76.992188 304.820312 79.394531 307.269531 82.3125 309.480469 C 86.554688 312.6875 91.214844 314.578125 96.292969 315.15625 C 99.3125 315.492188 102.195312 315.117188 104.9375 314.023438 C 105.242188 313.898438 105.585938 313.933594 105.855469 314.117188 C 109.355469 316.445312 112.699219 318.960938 115.894531 321.664062 C 116.695312 322.34375 116.589844 322.546875 115.578125 322.277344 C 113.9375 321.84375 112.277344 321.695312 110.589844 321.839844 C 106.417969 322.1875 102.023438 322.808594 97.398438 323.707031 C 97.113281 323.757812 97.082031 323.878906 97.304688 324.066406 C 99.9375 326.230469 102.738281 327.96875 105.699219 329.289062 C 108.972656 330.75 112.128906 331.507812 115.160156 331.5625 C 119.691406 331.644531 123.917969 330.328125 127.839844 327.617188 C 128 327.503906 128.207031 327.484375 128.378906 327.566406 C 131.972656 329.21875 135.414062 331.046875 138.710938 333.054688 C 139.542969 333.558594 139.476562 333.855469 138.507812 333.949219 C 132.722656 334.488281 127.238281 336.019531 122.046875 338.542969 C 121.585938 338.773438 121.585938 338.996094 122.046875 339.21875 C 126.898438 341.546875 132.019531 342.753906 137.410156 342.839844 C 142.824219 342.914062 147.390625 341.292969 151.109375 337.96875 C 151.503906 337.617188 152.050781 337.496094 152.566406 337.644531 C 161.589844 340.324219 170.300781 342.445312 178.703125 344.003906 C 179.824219 344.214844 179.832031 344.441406 178.71875 344.6875 C 169.824219 346.640625 162.46875 351.277344 156.648438 358.589844 C 156.183594 359.175781 156.324219 359.421875 157.066406 359.324219 C 162.671875 358.632812 167.785156 357.203125 172.402344 355.039062 C 177.429688 352.675781 182.226562 349.847656 186.796875 346.550781 C 186.953125 346.4375 187.160156 346.4375 187.316406 346.550781 C 195.035156 352.070312 203.480469 356.058594 212.660156 358.511719 C 213.871094 358.832031 215.199219 359.023438 216.640625 359.082031 C 217.097656 359.097656 217.1875 358.925781 216.914062 358.5625 C 213.433594 353.914062 209.027344 350.207031 203.695312 347.4375 C 201.429688 346.261719 199.027344 345.417969 196.5 344.90625 C 195.070312 344.621094 195.078125 344.363281 196.515625 344.128906 C 205.5 342.6875 214.382812 340.425781 223.164062 337.34375 C 223.339844 337.277344 223.539062 337.324219 223.679688 337.460938 C 227.421875 341.160156 231.859375 342.984375 236.988281 342.941406 C 242.890625 342.890625 248.324219 341.476562 253.285156 338.703125 C 253.832031 338.398438 253.816406 338.117188 253.242188 337.867188 C 247.671875 335.386719 241.921875 334.035156 235.980469 333.804688 C 235.328125 333.773438 235.296875 333.617188 235.886719 333.332031 L 247.503906 327.695312 C 247.789062 327.558594 248.125 327.578125 248.382812 327.753906 C 251.691406 329.980469 255.21875 331.207031 258.972656 331.4375 C 262.148438 331.636719 265.492188 330.976562 269.003906 329.457031 C 272.101562 328.125 275.070312 326.328125 277.925781 324.066406 C 278.195312 323.851562 278.164062 323.703125 277.828125 323.613281 C 271.527344 321.964844 265.410156 321.414062 259.476562 321.972656 C 259.257812 321.992188 259.234375 321.9375 259.410156 321.808594 L 269.769531 314.109375 C 269.917969 314 270.125 313.964844 270.328125 314.015625 C 278.472656 316.117188 285.929688 314.65625 292.703125 309.628906 C 295.585938 307.492188 297.949219 305.03125 299.789062 302.25 C 299.902344 302.078125 299.855469 302 299.648438 302.019531 C 296.636719 302.339844 293.636719 302.703125 290.640625 303.117188 C 287.117188 303.601562 283.703125 304.515625 280.410156 305.867188 C 279.765625 306.132812 279.65625 305.988281 280.074219 305.433594 C 282.480469 302.242188 285.296875 298.980469 288.523438 295.648438 C 288.75 295.414062 289.070312 295.289062 289.398438 295.308594 C 295.191406 295.664062 300.25 294.042969 304.566406 290.449219 C 308.273438 287.363281 311.148438 283.617188 313.183594 279.222656 C 313.367188 278.820312 313.257812 278.695312 312.847656 278.847656 L 295.40625 285.421875 C 295.019531 285.570312 294.925781 285.472656 295.132812 285.121094 L 300.882812 275.523438 C 301.023438 275.296875 301.285156 275.160156 301.578125 275.160156 C 303.683594 275.167969 305.648438 274.714844 307.480469 273.808594 C 315.566406 269.761719 320.578125 263.15625 322.523438 253.984375 C 322.632812 253.480469 322.460938 253.359375 322.015625 253.613281 C 316.644531 256.71875 311.460938 259.988281 306.460938 263.421875 C 305.785156 263.878906 305.570312 263.714844 305.808594 262.929688 Z M 309.113281 252.128906 " fill-opacity="1" fill-rule="nonzero"/></g><path fill="#a6a6a6" d="M 191.054688 161.269531 C 191.53125 161.46875 191.980469 161.707031 192.40625 161.992188 C 192.832031 162.277344 193.226562 162.601562 193.589844 162.964844 C 193.953125 163.328125 194.277344 163.722656 194.5625 164.148438 C 194.847656 164.574219 195.089844 165.023438 195.285156 165.5 C 195.480469 165.972656 195.628906 166.460938 195.730469 166.964844 C 195.828125 167.46875 195.878906 167.976562 195.878906 168.488281 C 195.878906 169 195.828125 169.511719 195.730469 170.011719 C 195.628906 170.515625 195.480469 171.003906 195.285156 171.476562 C 195.089844 171.953125 194.847656 172.402344 194.5625 172.828125 C 194.277344 173.253906 193.953125 173.648438 193.589844 174.011719 C 193.226562 174.375 192.832031 174.699219 192.40625 174.984375 C 191.980469 175.269531 191.53125 175.511719 191.054688 175.707031 C 190.582031 175.902344 190.09375 176.050781 189.589844 176.152344 C 189.089844 176.25 188.578125 176.300781 188.066406 176.300781 C 187.554688 176.300781 187.046875 176.25 186.542969 176.152344 C 186.039062 176.050781 185.550781 175.902344 185.078125 175.707031 C 184.601562 175.511719 184.152344 175.269531 183.726562 174.984375 C 183.300781 174.699219 182.90625 174.375 182.542969 174.011719 C 182.179688 173.648438 181.855469 173.253906 181.570312 172.828125 C 181.285156 172.402344 181.046875 171.953125 180.847656 171.476562 C 180.652344 171.003906 180.503906 170.515625 180.40625 170.011719 C 180.304688 169.511719 180.253906 169 180.253906 168.488281 C 180.253906 167.976562 180.304688 167.46875 180.40625 166.964844 C 180.503906 166.460938 180.652344 165.972656 180.847656 165.5 C 181.046875 165.023438 181.285156 164.574219 181.570312 164.148438 C 181.855469 163.722656 182.179688 163.328125 182.542969 162.964844 C 182.90625 162.601562 183.300781 162.277344 183.726562 161.992188 C 184.152344 161.707031 184.601562 161.46875 185.078125 161.269531 C 185.550781 161.074219 186.039062 160.925781 186.542969 160.828125 C 187.046875 160.726562 187.554688 160.675781 188.066406 160.675781 C 188.578125 160.675781 189.089844 160.726562 189.589844 160.828125 C 190.09375 160.925781 190.582031 161.074219 191.054688 161.269531 Z M 191.054688 161.269531 " fill-opacity="1" fill-rule="nonzero"/><path fill="#a6a6a6" d="M 270.246094 258.988281 C 270.066406 258.898438 269.933594 258.734375 269.882812 258.535156 C 268.523438 253.292969 267.011719 248.140625 265.347656 243.066406 C 260.859375 229.429688 256.273438 215.816406 251.585938 202.238281 C 251.203125 201.117188 250.867188 200.21875 250.585938 199.542969 C 252.027344 198.492188 252.96875 196.796875 252.96875 194.882812 C 252.96875 192.820312 251.886719 191.019531 250.261719 190 C 250.539062 189.933594 250.796875 189.859375 251.042969 189.78125 C 253.746094 189.300781 255.800781 186.949219 255.800781 184.109375 C 255.800781 182.054688 254.722656 180.257812 253.105469 179.230469 C 252.335938 178.683594 251.488281 178.386719 250.566406 178.34375 C 251.273438 179.164062 251.738281 180.195312 251.847656 181.320312 C 252.191406 184.757812 249.324219 187.625 245.886719 187.285156 C 245.628906 187.257812 245.378906 187.207031 245.132812 187.148438 C 245.144531 187.167969 245.15625 187.1875 245.167969 187.207031 C 228.695312 184.34375 212.265625 181.644531 195.882812 179.105469 C 190.597656 178.289062 185.421875 178.257812 180.359375 179.011719 C 165.023438 181.296875 148.699219 184.058594 131.402344 187.300781 C 131.410156 187.289062 131.414062 187.273438 131.425781 187.261719 C 131.015625 187.316406 130.59375 187.324219 130.160156 187.28125 C 127.617188 187.027344 125.558594 184.972656 125.304688 182.429688 C 125.152344 180.863281 125.664062 179.417969 126.589844 178.335938 C 126.179688 178.335938 125.785156 178.382812 125.398438 178.460938 C 125.210938 178.496094 125.019531 178.539062 124.828125 178.589844 C 123.648438 178.910156 122.722656 179.574219 122.039062 180.574219 C 121.285156 181.550781 120.828125 182.773438 120.828125 184.105469 C 120.828125 184.160156 120.835938 184.21875 120.835938 184.273438 C 120.777344 185.554688 121.136719 186.683594 121.921875 187.660156 C 122.722656 188.648438 123.75 189.390625 124.996094 189.894531 C 123.277344 190.894531 122.121094 192.75 122.121094 194.878906 C 122.121094 197.019531 123.289062 198.886719 125.023438 199.878906 C 123.535156 204.734375 121.917969 209.566406 120.171875 214.375 C 116.632812 224.09375 113.210938 233.851562 109.902344 243.652344 C 107.679688 250.222656 106.152344 255.339844 105.316406 259.007812 C 105.277344 259.1875 105.125 259.316406 104.9375 259.332031 C 103.523438 259.445312 102.710938 260.179688 102.496094 261.527344 C 102.121094 263.875 102.941406 265.488281 104.957031 266.359375 C 105.328125 266.519531 105.875 266.613281 106.59375 266.640625 C 107.160156 266.664062 107.722656 266.734375 108.277344 266.851562 C 108.46875 266.890625 108.652344 266.992188 108.796875 267.144531 C 109.761719 268.152344 110.710938 269.171875 111.652344 270.207031 C 114.015625 272.816406 116.777344 274.632812 119.941406 275.65625 C 122.769531 276.570312 125.953125 276.933594 129.496094 276.742188 C 136.367188 276.367188 141.921875 273.226562 146.164062 267.332031 C 146.285156 267.167969 146.46875 267.066406 146.65625 267.058594 C 147.152344 267.035156 147.644531 267.035156 148.140625 267.058594 C 148.867188 267.085938 149.453125 267.035156 149.894531 266.90625 C 152.765625 266.082031 153.859375 264.148438 153.179688 261.105469 C 153.070312 260.609375 152.898438 260.226562 152.660156 259.957031 C 152.328125 259.585938 151.933594 259.378906 151.480469 259.339844 C 151.121094 259.308594 150.820312 259.054688 150.726562 258.707031 C 149.316406 253.214844 147.804688 247.96875 146.1875 242.960938 C 141.578125 228.679688 136.714844 214.484375 131.59375 200.382812 C 131.507812 200.144531 131.382812 199.878906 131.214844 199.59375 C 132.691406 198.546875 133.660156 196.828125 133.660156 194.882812 C 133.660156 192.835938 132.597656 191.046875 130.992188 190.019531 C 134.867188 189.511719 140.152344 188.738281 146.855469 187.699219 C 158.847656 185.847656 170.6875 183.96875 182.375 182.0625 C 182.390625 182.0625 182.410156 182.058594 182.425781 182.058594 C 182.722656 182.042969 182.976562 182.269531 182.992188 182.566406 C 184.0625 205.722656 184.542969 228.890625 184.433594 252.0625 C 184.410156 256.632812 184.332031 260.769531 184.191406 264.464844 C 183.878906 272.527344 183.429688 279.09375 182.839844 284.167969 C 182.261719 289.152344 181.484375 293.703125 180.511719 297.816406 C 179.714844 301.199219 178.578125 304.542969 177.105469 307.847656 C 175.640625 311.136719 174.0625 313.8125 172.367188 315.875 C 170.367188 318.300781 168 320.378906 165.277344 322.109375 C 162.445312 323.910156 159.570312 325.648438 156.660156 327.328125 C 155.613281 327.933594 155.6875 328.335938 156.878906 328.542969 C 166.992188 330.277344 176.828125 330.121094 186.390625 328.070312 C 187.308594 327.878906 188.230469 327.867188 189.160156 328.035156 C 198.871094 329.824219 208.296875 330.089844 217.4375 328.832031 C 218.9375 328.628906 219.085938 328.0625 217.882812 327.140625 C 216.863281 326.359375 215.613281 325.582031 214.144531 324.820312 C 209.394531 322.347656 205.511719 319.035156 202.5 314.886719 C 200.5 312.140625 198.71875 308.429688 197.15625 303.753906 C 195.371094 298.417969 194.164062 293.128906 193.546875 287.882812 C 191.515625 270.660156 190.65625 252.617188 190.964844 233.753906 C 191.25 216.640625 191.746094 199.527344 192.449219 182.421875 C 192.449219 182.410156 192.453125 182.398438 192.453125 182.386719 C 192.476562 182.234375 192.617188 182.128906 192.765625 182.152344 L 244.046875 190.042969 C 242.472656 191.074219 241.433594 192.847656 241.433594 194.867188 C 241.433594 196.929688 242.515625 198.730469 244.144531 199.753906 C 244.117188 199.800781 244.089844 199.851562 244.074219 199.902344 C 240.71875 209.621094 237.316406 219.328125 233.875 229.023438 C 230.785156 237.71875 227.917969 246.492188 225.265625 255.335938 C 224.960938 256.34375 224.714844 257.476562 224.519531 258.734375 C 224.488281 258.929688 224.355469 259.09375 224.171875 259.164062 C 222.25 259.882812 221.347656 261.074219 221.457031 262.730469 C 221.542969 264.035156 222.066406 265.097656 223.027344 265.921875 C 224.027344 266.789062 225.308594 267.082031 226.867188 266.792969 C 227.472656 266.683594 228.089844 266.894531 228.5 267.359375 C 229.628906 268.640625 230.769531 269.839844 231.929688 270.960938 C 233.289062 272.273438 234.601562 273.277344 235.863281 273.96875 C 238.988281 275.679688 242.566406 276.597656 246.589844 276.71875 C 254.890625 276.960938 261.292969 273.894531 265.796875 267.515625 C 265.910156 267.355469 266.089844 267.261719 266.28125 267.261719 C 267.859375 267.277344 269.273438 266.914062 270.519531 266.167969 C 271.867188 265.363281 272.632812 264.285156 272.8125 262.9375 C 273.035156 261.273438 272.183594 259.957031 270.246094 258.988281 Z M 152.441406 262.34375 C 152.445312 262.292969 152.449219 262.242188 152.453125 262.199219 C 152.449219 262.246094 152.445312 262.292969 152.441406 262.34375 C 152.4375 262.371094 152.433594 262.398438 152.429688 262.429688 C 152.433594 262.402344 152.4375 262.371094 152.441406 262.34375 Z M 152.324219 261.597656 C 152.289062 261.554688 152.25 261.53125 152.207031 261.523438 C 152.25 261.527344 152.289062 261.554688 152.324219 261.597656 Z M 152.023438 263.089844 C 151.949219 263.082031 151.886719 263.011719 151.84375 262.90625 C 151.890625 263.011719 151.949219 263.082031 152.023438 263.089844 Z M 126.492188 261.949219 C 126.492188 261.953125 126.492188 261.957031 126.492188 261.957031 C 126.492188 262.125 126.359375 262.257812 126.195312 262.257812 L 110.839844 262.292969 C 110.433594 262.296875 110.085938 261.996094 110.019531 261.59375 C 109.835938 260.410156 109.375 259.621094 108.636719 259.214844 C 108.582031 259.1875 108.382812 259.152344 108.035156 259.117188 L 106.824219 258.992188 C 106.8125 258.992188 106.800781 258.988281 106.785156 258.984375 C 106.640625 258.941406 106.5625 258.765625 106.609375 258.589844 C 109.273438 248.757812 112.363281 239.066406 115.882812 229.511719 C 119.199219 220.511719 122.394531 211.472656 125.46875 202.386719 C 125.699219 201.703125 126.015625 201.058594 126.417969 200.449219 C 126.597656 200.496094 126.773438 200.535156 126.957031 200.5625 C 126.957031 200.578125 126.957031 200.59375 126.957031 200.613281 C 126.433594 221.003906 126.277344 241.449219 126.492188 261.949219 Z M 149.519531 258.472656 C 149.519531 258.476562 149.523438 258.476562 149.523438 258.480469 C 149.5625 258.644531 149.46875 258.808594 149.304688 258.851562 C 148.753906 258.988281 148.203125 259.097656 147.644531 259.179688 C 146.335938 259.378906 145.65625 260.164062 145.609375 261.53125 C 145.597656 261.960938 145.246094 262.300781 144.816406 262.300781 L 127.8125 262.265625 C 127.804688 262.265625 127.796875 262.265625 127.785156 262.265625 C 127.625 262.25 127.511719 262.113281 127.523438 261.957031 C 127.558594 261.582031 127.605469 261.214844 127.667969 260.847656 C 127.738281 260.429688 127.769531 260.054688 127.769531 259.722656 C 127.855469 242.332031 128.019531 224.941406 128.261719 207.550781 C 128.296875 205.238281 128.378906 202.925781 128.511719 200.613281 C 129.035156 200.558594 129.539062 200.429688 130.011719 200.242188 C 130.121094 200.375 130.210938 200.527344 130.273438 200.691406 C 137.589844 219.824219 144.003906 239.085938 149.519531 258.472656 Z M 247.191406 205.6875 C 247.03125 224.46875 246.996094 243.253906 247.085938 262.035156 C 247.085938 262.203125 246.945312 262.335938 246.773438 262.335938 L 229.863281 262.300781 C 229.527344 262.300781 229.253906 262.035156 229.242188 261.703125 C 229.214844 260.703125 228.761719 259.886719 227.878906 259.253906 C 227.785156 259.183594 227.59375 259.128906 227.3125 259.097656 L 226.128906 258.941406 C 226.125 258.941406 226.121094 258.941406 226.121094 258.941406 C 225.960938 258.914062 225.855469 258.734375 225.886719 258.539062 C 226.34375 255.792969 227.09375 252.804688 228.125 249.582031 C 233.632812 232.40625 239.351562 216.15625 245.285156 200.832031 C 245.351562 200.660156 245.417969 200.519531 245.488281 200.390625 C 245.941406 200.53125 246.421875 200.613281 246.917969 200.636719 C 247.121094 201.210938 247.210938 202.894531 247.191406 205.6875 Z M 266.710938 261.949219 C 266.71875 261.8125 266.75 261.6875 266.796875 261.574219 C 266.75 261.6875 266.71875 261.8125 266.710938 261.949219 C 266.695312 262.25 266.777344 262.523438 266.917969 262.691406 C 266.773438 262.523438 266.691406 262.25 266.710938 261.949219 Z M 267.230469 262.863281 C 267.242188 262.863281 267.257812 262.859375 267.269531 262.859375 C 267.257812 262.859375 267.242188 262.863281 267.230469 262.863281 Z M 267.429688 262.824219 C 267.625 262.730469 267.78125 262.5 267.839844 262.203125 C 267.78125 262.5 267.625 262.730469 267.429688 262.824219 Z M 267.34375 261.117188 C 267.496094 261.128906 267.625 261.222656 267.71875 261.371094 C 267.625 261.222656 267.496094 261.128906 267.34375 261.117188 Z M 268.300781 258.855469 C 266.0625 259.015625 264.863281 259.992188 264.707031 261.773438 C 264.679688 262.097656 264.410156 262.34375 264.082031 262.34375 L 248.714844 262.335938 C 248.546875 262.335938 248.410156 262.199219 248.410156 262.027344 L 248.601562 200.46875 C 248.878906 200.398438 249.152344 200.3125 249.414062 200.203125 C 249.453125 200.269531 249.484375 200.339844 249.511719 200.421875 C 256.578125 219.542969 262.980469 238.820312 268.714844 258.253906 C 268.726562 258.289062 268.730469 258.324219 268.734375 258.359375 C 268.753906 258.613281 268.558594 258.835938 268.300781 258.855469 Z M 268.300781 258.855469 " fill-opacity="1" fill-rule="nonzero"/></svg>