<svg xmlns="http://www.w3.org/2000/svg" xmlns:xlink="http://www.w3.org/1999/xlink" width="500" zoomAndPan="magnify" viewBox="0 0 375 374.999991" height="500" preserveAspectRatio="xMidYMid meet" version="1.0"><defs><clipPath id="bbdf59dc8f"><path d="M 21.023438 37.5 L 74.273438 37.5 L 74.273438 87.75 L 21.023438 87.75 Z M 21.023438 37.5 " clip-rule="nonzero"/></clipPath><clipPath id="5ece6fdd4f"><path d="M 69 117.492188 L 306 117.492188 L 306 354.492188 L 69 354.492188 Z M 69 117.492188 " clip-rule="nonzero"/></clipPath><clipPath id="f98028b021"><path d="M 91.277344 37.5 L 144.527344 37.5 L 144.527344 87.75 L 91.277344 87.75 Z M 91.277344 37.5 " clip-rule="nonzero"/></clipPath><clipPath id="2c1773a908"><path d="M 161.160156 37.5 L 214.410156 37.5 L 214.410156 87.75 L 161.160156 87.75 Z M 161.160156 37.5 " clip-rule="nonzero"/></clipPath><clipPath id="f33709c448"><path d="M 231.042969 37.5 L 284.292969 37.5 L 284.292969 87.75 L 231.042969 87.75 Z M 231.042969 37.5 " clip-rule="nonzero"/></clipPath><clipPath id="a84c0e6429"><path d="M 301 37.5 L 354.175781 37.5 L 354.175781 87.75 L 301 87.75 Z M 301 37.5 " clip-rule="nonzero"/></clipPath><clipPath id="91d0dc97af"><path d="M 300.925781 37.5 L 354.175781 37.5 L 354.175781 87.75 L 300.925781 87.75 Z M 300.925781 37.5 " clip-rule="nonzero"/></clipPath></defs><g clip-path="url(#bbdf59dc8f)"><path fill="#ffffff" d="M 47.714844 37.671875 L 55.921875 54.148438 L 74.273438 56.792969 L 60.988281 69.625 L 64.132812 87.734375 L 47.714844 79.183594 L 31.289062 87.734375 L 34.421875 69.625 L 21.148438 56.792969 L 39.503906 54.148438 Z M 47.714844 37.671875 " fill-opacity="1" fill-rule="nonzero"/><path fill="#ffffff" d="M 47.589844 37.515625 L 55.804688 53.992188 L 74.15625 56.632812 L 60.871094 69.46875 L 64.007812 87.578125 L 47.589844 79.027344 L 31.171875 87.578125 L 34.304688 69.46875 L 21.023438 56.632812 L 39.375 53.992188 Z M 47.589844 37.515625 " fill-opacity="1" fill-rule="nonzero"/><path fill="#ffffff" d="M 47.589844 37.515625 L 55.804688 53.992188 L 74.15625 56.632812 L 60.871094 69.46875 L 64.007812 87.578125 L 47.589844 79.027344 L 31.171875 87.578125 L 34.304688 69.46875 L 21.023438 56.632812 L 39.375 53.992188 Z M 47.589844 37.515625 " fill-opacity="1" fill-rule="nonzero"/><path fill="#ffffff" d="M 47.589844 37.515625 L 55.804688 53.992188 L 74.15625 56.632812 L 60.871094 69.46875 L 64.007812 87.578125 L 47.589844 79.027344 L 31.171875 87.578125 L 34.304688 69.46875 L 21.023438 56.632812 L 39.375 53.992188 Z M 47.589844 37.515625 " fill-opacity="1" fill-rule="nonzero"/></g><g clip-path="url(#5ece6fdd4f)"><path fill="#ffffff" d="M 306 235.992188 C 306 301.4375 252.945312 354.492188 187.5 354.492188 C 122.054688 354.492188 69 301.4375 69 235.992188 C 69 170.546875 122.054688 117.492188 187.5 117.492188 C 252.945312 117.492188 306 170.546875 306 235.992188 " fill-opacity="1" fill-rule="nonzero"/></g><path fill="#dfaa61" d="M 142.484375 210.847656 C 142.691406 217.40625 148.09375 222.675781 154.699219 222.675781 C 161.308594 222.675781 166.707031 217.40625 166.914062 210.847656 L 154.699219 180.753906 Z M 154.699219 226.859375 C 145.65625 226.859375 138.296875 219.5 138.296875 210.453125 C 138.296875 210.183594 138.347656 209.917969 138.449219 209.667969 L 152.761719 174.40625 C 153.082031 173.617188 153.847656 173.105469 154.699219 173.105469 C 155.550781 173.105469 156.316406 173.617188 156.636719 174.40625 L 170.949219 209.667969 C 171.050781 209.917969 171.105469 210.183594 171.105469 210.453125 C 171.105469 219.5 163.746094 226.859375 154.699219 226.859375 " fill-opacity="1" fill-rule="nonzero"/><path fill="#dfaa61" d="M 169.011719 212.546875 L 140.386719 212.546875 C 139.230469 212.546875 138.296875 211.609375 138.296875 210.453125 C 138.296875 209.300781 139.230469 208.363281 140.386719 208.363281 L 169.011719 208.363281 C 170.167969 208.363281 171.105469 209.300781 171.105469 210.453125 C 171.105469 211.609375 170.167969 212.546875 169.011719 212.546875 " fill-opacity="1" fill-rule="nonzero"/><path fill="#dfaa61" d="M 208.085938 210.847656 C 208.292969 217.40625 213.691406 222.675781 220.300781 222.675781 C 226.90625 222.675781 232.308594 217.40625 232.515625 210.847656 L 220.300781 180.753906 Z M 220.300781 226.859375 C 211.253906 226.859375 203.894531 219.5 203.894531 210.453125 C 203.894531 210.183594 203.949219 209.917969 204.050781 209.667969 L 218.363281 174.40625 C 218.683594 173.617188 219.449219 173.105469 220.300781 173.105469 C 221.148438 173.105469 221.917969 173.617188 222.238281 174.40625 L 236.550781 209.667969 C 236.652344 209.917969 236.703125 210.183594 236.703125 210.453125 C 236.703125 219.5 229.34375 226.859375 220.300781 226.859375 " fill-opacity="1" fill-rule="nonzero"/><path fill="#dfaa61" d="M 234.613281 212.546875 L 205.988281 212.546875 C 204.832031 212.546875 203.894531 211.609375 203.894531 210.453125 C 203.894531 209.300781 204.832031 208.363281 205.988281 208.363281 L 234.613281 208.363281 C 235.765625 208.363281 236.703125 209.300781 236.703125 210.453125 C 236.703125 211.609375 235.765625 212.546875 234.613281 212.546875 " fill-opacity="1" fill-rule="nonzero"/><path fill="#dfaa61" d="M 167.089844 297.84375 C 166.554688 297.84375 166.019531 297.640625 165.613281 297.230469 C 164.796875 296.414062 164.792969 295.09375 165.613281 294.277344 L 170.894531 288.992188 C 172.671875 287.214844 174.75 285.824219 177.074219 284.863281 C 179.394531 283.898438 181.847656 283.414062 184.363281 283.414062 L 211.835938 283.414062 C 215.988281 283.414062 220.296875 281.441406 223.367188 278.136719 L 248.1875 249.53125 C 249.148438 248.425781 249.679688 247.007812 249.679688 245.546875 C 249.679688 243.78125 248.914062 242.105469 247.582031 240.949219 C 245.046875 238.75 241.199219 239.023438 239 241.558594 L 220.867188 262.449219 C 220.113281 263.324219 218.789062 263.414062 217.917969 262.660156 C 217.046875 261.902344 216.953125 260.582031 217.710938 259.710938 L 235.839844 238.816406 C 239.550781 234.542969 246.046875 234.082031 250.320312 237.789062 C 252.570312 239.742188 253.859375 242.570312 253.859375 245.546875 C 253.859375 248.015625 252.96875 250.40625 251.347656 252.273438 L 226.503906 280.902344 C 226.488281 280.917969 226.472656 280.9375 226.457031 280.953125 C 222.550781 285.171875 217.222656 287.59375 211.835938 287.59375 L 184.363281 287.59375 C 180.390625 287.59375 176.660156 289.140625 173.851562 291.949219 L 168.570312 297.230469 C 168.160156 297.640625 167.625 297.84375 167.089844 297.84375 " fill-opacity="1" fill-rule="nonzero"/><path fill="#dfaa61" d="M 126.1875 280.53125 L 152.769531 307.113281 L 164.132812 295.753906 L 137.550781 269.171875 Z M 152.769531 312.164062 C 152.234375 312.164062 151.699219 311.960938 151.292969 311.550781 L 121.753906 282.007812 C 121.359375 281.617188 121.140625 281.085938 121.140625 280.53125 C 121.140625 279.976562 121.359375 279.445312 121.753906 279.054688 L 136.070312 264.734375 C 136.886719 263.917969 138.210938 263.917969 139.027344 264.734375 L 168.566406 294.273438 C 168.960938 294.667969 169.179688 295.199219 169.179688 295.753906 C 169.179688 296.308594 168.960938 296.839844 168.566406 297.230469 L 154.25 311.550781 C 153.839844 311.960938 153.304688 312.164062 152.769531 312.164062 " fill-opacity="1" fill-rule="nonzero"/><path fill="#dfaa61" d="M 211.421875 271.792969 L 182.273438 271.792969 C 181.117188 271.792969 180.179688 270.855469 180.179688 269.699219 C 180.179688 268.546875 181.117188 267.609375 182.273438 267.609375 L 211.421875 267.609375 C 214.625 267.609375 217.234375 265.003906 217.234375 261.800781 C 217.234375 261.621094 217.222656 261.445312 217.207031 261.28125 C 217.207031 261.277344 217.207031 261.269531 217.207031 261.265625 C 217.085938 259.921875 216.492188 258.652344 215.53125 257.691406 C 214.433594 256.59375 212.976562 255.992188 211.421875 255.992188 L 156.882812 255.992188 C 152.914062 255.992188 149.179688 257.535156 146.375 260.34375 L 139.027344 267.691406 C 138.210938 268.507812 136.886719 268.507812 136.070312 267.691406 C 135.253906 266.875 135.253906 265.550781 136.070312 264.734375 L 143.417969 257.386719 C 145.195312 255.609375 147.273438 254.21875 149.597656 253.257812 C 151.917969 252.296875 154.371094 251.808594 156.882812 251.808594 L 211.421875 251.808594 C 214.089844 251.808594 216.601562 252.847656 218.488281 254.734375 C 220.140625 256.386719 221.164062 258.570312 221.371094 260.886719 C 221.398438 261.183594 221.414062 261.492188 221.414062 261.800781 C 221.414062 267.308594 216.929688 271.792969 211.421875 271.792969 " fill-opacity="1" fill-rule="nonzero"/><path fill="#dfaa61" d="M 191.238281 249.058594 L 183.757812 249.058594 C 182.605469 249.058594 181.667969 248.121094 181.667969 246.96875 L 181.667969 180.789062 C 181.667969 179.636719 182.605469 178.699219 183.757812 178.699219 C 184.914062 178.699219 185.851562 179.636719 185.851562 180.789062 L 185.851562 244.875 L 189.148438 244.875 L 189.148438 180.789062 C 189.148438 179.636719 190.085938 178.699219 191.238281 178.699219 C 192.394531 178.699219 193.332031 179.636719 193.332031 180.789062 L 193.332031 246.96875 C 193.332031 248.121094 192.394531 249.058594 191.238281 249.058594 " fill-opacity="1" fill-rule="nonzero"/><path fill="#dfaa61" d="M 173.9375 251.808594 L 201.0625 251.808594 L 201.0625 249.058594 L 173.9375 249.058594 Z M 203.15625 255.992188 L 171.84375 255.992188 C 170.691406 255.992188 169.753906 255.054688 169.753906 253.898438 L 169.753906 246.96875 C 169.753906 245.8125 170.691406 244.875 171.84375 244.875 L 203.15625 244.875 C 204.308594 244.875 205.246094 245.8125 205.246094 246.96875 L 205.246094 253.898438 C 205.246094 255.054688 204.308594 255.992188 203.15625 255.992188 " fill-opacity="1" fill-rule="nonzero"/><path fill="#dfaa61" d="M 187.5 170.875 C 185.117188 170.875 183.179688 172.8125 183.179688 175.195312 C 183.179688 177.578125 185.117188 179.515625 187.5 179.515625 C 189.882812 179.515625 191.820312 177.578125 191.820312 175.195312 C 191.820312 172.8125 189.882812 170.875 187.5 170.875 Z M 187.5 183.695312 C 182.8125 183.695312 178.996094 179.882812 178.996094 175.195312 C 178.996094 170.507812 182.8125 166.691406 187.5 166.691406 C 192.1875 166.691406 196 170.507812 196 175.195312 C 196 179.882812 192.1875 183.695312 187.5 183.695312 " fill-opacity="1" fill-rule="nonzero"/><path fill="#dfaa61" d="M 228.949219 177.285156 L 193.910156 177.285156 C 192.753906 177.285156 191.820312 176.347656 191.820312 175.195312 C 191.820312 174.039062 192.753906 173.105469 193.910156 173.105469 L 228.949219 173.105469 C 230.101562 173.105469 231.039062 174.039062 231.039062 175.195312 C 231.039062 176.347656 230.101562 177.285156 228.949219 177.285156 " fill-opacity="1" fill-rule="nonzero"/><path fill="#dfaa61" d="M 181.089844 177.285156 L 146.050781 177.285156 C 144.898438 177.285156 143.960938 176.347656 143.960938 175.195312 C 143.960938 174.039062 144.898438 173.105469 146.050781 173.105469 L 181.089844 173.105469 C 182.242188 173.105469 183.179688 174.039062 183.179688 175.195312 C 183.179688 176.347656 182.242188 177.285156 181.089844 177.285156 " fill-opacity="1" fill-rule="nonzero"/><path fill="#dfaa61" d="M 190.628906 171.691406 C 189.476562 171.691406 188.539062 170.753906 188.539062 169.597656 L 188.539062 165.042969 C 188.539062 164.46875 188.074219 164.003906 187.5 164.003906 C 186.925781 164.003906 186.460938 164.46875 186.460938 165.042969 L 186.460938 169.597656 C 186.460938 170.753906 185.523438 171.691406 184.367188 171.691406 C 183.214844 171.691406 182.277344 170.753906 182.277344 169.597656 L 182.277344 165.042969 C 182.277344 162.164062 184.621094 159.820312 187.5 159.820312 C 190.378906 159.820312 192.722656 162.164062 192.722656 165.042969 L 192.722656 169.597656 C 192.722656 170.753906 191.785156 171.691406 190.628906 171.691406 " fill-opacity="1" fill-rule="nonzero"/><g clip-path="url(#f98028b021)"><path fill="#ffffff" d="M 117.972656 37.671875 L 126.175781 54.148438 L 144.527344 56.792969 L 131.246094 69.625 L 134.390625 87.734375 L 117.972656 79.183594 L 101.542969 87.734375 L 104.679688 69.625 L 91.40625 56.792969 L 109.757812 54.148438 Z M 117.972656 37.671875 " fill-opacity="1" fill-rule="nonzero"/><path fill="#ffffff" d="M 117.84375 37.515625 L 126.058594 53.992188 L 144.410156 56.632812 L 131.128906 69.46875 L 134.261719 87.578125 L 117.84375 79.027344 L 101.425781 87.578125 L 104.5625 69.46875 L 91.277344 56.632812 L 109.628906 53.992188 Z M 117.84375 37.515625 " fill-opacity="1" fill-rule="nonzero"/><path fill="#ffffff" d="M 117.84375 37.515625 L 126.058594 53.992188 L 144.410156 56.632812 L 131.128906 69.46875 L 134.261719 87.578125 L 117.84375 79.027344 L 101.425781 87.578125 L 104.5625 69.46875 L 91.277344 56.632812 L 109.628906 53.992188 Z M 117.84375 37.515625 " fill-opacity="1" fill-rule="nonzero"/><path fill="#ffffff" d="M 117.84375 37.515625 L 126.058594 53.992188 L 144.410156 56.632812 L 131.128906 69.46875 L 134.261719 87.578125 L 117.84375 79.027344 L 101.425781 87.578125 L 104.5625 69.46875 L 91.277344 56.632812 L 109.628906 53.992188 Z M 117.84375 37.515625 " fill-opacity="1" fill-rule="nonzero"/></g><g clip-path="url(#2c1773a908)"><path fill="#ffffff" d="M 187.855469 37.671875 L 196.058594 54.148438 L 214.410156 56.792969 L 201.128906 69.625 L 204.273438 87.734375 L 187.855469 79.183594 L 171.425781 87.734375 L 174.5625 69.625 L 161.289062 56.792969 L 179.640625 54.148438 Z M 187.855469 37.671875 " fill-opacity="1" fill-rule="nonzero"/><path fill="#ffffff" d="M 187.726562 37.515625 L 195.941406 53.992188 L 214.292969 56.632812 L 201.011719 69.46875 L 204.144531 87.578125 L 187.726562 79.027344 L 171.308594 87.578125 L 174.445312 69.46875 L 161.160156 56.632812 L 179.511719 53.992188 Z M 187.726562 37.515625 " fill-opacity="1" fill-rule="nonzero"/><path fill="#ffffff" d="M 187.726562 37.515625 L 195.941406 53.992188 L 214.292969 56.632812 L 201.011719 69.46875 L 204.144531 87.578125 L 187.726562 79.027344 L 171.308594 87.578125 L 174.445312 69.46875 L 161.160156 56.632812 L 179.511719 53.992188 Z M 187.726562 37.515625 " fill-opacity="1" fill-rule="nonzero"/><path fill="#ffffff" d="M 187.726562 37.515625 L 195.941406 53.992188 L 214.292969 56.632812 L 201.011719 69.46875 L 204.144531 87.578125 L 187.726562 79.027344 L 171.308594 87.578125 L 174.445312 69.46875 L 161.160156 56.632812 L 179.511719 53.992188 Z M 187.726562 37.515625 " fill-opacity="1" fill-rule="nonzero"/></g><g clip-path="url(#f33709c448)"><path fill="#ffffff" d="M 257.738281 37.671875 L 265.941406 54.148438 L 284.292969 56.792969 L 271.007812 69.625 L 274.15625 87.734375 L 257.738281 79.183594 L 241.308594 87.734375 L 244.441406 69.625 L 231.171875 56.792969 L 249.523438 54.148438 Z M 257.738281 37.671875 " fill-opacity="1" fill-rule="nonzero"/><path fill="#ffffff" d="M 257.609375 37.515625 L 265.824219 53.992188 L 284.175781 56.632812 L 270.894531 69.46875 L 274.027344 87.578125 L 257.609375 79.027344 L 241.191406 87.578125 L 244.324219 69.46875 L 231.042969 56.632812 L 249.394531 53.992188 Z M 257.609375 37.515625 " fill-opacity="1" fill-rule="nonzero"/><path fill="#ffffff" d="M 257.609375 37.515625 L 265.824219 53.992188 L 284.175781 56.632812 L 270.894531 69.46875 L 274.027344 87.578125 L 257.609375 79.027344 L 241.191406 87.578125 L 244.324219 69.46875 L 231.042969 56.632812 L 249.394531 53.992188 Z M 257.609375 37.515625 " fill-opacity="1" fill-rule="nonzero"/><path fill="#ffffff" d="M 257.609375 37.515625 L 265.824219 53.992188 L 284.175781 56.632812 L 270.894531 69.46875 L 274.027344 87.578125 L 257.609375 79.027344 L 241.191406 87.578125 L 244.324219 69.46875 L 231.042969 56.632812 L 249.394531 53.992188 Z M 257.609375 37.515625 " fill-opacity="1" fill-rule="nonzero"/></g><g clip-path="url(#a84c0e6429)"><path fill="#ffffff" d="M 327.621094 37.671875 L 335.824219 54.148438 L 354.175781 56.792969 L 340.890625 69.625 L 344.039062 87.734375 L 327.621094 79.183594 L 311.191406 87.734375 L 314.324219 69.625 L 301.050781 56.792969 L 319.40625 54.148438 Z M 327.621094 37.671875 " fill-opacity="1" fill-rule="nonzero"/></g><g clip-path="url(#91d0dc97af)"><path fill="#ffffff" d="M 327.492188 37.515625 L 335.707031 53.992188 L 354.058594 56.632812 L 340.773438 69.46875 L 343.910156 87.578125 L 327.492188 79.027344 L 311.074219 87.578125 L 314.207031 69.46875 L 300.925781 56.632812 L 319.277344 53.992188 Z M 327.492188 37.515625 " fill-opacity="1" fill-rule="nonzero"/><path fill="#ffffff" d="M 327.492188 37.515625 L 335.707031 53.992188 L 354.058594 56.632812 L 340.773438 69.46875 L 343.910156 87.578125 L 327.492188 79.027344 L 311.074219 87.578125 L 314.207031 69.46875 L 300.925781 56.632812 L 319.277344 53.992188 Z M 327.492188 37.515625 " fill-opacity="1" fill-rule="nonzero"/><path fill="#ffffff" d="M 327.492188 37.515625 L 335.707031 53.992188 L 354.058594 56.632812 L 340.773438 69.46875 L 343.910156 87.578125 L 327.492188 79.027344 L 311.074219 87.578125 L 314.207031 69.46875 L 300.925781 56.632812 L 319.277344 53.992188 Z M 327.492188 37.515625 " fill-opacity="1" fill-rule="nonzero"/></g></svg>