<svg xmlns="http://www.w3.org/2000/svg" xmlns:xlink="http://www.w3.org/1999/xlink" width="500" zoomAndPan="magnify" viewBox="0 0 375 374.999991" height="500" preserveAspectRatio="xMidYMid meet" version="1.0"><defs><clipPath id="6777caefc2"><path d="M 160.222656 37.5 L 214 37.5 L 214 88.5 L 160.222656 88.5 Z M 160.222656 37.5 " clip-rule="nonzero"/></clipPath><clipPath id="e0d83bef4c"><path d="M 67.773438 109.40625 L 307.023438 109.40625 L 307.023438 348.65625 L 67.773438 348.65625 Z M 67.773438 109.40625 " clip-rule="nonzero"/></clipPath></defs><g clip-path="url(#6777caefc2)"><path fill="#ff3131" d="M 187.148438 37.679688 L 195.421875 54.453125 L 213.929688 57.144531 L 200.535156 70.210938 L 203.707031 88.644531 L 187.148438 79.941406 L 170.578125 88.644531 L 173.738281 70.210938 L 160.351562 57.144531 L 178.863281 54.453125 Z M 187.148438 37.679688 " fill-opacity="1" fill-rule="nonzero"/><path fill="#ff3131" d="M 187.019531 37.519531 L 195.304688 54.292969 L 213.8125 56.984375 L 200.417969 70.046875 L 203.578125 88.484375 L 187.019531 79.78125 L 170.460938 88.484375 L 173.621094 70.046875 L 160.222656 56.984375 L 178.734375 54.292969 Z M 187.019531 37.519531 " fill-opacity="1" fill-rule="nonzero"/><path fill="#ff3131" d="M 187.019531 37.519531 L 195.304688 54.292969 L 213.8125 56.984375 L 200.417969 70.046875 L 203.578125 88.484375 L 187.019531 79.78125 L 170.460938 88.484375 L 173.621094 70.046875 L 160.222656 56.984375 L 178.734375 54.292969 Z M 187.019531 37.519531 " fill-opacity="1" fill-rule="nonzero"/><path fill="#ff3131" d="M 187.019531 37.519531 L 195.304688 54.292969 L 213.8125 56.984375 L 200.417969 70.046875 L 203.578125 88.484375 L 187.019531 79.78125 L 170.460938 88.484375 L 173.621094 70.046875 L 160.222656 56.984375 L 178.734375 54.292969 Z M 187.019531 37.519531 " fill-opacity="1" fill-rule="nonzero"/></g><g clip-path="url(#e0d83bef4c)"><path fill="#ea4949" d="M 187.398438 109.40625 C 121.339844 109.40625 67.773438 162.972656 67.773438 229.03125 C 67.773438 295.085938 121.339844 348.65625 187.398438 348.65625 C 253.453125 348.65625 307.023438 295.085938 307.023438 229.03125 C 307.023438 162.972656 253.453125 109.40625 187.398438 109.40625 Z M 187.398438 109.40625 " fill-opacity="1" fill-rule="nonzero"/></g><path fill="#d8dbba" d="M 184.988281 185.441406 L 190.242188 185.441406 L 190.242188 283.273438 L 184.988281 283.273438 Z M 184.988281 185.441406 " fill-opacity="1" fill-rule="nonzero"/><path fill="#d8dbba" d="M 197.136719 295.761719 C 197.136719 273.4375 187.78125 273.871094 187.78125 273.871094 C 187.78125 273.871094 178.429688 273.484375 178.429688 295.761719 C 178.429688 318.039062 180.839844 304.296875 140.675781 304.296875 L 140.675781 308.34375 L 234.792969 308.34375 L 234.792969 304.296875 C 194.679688 304.296875 197.136719 295.761719 197.136719 295.761719 " fill-opacity="1" fill-rule="nonzero"/><path fill="#d8dbba" d="M 187.589844 168.808594 C 185.371094 168.808594 182.382812 173.53125 182.382812 184.09375 C 182.382812 194.652344 193.230469 194.652344 193.230469 184.09375 C 193.230469 173.53125 189.808594 168.808594 187.589844 168.808594 " fill-opacity="1" fill-rule="nonzero"/><path fill="#6d6d68" d="M 246.171875 201.546875 C 245.351562 201.207031 244.390625 201.59375 244.050781 202.460938 L 222.113281 256.417969 C 221.777344 257.234375 222.160156 258.199219 223.027344 258.539062 C 223.222656 258.632812 223.414062 258.632812 223.65625 258.632812 C 224.28125 258.632812 224.910156 258.25 225.152344 257.621094 L 247.042969 203.667969 C 247.378906 202.847656 246.992188 201.882812 246.171875 201.546875 " fill-opacity="1" fill-rule="nonzero"/><path fill="#6d6d68" d="M 276.066406 256.417969 L 254.175781 202.460938 C 253.839844 201.644531 252.875 201.257812 252.054688 201.546875 C 251.234375 201.882812 250.800781 202.847656 251.140625 203.667969 L 273.03125 257.621094 C 273.269531 258.25 273.898438 258.632812 274.523438 258.632812 C 274.71875 258.632812 274.957031 258.585938 275.152344 258.539062 C 276.019531 258.152344 276.40625 257.234375 276.066406 256.417969 " fill-opacity="1" fill-rule="nonzero"/><path fill="#e4e5cf" d="M 221.726562 255.984375 C 221.726562 255.984375 222.113281 275.269531 249.308594 275.269531 C 276.5 275.269531 276.5 255.984375 276.5 255.984375 Z M 221.726562 255.984375 " fill-opacity="1" fill-rule="nonzero"/><path fill="#d8dbba" d="M 254.082031 191.660156 L 254.082031 191.710938 C 253.355469 190.3125 252.054688 189.15625 250.320312 188.574219 C 247.1875 187.5625 243.90625 188.960938 243.039062 191.660156 C 242.171875 194.410156 244.003906 197.398438 247.136719 198.414062 C 247.234375 198.460938 247.28125 198.460938 247.378906 198.460938 C 245.835938 198.847656 244.195312 198.796875 242.558594 198.265625 C 240.195312 197.496094 236.097656 192.867188 227.5625 190.117188 C 220.8125 187.949219 205.816406 187.613281 186.480469 181.390625 L 184.457031 187.757812 C 199.933594 192.722656 215.652344 192.820312 222.546875 194.796875 C 235.324219 198.460938 238.410156 202.027344 241.738281 204.488281 C 245.0625 206.996094 252.972656 205.980469 254.851562 200.101562 C 255.769531 197.253906 255.429688 194.21875 254.082031 191.660156 " fill-opacity="1" fill-rule="nonzero"/><path fill="#6d6d68" d="M 152.679688 217.84375 L 130.792969 163.890625 C 130.453125 163.070312 129.488281 162.683594 128.667969 162.972656 C 127.851562 163.3125 127.417969 164.273438 127.753906 165.09375 L 149.644531 219.046875 C 149.886719 219.675781 150.511719 220.0625 151.136719 220.0625 C 151.332031 220.0625 151.574219 220.011719 151.765625 219.964844 C 152.585938 219.578125 153.019531 218.664062 152.679688 217.84375 " fill-opacity="1" fill-rule="nonzero"/><path fill="#6d6d68" d="M 122.738281 162.972656 C 121.917969 162.636719 120.953125 163.019531 120.617188 163.890625 L 98.726562 217.84375 C 98.390625 218.664062 98.777344 219.628906 99.644531 219.964844 C 99.835938 220.0625 100.027344 220.0625 100.269531 220.0625 C 100.898438 220.0625 101.523438 219.675781 101.765625 219.046875 L 123.65625 165.09375 C 123.992188 164.273438 123.605469 163.3125 122.738281 162.972656 " fill-opacity="1" fill-rule="nonzero"/><path fill="#e4e5cf" d="M 98.292969 217.410156 C 98.292969 217.410156 98.292969 236.695312 125.488281 236.695312 C 152.679688 236.695312 153.066406 217.410156 153.066406 217.410156 Z M 98.292969 217.410156 " fill-opacity="1" fill-rule="nonzero"/><path fill="#d8dbba" d="M 148.003906 164.5625 C 139.46875 161.816406 133.441406 163.214844 131.082031 162.441406 C 129.488281 161.914062 128.089844 160.996094 127.078125 159.789062 C 127.175781 159.839844 127.222656 159.839844 127.320312 159.886719 C 130.453125 160.898438 133.734375 159.5 134.601562 156.800781 C 135.46875 154.101562 133.636719 151.0625 130.5 150.050781 C 128.765625 149.472656 126.980469 149.664062 125.582031 150.386719 L 125.582031 150.339844 C 123.027344 151.640625 120.957031 153.910156 120.039062 156.847656 C 118.160156 162.730469 123.992188 168.132812 128.140625 168.035156 C 132.285156 167.9375 136.867188 166.878906 149.402344 171.316406 C 156.152344 173.726562 168.980469 182.789062 184.457031 187.757812 L 186.480469 181.390625 C 167.144531 175.21875 154.753906 166.734375 148.003906 164.5625 " fill-opacity="1" fill-rule="nonzero"/></svg>