<svg xmlns="http://www.w3.org/2000/svg" xmlns:xlink="http://www.w3.org/1999/xlink" width="500" zoomAndPan="magnify" viewBox="0 0 375 374.999991" height="500" preserveAspectRatio="xMidYMid meet" version="1.0"><defs><clipPath id="94191ea78d"><path d="M 115.59375 13.257812 L 178.59375 13.257812 L 178.59375 73 L 115.59375 73 Z M 115.59375 13.257812 " clip-rule="nonzero"/></clipPath><clipPath id="3b0613b8b2"><path d="M 6.097656 88.273438 L 369 88.273438 L 369 362 L 6.097656 362 Z M 6.097656 88.273438 " clip-rule="nonzero"/></clipPath><clipPath id="c325ea4556"><path d="M 199.136719 13.257812 L 262 13.257812 L 262 73 L 199.136719 73 Z M 199.136719 13.257812 " clip-rule="nonzero"/></clipPath></defs><g clip-path="url(#94191ea78d)"><path fill="#a67120" d="M 147.003906 13.464844 L 156.65625 33.035156 L 178.253906 36.171875 L 162.621094 51.417969 L 166.324219 72.925781 L 147.003906 62.769531 L 127.671875 72.925781 L 131.359375 51.417969 L 115.742188 36.171875 L 137.335938 33.035156 Z M 147.003906 13.464844 " fill-opacity="1" fill-rule="nonzero"/><path fill="#a67120" d="M 146.851562 13.277344 L 156.519531 32.847656 L 178.113281 35.984375 L 162.484375 51.230469 L 166.171875 72.738281 L 146.851562 62.582031 L 127.535156 72.738281 L 131.222656 51.230469 L 115.59375 35.984375 L 137.1875 32.847656 Z M 146.851562 13.277344 " fill-opacity="1" fill-rule="nonzero"/><path fill="#a67120" d="M 146.851562 13.277344 L 156.519531 32.847656 L 178.113281 35.984375 L 162.484375 51.230469 L 166.171875 72.738281 L 146.851562 62.582031 L 127.535156 72.738281 L 131.222656 51.230469 L 115.59375 35.984375 L 137.1875 32.847656 Z M 146.851562 13.277344 " fill-opacity="1" fill-rule="nonzero"/><path fill="#a67120" d="M 146.851562 13.277344 L 156.519531 32.847656 L 178.113281 35.984375 L 162.484375 51.230469 L 166.171875 72.738281 L 146.851562 62.582031 L 127.535156 72.738281 L 131.222656 51.230469 L 115.59375 35.984375 L 137.1875 32.847656 Z M 146.851562 13.277344 " fill-opacity="1" fill-rule="nonzero"/></g><g clip-path="url(#3b0613b8b2)"><path fill="#ffffff" d="M 309.523438 138.332031 L 349.394531 263.613281 L 269.644531 263.613281 Z M 181.6875 110.664062 C 181.6875 107.4375 184.3125 104.816406 187.535156 104.816406 C 190.757812 104.816406 193.378906 107.4375 193.378906 110.664062 C 193.378906 113.882812 190.757812 116.503906 187.535156 116.503906 C 184.3125 116.503906 181.6875 113.882812 181.6875 110.664062 Z M 25.671875 263.613281 L 65.546875 138.332031 L 105.421875 263.613281 Z M 367.90625 266.425781 C 366.929688 264.691406 365.09375 263.613281 363.101562 263.613281 L 358.03125 263.613281 L 316.46875 133.03125 L 316.613281 133.03125 C 321.171875 133.03125 324.871094 129.332031 324.871094 124.769531 C 324.871094 120.203125 321.171875 116.503906 316.613281 116.503906 L 209.101562 116.503906 C 209.605469 114.640625 209.902344 112.683594 209.902344 110.664062 C 209.902344 98.328125 199.871094 88.292969 187.535156 88.292969 C 175.199219 88.292969 165.167969 98.328125 165.167969 110.664062 C 165.167969 112.683594 165.464844 114.640625 165.96875 116.503906 L 58.457031 116.503906 C 53.894531 116.503906 50.195312 120.203125 50.195312 124.769531 C 50.195312 129.332031 53.894531 133.03125 58.457031 133.03125 L 58.601562 133.03125 L 17.039062 263.613281 L 11.96875 263.613281 C 9.976562 263.613281 8.140625 264.691406 7.164062 266.425781 C 6.191406 268.164062 6.226562 270.289062 7.265625 271.988281 C 19.796875 292.546875 41.585938 304.820312 65.550781 304.820312 C 89.511719 304.820312 111.300781 292.546875 123.832031 271.988281 C 124.867188 270.289062 124.902344 268.160156 123.929688 266.425781 C 122.957031 264.691406 121.117188 263.613281 119.128906 263.613281 L 114.054688 263.613281 L 72.496094 133.03125 L 179.273438 133.03125 L 179.273438 338.769531 L 120.222656 338.769531 C 117.183594 338.769531 114.71875 341.238281 114.71875 344.277344 L 114.71875 356.207031 C 114.71875 359.25 117.183594 361.714844 120.222656 361.714844 L 254.847656 361.714844 C 257.890625 361.714844 260.355469 359.25 260.355469 356.207031 L 260.355469 344.277344 C 260.355469 341.238281 257.890625 338.769531 254.847656 338.769531 L 195.792969 338.769531 L 195.792969 133.03125 L 302.574219 133.03125 L 261.011719 263.613281 L 255.941406 263.613281 C 253.953125 263.613281 252.113281 264.691406 251.140625 266.425781 C 250.167969 268.160156 250.203125 270.289062 251.238281 271.988281 C 263.769531 292.546875 285.558594 304.820312 309.523438 304.820312 C 333.484375 304.820312 355.269531 292.546875 367.804688 271.988281 C 368.84375 270.289062 368.878906 268.164062 367.90625 266.425781 " fill-opacity="1" fill-rule="nonzero"/></g><g clip-path="url(#c325ea4556)"><path fill="#a67120" d="M 230.546875 13.464844 L 240.199219 33.035156 L 261.796875 36.171875 L 246.164062 51.417969 L 249.867188 72.925781 L 230.546875 62.769531 L 211.214844 72.925781 L 214.902344 51.417969 L 199.285156 36.171875 L 220.882812 33.035156 Z M 230.546875 13.464844 " fill-opacity="1" fill-rule="nonzero"/><path fill="#a67120" d="M 230.398438 13.277344 L 240.0625 32.847656 L 261.660156 35.984375 L 246.027344 51.230469 L 249.714844 72.738281 L 230.398438 62.582031 L 211.078125 72.738281 L 214.765625 51.230469 L 199.136719 35.984375 L 220.730469 32.847656 Z M 230.398438 13.277344 " fill-opacity="1" fill-rule="nonzero"/><path fill="#a67120" d="M 230.398438 13.277344 L 240.0625 32.847656 L 261.660156 35.984375 L 246.027344 51.230469 L 249.714844 72.738281 L 230.398438 62.582031 L 211.078125 72.738281 L 214.765625 51.230469 L 199.136719 35.984375 L 220.730469 32.847656 Z M 230.398438 13.277344 " fill-opacity="1" fill-rule="nonzero"/><path fill="#a67120" d="M 230.398438 13.277344 L 240.0625 32.847656 L 261.660156 35.984375 L 246.027344 51.230469 L 249.714844 72.738281 L 230.398438 62.582031 L 211.078125 72.738281 L 214.765625 51.230469 L 199.136719 35.984375 L 220.730469 32.847656 Z M 230.398438 13.277344 " fill-opacity="1" fill-rule="nonzero"/></g></svg>