<svg xmlns="http://www.w3.org/2000/svg" xmlns:xlink="http://www.w3.org/1999/xlink" width="500" zoomAndPan="magnify" viewBox="0 0 375 374.999991" height="500" preserveAspectRatio="xMidYMid meet" version="1.0"><defs><clipPath id="8d98fd6e2a"><path d="M 154.414062 8.054688 L 215.914062 8.054688 L 215.914062 67 L 154.414062 67 Z M 154.414062 8.054688 " clip-rule="nonzero"/></clipPath><clipPath id="8c31f39c31"><path d="M 37.5 90.015625 L 333 90.015625 L 333 353.265625 L 37.5 353.265625 Z M 37.5 90.015625 " clip-rule="nonzero"/></clipPath></defs><g clip-path="url(#8d98fd6e2a)"><path fill="#bc813d" d="M 185.402344 8.261719 L 194.925781 27.566406 L 216.230469 30.664062 L 200.808594 45.703125 L 204.460938 66.917969 L 185.402344 56.902344 L 166.332031 66.917969 L 169.96875 45.703125 L 154.5625 30.664062 L 175.867188 27.566406 Z M 185.402344 8.261719 " fill-opacity="1" fill-rule="nonzero"/><path fill="#bc813d" d="M 185.253906 8.078125 L 194.789062 27.382812 L 216.09375 30.480469 L 200.675781 45.515625 L 204.3125 66.734375 L 185.253906 56.71875 L 166.195312 66.734375 L 169.832031 45.515625 L 154.414062 30.480469 L 175.71875 27.382812 Z M 185.253906 8.078125 " fill-opacity="1" fill-rule="nonzero"/><path fill="#bc813d" d="M 185.253906 8.078125 L 194.789062 27.382812 L 216.09375 30.480469 L 200.675781 45.515625 L 204.3125 66.734375 L 185.253906 56.71875 L 166.195312 66.734375 L 169.832031 45.515625 L 154.414062 30.480469 L 175.71875 27.382812 Z M 185.253906 8.078125 " fill-opacity="1" fill-rule="nonzero"/><path fill="#bc813d" d="M 185.253906 8.078125 L 194.789062 27.382812 L 216.09375 30.480469 L 200.675781 45.515625 L 204.3125 66.734375 L 185.253906 56.71875 L 166.195312 66.734375 L 169.832031 45.515625 L 154.414062 30.480469 L 175.71875 27.382812 Z M 185.253906 8.078125 " fill-opacity="1" fill-rule="nonzero"/></g><g clip-path="url(#8c31f39c31)"><path fill="#bc813d" d="M 315.695312 238.457031 C 315.824219 238.046875 316.160156 237.75 316.566406 237.679688 C 319.429688 237.210938 321.925781 236.078125 324.050781 234.285156 C 325.742188 232.855469 327.324219 230.734375 328.804688 227.914062 C 331.414062 222.941406 332.855469 217.59375 333.121094 211.871094 C 333.144531 211.472656 332.996094 211.398438 332.679688 211.644531 C 327.222656 215.988281 322.164062 220.832031 317.503906 226.179688 C 317.015625 226.734375 316.804688 226.644531 316.871094 225.910156 L 318.015625 213.074219 C 318.050781 212.699219 318.289062 212.375 318.640625 212.222656 C 322.277344 210.675781 324.910156 208.308594 326.539062 205.121094 C 327.804688 202.648438 328.632812 199.382812 329.027344 195.3125 C 329.363281 191.839844 329.121094 188.332031 328.300781 184.796875 C 328.179688 184.261719 327.949219 184.207031 327.609375 184.636719 C 323.5625 189.796875 319.875 195.242188 316.542969 200.972656 C 316.433594 201.160156 316.359375 201.144531 316.324219 200.929688 L 314.296875 189.3125 C 314.1875 188.691406 314.363281 188.066406 314.765625 187.617188 C 319.570312 182.292969 321.652344 176.214844 321.019531 169.382812 C 320.675781 165.671875 319.757812 161.929688 318.273438 158.160156 C 318.167969 157.894531 318.042969 157.886719 317.894531 158.128906 C 314.617188 163.589844 311.882812 169.210938 309.6875 175 C 309.574219 175.292969 309.453125 175.296875 309.324219 175.015625 L 304.664062 164.914062 C 304.34375 164.226562 304.347656 163.539062 304.675781 162.851562 C 307.046875 157.847656 307.941406 152.820312 307.355469 147.769531 C 306.773438 142.738281 305 138.089844 302.035156 133.828125 C 301.722656 133.386719 301.457031 133.410156 301.230469 133.902344 C 300.785156 134.871094 300.4375 136.023438 300.175781 137.351562 C 299.308594 141.847656 298.347656 146.53125 297.292969 151.390625 C 297.214844 151.726562 297.070312 151.761719 296.851562 151.492188 L 289.550781 142.296875 C 289.082031 141.707031 288.941406 141.078125 289.125 140.402344 C 291.167969 132.601562 290.339844 125.0625 286.640625 117.789062 C 285.617188 115.777344 284.300781 113.976562 282.691406 112.390625 C 282.472656 112.167969 282.320312 112.210938 282.246094 112.515625 C 280.859375 118.253906 280.140625 124.078125 280.085938 129.980469 C 280.085938 130.210938 280.003906 130.238281 279.847656 130.074219 L 271.386719 121.515625 C 270.820312 120.945312 270.597656 120.253906 270.710938 119.449219 C 270.996094 117.449219 270.710938 115.269531 269.863281 112.910156 C 267.074219 105.191406 262.453125 99.027344 255.988281 94.410156 C 255.152344 93.8125 254.761719 94.027344 254.8125 95.050781 C 255.097656 100.917969 256.292969 106.503906 258.390625 111.820312 C 258.5625 112.25 258.464844 112.320312 258.097656 112.03125 C 254.722656 109.359375 251.316406 106.777344 247.875 104.289062 C 243.65625 101.238281 240.050781 98.949219 237.066406 97.414062 C 230.480469 94.027344 223.476562 91.710938 216.058594 90.476562 C 214.742188 90.257812 213.410156 90.179688 212.0625 90.242188 C 211.796875 90.257812 211.761719 90.355469 211.957031 90.535156 C 215.445312 93.832031 219.09375 96.902344 222.902344 99.746094 C 227.953125 103.523438 231.644531 105.972656 233.96875 107.082031 C 237.929688 108.980469 242.4375 110.113281 247.496094 110.480469 C 248.484375 110.554688 249.339844 110.882812 250.0625 111.460938 L 256.421875 116.558594 C 257.691406 117.574219 257.515625 117.96875 255.90625 117.734375 C 248.90625 116.738281 242.988281 118.457031 238.140625 122.894531 C 238.117188 122.914062 238.101562 122.9375 238.089844 122.96875 C 238.035156 123.078125 238.082031 123.214844 238.195312 123.269531 C 247.394531 127.847656 257.027344 128.484375 267.085938 125.171875 C 267.53125 125.027344 268.011719 125.128906 268.335938 125.445312 L 276.484375 133.453125 C 277.167969 134.121094 277.042969 134.328125 276.117188 134.074219 C 275.269531 133.839844 274.457031 133.628906 273.671875 133.4375 C 272.832031 133.230469 272 133.125 271.175781 133.125 C 266.507812 133.125 261.6875 133.746094 256.722656 134.988281 C 256.4375 135.058594 256.414062 135.183594 256.644531 135.359375 C 265.425781 141.910156 275.113281 145.0625 285.699219 144.824219 C 285.910156 144.820312 286.109375 144.910156 286.25 145.0625 C 288.992188 148.097656 291.371094 151.402344 293.394531 154.96875 C 293.5 155.15625 293.449219 155.214844 293.242188 155.132812 C 286.488281 152.589844 279.492188 151.078125 272.257812 150.597656 C 271.855469 150.570312 271.777344 150.71875 272.019531 151.039062 C 273.542969 153.03125 275.21875 154.953125 277.050781 156.796875 C 282.765625 162.578125 290.351562 165.890625 299.800781 166.730469 C 300.046875 166.75 300.265625 166.894531 300.386719 167.109375 C 302.441406 170.835938 304.210938 174.582031 305.699219 178.351562 C 305.78125 178.550781 305.722656 178.59375 305.535156 178.476562 C 301.886719 176.234375 298 174.550781 293.875 173.429688 C 291.375 172.75 288.910156 172.09375 286.480469 171.453125 C 285.882812 171.292969 285.738281 171.480469 286.054688 172.011719 C 287.542969 174.515625 289.191406 176.890625 291.007812 179.136719 C 293.152344 181.785156 295.214844 183.78125 297.203125 185.121094 C 300.628906 187.433594 304.648438 188.875 309.257812 189.453125 C 309.726562 189.507812 310.097656 189.84375 310.171875 190.277344 L 312.078125 201.570312 C 312.144531 201.964844 312.023438 202.03125 311.714844 201.761719 C 306.917969 197.625 301.484375 194.636719 295.414062 192.804688 C 295.386719 192.796875 295.351562 192.792969 295.320312 192.796875 C 295.203125 192.816406 295.125 192.921875 295.140625 193.035156 C 296.386719 201.5625 300.878906 207.648438 308.621094 211.285156 C 309.960938 211.917969 311.449219 212.3125 313.089844 212.476562 C 313.28125 212.492188 313.417969 212.660156 313.40625 212.851562 L 312.644531 225.160156 C 312.601562 225.941406 312.347656 226.015625 311.894531 225.386719 C 308.585938 220.800781 304.421875 216.800781 299.398438 213.390625 C 299.351562 213.359375 299.296875 213.339844 299.242188 213.335938 C 299.066406 213.320312 298.914062 213.453125 298.902344 213.628906 C 298.707031 216.074219 298.679688 218.617188 298.820312 221.265625 C 298.945312 223.628906 299.476562 225.722656 300.414062 227.542969 C 302.695312 231.964844 305.992188 235.15625 310.3125 237.121094 C 310.753906 237.320312 310.992188 237.808594 310.878906 238.285156 C 309.84375 242.472656 308.546875 246.542969 306.980469 250.492188 C 306.730469 251.125 306.53125 251.109375 306.382812 250.453125 C 305.511719 246.695312 304.078125 242.992188 302.078125 239.347656 C 300.800781 237.015625 299.484375 235.21875 298.128906 233.953125 C 298.105469 233.933594 298.074219 233.917969 298.042969 233.90625 C 297.933594 233.871094 297.8125 233.9375 297.773438 234.050781 C 296.617188 237.5625 295.949219 241.171875 295.773438 244.875 C 295.476562 251.03125 297.441406 256.3125 301.671875 260.714844 C 301.910156 260.96875 301.96875 261.332031 301.820312 261.621094 L 296.378906 271.703125 C 296.214844 272.007812 296.105469 271.988281 296.054688 271.640625 C 295.089844 265.796875 293.203125 260.421875 290.382812 255.511719 C 290.015625 254.871094 289.683594 254.890625 289.390625 255.566406 C 287.679688 259.582031 286.625 263.945312 286.226562 268.664062 C 285.859375 273.027344 286.773438 277.269531 288.972656 281.394531 C 289.410156 282.210938 289.351562 282.949219 288.796875 283.601562 L 281.011719 292.777344 C 280.839844 292.976562 280.753906 292.941406 280.757812 292.671875 C 280.824219 287.027344 280.074219 281.34375 278.503906 275.621094 C 278.492188 275.578125 278.46875 275.535156 278.4375 275.503906 C 278.328125 275.382812 278.148438 275.375 278.03125 275.480469 C 276.90625 276.496094 276.03125 277.539062 275.40625 278.605469 C 273.375 282.0625 271.816406 285.722656 270.734375 289.582031 C 269.722656 293.179688 269.65625 296.789062 270.539062 300.410156 C 270.585938 300.613281 270.527344 300.820312 270.375 300.960938 C 267.015625 304.085938 263.535156 306.882812 259.929688 309.355469 C 259.566406 309.601562 259.460938 309.519531 259.609375 309.105469 C 260.492188 306.6875 260.976562 304.339844 261.066406 302.070312 C 261.191406 298.675781 261.050781 295.292969 260.640625 291.933594 C 260.570312 291.347656 260.308594 291.242188 259.855469 291.621094 C 253.695312 296.800781 249.792969 303.355469 248.152344 311.273438 C 247.972656 312.128906 247.859375 313.226562 247.8125 314.570312 C 247.800781 314.878906 247.628906 315.160156 247.367188 315.300781 L 236.6875 321.183594 C 236.226562 321.4375 236.132812 321.335938 236.40625 320.886719 C 239.679688 315.523438 241.3125 309.707031 241.3125 303.433594 C 241.3125 303.410156 241.3125 303.382812 241.304688 303.355469 C 241.261719 303.21875 241.121094 303.140625 240.988281 303.183594 C 239.570312 303.582031 238.273438 304.226562 237.089844 305.117188 C 231.328125 309.433594 226.800781 314.953125 223.5 321.675781 C 223.351562 321.984375 223.09375 322.226562 222.777344 322.347656 C 211.613281 326.796875 200.230469 329.664062 188.640625 330.949219 C 186.253906 331.214844 183.871094 331.183594 181.492188 330.859375 C 170.070312 329.300781 158.988281 326.480469 148.25 322.402344 C 147.53125 322.125 146.992188 321.648438 146.628906 320.976562 C 144.039062 316.179688 140.851562 311.828125 137.058594 307.921875 C 135.066406 305.863281 132.703125 304.296875 129.976562 303.21875 C 129.878906 303.179688 129.773438 303.164062 129.664062 303.171875 C 129.300781 303.207031 129.03125 303.53125 129.066406 303.898438 C 129.632812 310.144531 131.359375 315.8125 134.246094 320.898438 C 134.488281 321.332031 134.410156 321.398438 134.011719 321.105469 C 130.988281 318.863281 127.585938 316.808594 123.808594 314.953125 C 123.609375 314.847656 123.480469 314.648438 123.46875 314.425781 C 123.421875 312.816406 123.164062 311.261719 122.699219 309.761719 C 121.058594 304.523438 118.503906 299.777344 115.03125 295.527344 C 113.722656 293.925781 112.25 292.597656 110.609375 291.542969 C 110.542969 291.5 110.46875 291.476562 110.386719 291.46875 C 110.121094 291.449219 109.886719 291.648438 109.867188 291.914062 C 109.609375 295.234375 109.582031 298.441406 109.78125 301.546875 C 109.941406 304.085938 110.515625 306.53125 111.507812 308.882812 C 111.792969 309.550781 111.652344 309.660156 111.089844 309.214844 L 100.941406 301.101562 C 100.789062 300.984375 100.730469 300.777344 100.789062 300.578125 C 101.464844 298.148438 101.714844 296.203125 101.527344 294.738281 C 100.625 287.710938 97.902344 281.398438 93.351562 275.804688 C 92.757812 275.078125 92.359375 275.167969 92.148438 276.082031 C 90.902344 281.503906 90.355469 287.078125 90.511719 292.796875 C 90.519531 293.097656 90.421875 293.136719 90.226562 292.914062 L 81.441406 283.09375 C 81.179688 282.792969 81.144531 282.34375 81.355469 281.972656 C 84.1875 277.027344 85.128906 271.894531 84.171875 266.585938 C 83.78125 264.410156 83.214844 262.355469 82.480469 260.425781 C 81.710938 258.410156 80.664062 256.535156 79.328125 254.804688 C 79.304688 254.78125 79.28125 254.761719 79.253906 254.75 C 79.148438 254.695312 79.023438 254.738281 78.976562 254.839844 C 76.558594 259.804688 74.929688 265.433594 74.09375 271.714844 C 74.019531 272.28125 73.847656 272.316406 73.582031 271.820312 L 68.089844 261.625 C 67.992188 261.449219 68.019531 261.226562 68.15625 261.058594 C 70.171875 258.53125 71.585938 256.609375 72.390625 255.292969 C 73.644531 253.238281 74.382812 250.753906 74.59375 247.835938 C 74.929688 243.21875 74.296875 238.667969 72.699219 234.195312 C 72.511719 233.679688 72.253906 233.636719 71.921875 234.085938 C 68.175781 239.058594 65.46875 244.476562 63.792969 250.339844 C 63.660156 250.808594 63.507812 250.8125 63.34375 250.351562 C 61.804688 246.175781 60.550781 242.023438 59.585938 237.890625 C 59.484375 237.460938 59.6875 237.019531 60.085938 236.820312 C 64.738281 234.480469 68.132812 231.304688 70.277344 227.296875 C 71.121094 225.71875 71.609375 224.035156 71.738281 222.25 C 71.933594 219.484375 72 216.554688 71.921875 213.46875 C 71.914062 213.125 71.769531 213.050781 71.492188 213.253906 C 66.527344 216.835938 62.15625 221.117188 58.382812 226.097656 C 58.238281 226.289062 58.15625 226.265625 58.144531 226.03125 L 57.34375 212.929688 C 57.332031 212.664062 57.519531 212.421875 57.789062 212.359375 C 68.175781 209.800781 74.195312 203.355469 75.832031 193.019531 C 75.839844 192.988281 75.835938 192.957031 75.824219 192.925781 C 75.789062 192.816406 75.675781 192.757812 75.566406 192.792969 C 69.628906 194.640625 64.28125 197.417969 59.523438 201.117188 C 59.085938 201.460938 58.902344 201.355469 58.964844 200.804688 C 59.390625 197.109375 60.074219 193.460938 61.007812 189.855469 C 61.109375 189.453125 61.472656 189.167969 61.894531 189.160156 C 64.519531 189.105469 67.011719 188.460938 69.367188 187.222656 C 76.039062 183.714844 81.121094 178.609375 84.621094 171.902344 C 84.773438 171.597656 84.683594 171.480469 84.351562 171.546875 C 77.785156 172.800781 71.433594 175.09375 65.292969 178.421875 C 64.785156 178.699219 64.628906 178.566406 64.824219 178.023438 C 66.109375 174.460938 67.742188 170.828125 69.714844 167.132812 C 69.832031 166.902344 70.0625 166.75 70.320312 166.726562 C 79.492188 165.875 86.851562 162.65625 92.394531 157.070312 C 94.304688 155.140625 96.078125 153.085938 97.714844 150.910156 C 97.894531 150.667969 97.835938 150.558594 97.535156 150.585938 C 92.851562 151.011719 88.210938 151.753906 83.621094 152.8125 C 81.632812 153.273438 79.730469 153.976562 77.914062 154.914062 C 77.148438 155.308594 76.976562 155.132812 77.398438 154.378906 C 79.21875 151.125 81.441406 148.019531 84.0625 145.0625 C 84.199219 144.90625 84.402344 144.816406 84.621094 144.820312 C 94.996094 145.089844 104.238281 141.945312 112.34375 135.390625 C 112.863281 134.976562 112.796875 134.699219 112.144531 134.566406 C 110.78125 134.292969 109.324219 134.054688 107.78125 133.855469 C 107.714844 133.847656 106.441406 133.648438 103.953125 133.257812 C 100.476562 132.710938 97.019531 132.902344 93.582031 133.828125 C 93.371094 133.886719 93.335938 133.835938 93.476562 133.675781 C 96.335938 130.472656 99.484375 127.585938 102.921875 125.015625 C 103.09375 124.890625 103.3125 124.855469 103.507812 124.925781 C 112.6875 128.046875 121.921875 127.472656 131.207031 123.203125 C 131.242188 123.1875 131.273438 123.164062 131.300781 123.140625 C 131.449219 123.003906 131.460938 122.773438 131.328125 122.621094 C 127.257812 118.265625 122.3125 116.492188 116.488281 117.308594 C 115.429688 117.460938 114.378906 117.480469 113.332031 117.375 C 113.109375 117.351562 113.089844 117.273438 113.269531 117.128906 C 116.117188 114.929688 119.046875 112.851562 122.054688 110.894531 C 122.921875 110.332031 123.867188 110 124.894531 109.898438 C 126.46875 109.738281 128.050781 109.613281 129.632812 109.519531 C 131.808594 109.390625 134.402344 108.488281 137.40625 106.808594 C 141.945312 104.285156 146.191406 101.332031 150.140625 97.953125 C 152.945312 95.550781 155.878906 93.058594 158.941406 90.484375 C 159.269531 90.214844 159.21875 90.074219 158.792969 90.074219 C 156.734375 90.058594 154.984375 90.191406 153.554688 90.464844 C 142.5 92.605469 132.460938 97.015625 123.4375 103.691406 C 119.417969 106.667969 115.429688 109.695312 111.472656 112.761719 C 111.304688 112.898438 111.261719 112.867188 111.347656 112.667969 C 113.734375 107.082031 115.191406 101.007812 115.722656 94.445312 C 115.761719 93.996094 115.589844 93.894531 115.210938 94.148438 C 108.25 98.757812 103.246094 105.101562 100.199219 113.175781 C 99.496094 115.046875 99.316406 117.425781 99.664062 120.320312 C 99.6875 120.539062 99.617188 120.746094 99.472656 120.890625 L 90.425781 129.835938 C 90.160156 130.097656 90.03125 130.039062 90.042969 129.664062 C 90.15625 123.683594 89.585938 118.25 88.324219 113.367188 C 88.117188 112.566406 87.761719 112.496094 87.261719 113.15625 C 81.375 120.910156 79.394531 129.914062 81.316406 140.175781 C 81.445312 140.886719 81.273438 141.511719 80.804688 142.058594 C 78.324219 144.910156 75.882812 148.15625 73.476562 151.796875 C 73.183594 152.238281 72.992188 152.191406 72.898438 151.671875 L 69.824219 134.472656 C 69.652344 133.5 69.277344 133.421875 68.699219 134.234375 C 62.660156 142.753906 61.644531 152.1875 65.648438 162.546875 C 66.03125 163.535156 66 164.503906 65.554688 165.453125 L 60.988281 175.191406 C 60.808594 175.566406 60.652344 175.558594 60.515625 175.164062 C 58.496094 169.414062 55.761719 164.039062 52.300781 159.042969 C 52.171875 158.863281 52.070312 158.878906 51.988281 159.085938 C 50.785156 162.230469 50.0625 165.769531 49.828125 169.707031 C 49.417969 176.636719 51.363281 182.476562 55.671875 187.230469 C 56.289062 187.910156 56.515625 188.722656 56.355469 189.667969 L 54.613281 199.855469 C 54.484375 200.625 54.21875 200.679688 53.808594 200.023438 C 50.480469 194.601562 46.769531 189.417969 42.683594 184.472656 C 42.535156 184.300781 42.441406 184.324219 42.398438 184.539062 C 40.886719 191.847656 41.761719 198.839844 45.027344 205.507812 C 46.519531 208.558594 48.980469 210.738281 52.410156 212.046875 C 52.648438 212.132812 52.8125 212.363281 52.828125 212.632812 L 53.5 226.210938 C 53.542969 227.023438 53.324219 227.105469 52.847656 226.453125 C 48.699219 220.703125 43.753906 215.660156 38.011719 211.320312 C 37.667969 211.058594 37.503906 211.144531 37.519531 211.574219 C 37.667969 217.214844 38.933594 222.445312 41.3125 227.277344 C 42.863281 230.433594 44.90625 233.003906 47.4375 234.984375 C 48.371094 235.707031 49.394531 236.269531 50.511719 236.675781 C 51.621094 237.074219 52.753906 237.375 53.914062 237.578125 C 54.34375 237.65625 54.695312 237.960938 54.820312 238.371094 L 58.476562 250.429688 C 58.648438 250.976562 58.492188 251.085938 58.019531 250.753906 C 53.882812 247.847656 49.722656 245.09375 45.546875 242.492188 C 43.558594 241.25 41.890625 240.371094 40.542969 239.867188 C 40.332031 239.78125 40.246094 239.851562 40.285156 240.078125 C 41.921875 248.804688 46.3125 255.527344 53.453125 260.25 C 55.070312 261.316406 56.625 262.09375 58.121094 262.578125 C 59.816406 263.125 61.550781 263.421875 63.328125 263.472656 C 63.617188 263.484375 63.875 263.648438 64.011719 263.894531 L 69.785156 274.300781 C 70.113281 274.890625 69.972656 275.042969 69.359375 274.753906 C 63.058594 271.785156 56.414062 269.167969 49.421875 266.890625 C 49.152344 266.804688 49.074219 266.890625 49.1875 267.152344 C 51.0625 271.410156 53.585938 275.078125 56.765625 278.160156 C 62.023438 283.246094 68.605469 285.480469 76.519531 284.867188 C 76.8125 284.847656 77.09375 284.960938 77.277344 285.171875 L 86.699219 295.914062 C 86.839844 296.074219 86.886719 296.257812 86.820312 296.355469 C 86.753906 296.441406 86.621094 296.445312 86.421875 296.367188 C 82.464844 294.722656 78.359375 293.613281 74.113281 293.042969 C 71.074219 292.632812 68.035156 292.226562 65 291.832031 C 64.78125 291.800781 64.730469 291.875 64.855469 292.058594 C 66.867188 294.941406 69.441406 297.5625 72.566406 299.933594 C 77.117188 303.375 82.113281 305.402344 87.558594 306.019531 C 90.792969 306.382812 93.882812 305.976562 96.824219 304.804688 C 97.148438 304.671875 97.515625 304.707031 97.804688 304.902344 C 101.558594 307.398438 105.144531 310.097656 108.566406 312.996094 C 109.425781 313.722656 109.3125 313.941406 108.226562 313.65625 C 106.472656 313.1875 104.6875 313.03125 102.878906 313.183594 C 98.410156 313.558594 93.699219 314.222656 88.742188 315.183594 C 88.4375 315.242188 88.402344 315.371094 88.640625 315.570312 C 91.464844 317.890625 94.464844 319.753906 97.640625 321.171875 C 101.148438 322.734375 104.53125 323.546875 107.78125 323.605469 C 112.636719 323.695312 117.167969 322.28125 121.375 319.375 C 121.546875 319.253906 121.769531 319.234375 121.953125 319.320312 C 125.800781 321.09375 129.492188 323.054688 133.027344 325.207031 C 133.917969 325.746094 133.84375 326.066406 132.808594 326.164062 C 126.609375 326.742188 120.726562 328.382812 115.164062 331.089844 C 114.667969 331.335938 114.667969 331.578125 115.164062 331.816406 C 120.367188 334.3125 125.851562 335.605469 131.632812 335.695312 C 137.4375 335.777344 142.328125 334.039062 146.316406 330.472656 C 146.738281 330.097656 147.328125 329.96875 147.878906 330.128906 C 157.550781 333 166.890625 335.273438 175.898438 336.945312 C 177.101562 337.171875 177.105469 337.414062 175.914062 337.675781 C 166.378906 339.769531 158.496094 344.742188 152.257812 352.578125 C 151.757812 353.207031 151.910156 353.472656 152.703125 353.367188 C 158.714844 352.625 164.191406 351.089844 169.144531 348.773438 C 174.53125 346.238281 179.675781 343.207031 184.574219 339.671875 C 184.738281 339.550781 184.964844 339.550781 185.128906 339.671875 C 193.40625 345.59375 202.460938 349.867188 212.296875 352.496094 C 213.597656 352.839844 215.019531 353.042969 216.566406 353.105469 C 217.054688 353.125 217.152344 352.9375 216.859375 352.550781 C 213.125 347.566406 208.402344 343.589844 202.6875 340.625 C 200.257812 339.363281 197.683594 338.460938 194.972656 337.910156 C 193.445312 337.605469 193.449219 337.328125 194.996094 337.078125 C 204.625 335.53125 214.148438 333.105469 223.558594 329.804688 C 223.746094 329.734375 223.960938 329.78125 224.109375 329.929688 C 228.125 333.894531 232.878906 335.851562 238.375 335.804688 C 244.707031 335.75 250.53125 334.234375 255.847656 331.261719 C 256.433594 330.933594 256.414062 330.632812 255.800781 330.363281 C 249.832031 327.707031 243.664062 326.253906 237.296875 326.007812 C 236.597656 325.976562 236.566406 325.808594 237.199219 325.503906 L 249.648438 319.460938 C 249.957031 319.316406 250.316406 319.335938 250.589844 319.523438 C 254.140625 321.910156 257.921875 323.226562 261.945312 323.472656 C 265.347656 323.683594 268.933594 322.976562 272.699219 321.351562 C 276.015625 319.921875 279.203125 317.996094 282.265625 315.574219 C 282.550781 315.34375 282.515625 315.179688 282.15625 315.085938 C 275.402344 313.320312 268.84375 312.730469 262.484375 313.324219 C 262.25 313.347656 262.226562 313.289062 262.414062 313.152344 L 273.519531 304.898438 C 273.675781 304.78125 273.898438 304.742188 274.117188 304.796875 C 282.847656 307.046875 290.84375 305.480469 298.105469 300.09375 C 301.195312 297.804688 303.726562 295.167969 305.699219 292.183594 C 305.820312 292 305.769531 291.917969 305.546875 291.9375 C 302.320312 292.28125 299.101562 292.671875 295.890625 293.113281 C 292.113281 293.632812 288.457031 294.613281 284.921875 296.0625 C 284.234375 296.34375 284.117188 296.191406 284.5625 295.59375 C 287.144531 292.175781 290.164062 288.679688 293.621094 285.109375 C 293.867188 284.855469 294.210938 284.722656 294.558594 284.742188 C 300.773438 285.125 306.191406 283.386719 310.820312 279.535156 C 314.796875 276.222656 317.875 272.210938 320.058594 267.5 C 320.253906 267.066406 320.136719 266.933594 319.699219 267.097656 L 301.003906 274.144531 C 300.585938 274.304688 300.488281 274.199219 300.710938 273.824219 L 306.871094 263.535156 C 307.023438 263.289062 307.304688 263.144531 307.617188 263.144531 C 309.875 263.152344 311.980469 262.667969 313.941406 261.695312 C 322.609375 257.359375 327.984375 250.277344 330.070312 240.445312 C 330.183594 239.90625 330.003906 239.773438 329.523438 240.046875 C 323.769531 243.375 318.210938 246.878906 312.851562 250.558594 C 312.128906 251.050781 311.894531 250.875 312.152344 250.035156 Z M 315.695312 238.457031 " fill-opacity="1" fill-rule="nonzero"/></g><path fill="#bc813d" d="M 189.140625 141.058594 C 189.648438 141.269531 190.132812 141.527344 190.589844 141.832031 C 191.046875 142.136719 191.46875 142.484375 191.855469 142.875 C 192.246094 143.261719 192.59375 143.683594 192.898438 144.140625 C 193.203125 144.601562 193.460938 145.082031 193.671875 145.589844 C 193.882812 146.097656 194.042969 146.621094 194.148438 147.160156 C 194.257812 147.699219 194.308594 148.246094 194.308594 148.796875 C 194.308594 149.34375 194.257812 149.890625 194.148438 150.429688 C 194.042969 150.96875 193.882812 151.492188 193.671875 152 C 193.460938 152.507812 193.203125 152.992188 192.898438 153.449219 C 192.59375 153.90625 192.246094 154.328125 191.855469 154.71875 C 191.46875 155.105469 191.046875 155.453125 190.589844 155.757812 C 190.132812 156.0625 189.648438 156.320312 189.140625 156.53125 C 188.632812 156.742188 188.109375 156.902344 187.570312 157.007812 C 187.03125 157.117188 186.484375 157.167969 185.933594 157.167969 C 185.386719 157.167969 184.839844 157.117188 184.300781 157.007812 C 183.761719 156.902344 183.238281 156.742188 182.730469 156.53125 C 182.222656 156.320312 181.738281 156.0625 181.28125 155.757812 C 180.824219 155.453125 180.402344 155.105469 180.015625 154.71875 C 179.625 154.328125 179.277344 153.90625 178.972656 153.449219 C 178.667969 152.992188 178.410156 152.507812 178.199219 152 C 177.988281 151.492188 177.828125 150.96875 177.722656 150.429688 C 177.613281 149.890625 177.5625 149.34375 177.5625 148.796875 C 177.5625 148.246094 177.613281 147.699219 177.722656 147.160156 C 177.828125 146.621094 177.988281 146.097656 178.199219 145.589844 C 178.410156 145.082031 178.667969 144.601562 178.972656 144.140625 C 179.277344 143.683594 179.625 143.261719 180.015625 142.875 C 180.402344 142.484375 180.824219 142.136719 181.28125 141.832031 C 181.738281 141.527344 182.222656 141.269531 182.730469 141.058594 C 183.238281 140.847656 183.761719 140.6875 184.300781 140.582031 C 184.839844 140.472656 185.386719 140.421875 185.933594 140.421875 C 186.484375 140.421875 187.03125 140.472656 187.570312 140.582031 C 188.109375 140.6875 188.632812 140.847656 189.140625 141.058594 Z M 189.140625 141.058594 " fill-opacity="1" fill-rule="nonzero"/><path fill="#bc813d" d="M 274.03125 245.808594 C 273.835938 245.710938 273.695312 245.535156 273.640625 245.320312 C 272.183594 239.703125 270.5625 234.179688 268.777344 228.742188 C 263.96875 214.121094 259.050781 199.53125 254.027344 184.976562 C 253.617188 183.773438 253.257812 182.808594 252.953125 182.082031 C 254.5 180.960938 255.507812 179.140625 255.507812 177.085938 C 255.507812 174.878906 254.347656 172.945312 252.605469 171.855469 C 252.90625 171.78125 253.183594 171.707031 253.445312 171.621094 C 256.339844 171.105469 258.542969 168.582031 258.542969 165.539062 C 258.542969 163.335938 257.390625 161.410156 255.65625 160.3125 C 254.832031 159.722656 253.921875 159.40625 252.933594 159.359375 C 253.691406 160.238281 254.1875 161.34375 254.308594 162.550781 C 254.675781 166.238281 251.605469 169.308594 247.917969 168.941406 C 247.640625 168.917969 247.375 168.863281 247.109375 168.796875 C 247.121094 168.820312 247.132812 168.839844 247.148438 168.859375 C 229.488281 165.792969 211.875 162.898438 194.3125 160.175781 C 188.648438 159.300781 183.101562 159.265625 177.671875 160.078125 C 161.230469 162.527344 143.734375 165.488281 125.191406 168.960938 C 125.199219 168.949219 125.207031 168.933594 125.214844 168.917969 C 124.777344 168.976562 124.324219 168.984375 123.859375 168.941406 C 121.136719 168.667969 118.929688 166.464844 118.65625 163.738281 C 118.492188 162.058594 119.039062 160.511719 120.035156 159.351562 C 119.59375 159.351562 119.167969 159.402344 118.753906 159.488281 C 118.554688 159.523438 118.351562 159.566406 118.144531 159.625 C 116.882812 159.96875 115.886719 160.675781 115.15625 161.753906 C 114.34375 162.796875 113.855469 164.109375 113.855469 165.535156 C 113.855469 165.597656 113.867188 165.65625 113.867188 165.71875 C 113.800781 167.089844 114.1875 168.300781 115.03125 169.34375 C 115.886719 170.40625 116.988281 171.203125 118.324219 171.738281 C 116.484375 172.8125 115.242188 174.800781 115.242188 177.085938 C 115.242188 179.382812 116.496094 181.378906 118.351562 182.445312 C 116.757812 187.648438 115.027344 192.828125 113.152344 197.984375 C 109.359375 208.402344 105.691406 218.863281 102.144531 229.371094 C 99.765625 236.410156 98.125 241.898438 97.226562 245.832031 C 97.183594 246.019531 97.019531 246.160156 96.824219 246.175781 C 95.308594 246.300781 94.433594 247.085938 94.203125 248.53125 C 93.800781 251.050781 94.679688 252.777344 96.84375 253.710938 C 97.242188 253.882812 97.828125 253.984375 98.601562 254.011719 C 99.207031 254.035156 99.808594 254.109375 100.402344 254.238281 C 100.609375 254.28125 100.804688 254.390625 100.960938 254.550781 C 101.992188 255.632812 103.011719 256.726562 104.019531 257.835938 C 106.554688 260.632812 109.515625 262.578125 112.90625 263.675781 C 115.9375 264.65625 119.351562 265.042969 123.148438 264.839844 C 130.515625 264.4375 136.46875 261.074219 141.019531 254.75 C 141.148438 254.578125 141.34375 254.46875 141.542969 254.457031 C 142.078125 254.433594 142.605469 254.433594 143.132812 254.457031 C 143.914062 254.488281 144.542969 254.433594 145.015625 254.296875 C 148.09375 253.414062 149.265625 251.34375 148.535156 248.078125 C 148.421875 247.546875 148.234375 247.136719 147.980469 246.847656 C 147.625 246.449219 147.203125 246.226562 146.714844 246.183594 C 146.332031 246.152344 146.007812 245.878906 145.910156 245.507812 C 144.398438 239.621094 142.773438 233.996094 141.042969 228.628906 C 136.101562 213.320312 130.886719 198.101562 125.398438 182.984375 C 125.308594 182.726562 125.167969 182.445312 124.992188 182.136719 C 126.574219 181.015625 127.613281 179.175781 127.613281 177.085938 C 127.613281 174.894531 126.472656 172.976562 124.753906 171.878906 C 128.90625 171.332031 134.570312 170.5 141.757812 169.386719 C 154.609375 167.402344 167.304688 165.390625 179.832031 163.347656 C 179.847656 163.34375 179.871094 163.34375 179.886719 163.34375 C 180.207031 163.324219 180.480469 163.566406 180.496094 163.886719 C 181.644531 188.710938 182.15625 213.542969 182.039062 238.386719 C 182.015625 243.285156 181.929688 247.71875 181.78125 251.679688 C 181.449219 260.320312 180.964844 267.359375 180.332031 272.800781 C 179.710938 278.140625 178.878906 283.019531 177.835938 287.429688 C 176.980469 291.058594 175.765625 294.640625 174.1875 298.183594 C 172.617188 301.710938 170.921875 304.578125 169.105469 306.789062 C 166.960938 309.390625 164.425781 311.621094 161.503906 313.472656 C 158.46875 315.402344 155.386719 317.265625 152.269531 319.070312 C 151.148438 319.714844 151.222656 320.148438 152.5 320.371094 C 163.34375 322.226562 173.886719 322.0625 184.140625 319.863281 C 185.121094 319.65625 186.109375 319.644531 187.105469 319.824219 C 197.515625 321.746094 207.621094 322.03125 217.417969 320.679688 C 219.027344 320.460938 219.1875 319.851562 217.898438 318.863281 C 216.804688 318.027344 215.464844 317.195312 213.886719 316.378906 C 208.796875 313.726562 204.636719 310.175781 201.40625 305.730469 C 199.261719 302.785156 197.355469 298.808594 195.679688 293.796875 C 193.765625 288.078125 192.472656 282.40625 191.808594 276.785156 C 189.632812 258.324219 188.710938 238.980469 189.042969 218.757812 C 189.347656 200.410156 189.878906 182.070312 190.632812 163.730469 C 190.632812 163.71875 190.636719 163.703125 190.636719 163.691406 C 190.660156 163.527344 190.8125 163.417969 190.972656 163.441406 L 245.941406 171.902344 C 244.257812 173.003906 243.144531 174.90625 243.144531 177.074219 C 243.144531 179.285156 244.304688 181.214844 246.050781 182.3125 C 246.019531 182.363281 245.992188 182.417969 245.972656 182.46875 C 242.375 192.886719 238.730469 203.292969 235.042969 213.6875 C 231.730469 223.011719 228.652344 232.414062 225.808594 241.890625 C 225.484375 242.972656 225.222656 244.1875 225.011719 245.539062 C 224.976562 245.746094 224.835938 245.921875 224.636719 245.996094 C 222.578125 246.769531 221.609375 248.042969 221.730469 249.820312 C 221.824219 251.21875 222.382812 252.355469 223.414062 253.238281 C 224.484375 254.171875 225.859375 254.484375 227.53125 254.175781 C 228.175781 254.054688 228.839844 254.285156 229.277344 254.785156 C 230.488281 256.15625 231.710938 257.441406 232.953125 258.640625 C 234.410156 260.050781 235.816406 261.125 237.171875 261.867188 C 240.523438 263.703125 244.355469 264.683594 248.671875 264.8125 C 257.570312 265.074219 264.433594 261.785156 269.261719 254.949219 C 269.382812 254.777344 269.574219 254.675781 269.777344 254.675781 C 271.472656 254.695312 272.988281 254.304688 274.320312 253.507812 C 275.765625 252.640625 276.585938 251.488281 276.78125 250.042969 C 277.019531 248.261719 276.105469 246.847656 274.03125 245.808594 Z M 147.746094 249.40625 C 147.75 249.351562 147.753906 249.296875 147.757812 249.25 C 147.753906 249.300781 147.75 249.351562 147.746094 249.40625 C 147.742188 249.4375 147.738281 249.464844 147.730469 249.496094 C 147.738281 249.46875 147.742188 249.4375 147.746094 249.40625 Z M 147.621094 248.605469 C 147.582031 248.558594 147.542969 248.535156 147.492188 248.527344 C 147.539062 248.53125 147.582031 248.558594 147.621094 248.605469 Z M 147.296875 250.203125 C 147.21875 250.195312 147.152344 250.125 147.105469 250.007812 C 147.152344 250.125 147.21875 250.195312 147.296875 250.203125 Z M 119.929688 248.984375 C 119.929688 248.988281 119.929688 248.992188 119.929688 248.992188 C 119.929688 249.171875 119.785156 249.316406 119.609375 249.316406 L 103.148438 249.351562 C 102.714844 249.355469 102.339844 249.035156 102.269531 248.597656 C 102.074219 247.335938 101.582031 246.488281 100.789062 246.050781 C 100.730469 246.019531 100.515625 245.984375 100.144531 245.945312 L 98.847656 245.8125 C 98.832031 245.8125 98.816406 245.808594 98.804688 245.804688 C 98.648438 245.757812 98.566406 245.570312 98.613281 245.382812 C 101.46875 234.84375 104.785156 224.453125 108.554688 214.210938 C 112.113281 204.5625 115.535156 194.871094 118.832031 185.132812 C 119.078125 184.402344 119.417969 183.707031 119.851562 183.058594 C 120.039062 183.105469 120.230469 183.148438 120.425781 183.179688 C 120.425781 183.195312 120.425781 183.210938 120.425781 183.230469 C 119.863281 205.089844 119.699219 227.007812 119.929688 248.984375 Z M 144.613281 245.257812 C 144.613281 245.257812 144.617188 245.261719 144.617188 245.265625 C 144.660156 245.441406 144.558594 245.617188 144.382812 245.660156 C 143.792969 245.808594 143.199219 245.925781 142.605469 246.015625 C 141.199219 246.226562 140.472656 247.066406 140.421875 248.535156 C 140.410156 248.996094 140.03125 249.363281 139.574219 249.363281 L 121.34375 249.320312 C 121.335938 249.320312 121.324219 249.320312 121.3125 249.320312 C 121.144531 249.308594 121.019531 249.15625 121.035156 248.992188 C 121.070312 248.589844 121.121094 248.195312 121.1875 247.800781 C 121.261719 247.351562 121.300781 246.953125 121.300781 246.597656 C 121.390625 227.953125 121.566406 209.3125 121.824219 190.671875 C 121.863281 188.191406 121.953125 185.710938 122.09375 183.234375 C 122.65625 183.171875 123.195312 183.035156 123.699219 182.832031 C 123.816406 182.976562 123.914062 183.136719 123.980469 183.316406 C 131.824219 203.828125 138.703125 224.472656 144.613281 245.257812 Z M 249.316406 188.671875 C 249.144531 208.804688 249.105469 228.941406 249.203125 249.074219 C 249.203125 249.253906 249.054688 249.398438 248.871094 249.398438 L 230.742188 249.359375 C 230.382812 249.359375 230.085938 249.078125 230.078125 248.71875 C 230.042969 247.648438 229.558594 246.769531 228.613281 246.09375 C 228.511719 246.019531 228.308594 245.960938 228.007812 245.925781 L 226.734375 245.757812 C 226.734375 245.757812 226.730469 245.757812 226.726562 245.757812 C 226.558594 245.730469 226.445312 245.539062 226.476562 245.328125 C 226.96875 242.382812 227.769531 239.179688 228.878906 235.726562 C 234.78125 217.3125 240.910156 199.894531 247.273438 183.464844 C 247.34375 183.28125 247.414062 183.128906 247.488281 182.996094 C 247.976562 183.144531 248.488281 183.230469 249.023438 183.257812 C 249.242188 183.871094 249.339844 185.675781 249.316406 188.671875 Z M 270.242188 248.984375 C 270.25 248.839844 270.28125 248.703125 270.332031 248.582031 C 270.28125 248.703125 270.25 248.839844 270.242188 248.984375 C 270.222656 249.308594 270.308594 249.601562 270.460938 249.777344 C 270.308594 249.601562 270.21875 249.308594 270.242188 248.984375 Z M 270.796875 249.960938 C 270.8125 249.960938 270.824219 249.960938 270.839844 249.960938 C 270.824219 249.960938 270.8125 249.960938 270.796875 249.960938 Z M 271.011719 249.917969 C 271.21875 249.820312 271.386719 249.570312 271.449219 249.253906 C 271.386719 249.570312 271.21875 249.820312 271.011719 249.917969 Z M 270.917969 248.089844 C 271.082031 248.101562 271.21875 248.203125 271.320312 248.359375 C 271.21875 248.203125 271.082031 248.101562 270.917969 248.089844 Z M 271.941406 245.667969 C 269.546875 245.839844 268.261719 246.882812 268.09375 248.792969 C 268.0625 249.140625 267.773438 249.40625 267.421875 249.40625 L 250.949219 249.398438 C 250.765625 249.398438 250.625 249.25 250.625 249.066406 L 250.828125 183.074219 C 251.125 183 251.417969 182.910156 251.699219 182.792969 C 251.738281 182.863281 251.773438 182.9375 251.804688 183.027344 C 259.378906 203.523438 266.238281 224.1875 272.390625 245.023438 C 272.402344 245.058594 272.40625 245.09375 272.410156 245.132812 C 272.429688 245.40625 272.21875 245.644531 271.941406 245.667969 Z M 271.941406 245.667969 " fill-opacity="1" fill-rule="nonzero"/></svg>