<svg xmlns="http://www.w3.org/2000/svg" xmlns:xlink="http://www.w3.org/1999/xlink" width="500" zoomAndPan="magnify" viewBox="0 0 375 374.999991" height="500" preserveAspectRatio="xMidYMid meet" version="1.0"><defs><clipPath id="a04f4dbc10"><path d="M 118.679688 11.4375 L 177.929688 11.4375 L 177.929688 67.6875 L 118.679688 67.6875 Z M 118.679688 11.4375 " clip-rule="nonzero"/></clipPath><clipPath id="c0cbd02400"><path d="M 46.316406 111.902344 L 328.316406 111.902344 L 328.316406 363.902344 L 46.316406 363.902344 Z M 46.316406 111.902344 " clip-rule="nonzero"/></clipPath><clipPath id="8122cdbba9"><path d="M 197.273438 11.4375 L 256.523438 11.4375 L 256.523438 67.6875 L 197.273438 67.6875 Z M 197.273438 11.4375 " clip-rule="nonzero"/></clipPath></defs><g clip-path="url(#a04f4dbc10)"><path fill="#a6a6a6" d="M 148.273438 11.636719 L 157.371094 30.074219 L 177.71875 33.03125 L 162.992188 47.394531 L 166.476562 67.660156 L 148.273438 58.089844 L 130.058594 67.660156 L 133.535156 47.394531 L 118.820312 33.03125 L 139.167969 30.074219 Z M 148.273438 11.636719 " fill-opacity="1" fill-rule="nonzero"/><path fill="#a6a6a6" d="M 148.132812 11.457031 L 157.242188 29.898438 L 177.589844 32.855469 L 162.859375 47.21875 L 166.335938 67.480469 L 148.132812 57.914062 L 129.929688 67.480469 L 133.40625 47.21875 L 118.679688 32.855469 L 139.027344 29.898438 Z M 148.132812 11.457031 " fill-opacity="1" fill-rule="nonzero"/><path fill="#a6a6a6" d="M 148.132812 11.457031 L 157.242188 29.898438 L 177.589844 32.855469 L 162.859375 47.21875 L 166.335938 67.480469 L 148.132812 57.914062 L 129.929688 67.480469 L 133.40625 47.21875 L 118.679688 32.855469 L 139.027344 29.898438 Z M 148.132812 11.457031 " fill-opacity="1" fill-rule="nonzero"/><path fill="#a6a6a6" d="M 148.132812 11.457031 L 157.242188 29.898438 L 177.589844 32.855469 L 162.859375 47.21875 L 166.335938 67.480469 L 148.132812 57.914062 L 129.929688 67.480469 L 133.40625 47.21875 L 118.679688 32.855469 L 139.027344 29.898438 Z M 148.132812 11.457031 " fill-opacity="1" fill-rule="nonzero"/></g><g clip-path="url(#c0cbd02400)"><path fill="#a6a6a6" d="M 312.007812 253.667969 C 312.128906 253.277344 312.449219 252.992188 312.839844 252.921875 C 315.574219 252.476562 317.957031 251.394531 319.988281 249.683594 C 321.601562 248.320312 323.113281 246.292969 324.527344 243.597656 C 327.023438 238.847656 328.398438 233.742188 328.648438 228.277344 C 328.671875 227.898438 328.53125 227.824219 328.230469 228.0625 C 323.019531 232.207031 318.1875 236.835938 313.734375 241.941406 C 313.269531 242.472656 313.070312 242.386719 313.132812 241.6875 L 314.226562 229.425781 C 314.257812 229.070312 314.484375 228.757812 314.820312 228.613281 C 318.292969 227.136719 320.808594 224.875 322.367188 221.828125 C 323.574219 219.46875 324.363281 216.347656 324.742188 212.460938 C 325.0625 209.144531 324.832031 205.796875 324.046875 202.421875 C 323.929688 201.90625 323.710938 201.855469 323.386719 202.265625 C 319.519531 207.195312 316 212.394531 312.820312 217.867188 C 312.710938 218.046875 312.644531 218.03125 312.609375 217.828125 L 310.671875 206.734375 C 310.566406 206.140625 310.734375 205.542969 311.121094 205.113281 C 315.707031 200.027344 317.699219 194.222656 317.09375 187.699219 C 316.765625 184.152344 315.886719 180.582031 314.472656 176.980469 C 314.371094 176.726562 314.25 176.71875 314.109375 176.949219 C 310.980469 182.164062 308.367188 187.535156 306.269531 193.0625 C 306.164062 193.34375 306.046875 193.347656 305.921875 193.078125 L 301.472656 183.429688 C 301.167969 182.773438 301.171875 182.117188 301.484375 181.460938 C 303.75 176.683594 304.605469 171.878906 304.042969 167.054688 C 303.488281 162.25 301.796875 157.8125 298.960938 153.742188 C 298.664062 153.320312 298.410156 153.339844 298.191406 153.8125 C 297.769531 154.738281 297.433594 155.835938 297.1875 157.109375 C 296.359375 161.402344 295.4375 165.871094 294.429688 170.515625 C 294.359375 170.835938 294.21875 170.871094 294.011719 170.613281 L 287.039062 161.828125 C 286.59375 161.269531 286.457031 160.667969 286.628906 160.019531 C 288.582031 152.570312 287.792969 145.371094 284.261719 138.425781 C 283.285156 136.503906 282.027344 134.785156 280.488281 133.269531 C 280.277344 133.054688 280.132812 133.097656 280.0625 133.390625 C 278.738281 138.871094 278.050781 144.429688 278 150.070312 C 278 150.285156 277.921875 150.3125 277.769531 150.15625 L 269.691406 141.984375 C 269.152344 141.4375 268.9375 140.777344 269.046875 140.007812 C 269.320312 138.097656 269.046875 136.015625 268.234375 133.765625 C 265.574219 126.394531 261.160156 120.503906 254.984375 116.09375 C 254.1875 115.527344 253.816406 115.730469 253.863281 116.707031 C 254.136719 122.308594 255.273438 127.648438 257.28125 132.722656 C 257.441406 133.132812 257.347656 133.199219 257 132.925781 C 253.777344 130.371094 250.523438 127.90625 247.234375 125.53125 C 243.207031 122.617188 239.765625 120.429688 236.914062 118.964844 C 230.621094 115.730469 223.933594 113.519531 216.851562 112.335938 C 215.59375 112.128906 214.320312 112.054688 213.035156 112.117188 C 212.777344 112.128906 212.746094 112.222656 212.933594 112.394531 C 216.265625 115.542969 219.75 118.476562 223.386719 121.191406 C 228.210938 124.800781 231.734375 127.136719 233.957031 128.199219 C 237.734375 130.011719 242.042969 131.09375 246.875 131.445312 C 247.816406 131.515625 248.636719 131.828125 249.324219 132.378906 L 255.398438 137.25 C 256.609375 138.21875 256.445312 138.59375 254.90625 138.371094 C 248.222656 137.417969 242.570312 139.0625 237.9375 143.300781 C 237.917969 143.320312 237.902344 143.34375 237.890625 143.371094 C 237.835938 143.476562 237.882812 143.605469 237.992188 143.65625 C 246.777344 148.03125 255.976562 148.636719 265.582031 145.476562 C 266.007812 145.335938 266.46875 145.433594 266.777344 145.734375 L 274.558594 153.382812 C 275.210938 154.023438 275.09375 154.21875 274.210938 153.976562 C 273.398438 153.753906 272.621094 153.550781 271.871094 153.367188 C 271.070312 153.171875 270.277344 153.070312 269.488281 153.070312 C 265.03125 153.070312 260.429688 153.664062 255.6875 154.847656 C 255.414062 154.917969 255.390625 155.035156 255.609375 155.207031 C 264 161.460938 273.25 164.472656 283.359375 164.246094 C 283.5625 164.242188 283.753906 164.324219 283.886719 164.472656 C 286.503906 167.371094 288.777344 170.527344 290.710938 173.929688 C 290.8125 174.113281 290.761719 174.167969 290.566406 174.089844 C 284.113281 171.660156 277.433594 170.214844 270.523438 169.757812 C 270.140625 169.734375 270.0625 169.875 270.296875 170.179688 C 271.75 172.082031 273.351562 173.917969 275.097656 175.675781 C 280.558594 181.199219 287.804688 184.363281 296.828125 185.167969 C 297.0625 185.1875 297.273438 185.324219 297.386719 185.527344 C 299.347656 189.085938 301.039062 192.664062 302.460938 196.265625 C 302.539062 196.453125 302.484375 196.496094 302.304688 196.386719 C 298.820312 194.242188 295.109375 192.632812 291.167969 191.5625 C 288.78125 190.914062 286.425781 190.285156 284.109375 189.675781 C 283.535156 189.523438 283.398438 189.703125 283.699219 190.210938 C 285.121094 192.601562 286.695312 194.871094 288.433594 197.015625 C 290.476562 199.542969 292.449219 201.449219 294.347656 202.730469 C 297.617188 204.9375 301.457031 206.3125 305.859375 206.867188 C 306.308594 206.921875 306.660156 207.242188 306.730469 207.652344 L 308.554688 218.4375 C 308.617188 218.8125 308.503906 218.878906 308.207031 218.621094 C 303.625 214.671875 298.433594 211.820312 292.636719 210.066406 C 292.609375 210.058594 292.582031 210.054688 292.550781 210.0625 C 292.4375 210.078125 292.359375 210.179688 292.378906 210.289062 C 293.566406 218.433594 297.859375 224.242188 305.25 227.71875 C 306.53125 228.320312 307.953125 228.699219 309.519531 228.855469 C 309.703125 228.871094 309.835938 229.03125 309.820312 229.210938 L 309.09375 240.96875 C 309.054688 241.714844 308.8125 241.789062 308.378906 241.1875 C 305.21875 236.804688 301.242188 232.984375 296.445312 229.726562 C 296.398438 229.699219 296.347656 229.679688 296.296875 229.675781 C 296.128906 229.664062 295.980469 229.789062 295.96875 229.957031 C 295.78125 232.289062 295.757812 234.71875 295.890625 237.25 C 296.011719 239.503906 296.519531 241.503906 297.414062 243.246094 C 299.59375 247.46875 302.742188 250.515625 306.867188 252.390625 C 307.289062 252.582031 307.515625 253.050781 307.40625 253.503906 C 306.421875 257.503906 305.179688 261.390625 303.683594 265.164062 C 303.449219 265.765625 303.253906 265.75 303.113281 265.125 C 302.285156 261.535156 300.914062 257.996094 299.003906 254.519531 C 297.785156 252.292969 296.527344 250.574219 295.230469 249.367188 C 295.207031 249.347656 295.179688 249.332031 295.152344 249.320312 C 295.042969 249.289062 294.929688 249.351562 294.890625 249.460938 C 293.785156 252.8125 293.148438 256.257812 292.980469 259.796875 C 292.699219 265.675781 294.578125 270.722656 298.617188 274.925781 C 298.84375 275.167969 298.898438 275.515625 298.753906 275.789062 L 293.5625 285.417969 C 293.402344 285.710938 293.300781 285.691406 293.25 285.359375 C 292.332031 279.777344 290.527344 274.644531 287.832031 269.957031 C 287.480469 269.34375 287.167969 269.363281 286.886719 270.011719 C 285.253906 273.84375 284.246094 278.011719 283.863281 282.515625 C 283.511719 286.683594 284.382812 290.734375 286.484375 294.675781 C 286.90625 295.457031 286.851562 296.160156 286.320312 296.78125 L 278.882812 305.546875 C 278.71875 305.738281 278.636719 305.703125 278.640625 305.445312 C 278.703125 300.054688 277.988281 294.628906 276.488281 289.160156 C 276.476562 289.121094 276.457031 289.082031 276.425781 289.046875 C 276.320312 288.933594 276.148438 288.925781 276.039062 289.027344 C 274.960938 289.996094 274.125 290.992188 273.527344 292.011719 C 271.589844 295.3125 270.101562 298.808594 269.070312 302.496094 C 268.101562 305.929688 268.039062 309.378906 268.878906 312.835938 C 268.925781 313.027344 268.867188 313.230469 268.726562 313.363281 C 265.515625 316.34375 262.191406 319.015625 258.75 321.378906 C 258.402344 321.613281 258.300781 321.539062 258.445312 321.140625 C 259.285156 318.832031 259.75 316.589844 259.835938 314.421875 C 259.953125 311.179688 259.820312 307.949219 259.429688 304.738281 C 259.359375 304.179688 259.109375 304.082031 258.679688 304.441406 C 252.792969 309.390625 249.066406 315.648438 247.5 323.210938 C 247.328125 324.027344 247.222656 325.078125 247.175781 326.359375 C 247.164062 326.65625 247.003906 326.921875 246.75 327.054688 L 236.550781 332.675781 C 236.109375 332.917969 236.019531 332.820312 236.285156 332.390625 C 239.40625 327.269531 240.96875 321.714844 240.96875 315.726562 C 240.96875 315.699219 240.96875 315.675781 240.960938 315.652344 C 240.921875 315.519531 240.785156 315.445312 240.65625 315.484375 C 239.304688 315.863281 238.066406 316.480469 236.933594 317.332031 C 231.433594 321.457031 227.109375 326.726562 223.957031 333.144531 C 223.816406 333.441406 223.570312 333.671875 223.265625 333.789062 C 212.605469 338.035156 201.734375 340.773438 190.664062 342 C 188.386719 342.257812 186.109375 342.226562 183.835938 341.917969 C 172.925781 340.425781 162.347656 337.734375 152.089844 333.839844 C 151.40625 333.574219 150.886719 333.121094 150.542969 332.480469 C 148.070312 327.898438 145.023438 323.742188 141.402344 320.011719 C 139.496094 318.046875 137.242188 316.546875 134.636719 315.519531 C 134.542969 315.480469 134.441406 315.46875 134.339844 315.476562 C 133.992188 315.507812 133.734375 315.820312 133.765625 316.167969 C 134.308594 322.132812 135.957031 327.546875 138.714844 332.402344 C 138.949219 332.816406 138.875 332.882812 138.492188 332.601562 C 135.601562 330.457031 132.355469 328.496094 128.746094 326.722656 C 128.554688 326.625 128.429688 326.433594 128.421875 326.222656 C 128.375 324.683594 128.132812 323.203125 127.6875 321.769531 C 126.121094 316.761719 123.679688 312.234375 120.363281 308.175781 C 119.117188 306.644531 117.707031 305.375 116.140625 304.367188 C 116.078125 304.328125 116.003906 304.304688 115.929688 304.296875 C 115.671875 304.277344 115.449219 304.46875 115.429688 304.722656 C 115.1875 307.890625 115.160156 310.957031 115.347656 313.921875 C 115.503906 316.347656 116.050781 318.683594 117 320.929688 C 117.269531 321.566406 117.136719 321.671875 116.597656 321.246094 L 106.90625 313.5 C 106.761719 313.386719 106.707031 313.1875 106.761719 312.996094 C 107.40625 310.675781 107.644531 308.816406 107.464844 307.417969 C 106.605469 300.710938 104.003906 294.679688 99.660156 289.335938 C 99.089844 288.640625 98.710938 288.730469 98.507812 289.601562 C 97.320312 294.78125 96.796875 300.101562 96.945312 305.5625 C 96.953125 305.851562 96.859375 305.890625 96.675781 305.679688 L 88.285156 296.296875 C 88.035156 296.011719 88 295.582031 88.203125 295.230469 C 90.90625 290.503906 91.804688 285.601562 90.890625 280.53125 C 90.515625 278.453125 89.980469 276.492188 89.277344 274.648438 C 88.542969 272.722656 87.539062 270.933594 86.265625 269.28125 C 86.246094 269.257812 86.21875 269.242188 86.195312 269.226562 C 86.09375 269.179688 85.976562 269.214844 85.929688 269.316406 C 83.621094 274.058594 82.066406 279.429688 81.265625 285.429688 C 81.195312 285.96875 81.03125 286.007812 80.777344 285.53125 L 75.53125 275.796875 C 75.441406 275.625 75.464844 275.414062 75.59375 275.253906 C 77.523438 272.839844 78.871094 271.003906 79.640625 269.746094 C 80.839844 267.785156 81.542969 265.414062 81.746094 262.625 C 82.066406 258.214844 81.460938 253.871094 79.933594 249.597656 C 79.757812 249.105469 79.507812 249.066406 79.191406 249.492188 C 75.617188 254.242188 73.03125 259.417969 71.429688 265.015625 C 71.300781 265.464844 71.15625 265.46875 70.996094 265.027344 C 69.527344 261.039062 68.332031 257.074219 67.410156 253.125 C 67.3125 252.71875 67.507812 252.292969 67.886719 252.105469 C 72.328125 249.871094 75.574219 246.835938 77.625 243.007812 C 78.425781 241.5 78.890625 239.894531 79.015625 238.1875 C 79.203125 235.546875 79.265625 232.75 79.195312 229.800781 C 79.183594 229.472656 79.046875 229.40625 78.78125 229.597656 C 74.039062 233.019531 69.867188 237.109375 66.261719 241.863281 C 66.121094 242.046875 66.042969 242.027344 66.035156 241.800781 L 65.269531 229.289062 C 65.257812 229.035156 65.433594 228.804688 65.695312 228.742188 C 75.617188 226.300781 81.363281 220.144531 82.925781 210.273438 C 82.933594 210.242188 82.929688 210.210938 82.917969 210.183594 C 82.886719 210.082031 82.777344 210.023438 82.671875 210.054688 C 77.003906 211.820312 71.894531 214.472656 67.351562 218.007812 C 66.929688 218.332031 66.753906 218.230469 66.820312 217.707031 C 67.226562 214.179688 67.875 210.695312 68.769531 207.253906 C 68.863281 206.867188 69.214844 206.59375 69.613281 206.585938 C 72.121094 206.53125 74.5 205.917969 76.753906 204.738281 C 83.121094 201.386719 87.976562 196.507812 91.320312 190.101562 C 91.464844 189.816406 91.382812 189.703125 91.0625 189.765625 C 84.792969 190.960938 78.722656 193.152344 72.859375 196.332031 C 72.375 196.597656 72.226562 196.46875 72.414062 195.953125 C 73.640625 192.546875 75.199219 189.078125 77.082031 185.546875 C 77.199219 185.332031 77.414062 185.1875 77.660156 185.160156 C 86.421875 184.347656 93.449219 181.273438 98.742188 175.9375 C 100.570312 174.097656 102.261719 172.136719 103.824219 170.058594 C 103.996094 169.824219 103.941406 169.71875 103.65625 169.746094 C 99.179688 170.152344 94.75 170.863281 90.367188 171.875 C 88.464844 172.3125 86.648438 172.984375 84.914062 173.882812 C 84.183594 174.257812 84.019531 174.085938 84.421875 173.367188 C 86.160156 170.261719 88.285156 167.292969 90.785156 164.46875 C 90.917969 164.320312 91.113281 164.234375 91.320312 164.242188 C 101.230469 164.496094 110.058594 161.492188 117.796875 155.234375 C 118.292969 154.835938 118.230469 154.574219 117.609375 154.449219 C 116.304688 154.183594 114.914062 153.960938 113.441406 153.765625 C 113.378906 153.757812 112.15625 153.570312 109.78125 153.195312 C 106.464844 152.675781 103.164062 152.859375 99.878906 153.742188 C 99.675781 153.796875 99.644531 153.746094 99.777344 153.597656 C 102.507812 150.535156 105.515625 147.777344 108.796875 145.328125 C 108.960938 145.207031 109.171875 145.171875 109.355469 145.238281 C 118.128906 148.222656 126.945312 147.671875 135.8125 143.59375 C 135.84375 143.582031 135.875 143.558594 135.902344 143.535156 C 136.046875 143.40625 136.054688 143.183594 135.925781 143.039062 C 132.039062 138.878906 127.316406 137.1875 121.757812 137.964844 C 120.742188 138.109375 119.738281 138.128906 118.738281 138.027344 C 118.527344 138.007812 118.507812 137.929688 118.683594 137.792969 C 121.398438 135.691406 124.199219 133.707031 127.074219 131.839844 C 127.898438 131.300781 128.800781 130.984375 129.785156 130.886719 C 131.285156 130.734375 132.796875 130.617188 134.308594 130.523438 C 136.386719 130.402344 138.863281 129.539062 141.730469 127.9375 C 146.066406 125.523438 150.121094 122.707031 153.894531 119.480469 C 156.574219 117.183594 159.375 114.804688 162.300781 112.347656 C 162.613281 112.089844 162.566406 111.957031 162.160156 111.953125 C 160.191406 111.941406 158.519531 112.066406 157.152344 112.328125 C 146.597656 114.371094 137.011719 118.585938 128.394531 124.960938 C 124.550781 127.804688 120.742188 130.691406 116.964844 133.621094 C 116.804688 133.753906 116.765625 133.722656 116.84375 133.535156 C 119.125 128.199219 120.515625 122.398438 121.023438 116.128906 C 121.0625 115.699219 120.898438 115.601562 120.535156 115.84375 C 113.886719 120.25 109.109375 126.304688 106.199219 134.015625 C 105.527344 135.804688 105.355469 138.078125 105.6875 140.839844 C 105.710938 141.050781 105.640625 141.25 105.503906 141.386719 L 96.863281 149.929688 C 96.609375 150.179688 96.488281 150.125 96.496094 149.765625 C 96.605469 144.054688 96.058594 138.863281 94.859375 134.203125 C 94.660156 133.433594 94.320312 133.367188 93.839844 134 C 88.222656 141.402344 86.328125 150.003906 88.164062 159.804688 C 88.289062 160.484375 88.121094 161.082031 87.675781 161.601562 C 85.308594 164.328125 82.972656 167.425781 80.675781 170.902344 C 80.394531 171.324219 80.210938 171.28125 80.125 170.78125 L 77.1875 154.355469 C 77.023438 153.429688 76.667969 153.351562 76.117188 154.128906 C 70.347656 162.265625 69.378906 171.277344 73.199219 181.167969 C 73.566406 182.113281 73.535156 183.039062 73.113281 183.945312 L 68.75 193.242188 C 68.578125 193.605469 68.429688 193.59375 68.300781 193.21875 C 66.371094 187.726562 63.757812 182.597656 60.453125 177.820312 C 60.332031 177.652344 60.230469 177.667969 60.15625 177.867188 C 59.003906 180.867188 58.316406 184.25 58.089844 188.007812 C 57.699219 194.628906 59.558594 200.203125 63.671875 204.746094 C 64.261719 205.394531 64.480469 206.167969 64.324219 207.070312 L 62.660156 216.800781 C 62.539062 217.535156 62.28125 217.585938 61.894531 216.960938 C 58.714844 211.78125 55.171875 206.832031 51.265625 202.109375 C 51.128906 201.945312 51.035156 201.96875 50.996094 202.171875 C 49.550781 209.15625 50.390625 215.828125 53.503906 222.199219 C 54.933594 225.113281 57.285156 227.195312 60.554688 228.445312 C 60.785156 228.527344 60.941406 228.75 60.957031 229.003906 L 61.597656 241.972656 C 61.636719 242.75 61.429688 242.824219 60.976562 242.203125 C 57.011719 236.714844 52.289062 231.898438 46.804688 227.75 C 46.480469 227.5 46.324219 227.582031 46.335938 227.992188 C 46.480469 233.378906 47.6875 238.378906 49.957031 242.988281 C 51.441406 246.003906 53.390625 248.460938 55.808594 250.351562 C 56.699219 251.039062 57.675781 251.578125 58.742188 251.964844 C 59.804688 252.347656 60.886719 252.636719 61.996094 252.832031 C 62.402344 252.90625 62.738281 253.195312 62.859375 253.585938 L 66.351562 265.101562 C 66.515625 265.625 66.367188 265.730469 65.914062 265.410156 C 61.960938 262.636719 57.992188 260.007812 54.003906 257.523438 C 52.101562 256.332031 50.507812 255.496094 49.226562 255.011719 C 49.023438 254.933594 48.9375 255 48.976562 255.214844 C 50.539062 263.550781 54.734375 269.972656 61.554688 274.480469 C 63.097656 275.5 64.582031 276.242188 66.011719 276.703125 C 67.628906 277.226562 69.289062 277.511719 70.984375 277.558594 C 71.257812 277.570312 71.503906 277.726562 71.636719 277.960938 L 77.152344 287.902344 C 77.464844 288.464844 77.328125 288.609375 76.746094 288.332031 C 70.726562 285.5 64.378906 282.996094 57.703125 280.824219 C 57.445312 280.738281 57.371094 280.820312 57.480469 281.070312 C 59.269531 285.140625 61.679688 288.644531 64.714844 291.585938 C 69.738281 296.441406 76.023438 298.578125 83.582031 297.992188 C 83.859375 297.972656 84.128906 298.082031 84.304688 298.285156 L 93.304688 308.542969 C 93.4375 308.695312 93.484375 308.871094 93.421875 308.960938 C 93.359375 309.046875 93.230469 309.050781 93.039062 308.976562 C 89.257812 307.40625 85.339844 306.347656 81.28125 305.800781 C 78.382812 305.40625 75.480469 305.019531 72.582031 304.644531 C 72.371094 304.613281 72.324219 304.683594 72.441406 304.859375 C 74.363281 307.613281 76.820312 310.117188 79.808594 312.378906 C 84.152344 315.667969 88.925781 317.601562 94.125 318.195312 C 97.214844 318.539062 100.164062 318.152344 102.972656 317.03125 C 103.285156 316.90625 103.636719 316.941406 103.914062 317.128906 C 107.496094 319.511719 110.917969 322.089844 114.191406 324.855469 C 115.011719 325.550781 114.902344 325.761719 113.867188 325.484375 C 112.1875 325.042969 110.484375 324.890625 108.757812 325.035156 C 104.488281 325.390625 99.988281 326.03125 95.253906 326.945312 C 94.964844 327 94.933594 327.125 95.160156 327.3125 C 97.855469 329.53125 100.722656 331.3125 103.753906 332.664062 C 107.105469 334.15625 110.335938 334.933594 113.441406 334.988281 C 118.078125 335.074219 122.40625 333.726562 126.421875 330.949219 C 126.585938 330.835938 126.796875 330.816406 126.972656 330.898438 C 130.648438 332.589844 134.175781 334.464844 137.550781 336.519531 C 138.402344 337.035156 138.332031 337.339844 137.339844 337.433594 C 131.421875 337.984375 125.804688 339.550781 120.492188 342.136719 C 120.015625 342.371094 120.015625 342.601562 120.492188 342.832031 C 125.457031 345.214844 130.699219 346.449219 136.21875 346.535156 C 141.761719 346.613281 146.433594 344.953125 150.242188 341.546875 C 150.648438 341.1875 151.210938 341.066406 151.738281 341.21875 C 160.972656 343.960938 169.890625 346.132812 178.496094 347.726562 C 179.644531 347.945312 179.648438 348.175781 178.507812 348.425781 C 169.40625 350.425781 161.875 355.175781 155.914062 362.660156 C 155.441406 363.261719 155.582031 363.511719 156.339844 363.414062 C 162.082031 362.703125 167.316406 361.238281 172.042969 359.023438 C 177.1875 356.605469 182.101562 353.710938 186.78125 350.335938 C 186.9375 350.21875 187.152344 350.21875 187.3125 350.335938 C 195.214844 355.988281 203.863281 360.070312 213.257812 362.578125 C 214.5 362.910156 215.859375 363.105469 217.335938 363.164062 C 217.800781 363.179688 217.894531 363.003906 217.617188 362.632812 C 214.050781 357.875 209.539062 354.078125 204.078125 351.242188 C 201.757812 350.039062 199.300781 349.175781 196.714844 348.652344 C 195.253906 348.359375 195.257812 348.09375 196.730469 347.859375 C 205.929688 346.378906 215.023438 344.0625 224.011719 340.90625 C 224.191406 340.84375 224.398438 340.890625 224.539062 341.027344 C 228.375 344.816406 232.914062 346.683594 238.164062 346.636719 C 244.210938 346.585938 249.773438 345.140625 254.851562 342.300781 C 255.410156 341.988281 255.394531 341.703125 254.804688 341.445312 C 249.105469 338.90625 243.214844 337.519531 237.132812 337.285156 C 236.464844 337.253906 236.433594 337.09375 237.039062 336.800781 L 248.929688 331.03125 C 249.222656 330.890625 249.566406 330.910156 249.832031 331.089844 C 253.21875 333.367188 256.832031 334.625 260.671875 334.863281 C 263.925781 335.066406 267.347656 334.390625 270.945312 332.835938 C 274.113281 331.472656 277.15625 329.632812 280.078125 327.316406 C 280.355469 327.097656 280.320312 326.945312 279.976562 326.851562 C 273.527344 325.164062 267.261719 324.601562 261.1875 325.171875 C 260.964844 325.191406 260.941406 325.136719 261.121094 325.003906 L 271.726562 317.121094 C 271.878906 317.011719 272.089844 316.972656 272.296875 317.027344 C 280.636719 319.175781 288.273438 317.679688 295.207031 312.535156 C 298.160156 310.347656 300.578125 307.828125 302.460938 304.980469 C 302.578125 304.804688 302.527344 304.726562 302.316406 304.746094 C 299.234375 305.070312 296.160156 305.445312 293.09375 305.867188 C 289.484375 306.363281 285.992188 307.300781 282.621094 308.683594 C 281.964844 308.953125 281.847656 308.804688 282.277344 308.238281 C 284.742188 304.972656 287.625 301.632812 290.925781 298.222656 C 291.160156 297.980469 291.488281 297.855469 291.824219 297.871094 C 297.757812 298.238281 302.929688 296.578125 307.351562 292.902344 C 311.148438 289.738281 314.089844 285.90625 316.175781 281.40625 C 316.363281 280.992188 316.25 280.867188 315.832031 281.023438 L 297.976562 287.75 C 297.578125 287.902344 297.484375 287.800781 297.695312 287.445312 L 303.582031 277.617188 C 303.726562 277.382812 303.996094 277.246094 304.292969 277.246094 C 306.449219 277.253906 308.460938 276.792969 310.332031 275.859375 C 318.613281 271.71875 323.746094 264.957031 325.738281 255.566406 C 325.847656 255.050781 325.675781 254.925781 325.214844 255.1875 C 319.71875 258.367188 314.410156 261.710938 309.289062 265.226562 C 308.601562 265.695312 308.378906 265.527344 308.625 264.722656 Z M 312.007812 253.667969 " fill-opacity="1" fill-rule="nonzero"/></g><path fill="#a6a6a6" d="M 191.140625 160.648438 C 191.625 160.847656 192.085938 161.09375 192.523438 161.386719 C 192.960938 161.675781 193.363281 162.007812 193.738281 162.378906 C 194.109375 162.75 194.4375 163.15625 194.730469 163.59375 C 195.023438 164.027344 195.269531 164.488281 195.46875 164.976562 C 195.671875 165.460938 195.824219 165.960938 195.925781 166.476562 C 196.027344 166.992188 196.078125 167.511719 196.078125 168.035156 C 196.078125 168.5625 196.027344 169.082031 195.925781 169.597656 C 195.824219 170.113281 195.671875 170.613281 195.46875 171.097656 C 195.269531 171.582031 195.023438 172.042969 194.730469 172.480469 C 194.4375 172.917969 194.109375 173.320312 193.738281 173.691406 C 193.363281 174.0625 192.960938 174.394531 192.523438 174.6875 C 192.085938 174.976562 191.625 175.222656 191.140625 175.425781 C 190.65625 175.625 190.15625 175.777344 189.640625 175.878906 C 189.125 175.984375 188.605469 176.035156 188.082031 176.035156 C 187.554688 176.035156 187.035156 175.984375 186.519531 175.878906 C 186.003906 175.777344 185.503906 175.625 185.019531 175.425781 C 184.535156 175.222656 184.074219 174.976562 183.636719 174.6875 C 183.199219 174.394531 182.796875 174.0625 182.425781 173.691406 C 182.054688 173.320312 181.722656 172.917969 181.429688 172.480469 C 181.140625 172.042969 180.890625 171.582031 180.691406 171.097656 C 180.492188 170.613281 180.339844 170.113281 180.238281 169.597656 C 180.132812 169.082031 180.082031 168.5625 180.082031 168.035156 C 180.082031 167.511719 180.132812 166.992188 180.238281 166.476562 C 180.339844 165.960938 180.492188 165.460938 180.691406 164.976562 C 180.890625 164.488281 181.140625 164.027344 181.429688 163.59375 C 181.722656 163.15625 182.054688 162.75 182.425781 162.378906 C 182.796875 162.007812 183.199219 161.675781 183.636719 161.386719 C 184.074219 161.09375 184.535156 160.847656 185.019531 160.648438 C 185.503906 160.445312 186.003906 160.292969 186.519531 160.191406 C 187.035156 160.089844 187.554688 160.039062 188.082031 160.039062 C 188.605469 160.039062 189.125 160.089844 189.640625 160.191406 C 190.15625 160.292969 190.65625 160.445312 191.140625 160.648438 Z M 191.140625 160.648438 " fill-opacity="1" fill-rule="nonzero"/><path fill="#a6a6a6" d="M 272.214844 260.6875 C 272.03125 260.59375 271.894531 260.425781 271.84375 260.222656 C 270.453125 254.859375 268.90625 249.582031 267.199219 244.390625 C 262.605469 230.425781 257.910156 216.492188 253.113281 202.589844 C 252.71875 201.441406 252.375 200.519531 252.085938 199.828125 C 253.5625 198.753906 254.527344 197.019531 254.527344 195.054688 C 254.527344 192.949219 253.417969 191.101562 251.753906 190.058594 C 252.039062 189.992188 252.304688 189.917969 252.558594 189.835938 C 255.320312 189.34375 257.425781 186.933594 257.425781 184.027344 C 257.425781 181.921875 256.324219 180.085938 254.667969 179.035156 C 253.878906 178.472656 253.011719 178.171875 252.070312 178.125 C 252.789062 178.964844 253.265625 180.019531 253.382812 181.175781 C 253.730469 184.695312 250.796875 187.625 247.277344 187.277344 C 247.015625 187.253906 246.757812 187.199219 246.503906 187.140625 C 246.515625 187.160156 246.527344 187.179688 246.542969 187.199219 C 229.675781 184.269531 212.855469 181.503906 196.082031 178.90625 C 190.671875 178.070312 185.375 178.035156 180.191406 178.808594 C 164.488281 181.148438 147.777344 183.976562 130.066406 187.292969 C 130.078125 187.285156 130.082031 187.269531 130.089844 187.253906 C 129.671875 187.3125 129.238281 187.320312 128.796875 187.273438 C 126.195312 187.015625 124.085938 184.910156 123.828125 182.308594 C 123.667969 180.703125 124.191406 179.226562 125.140625 178.117188 C 124.722656 178.117188 124.316406 178.164062 123.921875 178.246094 C 123.726562 178.28125 123.535156 178.324219 123.335938 178.378906 C 122.128906 178.707031 121.179688 179.382812 120.484375 180.410156 C 119.707031 181.410156 119.242188 182.664062 119.242188 184.023438 C 119.242188 184.082031 119.25 184.140625 119.25 184.195312 C 119.191406 185.507812 119.558594 186.664062 120.363281 187.664062 C 121.179688 188.675781 122.230469 189.4375 123.507812 189.949219 C 121.75 190.972656 120.566406 192.875 120.566406 195.054688 C 120.566406 197.246094 121.761719 199.15625 123.535156 200.175781 C 122.011719 205.144531 120.359375 210.089844 118.570312 215.015625 C 114.949219 224.964844 111.445312 234.957031 108.054688 244.988281 C 105.78125 251.710938 104.21875 256.953125 103.359375 260.710938 C 103.320312 260.890625 103.164062 261.027344 102.972656 261.039062 C 101.527344 261.15625 100.691406 261.90625 100.472656 263.289062 C 100.089844 265.695312 100.929688 267.34375 102.992188 268.234375 C 103.375 268.402344 103.933594 268.496094 104.671875 268.523438 C 105.25 268.546875 105.824219 268.617188 106.390625 268.738281 C 106.589844 268.78125 106.777344 268.882812 106.925781 269.039062 C 107.910156 270.070312 108.886719 271.117188 109.847656 272.175781 C 112.269531 274.847656 115.097656 276.707031 118.332031 277.753906 C 121.230469 278.6875 124.488281 279.058594 128.117188 278.863281 C 135.148438 278.480469 140.839844 275.269531 145.183594 269.230469 C 145.304688 269.0625 145.492188 268.957031 145.683594 268.949219 C 146.191406 268.929688 146.699219 268.929688 147.203125 268.949219 C 147.949219 268.980469 148.550781 268.929688 149.003906 268.796875 C 151.941406 267.953125 153.058594 265.972656 152.363281 262.859375 C 152.253906 262.347656 152.074219 261.957031 151.828125 261.683594 C 151.492188 261.300781 151.089844 261.089844 150.621094 261.046875 C 150.257812 261.019531 149.949219 260.757812 149.851562 260.398438 C 148.410156 254.78125 146.859375 249.40625 145.203125 244.28125 C 140.488281 229.660156 135.507812 215.128906 130.265625 200.6875 C 130.179688 200.441406 130.046875 200.175781 129.875 199.878906 C 131.386719 198.808594 132.378906 197.050781 132.378906 195.054688 C 132.378906 192.964844 131.289062 191.128906 129.648438 190.082031 C 133.617188 189.558594 139.023438 188.765625 145.886719 187.703125 C 158.164062 185.804688 170.285156 183.882812 182.25 181.933594 C 182.269531 181.933594 182.289062 181.929688 182.304688 181.929688 C 182.609375 181.914062 182.871094 182.144531 182.886719 182.449219 C 183.980469 206.15625 184.472656 229.875 184.359375 253.597656 C 184.339844 258.277344 184.257812 262.511719 184.113281 266.296875 C 183.796875 274.546875 183.332031 281.273438 182.730469 286.46875 C 182.136719 291.570312 181.34375 296.226562 180.347656 300.441406 C 179.527344 303.90625 178.367188 307.324219 176.859375 310.710938 C 175.359375 314.078125 173.742188 316.816406 172.007812 318.929688 C 169.960938 321.414062 167.539062 323.542969 164.75 325.3125 C 161.847656 327.15625 158.90625 328.933594 155.925781 330.65625 C 154.855469 331.273438 154.929688 331.6875 156.148438 331.898438 C 166.503906 333.671875 176.574219 333.515625 186.363281 331.417969 C 187.304688 331.21875 188.25 331.207031 189.199219 331.378906 C 199.140625 333.210938 208.792969 333.484375 218.148438 332.195312 C 219.6875 331.984375 219.835938 331.40625 218.605469 330.460938 C 217.5625 329.660156 216.285156 328.867188 214.777344 328.085938 C 209.914062 325.554688 205.941406 322.164062 202.855469 317.917969 C 200.808594 315.105469 198.988281 311.308594 197.386719 306.523438 C 195.558594 301.058594 194.324219 295.644531 193.691406 290.273438 C 191.613281 272.640625 190.730469 254.167969 191.050781 234.855469 C 191.339844 217.332031 191.847656 199.816406 192.566406 182.300781 C 192.566406 182.289062 192.570312 182.273438 192.570312 182.265625 C 192.59375 182.109375 192.738281 182 192.890625 182.023438 L 245.390625 190.101562 C 243.78125 191.15625 242.714844 192.976562 242.714844 195.042969 C 242.714844 197.152344 243.824219 199 245.492188 200.046875 C 245.464844 200.09375 245.4375 200.148438 245.421875 200.195312 C 241.984375 210.144531 238.503906 220.085938 234.980469 230.011719 C 231.816406 238.914062 228.878906 247.894531 226.164062 256.949219 C 225.851562 257.980469 225.601562 259.144531 225.398438 260.429688 C 225.367188 260.628906 225.230469 260.796875 225.042969 260.871094 C 223.078125 261.605469 222.152344 262.824219 222.265625 264.519531 C 222.355469 265.855469 222.890625 266.941406 223.875 267.785156 C 224.898438 268.675781 226.210938 268.976562 227.804688 268.679688 C 228.421875 268.566406 229.058594 268.785156 229.472656 269.261719 C 230.628906 270.574219 231.800781 271.800781 232.984375 272.945312 C 234.378906 274.289062 235.722656 275.316406 237.015625 276.027344 C 240.214844 277.777344 243.875 278.714844 247.996094 278.839844 C 256.496094 279.089844 263.050781 275.949219 267.660156 269.417969 C 267.777344 269.253906 267.960938 269.160156 268.15625 269.160156 C 269.773438 269.175781 271.21875 268.800781 272.492188 268.042969 C 273.875 267.214844 274.65625 266.113281 274.84375 264.734375 C 275.070312 263.03125 274.199219 261.679688 272.214844 260.6875 Z M 151.609375 264.125 C 151.613281 264.070312 151.617188 264.023438 151.617188 263.976562 C 151.617188 264.023438 151.613281 264.074219 151.609375 264.125 C 151.605469 264.152344 151.597656 264.179688 151.59375 264.210938 C 151.597656 264.183594 151.605469 264.152344 151.609375 264.125 Z M 151.488281 263.359375 C 151.449219 263.316406 151.414062 263.292969 151.367188 263.285156 C 151.410156 263.289062 151.449219 263.316406 151.488281 263.359375 Z M 151.179688 264.886719 C 151.101562 264.878906 151.039062 264.808594 150.996094 264.699219 C 151.042969 264.808594 151.105469 264.878906 151.179688 264.886719 Z M 125.039062 263.722656 C 125.039062 263.726562 125.039062 263.726562 125.039062 263.726562 C 125.039062 263.902344 124.902344 264.039062 124.734375 264.039062 L 109.015625 264.070312 C 108.601562 264.078125 108.242188 263.769531 108.175781 263.355469 C 107.988281 262.144531 107.519531 261.335938 106.761719 260.921875 C 106.707031 260.890625 106.5 260.859375 106.144531 260.820312 L 104.90625 260.695312 C 104.894531 260.691406 104.878906 260.6875 104.867188 260.6875 C 104.71875 260.640625 104.636719 260.460938 104.683594 260.28125 C 107.410156 250.214844 110.578125 240.292969 114.179688 230.511719 C 117.574219 221.296875 120.84375 212.039062 123.992188 202.742188 C 124.226562 202.042969 124.550781 201.378906 124.964844 200.757812 C 125.148438 200.804688 125.328125 200.84375 125.515625 200.875 C 125.515625 200.890625 125.515625 200.90625 125.515625 200.921875 C 124.980469 221.800781 124.820312 242.734375 125.039062 263.722656 Z M 148.617188 260.160156 C 148.617188 260.164062 148.621094 260.167969 148.621094 260.167969 C 148.660156 260.335938 148.5625 260.503906 148.394531 260.546875 C 147.832031 260.6875 147.265625 260.800781 146.699219 260.886719 C 145.355469 261.089844 144.660156 261.890625 144.613281 263.292969 C 144.601562 263.734375 144.242188 264.082031 143.800781 264.082031 L 126.390625 264.042969 C 126.382812 264.042969 126.375 264.042969 126.363281 264.042969 C 126.203125 264.03125 126.085938 263.886719 126.097656 263.726562 C 126.128906 263.347656 126.179688 262.96875 126.242188 262.589844 C 126.316406 262.164062 126.351562 261.78125 126.351562 261.441406 C 126.4375 243.636719 126.605469 225.832031 126.851562 208.03125 C 126.886719 205.660156 126.972656 203.292969 127.109375 200.925781 C 127.644531 200.867188 128.160156 200.738281 128.644531 200.542969 C 128.753906 200.683594 128.847656 200.835938 128.910156 201.007812 C 136.402344 220.59375 142.96875 240.3125 148.617188 260.160156 Z M 248.613281 206.121094 C 248.445312 225.347656 248.410156 244.578125 248.503906 263.808594 C 248.503906 263.980469 248.363281 264.117188 248.1875 264.117188 L 230.871094 264.078125 C 230.527344 264.078125 230.246094 263.808594 230.238281 263.46875 C 230.207031 262.445312 229.742188 261.609375 228.839844 260.960938 C 228.742188 260.890625 228.550781 260.832031 228.261719 260.800781 L 227.046875 260.640625 C 227.042969 260.640625 227.042969 260.640625 227.039062 260.640625 C 226.878906 260.613281 226.769531 260.429688 226.800781 260.230469 C 227.269531 257.417969 228.035156 254.359375 229.09375 251.058594 C 234.730469 233.472656 240.585938 216.835938 246.664062 201.148438 C 246.726562 200.972656 246.796875 200.828125 246.867188 200.699219 C 247.332031 200.839844 247.824219 200.921875 248.332031 200.949219 C 248.539062 201.535156 248.632812 203.261719 248.613281 206.121094 Z M 268.597656 263.722656 C 268.605469 263.582031 268.636719 263.453125 268.683594 263.339844 C 268.636719 263.453125 268.605469 263.582031 268.597656 263.722656 C 268.578125 264.03125 268.664062 264.308594 268.808594 264.480469 C 268.660156 264.308594 268.574219 264.03125 268.597656 263.722656 Z M 269.128906 264.65625 C 269.140625 264.65625 269.15625 264.652344 269.167969 264.652344 C 269.15625 264.652344 269.140625 264.65625 269.128906 264.65625 Z M 269.332031 264.613281 C 269.53125 264.519531 269.691406 264.28125 269.75 263.980469 C 269.691406 264.28125 269.53125 264.519531 269.332031 264.613281 Z M 269.246094 262.867188 C 269.398438 262.878906 269.53125 262.976562 269.625 263.125 C 269.53125 262.976562 269.398438 262.878906 269.246094 262.867188 Z M 270.222656 260.554688 C 267.933594 260.71875 266.707031 261.714844 266.546875 263.539062 C 266.515625 263.871094 266.238281 264.125 265.902344 264.125 L 250.171875 264.117188 C 250 264.117188 249.859375 263.976562 249.859375 263.800781 L 250.054688 200.777344 C 250.339844 200.703125 250.621094 200.617188 250.886719 200.507812 C 250.925781 200.574219 250.960938 200.644531 250.988281 200.730469 C 258.222656 220.304688 264.773438 240.042969 270.648438 259.9375 C 270.660156 259.972656 270.664062 260.007812 270.667969 260.042969 C 270.6875 260.304688 270.484375 260.53125 270.222656 260.554688 Z M 270.222656 260.554688 " fill-opacity="1" fill-rule="nonzero"/><g clip-path="url(#8122cdbba9)"><path fill="#a6a6a6" d="M 226.867188 11.636719 L 235.964844 30.074219 L 256.3125 33.03125 L 241.585938 47.394531 L 245.070312 67.660156 L 226.867188 58.089844 L 208.652344 67.660156 L 212.128906 47.394531 L 197.414062 33.03125 L 217.761719 30.074219 Z M 226.867188 11.636719 " fill-opacity="1" fill-rule="nonzero"/><path fill="#a6a6a6" d="M 226.726562 11.457031 L 235.835938 29.898438 L 256.183594 32.855469 L 241.453125 47.21875 L 244.929688 67.480469 L 226.726562 57.914062 L 208.523438 67.480469 L 212 47.21875 L 197.273438 32.855469 L 217.621094 29.898438 Z M 226.726562 11.457031 " fill-opacity="1" fill-rule="nonzero"/><path fill="#a6a6a6" d="M 226.726562 11.457031 L 235.835938 29.898438 L 256.183594 32.855469 L 241.453125 47.21875 L 244.929688 67.480469 L 226.726562 57.914062 L 208.523438 67.480469 L 212 47.21875 L 197.273438 32.855469 L 217.621094 29.898438 Z M 226.726562 11.457031 " fill-opacity="1" fill-rule="nonzero"/><path fill="#a6a6a6" d="M 226.726562 11.457031 L 235.835938 29.898438 L 256.183594 32.855469 L 241.453125 47.21875 L 244.929688 67.480469 L 226.726562 57.914062 L 208.523438 67.480469 L 212 47.21875 L 197.273438 32.855469 L 217.621094 29.898438 Z M 226.726562 11.457031 " fill-opacity="1" fill-rule="nonzero"/></g></svg>