<svg xmlns="http://www.w3.org/2000/svg" xmlns:xlink="http://www.w3.org/1999/xlink" width="500" zoomAndPan="magnify" viewBox="0 0 375 374.999991" height="500" preserveAspectRatio="xMidYMid meet" version="1.0"><defs><clipPath id="8c100189ba"><path d="M 45.148438 20.613281 L 102.898438 20.613281 L 102.898438 75.363281 L 45.148438 75.363281 Z M 45.148438 20.613281 " clip-rule="nonzero"/></clipPath><clipPath id="313902f024"><path d="M 59.386719 98.15625 L 315.886719 98.15625 L 315.886719 354.65625 L 59.386719 354.65625 Z M 59.386719 98.15625 " clip-rule="nonzero"/></clipPath><clipPath id="0073d72ad1"><path d="M 121 20.613281 L 178.6875 20.613281 L 178.6875 75.363281 L 121 75.363281 Z M 121 20.613281 " clip-rule="nonzero"/></clipPath><clipPath id="8eb72d0154"><path d="M 120.9375 20.613281 L 178.6875 20.613281 L 178.6875 75.363281 L 120.9375 75.363281 Z M 120.9375 20.613281 " clip-rule="nonzero"/></clipPath><clipPath id="7cb2036477"><path d="M 196.65625 20.613281 L 254.40625 20.613281 L 254.40625 75.363281 L 196.65625 75.363281 Z M 196.65625 20.613281 " clip-rule="nonzero"/></clipPath><clipPath id="042abacc32"><path d="M 272.371094 20.613281 L 330 20.613281 L 330 75.363281 L 272.371094 75.363281 Z M 272.371094 20.613281 " clip-rule="nonzero"/></clipPath></defs><g clip-path="url(#8c100189ba)"><path fill="#ff3131" d="M 73.964844 20.804688 L 82.820312 38.753906 L 102.628906 41.632812 L 88.289062 55.617188 L 91.6875 75.347656 L 73.964844 66.03125 L 56.230469 75.347656 L 59.613281 55.617188 L 45.285156 41.632812 L 65.097656 38.753906 Z M 73.964844 20.804688 " fill-opacity="1" fill-rule="nonzero"/><path fill="#ff3131" d="M 73.824219 20.632812 L 82.691406 38.582031 L 102.503906 41.460938 L 88.164062 55.445312 L 91.546875 75.175781 L 73.824219 65.859375 L 56.101562 75.175781 L 59.488281 55.445312 L 45.148438 41.460938 L 64.957031 38.582031 Z M 73.824219 20.632812 " fill-opacity="1" fill-rule="nonzero"/><path fill="#ff3131" d="M 73.824219 20.632812 L 82.691406 38.582031 L 102.503906 41.460938 L 88.164062 55.445312 L 91.546875 75.175781 L 73.824219 65.859375 L 56.101562 75.175781 L 59.488281 55.445312 L 45.148438 41.460938 L 64.957031 38.582031 Z M 73.824219 20.632812 " fill-opacity="1" fill-rule="nonzero"/><path fill="#ff3131" d="M 73.824219 20.632812 L 82.691406 38.582031 L 102.503906 41.460938 L 88.164062 55.445312 L 91.546875 75.175781 L 73.824219 65.859375 L 56.101562 75.175781 L 59.488281 55.445312 L 45.148438 41.460938 L 64.957031 38.582031 Z M 73.824219 20.632812 " fill-opacity="1" fill-rule="nonzero"/></g><g clip-path="url(#313902f024)"><path fill="#ea4949" d="M 187.636719 98.15625 C 116.816406 98.15625 59.386719 155.589844 59.386719 226.40625 C 59.386719 297.226562 116.816406 354.65625 187.636719 354.65625 C 258.457031 354.65625 315.886719 297.226562 315.886719 226.40625 C 315.886719 155.589844 258.457031 98.15625 187.636719 98.15625 Z M 187.636719 98.15625 " fill-opacity="1" fill-rule="nonzero"/></g><path fill="#d8dbba" d="M 185.050781 179.679688 L 190.6875 179.679688 L 190.6875 284.5625 L 185.050781 284.5625 Z M 185.050781 179.679688 " fill-opacity="1" fill-rule="nonzero"/><path fill="#d8dbba" d="M 198.078125 297.949219 C 198.078125 274.015625 188.050781 274.484375 188.050781 274.484375 C 188.050781 274.484375 178.019531 274.070312 178.019531 297.949219 C 178.019531 321.832031 180.605469 307.101562 137.546875 307.101562 L 137.546875 311.441406 L 238.449219 311.441406 L 238.449219 307.101562 C 195.441406 307.101562 198.078125 297.949219 198.078125 297.949219 " fill-opacity="1" fill-rule="nonzero"/><path fill="#d8dbba" d="M 187.84375 161.84375 C 185.464844 161.84375 182.261719 166.910156 182.261719 178.230469 C 182.261719 189.550781 193.890625 189.550781 193.890625 178.230469 C 193.890625 166.910156 190.21875 161.84375 187.84375 161.84375 " fill-opacity="1" fill-rule="nonzero"/><path fill="#6d6d68" d="M 250.648438 196.941406 C 249.769531 196.582031 248.738281 196.996094 248.375 197.925781 L 224.855469 255.769531 C 224.492188 256.648438 224.90625 257.683594 225.835938 258.042969 C 226.042969 258.148438 226.25 258.148438 226.507812 258.148438 C 227.179688 258.148438 227.851562 257.734375 228.113281 257.0625 L 251.582031 199.21875 C 251.941406 198.339844 251.527344 197.304688 250.648438 196.941406 " fill-opacity="1" fill-rule="nonzero"/><path fill="#6d6d68" d="M 282.699219 255.769531 L 259.230469 197.925781 C 258.867188 197.046875 257.835938 196.632812 256.957031 196.941406 C 256.078125 197.304688 255.613281 198.339844 255.972656 199.21875 L 279.441406 257.0625 C 279.699219 257.734375 280.371094 258.148438 281.046875 258.148438 C 281.25 258.148438 281.511719 258.097656 281.71875 258.042969 C 282.648438 257.628906 283.0625 256.648438 282.699219 255.769531 " fill-opacity="1" fill-rule="nonzero"/><path fill="#e4e5cf" d="M 224.441406 255.304688 C 224.441406 255.304688 224.855469 275.980469 254.007812 275.980469 C 283.164062 275.980469 283.164062 255.304688 283.164062 255.304688 Z M 224.441406 255.304688 " fill-opacity="1" fill-rule="nonzero"/><path fill="#d8dbba" d="M 259.128906 186.347656 L 259.128906 186.398438 C 258.351562 184.898438 256.957031 183.65625 255.09375 183.039062 C 251.734375 181.953125 248.21875 183.453125 247.289062 186.347656 C 246.359375 189.292969 248.324219 192.496094 251.683594 193.582031 C 251.785156 193.636719 251.839844 193.636719 251.941406 193.636719 C 250.289062 194.046875 248.53125 193.996094 246.773438 193.429688 C 244.238281 192.601562 239.847656 187.636719 230.695312 184.691406 C 223.460938 182.367188 207.382812 182.003906 186.652344 175.335938 L 184.484375 182.160156 C 201.074219 187.484375 217.929688 187.585938 225.320312 189.707031 C 239.019531 193.636719 242.328125 197.460938 245.894531 200.097656 C 249.460938 202.785156 257.9375 201.699219 259.953125 195.390625 C 260.9375 192.34375 260.574219 189.085938 259.128906 186.347656 " fill-opacity="1" fill-rule="nonzero"/><path fill="#6d6d68" d="M 150.417969 214.414062 L 126.949219 156.570312 C 126.585938 155.691406 125.554688 155.277344 124.675781 155.589844 C 123.796875 155.949219 123.332031 156.984375 123.691406 157.863281 L 147.160156 215.707031 C 147.417969 216.378906 148.089844 216.792969 148.761719 216.792969 C 148.96875 216.792969 149.226562 216.742188 149.433594 216.691406 C 150.3125 216.277344 150.777344 215.292969 150.417969 214.414062 " fill-opacity="1" fill-rule="nonzero"/><path fill="#6d6d68" d="M 118.316406 155.589844 C 117.4375 155.226562 116.402344 155.640625 116.042969 156.570312 L 92.574219 214.414062 C 92.210938 215.292969 92.625 216.328125 93.554688 216.691406 C 93.761719 216.792969 93.96875 216.792969 94.226562 216.792969 C 94.898438 216.792969 95.570312 216.378906 95.828125 215.707031 L 119.296875 157.863281 C 119.660156 156.984375 119.246094 155.949219 118.316406 155.589844 " fill-opacity="1" fill-rule="nonzero"/><path fill="#e4e5cf" d="M 92.109375 213.949219 C 92.109375 213.949219 92.109375 234.628906 121.261719 234.628906 C 150.417969 234.628906 150.832031 213.949219 150.832031 213.949219 Z M 92.109375 213.949219 " fill-opacity="1" fill-rule="nonzero"/><path fill="#d8dbba" d="M 145.402344 157.292969 C 136.253906 154.347656 129.792969 155.847656 127.257812 155.019531 C 125.554688 154.453125 124.054688 153.46875 122.96875 152.175781 C 123.070312 152.230469 123.125 152.230469 123.226562 152.28125 C 126.585938 153.367188 130.101562 151.867188 131.03125 148.972656 C 131.960938 146.078125 130 142.820312 126.636719 141.734375 C 124.777344 141.113281 122.863281 141.320312 121.367188 142.097656 L 121.367188 142.046875 C 118.625 143.441406 116.402344 145.871094 115.421875 149.023438 C 113.40625 155.332031 119.660156 161.121094 124.105469 161.015625 C 128.550781 160.914062 133.460938 159.777344 146.902344 164.53125 C 154.140625 167.117188 167.890625 176.835938 184.484375 182.160156 L 186.652344 175.335938 C 165.925781 168.71875 152.640625 159.621094 145.402344 157.292969 " fill-opacity="1" fill-rule="nonzero"/><g clip-path="url(#0073d72ad1)"><path fill="#ff3131" d="M 149.753906 20.804688 L 158.609375 38.753906 L 178.417969 41.632812 L 164.082031 55.617188 L 167.476562 75.347656 L 149.753906 66.03125 L 132.019531 75.347656 L 135.402344 55.617188 L 121.078125 41.632812 L 140.886719 38.753906 Z M 149.753906 20.804688 " fill-opacity="1" fill-rule="nonzero"/></g><g clip-path="url(#8eb72d0154)"><path fill="#ff3131" d="M 149.617188 20.632812 L 158.484375 38.582031 L 178.292969 41.460938 L 163.953125 55.445312 L 167.339844 75.175781 L 149.617188 65.859375 L 131.894531 75.175781 L 135.277344 55.445312 L 120.9375 41.460938 L 140.75 38.582031 Z M 149.617188 20.632812 " fill-opacity="1" fill-rule="nonzero"/><path fill="#ff3131" d="M 149.617188 20.632812 L 158.484375 38.582031 L 178.292969 41.460938 L 163.953125 55.445312 L 167.339844 75.175781 L 149.617188 65.859375 L 131.894531 75.175781 L 135.277344 55.445312 L 120.9375 41.460938 L 140.75 38.582031 Z M 149.617188 20.632812 " fill-opacity="1" fill-rule="nonzero"/><path fill="#ff3131" d="M 149.617188 20.632812 L 158.484375 38.582031 L 178.292969 41.460938 L 163.953125 55.445312 L 167.339844 75.175781 L 149.617188 65.859375 L 131.894531 75.175781 L 135.277344 55.445312 L 120.9375 41.460938 L 140.75 38.582031 Z M 149.617188 20.632812 " fill-opacity="1" fill-rule="nonzero"/></g><g clip-path="url(#7cb2036477)"><path fill="#ff3131" d="M 225.46875 20.804688 L 234.324219 38.753906 L 254.136719 41.632812 L 239.796875 55.617188 L 243.191406 75.347656 L 225.46875 66.03125 L 207.734375 75.347656 L 211.121094 55.617188 L 196.792969 41.632812 L 216.601562 38.753906 Z M 225.46875 20.804688 " fill-opacity="1" fill-rule="nonzero"/><path fill="#ff3131" d="M 225.332031 20.632812 L 234.199219 38.582031 L 254.007812 41.460938 L 239.671875 55.445312 L 243.054688 75.175781 L 225.332031 65.859375 L 207.609375 75.175781 L 210.992188 55.445312 L 196.65625 41.460938 L 216.464844 38.582031 Z M 225.332031 20.632812 " fill-opacity="1" fill-rule="nonzero"/><path fill="#ff3131" d="M 225.332031 20.632812 L 234.199219 38.582031 L 254.007812 41.460938 L 239.671875 55.445312 L 243.054688 75.175781 L 225.332031 65.859375 L 207.609375 75.175781 L 210.992188 55.445312 L 196.65625 41.460938 L 216.464844 38.582031 Z M 225.332031 20.632812 " fill-opacity="1" fill-rule="nonzero"/><path fill="#ff3131" d="M 225.332031 20.632812 L 234.199219 38.582031 L 254.007812 41.460938 L 239.671875 55.445312 L 243.054688 75.175781 L 225.332031 65.859375 L 207.609375 75.175781 L 210.992188 55.445312 L 196.65625 41.460938 L 216.464844 38.582031 Z M 225.332031 20.632812 " fill-opacity="1" fill-rule="nonzero"/></g><g clip-path="url(#042abacc32)"><path fill="#ff3131" d="M 301.183594 20.804688 L 310.039062 38.753906 L 329.851562 41.632812 L 315.511719 55.617188 L 318.90625 75.347656 L 301.183594 66.03125 L 283.449219 75.347656 L 286.835938 55.617188 L 272.507812 41.632812 L 292.316406 38.753906 Z M 301.183594 20.804688 " fill-opacity="1" fill-rule="nonzero"/><path fill="#ff3131" d="M 301.046875 20.632812 L 309.914062 38.582031 L 329.722656 41.460938 L 315.386719 55.445312 L 318.769531 75.175781 L 301.046875 65.859375 L 283.324219 75.175781 L 286.707031 55.445312 L 272.371094 41.460938 L 292.179688 38.582031 Z M 301.046875 20.632812 " fill-opacity="1" fill-rule="nonzero"/><path fill="#ff3131" d="M 301.046875 20.632812 L 309.914062 38.582031 L 329.722656 41.460938 L 315.386719 55.445312 L 318.769531 75.175781 L 301.046875 65.859375 L 283.324219 75.175781 L 286.707031 55.445312 L 272.371094 41.460938 L 292.179688 38.582031 Z M 301.046875 20.632812 " fill-opacity="1" fill-rule="nonzero"/><path fill="#ff3131" d="M 301.046875 20.632812 L 309.914062 38.582031 L 329.722656 41.460938 L 315.386719 55.445312 L 318.769531 75.175781 L 301.046875 65.859375 L 283.324219 75.175781 L 286.707031 55.445312 L 272.371094 41.460938 L 292.179688 38.582031 Z M 301.046875 20.632812 " fill-opacity="1" fill-rule="nonzero"/></g></svg>