<svg xmlns="http://www.w3.org/2000/svg" xmlns:xlink="http://www.w3.org/1999/xlink" width="500" zoomAndPan="magnify" viewBox="0 0 375 374.999991" height="500" preserveAspectRatio="xMidYMid meet" version="1.0"><defs><clipPath id="ed083d694c"><path d="M 90.671875 30.285156 L 143.921875 30.285156 L 143.921875 81.285156 L 90.671875 81.285156 Z M 90.671875 30.285156 " clip-rule="nonzero"/></clipPath><clipPath id="83f78bfbfc"><path d="M 65.378906 98.230469 L 309.878906 98.230469 L 309.878906 344.980469 L 65.378906 344.980469 Z M 65.378906 98.230469 " clip-rule="nonzero"/></clipPath><clipPath id="a1dbe92313"><path d="M 160.328125 30.285156 L 213.578125 30.285156 L 213.578125 81.285156 L 160.328125 81.285156 Z M 160.328125 30.285156 " clip-rule="nonzero"/></clipPath><clipPath id="a109f92731"><path d="M 230.816406 30.285156 L 284.066406 30.285156 L 284.066406 81.285156 L 230.816406 81.285156 Z M 230.816406 30.285156 " clip-rule="nonzero"/></clipPath></defs><g clip-path="url(#ed083d694c)"><path fill="#00bf63" d="M 117.496094 30.460938 L 125.738281 47.171875 L 144.179688 49.855469 L 130.832031 62.871094 L 133.992188 81.238281 L 117.496094 72.566406 L 100.988281 81.238281 L 104.136719 62.871094 L 90.800781 49.855469 L 109.242188 47.171875 Z M 117.496094 30.460938 " fill-opacity="1" fill-rule="nonzero"/><path fill="#00bf63" d="M 117.367188 30.300781 L 125.621094 47.011719 L 144.0625 49.695312 L 130.714844 62.710938 L 133.867188 81.078125 L 117.367188 72.40625 L 100.871094 81.078125 L 104.019531 62.710938 L 90.671875 49.695312 L 109.113281 47.011719 Z M 117.367188 30.300781 " fill-opacity="1" fill-rule="nonzero"/><path fill="#00bf63" d="M 117.367188 30.300781 L 125.621094 47.011719 L 144.0625 49.695312 L 130.714844 62.710938 L 133.867188 81.078125 L 117.367188 72.40625 L 100.871094 81.078125 L 104.019531 62.710938 L 90.671875 49.695312 L 109.113281 47.011719 Z M 117.367188 30.300781 " fill-opacity="1" fill-rule="nonzero"/><path fill="#00bf63" d="M 117.367188 30.300781 L 125.621094 47.011719 L 144.0625 49.695312 L 130.714844 62.710938 L 133.867188 81.078125 L 117.367188 72.40625 L 100.871094 81.078125 L 104.019531 62.710938 L 90.671875 49.695312 L 109.113281 47.011719 Z M 117.367188 30.300781 " fill-opacity="1" fill-rule="nonzero"/></g><path fill="#ffffff" d="M 291.871094 176.003906 L 291.871094 319.839844 C 291.871094 319.839844 209.214844 303.488281 187.707031 319.839844 L 187.511719 319.839844 C 166.003906 303.488281 83.347656 319.839844 83.347656 319.839844 L 83.347656 176.003906 C 94.488281 173.675781 110.453125 170.832031 119.367188 169.519531 C 119.367188 169.519531 110.058594 179.339844 121.597656 187.007812 C 133.136719 194.679688 164.929688 186.023438 150.050781 167.378906 C 166.894531 167.210938 182.304688 170.394531 187.5 172.683594 L 188.644531 172.304688 C 194.574219 170.0625 209.234375 167.222656 225.167969 167.378906 C 225.167969 167.378906 220.355469 181.789062 222.21875 184.757812 C 224.085938 187.722656 255.050781 192.296875 257.277344 184.757812 C 259.507812 177.210938 258.066406 174.886719 255.851562 169.519531 C 264.765625 170.832031 280.730469 173.675781 291.871094 176.003906 " fill-opacity="1" fill-rule="nonzero"/><path fill="#9ac8a8" d="M 307.378906 191.066406 L 307.378906 333.488281 L 67.625 333.488281 L 67.625 191.066406 L 83.347656 191.066406 L 83.347656 319.839844 C 83.347656 319.839844 166.003906 303.488281 187.511719 319.839844 C 209.015625 303.488281 291.671875 319.839844 291.671875 319.839844 L 291.671875 191.066406 L 307.378906 191.066406 " fill-opacity="1" fill-rule="nonzero"/><g clip-path="url(#83f78bfbfc)"><path fill="#dfaa61" d="M 258.820312 121.117188 L 255.742188 118.039062 L 248.960938 124.820312 L 252.039062 127.898438 Z M 270.746094 109.195312 L 267.664062 106.113281 L 260.886719 112.894531 L 263.964844 115.972656 Z M 270.746094 124.820312 L 263.964844 118.039062 L 260.886719 121.117188 L 267.664062 127.898438 Z M 258.820312 112.894531 L 252.039062 106.113281 L 248.960938 109.195312 L 255.742188 115.972656 Z M 305.21875 193.246094 L 294.050781 193.246094 C 294.050781 193.527344 294.050781 193.804688 294.050781 194.089844 C 294.050781 236.007812 294.050781 277.925781 294.050781 319.839844 C 294.050781 321.339844 292.664062 322.210938 291.292969 321.941406 C 287.941406 321.277344 284.566406 320.707031 281.191406 320.148438 C 265.1875 317.511719 249.007812 315.535156 232.789062 314.917969 C 224.363281 314.601562 215.84375 314.605469 207.464844 315.65625 C 201.042969 316.460938 194.128906 317.808594 188.808594 321.71875 C 188.203125 322.164062 187.609375 322.214844 187.101562 322.027344 C 186.863281 321.976562 186.628906 321.882812 186.410156 321.71875 C 180.316406 317.238281 172.128906 316.023438 164.785156 315.335938 C 147.316406 313.703125 129.496094 315.34375 112.148438 317.515625 C 102.707031 318.695312 93.265625 320.097656 83.925781 321.941406 C 82.558594 322.210938 81.167969 321.339844 81.167969 319.839844 C 81.167969 313.808594 81.167969 307.785156 81.167969 301.757812 C 81.167969 265.585938 81.167969 229.414062 81.167969 193.246094 L 69.800781 193.246094 L 69.785156 331.3125 L 305.203125 331.3125 Z M 115.738281 172.28125 C 105.628906 173.867188 95.550781 175.726562 85.523438 177.78125 C 85.523438 183.214844 85.523438 188.652344 85.523438 194.089844 C 85.523438 235.136719 85.523438 276.183594 85.523438 317.230469 C 88.269531 316.726562 91.023438 316.25 93.777344 315.800781 C 110.347656 313.105469 127.101562 311.050781 143.886719 310.515625 C 152.585938 310.234375 161.355469 310.355469 169.984375 311.59375 C 175.160156 312.339844 180.617188 313.46875 185.332031 315.929688 C 185.332031 296.171875 185.332031 276.414062 185.332031 256.652344 C 185.332031 255.601562 185.945312 254.945312 186.714844 254.683594 L 153.53125 254.683594 L 153.53125 242.238281 L 166.34375 242.238281 L 166.34375 238.277344 C 166.34375 233.441406 170.277344 229.511719 175.109375 229.511719 L 175.132812 229.511719 L 175.132812 212.816406 C 175.132812 208.433594 178.371094 204.792969 182.574219 204.152344 L 182.574219 173.195312 C 173.328125 170.277344 162.921875 169.636719 153.304688 169.5625 L 156.535156 176.742188 L 156.535156 179.5625 C 156.535156 189.140625 146.917969 196.9375 135.105469 196.9375 C 123.285156 196.9375 113.671875 189.140625 113.671875 179.5625 L 113.671875 177.085938 L 113.734375 177.085938 L 113.734375 176.742188 Z M 151.347656 165.199219 C 161.390625 165.207031 172.644531 165.730469 182.574219 168.652344 L 182.574219 143.816406 L 182.453125 143.550781 C 179.507812 137.117188 174.089844 132.386719 167.957031 130.894531 C 164.300781 130.011719 160.964844 130.476562 158.796875 132.183594 C 155.957031 134.414062 150.382812 138.417969 144.964844 140.191406 L 144.820312 140.230469 C 144.160156 140.398438 142.238281 140.847656 140.476562 141.023438 Z M 192.84375 168.59375 C 202.792969 165.703125 214.042969 165.199219 224.074219 165.199219 L 234.941406 141.027344 C 233.179688 140.855469 231.257812 140.398438 230.597656 140.230469 L 230.457031 140.191406 C 225.035156 138.417969 219.464844 134.410156 216.625 132.183594 C 214.457031 130.476562 211.113281 130.011719 207.464844 130.894531 C 201.328125 132.382812 195.910156 137.117188 192.96875 143.550781 L 192.84375 143.816406 Z M 118.355469 177.085938 L 132.988281 177.085938 L 132.988281 144.53125 L 121.507812 170.070312 C 121.46875 170.457031 121.316406 170.808594 121.050781 171.085938 Z M 137.34375 144.675781 L 137.34375 177.085938 L 151.910156 177.085938 Z M 223.503906 177.085938 L 238.078125 177.085938 L 238.078125 144.675781 Z M 253.710938 169.621094 L 242.433594 144.53125 L 242.433594 177.085938 L 257.066406 177.085938 L 254.480469 171.335938 C 253.871094 170.960938 253.640625 170.300781 253.710938 169.621094 Z M 259.695312 172.3125 L 261.683594 176.742188 L 261.683594 177.085938 L 261.75 177.085938 L 261.75 179.5625 C 261.75 189.140625 252.136719 196.9375 240.316406 196.9375 C 228.5 196.9375 218.886719 189.140625 218.886719 179.5625 L 218.886719 176.742188 L 222.113281 169.5625 C 212.511719 169.628906 202.105469 170.253906 192.84375 173.136719 L 192.84375 204.152344 C 197.050781 204.792969 200.285156 208.433594 200.285156 212.816406 L 200.308594 229.511719 C 205.144531 229.511719 209.078125 233.441406 209.078125 238.277344 L 209.078125 242.238281 L 221.890625 242.238281 L 221.890625 254.683594 L 188.304688 254.683594 C 189.074219 254.945312 189.6875 255.601562 189.6875 256.652344 C 189.6875 276.449219 189.6875 296.246094 189.6875 316.039062 C 195.335938 313.015625 202.070312 311.914062 208.300781 311.199219 C 226.273438 309.144531 244.757812 310.882812 262.632812 313.105469 C 271.679688 314.230469 280.726562 315.550781 289.695312 317.230469 C 289.695312 312.070312 289.695312 306.914062 289.695312 301.757812 C 289.695312 260.429688 289.695312 219.105469 289.695312 177.78125 C 279.742188 175.738281 269.734375 173.894531 259.695312 172.3125 Z M 309.558594 335.667969 L 205.472656 335.667969 C 203.828125 340.824219 196.464844 344.710938 187.625 344.710938 C 178.785156 344.710938 171.421875 340.824219 169.777344 335.667969 L 65.429688 335.667969 L 65.449219 188.890625 L 81.167969 188.890625 C 81.167969 184.59375 81.167969 180.300781 81.167969 176.003906 C 81.167969 175.089844 81.84375 174.097656 82.769531 173.902344 C 94.402344 171.492188 106.109375 169.339844 117.859375 167.566406 L 131.734375 136.699219 C 130.269531 134.207031 129.992188 131.015625 130.9375 127.410156 C 130.132812 126.460938 129.644531 125.230469 129.644531 123.890625 C 129.644531 120.882812 132.09375 118.433594 135.105469 118.433594 C 138.109375 118.433594 140.5625 120.882812 140.5625 123.890625 C 140.5625 126.402344 138.855469 128.515625 136.550781 129.148438 C 136.5625 130.460938 136.933594 131.605469 138.085938 131.960938 C 141.386719 132.980469 143.699219 130.839844 147.5 126.964844 C 150.832031 123.566406 154.976562 119.34375 161.21875 117.824219 C 170.605469 115.542969 177.976562 118.570312 182.574219 122.140625 L 182.574219 118.417969 C 179.289062 116.566406 177.058594 113.046875 177.058594 109.015625 C 177.058594 103.070312 181.898438 98.230469 187.84375 98.230469 C 193.792969 98.230469 198.628906 103.070312 198.628906 109.015625 C 198.628906 113.160156 196.277344 116.757812 192.84375 118.5625 L 192.84375 122.140625 C 197.441406 118.570312 204.808594 115.542969 214.199219 117.824219 C 220.445312 119.34375 224.585938 123.566406 227.917969 126.964844 C 231.71875 130.839844 234.03125 132.980469 237.332031 131.960938 C 238.484375 131.605469 238.855469 130.460938 238.871094 129.148438 C 236.558594 128.515625 234.859375 126.402344 234.859375 123.890625 C 234.859375 120.882812 237.308594 118.433594 240.316406 118.433594 C 243.328125 118.433594 245.773438 120.882812 245.773438 123.890625 C 245.773438 125.230469 245.285156 126.457031 244.484375 127.410156 C 245.421875 131.015625 245.148438 134.207031 243.683594 136.699219 L 257.574219 167.597656 C 269.25 169.367188 280.886719 171.507812 292.449219 173.902344 C 293.378906 174.097656 294.050781 175.097656 294.050781 176.003906 C 294.050781 180.300781 294.050781 184.59375 294.050781 188.890625 L 309.574219 188.890625 Z M 98.433594 147.6875 L 88.84375 147.6875 L 88.84375 152.042969 L 98.433594 152.042969 Z M 115.300781 147.6875 L 105.710938 147.6875 L 105.710938 152.042969 L 115.300781 152.042969 Z M 104.25 153.507812 L 99.894531 153.507812 L 99.894531 163.09375 L 104.25 163.09375 Z M 104.25 136.640625 L 99.894531 136.640625 L 99.894531 146.226562 L 104.25 146.226562 Z M 206.375 208.167969 C 223.914062 205.710938 242.054688 207.324219 259.554688 209.328125 C 262.335938 209.644531 262.3125 205.289062 259.554688 204.972656 C 241.601562 202.921875 223.195312 201.445312 205.21875 203.96875 C 202.453125 204.355469 203.628906 208.550781 206.375 208.167969 Z M 267.507812 210.320312 C 269.179688 210.542969 270.847656 210.78125 272.515625 211.023438 C 273.675781 211.195312 274.855469 210.738281 275.195312 209.503906 C 275.472656 208.480469 274.84375 206.996094 273.675781 206.824219 C 271.621094 206.527344 269.5625 206.242188 267.507812 205.964844 C 266.339844 205.8125 265.332031 207.082031 265.332031 208.140625 C 265.332031 209.453125 266.335938 210.164062 267.507812 210.320312 Z M 209.488281 223.523438 C 220.753906 222.398438 232.089844 222.738281 243.359375 223.53125 C 246.15625 223.726562 246.144531 219.371094 243.359375 219.175781 C 232.089844 218.382812 220.753906 218.042969 209.488281 219.167969 C 206.726562 219.449219 206.699219 223.804688 209.488281 223.523438 Z M 252.554688 224.324219 C 259.226562 224.996094 265.875 225.816406 272.515625 226.773438 C 275.257812 227.167969 276.441406 222.972656 273.675781 222.574219 C 266.648438 221.5625 259.613281 220.679688 252.554688 219.96875 C 249.765625 219.6875 249.785156 224.042969 252.554688 224.324219 Z M 227.976562 238.566406 C 232.757812 238.652344 237.539062 238.878906 242.316406 239.199219 C 245.113281 239.390625 245.097656 235.035156 242.316406 234.847656 C 237.539062 234.523438 232.757812 234.296875 227.976562 234.214844 C 225.171875 234.164062 225.171875 238.515625 227.976562 238.566406 Z M 248.003906 239.648438 C 250.453125 239.859375 252.902344 240.097656 255.347656 240.355469 C 256.527344 240.476562 257.515625 239.265625 257.523438 238.175781 C 257.539062 236.898438 256.511719 236.121094 255.347656 236 C 252.902344 235.746094 250.453125 235.507812 248.003906 235.292969 C 245.214844 235.046875 245.230469 239.40625 248.003906 239.648438 Z M 260.546875 240.9375 C 264.546875 241.414062 268.535156 241.941406 272.515625 242.519531 C 275.257812 242.914062 276.441406 238.71875 273.675781 238.320312 C 269.304688 237.6875 264.929688 237.105469 260.546875 236.585938 C 257.773438 236.25 257.796875 240.609375 260.546875 240.9375 Z M 226.425781 254.300781 C 241.859375 254.484375 257.25 256.070312 272.515625 258.269531 C 275.257812 258.664062 276.441406 254.46875 273.675781 254.070312 C 258.015625 251.8125 242.25 250.132812 226.425781 249.945312 C 223.621094 249.910156 223.621094 254.265625 226.425781 254.300781 Z M 206.375 271.160156 C 214.242188 270.0625 222.199219 269.941406 230.125 270.109375 C 232.929688 270.171875 232.929688 265.816406 230.125 265.753906 C 221.792969 265.578125 213.484375 265.808594 205.21875 266.960938 C 202.453125 267.347656 203.628906 271.542969 206.375 271.160156 Z M 237.453125 270.402344 C 249.191406 271.0625 260.882812 272.339844 272.515625 274.019531 C 275.257812 274.414062 276.441406 270.21875 273.675781 269.820312 C 261.65625 268.085938 249.582031 266.730469 237.453125 266.046875 C 234.65625 265.886719 234.664062 270.242188 237.453125 270.402344 Z M 206.375 286.910156 C 218.257812 285.253906 230.382812 285.652344 242.316406 286.449219 C 245.113281 286.636719 245.097656 282.28125 242.316406 282.09375 C 229.953125 281.265625 217.519531 280.996094 205.21875 282.710938 C 202.453125 283.09375 203.628906 287.289062 206.375 286.910156 Z M 249.628906 287.234375 C 252.257812 287.488281 254.882812 287.765625 257.507812 288.070312 C 258.6875 288.207031 259.675781 286.972656 259.683594 285.890625 C 259.699219 284.605469 258.671875 283.851562 257.507812 283.714844 C 254.882812 283.410156 252.257812 283.132812 249.628906 282.878906 C 246.839844 282.605469 246.863281 286.960938 249.628906 287.234375 Z M 264.402344 288.660156 C 267.113281 289.003906 269.8125 289.375 272.515625 289.765625 C 273.6875 289.9375 274.839844 289.476562 275.195312 288.246094 C 275.488281 287.226562 274.835938 285.734375 273.675781 285.570312 C 270.589844 285.121094 267.5 284.703125 264.402344 284.308594 C 263.226562 284.152344 262.238281 285.414062 262.226562 286.484375 C 262.210938 287.785156 263.242188 288.511719 264.402344 288.660156 Z M 206.375 302.65625 C 207.867188 302.441406 209.363281 302.273438 210.863281 302.128906 C 212.035156 302.019531 213.039062 301.207031 213.039062 299.949219 C 213.039062 298.863281 212.039062 297.664062 210.863281 297.773438 C 208.976562 297.957031 207.09375 298.183594 205.21875 298.460938 C 204.050781 298.628906 203.414062 300.101562 203.699219 301.136719 C 204.042969 302.386719 205.207031 302.828125 206.375 302.65625 Z M 217.964844 301.667969 C 236.195312 301.035156 254.488281 302.917969 272.515625 305.515625 C 275.257812 305.910156 276.441406 301.714844 273.675781 301.316406 C 255.257812 298.660156 236.589844 296.667969 217.964844 297.3125 C 215.167969 297.410156 215.152344 301.761719 217.964844 301.667969 Z M 169.949219 203.96875 C 151.972656 201.445312 133.5625 202.921875 115.613281 204.972656 C 112.859375 205.289062 112.828125 209.644531 115.613281 209.328125 C 133.113281 207.324219 151.253906 205.710938 168.792969 208.167969 C 171.53125 208.550781 172.71875 204.355469 169.949219 203.96875 Z M 107.660156 205.964844 C 105.605469 206.242188 103.546875 206.527344 101.492188 206.824219 C 100.332031 206.992188 99.691406 208.46875 99.972656 209.503906 C 100.316406 210.75 101.484375 211.195312 102.652344 211.023438 C 104.320312 210.78125 105.988281 210.542969 107.660156 210.320312 C 108.824219 210.167969 109.835938 209.433594 109.835938 208.140625 C 109.835938 207.085938 108.832031 205.808594 107.660156 205.964844 Z M 165.675781 219.167969 C 154.414062 218.042969 143.082031 218.382812 131.808594 219.175781 C 129.027344 219.371094 129.003906 223.726562 131.808594 223.53125 C 143.082031 222.738281 154.414062 222.398438 165.675781 223.523438 C 168.460938 223.800781 168.445312 219.449219 165.675781 219.167969 Z M 122.613281 219.96875 C 115.554688 220.679688 108.515625 221.5625 101.492188 222.574219 C 98.730469 222.972656 99.90625 227.167969 102.652344 226.773438 C 109.289062 225.816406 115.941406 224.996094 122.613281 224.324219 C 125.378906 224.042969 125.40625 219.6875 122.613281 219.96875 Z M 147.191406 234.214844 C 142.40625 234.296875 137.628906 234.523438 132.851562 234.847656 C 130.070312 235.035156 130.050781 239.390625 132.851562 239.199219 C 137.628906 238.878906 142.40625 238.652344 147.191406 238.566406 C 149.992188 238.515625 150 234.160156 147.191406 234.214844 Z M 127.164062 235.292969 C 124.714844 235.507812 122.265625 235.746094 119.820312 236 C 118.640625 236.121094 117.65625 236.910156 117.644531 238.175781 C 117.628906 239.257812 118.652344 240.476562 119.820312 240.355469 C 122.265625 240.097656 124.714844 239.859375 127.164062 239.648438 C 129.933594 239.40625 129.960938 235.046875 127.164062 235.292969 Z M 114.621094 236.585938 C 110.238281 237.105469 105.863281 237.6875 101.492188 238.320312 C 98.730469 238.71875 99.90625 242.917969 102.652344 242.519531 C 106.632812 241.941406 110.621094 241.414062 114.621094 240.9375 C 117.363281 240.609375 117.398438 236.25 114.621094 236.585938 Z M 148.742188 249.945312 C 132.914062 250.132812 117.152344 251.8125 101.492188 254.070312 C 98.730469 254.46875 99.90625 258.664062 102.652344 258.269531 C 117.917969 256.070312 133.308594 254.484375 148.742188 254.300781 C 151.542969 254.265625 151.550781 249.910156 148.742188 249.945312 Z M 169.949219 266.960938 C 161.683594 265.808594 153.375 265.578125 145.042969 265.753906 C 142.242188 265.816406 142.230469 270.171875 145.042969 270.109375 C 152.96875 269.941406 160.925781 270.0625 168.792969 271.160156 C 171.53125 271.542969 172.71875 267.347656 169.949219 266.960938 Z M 137.714844 266.046875 C 125.585938 266.730469 113.511719 268.085938 101.492188 269.820312 C 98.730469 270.21875 99.90625 274.414062 102.652344 274.019531 C 114.285156 272.339844 125.972656 271.0625 137.714844 270.402344 C 140.5 270.246094 140.515625 265.886719 137.714844 266.046875 Z M 169.949219 282.710938 C 157.648438 280.996094 145.214844 281.265625 132.851562 282.09375 C 130.070312 282.28125 130.050781 286.636719 132.851562 286.449219 C 144.785156 285.652344 156.910156 285.253906 168.792969 286.910156 C 171.53125 287.289062 172.71875 283.09375 169.949219 282.710938 Z M 125.535156 282.878906 C 122.910156 283.132812 120.285156 283.410156 117.660156 283.714844 C 116.480469 283.851562 115.492188 284.621094 115.484375 285.890625 C 115.46875 286.96875 116.492188 288.207031 117.660156 288.070312 C 120.285156 287.765625 122.910156 287.488281 125.535156 287.234375 C 128.304688 286.964844 128.328125 282.605469 125.535156 282.878906 Z M 110.765625 284.308594 C 107.667969 284.703125 104.578125 285.121094 101.492188 285.570312 C 100.320312 285.734375 99.699219 287.210938 99.972656 288.246094 C 100.304688 289.5 101.492188 289.933594 102.652344 289.765625 C 105.351562 289.375 108.054688 289.003906 110.765625 288.660156 C 111.9375 288.511719 112.929688 287.765625 112.941406 286.484375 C 112.953125 285.417969 111.929688 284.15625 110.765625 284.308594 Z M 169.949219 298.460938 C 168.074219 298.183594 166.191406 297.957031 164.304688 297.773438 C 163.128906 297.664062 162.128906 298.859375 162.128906 299.949219 C 162.128906 301.222656 163.128906 302.019531 164.304688 302.128906 C 165.804688 302.273438 167.300781 302.441406 168.792969 302.65625 C 169.957031 302.824219 171.132812 302.367188 171.46875 301.136719 C 171.75 300.113281 171.121094 298.628906 169.949219 298.460938 Z M 157.203125 297.3125 C 160.003906 297.410156 160.007812 301.761719 157.203125 301.667969 C 138.972656 301.035156 120.679688 302.917969 102.652344 305.515625 C 99.90625 305.910156 98.730469 301.714844 101.492188 301.316406 C 119.910156 298.660156 138.574219 296.667969 157.203125 297.3125 " fill-opacity="1" fill-rule="nonzero"/></g><g clip-path="url(#a1dbe92313)"><path fill="#00bf63" d="M 187.152344 30.460938 L 195.394531 47.171875 L 213.835938 49.855469 L 200.488281 62.871094 L 203.652344 81.238281 L 187.152344 72.566406 L 170.644531 81.238281 L 173.792969 62.871094 L 160.457031 49.855469 L 178.898438 47.171875 Z M 187.152344 30.460938 " fill-opacity="1" fill-rule="nonzero"/><path fill="#00bf63" d="M 187.023438 30.300781 L 195.277344 47.011719 L 213.71875 49.695312 L 200.371094 62.710938 L 203.523438 81.078125 L 187.023438 72.40625 L 170.527344 81.078125 L 173.675781 62.710938 L 160.328125 49.695312 L 178.769531 47.011719 Z M 187.023438 30.300781 " fill-opacity="1" fill-rule="nonzero"/><path fill="#00bf63" d="M 187.023438 30.300781 L 195.277344 47.011719 L 213.71875 49.695312 L 200.371094 62.710938 L 203.523438 81.078125 L 187.023438 72.40625 L 170.527344 81.078125 L 173.675781 62.710938 L 160.328125 49.695312 L 178.769531 47.011719 Z M 187.023438 30.300781 " fill-opacity="1" fill-rule="nonzero"/><path fill="#00bf63" d="M 187.023438 30.300781 L 195.277344 47.011719 L 213.71875 49.695312 L 200.371094 62.710938 L 203.523438 81.078125 L 187.023438 72.40625 L 170.527344 81.078125 L 173.675781 62.710938 L 160.328125 49.695312 L 178.769531 47.011719 Z M 187.023438 30.300781 " fill-opacity="1" fill-rule="nonzero"/></g><g clip-path="url(#a109f92731)"><path fill="#00bf63" d="M 257.640625 30.460938 L 265.882812 47.171875 L 284.324219 49.855469 L 270.976562 62.871094 L 274.136719 81.238281 L 257.640625 72.566406 L 241.132812 81.238281 L 244.28125 62.871094 L 230.945312 49.855469 L 249.386719 47.171875 Z M 257.640625 30.460938 " fill-opacity="1" fill-rule="nonzero"/><path fill="#00bf63" d="M 257.511719 30.300781 L 265.765625 47.011719 L 284.207031 49.695312 L 270.859375 62.710938 L 274.007812 81.078125 L 257.511719 72.40625 L 241.015625 81.078125 L 244.164062 62.710938 L 230.816406 49.695312 L 249.257812 47.011719 Z M 257.511719 30.300781 " fill-opacity="1" fill-rule="nonzero"/><path fill="#00bf63" d="M 257.511719 30.300781 L 265.765625 47.011719 L 284.207031 49.695312 L 270.859375 62.710938 L 274.007812 81.078125 L 257.511719 72.40625 L 241.015625 81.078125 L 244.164062 62.710938 L 230.816406 49.695312 L 249.257812 47.011719 Z M 257.511719 30.300781 " fill-opacity="1" fill-rule="nonzero"/><path fill="#00bf63" d="M 257.511719 30.300781 L 265.765625 47.011719 L 284.207031 49.695312 L 270.859375 62.710938 L 274.007812 81.078125 L 257.511719 72.40625 L 241.015625 81.078125 L 244.164062 62.710938 L 230.816406 49.695312 L 249.257812 47.011719 Z M 257.511719 30.300781 " fill-opacity="1" fill-rule="nonzero"/></g></svg>