<svg xmlns="http://www.w3.org/2000/svg" xmlns:xlink="http://www.w3.org/1999/xlink" width="500" zoomAndPan="magnify" viewBox="0 0 375 374.999991" height="500" preserveAspectRatio="xMidYMid meet" version="1.0"><defs><clipPath id="c317fcd3e1"><path d="M 77.078125 6.320312 L 137.828125 6.320312 L 137.828125 64.070312 L 77.078125 64.070312 Z M 77.078125 6.320312 " clip-rule="nonzero"/></clipPath><clipPath id="2619b4ef17"><path d="M 77.078125 6.320312 L 137.828125 6.320312 L 137.828125 64 L 77.078125 64 Z M 77.078125 6.320312 " clip-rule="nonzero"/></clipPath><clipPath id="e05d280959"><path d="M 52.039062 97.757812 L 322.789062 97.757812 L 322.789062 368.507812 L 52.039062 368.507812 Z M 52.039062 97.757812 " clip-rule="nonzero"/></clipPath><clipPath id="3dd092190b"><path d="M 157.390625 6.320312 L 218.140625 6.320312 L 218.140625 64.070312 L 157.390625 64.070312 Z M 157.390625 6.320312 " clip-rule="nonzero"/></clipPath><clipPath id="f62d802ebd"><path d="M 157.390625 6.320312 L 218.140625 6.320312 L 218.140625 64 L 157.390625 64 Z M 157.390625 6.320312 " clip-rule="nonzero"/></clipPath><clipPath id="043ffb128a"><path d="M 237.273438 6.320312 L 298.023438 6.320312 L 298.023438 64.070312 L 237.273438 64.070312 Z M 237.273438 6.320312 " clip-rule="nonzero"/></clipPath><clipPath id="edad2d12f4"><path d="M 237.273438 6.320312 L 298 6.320312 L 298 64 L 237.273438 64 Z M 237.273438 6.320312 " clip-rule="nonzero"/></clipPath></defs><g clip-path="url(#c317fcd3e1)"><path fill="#ffffff" d="M 107.535156 6.519531 L 116.894531 25.453125 L 137.828125 28.492188 L 122.675781 43.242188 L 126.265625 64.050781 L 107.535156 54.226562 L 88.789062 64.050781 L 92.367188 43.242188 L 77.226562 28.492188 L 98.164062 25.453125 Z M 107.535156 6.519531 " fill-opacity="1" fill-rule="nonzero"/></g><g clip-path="url(#2619b4ef17)"><path fill="#ffffff" d="M 107.386719 6.335938 L 116.757812 25.273438 L 137.695312 28.308594 L 122.542969 43.058594 L 126.117188 63.871094 L 107.386719 54.046875 L 88.65625 63.871094 L 92.234375 43.058594 L 77.078125 28.308594 L 98.015625 25.273438 Z M 107.386719 6.335938 " fill-opacity="1" fill-rule="nonzero"/><path fill="#ffffff" d="M 107.386719 6.335938 L 116.757812 25.273438 L 137.695312 28.308594 L 122.542969 43.058594 L 126.117188 63.871094 L 107.386719 54.046875 L 88.65625 63.871094 L 92.234375 43.058594 L 77.078125 28.308594 L 98.015625 25.273438 Z M 107.386719 6.335938 " fill-opacity="1" fill-rule="nonzero"/><path fill="#ffffff" d="M 107.386719 6.335938 L 116.757812 25.273438 L 137.695312 28.308594 L 122.542969 43.058594 L 126.117188 63.871094 L 107.386719 54.046875 L 88.65625 63.871094 L 92.234375 43.058594 L 77.078125 28.308594 L 98.015625 25.273438 Z M 107.386719 6.335938 " fill-opacity="1" fill-rule="nonzero"/></g><g clip-path="url(#e05d280959)"><path fill="#ffffff" d="M 322.953125 233.21875 C 322.953125 308.027344 262.308594 368.671875 187.496094 368.671875 C 112.6875 368.671875 52.039062 308.027344 52.039062 233.21875 C 52.039062 158.40625 112.6875 97.761719 187.496094 97.761719 C 262.308594 97.761719 322.953125 158.40625 322.953125 233.21875 " fill-opacity="1" fill-rule="nonzero"/></g><path fill="#dfaa61" d="M 136.039062 204.472656 C 136.277344 211.96875 142.449219 217.996094 150.003906 217.996094 C 157.554688 217.996094 163.726562 211.96875 163.964844 204.472656 L 150.003906 170.074219 Z M 150.003906 222.777344 C 139.664062 222.777344 131.253906 214.363281 131.253906 204.027344 C 131.253906 203.714844 131.3125 203.410156 131.425781 203.125 L 147.789062 162.820312 C 148.152344 161.917969 149.03125 161.328125 150.003906 161.328125 C 150.976562 161.328125 151.851562 161.917969 152.21875 162.820312 L 168.578125 203.125 C 168.695312 203.410156 168.753906 203.714844 168.753906 204.027344 C 168.753906 214.363281 160.34375 222.777344 150.003906 222.777344 " fill-opacity="1" fill-rule="nonzero"/><path fill="#dfaa61" d="M 166.363281 206.414062 L 133.640625 206.414062 C 132.320312 206.414062 131.253906 205.34375 131.253906 204.027344 C 131.253906 202.703125 132.320312 201.636719 133.640625 201.636719 L 166.363281 201.636719 C 167.683594 201.636719 168.753906 202.703125 168.753906 204.027344 C 168.753906 205.34375 167.683594 206.414062 166.363281 206.414062 " fill-opacity="1" fill-rule="nonzero"/><path fill="#dfaa61" d="M 211.027344 204.472656 C 211.265625 211.96875 217.4375 217.996094 224.988281 217.996094 C 232.542969 217.996094 238.714844 211.96875 238.953125 204.472656 L 224.988281 170.074219 Z M 224.988281 222.777344 C 214.648438 222.777344 206.238281 214.363281 206.238281 204.027344 C 206.238281 203.714844 206.296875 203.410156 206.414062 203.125 L 222.773438 162.820312 C 223.140625 161.917969 224.015625 161.328125 224.988281 161.328125 C 225.960938 161.328125 226.839844 161.917969 227.203125 162.820312 L 243.566406 203.125 C 243.679688 203.410156 243.742188 203.714844 243.742188 204.027344 C 243.742188 214.363281 235.328125 222.777344 224.988281 222.777344 " fill-opacity="1" fill-rule="nonzero"/><path fill="#dfaa61" d="M 241.351562 206.414062 L 208.628906 206.414062 C 207.308594 206.414062 206.238281 205.34375 206.238281 204.027344 C 206.238281 202.703125 207.308594 201.636719 208.628906 201.636719 L 241.351562 201.636719 C 242.671875 201.636719 243.742188 202.703125 243.742188 204.027344 C 243.742188 205.34375 242.671875 206.414062 241.351562 206.414062 " fill-opacity="1" fill-rule="nonzero"/><path fill="#dfaa61" d="M 164.167969 303.921875 C 163.554688 303.921875 162.941406 303.6875 162.476562 303.222656 C 161.542969 302.289062 161.542969 300.773438 162.476562 299.839844 L 168.515625 293.800781 C 170.546875 291.769531 172.925781 290.179688 175.578125 289.082031 C 178.234375 287.980469 181.035156 287.421875 183.910156 287.421875 L 215.316406 287.421875 C 220.0625 287.421875 224.988281 285.167969 228.496094 281.390625 L 256.871094 248.695312 C 257.96875 247.429688 258.574219 245.8125 258.574219 244.140625 C 258.574219 242.121094 257.699219 240.203125 256.175781 238.882812 C 253.28125 236.371094 248.878906 236.683594 246.363281 239.578125 L 225.640625 263.460938 C 224.777344 264.457031 223.265625 264.5625 222.269531 263.699219 C 221.269531 262.832031 221.164062 261.324219 222.03125 260.328125 L 242.753906 236.445312 C 246.996094 231.558594 254.421875 231.03125 259.308594 235.273438 C 261.878906 237.503906 263.351562 240.734375 263.351562 244.140625 C 263.351562 246.960938 262.332031 249.691406 260.480469 251.828125 L 232.082031 284.554688 C 232.066406 284.570312 232.046875 284.59375 232.03125 284.609375 C 227.566406 289.4375 221.472656 292.203125 215.316406 292.203125 L 183.910156 292.203125 C 179.371094 292.203125 175.105469 293.972656 171.898438 297.179688 L 165.855469 303.222656 C 165.390625 303.6875 164.777344 303.921875 164.167969 303.921875 " fill-opacity="1" fill-rule="nonzero"/><path fill="#dfaa61" d="M 117.410156 284.128906 L 147.796875 314.519531 L 160.785156 301.53125 L 130.398438 271.144531 Z M 147.796875 320.289062 C 147.1875 320.289062 146.574219 320.054688 146.109375 319.585938 L 112.339844 285.820312 C 111.890625 285.371094 111.640625 284.761719 111.640625 284.128906 C 111.640625 283.496094 111.890625 282.886719 112.339844 282.441406 L 128.707031 266.070312 C 129.640625 265.136719 131.15625 265.136719 132.089844 266.070312 L 165.855469 299.839844 C 166.304688 300.289062 166.554688 300.894531 166.554688 301.53125 C 166.554688 302.164062 166.304688 302.773438 165.855469 303.222656 L 149.488281 319.585938 C 149.023438 320.054688 148.410156 320.289062 147.796875 320.289062 " fill-opacity="1" fill-rule="nonzero"/><path fill="#dfaa61" d="M 214.84375 274.140625 L 181.519531 274.140625 C 180.199219 274.140625 179.128906 273.070312 179.128906 271.75 C 179.128906 270.429688 180.199219 269.359375 181.519531 269.359375 L 214.84375 269.359375 C 218.503906 269.359375 221.484375 266.378906 221.484375 262.71875 C 221.484375 262.511719 221.472656 262.3125 221.457031 262.125 C 221.457031 262.117188 221.457031 262.113281 221.453125 262.105469 C 221.316406 260.570312 220.636719 259.121094 219.539062 258.023438 C 218.285156 256.769531 216.617188 256.078125 214.84375 256.078125 L 152.5 256.078125 C 147.960938 256.078125 143.695312 257.84375 140.488281 261.054688 L 132.085938 269.453125 C 131.15625 270.386719 129.640625 270.386719 128.707031 269.453125 C 127.773438 268.519531 127.773438 267.003906 128.707031 266.070312 L 137.105469 257.671875 C 139.136719 255.640625 141.515625 254.054688 144.167969 252.953125 C 146.824219 251.855469 149.625 251.296875 152.5 251.296875 L 214.84375 251.296875 C 217.894531 251.296875 220.761719 252.484375 222.917969 254.640625 C 224.808594 256.53125 225.976562 259.027344 226.214844 261.671875 C 226.246094 262.011719 226.265625 262.363281 226.265625 262.71875 C 226.265625 269.015625 221.140625 274.140625 214.84375 274.140625 " fill-opacity="1" fill-rule="nonzero"/><path fill="#dfaa61" d="M 191.769531 248.152344 L 183.222656 248.152344 C 181.902344 248.152344 180.832031 247.082031 180.832031 245.761719 L 180.832031 170.113281 C 180.832031 168.796875 181.902344 167.722656 183.222656 167.722656 C 184.542969 167.722656 185.609375 168.796875 185.609375 170.113281 L 185.609375 243.371094 L 189.382812 243.371094 L 189.382812 170.113281 C 189.382812 168.796875 190.453125 167.722656 191.769531 167.722656 C 193.09375 167.722656 194.164062 168.796875 194.164062 170.113281 L 194.164062 245.761719 C 194.164062 247.082031 193.09375 248.152344 191.769531 248.152344 " fill-opacity="1" fill-rule="nonzero"/><path fill="#dfaa61" d="M 171.992188 251.296875 L 203 251.296875 L 203 248.152344 L 171.992188 248.152344 Z M 205.390625 256.078125 L 169.601562 256.078125 C 168.28125 256.078125 167.210938 255.007812 167.210938 253.6875 L 167.210938 245.761719 C 167.210938 244.441406 168.28125 243.371094 169.601562 243.371094 L 205.390625 243.371094 C 206.710938 243.371094 207.78125 244.441406 207.78125 245.761719 L 207.78125 253.6875 C 207.78125 255.007812 206.710938 256.078125 205.390625 256.078125 " fill-opacity="1" fill-rule="nonzero"/><path fill="#dfaa61" d="M 187.496094 158.78125 C 184.773438 158.78125 182.558594 160.996094 182.558594 163.71875 C 182.558594 166.441406 184.773438 168.65625 187.496094 168.65625 C 190.21875 168.65625 192.433594 166.441406 192.433594 163.71875 C 192.433594 160.996094 190.21875 158.78125 187.496094 158.78125 Z M 187.496094 173.4375 C 182.136719 173.4375 177.777344 169.078125 177.777344 163.71875 C 177.777344 158.359375 182.136719 154 187.496094 154 C 192.855469 154 197.214844 158.359375 197.214844 163.71875 C 197.214844 169.078125 192.855469 173.4375 187.496094 173.4375 " fill-opacity="1" fill-rule="nonzero"/><path fill="#dfaa61" d="M 234.875 166.109375 L 194.824219 166.109375 C 193.503906 166.109375 192.433594 165.039062 192.433594 163.71875 C 192.433594 162.398438 193.503906 161.328125 194.824219 161.328125 L 234.875 161.328125 C 236.195312 161.328125 237.265625 162.398438 237.265625 163.71875 C 237.265625 165.039062 236.195312 166.109375 234.875 166.109375 " fill-opacity="1" fill-rule="nonzero"/><path fill="#dfaa61" d="M 180.167969 166.109375 L 140.117188 166.109375 C 138.796875 166.109375 137.726562 165.039062 137.726562 163.71875 C 137.726562 162.398438 138.796875 161.328125 140.117188 161.328125 L 180.167969 161.328125 C 181.488281 161.328125 182.558594 162.398438 182.558594 163.71875 C 182.558594 165.039062 181.488281 166.109375 180.167969 166.109375 " fill-opacity="1" fill-rule="nonzero"/><path fill="#dfaa61" d="M 191.074219 159.714844 C 189.757812 159.714844 188.683594 158.644531 188.683594 157.324219 L 188.683594 152.113281 C 188.683594 151.457031 188.152344 150.925781 187.496094 150.925781 C 186.839844 150.925781 186.308594 151.457031 186.308594 152.113281 L 186.308594 157.324219 C 186.308594 158.644531 185.238281 159.714844 183.917969 159.714844 C 182.597656 159.714844 181.527344 158.644531 181.527344 157.324219 L 181.527344 152.113281 C 181.527344 148.824219 184.203125 146.144531 187.496094 146.144531 C 190.789062 146.144531 193.464844 148.824219 193.464844 152.113281 L 193.464844 157.324219 C 193.464844 158.644531 192.394531 159.714844 191.074219 159.714844 " fill-opacity="1" fill-rule="nonzero"/><g clip-path="url(#3dd092190b)"><path fill="#ffffff" d="M 187.84375 6.519531 L 197.203125 25.453125 L 218.140625 28.492188 L 202.988281 43.242188 L 206.574219 64.050781 L 187.84375 54.226562 L 169.101562 64.050781 L 172.679688 43.242188 L 157.535156 28.492188 L 178.472656 25.453125 Z M 187.84375 6.519531 " fill-opacity="1" fill-rule="nonzero"/></g><g clip-path="url(#f62d802ebd)"><path fill="#ffffff" d="M 187.699219 6.335938 L 197.070312 25.273438 L 218.007812 28.308594 L 202.851562 43.058594 L 206.429688 63.871094 L 187.699219 54.046875 L 168.96875 63.871094 L 172.546875 43.058594 L 157.390625 28.308594 L 178.328125 25.273438 Z M 187.699219 6.335938 " fill-opacity="1" fill-rule="nonzero"/><path fill="#ffffff" d="M 187.699219 6.335938 L 197.070312 25.273438 L 218.007812 28.308594 L 202.851562 43.058594 L 206.429688 63.871094 L 187.699219 54.046875 L 168.96875 63.871094 L 172.546875 43.058594 L 157.390625 28.308594 L 178.328125 25.273438 Z M 187.699219 6.335938 " fill-opacity="1" fill-rule="nonzero"/><path fill="#ffffff" d="M 187.699219 6.335938 L 197.070312 25.273438 L 218.007812 28.308594 L 202.851562 43.058594 L 206.429688 63.871094 L 187.699219 54.046875 L 168.96875 63.871094 L 172.546875 43.058594 L 157.390625 28.308594 L 178.328125 25.273438 Z M 187.699219 6.335938 " fill-opacity="1" fill-rule="nonzero"/></g><g clip-path="url(#043ffb128a)"><path fill="#ffffff" d="M 267.730469 6.519531 L 277.085938 25.453125 L 298.023438 28.492188 L 282.871094 43.242188 L 286.460938 64.050781 L 267.730469 54.226562 L 248.984375 64.050781 L 252.5625 43.242188 L 237.421875 28.492188 L 258.355469 25.453125 Z M 267.730469 6.519531 " fill-opacity="1" fill-rule="nonzero"/></g><g clip-path="url(#edad2d12f4)"><path fill="#ffffff" d="M 267.582031 6.335938 L 276.953125 25.273438 L 297.890625 28.308594 L 282.738281 43.058594 L 286.3125 63.871094 L 267.582031 54.046875 L 248.851562 63.871094 L 252.429688 43.058594 L 237.273438 28.308594 L 258.210938 25.273438 Z M 267.582031 6.335938 " fill-opacity="1" fill-rule="nonzero"/><path fill="#ffffff" d="M 267.582031 6.335938 L 276.953125 25.273438 L 297.890625 28.308594 L 282.738281 43.058594 L 286.3125 63.871094 L 267.582031 54.046875 L 248.851562 63.871094 L 252.429688 43.058594 L 237.273438 28.308594 L 258.210938 25.273438 Z M 267.582031 6.335938 " fill-opacity="1" fill-rule="nonzero"/><path fill="#ffffff" d="M 267.582031 6.335938 L 276.953125 25.273438 L 297.890625 28.308594 L 282.738281 43.058594 L 286.3125 63.871094 L 267.582031 54.046875 L 248.851562 63.871094 L 252.429688 43.058594 L 237.273438 28.308594 L 258.210938 25.273438 Z M 267.582031 6.335938 " fill-opacity="1" fill-rule="nonzero"/></g></svg>