<svg xmlns="http://www.w3.org/2000/svg" xmlns:xlink="http://www.w3.org/1999/xlink" width="500" zoomAndPan="magnify" viewBox="0 0 375 374.999991" height="500" preserveAspectRatio="xMidYMid meet" version="1.0"><defs><clipPath id="c44c8ec56d"><path d="M 61.066406 205.210938 L 302.496094 205.210938 L 302.496094 301.96875 L 61.066406 301.96875 Z M 61.066406 205.210938 " clip-rule="nonzero"/></clipPath><clipPath id="b66721c35a"><path d="M 101.246094 50 L 148.496094 50 L 148.496094 94.84375 L 101.246094 94.84375 Z M 101.246094 50 " clip-rule="nonzero"/></clipPath><clipPath id="0799ac340f"><path d="M 101.246094 49.84375 L 148.496094 49.84375 L 148.496094 94.84375 L 101.246094 94.84375 Z M 101.246094 49.84375 " clip-rule="nonzero"/></clipPath><clipPath id="5ddb7392dc"><path d="M 164.183594 50 L 211.433594 50 L 211.433594 94.84375 L 164.183594 94.84375 Z M 164.183594 50 " clip-rule="nonzero"/></clipPath><clipPath id="b6dd51b0e0"><path d="M 164.183594 49.84375 L 211.433594 49.84375 L 211.433594 94.84375 L 164.183594 94.84375 Z M 164.183594 49.84375 " clip-rule="nonzero"/></clipPath><clipPath id="19fdc6d87a"><path d="M 226.46875 50 L 273.71875 50 L 273.71875 94.84375 L 226.46875 94.84375 Z M 226.46875 50 " clip-rule="nonzero"/></clipPath><clipPath id="cdbcfd2d32"><path d="M 226.46875 49.84375 L 273.71875 49.84375 L 273.71875 94.84375 L 226.46875 94.84375 Z M 226.46875 49.84375 " clip-rule="nonzero"/></clipPath></defs><g clip-path="url(#c44c8ec56d)"><path fill="#ffffff" d="M 297.640625 279.160156 C 293.207031 281.695312 286.492188 285.011719 277.15625 288.300781 C 259.496094 294.539062 228.601562 301.96875 181.714844 301.96875 C 134.828125 301.96875 103.933594 294.539062 86.273438 288.300781 C 76.933594 285.007812 70.21875 281.695312 65.789062 279.164062 C 62.820312 277.464844 61.074219 274.230469 61.269531 270.816406 L 64.8125 207.292969 C 64.855469 206.597656 65.238281 206 65.800781 205.675781 L 179.085938 243.828125 C 180.792969 244.402344 182.636719 244.402344 184.34375 243.828125 L 297.628906 205.675781 C 298.191406 206 298.578125 206.597656 298.617188 207.292969 L 302.160156 270.816406 C 302.351562 274.230469 300.605469 277.464844 297.640625 279.160156 " fill-opacity="1" fill-rule="nonzero"/></g><path fill="#ffffff" d="M 179.125 108.46875 L 2.117188 168.527344 C -0.0078125 169.25 -0.0078125 172.253906 2.117188 172.980469 L 55.203125 190.988281 L 65.523438 194.492188 L 179.125 233.039062 C 180.804688 233.609375 182.625 233.609375 184.304688 233.039062 L 297.90625 194.492188 L 308.226562 190.988281 L 309.464844 190.566406 C 299.53125 178.613281 288.035156 171.359375 274.824219 168.632812 C 240.441406 161.53125 188.289062 172.429688 187.765625 172.539062 C 185.066406 173.105469 182.414062 171.738281 181.707031 169.429688 C 181.375 168.320312 181.519531 167.148438 182.125 166.125 C 182.828125 164.9375 184.082031 164.078125 185.570312 163.761719 C 187.808594 163.289062 240.804688 152.261719 277.445312 159.835938 C 293.808594 163.214844 307.746094 172.25 319.460938 187.175781 L 361.3125 172.980469 C 363.4375 172.253906 363.4375 169.25 361.3125 168.527344 L 184.304688 108.46875 C 182.625 107.898438 180.804688 107.898438 179.125 108.46875 " fill-opacity="1" fill-rule="nonzero"/><path fill="#ffffff" d="M 373.691406 285.957031 L 352.265625 243.332031 C 352.011719 242.101562 351.445312 239.792969 350.390625 237.445312 C 347.890625 231.871094 344.390625 229.902344 341.617188 229.292969 C 335.351562 212.070312 327.996094 198.054688 319.460938 187.175781 L 309.464844 190.566406 C 318.355469 201.257812 325.984375 215.707031 332.480469 234.035156 C 331.425781 236.050781 330.769531 238.820312 331.171875 242.625 C 331.464844 245.453125 332.25 247.933594 332.621094 248.992188 L 341.3125 295.277344 C 341.773438 297.734375 343.90625 299.527344 346.40625 299.558594 C 346.425781 299.558594 346.46875 299.558594 346.527344 299.558594 C 347.898438 299.558594 359.332031 299.359375 371.453125 292.957031 C 373.980469 291.621094 374.976562 288.507812 373.691406 285.957031 " fill-opacity="1" fill-rule="nonzero"/><g clip-path="url(#b66721c35a)"><path fill="#ffffff" d="M 124.933594 50.003906 L 132.214844 64.753906 L 148.496094 67.121094 L 136.710938 78.613281 L 139.5 94.824219 L 124.933594 87.171875 L 110.355469 94.824219 L 113.136719 78.613281 L 101.359375 67.121094 L 117.644531 64.753906 Z M 124.933594 50.003906 " fill-opacity="1" fill-rule="nonzero"/></g><g clip-path="url(#0799ac340f)"><path fill="#ffffff" d="M 124.820312 49.859375 L 132.109375 64.613281 L 148.394531 66.980469 L 136.605469 78.46875 L 139.390625 94.683594 L 124.820312 87.03125 L 110.253906 94.683594 L 113.035156 78.46875 L 101.246094 66.980469 L 117.53125 64.613281 Z M 124.820312 49.859375 " fill-opacity="1" fill-rule="nonzero"/><path fill="#ffffff" d="M 124.820312 49.859375 L 132.109375 64.613281 L 148.394531 66.980469 L 136.605469 78.46875 L 139.390625 94.683594 L 124.820312 87.03125 L 110.253906 94.683594 L 113.035156 78.46875 L 101.246094 66.980469 L 117.53125 64.613281 Z M 124.820312 49.859375 " fill-opacity="1" fill-rule="nonzero"/><path fill="#ffffff" d="M 124.820312 49.859375 L 132.109375 64.613281 L 148.394531 66.980469 L 136.605469 78.46875 L 139.390625 94.683594 L 124.820312 87.03125 L 110.253906 94.683594 L 113.035156 78.46875 L 101.246094 66.980469 L 117.53125 64.613281 Z M 124.820312 49.859375 " fill-opacity="1" fill-rule="nonzero"/></g><g clip-path="url(#5ddb7392dc)"><path fill="#ffffff" d="M 187.871094 50.003906 L 195.148438 64.753906 L 211.433594 67.121094 L 199.648438 78.613281 L 202.4375 94.824219 L 187.871094 87.171875 L 173.292969 94.824219 L 176.074219 78.613281 L 164.296875 67.121094 L 180.582031 64.753906 Z M 187.871094 50.003906 " fill-opacity="1" fill-rule="nonzero"/></g><g clip-path="url(#b6dd51b0e0)"><path fill="#ffffff" d="M 187.757812 49.859375 L 195.046875 64.613281 L 211.328125 66.980469 L 199.542969 78.46875 L 202.324219 94.683594 L 187.757812 87.03125 L 173.1875 94.683594 L 175.96875 78.46875 L 164.183594 66.980469 L 180.46875 64.613281 Z M 187.757812 49.859375 " fill-opacity="1" fill-rule="nonzero"/><path fill="#ffffff" d="M 187.757812 49.859375 L 195.046875 64.613281 L 211.328125 66.980469 L 199.542969 78.46875 L 202.324219 94.683594 L 187.757812 87.03125 L 173.1875 94.683594 L 175.96875 78.46875 L 164.183594 66.980469 L 180.46875 64.613281 Z M 187.757812 49.859375 " fill-opacity="1" fill-rule="nonzero"/><path fill="#ffffff" d="M 187.757812 49.859375 L 195.046875 64.613281 L 211.328125 66.980469 L 199.542969 78.46875 L 202.324219 94.683594 L 187.757812 87.03125 L 173.1875 94.683594 L 175.96875 78.46875 L 164.183594 66.980469 L 180.46875 64.613281 Z M 187.757812 49.859375 " fill-opacity="1" fill-rule="nonzero"/></g><g clip-path="url(#19fdc6d87a)"><path fill="#ffffff" d="M 250.152344 50.003906 L 257.433594 64.753906 L 273.71875 67.121094 L 261.929688 78.613281 L 264.722656 94.824219 L 250.152344 87.171875 L 235.578125 94.824219 L 238.359375 78.613281 L 226.582031 67.121094 L 242.867188 64.753906 Z M 250.152344 50.003906 " fill-opacity="1" fill-rule="nonzero"/></g><g clip-path="url(#cdbcfd2d32)"><path fill="#ffffff" d="M 250.042969 49.859375 L 257.328125 64.613281 L 273.613281 66.980469 L 261.828125 78.46875 L 264.609375 94.683594 L 250.042969 87.03125 L 235.472656 94.683594 L 238.253906 78.46875 L 226.46875 66.980469 L 242.753906 64.613281 Z M 250.042969 49.859375 " fill-opacity="1" fill-rule="nonzero"/><path fill="#ffffff" d="M 250.042969 49.859375 L 257.328125 64.613281 L 273.613281 66.980469 L 261.828125 78.46875 L 264.609375 94.683594 L 250.042969 87.03125 L 235.472656 94.683594 L 238.253906 78.46875 L 226.46875 66.980469 L 242.753906 64.613281 Z M 250.042969 49.859375 " fill-opacity="1" fill-rule="nonzero"/><path fill="#ffffff" d="M 250.042969 49.859375 L 257.328125 64.613281 L 273.613281 66.980469 L 261.828125 78.46875 L 264.609375 94.683594 L 250.042969 87.03125 L 235.472656 94.683594 L 238.253906 78.46875 L 226.46875 66.980469 L 242.753906 64.613281 Z M 250.042969 49.859375 " fill-opacity="1" fill-rule="nonzero"/></g></svg>