<svg xmlns="http://www.w3.org/2000/svg" xmlns:xlink="http://www.w3.org/1999/xlink" width="500" zoomAndPan="magnify" viewBox="0 0 375 374.999991" height="500" preserveAspectRatio="xMidYMid meet" version="1.0"><defs><clipPath id="1deb9ba140"><path d="M 79.132812 14.429688 L 138.382812 14.429688 L 138.382812 70.679688 L 79.132812 70.679688 Z M 79.132812 14.429688 " clip-rule="nonzero"/></clipPath><clipPath id="abc010d011"><path d="M 45.460938 107.382812 L 329.710938 107.382812 L 329.710938 360.882812 L 45.460938 360.882812 Z M 45.460938 107.382812 " clip-rule="nonzero"/></clipPath><clipPath id="645798df9a"><path d="M 158.207031 14.429688 L 217.457031 14.429688 L 217.457031 70.679688 L 158.207031 70.679688 Z M 158.207031 14.429688 " clip-rule="nonzero"/></clipPath><clipPath id="41137df89b"><path d="M 236.457031 14.429688 L 295.707031 14.429688 L 295.707031 70.679688 L 236.457031 70.679688 Z M 236.457031 14.429688 " clip-rule="nonzero"/></clipPath></defs><g clip-path="url(#1deb9ba140)"><path fill="#ffbd59" d="M 108.914062 14.625 L 118.0625 33.175781 L 138.535156 36.152344 L 123.71875 50.601562 L 127.226562 70.992188 L 108.914062 61.367188 L 90.585938 70.992188 L 94.082031 50.601562 L 79.277344 36.152344 L 99.75 33.175781 Z M 108.914062 14.625 " fill-opacity="1" fill-rule="nonzero"/><path fill="#ffbd59" d="M 108.769531 14.445312 L 117.933594 33 L 138.40625 35.976562 L 123.589844 50.425781 L 127.085938 70.816406 L 108.769531 61.1875 L 90.457031 70.816406 L 93.953125 50.425781 L 79.132812 35.976562 L 99.605469 33 Z M 108.769531 14.445312 " fill-opacity="1" fill-rule="nonzero"/><path fill="#ffbd59" d="M 108.769531 14.445312 L 117.933594 33 L 138.40625 35.976562 L 123.589844 50.425781 L 127.085938 70.816406 L 108.769531 61.1875 L 90.457031 70.816406 L 93.953125 50.425781 L 79.132812 35.976562 L 99.605469 33 Z M 108.769531 14.445312 " fill-opacity="1" fill-rule="nonzero"/><path fill="#ffbd59" d="M 108.769531 14.445312 L 117.933594 33 L 138.40625 35.976562 L 123.589844 50.425781 L 127.085938 70.816406 L 108.769531 61.1875 L 90.457031 70.816406 L 93.953125 50.425781 L 79.132812 35.976562 L 99.605469 33 Z M 108.769531 14.445312 " fill-opacity="1" fill-rule="nonzero"/></g><g clip-path="url(#abc010d011)"><path fill="#ffbd59" d="M 312.761719 250.011719 C 312.882812 249.621094 313.207031 249.332031 313.597656 249.261719 C 316.347656 248.8125 318.746094 247.722656 320.789062 246.003906 C 322.414062 244.628906 323.933594 242.59375 325.355469 239.882812 C 327.863281 235.101562 329.25 229.964844 329.503906 224.46875 C 329.523438 224.085938 329.382812 224.011719 329.082031 224.25 C 323.835938 228.421875 318.976562 233.074219 314.5 238.214844 C 314.027344 238.746094 313.828125 238.660156 313.890625 237.957031 L 314.988281 225.625 C 315.023438 225.265625 315.253906 224.953125 315.589844 224.804688 C 319.082031 223.320312 321.613281 221.042969 323.179688 217.980469 C 324.394531 215.605469 325.191406 212.464844 325.570312 208.554688 C 325.894531 205.21875 325.660156 201.851562 324.875 198.453125 C 324.753906 197.9375 324.535156 197.886719 324.207031 198.296875 C 320.320312 203.257812 316.773438 208.488281 313.574219 213.992188 C 313.46875 214.171875 313.398438 214.160156 313.367188 213.957031 L 311.414062 202.792969 C 311.3125 202.195312 311.480469 201.59375 311.867188 201.164062 C 316.480469 196.046875 318.484375 190.207031 317.875 183.640625 C 317.546875 180.074219 316.664062 176.480469 315.238281 172.859375 C 315.136719 172.605469 315.015625 172.59375 314.875 172.828125 C 311.726562 178.074219 309.097656 183.480469 306.988281 189.039062 C 306.878906 189.320312 306.765625 189.324219 306.636719 189.054688 L 302.160156 179.347656 C 301.851562 178.6875 301.859375 178.027344 302.171875 177.367188 C 304.453125 172.558594 305.3125 167.726562 304.746094 162.875 C 304.191406 158.039062 302.484375 153.574219 299.632812 149.480469 C 299.335938 149.054688 299.078125 149.078125 298.859375 149.550781 C 298.4375 150.484375 298.097656 151.589844 297.851562 152.867188 C 297.015625 157.1875 296.089844 161.683594 295.078125 166.355469 C 295.003906 166.679688 294.863281 166.710938 294.652344 166.453125 L 287.636719 157.617188 C 287.191406 157.050781 287.054688 156.445312 287.230469 155.796875 C 289.191406 148.300781 288.398438 141.058594 284.84375 134.070312 C 283.863281 132.136719 282.597656 130.40625 281.050781 128.882812 C 280.835938 128.667969 280.695312 128.710938 280.621094 129.003906 C 279.289062 134.515625 278.597656 140.109375 278.542969 145.785156 C 278.542969 146.003906 278.46875 146.03125 278.316406 145.875 L 270.1875 137.648438 C 269.644531 137.101562 269.429688 136.4375 269.539062 135.664062 C 269.8125 133.742188 269.539062 131.648438 268.722656 129.382812 C 266.046875 121.964844 261.601562 116.039062 255.390625 111.605469 C 254.589844 111.03125 254.214844 111.238281 254.261719 112.222656 C 254.539062 117.859375 255.683594 123.226562 257.699219 128.332031 C 257.863281 128.746094 257.769531 128.8125 257.417969 128.535156 C 254.175781 125.96875 250.902344 123.488281 247.59375 121.097656 C 243.539062 118.167969 240.078125 115.964844 237.210938 114.492188 C 230.882812 111.238281 224.152344 109.011719 217.027344 107.824219 C 215.761719 107.617188 214.480469 107.539062 213.1875 107.601562 C 212.929688 107.617188 212.894531 107.710938 213.082031 107.882812 C 216.4375 111.050781 219.941406 114 223.601562 116.734375 C 228.457031 120.363281 232 122.714844 234.234375 123.78125 C 238.039062 125.605469 242.371094 126.695312 247.230469 127.046875 C 248.179688 127.121094 249.003906 127.433594 249.699219 127.988281 L 255.808594 132.886719 C 257.027344 133.863281 256.859375 134.242188 255.3125 134.015625 C 248.585938 133.058594 242.898438 134.710938 238.242188 138.976562 C 238.21875 138.996094 238.203125 139.015625 238.191406 139.042969 C 238.140625 139.152344 238.1875 139.28125 238.296875 139.335938 C 247.132812 143.734375 256.386719 144.34375 266.054688 141.164062 C 266.480469 141.023438 266.945312 141.121094 267.253906 141.425781 L 275.082031 149.117188 C 275.742188 149.761719 275.621094 149.960938 274.734375 149.71875 C 273.917969 149.492188 273.136719 149.289062 272.382812 149.105469 C 271.574219 148.90625 270.777344 148.804688 269.984375 148.804688 C 265.5 148.804688 260.867188 149.402344 256.097656 150.59375 C 255.824219 150.664062 255.800781 150.78125 256.019531 150.953125 C 264.460938 157.246094 273.765625 160.277344 283.9375 160.046875 C 284.140625 160.042969 284.335938 160.125 284.46875 160.277344 C 287.101562 163.191406 289.390625 166.367188 291.332031 169.792969 C 291.4375 169.972656 291.386719 170.027344 291.1875 169.953125 C 284.695312 167.507812 277.976562 166.054688 271.027344 165.59375 C 270.640625 165.566406 270.5625 165.710938 270.796875 166.015625 C 272.257812 167.933594 273.867188 169.777344 275.628906 171.546875 C 281.121094 177.105469 288.410156 180.285156 297.488281 181.09375 C 297.722656 181.113281 297.9375 181.253906 298.050781 181.460938 C 300.023438 185.035156 301.726562 188.640625 303.15625 192.261719 C 303.234375 192.449219 303.179688 192.492188 302.996094 192.382812 C 299.492188 190.226562 295.757812 188.609375 291.796875 187.53125 C 289.390625 186.878906 287.023438 186.246094 284.691406 185.632812 C 284.117188 185.480469 283.976562 185.660156 284.28125 186.167969 C 285.710938 188.574219 287.296875 190.855469 289.042969 193.015625 C 291.097656 195.558594 293.082031 197.476562 294.992188 198.765625 C 298.285156 200.984375 302.144531 202.371094 306.574219 202.925781 C 307.027344 202.980469 307.378906 203.304688 307.453125 203.71875 L 309.285156 214.570312 C 309.347656 214.945312 309.234375 215.011719 308.933594 214.753906 C 304.324219 210.777344 299.105469 207.910156 293.273438 206.144531 C 293.246094 206.136719 293.214844 206.136719 293.183594 206.140625 C 293.070312 206.15625 292.992188 206.257812 293.011719 206.371094 C 294.207031 214.5625 298.523438 220.40625 305.960938 223.90625 C 307.25 224.511719 308.679688 224.890625 310.257812 225.046875 C 310.441406 225.066406 310.574219 225.226562 310.558594 225.40625 L 309.832031 237.234375 C 309.789062 237.984375 309.546875 238.058594 309.109375 237.453125 C 305.929688 233.046875 301.929688 229.203125 297.101562 225.925781 C 297.058594 225.898438 297.003906 225.878906 296.953125 225.875 C 296.785156 225.859375 296.636719 225.988281 296.625 226.15625 C 296.4375 228.503906 296.410156 230.949219 296.546875 233.492188 C 296.664062 235.761719 297.175781 237.773438 298.078125 239.527344 C 300.269531 243.773438 303.4375 246.839844 307.585938 248.726562 C 308.011719 248.921875 308.242188 249.390625 308.132812 249.847656 C 307.140625 253.871094 305.890625 257.78125 304.386719 261.578125 C 304.148438 262.183594 303.953125 262.167969 303.8125 261.539062 C 302.976562 257.925781 301.597656 254.367188 299.675781 250.867188 C 298.449219 248.628906 297.183594 246.898438 295.878906 245.6875 C 295.859375 245.664062 295.832031 245.648438 295.800781 245.640625 C 295.691406 245.605469 295.578125 245.667969 295.539062 245.78125 C 294.425781 249.152344 293.785156 252.617188 293.617188 256.175781 C 293.332031 262.09375 295.222656 267.167969 299.285156 271.398438 C 299.515625 271.640625 299.570312 271.992188 299.425781 272.265625 L 294.199219 281.953125 C 294.042969 282.246094 293.9375 282.226562 293.890625 281.898438 C 292.964844 276.28125 291.148438 271.117188 288.4375 266.398438 C 288.085938 265.78125 287.769531 265.800781 287.484375 266.453125 C 285.84375 270.308594 284.828125 274.503906 284.445312 279.035156 C 284.089844 283.226562 284.96875 287.300781 287.082031 291.265625 C 287.503906 292.054688 287.449219 292.761719 286.917969 293.386719 L 279.433594 302.203125 C 279.269531 302.394531 279.1875 302.363281 279.191406 302.101562 C 279.253906 296.679688 278.535156 291.21875 277.023438 285.71875 C 277.015625 285.679688 276.992188 285.640625 276.960938 285.605469 C 276.855469 285.492188 276.683594 285.480469 276.570312 285.585938 C 275.488281 286.558594 274.648438 287.5625 274.046875 288.585938 C 272.097656 291.910156 270.601562 295.425781 269.5625 299.136719 C 268.589844 302.589844 268.527344 306.058594 269.371094 309.539062 C 269.417969 309.730469 269.359375 309.933594 269.214844 310.070312 C 265.988281 313.070312 262.640625 315.757812 259.179688 318.132812 C 258.828125 318.371094 258.726562 318.292969 258.871094 317.894531 C 259.71875 315.570312 260.1875 313.316406 260.273438 311.132812 C 260.390625 307.871094 260.253906 304.621094 259.863281 301.394531 C 259.792969 300.828125 259.542969 300.730469 259.109375 301.089844 C 253.1875 306.070312 249.4375 312.367188 247.859375 319.976562 C 247.691406 320.796875 247.582031 321.851562 247.535156 323.144531 C 247.523438 323.441406 247.359375 323.710938 247.105469 323.84375 L 236.84375 329.5 C 236.402344 329.742188 236.3125 329.644531 236.578125 329.210938 C 239.71875 324.058594 241.292969 318.472656 241.292969 312.445312 C 241.292969 312.417969 241.289062 312.394531 241.28125 312.371094 C 241.242188 312.238281 241.105469 312.164062 240.976562 312.203125 C 239.617188 312.585938 238.371094 313.203125 237.230469 314.0625 C 231.699219 318.210938 227.34375 323.511719 224.175781 329.972656 C 224.035156 330.265625 223.785156 330.5 223.480469 330.617188 C 212.753906 334.890625 201.820312 337.644531 190.679688 338.878906 C 188.386719 339.136719 186.097656 339.105469 183.8125 338.796875 C 172.835938 337.296875 162.191406 334.585938 151.875 330.667969 C 151.183594 330.402344 150.664062 329.945312 150.316406 329.300781 C 147.828125 324.691406 144.765625 320.511719 141.121094 316.757812 C 139.203125 314.777344 136.933594 313.273438 134.3125 312.238281 C 134.21875 312.199219 134.117188 312.183594 134.015625 312.195312 C 133.664062 312.226562 133.40625 312.539062 133.4375 312.890625 C 133.984375 318.890625 135.644531 324.335938 138.414062 329.222656 C 138.652344 329.640625 138.578125 329.707031 138.191406 329.421875 C 135.285156 327.265625 132.019531 325.296875 128.390625 323.511719 C 128.195312 323.410156 128.070312 323.21875 128.0625 323.003906 C 128.015625 321.457031 127.769531 319.964844 127.324219 318.523438 C 125.746094 313.488281 123.289062 308.929688 119.957031 304.847656 C 118.699219 303.308594 117.28125 302.035156 115.707031 301.019531 C 115.644531 300.976562 115.570312 300.953125 115.492188 300.949219 C 115.234375 300.929688 115.011719 301.121094 114.992188 301.375 C 114.746094 304.5625 114.71875 307.648438 114.910156 310.628906 C 115.0625 313.070312 115.617188 315.417969 116.570312 317.679688 C 116.84375 318.324219 116.707031 318.429688 116.164062 318 L 106.414062 310.203125 C 106.269531 310.089844 106.214844 309.890625 106.269531 309.699219 C 106.921875 307.363281 107.15625 305.496094 106.976562 304.089844 C 106.113281 297.335938 103.496094 291.273438 99.125 285.894531 C 98.554688 285.199219 98.167969 285.285156 97.96875 286.164062 C 96.773438 291.375 96.246094 296.726562 96.394531 302.222656 C 96.402344 302.511719 96.308594 302.550781 96.121094 302.335938 L 87.679688 292.898438 C 87.429688 292.613281 87.394531 292.179688 87.597656 291.824219 C 90.320312 287.070312 91.222656 282.140625 90.300781 277.039062 C 89.925781 274.945312 89.386719 272.972656 88.679688 271.121094 C 87.941406 269.183594 86.933594 267.382812 85.648438 265.71875 C 85.628906 265.695312 85.605469 265.679688 85.578125 265.664062 C 85.476562 265.617188 85.359375 265.65625 85.3125 265.753906 C 82.988281 270.523438 81.425781 275.929688 80.621094 281.964844 C 80.546875 282.511719 80.382812 282.546875 80.128906 282.066406 L 74.851562 272.273438 C 74.757812 272.101562 74.785156 271.890625 74.914062 271.730469 C 76.851562 269.300781 78.210938 267.453125 78.984375 266.1875 C 80.191406 264.214844 80.898438 261.828125 81.101562 259.023438 C 81.425781 254.585938 80.816406 250.214844 79.28125 245.917969 C 79.101562 245.421875 78.851562 245.382812 78.53125 245.808594 C 74.9375 250.589844 72.332031 255.796875 70.722656 261.429688 C 70.597656 261.878906 70.449219 261.882812 70.289062 261.441406 C 68.8125 257.429688 67.605469 253.4375 66.679688 249.46875 C 66.582031 249.054688 66.777344 248.628906 67.160156 248.441406 C 71.628906 246.191406 74.894531 243.140625 76.953125 239.289062 C 77.765625 237.773438 78.230469 236.15625 78.355469 234.4375 C 78.546875 231.78125 78.605469 228.96875 78.535156 226 C 78.527344 225.671875 78.386719 225.601562 78.121094 225.796875 C 73.351562 229.238281 69.152344 233.351562 65.523438 238.136719 C 65.382812 238.320312 65.304688 238.300781 65.296875 238.074219 L 64.527344 225.484375 C 64.511719 225.226562 64.691406 224.996094 64.957031 224.933594 C 74.9375 222.476562 80.71875 216.285156 82.292969 206.351562 C 82.296875 206.324219 82.292969 206.292969 82.285156 206.265625 C 82.25 206.160156 82.140625 206.101562 82.035156 206.136719 C 76.332031 207.910156 71.191406 210.578125 66.621094 214.136719 C 66.199219 214.464844 66.023438 214.359375 66.085938 213.832031 C 66.496094 210.285156 67.148438 206.777344 68.046875 203.316406 C 68.144531 202.925781 68.492188 202.652344 68.898438 202.644531 C 71.417969 202.589844 73.8125 201.972656 76.078125 200.785156 C 82.488281 197.414062 87.371094 192.507812 90.734375 186.0625 C 90.882812 185.773438 90.796875 185.660156 90.476562 185.722656 C 84.167969 186.925781 78.0625 189.128906 72.164062 192.328125 C 71.675781 192.59375 71.527344 192.464844 71.714844 191.945312 C 72.949219 188.519531 74.515625 185.03125 76.410156 181.480469 C 76.527344 181.261719 76.746094 181.113281 76.992188 181.089844 C 85.808594 180.273438 92.875 177.179688 98.203125 171.8125 C 100.039062 169.957031 101.742188 167.984375 103.316406 165.894531 C 103.488281 165.660156 103.429688 165.554688 103.144531 165.582031 C 98.640625 165.992188 94.1875 166.703125 89.773438 167.722656 C 87.863281 168.164062 86.035156 168.839844 84.292969 169.742188 C 83.554688 170.121094 83.386719 169.949219 83.792969 169.226562 C 85.546875 166.097656 87.679688 163.117188 90.199219 160.273438 C 90.328125 160.125 90.527344 160.039062 90.734375 160.042969 C 100.707031 160.300781 109.585938 157.277344 117.371094 150.984375 C 117.871094 150.582031 117.804688 150.316406 117.183594 150.191406 C 115.871094 149.925781 114.472656 149.699219 112.988281 149.503906 C 112.925781 149.496094 111.699219 149.304688 109.308594 148.929688 C 105.96875 148.40625 102.648438 148.589844 99.347656 149.480469 C 99.140625 149.535156 99.109375 149.484375 99.242188 149.335938 C 101.992188 146.253906 105.015625 143.480469 108.316406 141.015625 C 108.484375 140.894531 108.695312 140.859375 108.882812 140.925781 C 117.703125 143.925781 126.578125 143.375 135.496094 139.269531 C 135.53125 139.257812 135.558594 139.234375 135.585938 139.210938 C 135.730469 139.082031 135.742188 138.855469 135.613281 138.714844 C 131.699219 134.527344 126.949219 132.824219 121.355469 133.609375 C 120.335938 133.753906 119.324219 133.773438 118.320312 133.671875 C 118.109375 133.648438 118.089844 133.574219 118.261719 133.433594 C 120.996094 131.320312 123.8125 129.324219 126.703125 127.445312 C 127.535156 126.90625 128.445312 126.582031 129.433594 126.488281 C 130.945312 126.332031 132.464844 126.214844 133.984375 126.121094 C 136.074219 126 138.566406 125.132812 141.453125 123.519531 C 145.8125 121.09375 149.894531 118.253906 153.6875 115.011719 C 156.382812 112.699219 159.203125 110.308594 162.144531 107.832031 C 162.460938 107.574219 162.410156 107.441406 162.003906 107.4375 C 160.023438 107.425781 158.34375 107.550781 156.96875 107.8125 C 146.347656 109.871094 136.703125 114.109375 128.03125 120.523438 C 124.167969 123.386719 120.335938 126.292969 116.535156 129.238281 C 116.371094 129.371094 116.335938 129.339844 116.414062 129.148438 C 118.707031 123.78125 120.109375 117.945312 120.617188 111.640625 C 120.65625 111.207031 120.492188 111.109375 120.125 111.351562 C 113.4375 115.785156 108.628906 121.878906 105.703125 129.636719 C 105.027344 131.433594 104.855469 133.722656 105.1875 136.5 C 105.214844 136.710938 105.144531 136.914062 105.003906 137.050781 L 96.3125 145.644531 C 96.054688 145.894531 95.933594 145.839844 95.941406 145.476562 C 96.054688 139.730469 95.503906 134.511719 94.292969 129.820312 C 94.09375 129.050781 93.753906 128.980469 93.273438 129.617188 C 87.617188 137.066406 85.714844 145.722656 87.558594 155.578125 C 87.683594 156.261719 87.519531 156.863281 87.066406 157.390625 C 84.6875 160.128906 82.339844 163.246094 80.027344 166.746094 C 79.746094 167.167969 79.558594 167.125 79.472656 166.625 L 76.519531 150.097656 C 76.351562 149.164062 75.992188 149.089844 75.4375 149.871094 C 69.636719 158.054688 68.660156 167.121094 72.503906 177.074219 C 72.871094 178.023438 72.84375 178.953125 72.417969 179.867188 L 68.027344 189.222656 C 67.855469 189.582031 67.707031 189.574219 67.574219 189.195312 C 65.636719 183.671875 63.003906 178.507812 59.683594 173.707031 C 59.558594 173.535156 59.457031 173.550781 59.382812 173.75 C 58.222656 176.769531 57.53125 180.171875 57.304688 183.953125 C 56.910156 190.613281 58.777344 196.222656 62.917969 200.792969 C 63.511719 201.445312 63.730469 202.222656 63.578125 203.132812 L 61.902344 212.921875 C 61.777344 213.660156 61.523438 213.710938 61.128906 213.082031 C 57.929688 207.871094 54.367188 202.890625 50.441406 198.140625 C 50.300781 197.976562 50.207031 197.996094 50.167969 198.203125 C 48.714844 205.230469 49.554688 211.945312 52.691406 218.351562 C 54.128906 221.285156 56.492188 223.378906 59.785156 224.632812 C 60.015625 224.71875 60.171875 224.941406 60.1875 225.199219 L 60.835938 238.246094 C 60.871094 239.027344 60.664062 239.101562 60.207031 238.476562 C 56.21875 232.953125 51.46875 228.109375 45.949219 223.9375 C 45.621094 223.6875 45.464844 223.765625 45.480469 224.179688 C 45.621094 229.601562 46.835938 234.628906 49.121094 239.269531 C 50.613281 242.300781 52.574219 244.769531 55.007812 246.675781 C 55.902344 247.367188 56.886719 247.910156 57.960938 248.296875 C 59.027344 248.683594 60.117188 248.972656 61.230469 249.167969 C 61.644531 249.242188 61.980469 249.535156 62.101562 249.929688 L 65.617188 261.511719 C 65.777344 262.042969 65.628906 262.144531 65.171875 261.824219 C 61.199219 259.035156 57.203125 256.390625 53.191406 253.890625 C 51.28125 252.695312 49.675781 251.851562 48.382812 251.363281 C 48.179688 251.285156 48.097656 251.351562 48.136719 251.570312 C 49.707031 259.953125 53.925781 266.414062 60.789062 270.949219 C 62.34375 271.976562 63.835938 272.722656 65.273438 273.1875 C 66.898438 273.710938 68.570312 274 70.277344 274.050781 C 70.550781 274.058594 70.800781 274.214844 70.933594 274.453125 L 76.480469 284.453125 C 76.792969 285.019531 76.660156 285.164062 76.070312 284.886719 C 70.015625 282.035156 63.632812 279.519531 56.914062 277.332031 C 56.65625 277.246094 56.582031 277.332031 56.691406 277.582031 C 58.488281 281.675781 60.914062 285.199219 63.96875 288.160156 C 69.023438 293.046875 75.347656 295.195312 82.949219 294.605469 C 83.230469 294.585938 83.5 294.695312 83.679688 294.898438 L 92.734375 305.21875 C 92.867188 305.375 92.914062 305.550781 92.847656 305.640625 C 92.785156 305.726562 92.660156 305.730469 92.464844 305.65625 C 88.660156 304.074219 84.71875 303.007812 80.636719 302.460938 C 77.71875 302.0625 74.800781 301.675781 71.882812 301.296875 C 71.671875 301.265625 71.625 301.335938 71.742188 301.515625 C 73.675781 304.28125 76.148438 306.804688 79.152344 309.082031 C 83.523438 312.386719 88.324219 314.335938 93.554688 314.929688 C 96.667969 315.277344 99.632812 314.886719 102.460938 313.757812 C 102.769531 313.632812 103.125 313.667969 103.402344 313.855469 C 107.007812 316.253906 110.453125 318.847656 113.742188 321.632812 C 114.570312 322.332031 114.460938 322.539062 113.417969 322.265625 C 111.730469 321.816406 110.015625 321.664062 108.28125 321.8125 C 103.984375 322.171875 99.457031 322.8125 94.695312 323.734375 C 94.402344 323.789062 94.367188 323.914062 94.597656 324.105469 C 97.308594 326.332031 100.195312 328.125 103.242188 329.484375 C 106.617188 330.988281 109.863281 331.769531 112.988281 331.824219 C 117.65625 331.910156 122.007812 330.554688 126.050781 327.761719 C 126.214844 327.644531 126.425781 327.625 126.605469 327.710938 C 130.304688 329.414062 133.851562 331.296875 137.246094 333.363281 C 138.101562 333.882812 138.03125 334.191406 137.035156 334.285156 C 131.078125 334.839844 125.425781 336.414062 120.082031 339.019531 C 119.605469 339.253906 119.605469 339.484375 120.082031 339.714844 C 125.078125 342.113281 130.351562 343.355469 135.90625 343.441406 C 141.480469 343.519531 146.183594 341.847656 150.015625 338.425781 C 150.421875 338.0625 150.988281 337.9375 151.515625 338.09375 C 160.808594 340.851562 169.78125 343.039062 178.4375 344.640625 C 179.59375 344.859375 179.597656 345.09375 178.453125 345.34375 C 169.292969 347.355469 161.714844 352.132812 155.722656 359.664062 C 155.242188 360.269531 155.386719 360.523438 156.148438 360.421875 C 161.925781 359.707031 167.191406 358.234375 171.949219 356.007812 C 177.125 353.574219 182.066406 350.660156 186.773438 347.261719 C 186.933594 347.148438 187.148438 347.148438 187.308594 347.261719 C 195.257812 352.949219 203.960938 357.058594 213.414062 359.582031 C 214.660156 359.914062 216.027344 360.109375 217.515625 360.171875 C 217.984375 360.1875 218.078125 360.007812 217.796875 359.636719 C 214.207031 354.847656 209.667969 351.027344 204.179688 348.179688 C 201.84375 346.96875 199.371094 346.097656 196.765625 345.570312 C 195.296875 345.277344 195.300781 345.007812 196.785156 344.773438 C 206.039062 343.285156 215.1875 340.953125 224.230469 337.78125 C 224.410156 337.714844 224.617188 337.761719 224.761719 337.902344 C 228.617188 341.710938 233.1875 343.59375 238.46875 343.546875 C 244.550781 343.492188 250.148438 342.039062 255.253906 339.179688 C 255.820312 338.867188 255.800781 338.578125 255.210938 338.320312 C 249.476562 335.765625 243.550781 334.371094 237.433594 334.132812 C 236.757812 334.105469 236.730469 333.945312 237.335938 333.648438 L 249.300781 327.84375 C 249.59375 327.703125 249.941406 327.722656 250.207031 327.902344 C 253.613281 330.195312 257.25 331.460938 261.113281 331.699219 C 264.386719 331.902344 267.828125 331.222656 271.449219 329.660156 C 274.636719 328.285156 277.695312 326.4375 280.636719 324.105469 C 280.914062 323.886719 280.882812 323.730469 280.535156 323.640625 C 274.042969 321.941406 267.742188 321.375 261.632812 321.945312 C 261.40625 321.96875 261.386719 321.914062 261.566406 321.78125 L 272.234375 313.851562 C 272.386719 313.738281 272.601562 313.703125 272.808594 313.753906 C 281.199219 315.917969 288.882812 314.410156 295.859375 309.234375 C 298.828125 307.035156 301.261719 304.5 303.15625 301.636719 C 303.273438 301.457031 303.222656 301.378906 303.011719 301.398438 C 299.90625 301.726562 296.816406 302.101562 293.730469 302.527344 C 290.101562 303.023438 286.589844 303.96875 283.191406 305.359375 C 282.53125 305.632812 282.417969 305.484375 282.847656 304.910156 C 285.328125 301.628906 288.230469 298.269531 291.550781 294.835938 C 291.785156 294.59375 292.117188 294.464844 292.453125 294.484375 C 298.421875 294.851562 303.628906 293.183594 308.074219 289.480469 C 311.894531 286.300781 314.855469 282.445312 316.953125 277.917969 C 317.140625 277.5 317.027344 277.375 316.605469 277.53125 L 298.644531 284.300781 C 298.242188 284.453125 298.148438 284.351562 298.359375 283.992188 L 304.285156 274.105469 C 304.425781 273.871094 304.699219 273.730469 305 273.730469 C 307.167969 273.738281 309.191406 273.277344 311.074219 272.339844 C 319.402344 268.171875 324.570312 261.367188 326.574219 251.921875 C 326.683594 251.402344 326.507812 251.277344 326.046875 251.539062 C 320.515625 254.738281 315.179688 258.105469 310.027344 261.640625 C 309.332031 262.113281 309.109375 261.945312 309.355469 261.136719 Z M 312.761719 250.011719 " fill-opacity="1" fill-rule="nonzero"/></g><path fill="#ffbd59" d="M 191.160156 156.425781 C 191.648438 156.628906 192.113281 156.878906 192.550781 157.171875 C 192.992188 157.464844 193.398438 157.796875 193.773438 158.171875 C 194.144531 158.542969 194.480469 158.953125 194.773438 159.390625 C 195.066406 159.828125 195.3125 160.292969 195.515625 160.78125 C 195.71875 161.269531 195.871094 161.773438 195.972656 162.292969 C 196.078125 162.808594 196.128906 163.332031 196.128906 163.859375 C 196.128906 164.390625 196.078125 164.914062 195.972656 165.429688 C 195.871094 165.949219 195.71875 166.453125 195.515625 166.941406 C 195.3125 167.429688 195.066406 167.890625 194.773438 168.332031 C 194.480469 168.769531 194.144531 169.175781 193.773438 169.550781 C 193.398438 169.925781 192.992188 170.257812 192.550781 170.550781 C 192.113281 170.84375 191.648438 171.09375 191.160156 171.296875 C 190.671875 171.496094 190.171875 171.648438 189.652344 171.753906 C 189.132812 171.855469 188.609375 171.90625 188.082031 171.90625 C 187.554688 171.90625 187.03125 171.855469 186.511719 171.753906 C 185.992188 171.648438 185.492188 171.496094 185.003906 171.296875 C 184.515625 171.09375 184.050781 170.84375 183.613281 170.550781 C 183.171875 170.257812 182.765625 169.925781 182.390625 169.550781 C 182.019531 169.175781 181.683594 168.769531 181.390625 168.332031 C 181.097656 167.890625 180.851562 167.429688 180.648438 166.941406 C 180.445312 166.453125 180.292969 165.949219 180.191406 165.429688 C 180.085938 164.914062 180.035156 164.390625 180.035156 163.859375 C 180.035156 163.332031 180.085938 162.808594 180.191406 162.292969 C 180.292969 161.773438 180.445312 161.269531 180.648438 160.78125 C 180.851562 160.292969 181.097656 159.828125 181.390625 159.390625 C 181.683594 158.953125 182.019531 158.542969 182.390625 158.171875 C 182.765625 157.796875 183.171875 157.464844 183.613281 157.171875 C 184.050781 156.878906 184.515625 156.628906 185.003906 156.425781 C 185.492188 156.226562 185.992188 156.070312 186.511719 155.96875 C 187.03125 155.867188 187.554688 155.8125 188.082031 155.8125 C 188.609375 155.8125 189.132812 155.867188 189.652344 155.96875 C 190.171875 156.070312 190.671875 156.226562 191.160156 156.425781 Z M 191.160156 156.425781 " fill-opacity="1" fill-rule="nonzero"/><path fill="#ffbd59" d="M 272.726562 257.074219 C 272.539062 256.980469 272.402344 256.8125 272.351562 256.609375 C 270.953125 251.210938 269.394531 245.902344 267.679688 240.675781 C 263.058594 226.628906 258.332031 212.609375 253.507812 198.625 C 253.113281 197.46875 252.765625 196.542969 252.476562 195.84375 C 253.960938 194.765625 254.929688 193.019531 254.929688 191.042969 C 254.929688 188.921875 253.816406 187.066406 252.140625 186.015625 C 252.429688 185.949219 252.695312 185.875 252.949219 185.792969 C 255.730469 185.300781 257.847656 182.875 257.847656 179.949219 C 257.847656 177.832031 256.738281 175.980469 255.074219 174.925781 C 254.28125 174.359375 253.40625 174.058594 252.457031 174.011719 C 253.183594 174.859375 253.660156 175.917969 253.777344 177.078125 C 254.128906 180.621094 251.179688 183.570312 247.636719 183.21875 C 247.371094 183.195312 247.113281 183.140625 246.859375 183.082031 C 246.871094 183.101562 246.882812 183.121094 246.898438 183.140625 C 229.929688 180.191406 213.007812 177.410156 196.132812 174.796875 C 190.6875 173.953125 185.359375 173.921875 180.144531 174.699219 C 164.347656 177.054688 147.535156 179.898438 129.71875 183.234375 C 129.726562 183.226562 129.730469 183.210938 129.738281 183.195312 C 129.320312 183.253906 128.882812 183.261719 128.4375 183.214844 C 125.820312 182.957031 123.699219 180.839844 123.4375 178.21875 C 123.277344 176.605469 123.804688 175.117188 124.761719 174.003906 C 124.339844 174.003906 123.929688 174.050781 123.53125 174.132812 C 123.339844 174.171875 123.144531 174.210938 122.945312 174.265625 C 121.730469 174.59375 120.777344 175.277344 120.074219 176.3125 C 119.296875 177.316406 118.824219 178.574219 118.824219 179.945312 C 118.824219 180.003906 118.835938 180.0625 118.835938 180.121094 C 118.773438 181.441406 119.144531 182.601562 119.953125 183.605469 C 120.777344 184.625 121.835938 185.390625 123.117188 185.90625 C 121.351562 186.9375 120.15625 188.847656 120.15625 191.042969 C 120.15625 193.25 121.363281 195.167969 123.144531 196.195312 C 121.613281 201.195312 119.949219 206.171875 118.148438 211.125 C 114.503906 221.132812 110.980469 231.1875 107.574219 241.28125 C 105.285156 248.042969 103.710938 253.316406 102.847656 257.097656 C 102.808594 257.277344 102.648438 257.414062 102.460938 257.429688 C 101.003906 257.546875 100.164062 258.300781 99.941406 259.691406 C 99.554688 262.109375 100.402344 263.769531 102.480469 264.667969 C 102.863281 264.832031 103.421875 264.929688 104.167969 264.957031 C 104.75 264.980469 105.328125 265.050781 105.898438 265.171875 C 106.097656 265.214844 106.285156 265.320312 106.433594 265.476562 C 107.425781 266.511719 108.40625 267.566406 109.375 268.632812 C 111.808594 271.320312 114.65625 273.191406 117.910156 274.242188 C 120.824219 275.183594 124.105469 275.558594 127.753906 275.359375 C 134.832031 274.972656 140.554688 271.742188 144.925781 265.667969 C 145.046875 265.5 145.234375 265.394531 145.429688 265.386719 C 145.941406 265.363281 146.449219 265.363281 146.957031 265.386719 C 147.707031 265.417969 148.3125 265.363281 148.765625 265.230469 C 151.722656 264.382812 152.847656 262.390625 152.148438 259.257812 C 152.035156 258.746094 151.859375 258.351562 151.613281 258.074219 C 151.273438 257.691406 150.867188 257.476562 150.394531 257.4375 C 150.027344 257.40625 149.71875 257.144531 149.621094 256.785156 C 148.167969 251.128906 146.613281 245.722656 144.945312 240.566406 C 140.199219 225.859375 135.191406 211.238281 129.917969 196.710938 C 129.828125 196.464844 129.695312 196.195312 129.523438 195.898438 C 131.046875 194.820312 132.042969 193.050781 132.042969 191.042969 C 132.042969 188.941406 130.945312 187.09375 129.296875 186.039062 C 133.285156 185.515625 138.726562 184.714844 145.632812 183.648438 C 157.984375 181.738281 170.179688 179.804688 182.21875 177.84375 C 182.234375 177.839844 182.253906 177.839844 182.269531 177.839844 C 182.578125 177.820312 182.839844 178.054688 182.855469 178.359375 C 183.957031 202.210938 184.453125 226.074219 184.339844 249.941406 C 184.316406 254.648438 184.234375 258.910156 184.089844 262.714844 C 183.769531 271.019531 183.304688 277.785156 182.699219 283.011719 C 182.101562 288.140625 181.304688 292.828125 180.300781 297.066406 C 179.476562 300.554688 178.308594 303.996094 176.792969 307.402344 C 175.285156 310.789062 173.65625 313.542969 171.910156 315.667969 C 169.851562 318.167969 167.414062 320.308594 164.609375 322.089844 C 161.691406 323.945312 158.730469 325.734375 155.734375 327.464844 C 154.65625 328.085938 154.730469 328.503906 155.957031 328.71875 C 166.375 330.5 176.503906 330.339844 186.355469 328.230469 C 187.300781 328.03125 188.25 328.019531 189.207031 328.191406 C 199.207031 330.039062 208.917969 330.3125 218.332031 329.015625 C 219.878906 328.804688 220.03125 328.21875 218.792969 327.269531 C 217.742188 326.464844 216.457031 325.667969 214.941406 324.878906 C 210.046875 322.332031 206.050781 318.921875 202.945312 314.648438 C 200.886719 311.820312 199.054688 308 197.445312 303.1875 C 195.605469 297.6875 194.363281 292.242188 193.726562 286.839844 C 191.632812 269.097656 190.746094 250.515625 191.066406 231.085938 C 191.359375 213.457031 191.871094 195.832031 192.597656 178.210938 C 192.597656 178.199219 192.597656 178.1875 192.597656 178.175781 C 192.625 178.019531 192.765625 177.910156 192.921875 177.933594 L 245.738281 186.0625 C 244.121094 187.121094 243.050781 188.949219 243.050781 191.03125 C 243.050781 193.15625 244.164062 195.011719 245.839844 196.0625 C 245.8125 196.113281 245.785156 196.167969 245.769531 196.214844 C 242.3125 206.226562 238.808594 216.226562 235.265625 226.210938 C 232.082031 235.167969 229.128906 244.207031 226.394531 253.3125 C 226.082031 254.351562 225.828125 255.519531 225.628906 256.816406 C 225.59375 257.015625 225.457031 257.183594 225.269531 257.257812 C 223.289062 257.996094 222.359375 259.222656 222.476562 260.929688 C 222.5625 262.273438 223.101562 263.367188 224.089844 264.214844 C 225.121094 265.109375 226.441406 265.410156 228.046875 265.117188 C 228.667969 265 229.304688 265.21875 229.726562 265.699219 C 230.890625 267.019531 232.066406 268.253906 233.257812 269.40625 C 234.660156 270.757812 236.011719 271.792969 237.3125 272.503906 C 240.53125 274.265625 244.214844 275.210938 248.359375 275.335938 C 256.910156 275.585938 263.507812 272.425781 268.144531 265.859375 C 268.261719 265.691406 268.445312 265.597656 268.640625 265.597656 C 270.269531 265.613281 271.722656 265.238281 273.007812 264.472656 C 274.394531 263.640625 275.183594 262.53125 275.371094 261.144531 C 275.601562 259.429688 274.722656 258.070312 272.726562 257.074219 Z M 151.386719 260.53125 C 151.394531 260.476562 151.394531 260.429688 151.398438 260.382812 C 151.394531 260.429688 151.394531 260.480469 151.386719 260.53125 C 151.386719 260.5625 151.378906 260.589844 151.375 260.617188 C 151.378906 260.589844 151.386719 260.5625 151.386719 260.53125 Z M 151.265625 259.761719 C 151.230469 259.71875 151.191406 259.691406 151.144531 259.6875 C 151.1875 259.691406 151.230469 259.71875 151.265625 259.761719 Z M 150.957031 261.296875 C 150.878906 261.289062 150.816406 261.222656 150.773438 261.109375 C 150.820312 261.222656 150.882812 261.289062 150.957031 261.296875 Z M 124.660156 260.128906 C 124.660156 260.128906 124.660156 260.132812 124.660156 260.132812 C 124.660156 260.304688 124.523438 260.445312 124.351562 260.445312 L 108.535156 260.476562 C 108.121094 260.484375 107.761719 260.175781 107.695312 259.757812 C 107.507812 258.542969 107.03125 257.726562 106.269531 257.308594 C 106.214844 257.277344 106.007812 257.246094 105.648438 257.207031 L 104.402344 257.082031 C 104.390625 257.078125 104.375 257.074219 104.363281 257.070312 C 104.214844 257.027344 104.132812 256.84375 104.179688 256.664062 C 106.921875 246.539062 110.109375 236.554688 113.730469 226.714844 C 117.148438 217.445312 120.4375 208.132812 123.605469 198.777344 C 123.84375 198.070312 124.167969 197.40625 124.585938 196.78125 C 124.769531 196.828125 124.949219 196.867188 125.136719 196.898438 C 125.136719 196.914062 125.136719 196.929688 125.136719 196.949219 C 124.597656 217.949219 124.4375 239.011719 124.660156 260.128906 Z M 148.378906 256.542969 C 148.378906 256.546875 148.382812 256.550781 148.382812 256.550781 C 148.425781 256.722656 148.324219 256.890625 148.15625 256.933594 C 147.589844 257.074219 147.019531 257.1875 146.449219 257.273438 C 145.097656 257.476562 144.398438 258.285156 144.351562 259.695312 C 144.339844 260.136719 143.976562 260.488281 143.535156 260.488281 L 126.019531 260.449219 C 126.011719 260.449219 126.003906 260.449219 125.992188 260.449219 C 125.828125 260.4375 125.710938 260.292969 125.722656 260.132812 C 125.757812 259.75 125.804688 259.367188 125.871094 258.988281 C 125.941406 258.558594 125.976562 258.175781 125.976562 257.832031 C 126.066406 239.917969 126.234375 222.007812 126.484375 204.097656 C 126.519531 201.710938 126.605469 199.332031 126.738281 196.949219 C 127.28125 196.894531 127.796875 196.761719 128.285156 196.566406 C 128.398438 196.703125 128.492188 196.859375 128.554688 197.03125 C 136.089844 216.738281 142.699219 236.574219 148.378906 256.542969 Z M 248.980469 202.175781 C 248.8125 221.519531 248.777344 240.867188 248.871094 260.210938 C 248.871094 260.386719 248.726562 260.523438 248.550781 260.523438 L 231.132812 260.484375 C 230.789062 260.484375 230.503906 260.214844 230.496094 259.871094 C 230.464844 258.84375 229.996094 258 229.089844 257.347656 C 228.992188 257.277344 228.796875 257.222656 228.503906 257.1875 L 227.285156 257.027344 C 227.28125 257.027344 227.277344 257.027344 227.277344 257.027344 C 227.113281 257 227.003906 256.816406 227.035156 256.613281 C 227.507812 253.785156 228.277344 250.707031 229.34375 247.386719 C 235.011719 229.695312 240.90625 212.957031 247.019531 197.175781 C 247.085938 196.996094 247.152344 196.851562 247.226562 196.722656 C 247.691406 196.863281 248.1875 196.949219 248.699219 196.972656 C 248.90625 197.5625 249 199.296875 248.980469 202.175781 Z M 269.085938 260.128906 C 269.09375 259.984375 269.125 259.855469 269.171875 259.742188 C 269.125 259.855469 269.09375 259.984375 269.085938 260.128906 C 269.066406 260.4375 269.152344 260.71875 269.300781 260.890625 C 269.148438 260.71875 269.0625 260.4375 269.085938 260.128906 Z M 269.621094 261.066406 C 269.632812 261.066406 269.648438 261.0625 269.660156 261.0625 C 269.648438 261.0625 269.632812 261.066406 269.621094 261.066406 Z M 269.828125 261.023438 C 270.027344 260.929688 270.1875 260.691406 270.246094 260.386719 C 270.1875 260.691406 270.027344 260.929688 269.828125 261.023438 Z M 269.738281 259.269531 C 269.894531 259.277344 270.027344 259.375 270.121094 259.527344 C 270.027344 259.375 269.894531 259.277344 269.738281 259.269531 Z M 270.722656 256.9375 C 268.417969 257.105469 267.183594 258.109375 267.023438 259.941406 C 266.992188 260.277344 266.714844 260.53125 266.375 260.53125 L 250.546875 260.523438 C 250.375 260.523438 250.238281 260.382812 250.238281 260.203125 L 250.433594 196.796875 C 250.71875 196.726562 251 196.636719 251.269531 196.527344 C 251.308594 196.59375 251.339844 196.667969 251.371094 196.75 C 258.648438 216.445312 265.242188 236.300781 271.148438 256.320312 C 271.160156 256.355469 271.167969 256.390625 271.167969 256.425781 C 271.1875 256.6875 270.988281 256.917969 270.722656 256.9375 Z M 270.722656 256.9375 " fill-opacity="1" fill-rule="nonzero"/><g clip-path="url(#645798df9a)"><path fill="#ffbd59" d="M 187.984375 14.625 L 197.136719 33.175781 L 217.609375 36.152344 L 202.789062 50.601562 L 206.300781 70.992188 L 187.984375 61.367188 L 169.65625 70.992188 L 173.152344 50.601562 L 158.347656 36.152344 L 178.820312 33.175781 Z M 187.984375 14.625 " fill-opacity="1" fill-rule="nonzero"/><path fill="#ffbd59" d="M 187.839844 14.445312 L 197.003906 33 L 217.476562 35.976562 L 202.660156 50.425781 L 206.15625 70.816406 L 187.839844 61.1875 L 169.527344 70.816406 L 173.023438 50.425781 L 158.207031 35.976562 L 178.679688 33 Z M 187.839844 14.445312 " fill-opacity="1" fill-rule="nonzero"/><path fill="#ffbd59" d="M 187.839844 14.445312 L 197.003906 33 L 217.476562 35.976562 L 202.660156 50.425781 L 206.15625 70.816406 L 187.839844 61.1875 L 169.527344 70.816406 L 173.023438 50.425781 L 158.207031 35.976562 L 178.679688 33 Z M 187.839844 14.445312 " fill-opacity="1" fill-rule="nonzero"/><path fill="#ffbd59" d="M 187.839844 14.445312 L 197.003906 33 L 217.476562 35.976562 L 202.660156 50.425781 L 206.15625 70.816406 L 187.839844 61.1875 L 169.527344 70.816406 L 173.023438 50.425781 L 158.207031 35.976562 L 178.679688 33 Z M 187.839844 14.445312 " fill-opacity="1" fill-rule="nonzero"/></g><g clip-path="url(#41137df89b)"><path fill="#ffbd59" d="M 266.238281 14.625 L 275.386719 33.175781 L 295.859375 36.152344 L 281.042969 50.601562 L 284.550781 70.992188 L 266.238281 61.367188 L 247.910156 70.992188 L 251.40625 50.601562 L 236.601562 36.152344 L 257.074219 33.175781 Z M 266.238281 14.625 " fill-opacity="1" fill-rule="nonzero"/><path fill="#ffbd59" d="M 266.09375 14.445312 L 275.257812 33 L 295.730469 35.976562 L 280.914062 50.425781 L 284.410156 70.816406 L 266.09375 61.1875 L 247.78125 70.816406 L 251.277344 50.425781 L 236.457031 35.976562 L 256.929688 33 Z M 266.09375 14.445312 " fill-opacity="1" fill-rule="nonzero"/><path fill="#ffbd59" d="M 266.09375 14.445312 L 275.257812 33 L 295.730469 35.976562 L 280.914062 50.425781 L 284.410156 70.816406 L 266.09375 61.1875 L 247.78125 70.816406 L 251.277344 50.425781 L 236.457031 35.976562 L 256.929688 33 Z M 266.09375 14.445312 " fill-opacity="1" fill-rule="nonzero"/><path fill="#ffbd59" d="M 266.09375 14.445312 L 275.257812 33 L 295.730469 35.976562 L 280.914062 50.425781 L 284.410156 70.816406 L 266.09375 61.1875 L 247.78125 70.816406 L 251.277344 50.425781 L 236.457031 35.976562 L 256.929688 33 Z M 266.09375 14.445312 " fill-opacity="1" fill-rule="nonzero"/></g></svg>