<svg xmlns="http://www.w3.org/2000/svg" xmlns:xlink="http://www.w3.org/1999/xlink" width="500" zoomAndPan="magnify" viewBox="0 0 375 374.999991" height="500" preserveAspectRatio="xMidYMid meet" version="1.0"><defs><clipPath id="a47ecc9e2a"><path d="M 76 17.621094 L 139.644531 17.621094 L 139.644531 78 L 76 78 Z M 76 17.621094 " clip-rule="nonzero"/></clipPath><clipPath id="8465b18454"><path d="M 75.894531 17.621094 L 139.644531 17.621094 L 139.644531 78 L 75.894531 78 Z M 75.894531 17.621094 " clip-rule="nonzero"/></clipPath><clipPath id="309842dbe9"><path d="M 173 110.558594 L 202 110.558594 L 202 147 L 173 147 Z M 173 110.558594 " clip-rule="nonzero"/></clipPath><clipPath id="db48585af9"><path d="M 55.28125 150 L 177 150 L 177 301 L 55.28125 301 Z M 55.28125 150 " clip-rule="nonzero"/></clipPath><clipPath id="815948ad61"><path d="M 159.394531 17.621094 L 223 17.621094 L 223 78 L 159.394531 78 Z M 159.394531 17.621094 " clip-rule="nonzero"/></clipPath><clipPath id="197c251026"><path d="M 243 17.621094 L 306.644531 17.621094 L 306.644531 78 L 243 78 Z M 243 17.621094 " clip-rule="nonzero"/></clipPath><clipPath id="841b6255ab"><path d="M 242.894531 17.621094 L 306.644531 17.621094 L 306.644531 78 L 242.894531 78 Z M 242.894531 17.621094 " clip-rule="nonzero"/></clipPath></defs><g clip-path="url(#a47ecc9e2a)"><path fill="#a6a6a6" d="M 107.667969 17.828125 L 117.433594 37.625 L 139.28125 40.800781 L 123.46875 56.222656 L 127.210938 77.976562 L 107.667969 67.707031 L 88.113281 77.976562 L 91.84375 56.222656 L 76.046875 40.800781 L 97.890625 37.625 Z M 107.667969 17.828125 " fill-opacity="1" fill-rule="nonzero"/></g><g clip-path="url(#8465b18454)"><path fill="#a6a6a6" d="M 107.515625 17.640625 L 117.296875 37.4375 L 139.140625 40.609375 L 123.328125 56.03125 L 127.0625 77.789062 L 107.515625 67.515625 L 87.972656 77.789062 L 91.707031 56.03125 L 75.894531 40.609375 L 97.738281 37.4375 Z M 107.515625 17.640625 " fill-opacity="1" fill-rule="nonzero"/><path fill="#a6a6a6" d="M 107.515625 17.640625 L 117.296875 37.4375 L 139.140625 40.609375 L 123.328125 56.03125 L 127.0625 77.789062 L 107.515625 67.515625 L 87.972656 77.789062 L 91.707031 56.03125 L 75.894531 40.609375 L 97.738281 37.4375 Z M 107.515625 17.640625 " fill-opacity="1" fill-rule="nonzero"/><path fill="#a6a6a6" d="M 107.515625 17.640625 L 117.296875 37.4375 L 139.140625 40.609375 L 123.328125 56.03125 L 127.0625 77.789062 L 107.515625 67.515625 L 87.972656 77.789062 L 91.707031 56.03125 L 75.894531 40.609375 L 97.738281 37.4375 Z M 107.515625 17.640625 " fill-opacity="1" fill-rule="nonzero"/></g><path fill="#ffffff" d="M 291.257812 363.257812 L 83.722656 363.257812 C 79.636719 363.257812 75.984375 366 74.84375 369.925781 L 73.371094 374.992188 L 301.605469 374.992188 L 300.132812 369.925781 C 298.992188 366 295.34375 363.257812 291.257812 363.257812 Z M 291.257812 363.257812 " fill-opacity="1" fill-rule="nonzero"/><path fill="#ffffff" d="M 180.53125 150.90625 L 194.449219 150.90625 L 194.449219 158.191406 L 180.53125 158.191406 Z M 180.53125 150.90625 " fill-opacity="1" fill-rule="nonzero"/><g clip-path="url(#309842dbe9)"><path fill="#ffffff" d="M 195.652344 146.570312 C 199.109375 142.769531 201.171875 136.886719 201.171875 130.589844 C 201.171875 119.546875 195.03125 110.558594 187.488281 110.558594 C 179.941406 110.558594 173.804688 119.546875 173.804688 130.589844 C 173.804688 136.882812 175.867188 142.765625 179.324219 146.570312 Z M 195.652344 146.570312 " fill-opacity="1" fill-rule="nonzero"/></g><path fill="#ffffff" d="M 180.53125 162.527344 L 194.449219 162.527344 L 194.449219 330.191406 L 180.53125 330.191406 Z M 180.53125 162.527344 " fill-opacity="1" fill-rule="nonzero"/><path fill="#ffffff" d="M 129.976562 347.25 C 125.957031 347.25 122.359375 349.949219 121.234375 353.804688 L 119.746094 358.921875 L 255.234375 358.921875 L 253.742188 353.804688 C 252.617188 349.945312 249.019531 347.25 245 347.25 Z M 129.976562 347.25 " fill-opacity="1" fill-rule="nonzero"/><path fill="#ffffff" d="M 178.363281 334.527344 L 153.988281 334.527344 L 153.988281 342.917969 L 220.984375 342.917969 L 220.984375 334.527344 Z M 178.363281 334.527344 " fill-opacity="1" fill-rule="nonzero"/><g clip-path="url(#db48585af9)"><path fill="#ffffff" d="M 147.835938 272.625 L 137.273438 272.625 L 114.25 182.488281 C 116.148438 182.824219 118.046875 183.019531 119.917969 183.019531 C 128.71875 183.019531 135.5 180.394531 142.058594 177.851562 C 147.269531 175.835938 152.191406 173.929688 157.433594 173.757812 C 165.160156 173.5 172.167969 176.921875 176.191406 179.390625 L 176.191406 161.847656 C 172.980469 160.757812 163.308594 157.878906 154.65625 159.359375 C 150.144531 160.128906 145.773438 162.476562 141.148438 164.960938 C 134.691406 168.425781 128.015625 172.007812 119.914062 172.007812 C 110.558594 172.007812 105.375 168.742188 102.828125 166.359375 C 101.949219 167.351562 100.921875 168.226562 99.738281 168.90625 C 98.699219 169.5 97.375 169.140625 96.78125 168.101562 C 96.183594 167.0625 96.546875 165.738281 97.585938 165.144531 C 100.082031 163.710938 101.636719 161.035156 101.636719 158.160156 C 101.636719 153.726562 98.03125 150.117188 93.597656 150.117188 C 89.164062 150.117188 85.558594 153.726562 85.558594 158.160156 C 85.558594 162.417969 88.035156 166.894531 91.945312 170.859375 L 65.949219 272.625 L 55.386719 272.625 C 57.085938 288.40625 77.167969 300.902344 101.613281 300.902344 C 126.054688 300.902344 146.140625 288.40625 147.835938 272.625 Z M 132.773438 272.625 L 103.78125 272.625 L 103.78125 179.082031 C 105.613281 179.953125 107.507812 180.691406 109.445312 181.296875 Z M 99.445312 176.757812 L 99.445312 272.625 L 70.449219 272.625 L 95.621094 174.089844 C 96.832031 175.027344 98.097656 175.929688 99.445312 176.757812 Z M 99.445312 176.757812 " fill-opacity="1" fill-rule="nonzero"/></g><path fill="#ffffff" d="M 309.027344 272.625 L 283.03125 170.859375 C 286.941406 166.898438 289.417969 162.421875 289.417969 158.160156 C 289.417969 153.726562 285.8125 150.121094 281.378906 150.121094 C 276.945312 150.121094 273.335938 153.726562 273.335938 158.160156 C 273.335938 161.039062 274.890625 163.714844 277.390625 165.144531 C 278.429688 165.738281 278.789062 167.066406 278.195312 168.105469 C 277.601562 169.140625 276.273438 169.5 275.234375 168.90625 C 274.054688 168.230469 273.027344 167.355469 272.148438 166.359375 C 269.601562 168.742188 264.414062 172.011719 255.0625 172.011719 C 246.960938 172.011719 240.285156 168.429688 233.828125 164.964844 C 229.199219 162.480469 224.832031 160.132812 220.320312 159.359375 C 211.667969 157.878906 202 160.761719 198.78125 161.851562 L 198.78125 179.402344 C 202.808594 176.9375 209.816406 173.523438 217.539062 173.757812 C 222.78125 173.929688 227.707031 175.835938 232.917969 177.851562 C 239.472656 180.390625 246.253906 183.019531 255.058594 183.019531 C 256.929688 183.019531 258.828125 182.824219 260.726562 182.488281 L 237.703125 272.625 L 227.140625 272.625 C 228.835938 288.40625 248.921875 300.902344 273.363281 300.902344 C 297.804688 300.902344 317.890625 288.40625 319.585938 272.625 Z M 279.355469 174.089844 L 304.527344 272.625 L 275.535156 272.625 L 275.535156 176.757812 C 276.878906 175.929688 278.148438 175.027344 279.355469 174.089844 Z M 271.195312 179.082031 L 271.195312 272.625 L 242.203125 272.625 L 265.53125 181.296875 C 267.464844 180.691406 269.363281 179.953125 271.195312 179.082031 Z M 271.195312 179.082031 " fill-opacity="1" fill-rule="nonzero"/><g clip-path="url(#815948ad61)"><path fill="#a6a6a6" d="M 191.171875 17.828125 L 200.9375 37.625 L 222.78125 40.800781 L 206.96875 56.222656 L 210.714844 77.976562 L 191.171875 67.707031 L 171.613281 77.976562 L 175.347656 56.222656 L 159.546875 40.800781 L 181.390625 37.625 Z M 191.171875 17.828125 " fill-opacity="1" fill-rule="nonzero"/><path fill="#a6a6a6" d="M 191.019531 17.640625 L 200.796875 37.4375 L 222.640625 40.609375 L 206.832031 56.03125 L 210.5625 77.789062 L 191.019531 67.515625 L 171.476562 77.789062 L 175.207031 56.03125 L 159.394531 40.609375 L 181.242188 37.4375 Z M 191.019531 17.640625 " fill-opacity="1" fill-rule="nonzero"/><path fill="#a6a6a6" d="M 191.019531 17.640625 L 200.796875 37.4375 L 222.640625 40.609375 L 206.832031 56.03125 L 210.5625 77.789062 L 191.019531 67.515625 L 171.476562 77.789062 L 175.207031 56.03125 L 159.394531 40.609375 L 181.242188 37.4375 Z M 191.019531 17.640625 " fill-opacity="1" fill-rule="nonzero"/><path fill="#a6a6a6" d="M 191.019531 17.640625 L 200.796875 37.4375 L 222.640625 40.609375 L 206.832031 56.03125 L 210.5625 77.789062 L 191.019531 67.515625 L 171.476562 77.789062 L 175.207031 56.03125 L 159.394531 40.609375 L 181.242188 37.4375 Z M 191.019531 17.640625 " fill-opacity="1" fill-rule="nonzero"/></g><g clip-path="url(#197c251026)"><path fill="#a6a6a6" d="M 274.671875 17.828125 L 284.4375 37.625 L 306.28125 40.800781 L 290.46875 56.222656 L 294.214844 77.976562 L 274.671875 67.707031 L 255.113281 77.976562 L 258.847656 56.222656 L 243.046875 40.800781 L 264.894531 37.625 Z M 274.671875 17.828125 " fill-opacity="1" fill-rule="nonzero"/></g><g clip-path="url(#841b6255ab)"><path fill="#a6a6a6" d="M 274.519531 17.640625 L 284.296875 37.4375 L 306.144531 40.609375 L 290.332031 56.03125 L 294.0625 77.789062 L 274.519531 67.515625 L 254.976562 77.789062 L 258.707031 56.03125 L 242.894531 40.609375 L 264.742188 37.4375 Z M 274.519531 17.640625 " fill-opacity="1" fill-rule="nonzero"/><path fill="#a6a6a6" d="M 274.519531 17.640625 L 284.296875 37.4375 L 306.144531 40.609375 L 290.332031 56.03125 L 294.0625 77.789062 L 274.519531 67.515625 L 254.976562 77.789062 L 258.707031 56.03125 L 242.894531 40.609375 L 264.742188 37.4375 Z M 274.519531 17.640625 " fill-opacity="1" fill-rule="nonzero"/><path fill="#a6a6a6" d="M 274.519531 17.640625 L 284.296875 37.4375 L 306.144531 40.609375 L 290.332031 56.03125 L 294.0625 77.789062 L 274.519531 67.515625 L 254.976562 77.789062 L 258.707031 56.03125 L 242.894531 40.609375 L 264.742188 37.4375 Z M 274.519531 17.640625 " fill-opacity="1" fill-rule="nonzero"/></g></svg>