<svg xmlns="http://www.w3.org/2000/svg" xmlns:xlink="http://www.w3.org/1999/xlink" width="500" zoomAndPan="magnify" viewBox="0 0 375 374.999991" height="500" preserveAspectRatio="xMidYMid meet" version="1.0"><defs><clipPath id="c68403fb44"><path d="M 124.222656 11.34375 L 178.972656 11.34375 L 178.972656 63.84375 L 124.222656 63.84375 Z M 124.222656 11.34375 " clip-rule="nonzero"/></clipPath><clipPath id="740dee2b98"><path d="M 46.84375 103.4375 L 328.09375 103.4375 L 328.09375 353.9375 L 46.84375 353.9375 Z M 46.84375 103.4375 " clip-rule="nonzero"/></clipPath><clipPath id="e672d804d5"><path d="M 195.855469 11.34375 L 250.605469 11.34375 L 250.605469 63.84375 L 195.855469 63.84375 Z M 195.855469 11.34375 " clip-rule="nonzero"/></clipPath></defs><g clip-path="url(#c68403fb44)"><path fill="#bc813d" d="M 151.753906 11.523438 L 160.210938 28.671875 L 179.136719 31.421875 L 165.441406 44.78125 L 168.683594 63.632812 L 151.753906 54.734375 L 134.808594 63.632812 L 138.042969 44.78125 L 124.355469 31.421875 L 143.28125 28.671875 Z M 151.753906 11.523438 " fill-opacity="1" fill-rule="nonzero"/><path fill="#bc813d" d="M 151.621094 11.359375 L 160.089844 28.507812 L 179.015625 31.257812 L 165.320312 44.617188 L 168.550781 63.464844 L 151.621094 54.566406 L 134.691406 63.464844 L 137.921875 44.617188 L 124.222656 31.257812 L 143.148438 28.507812 Z M 151.621094 11.359375 " fill-opacity="1" fill-rule="nonzero"/><path fill="#bc813d" d="M 151.621094 11.359375 L 160.089844 28.507812 L 179.015625 31.257812 L 165.320312 44.617188 L 168.550781 63.464844 L 151.621094 54.566406 L 134.691406 63.464844 L 137.921875 44.617188 L 124.222656 31.257812 L 143.148438 28.507812 Z M 151.621094 11.359375 " fill-opacity="1" fill-rule="nonzero"/><path fill="#bc813d" d="M 151.621094 11.359375 L 160.089844 28.507812 L 179.015625 31.257812 L 165.320312 44.617188 L 168.550781 63.464844 L 151.621094 54.566406 L 134.691406 63.464844 L 137.921875 44.617188 L 124.222656 31.257812 L 143.148438 28.507812 Z M 151.621094 11.359375 " fill-opacity="1" fill-rule="nonzero"/></g><g clip-path="url(#740dee2b98)"><path fill="#bc813d" d="M 311.542969 244.671875 C 311.664062 244.285156 311.984375 244 312.371094 243.929688 C 315.097656 243.484375 317.46875 242.40625 319.492188 240.703125 C 321.101562 239.34375 322.609375 237.324219 324.015625 234.640625 C 326.5 229.910156 327.871094 224.820312 328.121094 219.378906 C 328.144531 219 328.003906 218.925781 327.703125 219.164062 C 322.511719 223.292969 317.699219 227.902344 313.261719 232.988281 C 312.796875 233.519531 312.597656 233.433594 312.660156 232.734375 L 313.75 220.523438 C 313.785156 220.167969 314.011719 219.855469 314.34375 219.710938 C 317.804688 218.242188 320.308594 215.988281 321.859375 212.953125 C 323.066406 210.601562 323.851562 207.492188 324.226562 203.621094 C 324.546875 200.316406 324.316406 196.980469 323.539062 193.617188 C 323.421875 193.105469 323.203125 193.054688 322.878906 193.464844 C 319.027344 198.375 315.515625 203.554688 312.351562 209.007812 C 312.242188 209.183594 312.175781 209.171875 312.140625 208.96875 L 310.210938 197.914062 C 310.105469 197.324219 310.273438 196.726562 310.660156 196.300781 C 315.226562 191.234375 317.210938 185.449219 316.609375 178.949219 C 316.28125 175.417969 315.40625 171.859375 313.996094 168.273438 C 313.894531 168.019531 313.773438 168.011719 313.636719 168.242188 C 310.515625 173.4375 307.914062 178.789062 305.824219 184.292969 C 305.71875 184.574219 305.605469 184.574219 305.480469 184.308594 L 301.042969 174.699219 C 300.742188 174.042969 300.746094 173.390625 301.058594 172.738281 C 303.316406 167.976562 304.164062 163.191406 303.609375 158.382812 C 303.054688 153.597656 301.367188 149.175781 298.542969 145.121094 C 298.25 144.699219 297.996094 144.722656 297.777344 145.1875 C 297.355469 146.113281 297.023438 147.207031 296.777344 148.472656 C 295.953125 152.753906 295.035156 157.207031 294.03125 161.832031 C 293.960938 162.152344 293.820312 162.183594 293.613281 161.925781 L 286.664062 153.175781 C 286.222656 152.617188 286.085938 152.019531 286.257812 151.375 C 288.203125 143.953125 287.417969 136.78125 283.898438 129.859375 C 282.925781 127.945312 281.671875 126.234375 280.140625 124.722656 C 279.929688 124.511719 279.789062 124.554688 279.714844 124.84375 C 278.394531 130.304688 277.710938 135.84375 277.660156 141.460938 C 277.660156 141.675781 277.582031 141.703125 277.433594 141.546875 L 269.382812 133.40625 C 268.847656 132.859375 268.632812 132.203125 268.742188 131.4375 C 269.011719 129.535156 268.742188 127.460938 267.933594 125.21875 C 265.28125 117.875 260.882812 112.007812 254.730469 107.613281 C 253.9375 107.046875 253.566406 107.25 253.613281 108.226562 C 253.886719 113.804688 255.019531 119.125 257.019531 124.179688 C 257.179688 124.589844 257.085938 124.65625 256.738281 124.378906 C 253.527344 121.835938 250.285156 119.378906 247.011719 117.015625 C 242.996094 114.113281 239.570312 111.933594 236.730469 110.472656 C 230.460938 107.25 223.796875 105.046875 216.738281 103.871094 C 215.488281 103.664062 214.21875 103.589844 212.9375 103.648438 C 212.683594 103.664062 212.648438 103.757812 212.835938 103.929688 C 216.15625 107.066406 219.628906 109.988281 223.253906 112.691406 C 228.058594 116.285156 231.566406 118.613281 233.78125 119.671875 C 237.546875 121.480469 241.839844 122.554688 246.652344 122.90625 C 247.59375 122.976562 248.40625 123.289062 249.09375 123.835938 L 255.144531 128.6875 C 256.351562 129.65625 256.1875 130.03125 254.652344 129.808594 C 247.996094 128.859375 242.363281 130.496094 237.75 134.71875 C 237.726562 134.738281 237.710938 134.757812 237.699219 134.785156 C 237.648438 134.894531 237.695312 135.023438 237.800781 135.074219 C 246.554688 139.429688 255.71875 140.035156 265.289062 136.882812 C 265.714844 136.746094 266.171875 136.84375 266.480469 137.144531 L 274.230469 144.761719 C 274.882812 145.398438 274.765625 145.597656 273.882812 145.355469 C 273.078125 145.132812 272.304688 144.929688 271.558594 144.75 C 270.757812 144.550781 269.96875 144.449219 269.183594 144.449219 C 264.742188 144.449219 260.15625 145.042969 255.433594 146.222656 C 255.160156 146.292969 255.136719 146.410156 255.355469 146.578125 C 263.710938 152.808594 272.925781 155.8125 283 155.582031 C 283.203125 155.582031 283.394531 155.664062 283.527344 155.8125 C 286.132812 158.699219 288.398438 161.84375 290.324219 165.234375 C 290.425781 165.414062 290.375 165.46875 290.179688 165.394531 C 283.75 162.972656 277.097656 161.53125 270.214844 161.078125 C 269.832031 161.050781 269.753906 161.191406 269.988281 161.496094 C 271.433594 163.394531 273.027344 165.21875 274.769531 166.972656 C 280.210938 172.476562 287.425781 175.625 296.417969 176.425781 C 296.652344 176.445312 296.863281 176.582031 296.976562 176.789062 C 298.929688 180.332031 300.613281 183.898438 302.03125 187.484375 C 302.109375 187.671875 302.054688 187.714844 301.875 187.605469 C 298.40625 185.46875 294.707031 183.867188 290.78125 182.800781 C 288.402344 182.15625 286.058594 181.527344 283.746094 180.921875 C 283.175781 180.769531 283.039062 180.945312 283.339844 181.453125 C 284.753906 183.835938 286.324219 186.09375 288.054688 188.230469 C 290.09375 190.75 292.054688 192.648438 293.945312 193.925781 C 297.207031 196.125 301.03125 197.496094 305.417969 198.046875 C 305.863281 198.101562 306.214844 198.421875 306.285156 198.832031 L 308.101562 209.574219 C 308.164062 209.949219 308.050781 210.011719 307.753906 209.757812 C 303.1875 205.820312 298.019531 202.980469 292.246094 201.234375 C 292.21875 201.226562 292.1875 201.222656 292.15625 201.230469 C 292.046875 201.246094 291.96875 201.347656 291.984375 201.457031 C 293.167969 209.570312 297.445312 215.359375 304.8125 218.820312 C 306.085938 219.417969 307.503906 219.796875 309.066406 219.953125 C 309.246094 219.96875 309.375 220.128906 309.363281 220.308594 L 308.640625 232.023438 C 308.601562 232.761719 308.359375 232.835938 307.925781 232.238281 C 304.777344 227.871094 300.816406 224.066406 296.035156 220.824219 C 295.992188 220.792969 295.941406 220.773438 295.886719 220.769531 C 295.722656 220.757812 295.578125 220.882812 295.5625 221.050781 C 295.375 223.375 295.351562 225.796875 295.484375 228.316406 C 295.605469 230.5625 296.109375 232.554688 297.003906 234.289062 C 299.171875 238.496094 302.3125 241.53125 306.417969 243.402344 C 306.839844 243.59375 307.066406 244.058594 306.957031 244.507812 C 305.976562 248.496094 304.738281 252.367188 303.25 256.125 C 303.015625 256.726562 302.824219 256.710938 302.679688 256.085938 C 301.855469 252.507812 300.488281 248.988281 298.585938 245.519531 C 297.371094 243.300781 296.117188 241.589844 294.828125 240.390625 C 294.804688 240.367188 294.777344 240.355469 294.746094 240.34375 C 294.640625 240.308594 294.527344 240.371094 294.492188 240.480469 C 293.386719 243.820312 292.753906 247.253906 292.585938 250.777344 C 292.304688 256.636719 294.175781 261.664062 298.199219 265.851562 C 298.425781 266.089844 298.480469 266.4375 298.339844 266.710938 L 293.164062 276.304688 C 293.007812 276.59375 292.902344 276.574219 292.855469 276.246094 C 291.9375 270.6875 290.140625 265.570312 287.457031 260.902344 C 287.109375 260.289062 286.792969 260.308594 286.515625 260.953125 C 284.886719 264.773438 283.882812 268.925781 283.503906 273.414062 C 283.152344 277.566406 284.023438 281.601562 286.113281 285.527344 C 286.53125 286.304688 286.476562 287.007812 285.949219 287.625 L 278.539062 296.359375 C 278.375 296.546875 278.296875 296.515625 278.300781 296.257812 C 278.363281 290.886719 277.648438 285.480469 276.15625 280.035156 C 276.144531 279.992188 276.121094 279.953125 276.09375 279.921875 C 275.988281 279.804688 275.816406 279.796875 275.707031 279.898438 C 274.632812 280.863281 273.800781 281.859375 273.207031 282.871094 C 271.273438 286.164062 269.792969 289.644531 268.765625 293.320312 C 267.800781 296.742188 267.738281 300.175781 268.574219 303.621094 C 268.621094 303.8125 268.5625 304.011719 268.421875 304.144531 C 265.222656 307.117188 261.910156 309.777344 258.480469 312.128906 C 258.136719 312.367188 258.035156 312.289062 258.179688 311.894531 C 259.019531 309.59375 259.480469 307.359375 259.566406 305.199219 C 259.683594 301.96875 259.546875 298.75 259.160156 295.554688 C 259.089844 294.996094 258.84375 294.898438 258.414062 295.253906 C 252.546875 300.1875 248.835938 306.421875 247.273438 313.953125 C 247.105469 314.769531 247 315.816406 246.953125 317.09375 C 246.941406 317.386719 246.78125 317.652344 246.527344 317.789062 L 236.367188 323.386719 C 235.929688 323.628906 235.839844 323.53125 236.101562 323.101562 C 239.214844 318 240.769531 312.46875 240.769531 306.5 C 240.769531 306.472656 240.765625 306.449219 240.757812 306.425781 C 240.71875 306.292969 240.585938 306.21875 240.457031 306.257812 C 239.113281 306.636719 237.875 307.25 236.75 308.097656 C 231.269531 312.207031 226.957031 317.460938 223.820312 323.855469 C 223.679688 324.148438 223.433594 324.375 223.132812 324.496094 C 212.511719 328.726562 201.679688 331.453125 190.652344 332.675781 C 188.382812 332.929688 186.113281 332.898438 183.847656 332.59375 C 172.980469 331.109375 162.4375 328.425781 152.222656 324.542969 C 151.539062 324.28125 151.023438 323.828125 150.679688 323.191406 C 148.214844 318.625 145.179688 314.484375 141.574219 310.769531 C 139.675781 308.808594 137.429688 307.320312 134.832031 306.292969 C 134.742188 306.253906 134.640625 306.242188 134.539062 306.25 C 134.191406 306.28125 133.933594 306.589844 133.964844 306.9375 C 134.503906 312.882812 136.148438 318.273438 138.894531 323.113281 C 139.128906 323.527344 139.054688 323.59375 138.675781 323.308594 C 135.796875 321.175781 132.558594 319.222656 128.964844 317.457031 C 128.773438 317.359375 128.652344 317.167969 128.644531 316.957031 C 128.597656 315.425781 128.351562 313.945312 127.910156 312.519531 C 126.347656 307.53125 123.917969 303.019531 120.613281 298.976562 C 119.371094 297.453125 117.96875 296.1875 116.40625 295.183594 C 116.34375 295.144531 116.269531 295.117188 116.195312 295.113281 C 115.941406 295.09375 115.71875 295.28125 115.699219 295.539062 C 115.457031 298.695312 115.429688 301.746094 115.617188 304.699219 C 115.769531 307.121094 116.316406 309.445312 117.261719 311.683594 C 117.53125 312.320312 117.398438 312.421875 116.863281 312 L 107.207031 304.28125 C 107.0625 304.167969 107.007812 303.972656 107.0625 303.78125 C 107.707031 301.46875 107.941406 299.617188 107.765625 298.222656 C 106.90625 291.539062 104.316406 285.53125 99.988281 280.207031 C 99.421875 279.515625 99.039062 279.605469 98.839844 280.472656 C 97.65625 285.632812 97.136719 290.933594 97.285156 296.375 C 97.289062 296.660156 97.195312 296.699219 97.015625 296.488281 L 88.65625 287.144531 C 88.40625 286.859375 88.371094 286.429688 88.570312 286.078125 C 91.265625 281.371094 92.160156 276.488281 91.25 271.4375 C 90.878906 269.367188 90.34375 267.414062 89.640625 265.578125 C 88.910156 263.65625 87.914062 261.875 86.640625 260.230469 C 86.621094 260.203125 86.597656 260.1875 86.574219 260.175781 C 86.472656 260.125 86.355469 260.164062 86.308594 260.261719 C 84.007812 264.984375 82.457031 270.339844 81.664062 276.316406 C 81.589844 276.855469 81.425781 276.890625 81.175781 276.417969 L 75.949219 266.71875 C 75.859375 266.546875 75.882812 266.335938 76.011719 266.179688 C 77.929688 263.773438 79.273438 261.945312 80.042969 260.691406 C 81.234375 258.738281 81.9375 256.375 82.136719 253.597656 C 82.457031 249.203125 81.855469 244.875 80.335938 240.617188 C 80.15625 240.125 79.910156 240.089844 79.59375 240.511719 C 76.03125 245.246094 73.457031 250.402344 71.863281 255.976562 C 71.734375 256.425781 71.589844 256.429688 71.433594 255.992188 C 69.96875 252.015625 68.777344 248.066406 67.855469 244.132812 C 67.761719 243.726562 67.957031 243.304688 68.332031 243.117188 C 72.757812 240.890625 75.992188 237.867188 78.03125 234.054688 C 78.835938 232.550781 79.296875 230.953125 79.417969 229.25 C 79.609375 226.621094 79.667969 223.835938 79.597656 220.898438 C 79.589844 220.570312 79.453125 220.5 79.1875 220.695312 C 74.464844 224.101562 70.304688 228.175781 66.714844 232.914062 C 66.574219 233.09375 66.496094 233.074219 66.488281 232.851562 L 65.726562 220.386719 C 65.710938 220.128906 65.890625 219.902344 66.148438 219.839844 C 76.03125 217.40625 81.757812 211.273438 83.316406 201.441406 C 83.324219 201.410156 83.320312 201.378906 83.308594 201.351562 C 83.277344 201.25 83.167969 201.191406 83.0625 201.222656 C 77.414062 202.984375 72.328125 205.625 67.800781 209.144531 C 67.382812 209.472656 67.207031 209.371094 67.269531 208.847656 C 67.671875 205.332031 68.320312 201.859375 69.210938 198.429688 C 69.308594 198.046875 69.652344 197.773438 70.054688 197.765625 C 72.550781 197.714844 74.921875 197.101562 77.164062 195.925781 C 83.511719 192.589844 88.347656 187.726562 91.675781 181.34375 C 91.824219 181.058594 91.738281 180.945312 91.421875 181.007812 C 85.175781 182.203125 79.128906 184.382812 73.285156 187.550781 C 72.804688 187.816406 72.65625 187.6875 72.84375 187.171875 C 74.066406 183.78125 75.617188 180.324219 77.492188 176.808594 C 77.609375 176.589844 77.824219 176.445312 78.070312 176.421875 C 86.800781 175.613281 93.800781 172.546875 99.074219 167.234375 C 100.890625 165.398438 102.582031 163.445312 104.136719 161.375 C 104.308594 161.140625 104.25 161.039062 103.96875 161.066406 C 99.507812 161.46875 95.097656 162.175781 90.726562 163.183594 C 88.835938 163.621094 87.023438 164.289062 85.296875 165.183594 C 84.566406 165.558594 84.402344 165.390625 84.804688 164.671875 C 86.539062 161.578125 88.652344 158.621094 91.144531 155.808594 C 91.277344 155.660156 91.472656 155.574219 91.675781 155.582031 C 101.550781 155.835938 110.347656 152.84375 118.058594 146.609375 C 118.550781 146.210938 118.488281 145.949219 117.867188 145.824219 C 116.570312 145.5625 115.183594 145.335938 113.714844 145.144531 C 113.652344 145.136719 112.4375 144.949219 110.074219 144.578125 C 106.765625 144.054688 103.476562 144.238281 100.207031 145.121094 C 100.003906 145.175781 99.96875 145.125 100.105469 144.976562 C 102.828125 141.925781 105.820312 139.179688 109.089844 136.738281 C 109.253906 136.617188 109.460938 136.582031 109.648438 136.648438 C 118.386719 139.621094 127.171875 139.074219 136.003906 135.011719 C 136.035156 134.996094 136.066406 134.976562 136.09375 134.949219 C 136.238281 134.820312 136.246094 134.601562 136.117188 134.457031 C 132.246094 130.3125 127.539062 128.625 122 129.402344 C 120.992188 129.546875 119.992188 129.566406 118.996094 129.464844 C 118.785156 129.445312 118.765625 129.367188 118.9375 129.230469 C 121.644531 127.136719 124.433594 125.160156 127.296875 123.300781 C 128.121094 122.765625 129.019531 122.445312 130 122.351562 C 131.496094 122.199219 133 122.082031 134.503906 121.988281 C 136.574219 121.867188 139.042969 121.007812 141.902344 119.414062 C 146.222656 117.007812 150.261719 114.199219 154.019531 110.984375 C 156.6875 108.699219 159.480469 106.328125 162.390625 103.878906 C 162.703125 103.621094 162.65625 103.492188 162.253906 103.488281 C 160.292969 103.472656 158.628906 103.601562 157.265625 103.859375 C 146.75 105.898438 137.199219 110.09375 128.613281 116.445312 C 124.785156 119.277344 120.992188 122.15625 117.226562 125.074219 C 117.066406 125.207031 117.027344 125.175781 117.109375 124.988281 C 119.378906 119.671875 120.765625 113.894531 121.269531 107.648438 C 121.308594 107.21875 121.144531 107.125 120.785156 107.363281 C 114.160156 111.75 109.398438 117.785156 106.503906 125.46875 C 105.832031 127.25 105.660156 129.515625 105.992188 132.265625 C 106.015625 132.476562 105.949219 132.675781 105.808594 132.8125 L 97.203125 141.320312 C 96.949219 141.570312 96.828125 141.515625 96.835938 141.15625 C 96.945312 135.46875 96.402344 130.296875 95.203125 125.652344 C 95.007812 124.890625 94.667969 124.820312 94.191406 125.449219 C 88.589844 132.828125 86.707031 141.398438 88.535156 151.160156 C 88.65625 151.835938 88.492188 152.433594 88.046875 152.953125 C 85.6875 155.664062 83.363281 158.753906 81.074219 162.21875 C 80.796875 162.636719 80.613281 162.59375 80.523438 162.097656 L 77.601562 145.734375 C 77.4375 144.808594 77.082031 144.730469 76.53125 145.507812 C 70.785156 153.609375 69.816406 162.589844 73.625 172.445312 C 73.988281 173.386719 73.960938 174.308594 73.539062 175.210938 L 69.191406 184.476562 C 69.023438 184.832031 68.875 184.824219 68.742188 184.449219 C 66.824219 178.980469 64.21875 173.867188 60.929688 169.109375 C 60.804688 168.941406 60.707031 168.957031 60.628906 169.152344 C 59.484375 172.144531 58.796875 175.511719 58.574219 179.257812 C 58.183594 185.851562 60.035156 191.410156 64.132812 195.933594 C 64.71875 196.578125 64.9375 197.351562 64.785156 198.25 L 63.128906 207.945312 C 63.003906 208.675781 62.75 208.726562 62.363281 208.101562 C 59.195312 202.945312 55.664062 198.011719 51.777344 193.308594 C 51.636719 193.144531 51.546875 193.164062 51.503906 193.371094 C 50.066406 200.328125 50.898438 206.976562 54.003906 213.324219 C 55.425781 216.222656 57.769531 218.296875 61.03125 219.542969 C 61.257812 219.628906 61.414062 219.847656 61.429688 220.101562 L 62.070312 233.023438 C 62.105469 233.792969 61.898438 233.871094 61.449219 233.25 C 57.5 227.78125 52.792969 222.984375 47.332031 218.851562 C 47.003906 218.605469 46.847656 218.683594 46.863281 219.09375 C 47.003906 224.460938 48.207031 229.4375 50.472656 234.035156 C 51.949219 237.039062 53.890625 239.484375 56.300781 241.367188 C 57.1875 242.054688 58.160156 242.589844 59.222656 242.976562 C 60.28125 243.355469 61.359375 243.644531 62.460938 243.839844 C 62.871094 243.914062 63.203125 244.203125 63.324219 244.589844 L 66.804688 256.0625 C 66.964844 256.585938 66.816406 256.6875 66.367188 256.371094 C 62.429688 253.609375 58.476562 250.988281 54.5 248.511719 C 52.605469 247.328125 51.019531 246.496094 49.742188 246.011719 C 49.539062 245.933594 49.457031 246 49.496094 246.214844 C 51.050781 254.515625 55.226562 260.914062 62.023438 265.40625 C 63.5625 266.425781 65.042969 267.164062 66.464844 267.621094 C 68.074219 268.140625 69.726562 268.425781 71.417969 268.476562 C 71.691406 268.488281 71.9375 268.640625 72.070312 268.875 L 77.5625 278.777344 C 77.875 279.339844 77.738281 279.484375 77.15625 279.207031 C 71.160156 276.382812 64.839844 273.890625 58.1875 271.730469 C 57.929688 271.644531 57.855469 271.726562 57.964844 271.976562 C 59.746094 276.027344 62.148438 279.519531 65.171875 282.449219 C 70.175781 287.289062 76.441406 289.414062 83.96875 288.832031 C 84.246094 288.8125 84.515625 288.921875 84.691406 289.121094 L 93.65625 299.34375 C 93.789062 299.496094 93.835938 299.671875 93.773438 299.761719 C 93.710938 299.847656 93.582031 299.847656 93.390625 299.773438 C 89.625 298.210938 85.71875 297.152344 81.679688 296.609375 C 78.789062 296.21875 75.898438 295.832031 73.011719 295.457031 C 72.800781 295.429688 72.753906 295.5 72.871094 295.675781 C 74.785156 298.414062 77.234375 300.914062 80.210938 303.167969 C 84.539062 306.441406 89.292969 308.371094 94.472656 308.957031 C 97.550781 309.300781 100.492188 308.917969 103.289062 307.800781 C 103.597656 307.675781 103.949219 307.710938 104.222656 307.894531 C 107.792969 310.269531 111.203125 312.839844 114.460938 315.597656 C 115.28125 316.289062 115.175781 316.496094 114.140625 316.222656 C 112.46875 315.78125 110.773438 315.628906 109.050781 315.773438 C 104.796875 316.128906 100.316406 316.765625 95.597656 317.679688 C 95.308594 317.734375 95.277344 317.855469 95.503906 318.042969 C 98.191406 320.25 101.046875 322.027344 104.066406 323.371094 C 107.40625 324.859375 110.621094 325.636719 113.714844 325.691406 C 118.335938 325.773438 122.648438 324.429688 126.648438 321.667969 C 126.8125 321.550781 127.023438 321.53125 127.199219 321.613281 C 130.863281 323.300781 134.375 325.167969 137.734375 327.214844 C 138.582031 327.726562 138.515625 328.03125 137.527344 328.125 C 131.628906 328.675781 126.035156 330.234375 120.742188 332.8125 C 120.265625 333.046875 120.265625 333.273438 120.742188 333.503906 C 125.6875 335.875 130.910156 337.105469 136.410156 337.191406 C 141.933594 337.273438 146.585938 335.617188 150.382812 332.226562 C 150.785156 331.867188 151.34375 331.742188 151.871094 331.894531 C 161.070312 334.628906 169.957031 336.792969 178.527344 338.382812 C 179.671875 338.597656 179.675781 338.828125 178.542969 339.078125 C 169.472656 341.070312 161.96875 345.800781 156.03125 353.257812 C 155.558594 353.855469 155.703125 354.109375 156.457031 354.007812 C 162.175781 353.300781 167.390625 351.84375 172.101562 349.636719 C 177.226562 347.226562 182.121094 344.34375 186.78125 340.976562 C 186.941406 340.863281 187.152344 340.863281 187.3125 340.976562 C 195.183594 346.609375 203.800781 350.679688 213.160156 353.179688 C 214.398438 353.507812 215.75 353.699219 217.222656 353.761719 C 217.6875 353.777344 217.78125 353.597656 217.503906 353.230469 C 213.949219 348.488281 209.453125 344.707031 204.015625 341.882812 C 201.707031 340.683594 199.257812 339.824219 196.679688 339.300781 C 195.222656 339.011719 195.226562 338.746094 196.695312 338.511719 C 205.859375 337.039062 214.921875 334.730469 223.875 331.585938 C 224.054688 331.523438 224.257812 331.566406 224.402344 331.707031 C 228.21875 335.480469 232.746094 337.34375 237.972656 337.296875 C 243.996094 337.246094 249.539062 335.804688 254.597656 332.972656 C 255.15625 332.664062 255.140625 332.378906 254.554688 332.121094 C 248.875 329.59375 243.007812 328.210938 236.949219 327.976562 C 236.28125 327.945312 236.25 327.789062 236.851562 327.496094 L 248.699219 321.75 C 248.992188 321.609375 249.335938 321.628906 249.597656 321.804688 C 252.972656 324.074219 256.574219 325.328125 260.398438 325.5625 C 263.636719 325.765625 267.050781 325.09375 270.632812 323.546875 C 273.789062 322.1875 276.820312 320.351562 279.734375 318.046875 C 280.007812 317.828125 279.972656 317.675781 279.632812 317.585938 C 273.203125 315.902344 266.964844 315.34375 260.914062 315.90625 C 260.6875 315.929688 260.667969 315.875 260.84375 315.742188 L 271.410156 307.890625 C 271.5625 307.777344 271.773438 307.742188 271.980469 307.792969 C 280.289062 309.9375 287.894531 308.445312 294.804688 303.320312 C 297.746094 301.140625 300.15625 298.632812 302.03125 295.792969 C 302.148438 295.617188 302.097656 295.539062 301.886719 295.558594 C 298.816406 295.886719 295.753906 296.257812 292.699219 296.679688 C 289.105469 297.171875 285.625 298.105469 282.261719 299.480469 C 281.609375 299.753906 281.496094 299.605469 281.921875 299.039062 C 284.378906 295.785156 287.25 292.460938 290.539062 289.058594 C 290.773438 288.820312 291.097656 288.695312 291.433594 288.710938 C 297.34375 289.078125 302.5 287.425781 306.902344 283.757812 C 310.6875 280.609375 313.617188 276.789062 315.691406 272.304688 C 315.882812 271.894531 315.769531 271.769531 315.351562 271.925781 L 297.5625 278.628906 C 297.164062 278.78125 297.074219 278.679688 297.285156 278.324219 L 303.148438 268.535156 C 303.289062 268.300781 303.558594 268.160156 303.855469 268.160156 C 306.003906 268.167969 308.007812 267.710938 309.875 266.78125 C 318.121094 262.65625 323.238281 255.917969 325.21875 246.566406 C 325.328125 246.050781 325.15625 245.925781 324.699219 246.183594 C 319.222656 249.351562 313.9375 252.6875 308.835938 256.1875 C 308.148438 256.65625 307.925781 256.488281 308.171875 255.6875 Z M 311.542969 244.671875 " fill-opacity="1" fill-rule="nonzero"/></g><path fill="#bc813d" d="M 191.128906 152 C 191.609375 152.199219 192.070312 152.445312 192.503906 152.734375 C 192.941406 153.027344 193.34375 153.355469 193.710938 153.726562 C 194.082031 154.097656 194.414062 154.5 194.703125 154.933594 C 194.992188 155.367188 195.238281 155.828125 195.441406 156.3125 C 195.640625 156.796875 195.789062 157.292969 195.894531 157.804688 C 195.996094 158.320312 196.046875 158.835938 196.046875 159.359375 C 196.046875 159.882812 195.996094 160.402344 195.894531 160.914062 C 195.789062 161.429688 195.640625 161.925781 195.441406 162.410156 C 195.238281 162.894531 194.992188 163.351562 194.703125 163.789062 C 194.414062 164.222656 194.082031 164.625 193.710938 164.996094 C 193.34375 165.367188 192.941406 165.695312 192.503906 165.988281 C 192.070312 166.277344 191.609375 166.523438 191.128906 166.722656 C 190.644531 166.921875 190.144531 167.074219 189.632812 167.175781 C 189.121094 167.277344 188.601562 167.328125 188.078125 167.328125 C 187.554688 167.328125 187.035156 167.277344 186.523438 167.175781 C 186.011719 167.074219 185.511719 166.921875 185.027344 166.722656 C 184.546875 166.523438 184.085938 166.277344 183.652344 165.988281 C 183.214844 165.695312 182.8125 165.367188 182.445312 164.996094 C 182.074219 164.625 181.742188 164.222656 181.453125 163.789062 C 181.160156 163.351562 180.917969 162.894531 180.714844 162.410156 C 180.515625 161.925781 180.363281 161.429688 180.261719 160.914062 C 180.160156 160.402344 180.109375 159.882812 180.109375 159.359375 C 180.109375 158.835938 180.160156 158.320312 180.261719 157.804688 C 180.363281 157.292969 180.515625 156.796875 180.714844 156.3125 C 180.917969 155.828125 181.160156 155.367188 181.453125 154.933594 C 181.742188 154.5 182.074219 154.097656 182.445312 153.726562 C 182.8125 153.355469 183.214844 153.027344 183.652344 152.734375 C 184.085938 152.445312 184.546875 152.199219 185.027344 152 C 185.511719 151.800781 186.011719 151.648438 186.523438 151.546875 C 187.035156 151.445312 187.554688 151.394531 188.078125 151.394531 C 188.601562 151.394531 189.121094 151.445312 189.632812 151.546875 C 190.144531 151.648438 190.644531 151.800781 191.128906 152 Z M 191.128906 152 " fill-opacity="1" fill-rule="nonzero"/><path fill="#bc813d" d="M 271.898438 251.667969 C 271.710938 251.574219 271.578125 251.40625 271.527344 251.203125 C 270.144531 245.859375 268.601562 240.601562 266.902344 235.429688 C 262.324219 221.519531 257.644531 207.636719 252.867188 193.785156 C 252.476562 192.644531 252.132812 191.722656 251.84375 191.035156 C 253.316406 189.964844 254.273438 188.234375 254.273438 186.28125 C 254.273438 184.179688 253.171875 182.339844 251.515625 181.300781 C 251.800781 181.234375 252.0625 181.160156 252.3125 181.082031 C 255.066406 180.589844 257.164062 178.1875 257.164062 175.292969 C 257.164062 173.195312 256.066406 171.363281 254.417969 170.320312 C 253.632812 169.757812 252.765625 169.457031 251.828125 169.414062 C 252.546875 170.25 253.019531 171.300781 253.132812 172.449219 C 253.480469 175.957031 250.558594 178.878906 247.054688 178.53125 C 246.789062 178.507812 246.535156 178.453125 246.285156 178.394531 C 246.296875 178.414062 246.304688 178.433594 246.320312 178.453125 C 229.515625 175.53125 212.757812 172.777344 196.050781 170.191406 C 190.65625 169.355469 185.382812 169.324219 180.214844 170.09375 C 164.574219 172.425781 147.925781 175.242188 130.28125 178.546875 C 130.289062 178.535156 130.296875 178.523438 130.304688 178.507812 C 129.886719 178.5625 129.457031 178.570312 129.015625 178.527344 C 126.421875 178.269531 124.320312 176.171875 124.0625 173.578125 C 123.90625 171.980469 124.429688 170.507812 125.375 169.40625 C 124.957031 169.40625 124.550781 169.453125 124.15625 169.535156 C 123.964844 169.570312 123.769531 169.609375 123.574219 169.664062 C 122.375 169.992188 121.425781 170.667969 120.734375 171.691406 C 119.960938 172.683594 119.496094 173.933594 119.496094 175.289062 C 119.496094 175.347656 119.503906 175.40625 119.503906 175.460938 C 119.445312 176.769531 119.8125 177.921875 120.613281 178.914062 C 121.425781 179.921875 122.476562 180.679688 123.746094 181.191406 C 121.996094 182.210938 120.816406 184.105469 120.816406 186.277344 C 120.816406 188.464844 122.007812 190.363281 123.773438 191.378906 C 122.257812 196.332031 120.609375 201.257812 118.824219 206.164062 C 115.21875 216.078125 111.726562 226.03125 108.351562 236.027344 C 106.085938 242.726562 104.527344 247.945312 103.675781 251.6875 C 103.632812 251.871094 103.476562 252.003906 103.289062 252.015625 C 101.847656 252.136719 101.015625 252.882812 100.796875 254.257812 C 100.414062 256.652344 101.25 258.296875 103.308594 259.1875 C 103.6875 259.351562 104.242188 259.445312 104.980469 259.472656 C 105.554688 259.496094 106.128906 259.566406 106.695312 259.6875 C 106.890625 259.726562 107.078125 259.832031 107.226562 259.984375 C 108.207031 261.015625 109.179688 262.054688 110.136719 263.113281 C 112.546875 265.773438 115.367188 267.625 118.589844 268.667969 C 121.476562 269.601562 124.722656 269.96875 128.335938 269.777344 C 135.34375 269.394531 141.011719 266.191406 145.339844 260.175781 C 145.464844 260.011719 145.648438 259.90625 145.839844 259.898438 C 146.347656 259.875 146.851562 259.875 147.351562 259.898438 C 148.09375 259.929688 148.695312 259.875 149.144531 259.746094 C 152.070312 258.90625 153.1875 256.933594 152.492188 253.828125 C 152.382812 253.320312 152.207031 252.929688 151.960938 252.65625 C 151.625 252.277344 151.222656 252.066406 150.757812 252.027344 C 150.394531 251.996094 150.089844 251.734375 149.992188 251.378906 C 148.554688 245.78125 147.011719 240.425781 145.363281 235.320312 C 140.664062 220.753906 135.699219 206.277344 130.480469 191.890625 C 130.390625 191.648438 130.261719 191.378906 130.089844 191.085938 C 131.597656 190.019531 132.585938 188.265625 132.585938 186.28125 C 132.585938 184.195312 131.5 182.367188 129.863281 181.324219 C 133.816406 180.804688 139.203125 180.011719 146.042969 178.953125 C 158.273438 177.066406 170.351562 175.148438 182.269531 173.207031 C 182.289062 173.203125 182.304688 173.203125 182.324219 173.203125 C 182.625 173.1875 182.886719 173.414062 182.902344 173.71875 C 183.992188 197.339844 184.484375 220.96875 184.371094 244.605469 C 184.351562 249.265625 184.265625 253.484375 184.125 257.253906 C 183.808594 265.476562 183.347656 272.175781 182.746094 277.351562 C 182.15625 282.433594 181.367188 287.074219 180.371094 291.269531 C 179.558594 294.722656 178.398438 298.128906 176.898438 301.503906 C 175.40625 304.855469 173.792969 307.585938 172.066406 309.691406 C 170.023438 312.167969 167.613281 314.285156 164.832031 316.050781 C 161.945312 317.886719 159.011719 319.660156 156.042969 321.375 C 154.976562 321.988281 155.050781 322.402344 156.265625 322.613281 C 166.582031 324.378906 176.613281 324.222656 186.367188 322.132812 C 187.304688 321.933594 188.246094 321.921875 189.191406 322.09375 C 199.097656 323.921875 208.710938 324.191406 218.035156 322.90625 C 219.566406 322.699219 219.714844 322.121094 218.488281 321.179688 C 217.449219 320.382812 216.175781 319.59375 214.675781 318.8125 C 209.828125 316.292969 205.871094 312.914062 202.796875 308.679688 C 200.757812 305.878906 198.941406 302.097656 197.347656 297.328125 C 195.527344 291.886719 194.296875 286.492188 193.667969 281.140625 C 191.59375 263.574219 190.71875 245.171875 191.035156 225.929688 C 191.324219 208.472656 191.832031 191.019531 192.546875 173.570312 C 192.546875 173.5625 192.550781 173.546875 192.550781 173.535156 C 192.574219 173.378906 192.71875 173.273438 192.871094 173.296875 L 245.175781 181.34375 C 243.570312 182.394531 242.507812 184.207031 242.507812 186.265625 C 242.507812 188.371094 243.613281 190.207031 245.273438 191.25 C 245.246094 191.300781 245.21875 191.351562 245.203125 191.402344 C 241.78125 201.3125 238.3125 211.214844 234.800781 221.105469 C 231.648438 229.976562 228.722656 238.921875 226.019531 247.941406 C 225.707031 248.96875 225.457031 250.128906 225.257812 251.410156 C 225.226562 251.609375 225.089844 251.777344 224.902344 251.847656 C 222.945312 252.582031 222.023438 253.796875 222.136719 255.484375 C 222.222656 256.816406 222.757812 257.898438 223.738281 258.738281 C 224.757812 259.625 226.066406 259.921875 227.652344 259.628906 C 228.269531 259.515625 228.902344 259.734375 229.316406 260.207031 C 230.46875 261.515625 231.632812 262.738281 232.816406 263.878906 C 234.203125 265.21875 235.539062 266.242188 236.828125 266.945312 C 240.019531 268.691406 243.664062 269.628906 247.769531 269.75 C 256.234375 270 262.769531 266.871094 267.359375 260.367188 C 267.476562 260.203125 267.660156 260.105469 267.851562 260.105469 C 269.464844 260.121094 270.90625 259.75 272.175781 258.992188 C 273.550781 258.167969 274.332031 257.074219 274.515625 255.695312 C 274.742188 254 273.875 252.65625 271.898438 251.667969 Z M 151.742188 255.089844 C 151.746094 255.039062 151.75 254.988281 151.75 254.941406 C 151.75 254.992188 151.746094 255.039062 151.742188 255.089844 C 151.738281 255.121094 151.734375 255.148438 151.726562 255.175781 C 151.734375 255.148438 151.738281 255.121094 151.742188 255.089844 Z M 151.621094 254.328125 C 151.585938 254.285156 151.546875 254.261719 151.5 254.253906 C 151.542969 254.257812 151.585938 254.285156 151.621094 254.328125 Z M 151.3125 255.851562 C 151.238281 255.839844 151.175781 255.773438 151.132812 255.664062 C 151.175781 255.773438 151.242188 255.839844 151.3125 255.851562 Z M 125.273438 254.691406 C 125.273438 254.691406 125.273438 254.695312 125.273438 254.695312 C 125.273438 254.867188 125.136719 255.003906 124.96875 255.003906 L 109.308594 255.039062 C 108.894531 255.042969 108.539062 254.738281 108.472656 254.324219 C 108.285156 253.121094 107.816406 252.3125 107.0625 251.898438 C 107.007812 251.871094 106.800781 251.835938 106.449219 251.796875 L 105.214844 251.671875 C 105.199219 251.671875 105.1875 251.667969 105.171875 251.664062 C 105.027344 251.621094 104.945312 251.441406 104.992188 251.261719 C 107.710938 241.234375 110.863281 231.347656 114.453125 221.601562 C 117.835938 212.421875 121.09375 203.203125 124.226562 193.9375 C 124.464844 193.238281 124.785156 192.578125 125.199219 191.960938 C 125.378906 192.007812 125.558594 192.046875 125.746094 192.078125 C 125.746094 192.09375 125.746094 192.105469 125.746094 192.125 C 125.214844 212.921875 125.054688 233.78125 125.273438 254.691406 Z M 148.761719 251.140625 C 148.761719 251.144531 148.765625 251.148438 148.765625 251.148438 C 148.804688 251.316406 148.707031 251.484375 148.539062 251.527344 C 147.980469 251.667969 147.417969 251.78125 146.851562 251.863281 C 145.511719 252.066406 144.820312 252.867188 144.773438 254.261719 C 144.761719 254.699219 144.402344 255.046875 143.964844 255.046875 L 126.617188 255.011719 C 126.609375 255.011719 126.601562 255.011719 126.589844 255.011719 C 126.429688 254.996094 126.3125 254.855469 126.328125 254.695312 C 126.359375 254.316406 126.410156 253.9375 126.472656 253.5625 C 126.542969 253.136719 126.578125 252.757812 126.578125 252.417969 C 126.664062 234.675781 126.832031 216.941406 127.078125 199.203125 C 127.113281 196.84375 127.199219 194.488281 127.332031 192.128906 C 127.867188 192.070312 128.378906 191.941406 128.863281 191.75 C 128.972656 191.886719 129.066406 192.039062 129.128906 192.207031 C 136.59375 211.722656 143.136719 231.367188 148.761719 251.140625 Z M 248.382812 197.304688 C 248.21875 216.460938 248.183594 235.617188 248.277344 254.773438 C 248.277344 254.945312 248.132812 255.082031 247.957031 255.082031 L 230.710938 255.046875 C 230.367188 255.046875 230.085938 254.777344 230.078125 254.4375 C 230.046875 253.417969 229.585938 252.582031 228.683594 251.9375 C 228.589844 251.867188 228.394531 251.8125 228.109375 251.78125 L 226.898438 251.621094 C 226.894531 251.621094 226.894531 251.621094 226.890625 251.621094 C 226.730469 251.59375 226.621094 251.410156 226.652344 251.210938 C 227.121094 248.410156 227.882812 245.363281 228.9375 242.074219 C 234.550781 224.554688 240.386719 207.980469 246.441406 192.351562 C 246.507812 192.175781 246.574219 192.03125 246.644531 191.902344 C 247.109375 192.042969 247.597656 192.125 248.105469 192.152344 C 248.3125 192.734375 248.40625 194.453125 248.382812 197.304688 Z M 268.292969 254.691406 C 268.300781 254.550781 268.332031 254.421875 268.378906 254.308594 C 268.332031 254.421875 268.300781 254.550781 268.292969 254.691406 C 268.273438 254.996094 268.359375 255.273438 268.503906 255.445312 C 268.355469 255.273438 268.273438 254.996094 268.292969 254.691406 Z M 268.820312 255.621094 C 268.835938 255.621094 268.847656 255.617188 268.863281 255.617188 C 268.847656 255.617188 268.835938 255.621094 268.820312 255.621094 Z M 269.027344 255.578125 C 269.222656 255.484375 269.382812 255.246094 269.441406 254.945312 C 269.382812 255.246094 269.222656 255.484375 269.027344 255.578125 Z M 268.9375 253.839844 C 269.09375 253.851562 269.222656 253.945312 269.320312 254.097656 C 269.222656 253.945312 269.09375 253.851562 268.9375 253.839844 Z M 269.914062 251.535156 C 267.632812 251.699219 266.410156 252.691406 266.25 254.507812 C 266.21875 254.835938 265.945312 255.089844 265.609375 255.089844 L 249.9375 255.082031 C 249.765625 255.082031 249.628906 254.941406 249.628906 254.765625 L 249.820312 191.976562 C 250.105469 191.90625 250.386719 191.820312 250.648438 191.710938 C 250.6875 191.777344 250.722656 191.847656 250.75 191.929688 C 257.957031 211.433594 264.484375 231.097656 270.335938 250.921875 C 270.347656 250.953125 270.351562 250.988281 270.355469 251.023438 C 270.375 251.285156 270.175781 251.511719 269.914062 251.535156 Z M 269.914062 251.535156 " fill-opacity="1" fill-rule="nonzero"/><g clip-path="url(#e672d804d5)"><path fill="#bc813d" d="M 223.382812 11.523438 L 231.84375 28.671875 L 250.769531 31.421875 L 237.070312 44.78125 L 240.316406 63.632812 L 223.382812 54.734375 L 206.441406 63.632812 L 209.675781 44.78125 L 195.988281 31.421875 L 214.914062 28.671875 Z M 223.382812 11.523438 " fill-opacity="1" fill-rule="nonzero"/><path fill="#bc813d" d="M 223.253906 11.359375 L 231.722656 28.507812 L 250.648438 31.257812 L 236.949219 44.617188 L 240.183594 63.464844 L 223.253906 54.566406 L 206.320312 63.464844 L 209.554688 44.617188 L 195.855469 31.257812 L 214.78125 28.507812 Z M 223.253906 11.359375 " fill-opacity="1" fill-rule="nonzero"/><path fill="#bc813d" d="M 223.253906 11.359375 L 231.722656 28.507812 L 250.648438 31.257812 L 236.949219 44.617188 L 240.183594 63.464844 L 223.253906 54.566406 L 206.320312 63.464844 L 209.554688 44.617188 L 195.855469 31.257812 L 214.78125 28.507812 Z M 223.253906 11.359375 " fill-opacity="1" fill-rule="nonzero"/><path fill="#bc813d" d="M 223.253906 11.359375 L 231.722656 28.507812 L 250.648438 31.257812 L 236.949219 44.617188 L 240.183594 63.464844 L 223.253906 54.566406 L 206.320312 63.464844 L 209.554688 44.617188 L 195.855469 31.257812 L 214.78125 28.507812 Z M 223.253906 11.359375 " fill-opacity="1" fill-rule="nonzero"/></g></svg>