<svg xmlns="http://www.w3.org/2000/svg" xmlns:xlink="http://www.w3.org/1999/xlink" width="500" zoomAndPan="magnify" viewBox="0 0 375 374.999991" height="500" preserveAspectRatio="xMidYMid meet" version="1.0"><defs><clipPath id="1ab8257146"><path d="M 62.753906 211.042969 L 310.851562 211.042969 L 310.851562 310.472656 L 62.753906 310.472656 Z M 62.753906 211.042969 " clip-rule="nonzero"/></clipPath><clipPath id="171b482fe9"><path d="M 0 111.023438 L 373 111.023438 L 373 241 L 0 241 Z M 0 111.023438 " clip-rule="nonzero"/></clipPath><clipPath id="b052215d81"><path d="M 40.039062 46.550781 L 88.789062 46.550781 L 88.789062 93.050781 L 40.039062 93.050781 Z M 40.039062 46.550781 " clip-rule="nonzero"/></clipPath><clipPath id="46e54be7a0"><path d="M 40.039062 46.550781 L 88.789062 46.550781 L 88.789062 93 L 40.039062 93 Z M 40.039062 46.550781 " clip-rule="nonzero"/></clipPath><clipPath id="e36c260bc8"><path d="M 104.714844 46.550781 L 153.464844 46.550781 L 153.464844 93.050781 L 104.714844 93.050781 Z M 104.714844 46.550781 " clip-rule="nonzero"/></clipPath><clipPath id="f7864d73c4"><path d="M 104.714844 46.550781 L 153.464844 46.550781 L 153.464844 93 L 104.714844 93 Z M 104.714844 46.550781 " clip-rule="nonzero"/></clipPath><clipPath id="69771d8604"><path d="M 168.71875 46.550781 L 217.46875 46.550781 L 217.46875 93.050781 L 168.71875 93.050781 Z M 168.71875 46.550781 " clip-rule="nonzero"/></clipPath><clipPath id="ac858a60fa"><path d="M 168.71875 46.550781 L 217.46875 46.550781 L 217.46875 93 L 168.71875 93 Z M 168.71875 46.550781 " clip-rule="nonzero"/></clipPath><clipPath id="41cd3365cc"><path d="M 232.726562 46.550781 L 281.476562 46.550781 L 281.476562 93.050781 L 232.726562 93.050781 Z M 232.726562 46.550781 " clip-rule="nonzero"/></clipPath><clipPath id="19fa55cfce"><path d="M 232.726562 46.550781 L 281.476562 46.550781 L 281.476562 93 L 232.726562 93 Z M 232.726562 46.550781 " clip-rule="nonzero"/></clipPath><clipPath id="d5afb4e4f8"><path d="M 296.730469 46.550781 L 345.480469 46.550781 L 345.480469 93.050781 L 296.730469 93.050781 Z M 296.730469 46.550781 " clip-rule="nonzero"/></clipPath><clipPath id="eb23b07a06"><path d="M 296.730469 46.550781 L 345.480469 46.550781 L 345.480469 93 L 296.730469 93 Z M 296.730469 46.550781 " clip-rule="nonzero"/></clipPath></defs><g clip-path="url(#1ab8257146)"><path fill="#ffffff" d="M 305.863281 287.035156 C 301.308594 289.640625 294.40625 293.046875 284.8125 296.425781 C 266.664062 302.835938 234.914062 310.472656 186.734375 310.472656 C 138.554688 310.472656 106.804688 302.835938 88.65625 296.425781 C 79.058594 293.042969 72.15625 289.640625 67.605469 287.039062 C 64.558594 285.292969 62.761719 281.96875 62.960938 278.460938 L 66.605469 213.179688 C 66.644531 212.464844 67.042969 211.855469 67.617188 211.519531 L 184.035156 250.722656 C 185.785156 251.316406 187.683594 251.316406 189.4375 250.722656 L 305.851562 211.519531 C 306.425781 211.855469 306.828125 212.464844 306.867188 213.179688 L 310.507812 278.460938 C 310.707031 281.96875 308.910156 285.292969 305.863281 287.035156 " fill-opacity="1" fill-rule="nonzero"/></g><g clip-path="url(#171b482fe9)"><path fill="#ffffff" d="M 184.074219 111.628906 L 2.175781 173.347656 C -0.0078125 174.089844 -0.0078125 177.175781 2.175781 177.917969 L 56.730469 196.425781 L 67.332031 200.027344 L 184.074219 239.636719 C 185.796875 240.222656 187.671875 240.222656 189.394531 239.636719 L 306.136719 200.027344 L 316.738281 196.425781 L 318.015625 195.992188 C 307.804688 183.710938 295.992188 176.257812 282.417969 173.453125 C 247.082031 166.15625 193.492188 177.355469 192.953125 177.46875 C 190.179688 178.046875 187.453125 176.644531 186.730469 174.273438 C 186.382812 173.132812 186.535156 171.925781 187.15625 170.878906 C 187.878906 169.65625 189.167969 168.769531 190.695312 168.445312 C 192.996094 167.960938 247.457031 156.632812 285.109375 164.410156 C 301.925781 167.886719 316.246094 177.167969 328.285156 192.511719 L 371.292969 177.917969 C 373.476562 177.175781 373.476562 174.089844 371.292969 173.347656 L 189.394531 111.628906 C 187.671875 111.042969 185.796875 111.042969 184.074219 111.628906 " fill-opacity="1" fill-rule="nonzero"/></g><path fill="#ffffff" d="M 384.015625 294.019531 L 362 250.214844 C 361.738281 248.953125 361.15625 246.582031 360.070312 244.167969 C 357.5 238.4375 353.902344 236.414062 351.054688 235.789062 C 344.617188 218.089844 337.058594 203.6875 328.285156 192.511719 L 318.015625 195.992188 C 327.148438 206.976562 334.992188 221.828125 341.664062 240.660156 C 340.582031 242.734375 339.910156 245.582031 340.320312 249.488281 C 340.625 252.394531 341.429688 254.945312 341.8125 256.03125 L 350.742188 303.59375 C 351.214844 306.121094 353.40625 307.964844 355.976562 307.996094 C 355.996094 307.996094 356.039062 307.996094 356.097656 307.996094 C 357.507812 307.996094 369.257812 307.789062 381.714844 301.210938 C 384.3125 299.839844 385.335938 296.640625 384.015625 294.019531 " fill-opacity="1" fill-rule="nonzero"/><g clip-path="url(#b052215d81)"><path fill="#ffffff" d="M 64.476562 46.710938 L 71.988281 61.957031 L 88.789062 64.402344 L 76.628906 76.277344 L 79.507812 93.035156 L 64.476562 85.125 L 49.4375 93.035156 L 52.308594 76.277344 L 40.15625 64.402344 L 56.957031 61.957031 Z M 64.476562 46.710938 " fill-opacity="1" fill-rule="nonzero"/></g><g clip-path="url(#46e54be7a0)"><path fill="#ffffff" d="M 64.359375 46.5625 L 71.882812 61.8125 L 88.683594 64.257812 L 76.523438 76.132812 L 79.390625 92.890625 L 64.359375 84.976562 L 49.332031 92.890625 L 52.199219 76.132812 L 40.039062 64.257812 L 56.839844 61.8125 Z M 64.359375 46.5625 " fill-opacity="1" fill-rule="nonzero"/><path fill="#ffffff" d="M 64.359375 46.5625 L 71.882812 61.8125 L 88.683594 64.257812 L 76.523438 76.132812 L 79.390625 92.890625 L 64.359375 84.976562 L 49.332031 92.890625 L 52.199219 76.132812 L 40.039062 64.257812 L 56.839844 61.8125 Z M 64.359375 46.5625 " fill-opacity="1" fill-rule="nonzero"/><path fill="#ffffff" d="M 64.359375 46.5625 L 71.882812 61.8125 L 88.683594 64.257812 L 76.523438 76.132812 L 79.390625 92.890625 L 64.359375 84.976562 L 49.332031 92.890625 L 52.199219 76.132812 L 40.039062 64.257812 L 56.839844 61.8125 Z M 64.359375 46.5625 " fill-opacity="1" fill-rule="nonzero"/></g><g clip-path="url(#e36c260bc8)"><path fill="#ffffff" d="M 129.152344 46.710938 L 136.664062 61.957031 L 153.464844 64.402344 L 141.304688 76.277344 L 144.183594 93.035156 L 129.152344 85.125 L 114.113281 93.035156 L 116.980469 76.277344 L 104.832031 64.402344 L 121.632812 61.957031 Z M 129.152344 46.710938 " fill-opacity="1" fill-rule="nonzero"/></g><g clip-path="url(#f7864d73c4)"><path fill="#ffffff" d="M 129.035156 46.5625 L 136.554688 61.8125 L 153.355469 64.257812 L 141.195312 76.132812 L 144.066406 92.890625 L 129.035156 84.976562 L 114.003906 92.890625 L 116.875 76.132812 L 104.714844 64.257812 L 121.515625 61.8125 Z M 129.035156 46.5625 " fill-opacity="1" fill-rule="nonzero"/><path fill="#ffffff" d="M 129.035156 46.5625 L 136.554688 61.8125 L 153.355469 64.257812 L 141.195312 76.132812 L 144.066406 92.890625 L 129.035156 84.976562 L 114.003906 92.890625 L 116.875 76.132812 L 104.714844 64.257812 L 121.515625 61.8125 Z M 129.035156 46.5625 " fill-opacity="1" fill-rule="nonzero"/><path fill="#ffffff" d="M 129.035156 46.5625 L 136.554688 61.8125 L 153.355469 64.257812 L 141.195312 76.132812 L 144.066406 92.890625 L 129.035156 84.976562 L 114.003906 92.890625 L 116.875 76.132812 L 104.714844 64.257812 L 121.515625 61.8125 Z M 129.035156 46.5625 " fill-opacity="1" fill-rule="nonzero"/></g><g clip-path="url(#69771d8604)"><path fill="#ffffff" d="M 193.15625 46.710938 L 200.667969 61.957031 L 217.46875 64.402344 L 205.308594 76.277344 L 208.1875 93.035156 L 193.15625 85.125 L 178.117188 93.035156 L 180.988281 76.277344 L 168.835938 64.402344 L 185.636719 61.957031 Z M 193.15625 46.710938 " fill-opacity="1" fill-rule="nonzero"/></g><g clip-path="url(#ac858a60fa)"><path fill="#ffffff" d="M 193.042969 46.5625 L 200.5625 61.8125 L 217.363281 64.257812 L 205.203125 76.132812 L 208.070312 92.890625 L 193.042969 84.976562 L 178.011719 92.890625 L 180.878906 76.132812 L 168.71875 64.257812 L 185.519531 61.8125 Z M 193.042969 46.5625 " fill-opacity="1" fill-rule="nonzero"/><path fill="#ffffff" d="M 193.042969 46.5625 L 200.5625 61.8125 L 217.363281 64.257812 L 205.203125 76.132812 L 208.070312 92.890625 L 193.042969 84.976562 L 178.011719 92.890625 L 180.878906 76.132812 L 168.71875 64.257812 L 185.519531 61.8125 Z M 193.042969 46.5625 " fill-opacity="1" fill-rule="nonzero"/><path fill="#ffffff" d="M 193.042969 46.5625 L 200.5625 61.8125 L 217.363281 64.257812 L 205.203125 76.132812 L 208.070312 92.890625 L 193.042969 84.976562 L 178.011719 92.890625 L 180.878906 76.132812 L 168.71875 64.257812 L 185.519531 61.8125 Z M 193.042969 46.5625 " fill-opacity="1" fill-rule="nonzero"/></g><g clip-path="url(#41cd3365cc)"><path fill="#ffffff" d="M 257.164062 46.710938 L 264.675781 61.957031 L 281.476562 64.402344 L 269.316406 76.277344 L 272.195312 93.035156 L 257.164062 85.125 L 242.121094 93.035156 L 244.992188 76.277344 L 232.84375 64.402344 L 249.644531 61.957031 Z M 257.164062 46.710938 " fill-opacity="1" fill-rule="nonzero"/></g><g clip-path="url(#19fa55cfce)"><path fill="#ffffff" d="M 257.046875 46.5625 L 264.566406 61.8125 L 281.367188 64.257812 L 269.207031 76.132812 L 272.078125 92.890625 L 257.046875 84.976562 L 242.015625 92.890625 L 244.886719 76.132812 L 232.726562 64.257812 L 249.527344 61.8125 Z M 257.046875 46.5625 " fill-opacity="1" fill-rule="nonzero"/><path fill="#ffffff" d="M 257.046875 46.5625 L 264.566406 61.8125 L 281.367188 64.257812 L 269.207031 76.132812 L 272.078125 92.890625 L 257.046875 84.976562 L 242.015625 92.890625 L 244.886719 76.132812 L 232.726562 64.257812 L 249.527344 61.8125 Z M 257.046875 46.5625 " fill-opacity="1" fill-rule="nonzero"/><path fill="#ffffff" d="M 257.046875 46.5625 L 264.566406 61.8125 L 281.367188 64.257812 L 269.207031 76.132812 L 272.078125 92.890625 L 257.046875 84.976562 L 242.015625 92.890625 L 244.886719 76.132812 L 232.726562 64.257812 L 249.527344 61.8125 Z M 257.046875 46.5625 " fill-opacity="1" fill-rule="nonzero"/></g><g clip-path="url(#d5afb4e4f8)"><path fill="#ffffff" d="M 321.167969 46.710938 L 328.679688 61.957031 L 345.480469 64.402344 L 333.320312 76.277344 L 336.199219 93.035156 L 321.167969 85.125 L 306.128906 93.035156 L 309 76.277344 L 296.847656 64.402344 L 313.648438 61.957031 Z M 321.167969 46.710938 " fill-opacity="1" fill-rule="nonzero"/></g><g clip-path="url(#eb23b07a06)"><path fill="#ffffff" d="M 321.050781 46.5625 L 328.574219 61.8125 L 345.375 64.257812 L 333.214844 76.132812 L 336.082031 92.890625 L 321.050781 84.976562 L 306.023438 92.890625 L 308.890625 76.132812 L 296.730469 64.257812 L 313.53125 61.8125 Z M 321.050781 46.5625 " fill-opacity="1" fill-rule="nonzero"/><path fill="#ffffff" d="M 321.050781 46.5625 L 328.574219 61.8125 L 345.375 64.257812 L 333.214844 76.132812 L 336.082031 92.890625 L 321.050781 84.976562 L 306.023438 92.890625 L 308.890625 76.132812 L 296.730469 64.257812 L 313.53125 61.8125 Z M 321.050781 46.5625 " fill-opacity="1" fill-rule="nonzero"/><path fill="#ffffff" d="M 321.050781 46.5625 L 328.574219 61.8125 L 345.375 64.257812 L 333.214844 76.132812 L 336.082031 92.890625 L 321.050781 84.976562 L 306.023438 92.890625 L 308.890625 76.132812 L 296.730469 64.257812 L 313.53125 61.8125 Z M 321.050781 46.5625 " fill-opacity="1" fill-rule="nonzero"/></g></svg>