<svg xmlns="http://www.w3.org/2000/svg" xmlns:xlink="http://www.w3.org/1999/xlink" width="500" zoomAndPan="magnify" viewBox="0 0 375 374.999991" height="500" preserveAspectRatio="xMidYMid meet" version="1.0"><defs><clipPath id="d1d71a4f40"><path d="M 9.171875 246 L 366.171875 246 L 366.171875 336 L 9.171875 336 Z M 9.171875 246 " clip-rule="nonzero"/></clipPath><clipPath id="d29ced7cad"><path d="M 175 37.5 L 201 37.5 L 201 62 L 175 62 Z M 175 37.5 " clip-rule="nonzero"/></clipPath></defs><g clip-path="url(#d1d71a4f40)"><path fill="#af8b45" d="M 187.601562 307.21875 C 141.1875 278.878906 88.191406 260.304688 34.117188 255.894531 L 38.019531 246.0625 C 92.097656 253.578125 143.933594 274.90625 187.601562 307.21875 Z M 29.921875 266.300781 L 25.945312 276.132812 C 65.5625 275.84375 105.398438 281.699219 143.210938 293.84375 C 107.714844 277.507812 68.960938 268.90625 29.921875 266.230469 Z M 362.414062 309.3125 L 207.988281 309.3125 L 207.121094 312.855469 C 203.941406 325.722656 191.503906 326.664062 187.816406 326.664062 C 178.996094 326.664062 172.203125 321.53125 169.308594 312.496094 L 168.226562 309.242188 L 12.714844 309.242188 L 9.171875 318.0625 C 9.171875 318.0625 9.390625 318.421875 9.535156 318.640625 L 161.644531 318.640625 C 166.417969 329.554688 175.960938 335.988281 187.816406 335.988281 C 199.675781 335.988281 210.085938 331.363281 215.074219 318.640625 L 366.171875 318.640625 L 366.171875 318.496094 L 362.484375 309.242188 Z M 241.824219 300.0625 C 280.210938 293.554688 319.6875 293.195312 358.148438 298.6875 L 353.882812 288.0625 C 316.070312 285.894531 277.972656 289.074219 241.824219 300.132812 Z M 349.109375 276.207031 L 345.132812 266.375 C 306.09375 269.050781 267.417969 277.578125 231.917969 293.988281 C 269.730469 281.84375 309.492188 275.988281 349.039062 276.277344 Z M 337.109375 246.132812 C 283.105469 253.652344 231.339844 274.976562 187.601562 307.21875 C 233.941406 278.953125 286.9375 260.304688 341.015625 255.894531 L 337.109375 246.0625 Z M 133.378906 300.0625 C 97.230469 289 59.058594 285.820312 21.175781 287.988281 L 16.910156 298.617188 C 55.371094 293.121094 94.917969 293.484375 133.378906 299.988281 Z M 133.378906 300.0625 " fill-opacity="1" fill-rule="nonzero"/></g><path fill="#e5bf88" d="M 124.050781 206.304688 C 137.136719 206.304688 148.125 197.339844 151.378906 185.339844 L 151.378906 185.195312 L 126.65625 134.449219 C 136.269531 136.546875 141.765625 134.8125 150.078125 131.484375 C 160.054688 127.367188 182.757812 118.402344 183.480469 154.835938 L 184.128906 277.363281 C 184.128906 277.363281 180.007812 277.21875 176.902344 278.375 C 172.128906 275.773438 167.140625 274.398438 163.960938 273.75 C 172.058594 278.230469 180.082031 283.363281 187.527344 288.855469 L 187.671875 288.710938 L 187.671875 288.929688 C 195.265625 283.289062 203.144531 278.230469 211.386719 273.75 C 208.277344 274.398438 203.144531 275.628906 198.445312 278.375 C 195.335938 277.21875 191.214844 277.363281 191.214844 277.363281 L 191.867188 154.835938 C 192.589844 118.402344 215.289062 127.4375 225.195312 131.484375 C 233.582031 134.882812 239.148438 136.617188 248.761719 134.449219 L 224.039062 185.195312 L 224.039062 185.339844 C 227.292969 197.339844 238.136719 206.304688 251.222656 206.304688 C 264.308594 206.304688 275.296875 197.339844 278.550781 185.339844 L 253.460938 133.4375 C 253.824219 133.292969 253.609375 133.4375 254.621094 132.933594 C 257.511719 131.339844 259.246094 128.8125 259.246094 125.558594 C 259.246094 122.304688 255.847656 118.113281 251.800781 118.113281 C 247.75 118.113281 244.207031 121.511719 244.207031 125.558594 C 244.207031 129.605469 244.933594 128.957031 245.945312 130.328125 C 238.496094 131.703125 233.941406 128.8125 225.121094 124.113281 C 208.785156 115.367188 193.816406 117.605469 193.816406 117.605469 C 198.953125 108.644531 192.300781 103.511719 192.300781 103.511719 C 189.84375 100.113281 193.890625 98.015625 193.890625 98.015625 C 200.109375 93.679688 192.515625 86.160156 192.515625 86.160156 C 189.625 83.054688 188.394531 80.8125 187.746094 79.292969 C 187.09375 80.8125 185.867188 83.054688 182.972656 86.160156 C 182.972656 86.160156 175.238281 93.605469 181.457031 98.015625 C 181.457031 98.015625 185.722656 100.113281 183.046875 103.511719 C 183.046875 103.511719 176.539062 108.644531 181.527344 117.605469 C 181.527344 117.605469 166.707031 115.367188 150.367188 124.113281 C 141.546875 128.882812 136.992188 131.703125 129.402344 130.328125 C 130.558594 128.957031 131.136719 127.4375 131.136719 125.558594 C 131.136719 121.4375 127.738281 118.113281 123.691406 118.113281 C 119.640625 118.113281 116.097656 121.511719 116.097656 125.558594 C 116.097656 129.605469 117.835938 131.269531 120.871094 132.933594 C 121.882812 133.4375 121.523438 133.292969 122.027344 133.4375 L 96.941406 185.339844 C 100.195312 197.339844 111.039062 206.304688 124.125 206.304688 Z M 275.800781 185.339844 L 226.570312 185.339844 L 251.148438 134.738281 L 275.875 185.339844 Z M 124.050781 134.738281 L 148.777344 185.339844 L 99.542969 185.339844 L 124.125 134.738281 Z M 124.050781 134.738281 " fill-opacity="1" fill-rule="nonzero"/><path fill="#af8b45" d="M 308.046875 184.90625 C 308.046875 184.90625 306.890625 187.507812 305.445312 189.386719 C 305.445312 189.242188 305.371094 189.027344 305.300781 188.882812 C 306.746094 184.546875 307.828125 180.0625 308.699219 175.507812 C 309.492188 175.363281 311.15625 174.929688 313.179688 173.339844 C 313.179688 173.339844 320.625 166.980469 320.769531 162.425781 C 320.769531 162.425781 320.84375 157.796875 322.578125 153.605469 C 322.578125 153.605469 320.121094 156.859375 316.144531 159.390625 C 316.144531 159.390625 312.023438 163.582031 311.300781 168.929688 C 311.300781 168.929688 310.578125 171.679688 309.421875 173.847656 C 309.347656 173.703125 309.277344 173.558594 309.203125 173.414062 C 309.925781 168.929688 310.289062 164.378906 310.359375 159.679688 C 311.082031 159.460938 312.671875 158.738281 314.410156 156.859375 C 314.410156 156.859375 320.699219 149.414062 320.121094 144.859375 C 320.121094 144.859375 319.46875 140.234375 320.480469 135.894531 C 320.480469 135.894531 318.601562 139.511719 315.058594 142.691406 C 315.058594 142.691406 311.734375 147.535156 311.804688 152.882812 C 311.804688 152.882812 311.515625 155.703125 310.792969 158.015625 C 310.648438 157.871094 310.578125 157.652344 310.433594 157.507812 C 310.433594 155.628906 310.433594 153.824219 310.433594 151.945312 C 310.289062 149.195312 309.925781 146.523438 309.566406 143.847656 C 310.289062 143.484375 311.660156 142.546875 313.035156 140.378906 C 313.035156 140.378906 318.023438 131.992188 316.722656 127.65625 C 316.722656 127.65625 315.347656 123.246094 315.566406 118.761719 C 315.566406 118.761719 314.265625 122.59375 311.300781 126.355469 C 311.300781 126.355469 308.769531 131.628906 309.78125 136.90625 C 309.78125 136.90625 309.925781 139.726562 309.566406 142.113281 C 309.421875 141.96875 309.277344 141.824219 309.132812 141.75 C 308.335938 137.195312 307.25 132.714844 305.878906 128.378906 C 306.527344 127.871094 307.757812 126.714844 308.769531 124.402344 C 308.769531 124.402344 312.382812 115.292969 310.359375 111.246094 C 310.359375 111.246094 308.261719 107.125 307.828125 102.644531 C 307.828125 102.644531 307.179688 106.691406 304.867188 110.8125 C 304.867188 110.8125 303.203125 116.449219 305.082031 121.511719 C 305.082031 121.511719 305.734375 124.257812 305.734375 126.714844 C 305.589844 126.644531 305.371094 126.5 305.226562 126.355469 C 303.707031 122.015625 301.972656 117.824219 299.878906 113.777344 C 300.382812 113.269531 301.539062 111.824219 302.117188 109.292969 C 302.117188 109.292969 304.214844 99.75 301.539062 96.066406 C 301.539062 96.066406 298.792969 92.304688 297.636719 87.96875 C 297.636719 87.96875 297.636719 92.015625 296.046875 96.5 C 296.046875 96.5 295.324219 102.355469 297.925781 106.980469 C 297.925781 106.980469 299.007812 109.511719 299.371094 111.894531 C 299.152344 111.824219 298.9375 111.75 298.71875 111.605469 C 296.550781 107.632812 294.164062 103.800781 291.492188 100.183594 C 291.925781 99.605469 292.792969 98.015625 293.007812 95.414062 C 293.007812 95.414062 293.515625 85.65625 290.261719 82.402344 C 290.261719 82.402344 286.9375 79.148438 285.128906 75.101562 C 285.128906 75.101562 285.78125 79.148438 284.910156 83.777344 C 284.910156 83.777344 285.128906 89.632812 288.527344 93.824219 C 288.527344 93.824219 289.972656 96.210938 290.769531 98.523438 C 290.550781 98.523438 290.335938 98.378906 290.117188 98.304688 C 287.371094 94.691406 284.332031 91.292969 281.082031 88.113281 C 281.371094 87.460938 282.019531 85.800781 281.804688 83.125 C 281.804688 83.125 280.71875 73.4375 277.03125 70.765625 C 277.03125 70.765625 273.273438 68.089844 270.742188 64.402344 C 270.742188 64.402344 272.042969 68.234375 271.898438 73.003906 C 271.898438 73.003906 273.054688 78.789062 277.03125 82.332031 C 277.03125 82.332031 278.910156 84.5 279.996094 86.59375 C 279.777344 86.59375 279.5625 86.59375 279.417969 86.523438 C 276.089844 83.414062 272.550781 80.449219 268.789062 77.847656 C 269.007812 77.054688 269.296875 75.390625 268.644531 72.933594 C 268.644531 72.933594 266.042969 63.535156 261.921875 61.511719 C 261.921875 61.511719 257.726562 59.488281 254.691406 56.234375 C 254.691406 56.234375 256.570312 59.847656 257.222656 64.546875 C 257.222656 64.546875 259.320312 70.042969 263.800781 72.933594 C 263.800781 72.933594 265.96875 74.738281 267.417969 76.691406 C 267.199219 76.691406 267.054688 76.691406 266.835938 76.691406 C 263.65625 74.523438 260.257812 72.5 256.789062 70.765625 C 256.210938 69.824219 255.199219 68.597656 253.535156 67.292969 C 253.535156 67.292969 243.703125 60.136719 238.28125 61.292969 C 238.28125 61.292969 229.242188 62.308594 227.796875 62.164062 C 227.796875 62.164062 232.28125 64.113281 236.472656 68.015625 C 236.472656 68.015625 241.824219 72.570312 248.257812 71.847656 C 248.257812 71.847656 254.113281 71.054688 257.078125 72.210938 C 259.679688 73.582031 262.210938 75.101562 264.667969 76.691406 C 262.355469 76.546875 260.113281 76.042969 260.113281 76.042969 C 254.910156 74.449219 249.847656 76.621094 249.847656 76.621094 C 245.511719 79.148438 241.316406 80.015625 241.316406 80.015625 C 246.449219 80.523438 250.28125 82.332031 250.28125 82.332031 C 254.546875 84.210938 261.847656 79.871094 261.847656 79.871094 C 263.296875 79.222656 265.246094 78.570312 266.691406 78.066406 C 270.308594 80.59375 273.777344 83.34375 277.03125 86.304688 C 274.789062 85.800781 272.695312 85.003906 272.695312 85.003906 C 267.777344 82.546875 262.5 83.921875 262.5 83.921875 C 257.800781 85.726562 253.535156 85.871094 253.535156 85.871094 C 258.523438 87.171875 261.992188 89.632812 261.992188 89.632812 C 265.898438 92.160156 273.777344 89.054688 273.777344 89.054688 C 275.296875 88.621094 277.320312 88.332031 278.839844 88.042969 C 282.019531 91.078125 284.984375 94.402344 287.730469 97.800781 C 285.636719 96.933594 283.683594 95.777344 283.683594 95.777344 C 279.273438 92.59375 273.777344 93.027344 273.777344 93.027344 C 268.863281 94.042969 264.597656 93.460938 264.597656 93.460938 C 269.296875 95.558594 272.332031 98.523438 272.332031 98.523438 C 275.730469 101.632812 284.117188 99.824219 284.117188 99.824219 C 285.636719 99.679688 287.660156 99.679688 289.25 99.679688 C 291.925781 103.222656 294.382812 106.910156 296.550781 110.738281 C 294.597656 109.511719 292.863281 108.136719 292.863281 108.136719 C 289.03125 104.234375 283.539062 103.800781 283.539062 103.800781 C 278.550781 104.015625 274.429688 102.789062 274.429688 102.789062 C 278.695312 105.605469 281.226562 109.078125 281.226562 109.078125 C 284.117188 112.691406 292.574219 112.257812 292.574219 112.257812 C 294.09375 112.328125 296.117188 112.691406 297.636719 112.90625 C 299.734375 116.8125 301.539062 120.859375 303.128906 125.050781 C 301.394531 123.535156 299.878906 121.800781 299.878906 121.800781 C 296.695312 117.316406 291.347656 116.015625 291.347656 116.015625 C 286.359375 115.367188 282.527344 113.558594 282.527344 113.558594 C 286.285156 117.027344 288.238281 120.859375 288.238281 120.859375 C 290.480469 124.90625 298.9375 125.847656 298.9375 125.847656 C 300.457031 126.210938 302.40625 126.859375 303.851562 127.292969 C 305.300781 131.484375 306.382812 135.824219 307.25 140.234375 C 305.734375 138.425781 304.503906 136.472656 304.503906 136.472656 C 302.117188 131.558594 297.058594 129.390625 297.058594 129.390625 C 292.214844 127.945312 288.742188 125.484375 288.742188 125.484375 C 291.925781 129.535156 293.226562 133.582031 293.226562 133.582031 C 294.816406 137.917969 302.984375 140.234375 302.984375 140.234375 C 304.433594 140.8125 306.3125 141.824219 307.683594 142.546875 C 308.191406 145.65625 308.625 148.835938 308.84375 152.015625 C 308.914062 153.246094 308.84375 154.472656 308.84375 155.773438 C 307.683594 153.75 306.816406 151.65625 306.816406 151.65625 C 305.226562 146.449219 300.601562 143.484375 300.601562 143.484375 C 296.046875 141.316406 293.007812 138.28125 293.007812 138.28125 C 295.46875 142.761719 296.117188 147.027344 296.117188 147.027344 C 296.984375 151.582031 304.648438 155.195312 304.648438 155.195312 C 305.949219 155.992188 307.613281 157.292969 308.84375 158.160156 C 308.84375 162.714844 308.625 167.269531 307.972656 171.679688 C 307.105469 169.4375 306.527344 167.050781 306.527344 167.050781 C 305.804688 161.628906 301.757812 157.945312 301.757812 157.945312 C 297.636719 155.050781 295.105469 151.582031 295.105469 151.582031 C 296.839844 156.425781 296.769531 160.691406 296.769531 160.691406 C 296.839844 165.316406 303.851562 170.160156 303.851562 170.160156 C 305.011719 171.171875 306.457031 172.761719 307.539062 173.847656 C 306.816406 178.257812 305.734375 182.59375 304.433594 186.785156 C 304 184.472656 303.78125 182.230469 303.78125 182.230469 C 303.925781 176.738281 300.527344 172.472656 300.527344 172.472656 C 296.914062 168.929688 295.035156 165.171875 295.035156 165.171875 C 295.902344 170.230469 295.179688 174.425781 295.179688 174.425781 C 294.527344 178.980469 300.671875 184.90625 300.671875 184.90625 C 301.683594 186.136719 302.839844 187.871094 303.78125 189.171875 C 302.335938 193.363281 300.601562 197.414062 298.574219 201.386719 C 298.503906 199.074219 298.71875 196.835938 298.71875 196.835938 C 299.734375 191.484375 297.058594 186.714844 297.058594 186.714844 C 294.09375 182.664062 292.792969 178.617188 292.792969 178.617188 C 292.792969 183.75 291.417969 187.796875 291.417969 187.796875 C 290.042969 192.207031 295.105469 199.003906 295.105469 199.003906 C 295.902344 200.304688 296.695312 202.183594 297.417969 203.558594 C 295.324219 207.53125 293.007812 211.363281 290.40625 214.976562 C 290.695312 212.664062 291.273438 210.351562 291.273438 210.351562 C 293.152344 205.21875 291.273438 200.085938 291.273438 200.085938 C 288.960938 195.605469 288.382812 191.414062 288.382812 191.414062 C 287.585938 196.472656 285.5625 200.230469 285.5625 200.230469 C 283.464844 204.351562 287.441406 211.941406 287.441406 211.941406 C 288.019531 213.386719 288.527344 215.414062 288.960938 216.859375 C 286.285156 220.398438 283.320312 223.726562 280.210938 226.832031 C 280.863281 224.664062 281.804688 222.570312 281.804688 222.570312 C 284.476562 217.796875 283.464844 212.449219 283.464844 212.449219 C 281.949219 207.675781 282.019531 203.414062 282.019531 203.414062 C 280.429688 208.328125 277.828125 211.652344 277.828125 211.652344 C 275.078125 215.414062 277.828125 223.507812 277.828125 223.507812 C 278.1875 225.027344 278.332031 227.121094 278.550781 228.714844 C 275.367188 231.75 271.898438 234.496094 268.285156 237.027344 C 269.296875 234.929688 270.523438 233.050781 270.523438 233.050781 C 273.996094 228.785156 273.851562 223.292969 273.851562 223.292969 C 273.128906 218.304688 273.851562 214.109375 273.851562 214.109375 C 271.535156 218.664062 268.355469 221.554688 268.355469 221.554688 C 265.03125 224.808594 266.402344 233.195312 266.402344 233.195312 C 266.476562 234.714844 266.332031 236.808594 266.332031 238.328125 C 262.644531 240.855469 258.8125 243.171875 254.765625 245.121094 C 256.136719 243.171875 257.65625 241.4375 257.65625 241.4375 C 261.703125 237.820312 262.5 232.398438 262.5 232.398438 C 262.570312 227.410156 264.019531 223.363281 264.019531 223.363281 C 260.980469 227.484375 257.367188 229.796875 257.367188 229.796875 C 253.609375 232.472656 253.535156 241.003906 253.535156 241.003906 C 253.390625 242.519531 252.882812 244.542969 252.59375 246.0625 C 248.546875 247.941406 244.425781 249.53125 240.160156 250.761719 C 241.824219 249.097656 243.628906 247.652344 243.628906 247.652344 C 248.257812 244.6875 249.847656 239.484375 249.847656 239.484375 C 250.714844 234.570312 252.8125 230.808594 252.8125 230.808594 C 249.125 234.421875 245.222656 236.085938 245.222656 236.085938 C 241.101562 238.109375 239.652344 246.496094 239.652344 246.496094 C 239.21875 248.015625 238.351562 250.039062 237.847656 251.484375 C 233.652344 252.640625 229.242188 253.433594 224.832031 254.015625 C 226.714844 252.640625 228.738281 251.554688 228.738281 251.554688 C 233.796875 249.386719 236.183594 244.472656 236.183594 244.472656 C 237.847656 239.773438 240.523438 236.375 240.523438 236.375 C 236.328125 239.339844 232.136719 240.351562 232.136719 240.351562 C 227.726562 241.652344 224.90625 249.75 224.90625 249.75 C 224.253906 251.121094 223.171875 252.929688 222.375 254.230469 C 221.582031 254.304688 220.640625 255.53125 220.929688 255.53125 C 221.21875 256.253906 222.085938 257.773438 224.183594 259.21875 C 224.183594 259.21875 232.28125 264.710938 236.691406 263.628906 C 236.691406 263.628906 241.171875 262.472656 245.65625 262.976562 C 245.65625 262.976562 241.894531 261.460938 238.351562 258.277344 C 238.351562 258.277344 233.21875 255.460938 227.871094 256.183594 C 227.871094 256.183594 225.050781 256.183594 222.664062 255.675781 C 222.808594 255.53125 222.953125 255.386719 223.097656 255.242188 C 227.726562 254.738281 232.207031 253.941406 236.617188 252.855469 C 237.050781 253.507812 238.136719 254.808594 240.449219 255.964844 C 240.449219 255.964844 249.34375 260.085938 253.535156 258.277344 C 253.535156 258.277344 257.800781 256.398438 262.28125 256.183594 C 262.28125 256.183594 258.308594 255.316406 254.332031 252.785156 C 254.332031 252.785156 248.761719 250.832031 243.628906 252.351562 C 243.628906 252.351562 240.8125 252.855469 238.425781 252.710938 C 238.496094 252.566406 238.640625 252.496094 238.714844 252.351562 C 243.195312 251.121094 247.460938 249.460938 251.65625 247.582031 C 252.160156 248.160156 253.460938 249.316406 255.992188 250.039062 C 255.992188 250.039062 265.390625 252.640625 269.296875 250.183594 C 269.296875 250.183594 273.199219 247.652344 277.539062 246.710938 C 277.539062 246.710938 273.488281 246.496094 269.078125 244.617188 C 269.078125 244.617188 263.296875 243.605469 258.453125 245.917969 C 258.453125 245.917969 255.847656 246.855469 253.460938 247.144531 C 253.535156 247 253.609375 246.785156 253.679688 246.640625 C 257.800781 244.6875 261.847656 242.449219 265.609375 239.988281 C 266.257812 240.496094 267.707031 241.363281 270.234375 241.726562 C 270.234375 241.726562 279.921875 242.738281 283.394531 239.699219 C 283.394531 239.699219 286.863281 236.59375 290.984375 234.929688 C 290.984375 234.929688 286.9375 235.363281 282.308594 234.207031 C 282.308594 234.207031 276.453125 234.132812 272.042969 237.242188 C 272.042969 237.242188 269.585938 238.617188 267.199219 239.265625 C 267.199219 239.050781 267.34375 238.832031 267.417969 238.6875 C 271.175781 236.085938 274.789062 233.339844 278.1875 230.230469 C 278.910156 230.59375 280.5 231.242188 283.03125 231.171875 C 283.03125 231.171875 292.792969 230.59375 295.683594 227.050781 C 295.683594 227.050781 298.574219 223.4375 302.40625 221.121094 C 302.40625 221.121094 298.503906 222.207031 293.730469 221.847656 C 293.730469 221.847656 287.949219 222.714844 284.117188 226.472656 C 284.117188 226.472656 281.875 228.207031 279.707031 229.21875 C 279.707031 229.074219 279.707031 228.859375 279.777344 228.640625 C 283.105469 225.460938 286.140625 222.0625 288.960938 218.449219 C 289.683594 218.664062 291.417969 219.097656 293.949219 218.664062 C 293.949219 218.664062 303.492188 216.570312 305.734375 212.59375 C 305.734375 212.59375 307.972656 208.542969 311.445312 205.652344 C 311.445312 205.652344 307.757812 207.386719 302.984375 207.75 C 302.984375 207.75 297.417969 209.558594 294.238281 213.894531 C 294.238281 213.894531 292.285156 215.992188 290.335938 217.363281 C 290.335938 217.148438 290.335938 216.929688 290.335938 216.785156 C 293.082031 213.171875 295.539062 209.269531 297.78125 205.292969 C 298.574219 205.4375 300.3125 205.582031 302.695312 204.640625 C 302.695312 204.640625 311.734375 201.027344 313.324219 196.691406 C 313.324219 196.691406 314.914062 192.351562 317.808594 188.953125 C 317.808594 188.953125 314.410156 191.195312 309.855469 192.425781 C 309.855469 192.425781 304.648438 195.097656 302.191406 199.871094 C 302.191406 199.871094 300.601562 202.183594 298.863281 203.917969 C 298.863281 203.703125 298.863281 203.484375 298.792969 203.269531 C 300.890625 199.21875 302.839844 195.097656 304.359375 190.761719 C 305.15625 190.761719 306.816406 190.546875 309.058594 189.316406 C 309.058594 189.316406 317.445312 184.257812 318.3125 179.773438 C 318.3125 179.773438 319.179688 175.21875 321.492188 171.390625 C 321.492188 171.390625 318.53125 174.207031 314.191406 176.085938 C 314.191406 176.085938 309.492188 179.558594 307.902344 184.691406 Z M 308.046875 184.90625 " fill-opacity="1" fill-rule="nonzero"/><path fill="#af8b45" d="M 67.300781 184.90625 C 67.300781 184.90625 68.457031 187.507812 69.902344 189.386719 C 69.902344 189.242188 69.972656 189.027344 70.046875 188.882812 C 68.601562 184.546875 67.515625 180.0625 66.648438 175.507812 C 65.851562 175.363281 64.191406 174.929688 62.167969 173.339844 C 62.167969 173.339844 54.71875 166.980469 54.574219 162.425781 C 54.574219 162.425781 54.503906 157.796875 52.769531 153.605469 C 52.769531 153.605469 55.226562 156.859375 59.203125 159.390625 C 59.203125 159.390625 63.324219 163.582031 64.046875 168.929688 C 64.046875 168.929688 64.769531 171.679688 65.925781 173.847656 C 66 173.703125 66.070312 173.558594 66.144531 173.414062 C 65.417969 168.929688 65.058594 164.378906 64.984375 159.679688 C 64.261719 159.460938 62.671875 158.738281 60.9375 156.859375 C 60.9375 156.859375 54.648438 149.414062 55.226562 144.859375 C 55.226562 144.859375 55.875 140.234375 54.863281 135.894531 C 54.863281 135.894531 56.746094 139.511719 60.285156 142.691406 C 60.285156 142.691406 63.613281 147.535156 63.539062 152.882812 C 63.539062 152.882812 63.828125 155.703125 64.550781 158.015625 C 64.695312 157.871094 64.769531 157.652344 64.914062 157.507812 C 64.914062 155.628906 64.914062 153.824219 64.914062 151.945312 C 65.058594 149.195312 65.417969 146.523438 65.78125 143.847656 C 65.058594 143.484375 63.683594 142.546875 62.3125 140.378906 C 62.3125 140.378906 57.324219 131.992188 58.625 127.65625 C 58.625 127.65625 59.996094 123.246094 59.78125 118.761719 C 59.78125 118.761719 61.082031 122.59375 64.046875 126.355469 C 64.046875 126.355469 66.578125 131.628906 65.5625 136.90625 C 65.5625 136.90625 65.417969 139.726562 65.78125 142.113281 C 65.925781 141.96875 66.070312 141.824219 66.214844 141.75 C 67.011719 137.195312 68.09375 132.714844 69.46875 128.378906 C 68.816406 127.871094 67.589844 126.714844 66.578125 124.402344 C 66.578125 124.402344 62.960938 115.292969 64.984375 111.246094 C 64.984375 111.246094 67.082031 107.125 67.515625 102.644531 C 67.515625 102.644531 68.167969 106.691406 70.480469 110.8125 C 70.480469 110.8125 72.144531 116.449219 70.261719 121.511719 C 70.261719 121.511719 69.613281 124.257812 69.613281 126.714844 C 69.757812 126.644531 69.972656 126.5 70.117188 126.355469 C 71.636719 122.015625 73.371094 117.824219 75.46875 113.777344 C 74.960938 113.269531 73.804688 111.824219 73.226562 109.292969 C 73.226562 109.292969 71.132812 99.75 73.804688 96.066406 C 73.804688 96.066406 76.554688 92.304688 77.710938 87.96875 C 77.710938 87.96875 77.710938 92.015625 79.300781 96.5 C 79.300781 96.5 80.023438 102.355469 77.421875 106.980469 C 77.421875 106.980469 76.335938 109.511719 75.976562 111.894531 C 76.191406 111.824219 76.410156 111.75 76.625 111.605469 C 78.792969 107.632812 81.179688 103.800781 83.855469 100.183594 C 83.421875 99.605469 82.554688 98.015625 82.335938 95.414062 C 82.335938 95.414062 81.832031 85.65625 85.085938 82.402344 C 85.085938 82.402344 88.410156 79.148438 90.21875 75.101562 C 90.21875 75.101562 89.566406 79.148438 90.433594 83.777344 C 90.433594 83.777344 90.21875 89.632812 86.820312 93.824219 C 86.820312 93.824219 85.375 96.210938 84.578125 98.523438 C 84.796875 98.523438 85.011719 98.378906 85.230469 98.304688 C 87.976562 94.691406 91.011719 91.292969 94.265625 88.113281 C 93.976562 87.460938 93.324219 85.800781 93.542969 83.125 C 93.542969 83.125 94.628906 73.4375 98.316406 70.765625 C 98.316406 70.765625 102.074219 68.089844 104.605469 64.402344 C 104.605469 64.402344 103.304688 68.234375 103.449219 73.003906 C 103.449219 73.003906 102.289062 78.789062 98.316406 82.332031 C 98.316406 82.332031 96.433594 84.5 95.351562 86.59375 C 95.566406 86.59375 95.785156 86.59375 95.929688 86.523438 C 99.253906 83.414062 102.796875 80.449219 106.554688 77.847656 C 106.339844 77.054688 106.050781 75.390625 106.699219 72.933594 C 106.699219 72.933594 109.304688 63.535156 113.425781 61.511719 C 113.425781 61.511719 117.617188 59.488281 120.652344 56.234375 C 120.652344 56.234375 118.773438 59.847656 118.125 64.546875 C 118.125 64.546875 116.027344 70.042969 111.542969 72.933594 C 111.542969 72.933594 109.375 74.738281 107.929688 76.691406 C 108.148438 76.691406 108.292969 76.691406 108.507812 76.691406 C 111.691406 74.523438 115.085938 72.5 118.558594 70.765625 C 119.136719 69.824219 120.148438 68.597656 121.8125 67.292969 C 121.8125 67.292969 131.644531 60.136719 137.066406 61.292969 C 137.066406 61.292969 146.101562 62.308594 147.546875 62.164062 C 147.546875 62.164062 143.066406 64.113281 138.871094 68.015625 C 138.871094 68.015625 133.523438 72.570312 127.089844 71.847656 C 127.089844 71.847656 121.234375 71.054688 118.269531 72.210938 C 115.664062 73.582031 113.136719 75.101562 110.675781 76.691406 C 112.992188 76.546875 115.230469 76.042969 115.230469 76.042969 C 120.4375 74.449219 125.5 76.621094 125.5 76.621094 C 129.835938 79.148438 134.027344 80.015625 134.027344 80.015625 C 128.894531 80.523438 125.0625 82.332031 125.0625 82.332031 C 120.800781 84.210938 113.496094 79.871094 113.496094 79.871094 C 112.050781 79.222656 110.097656 78.570312 108.652344 78.066406 C 105.039062 80.59375 101.566406 83.34375 98.316406 86.304688 C 100.554688 85.800781 102.652344 85.003906 102.652344 85.003906 C 107.570312 82.546875 112.847656 83.921875 112.847656 83.921875 C 117.546875 85.726562 121.8125 85.871094 121.8125 85.871094 C 116.824219 87.171875 113.351562 89.632812 113.351562 89.632812 C 109.449219 92.160156 101.566406 89.054688 101.566406 89.054688 C 100.050781 88.621094 98.027344 88.332031 96.507812 88.042969 C 93.324219 91.078125 90.363281 94.402344 87.613281 97.800781 C 89.710938 96.933594 91.664062 95.777344 91.664062 95.777344 C 96.074219 92.59375 101.566406 93.027344 101.566406 93.027344 C 106.484375 94.042969 110.75 93.460938 110.75 93.460938 C 106.050781 95.558594 103.015625 98.523438 103.015625 98.523438 C 99.617188 101.632812 91.230469 99.824219 91.230469 99.824219 C 89.710938 99.679688 87.6875 99.679688 86.097656 99.679688 C 83.421875 103.222656 80.964844 106.910156 78.792969 110.738281 C 80.746094 109.511719 82.480469 108.136719 82.480469 108.136719 C 86.3125 104.234375 91.808594 103.800781 91.808594 103.800781 C 96.796875 104.015625 100.917969 102.789062 100.917969 102.789062 C 96.652344 105.605469 94.121094 109.078125 94.121094 109.078125 C 91.230469 112.691406 82.769531 112.257812 82.769531 112.257812 C 81.253906 112.328125 79.226562 112.691406 77.710938 112.90625 C 75.613281 116.8125 73.804688 120.859375 72.214844 125.050781 C 73.949219 123.535156 75.46875 121.800781 75.46875 121.800781 C 78.648438 117.316406 84 116.015625 84 116.015625 C 88.988281 115.367188 92.820312 113.558594 92.820312 113.558594 C 89.0625 117.027344 87.109375 120.859375 87.109375 120.859375 C 84.867188 124.90625 76.410156 125.847656 76.410156 125.847656 C 74.890625 126.210938 72.9375 126.859375 71.492188 127.292969 C 70.046875 131.484375 68.960938 135.824219 68.09375 140.234375 C 69.613281 138.425781 70.84375 136.472656 70.84375 136.472656 C 73.226562 131.558594 78.289062 129.390625 78.289062 129.390625 C 83.132812 127.945312 86.601562 125.484375 86.601562 125.484375 C 83.421875 129.535156 82.121094 133.582031 82.121094 133.582031 C 80.53125 137.917969 72.359375 140.234375 72.359375 140.234375 C 70.914062 140.8125 69.035156 141.824219 67.660156 142.546875 C 67.15625 145.65625 66.722656 148.835938 66.503906 152.015625 C 66.433594 153.246094 66.503906 154.472656 66.503906 155.773438 C 67.660156 153.75 68.527344 151.65625 68.527344 151.65625 C 70.117188 146.449219 74.746094 143.484375 74.746094 143.484375 C 79.300781 141.316406 82.335938 138.28125 82.335938 138.28125 C 79.878906 142.761719 79.226562 147.027344 79.226562 147.027344 C 78.359375 151.582031 70.699219 155.195312 70.699219 155.195312 C 69.394531 155.992188 67.734375 157.292969 66.503906 158.160156 C 66.503906 162.714844 66.722656 167.269531 67.371094 171.679688 C 68.238281 169.4375 68.816406 167.050781 68.816406 167.050781 C 69.539062 161.628906 73.589844 157.945312 73.589844 157.945312 C 77.710938 155.050781 80.242188 151.582031 80.242188 151.582031 C 78.503906 156.425781 78.578125 160.691406 78.578125 160.691406 C 78.503906 165.316406 71.492188 170.160156 71.492188 170.160156 C 70.335938 171.171875 68.890625 172.761719 67.804688 173.847656 C 68.527344 178.257812 69.613281 182.59375 70.914062 186.785156 C 71.347656 184.472656 71.566406 182.230469 71.566406 182.230469 C 71.421875 176.738281 74.816406 172.472656 74.816406 172.472656 C 78.433594 168.929688 80.3125 165.171875 80.3125 165.171875 C 79.445312 170.230469 80.167969 174.425781 80.167969 174.425781 C 80.820312 178.980469 74.671875 184.90625 74.671875 184.90625 C 73.660156 186.136719 72.503906 187.871094 71.566406 189.171875 C 73.011719 193.363281 74.746094 197.414062 76.769531 201.386719 C 76.84375 199.074219 76.625 196.835938 76.625 196.835938 C 75.613281 191.484375 78.289062 186.714844 78.289062 186.714844 C 81.253906 182.664062 82.554688 178.617188 82.554688 178.617188 C 82.554688 183.75 83.925781 187.796875 83.925781 187.796875 C 85.300781 192.207031 80.242188 199.003906 80.242188 199.003906 C 79.445312 200.304688 78.648438 202.183594 77.925781 203.558594 C 80.023438 207.53125 82.335938 211.363281 84.941406 214.976562 C 84.652344 212.664062 84.070312 210.351562 84.070312 210.351562 C 82.191406 205.21875 84.070312 200.085938 84.070312 200.085938 C 86.386719 195.605469 86.964844 191.414062 86.964844 191.414062 C 87.757812 196.472656 89.785156 200.230469 89.785156 200.230469 C 91.878906 204.351562 87.902344 211.941406 87.902344 211.941406 C 87.324219 213.386719 86.820312 215.414062 86.386719 216.859375 C 89.0625 220.398438 92.023438 223.726562 95.132812 226.832031 C 94.484375 224.664062 93.542969 222.570312 93.542969 222.570312 C 90.867188 217.796875 91.878906 212.449219 91.878906 212.449219 C 93.398438 207.675781 93.328125 203.414062 93.328125 203.414062 C 94.917969 208.328125 97.519531 211.652344 97.519531 211.652344 C 100.265625 215.414062 97.519531 223.507812 97.519531 223.507812 C 97.15625 225.027344 97.011719 227.121094 96.796875 228.714844 C 99.976562 231.75 103.449219 234.496094 107.0625 237.027344 C 106.050781 234.929688 104.820312 233.050781 104.820312 233.050781 C 101.351562 228.785156 101.496094 223.292969 101.496094 223.292969 C 102.21875 218.304688 101.496094 214.109375 101.496094 214.109375 C 103.808594 218.664062 106.988281 221.554688 106.988281 221.554688 C 110.316406 224.808594 108.941406 233.195312 108.941406 233.195312 C 108.871094 234.714844 109.015625 236.808594 109.015625 238.328125 C 112.703125 240.855469 116.535156 243.171875 120.582031 245.121094 C 119.207031 243.171875 117.691406 241.4375 117.691406 241.4375 C 113.640625 237.820312 112.847656 232.398438 112.847656 232.398438 C 112.773438 227.410156 111.328125 223.363281 111.328125 223.363281 C 114.363281 227.484375 117.980469 229.796875 117.980469 229.796875 C 121.738281 232.472656 121.8125 241.003906 121.8125 241.003906 C 121.957031 242.519531 122.460938 244.542969 122.75 246.0625 C 126.800781 247.941406 130.921875 249.53125 135.1875 250.761719 C 133.523438 249.097656 131.714844 247.652344 131.714844 247.652344 C 127.089844 244.6875 125.5 239.484375 125.5 239.484375 C 124.628906 234.570312 122.535156 230.808594 122.535156 230.808594 C 126.222656 234.421875 130.125 236.085938 130.125 236.085938 C 134.246094 238.109375 135.691406 246.496094 135.691406 246.496094 C 136.125 248.015625 136.992188 250.039062 137.5 251.484375 C 141.691406 252.640625 146.101562 253.433594 150.511719 254.015625 C 148.632812 252.640625 146.609375 251.554688 146.609375 251.554688 C 141.546875 249.386719 139.164062 244.472656 139.164062 244.472656 C 137.5 239.773438 134.824219 236.375 134.824219 236.375 C 139.015625 239.339844 143.210938 240.351562 143.210938 240.351562 C 147.621094 241.652344 150.441406 249.75 150.441406 249.75 C 151.089844 251.121094 152.175781 252.929688 152.972656 254.230469 C 153.765625 254.304688 154.707031 255.53125 154.417969 255.53125 C 154.128906 256.253906 153.261719 257.773438 151.164062 259.21875 C 151.164062 259.21875 143.066406 264.710938 138.65625 263.628906 C 138.65625 263.628906 134.171875 262.472656 129.691406 262.976562 C 129.691406 262.976562 133.449219 261.460938 136.992188 258.277344 C 136.992188 258.277344 142.125 255.460938 147.476562 256.183594 C 147.476562 256.183594 150.296875 256.183594 152.679688 255.675781 C 152.535156 255.53125 152.390625 255.386719 152.246094 255.242188 C 147.621094 254.738281 143.136719 253.941406 138.726562 252.855469 C 138.292969 253.507812 137.210938 254.808594 134.898438 255.964844 C 134.898438 255.964844 126.003906 260.085938 121.8125 258.277344 C 121.8125 258.277344 117.546875 256.398438 113.0625 256.183594 C 113.0625 256.183594 117.039062 255.316406 121.015625 252.785156 C 121.015625 252.785156 126.582031 250.832031 131.714844 252.351562 C 131.714844 252.351562 134.535156 252.855469 136.921875 252.710938 C 136.847656 252.566406 136.703125 252.496094 136.632812 252.351562 C 132.148438 251.121094 127.882812 249.460938 123.691406 247.582031 C 123.183594 248.160156 121.882812 249.316406 119.351562 250.039062 C 119.351562 250.039062 109.953125 252.640625 106.050781 250.183594 C 106.050781 250.183594 102.144531 247.652344 97.808594 246.710938 C 97.808594 246.710938 101.855469 246.496094 106.265625 244.617188 C 106.265625 244.617188 112.050781 243.605469 116.894531 245.917969 C 116.894531 245.917969 119.496094 246.855469 121.882812 247.144531 C 121.8125 247 121.738281 246.785156 121.667969 246.640625 C 117.546875 244.6875 113.496094 242.449219 109.738281 239.988281 C 109.085938 240.496094 107.640625 241.363281 105.109375 241.726562 C 105.109375 241.726562 95.421875 242.738281 91.953125 239.699219 C 91.953125 239.699219 88.480469 236.59375 84.363281 234.929688 C 84.363281 234.929688 88.410156 235.363281 93.035156 234.207031 C 93.035156 234.207031 98.894531 234.132812 103.304688 237.242188 C 103.304688 237.242188 105.761719 238.617188 108.148438 239.265625 C 108.148438 239.050781 108.003906 238.832031 107.929688 238.6875 C 104.171875 236.085938 100.554688 233.339844 97.15625 230.230469 C 96.433594 230.59375 94.84375 231.242188 92.3125 231.171875 C 92.3125 231.171875 82.554688 230.59375 79.664062 227.050781 C 79.664062 227.050781 76.769531 223.4375 72.9375 221.121094 C 72.9375 221.121094 76.84375 222.207031 81.613281 221.847656 C 81.613281 221.847656 87.398438 222.714844 91.230469 226.472656 C 91.230469 226.472656 93.472656 228.207031 95.640625 229.21875 C 95.640625 229.074219 95.640625 228.859375 95.566406 228.640625 C 92.242188 225.460938 89.207031 222.0625 86.386719 218.449219 C 85.664062 218.664062 83.925781 219.097656 81.398438 218.664062 C 81.398438 218.664062 71.855469 216.570312 69.613281 212.59375 C 69.613281 212.59375 67.371094 208.542969 63.902344 205.652344 C 63.902344 205.652344 67.589844 207.386719 72.359375 207.75 C 72.359375 207.75 77.925781 209.558594 81.109375 213.894531 C 81.109375 213.894531 83.058594 215.992188 85.011719 217.363281 C 85.011719 217.148438 85.011719 216.929688 85.011719 216.785156 C 82.265625 213.171875 79.808594 209.269531 77.566406 205.292969 C 76.769531 205.4375 75.035156 205.582031 72.648438 204.640625 C 72.648438 204.640625 63.613281 201.027344 62.023438 196.691406 C 62.023438 196.691406 60.429688 192.351562 57.539062 188.953125 C 57.539062 188.953125 60.9375 191.195312 65.492188 192.425781 C 65.492188 192.425781 70.699219 195.097656 73.15625 199.871094 C 73.15625 199.871094 74.746094 202.183594 76.480469 203.917969 C 76.480469 203.703125 76.480469 203.484375 76.554688 203.269531 C 74.457031 199.21875 72.503906 195.097656 70.988281 190.761719 C 70.191406 190.761719 68.527344 190.546875 66.289062 189.316406 C 66.289062 189.316406 57.902344 184.257812 57.035156 179.773438 C 57.035156 179.773438 56.164062 175.21875 53.851562 171.390625 C 53.851562 171.390625 56.816406 174.207031 61.152344 176.085938 C 61.152344 176.085938 65.851562 179.558594 67.445312 184.691406 Z M 67.300781 184.90625 " fill-opacity="1" fill-rule="nonzero"/><g clip-path="url(#d29ced7cad)"><path fill="#e5bf88" d="M 187.671875 37.511719 L 190.78125 46.332031 L 200.109375 46.546875 L 192.660156 52.1875 L 195.335938 61.148438 L 187.671875 55.800781 L 180.007812 61.148438 L 182.683594 52.1875 L 175.238281 46.546875 L 184.5625 46.332031 Z M 187.671875 37.511719 " fill-opacity="1" fill-rule="nonzero"/></g><path fill="#e5bf88" d="M 212.6875 46.910156 L 215 53.558594 L 222.015625 53.703125 L 216.445312 57.96875 L 218.472656 64.691406 L 212.6875 60.644531 L 206.902344 64.691406 L 208.929688 57.96875 L 203.363281 53.703125 L 210.375 53.558594 Z M 212.6875 46.910156 " fill-opacity="1" fill-rule="nonzero"/><path fill="#e5bf88" d="M 162.660156 46.910156 L 160.34375 53.558594 L 153.332031 53.703125 L 158.898438 57.96875 L 156.875 64.691406 L 162.660156 60.644531 L 168.441406 64.691406 L 166.417969 57.96875 L 171.984375 53.703125 L 164.972656 53.558594 Z M 162.660156 46.910156 " fill-opacity="1" fill-rule="nonzero"/></svg>