<svg xmlns="http://www.w3.org/2000/svg" xmlns:xlink="http://www.w3.org/1999/xlink" width="500" zoomAndPan="magnify" viewBox="0 0 375 374.999991" height="500" preserveAspectRatio="xMidYMid meet" version="1.0"><defs><clipPath id="786b0de954"><path d="M 44.601562 20 L 102.351562 20 L 102.351562 74.570312 L 44.601562 74.570312 Z M 44.601562 20 " clip-rule="nonzero"/></clipPath><clipPath id="b0169c63cf"><path d="M 44.601562 19.820312 L 102.351562 19.820312 L 102.351562 74.570312 L 44.601562 74.570312 Z M 44.601562 19.820312 " clip-rule="nonzero"/></clipPath><clipPath id="ea159a3e9a"><path d="M 44.601562 109.875 L 319.851562 109.875 L 319.851562 355.125 L 44.601562 355.125 Z M 44.601562 109.875 " clip-rule="nonzero"/></clipPath><clipPath id="0bfb06e9f7"><path d="M 121.210938 20 L 178.960938 20 L 178.960938 74.570312 L 121.210938 74.570312 Z M 121.210938 20 " clip-rule="nonzero"/></clipPath><clipPath id="9ca8e89ce0"><path d="M 121.210938 19.820312 L 178.960938 19.820312 L 178.960938 74.570312 L 121.210938 74.570312 Z M 121.210938 19.820312 " clip-rule="nonzero"/></clipPath><clipPath id="43b949c28e"><path d="M 197.027344 20 L 254.777344 20 L 254.777344 74.570312 L 197.027344 74.570312 Z M 197.027344 20 " clip-rule="nonzero"/></clipPath><clipPath id="6abd782728"><path d="M 197.027344 19.820312 L 254.777344 19.820312 L 254.777344 74.570312 L 197.027344 74.570312 Z M 197.027344 19.820312 " clip-rule="nonzero"/></clipPath><clipPath id="d73fdb72cf"><path d="M 272.84375 20 L 330.59375 20 L 330.59375 74.570312 L 272.84375 74.570312 Z M 272.84375 20 " clip-rule="nonzero"/></clipPath><clipPath id="80dfbc2e4a"><path d="M 272.84375 19.820312 L 330.59375 19.820312 L 330.59375 74.570312 L 272.84375 74.570312 Z M 272.84375 19.820312 " clip-rule="nonzero"/></clipPath></defs><g clip-path="url(#786b0de954)"><path fill="#ffbd59" d="M 73.449219 20.011719 L 82.316406 37.984375 L 102.152344 40.867188 L 87.796875 54.867188 L 91.195312 74.621094 L 73.449219 65.296875 L 55.695312 74.621094 L 59.082031 54.867188 L 44.738281 40.867188 L 64.574219 37.984375 Z M 73.449219 20.011719 " fill-opacity="1" fill-rule="nonzero"/></g><g clip-path="url(#b0169c63cf)"><path fill="#ffbd59" d="M 73.3125 19.839844 L 82.191406 37.8125 L 102.023438 40.695312 L 87.667969 54.695312 L 91.058594 74.449219 L 73.3125 65.125 L 55.570312 74.449219 L 58.957031 54.695312 L 44.601562 40.695312 L 64.433594 37.8125 Z M 73.3125 19.839844 " fill-opacity="1" fill-rule="nonzero"/><path fill="#ffbd59" d="M 73.3125 19.839844 L 82.191406 37.8125 L 102.023438 40.695312 L 87.667969 54.695312 L 91.058594 74.449219 L 73.3125 65.125 L 55.570312 74.449219 L 58.957031 54.695312 L 44.601562 40.695312 L 64.433594 37.8125 Z M 73.3125 19.839844 " fill-opacity="1" fill-rule="nonzero"/><path fill="#ffbd59" d="M 73.3125 19.839844 L 82.191406 37.8125 L 102.023438 40.695312 L 87.667969 54.695312 L 91.058594 74.449219 L 73.3125 65.125 L 55.570312 74.449219 L 58.957031 54.695312 L 44.601562 40.695312 L 64.433594 37.8125 Z M 73.3125 19.839844 " fill-opacity="1" fill-rule="nonzero"/></g><g clip-path="url(#ea159a3e9a)"><path fill="#ffbd59" d="M 303.578125 248.0625 C 303.695312 247.683594 304.007812 247.40625 304.386719 247.339844 C 307.054688 246.902344 309.375 245.847656 311.355469 244.179688 C 312.929688 242.851562 314.402344 240.875 315.78125 238.25 C 318.210938 233.621094 319.550781 228.640625 319.796875 223.316406 C 319.820312 222.945312 319.683594 222.875 319.386719 223.105469 C 314.308594 227.144531 309.597656 231.65625 305.261719 236.632812 C 304.804688 237.148438 304.609375 237.066406 304.671875 236.382812 L 305.738281 224.433594 C 305.769531 224.085938 305.992188 223.785156 306.316406 223.640625 C 309.703125 222.203125 312.15625 219.996094 313.671875 217.03125 C 314.847656 214.730469 315.621094 211.6875 315.988281 207.898438 C 316.300781 204.664062 316.074219 201.402344 315.3125 198.109375 C 315.199219 197.609375 314.984375 197.5625 314.667969 197.960938 C 310.898438 202.765625 307.464844 207.832031 304.367188 213.167969 C 304.261719 213.339844 304.195312 213.328125 304.164062 213.128906 L 302.273438 202.316406 C 302.171875 201.738281 302.335938 201.152344 302.710938 200.738281 C 307.183594 195.78125 309.121094 190.121094 308.535156 183.761719 C 308.210938 180.304688 307.359375 176.824219 305.976562 173.316406 C 305.878906 173.066406 305.761719 173.058594 305.625 173.285156 C 302.574219 178.367188 300.027344 183.601562 297.984375 188.992188 C 297.878906 189.261719 297.765625 189.265625 297.644531 189.003906 L 293.304688 179.601562 C 293.007812 178.960938 293.015625 178.324219 293.320312 177.683594 C 295.527344 173.023438 296.359375 168.34375 295.8125 163.640625 C 295.273438 158.957031 293.621094 154.628906 290.859375 150.664062 C 290.570312 150.25 290.320312 150.273438 290.109375 150.730469 C 289.699219 151.636719 289.371094 152.707031 289.128906 153.945312 C 288.324219 158.128906 287.425781 162.488281 286.445312 167.011719 C 286.375 167.324219 286.238281 167.359375 286.035156 167.105469 L 279.238281 158.546875 C 278.804688 158 278.671875 157.414062 278.839844 156.78125 C 280.742188 149.519531 279.972656 142.503906 276.53125 135.734375 C 275.578125 133.859375 274.351562 132.183594 272.855469 130.707031 C 272.648438 130.5 272.507812 130.539062 272.4375 130.824219 C 271.144531 136.167969 270.476562 141.585938 270.425781 147.082031 C 270.425781 147.292969 270.351562 147.320312 270.203125 147.167969 L 262.328125 139.203125 C 261.804688 138.667969 261.59375 138.027344 261.703125 137.277344 C 261.964844 135.414062 261.703125 133.386719 260.910156 131.191406 C 258.316406 124.003906 254.011719 118.265625 247.992188 113.964844 C 247.21875 113.414062 246.855469 113.613281 246.898438 114.566406 C 247.167969 120.027344 248.277344 125.226562 250.230469 130.175781 C 250.390625 130.574219 250.296875 130.640625 249.957031 130.371094 C 246.816406 127.882812 243.644531 125.480469 240.441406 123.164062 C 236.511719 120.324219 233.160156 118.191406 230.382812 116.761719 C 224.246094 113.609375 217.726562 111.457031 210.824219 110.304688 C 209.597656 110.101562 208.359375 110.03125 207.101562 110.089844 C 206.855469 110.101562 206.820312 110.191406 207.003906 110.363281 C 210.253906 113.429688 213.648438 116.289062 217.195312 118.9375 C 221.898438 122.453125 225.332031 124.730469 227.496094 125.765625 C 231.179688 127.53125 235.378906 128.585938 240.089844 128.929688 C 241.007812 129 241.804688 129.304688 242.476562 129.839844 L 248.398438 134.585938 C 249.578125 135.53125 249.417969 135.898438 247.917969 135.683594 C 241.402344 134.753906 235.890625 136.355469 231.378906 140.484375 C 231.359375 140.503906 231.34375 140.527344 231.332031 140.550781 C 231.28125 140.65625 231.324219 140.78125 231.429688 140.832031 C 239.996094 145.097656 248.960938 145.6875 258.324219 142.605469 C 258.738281 142.46875 259.1875 142.566406 259.488281 142.859375 L 267.074219 150.3125 C 267.710938 150.9375 267.59375 151.128906 266.734375 150.894531 C 265.945312 150.675781 265.1875 150.476562 264.457031 150.300781 C 263.675781 150.105469 262.902344 150.007812 262.132812 150.007812 C 257.785156 150.007812 253.300781 150.585938 248.679688 151.742188 C 248.414062 151.808594 248.390625 151.925781 248.605469 152.089844 C 256.78125 158.1875 265.796875 161.121094 275.652344 160.898438 C 275.847656 160.898438 276.035156 160.976562 276.167969 161.121094 C 278.71875 163.949219 280.933594 167.023438 282.816406 170.34375 C 282.917969 170.519531 282.867188 170.574219 282.675781 170.496094 C 276.386719 168.128906 269.875 166.722656 263.140625 166.273438 C 262.765625 166.25 262.691406 166.386719 262.917969 166.683594 C 264.335938 168.542969 265.894531 170.328125 267.601562 172.042969 C 272.921875 177.425781 279.984375 180.507812 288.78125 181.292969 C 289.007812 181.3125 289.214844 181.445312 289.324219 181.648438 C 291.238281 185.113281 292.886719 188.601562 294.273438 192.109375 C 294.347656 192.296875 294.292969 192.335938 294.117188 192.230469 C 290.722656 190.140625 287.105469 188.574219 283.265625 187.527344 C 280.9375 186.898438 278.640625 186.285156 276.378906 185.691406 C 275.824219 185.539062 275.691406 185.714844 275.984375 186.210938 C 277.367188 188.539062 278.90625 190.75 280.597656 192.839844 C 282.589844 195.304688 284.511719 197.164062 286.359375 198.414062 C 289.550781 200.566406 293.292969 201.90625 297.585938 202.445312 C 298.019531 202.496094 298.363281 202.8125 298.433594 203.210938 L 300.210938 213.722656 C 300.273438 214.089844 300.160156 214.152344 299.871094 213.902344 C 295.402344 210.050781 290.34375 207.273438 284.695312 205.5625 C 284.667969 205.554688 284.640625 205.554688 284.609375 205.558594 C 284.5 205.574219 284.425781 205.675781 284.441406 205.78125 C 285.601562 213.71875 289.785156 219.382812 296.992188 222.769531 C 298.238281 223.355469 299.625 223.726562 301.152344 223.878906 C 301.328125 223.894531 301.457031 224.050781 301.445312 224.226562 L 300.738281 235.6875 C 300.695312 236.410156 300.460938 236.484375 300.039062 235.898438 C 296.957031 231.625 293.082031 227.902344 288.40625 224.730469 C 288.363281 224.699219 288.3125 224.679688 288.261719 224.679688 C 288.097656 224.664062 287.957031 224.789062 287.941406 224.953125 C 287.761719 227.226562 287.734375 229.59375 287.867188 232.058594 C 287.980469 234.257812 288.476562 236.207031 289.351562 237.90625 C 291.476562 242.019531 294.542969 244.992188 298.5625 246.820312 C 298.976562 247.007812 299.199219 247.460938 299.089844 247.902344 C 298.128906 251.800781 296.921875 255.589844 295.460938 259.269531 C 295.230469 259.855469 295.046875 259.839844 294.90625 259.230469 C 294.097656 255.730469 292.761719 252.285156 290.898438 248.894531 C 289.710938 246.722656 288.484375 245.046875 287.222656 243.871094 C 287.199219 243.851562 287.175781 243.835938 287.144531 243.828125 C 287.039062 243.792969 286.929688 243.855469 286.894531 243.964844 C 285.816406 247.230469 285.195312 250.589844 285.03125 254.035156 C 284.753906 259.769531 286.585938 264.6875 290.523438 268.78125 C 290.746094 269.019531 290.796875 269.359375 290.660156 269.625 L 285.59375 279.011719 C 285.441406 279.296875 285.339844 279.277344 285.292969 278.957031 C 284.394531 273.515625 282.636719 268.511719 280.011719 263.941406 C 279.667969 263.34375 279.363281 263.359375 279.089844 263.992188 C 277.496094 267.730469 276.515625 271.792969 276.140625 276.183594 C 275.800781 280.246094 276.652344 284.191406 278.699219 288.035156 C 279.109375 288.796875 279.054688 289.480469 278.539062 290.089844 L 271.289062 298.632812 C 271.128906 298.816406 271.050781 298.785156 271.050781 298.53125 C 271.113281 293.277344 270.414062 287.988281 268.953125 282.660156 C 268.945312 282.621094 268.921875 282.582031 268.890625 282.550781 C 268.789062 282.4375 268.621094 282.429688 268.515625 282.527344 C 267.464844 283.472656 266.652344 284.445312 266.070312 285.4375 C 264.179688 288.65625 262.730469 292.0625 261.722656 295.65625 C 260.78125 299.007812 260.71875 302.363281 261.539062 305.738281 C 261.582031 305.925781 261.527344 306.121094 261.386719 306.25 C 258.261719 309.15625 255.019531 311.761719 251.664062 314.0625 C 251.324219 314.292969 251.226562 314.21875 251.367188 313.832031 C 252.1875 311.578125 252.640625 309.394531 252.722656 307.28125 C 252.835938 304.121094 252.707031 300.972656 252.328125 297.84375 C 252.257812 297.296875 252.015625 297.203125 251.597656 297.554688 C 245.859375 302.378906 242.226562 308.476562 240.699219 315.847656 C 240.53125 316.644531 240.429688 317.667969 240.382812 318.917969 C 240.371094 319.207031 240.214844 319.464844 239.96875 319.597656 L 230.023438 325.074219 C 229.597656 325.3125 229.507812 325.21875 229.765625 324.796875 C 232.8125 319.804688 234.335938 314.390625 234.335938 308.550781 C 234.335938 308.527344 234.332031 308.503906 234.324219 308.480469 C 234.285156 308.351562 234.15625 308.277344 234.027344 308.316406 C 232.710938 308.6875 231.503906 309.289062 230.398438 310.117188 C 225.039062 314.136719 220.820312 319.277344 217.75 325.53125 C 217.613281 325.820312 217.371094 326.042969 217.078125 326.160156 C 206.6875 330.300781 196.089844 332.96875 185.300781 334.164062 C 183.078125 334.414062 180.859375 334.382812 178.644531 334.082031 C 168.011719 332.628906 157.695312 330.003906 147.699219 326.207031 C 147.03125 325.949219 146.527344 325.507812 146.191406 324.882812 C 143.78125 320.417969 140.8125 316.367188 137.28125 312.730469 C 135.425781 310.8125 133.226562 309.355469 130.6875 308.351562 C 130.597656 308.3125 130.496094 308.300781 130.398438 308.308594 C 130.058594 308.339844 129.808594 308.644531 129.839844 308.984375 C 130.367188 314.796875 131.976562 320.074219 134.660156 324.808594 C 134.890625 325.210938 134.816406 325.277344 134.445312 325 C 131.628906 322.914062 128.464844 321.003906 124.949219 319.273438 C 124.761719 319.175781 124.640625 318.988281 124.632812 318.785156 C 124.585938 317.285156 124.347656 315.839844 123.914062 314.441406 C 122.386719 309.5625 120.007812 305.148438 116.777344 301.191406 C 115.558594 299.703125 114.1875 298.464844 112.660156 297.484375 C 112.597656 297.441406 112.527344 297.417969 112.453125 297.414062 C 112.203125 297.394531 111.984375 297.578125 111.96875 297.828125 C 111.730469 300.917969 111.703125 303.902344 111.886719 306.792969 C 112.035156 309.160156 112.570312 311.433594 113.496094 313.625 C 113.761719 314.246094 113.628906 314.347656 113.105469 313.933594 L 103.65625 306.382812 C 103.519531 306.273438 103.460938 306.078125 103.515625 305.890625 C 104.148438 303.628906 104.378906 301.820312 104.203125 300.457031 C 103.367188 293.914062 100.828125 288.039062 96.59375 282.832031 C 96.039062 282.152344 95.667969 282.238281 95.472656 283.089844 C 94.316406 288.136719 93.804688 293.324219 93.949219 298.648438 C 93.957031 298.929688 93.863281 298.964844 93.6875 298.757812 L 85.507812 289.613281 C 85.265625 289.335938 85.230469 288.917969 85.425781 288.574219 C 88.0625 283.96875 88.9375 279.191406 88.046875 274.246094 C 87.683594 272.222656 87.160156 270.3125 86.472656 268.515625 C 85.757812 266.636719 84.78125 264.894531 83.539062 263.285156 C 83.519531 263.257812 83.496094 263.242188 83.46875 263.230469 C 83.371094 263.179688 83.257812 263.21875 83.210938 263.316406 C 80.960938 267.9375 79.445312 273.175781 78.667969 279.023438 C 78.597656 279.550781 78.4375 279.585938 78.191406 279.121094 L 73.074219 269.632812 C 72.988281 269.464844 73.011719 269.257812 73.136719 269.105469 C 75.015625 266.75 76.332031 264.960938 77.082031 263.734375 C 78.25 261.824219 78.933594 259.511719 79.132812 256.796875 C 79.445312 252.496094 78.855469 248.261719 77.367188 244.097656 C 77.195312 243.617188 76.953125 243.578125 76.644531 243.992188 C 73.160156 248.621094 70.636719 253.667969 69.078125 259.125 C 68.953125 259.5625 68.8125 259.566406 68.65625 259.136719 C 67.226562 255.25 66.058594 251.382812 65.160156 247.535156 C 65.066406 247.136719 65.257812 246.726562 65.625 246.539062 C 69.957031 244.363281 73.117188 241.40625 75.117188 237.675781 C 75.898438 236.203125 76.351562 234.640625 76.472656 232.976562 C 76.65625 230.398438 76.714844 227.675781 76.644531 224.800781 C 76.636719 224.480469 76.503906 224.414062 76.246094 224.601562 C 71.621094 227.9375 67.554688 231.921875 64.039062 236.558594 C 63.90625 236.734375 63.828125 236.714844 63.820312 236.496094 L 63.074219 224.300781 C 63.0625 224.050781 63.234375 223.828125 63.488281 223.769531 C 73.160156 221.386719 78.761719 215.386719 80.285156 205.765625 C 80.292969 205.734375 80.289062 205.707031 80.277344 205.679688 C 80.246094 205.578125 80.136719 205.523438 80.035156 205.554688 C 74.511719 207.273438 69.53125 209.859375 65.101562 213.304688 C 64.695312 213.621094 64.523438 213.523438 64.585938 213.011719 C 64.980469 209.574219 65.613281 206.175781 66.484375 202.820312 C 66.578125 202.445312 66.917969 202.179688 67.308594 202.171875 C 69.753906 202.121094 72.074219 201.519531 74.265625 200.371094 C 80.476562 197.105469 85.207031 192.347656 88.464844 186.105469 C 88.609375 185.824219 88.527344 185.714844 88.214844 185.777344 C 82.101562 186.941406 76.1875 189.078125 70.472656 192.175781 C 70 192.433594 69.855469 192.308594 70.039062 191.804688 C 71.234375 188.488281 72.753906 185.105469 74.589844 181.664062 C 74.699219 181.453125 74.910156 181.3125 75.152344 181.289062 C 83.691406 180.496094 90.542969 177.5 95.699219 172.296875 C 97.480469 170.503906 99.132812 168.59375 100.65625 166.566406 C 100.824219 166.339844 100.765625 166.238281 100.488281 166.261719 C 96.125 166.660156 91.808594 167.351562 87.535156 168.335938 C 85.683594 168.765625 83.914062 169.417969 82.222656 170.292969 C 81.507812 170.660156 81.347656 170.496094 81.742188 169.792969 C 83.4375 166.765625 85.507812 163.875 87.945312 161.121094 C 88.074219 160.976562 88.265625 160.890625 88.464844 160.898438 C 98.125 161.148438 106.730469 158.21875 114.273438 152.121094 C 114.757812 151.730469 114.695312 151.472656 114.089844 151.351562 C 112.820312 151.09375 111.464844 150.875 110.027344 150.6875 C 109.964844 150.679688 108.777344 150.496094 106.460938 150.132812 C 103.226562 149.621094 100.011719 149.800781 96.808594 150.664062 C 96.609375 150.71875 96.578125 150.667969 96.710938 150.523438 C 99.371094 147.539062 102.304688 144.851562 105.5 142.460938 C 105.664062 142.34375 105.867188 142.3125 106.046875 142.375 C 114.59375 145.28125 123.191406 144.746094 131.832031 140.773438 C 131.867188 140.757812 131.894531 140.738281 131.921875 140.714844 C 132.0625 140.585938 132.070312 140.371094 131.945312 140.230469 C 128.15625 136.175781 123.554688 134.527344 118.132812 135.285156 C 117.144531 135.425781 116.167969 135.445312 115.191406 135.347656 C 114.984375 135.324219 114.96875 135.25 115.136719 135.117188 C 117.785156 133.070312 120.511719 131.136719 123.316406 129.316406 C 124.121094 128.789062 125 128.480469 125.957031 128.386719 C 127.421875 128.238281 128.894531 128.121094 130.367188 128.03125 C 132.394531 127.914062 134.804688 127.074219 137.601562 125.511719 C 141.828125 123.160156 145.78125 120.410156 149.460938 117.265625 C 152.070312 115.027344 154.800781 112.710938 157.652344 110.3125 C 157.957031 110.0625 157.910156 109.933594 157.515625 109.929688 C 155.597656 109.917969 153.96875 110.039062 152.636719 110.292969 C 142.34375 112.289062 133.003906 116.394531 124.601562 122.609375 C 120.859375 125.382812 117.144531 128.195312 113.464844 131.050781 C 113.304688 131.179688 113.269531 131.152344 113.34375 130.964844 C 115.566406 125.765625 116.925781 120.113281 117.417969 114 C 117.457031 113.582031 117.296875 113.488281 116.941406 113.722656 C 110.464844 118.015625 105.804688 123.917969 102.96875 131.4375 C 102.3125 133.179688 102.144531 135.394531 102.46875 138.085938 C 102.492188 138.292969 102.425781 138.488281 102.289062 138.621094 L 93.871094 146.945312 C 93.621094 147.191406 93.503906 147.136719 93.511719 146.785156 C 93.617188 141.21875 93.085938 136.160156 91.914062 131.617188 C 91.722656 130.871094 91.390625 130.804688 90.925781 131.417969 C 85.445312 138.636719 83.601562 147.019531 85.390625 156.574219 C 85.511719 157.234375 85.347656 157.816406 84.914062 158.324219 C 82.605469 160.980469 80.332031 164.003906 78.089844 167.390625 C 77.816406 167.800781 77.640625 167.757812 77.554688 167.273438 L 74.691406 151.261719 C 74.53125 150.359375 74.183594 150.285156 73.644531 151.039062 C 68.023438 158.96875 67.078125 167.753906 70.804688 177.398438 C 71.160156 178.316406 71.128906 179.21875 70.71875 180.101562 L 66.464844 189.167969 C 66.300781 189.515625 66.15625 189.507812 66.027344 189.144531 C 64.148438 183.789062 61.601562 178.789062 58.378906 174.132812 C 58.261719 173.96875 58.164062 173.984375 58.089844 174.175781 C 56.96875 177.101562 56.296875 180.398438 56.078125 184.0625 C 55.695312 190.515625 57.503906 195.953125 61.515625 200.378906 C 62.089844 201.007812 62.304688 201.765625 62.152344 202.644531 L 60.53125 212.128906 C 60.410156 212.84375 60.164062 212.894531 59.78125 212.285156 C 56.683594 207.238281 53.230469 202.410156 49.425781 197.808594 C 49.289062 197.648438 49.199219 197.667969 49.160156 197.871094 C 47.753906 204.675781 48.570312 211.183594 51.605469 217.390625 C 53 220.230469 55.289062 222.257812 58.480469 223.476562 C 58.703125 223.558594 58.855469 223.773438 58.871094 224.023438 L 59.496094 236.664062 C 59.535156 237.417969 59.332031 237.496094 58.890625 236.886719 C 55.023438 231.539062 50.421875 226.84375 45.078125 222.800781 C 44.757812 222.558594 44.605469 222.636719 44.621094 223.039062 C 44.757812 228.289062 45.9375 233.160156 48.148438 237.65625 C 49.59375 240.59375 51.496094 242.988281 53.851562 244.832031 C 54.71875 245.503906 55.671875 246.027344 56.714844 246.402344 C 57.746094 246.777344 58.800781 247.058594 59.882812 247.246094 C 60.28125 247.320312 60.605469 247.601562 60.726562 247.984375 L 64.128906 259.207031 C 64.289062 259.71875 64.144531 259.820312 63.699219 259.507812 C 59.851562 256.808594 55.980469 254.242188 52.089844 251.820312 C 50.238281 250.660156 48.6875 249.847656 47.433594 249.375 C 47.238281 249.296875 47.15625 249.363281 47.195312 249.574219 C 48.714844 257.695312 52.804688 263.953125 59.453125 268.347656 C 60.957031 269.34375 62.40625 270.066406 63.796875 270.515625 C 65.375 271.027344 66.988281 271.304688 68.644531 271.351562 C 68.910156 271.363281 69.152344 271.511719 69.28125 271.742188 L 74.65625 281.429688 C 74.960938 281.980469 74.828125 282.121094 74.257812 281.851562 C 68.390625 279.089844 62.207031 276.652344 55.699219 274.535156 C 55.449219 274.453125 55.375 274.53125 55.480469 274.773438 C 57.222656 278.742188 59.574219 282.15625 62.535156 285.023438 C 67.429688 289.757812 73.558594 291.839844 80.921875 291.269531 C 81.195312 291.25 81.457031 291.355469 81.628906 291.550781 L 90.402344 301.550781 C 90.53125 301.699219 90.574219 301.871094 90.515625 301.960938 C 90.453125 302.042969 90.328125 302.046875 90.140625 301.972656 C 86.457031 300.441406 82.636719 299.410156 78.683594 298.878906 C 75.855469 298.496094 73.027344 298.117188 70.203125 297.75 C 69.996094 297.722656 69.949219 297.789062 70.066406 297.960938 C 71.9375 300.644531 74.332031 303.085938 77.246094 305.292969 C 81.480469 308.496094 86.128906 310.382812 91.199219 310.957031 C 94.214844 311.296875 97.085938 310.917969 99.824219 309.824219 C 100.128906 309.703125 100.46875 309.738281 100.742188 309.917969 C 104.234375 312.242188 107.570312 314.753906 110.757812 317.453125 C 111.558594 318.128906 111.453125 318.332031 110.441406 318.066406 C 108.808594 317.632812 107.148438 317.484375 105.464844 317.628906 C 101.300781 317.976562 96.917969 318.597656 92.300781 319.488281 C 92.019531 319.542969 91.988281 319.664062 92.207031 319.847656 C 94.835938 322.007812 97.628906 323.746094 100.585938 325.0625 C 103.851562 326.519531 107 327.273438 110.027344 327.328125 C 114.546875 327.410156 118.765625 326.097656 122.679688 323.390625 C 122.839844 323.28125 123.046875 323.261719 123.21875 323.339844 C 126.800781 324.992188 130.238281 326.816406 133.527344 328.820312 C 134.355469 329.324219 134.289062 329.621094 133.324219 329.710938 C 127.554688 330.25 122.078125 331.777344 116.898438 334.296875 C 116.4375 334.523438 116.4375 334.75 116.898438 334.972656 C 121.742188 337.296875 126.851562 338.5 132.230469 338.582031 C 137.632812 338.660156 142.1875 337.039062 145.898438 333.722656 C 146.292969 333.371094 146.839844 333.25 147.355469 333.402344 C 156.359375 336.074219 165.050781 338.191406 173.4375 339.746094 C 174.558594 339.957031 174.5625 340.183594 173.453125 340.425781 C 164.578125 342.378906 157.238281 347.003906 151.429688 354.300781 C 150.964844 354.886719 151.105469 355.132812 151.84375 355.035156 C 157.441406 354.34375 162.539062 352.917969 167.148438 350.757812 C 172.164062 348.398438 176.953125 345.578125 181.511719 342.285156 C 181.667969 342.175781 181.875 342.175781 182.03125 342.285156 C 189.734375 347.796875 198.164062 351.777344 207.324219 354.222656 C 208.53125 354.542969 209.855469 354.734375 211.296875 354.792969 C 211.75 354.808594 211.84375 354.632812 211.570312 354.273438 C 208.09375 349.636719 203.695312 345.933594 198.375 343.171875 C 196.113281 342 193.71875 341.15625 191.195312 340.644531 C 189.773438 340.363281 189.777344 340.101562 191.214844 339.871094 C 200.179688 338.433594 209.042969 336.175781 217.804688 333.097656 C 217.980469 333.035156 218.179688 333.082031 218.320312 333.214844 C 222.054688 336.90625 226.480469 338.730469 231.597656 338.683594 C 237.492188 338.632812 242.914062 337.226562 247.863281 334.457031 C 248.410156 334.152344 248.390625 333.871094 247.820312 333.621094 C 242.265625 331.148438 236.523438 329.796875 230.59375 329.566406 C 229.941406 329.535156 229.914062 329.382812 230.5 329.09375 L 242.09375 323.472656 C 242.378906 323.335938 242.714844 323.355469 242.96875 323.527344 C 246.273438 325.75 249.792969 326.976562 253.539062 327.207031 C 256.707031 327.402344 260.042969 326.746094 263.550781 325.230469 C 266.640625 323.902344 269.605469 322.109375 272.453125 319.851562 C 272.722656 319.636719 272.691406 319.488281 272.355469 319.398438 C 266.066406 317.753906 259.960938 317.203125 254.042969 317.757812 C 253.824219 317.78125 253.800781 317.726562 253.976562 317.597656 L 264.3125 309.914062 C 264.460938 309.804688 264.667969 309.769531 264.871094 309.820312 C 272.996094 311.917969 280.441406 310.457031 287.199219 305.441406 C 290.078125 303.308594 292.4375 300.855469 294.273438 298.078125 C 294.382812 297.90625 294.335938 297.832031 294.128906 297.851562 C 291.125 298.167969 288.128906 298.53125 285.140625 298.945312 C 281.625 299.425781 278.21875 300.339844 274.929688 301.6875 C 274.289062 301.953125 274.179688 301.808594 274.59375 301.253906 C 277 298.070312 279.808594 294.816406 283.027344 291.492188 C 283.257812 291.253906 283.574219 291.132812 283.902344 291.152344 C 289.683594 291.507812 294.730469 289.890625 299.039062 286.304688 C 302.738281 283.222656 305.605469 279.484375 307.636719 275.097656 C 307.820312 274.699219 307.710938 274.574219 307.300781 274.726562 L 289.898438 281.285156 C 289.511719 281.433594 289.417969 281.335938 289.625 280.988281 L 295.363281 271.410156 C 295.503906 271.179688 295.765625 271.042969 296.054688 271.042969 C 298.15625 271.050781 300.121094 270.601562 301.945312 269.695312 C 310.011719 265.660156 315.019531 259.066406 316.957031 249.914062 C 317.066406 249.414062 316.898438 249.289062 316.449219 249.542969 C 311.09375 252.640625 305.917969 255.90625 300.925781 259.332031 C 300.253906 259.789062 300.039062 259.625 300.277344 258.839844 Z M 303.578125 248.0625 " fill-opacity="1" fill-rule="nonzero"/></g><path fill="#ffbd59" d="M 185.765625 157.394531 C 186.238281 157.589844 186.6875 157.828125 187.113281 158.113281 C 187.539062 158.398438 187.933594 158.722656 188.292969 159.082031 C 188.65625 159.445312 188.980469 159.839844 189.261719 160.265625 C 189.546875 160.691406 189.789062 161.140625 189.984375 161.613281 C 190.179688 162.085938 190.328125 162.574219 190.425781 163.074219 C 190.527344 163.578125 190.578125 164.085938 190.578125 164.597656 C 190.578125 165.109375 190.527344 165.613281 190.425781 166.117188 C 190.328125 166.617188 190.179688 167.105469 189.984375 167.578125 C 189.789062 168.050781 189.546875 168.5 189.261719 168.925781 C 188.980469 169.351562 188.65625 169.746094 188.292969 170.109375 C 187.933594 170.46875 187.539062 170.792969 187.113281 171.078125 C 186.6875 171.363281 186.238281 171.601562 185.765625 171.796875 C 185.292969 171.996094 184.804688 172.140625 184.300781 172.242188 C 183.800781 172.34375 183.292969 172.390625 182.78125 172.390625 C 182.269531 172.390625 181.761719 172.34375 181.261719 172.242188 C 180.757812 172.140625 180.269531 171.996094 179.796875 171.796875 C 179.324219 171.601562 178.875 171.363281 178.449219 171.078125 C 178.023438 170.792969 177.628906 170.46875 177.269531 170.109375 C 176.90625 169.746094 176.582031 169.351562 176.300781 168.925781 C 176.015625 168.5 175.773438 168.050781 175.578125 167.578125 C 175.382812 167.105469 175.234375 166.617188 175.136719 166.117188 C 175.035156 165.613281 174.984375 165.109375 174.984375 164.597656 C 174.984375 164.085938 175.035156 163.578125 175.136719 163.074219 C 175.234375 162.574219 175.382812 162.085938 175.578125 161.613281 C 175.773438 161.140625 176.015625 160.691406 176.300781 160.265625 C 176.582031 159.839844 176.90625 159.445312 177.269531 159.082031 C 177.628906 158.722656 178.023438 158.398438 178.449219 158.113281 C 178.875 157.828125 179.324219 157.589844 179.796875 157.394531 C 180.269531 157.199219 180.757812 157.050781 181.261719 156.949219 C 181.761719 156.851562 182.269531 156.800781 182.78125 156.800781 C 183.292969 156.800781 183.800781 156.851562 184.300781 156.949219 C 184.804688 157.050781 185.292969 157.199219 185.765625 157.394531 Z M 185.765625 157.394531 " fill-opacity="1" fill-rule="nonzero"/><path fill="#ffbd59" d="M 264.789062 254.90625 C 264.609375 254.816406 264.476562 254.652344 264.425781 254.453125 C 263.070312 249.226562 261.5625 244.082031 259.902344 239.019531 C 255.421875 225.410156 250.84375 211.828125 246.167969 198.277344 C 245.785156 197.160156 245.453125 196.257812 245.171875 195.585938 C 246.609375 194.539062 247.546875 192.847656 247.546875 190.933594 C 247.546875 188.878906 246.46875 187.078125 244.847656 186.0625 C 245.125 185.996094 245.382812 185.921875 245.628906 185.847656 C 248.324219 185.367188 250.371094 183.015625 250.371094 180.183594 C 250.371094 178.132812 249.300781 176.339844 247.6875 175.316406 C 246.917969 174.769531 246.070312 174.472656 245.152344 174.429688 C 245.855469 175.25 246.320312 176.277344 246.429688 177.402344 C 246.769531 180.832031 243.914062 183.691406 240.480469 183.351562 C 240.222656 183.328125 239.976562 183.277344 239.730469 183.21875 C 239.738281 183.238281 239.75 183.253906 239.765625 183.273438 C 223.324219 180.417969 206.929688 177.722656 190.578125 175.191406 C 185.304688 174.375 180.140625 174.34375 175.089844 175.097656 C 159.785156 177.378906 143.496094 180.132812 126.234375 183.367188 C 126.242188 183.355469 126.25 183.34375 126.257812 183.328125 C 125.847656 183.382812 125.425781 183.390625 124.996094 183.347656 C 122.457031 183.097656 120.402344 181.042969 120.152344 178.507812 C 119.996094 176.945312 120.507812 175.503906 121.433594 174.421875 C 121.023438 174.421875 120.628906 174.46875 120.242188 174.550781 C 120.054688 174.585938 119.863281 174.625 119.671875 174.675781 C 118.496094 174.996094 117.570312 175.65625 116.890625 176.65625 C 116.136719 177.632812 115.683594 178.851562 115.683594 180.179688 C 115.683594 180.234375 115.691406 180.292969 115.691406 180.347656 C 115.632812 181.628906 115.988281 182.753906 116.773438 183.726562 C 117.570312 184.714844 118.597656 185.453125 119.839844 185.957031 C 118.128906 186.953125 116.972656 188.804688 116.972656 190.929688 C 116.972656 193.070312 118.140625 194.929688 119.867188 195.921875 C 118.382812 200.765625 116.769531 205.589844 115.027344 210.386719 C 111.496094 220.085938 108.082031 229.824219 104.777344 239.605469 C 102.5625 246.15625 101.039062 251.265625 100.203125 254.929688 C 100.164062 255.105469 100.011719 255.234375 99.824219 255.25 C 98.414062 255.363281 97.601562 256.09375 97.386719 257.441406 C 97.011719 259.785156 97.832031 261.394531 99.84375 262.261719 C 100.214844 262.425781 100.757812 262.519531 101.480469 262.542969 C 102.042969 262.566406 102.601562 262.636719 103.15625 262.753906 C 103.351562 262.792969 103.53125 262.894531 103.675781 263.046875 C 104.636719 264.050781 105.585938 265.070312 106.523438 266.105469 C 108.882812 268.707031 111.640625 270.519531 114.796875 271.539062 C 117.621094 272.453125 120.796875 272.8125 124.332031 272.625 C 131.1875 272.25 136.734375 269.117188 140.96875 263.234375 C 141.089844 263.070312 141.269531 262.96875 141.457031 262.960938 C 141.953125 262.9375 142.445312 262.9375 142.9375 262.960938 C 143.664062 262.988281 144.25 262.9375 144.691406 262.808594 C 147.554688 261.988281 148.644531 260.058594 147.964844 257.019531 C 147.859375 256.527344 147.683594 256.144531 147.445312 255.875 C 147.117188 255.503906 146.722656 255.296875 146.269531 255.257812 C 145.914062 255.226562 145.613281 254.972656 145.519531 254.625 C 144.113281 249.148438 142.601562 243.910156 140.988281 238.914062 C 136.390625 224.664062 131.535156 210.496094 126.425781 196.421875 C 126.339844 196.183594 126.214844 195.921875 126.046875 195.636719 C 127.523438 194.589844 128.488281 192.875 128.488281 190.933594 C 128.488281 188.894531 127.425781 187.105469 125.824219 186.082031 C 129.691406 185.574219 134.964844 184.800781 141.65625 183.765625 C 153.621094 181.917969 165.4375 180.042969 177.101562 178.144531 C 177.117188 178.140625 177.132812 178.136719 177.152344 178.136719 C 177.449219 178.121094 177.703125 178.347656 177.71875 178.644531 C 178.785156 201.753906 179.265625 224.871094 179.15625 247.996094 C 179.132812 252.558594 179.054688 256.683594 178.914062 260.371094 C 178.605469 268.417969 178.152344 274.96875 177.566406 280.035156 C 176.988281 285.007812 176.214844 289.546875 175.242188 293.652344 C 174.445312 297.03125 173.3125 300.367188 171.84375 303.664062 C 170.382812 306.945312 168.804688 309.617188 167.113281 311.675781 C 165.117188 314.097656 162.757812 316.171875 160.039062 317.898438 C 157.210938 319.695312 154.34375 321.425781 151.441406 323.105469 C 150.394531 323.707031 150.46875 324.113281 151.65625 324.316406 C 161.75 326.046875 171.566406 325.890625 181.109375 323.847656 C 182.023438 323.65625 182.945312 323.640625 183.871094 323.808594 C 193.5625 325.597656 202.96875 325.863281 212.089844 324.605469 C 213.585938 324.402344 213.734375 323.835938 212.535156 322.914062 C 211.515625 322.136719 210.273438 321.363281 208.800781 320.601562 C 204.0625 318.132812 200.191406 314.828125 197.183594 310.6875 C 195.1875 307.949219 193.410156 304.246094 191.851562 299.582031 C 190.070312 294.253906 188.867188 288.976562 188.25 283.742188 C 186.222656 266.554688 185.363281 248.550781 185.675781 229.726562 C 185.957031 212.644531 186.453125 195.570312 187.15625 178.5 C 187.15625 178.488281 187.15625 178.476562 187.15625 178.464844 C 187.179688 178.3125 187.320312 178.207031 187.46875 178.230469 L 238.644531 186.105469 C 237.074219 187.132812 236.035156 188.90625 236.035156 190.917969 C 236.035156 192.976562 237.117188 194.777344 238.742188 195.796875 C 238.714844 195.84375 238.6875 195.894531 238.671875 195.941406 C 235.320312 205.640625 231.929688 215.328125 228.496094 225.003906 C 225.410156 233.683594 222.546875 242.4375 219.902344 251.261719 C 219.597656 252.269531 219.351562 253.398438 219.15625 254.65625 C 219.125 254.851562 218.992188 255.011719 218.808594 255.082031 C 216.894531 255.800781 215.992188 256.988281 216.101562 258.644531 C 216.1875 259.941406 216.710938 261.003906 217.667969 261.824219 C 218.667969 262.691406 219.945312 262.984375 221.5 262.695312 C 222.105469 262.585938 222.722656 262.800781 223.128906 263.261719 C 224.253906 264.542969 225.394531 265.738281 226.550781 266.851562 C 227.910156 268.164062 229.21875 269.164062 230.476562 269.855469 C 233.597656 271.5625 237.164062 272.480469 241.183594 272.597656 C 249.464844 272.84375 255.855469 269.78125 260.351562 263.417969 C 260.460938 263.257812 260.640625 263.164062 260.832031 263.164062 C 262.40625 263.179688 263.820312 262.816406 265.058594 262.074219 C 266.40625 261.269531 267.167969 260.195312 267.351562 258.847656 C 267.574219 257.191406 266.722656 255.871094 264.789062 254.90625 Z M 147.230469 258.253906 C 147.234375 258.203125 147.238281 258.15625 147.242188 258.109375 C 147.238281 258.160156 147.234375 258.207031 147.230469 258.253906 C 147.226562 258.285156 147.222656 258.3125 147.214844 258.339844 C 147.222656 258.3125 147.226562 258.285156 147.230469 258.253906 Z M 147.113281 257.511719 C 147.078125 257.46875 147.039062 257.445312 146.996094 257.4375 C 147.039062 257.441406 147.078125 257.46875 147.113281 257.511719 Z M 146.8125 259 C 146.738281 258.992188 146.675781 258.921875 146.632812 258.816406 C 146.679688 258.921875 146.738281 258.992188 146.8125 259 Z M 121.335938 257.863281 C 121.335938 257.867188 121.335938 257.871094 121.335938 257.871094 C 121.335938 258.039062 121.199219 258.171875 121.039062 258.171875 L 105.714844 258.203125 C 105.308594 258.210938 104.960938 257.910156 104.898438 257.503906 C 104.714844 256.328125 104.253906 255.539062 103.515625 255.132812 C 103.460938 255.105469 103.261719 255.074219 102.917969 255.035156 L 101.710938 254.910156 C 101.695312 254.910156 101.683594 254.90625 101.667969 254.902344 C 101.523438 254.859375 101.445312 254.683594 101.492188 254.511719 C 104.148438 244.699219 107.234375 235.027344 110.746094 225.492188 C 114.058594 216.511719 117.246094 207.488281 120.3125 198.425781 C 120.542969 197.742188 120.859375 197.097656 121.261719 196.492188 C 121.4375 196.539062 121.617188 196.574219 121.796875 196.605469 C 121.796875 196.621094 121.796875 196.632812 121.796875 196.652344 C 121.277344 217 121.121094 237.40625 121.335938 257.863281 Z M 144.316406 254.394531 C 144.316406 254.394531 144.316406 254.398438 144.316406 254.402344 C 144.359375 254.5625 144.261719 254.726562 144.097656 254.769531 C 143.550781 254.90625 143 255.015625 142.445312 255.097656 C 141.136719 255.296875 140.457031 256.078125 140.414062 257.445312 C 140.398438 257.875 140.050781 258.214844 139.621094 258.214844 L 122.652344 258.175781 C 122.644531 258.175781 122.636719 258.175781 122.625 258.175781 C 122.464844 258.164062 122.351562 258.023438 122.363281 257.871094 C 122.398438 257.496094 122.445312 257.128906 122.507812 256.761719 C 122.578125 256.34375 122.609375 255.972656 122.609375 255.640625 C 122.695312 238.285156 122.859375 220.929688 123.101562 203.578125 C 123.136719 201.269531 123.21875 198.960938 123.351562 196.65625 C 123.875 196.597656 124.375 196.46875 124.84375 196.28125 C 124.957031 196.417969 125.046875 196.566406 125.109375 196.734375 C 132.410156 215.824219 138.808594 235.046875 144.316406 254.394531 Z M 241.78125 201.71875 C 241.621094 220.460938 241.585938 239.203125 241.679688 257.945312 C 241.679688 258.117188 241.539062 258.25 241.367188 258.25 L 224.492188 258.210938 C 224.15625 258.210938 223.878906 257.949219 223.871094 257.617188 C 223.84375 256.621094 223.390625 255.804688 222.511719 255.171875 C 222.417969 255.101562 222.226562 255.046875 221.945312 255.015625 L 220.761719 254.859375 C 220.761719 254.859375 220.757812 254.859375 220.753906 254.859375 C 220.597656 254.835938 220.492188 254.65625 220.523438 254.460938 C 220.980469 251.71875 221.726562 248.738281 222.757812 245.519531 C 228.25 228.378906 233.960938 212.164062 239.882812 196.871094 C 239.945312 196.699219 240.011719 196.558594 240.082031 196.433594 C 240.535156 196.570312 241.015625 196.652344 241.507812 196.675781 C 241.710938 197.25 241.804688 198.929688 241.78125 201.71875 Z M 261.261719 257.863281 C 261.269531 257.726562 261.300781 257.601562 261.34375 257.488281 C 261.300781 257.601562 261.269531 257.726562 261.261719 257.863281 C 261.242188 258.164062 261.328125 258.4375 261.46875 258.601562 C 261.324219 258.4375 261.242188 258.164062 261.261719 257.863281 Z M 261.777344 258.773438 C 261.792969 258.773438 261.804688 258.769531 261.820312 258.769531 C 261.804688 258.769531 261.792969 258.773438 261.777344 258.773438 Z M 261.980469 258.734375 C 262.171875 258.644531 262.328125 258.410156 262.386719 258.117188 C 262.328125 258.410156 262.171875 258.644531 261.980469 258.734375 Z M 261.894531 257.03125 C 262.042969 257.042969 262.171875 257.136719 262.265625 257.28125 C 262.171875 257.136719 262.042969 257.042969 261.894531 257.03125 Z M 262.847656 254.777344 C 260.613281 254.9375 259.417969 255.90625 259.261719 257.683594 C 259.234375 258.007812 258.964844 258.253906 258.636719 258.253906 L 243.300781 258.25 C 243.132812 258.25 243 258.109375 243 257.9375 L 243.191406 196.507812 C 243.46875 196.4375 243.742188 196.351562 244 196.246094 C 244.039062 196.308594 244.070312 196.378906 244.101562 196.460938 C 251.148438 215.542969 257.539062 234.78125 263.261719 254.175781 C 263.273438 254.207031 263.277344 254.242188 263.28125 254.277344 C 263.300781 254.53125 263.105469 254.753906 262.847656 254.777344 Z M 262.847656 254.777344 " fill-opacity="1" fill-rule="nonzero"/><g clip-path="url(#0bfb06e9f7)"><path fill="#ffbd59" d="M 150.058594 20.011719 L 158.925781 37.984375 L 178.761719 40.867188 L 164.40625 54.867188 L 167.804688 74.621094 L 150.058594 65.296875 L 132.304688 74.621094 L 135.691406 54.867188 L 121.347656 40.867188 L 141.183594 37.984375 Z M 150.058594 20.011719 " fill-opacity="1" fill-rule="nonzero"/></g><g clip-path="url(#9ca8e89ce0)"><path fill="#ffbd59" d="M 149.921875 19.839844 L 158.800781 37.8125 L 178.632812 40.695312 L 164.277344 54.695312 L 167.667969 74.449219 L 149.921875 65.125 L 132.179688 74.449219 L 135.566406 54.695312 L 121.210938 40.695312 L 141.042969 37.8125 Z M 149.921875 19.839844 " fill-opacity="1" fill-rule="nonzero"/><path fill="#ffbd59" d="M 149.921875 19.839844 L 158.800781 37.8125 L 178.632812 40.695312 L 164.277344 54.695312 L 167.667969 74.449219 L 149.921875 65.125 L 132.179688 74.449219 L 135.566406 54.695312 L 121.210938 40.695312 L 141.042969 37.8125 Z M 149.921875 19.839844 " fill-opacity="1" fill-rule="nonzero"/><path fill="#ffbd59" d="M 149.921875 19.839844 L 158.800781 37.8125 L 178.632812 40.695312 L 164.277344 54.695312 L 167.667969 74.449219 L 149.921875 65.125 L 132.179688 74.449219 L 135.566406 54.695312 L 121.210938 40.695312 L 141.042969 37.8125 Z M 149.921875 19.839844 " fill-opacity="1" fill-rule="nonzero"/></g><g clip-path="url(#43b949c28e)"><path fill="#ffbd59" d="M 225.875 20.011719 L 234.742188 37.984375 L 254.578125 40.867188 L 240.21875 54.867188 L 243.621094 74.621094 L 225.875 65.296875 L 208.121094 74.621094 L 211.507812 54.867188 L 197.164062 40.867188 L 217 37.984375 Z M 225.875 20.011719 " fill-opacity="1" fill-rule="nonzero"/></g><g clip-path="url(#6abd782728)"><path fill="#ffbd59" d="M 225.738281 19.839844 L 234.617188 37.8125 L 254.449219 40.695312 L 240.09375 54.695312 L 243.480469 74.449219 L 225.738281 65.125 L 207.992188 74.449219 L 211.382812 54.695312 L 197.027344 40.695312 L 216.859375 37.8125 Z M 225.738281 19.839844 " fill-opacity="1" fill-rule="nonzero"/><path fill="#ffbd59" d="M 225.738281 19.839844 L 234.617188 37.8125 L 254.449219 40.695312 L 240.09375 54.695312 L 243.480469 74.449219 L 225.738281 65.125 L 207.992188 74.449219 L 211.382812 54.695312 L 197.027344 40.695312 L 216.859375 37.8125 Z M 225.738281 19.839844 " fill-opacity="1" fill-rule="nonzero"/><path fill="#ffbd59" d="M 225.738281 19.839844 L 234.617188 37.8125 L 254.449219 40.695312 L 240.09375 54.695312 L 243.480469 74.449219 L 225.738281 65.125 L 207.992188 74.449219 L 211.382812 54.695312 L 197.027344 40.695312 L 216.859375 37.8125 Z M 225.738281 19.839844 " fill-opacity="1" fill-rule="nonzero"/></g><g clip-path="url(#d73fdb72cf)"><path fill="#ffbd59" d="M 301.691406 20.011719 L 310.558594 37.984375 L 330.394531 40.867188 L 316.035156 54.867188 L 319.4375 74.621094 L 301.691406 65.296875 L 283.9375 74.621094 L 287.324219 54.867188 L 272.980469 40.867188 L 292.8125 37.984375 Z M 301.691406 20.011719 " fill-opacity="1" fill-rule="nonzero"/></g><g clip-path="url(#80dfbc2e4a)"><path fill="#ffbd59" d="M 301.554688 19.839844 L 310.433594 37.8125 L 330.265625 40.695312 L 315.910156 54.695312 L 319.296875 74.449219 L 301.554688 65.125 L 283.808594 74.449219 L 287.199219 54.695312 L 272.84375 40.695312 L 292.675781 37.8125 Z M 301.554688 19.839844 " fill-opacity="1" fill-rule="nonzero"/><path fill="#ffbd59" d="M 301.554688 19.839844 L 310.433594 37.8125 L 330.265625 40.695312 L 315.910156 54.695312 L 319.296875 74.449219 L 301.554688 65.125 L 283.808594 74.449219 L 287.199219 54.695312 L 272.84375 40.695312 L 292.675781 37.8125 Z M 301.554688 19.839844 " fill-opacity="1" fill-rule="nonzero"/><path fill="#ffbd59" d="M 301.554688 19.839844 L 310.433594 37.8125 L 330.265625 40.695312 L 315.910156 54.695312 L 319.296875 74.449219 L 301.554688 65.125 L 283.808594 74.449219 L 287.199219 54.695312 L 272.84375 40.695312 L 292.675781 37.8125 Z M 301.554688 19.839844 " fill-opacity="1" fill-rule="nonzero"/></g></svg>