<svg xmlns="http://www.w3.org/2000/svg" xmlns:xlink="http://www.w3.org/1999/xlink" width="500" zoomAndPan="magnify" viewBox="0 0 375 374.999991" height="500" preserveAspectRatio="xMidYMid meet" version="1.0"><defs><clipPath id="3d38a9790d"><path d="M 28.367188 9.363281 L 92.117188 9.363281 L 92.117188 70.113281 L 28.367188 70.113281 Z M 28.367188 9.363281 " clip-rule="nonzero"/></clipPath><clipPath id="ff74e8e662"><path d="M 2.039062 86.054688 L 373 86.054688 L 373 365.804688 L 2.039062 365.804688 Z M 2.039062 86.054688 " clip-rule="nonzero"/></clipPath><clipPath id="cfb2a5fcb4"><path d="M 113.78125 9.363281 L 177.53125 9.363281 L 177.53125 70.113281 L 113.78125 70.113281 Z M 113.78125 9.363281 " clip-rule="nonzero"/></clipPath><clipPath id="6d1150d086"><path d="M 198.171875 9.363281 L 261.921875 9.363281 L 261.921875 70.113281 L 198.171875 70.113281 Z M 198.171875 9.363281 " clip-rule="nonzero"/></clipPath><clipPath id="d69145a287"><path d="M 282.566406 9.363281 L 346.316406 9.363281 L 346.316406 70.113281 L 282.566406 70.113281 Z M 282.566406 9.363281 " clip-rule="nonzero"/></clipPath></defs><g clip-path="url(#3d38a9790d)"><path fill="#a67120" d="M 60.484375 9.570312 L 70.351562 29.578125 L 92.433594 32.789062 L 76.453125 48.375 L 80.234375 70.363281 L 60.484375 59.984375 L 40.71875 70.363281 L 44.488281 48.375 L 28.519531 32.789062 L 50.601562 29.578125 Z M 60.484375 9.570312 " fill-opacity="1" fill-rule="nonzero"/><path fill="#a67120" d="M 60.328125 9.378906 L 70.210938 29.386719 L 92.292969 32.597656 L 76.3125 48.183594 L 80.082031 70.171875 L 60.328125 59.789062 L 40.578125 70.171875 L 44.347656 48.183594 L 28.367188 32.597656 L 50.445312 29.386719 Z M 60.328125 9.378906 " fill-opacity="1" fill-rule="nonzero"/><path fill="#a67120" d="M 60.328125 9.378906 L 70.210938 29.386719 L 92.292969 32.597656 L 76.3125 48.183594 L 80.082031 70.171875 L 60.328125 59.789062 L 40.578125 70.171875 L 44.347656 48.183594 L 28.367188 32.597656 L 50.445312 29.386719 Z M 60.328125 9.378906 " fill-opacity="1" fill-rule="nonzero"/><path fill="#a67120" d="M 60.328125 9.378906 L 70.210938 29.386719 L 92.292969 32.597656 L 76.3125 48.183594 L 80.082031 70.171875 L 60.328125 59.789062 L 40.578125 70.171875 L 44.347656 48.183594 L 28.367188 32.597656 L 50.445312 29.386719 Z M 60.328125 9.378906 " fill-opacity="1" fill-rule="nonzero"/></g><g clip-path="url(#ff74e8e662)"><path fill="#ffffff" d="M 312.25 137.234375 L 353.015625 265.316406 L 271.480469 265.316406 Z M 181.554688 108.945312 C 181.554688 105.648438 184.238281 102.964844 187.53125 102.964844 C 190.828125 102.964844 193.507812 105.648438 193.507812 108.945312 C 193.507812 112.238281 190.828125 114.917969 187.53125 114.917969 C 184.238281 114.917969 181.554688 112.238281 181.554688 108.945312 Z M 22.050781 265.316406 L 62.816406 137.234375 L 103.585938 265.316406 Z M 371.9375 268.191406 C 370.941406 266.417969 369.0625 265.316406 367.027344 265.316406 L 361.84375 265.316406 L 319.351562 131.8125 L 319.5 131.8125 C 324.160156 131.8125 327.941406 128.03125 327.941406 123.363281 C 327.941406 118.699219 324.160156 114.917969 319.5 114.917969 L 209.582031 114.917969 C 210.097656 113.011719 210.402344 111.011719 210.402344 108.945312 C 210.402344 96.332031 200.144531 86.074219 187.53125 86.074219 C 174.921875 86.074219 164.664062 96.332031 164.664062 108.945312 C 164.664062 111.011719 164.96875 113.011719 165.484375 114.917969 L 55.566406 114.917969 C 50.90625 114.917969 47.121094 118.699219 47.121094 123.363281 C 47.121094 128.03125 50.90625 131.8125 55.566406 131.8125 L 55.714844 131.8125 L 13.222656 265.316406 L 8.039062 265.316406 C 6.003906 265.316406 4.125 266.417969 3.125 268.191406 C 2.132812 269.96875 2.167969 272.140625 3.230469 273.878906 C 16.042969 294.894531 38.320312 307.441406 62.820312 307.441406 C 87.316406 307.441406 109.589844 294.894531 122.402344 273.878906 C 123.464844 272.140625 123.5 269.964844 122.503906 268.191406 C 121.507812 266.417969 119.628906 265.316406 117.59375 265.316406 L 112.410156 265.316406 L 69.917969 131.8125 L 179.089844 131.8125 L 179.089844 342.152344 L 118.714844 342.152344 C 115.605469 342.152344 113.085938 344.675781 113.085938 347.785156 L 113.085938 359.980469 C 113.085938 363.09375 115.605469 365.609375 118.714844 365.609375 L 256.351562 365.609375 C 259.460938 365.609375 261.984375 363.09375 261.984375 359.980469 L 261.984375 347.785156 C 261.984375 344.675781 259.460938 342.152344 256.351562 342.152344 L 195.976562 342.152344 L 195.976562 131.8125 L 305.148438 131.8125 L 262.652344 265.316406 L 257.46875 265.316406 C 255.433594 265.316406 253.554688 266.417969 252.558594 268.191406 C 251.566406 269.964844 251.601562 272.140625 252.660156 273.878906 C 265.472656 294.894531 287.746094 307.441406 312.25 307.441406 C 336.746094 307.441406 359.019531 294.894531 371.832031 273.878906 C 372.894531 272.140625 372.933594 269.96875 371.9375 268.191406 " fill-opacity="1" fill-rule="nonzero"/></g><g clip-path="url(#cfb2a5fcb4)"><path fill="#a67120" d="M 145.894531 9.570312 L 155.765625 29.578125 L 177.847656 32.789062 L 161.863281 48.375 L 165.648438 70.363281 L 145.894531 59.984375 L 126.128906 70.363281 L 129.902344 48.375 L 113.933594 32.789062 L 136.011719 29.578125 Z M 145.894531 9.570312 " fill-opacity="1" fill-rule="nonzero"/><path fill="#a67120" d="M 145.742188 9.378906 L 155.625 29.386719 L 177.707031 32.597656 L 161.722656 48.183594 L 165.496094 70.171875 L 145.742188 59.789062 L 125.988281 70.171875 L 129.761719 48.183594 L 113.78125 32.597656 L 135.859375 29.386719 Z M 145.742188 9.378906 " fill-opacity="1" fill-rule="nonzero"/><path fill="#a67120" d="M 145.742188 9.378906 L 155.625 29.386719 L 177.707031 32.597656 L 161.722656 48.183594 L 165.496094 70.171875 L 145.742188 59.789062 L 125.988281 70.171875 L 129.761719 48.183594 L 113.78125 32.597656 L 135.859375 29.386719 Z M 145.742188 9.378906 " fill-opacity="1" fill-rule="nonzero"/><path fill="#a67120" d="M 145.742188 9.378906 L 155.625 29.386719 L 177.707031 32.597656 L 161.722656 48.183594 L 165.496094 70.171875 L 145.742188 59.789062 L 125.988281 70.171875 L 129.761719 48.183594 L 113.78125 32.597656 L 135.859375 29.386719 Z M 145.742188 9.378906 " fill-opacity="1" fill-rule="nonzero"/></g><g clip-path="url(#6d1150d086)"><path fill="#a67120" d="M 230.289062 9.570312 L 240.160156 29.578125 L 262.238281 32.789062 L 246.257812 48.375 L 250.042969 70.363281 L 230.289062 59.984375 L 210.523438 70.363281 L 214.292969 48.375 L 198.324219 32.789062 L 220.40625 29.578125 Z M 230.289062 9.570312 " fill-opacity="1" fill-rule="nonzero"/><path fill="#a67120" d="M 230.136719 9.378906 L 240.019531 29.386719 L 262.097656 32.597656 L 246.117188 48.183594 L 249.886719 70.171875 L 230.136719 59.789062 L 210.382812 70.171875 L 214.152344 48.183594 L 198.171875 32.597656 L 220.253906 29.386719 Z M 230.136719 9.378906 " fill-opacity="1" fill-rule="nonzero"/><path fill="#a67120" d="M 230.136719 9.378906 L 240.019531 29.386719 L 262.097656 32.597656 L 246.117188 48.183594 L 249.886719 70.171875 L 230.136719 59.789062 L 210.382812 70.171875 L 214.152344 48.183594 L 198.171875 32.597656 L 220.253906 29.386719 Z M 230.136719 9.378906 " fill-opacity="1" fill-rule="nonzero"/><path fill="#a67120" d="M 230.136719 9.378906 L 240.019531 29.386719 L 262.097656 32.597656 L 246.117188 48.183594 L 249.886719 70.171875 L 230.136719 59.789062 L 210.382812 70.171875 L 214.152344 48.183594 L 198.171875 32.597656 L 220.253906 29.386719 Z M 230.136719 9.378906 " fill-opacity="1" fill-rule="nonzero"/></g><g clip-path="url(#d69145a287)"><path fill="#a67120" d="M 314.679688 9.570312 L 324.550781 29.578125 L 346.632812 32.789062 L 330.648438 48.375 L 334.433594 70.363281 L 314.679688 59.984375 L 294.914062 70.363281 L 298.6875 48.375 L 282.71875 32.789062 L 304.796875 29.578125 Z M 314.679688 9.570312 " fill-opacity="1" fill-rule="nonzero"/><path fill="#a67120" d="M 314.527344 9.378906 L 324.410156 29.386719 L 346.492188 32.597656 L 330.507812 48.183594 L 334.28125 70.171875 L 314.527344 59.789062 L 294.773438 70.171875 L 298.546875 48.183594 L 282.566406 32.597656 L 304.644531 29.386719 Z M 314.527344 9.378906 " fill-opacity="1" fill-rule="nonzero"/><path fill="#a67120" d="M 314.527344 9.378906 L 324.410156 29.386719 L 346.492188 32.597656 L 330.507812 48.183594 L 334.28125 70.171875 L 314.527344 59.789062 L 294.773438 70.171875 L 298.546875 48.183594 L 282.566406 32.597656 L 304.644531 29.386719 Z M 314.527344 9.378906 " fill-opacity="1" fill-rule="nonzero"/><path fill="#a67120" d="M 314.527344 9.378906 L 324.410156 29.386719 L 346.492188 32.597656 L 330.507812 48.183594 L 334.28125 70.171875 L 314.527344 59.789062 L 294.773438 70.171875 L 298.546875 48.183594 L 282.566406 32.597656 L 304.644531 29.386719 Z M 314.527344 9.378906 " fill-opacity="1" fill-rule="nonzero"/></g></svg>