<svg xmlns="http://www.w3.org/2000/svg" xmlns:xlink="http://www.w3.org/1999/xlink" width="500" zoomAndPan="magnify" viewBox="0 0 375 374.999991" height="500" preserveAspectRatio="xMidYMid meet" version="1.0"><defs><clipPath id="2265be7233"><path d="M 76.511719 10.242188 L 137.261719 10.242188 L 137.261719 68.742188 L 76.511719 68.742188 Z M 76.511719 10.242188 " clip-rule="nonzero"/></clipPath><clipPath id="5eec5e98e1"><path d="M 51.421875 92.605469 L 323.671875 92.605469 L 323.671875 364.855469 L 51.421875 364.855469 Z M 51.421875 92.605469 " clip-rule="nonzero"/></clipPath><clipPath id="798d58ac84"><path d="M 157.011719 10.242188 L 217.761719 10.242188 L 217.761719 68.742188 L 157.011719 68.742188 Z M 157.011719 10.242188 " clip-rule="nonzero"/></clipPath><clipPath id="bb42c3412d"><path d="M 237.433594 10.242188 L 298.183594 10.242188 L 298.183594 68.742188 L 237.433594 68.742188 Z M 237.433594 10.242188 " clip-rule="nonzero"/></clipPath></defs><g clip-path="url(#2265be7233)"><path fill="#ff3131" d="M 107.113281 10.445312 L 116.515625 29.507812 L 137.554688 32.566406 L 122.328125 47.417969 L 125.933594 68.367188 L 107.113281 58.476562 L 88.28125 68.367188 L 91.871094 47.417969 L 76.65625 32.566406 L 97.695312 29.507812 Z M 107.113281 10.445312 " fill-opacity="1" fill-rule="nonzero"/><path fill="#ff3131" d="M 106.964844 10.261719 L 116.382812 29.328125 L 137.421875 32.382812 L 122.195312 47.234375 L 125.785156 68.1875 L 106.964844 58.292969 L 88.144531 68.1875 L 91.738281 47.234375 L 76.511719 32.382812 L 97.550781 29.328125 Z M 106.964844 10.261719 " fill-opacity="1" fill-rule="nonzero"/><path fill="#ff3131" d="M 106.964844 10.261719 L 116.382812 29.328125 L 137.421875 32.382812 L 122.195312 47.234375 L 125.785156 68.1875 L 106.964844 58.292969 L 88.144531 68.1875 L 91.738281 47.234375 L 76.511719 32.382812 L 97.550781 29.328125 Z M 106.964844 10.261719 " fill-opacity="1" fill-rule="nonzero"/><path fill="#ff3131" d="M 106.964844 10.261719 L 116.382812 29.328125 L 137.421875 32.382812 L 122.195312 47.234375 L 125.785156 68.1875 L 106.964844 58.292969 L 88.144531 68.1875 L 91.738281 47.234375 L 76.511719 32.382812 L 97.550781 29.328125 Z M 106.964844 10.261719 " fill-opacity="1" fill-rule="nonzero"/></g><g clip-path="url(#5eec5e98e1)"><path fill="#ea4949" d="M 187.546875 92.605469 C 112.378906 92.605469 51.421875 153.5625 51.421875 228.730469 C 51.421875 303.898438 112.378906 364.855469 187.546875 364.855469 C 262.714844 364.855469 323.671875 303.898438 323.671875 228.730469 C 323.671875 153.5625 262.714844 92.605469 187.546875 92.605469 Z M 187.546875 92.605469 " fill-opacity="1" fill-rule="nonzero"/></g><path fill="#d8dbba" d="M 184.804688 179.128906 L 190.785156 179.128906 L 190.785156 290.457031 L 184.804688 290.457031 Z M 184.804688 179.128906 " fill-opacity="1" fill-rule="nonzero"/><path fill="#d8dbba" d="M 198.632812 304.664062 C 198.632812 279.261719 187.988281 279.757812 187.988281 279.757812 C 187.988281 279.757812 177.34375 279.316406 177.34375 304.664062 C 177.34375 330.015625 180.085938 314.378906 134.382812 314.378906 L 134.382812 318.984375 L 241.480469 318.984375 L 241.480469 314.378906 C 195.832031 314.378906 198.632812 304.664062 198.632812 304.664062 " fill-opacity="1" fill-rule="nonzero"/><path fill="#d8dbba" d="M 187.769531 160.199219 C 185.242188 160.199219 181.84375 165.578125 181.84375 177.59375 C 181.84375 189.609375 194.1875 189.609375 194.1875 177.59375 C 194.1875 165.578125 190.292969 160.199219 187.769531 160.199219 " fill-opacity="1" fill-rule="nonzero"/><path fill="#6d6d68" d="M 254.429688 197.457031 C 253.5 197.070312 252.402344 197.511719 252.015625 198.5 L 227.050781 259.894531 C 226.667969 260.828125 227.105469 261.925781 228.09375 262.308594 C 228.3125 262.417969 228.535156 262.417969 228.808594 262.417969 C 229.519531 262.417969 230.234375 261.980469 230.507812 261.265625 L 255.417969 199.871094 C 255.800781 198.9375 255.363281 197.839844 254.429688 197.457031 " fill-opacity="1" fill-rule="nonzero"/><path fill="#6d6d68" d="M 288.449219 259.894531 L 263.539062 198.5 C 263.15625 197.566406 262.058594 197.125 261.125 197.457031 C 260.191406 197.839844 259.699219 198.9375 260.082031 199.871094 L 284.992188 261.265625 C 285.265625 261.980469 285.980469 262.417969 286.691406 262.417969 C 286.914062 262.417969 287.1875 262.363281 287.40625 262.308594 C 288.394531 261.871094 288.832031 260.828125 288.449219 259.894531 " fill-opacity="1" fill-rule="nonzero"/><path fill="#e4e5cf" d="M 226.613281 259.402344 C 226.613281 259.402344 227.050781 281.347656 257.996094 281.347656 C 288.941406 281.347656 288.941406 259.402344 288.941406 259.402344 Z M 226.613281 259.402344 " fill-opacity="1" fill-rule="nonzero"/><path fill="#d8dbba" d="M 263.429688 186.207031 L 263.429688 186.261719 C 262.605469 184.671875 261.125 183.355469 259.148438 182.695312 C 255.582031 181.542969 251.851562 183.136719 250.863281 186.207031 C 249.878906 189.335938 251.960938 192.738281 255.527344 193.890625 C 255.636719 193.945312 255.691406 193.945312 255.800781 193.945312 C 254.046875 194.382812 252.179688 194.328125 250.316406 193.726562 C 247.628906 192.847656 242.964844 187.578125 233.253906 184.453125 C 225.570312 181.984375 208.507812 181.597656 186.503906 174.519531 L 184.203125 181.765625 C 201.8125 187.414062 219.699219 187.523438 227.546875 189.773438 C 242.085938 193.945312 245.597656 198.003906 249.382812 200.800781 C 253.167969 203.65625 262.167969 202.503906 264.308594 195.808594 C 265.347656 192.574219 264.964844 189.117188 263.429688 186.207031 " fill-opacity="1" fill-rule="nonzero"/><path fill="#6d6d68" d="M 148.042969 216 L 123.132812 154.605469 C 122.75 153.671875 121.652344 153.234375 120.71875 153.5625 C 119.789062 153.945312 119.292969 155.042969 119.675781 155.976562 L 144.585938 217.371094 C 144.863281 218.085938 145.574219 218.523438 146.289062 218.523438 C 146.507812 218.523438 146.78125 218.46875 147 218.414062 C 147.933594 217.976562 148.429688 216.933594 148.042969 216 " fill-opacity="1" fill-rule="nonzero"/><path fill="#6d6d68" d="M 113.972656 153.5625 C 113.039062 153.179688 111.941406 153.617188 111.558594 154.605469 L 86.648438 216 C 86.265625 216.933594 86.703125 218.03125 87.691406 218.414062 C 87.910156 218.523438 88.128906 218.523438 88.402344 218.523438 C 89.117188 218.523438 89.828125 218.085938 90.105469 217.371094 L 115.015625 155.976562 C 115.398438 155.042969 114.960938 153.945312 113.972656 153.5625 " fill-opacity="1" fill-rule="nonzero"/><path fill="#e4e5cf" d="M 86.152344 215.507812 C 86.152344 215.507812 86.152344 237.453125 117.097656 237.453125 C 148.042969 237.453125 148.484375 215.507812 148.484375 215.507812 Z M 86.152344 215.507812 " fill-opacity="1" fill-rule="nonzero"/><path fill="#d8dbba" d="M 142.722656 155.371094 C 133.011719 152.246094 126.152344 153.835938 123.464844 152.957031 C 121.652344 152.355469 120.0625 151.3125 118.910156 149.941406 C 119.019531 149.996094 119.074219 149.996094 119.183594 150.050781 C 122.75 151.203125 126.480469 149.613281 127.46875 146.539062 C 128.457031 143.464844 126.371094 140.011719 122.804688 138.859375 C 120.828125 138.199219 118.800781 138.417969 117.207031 139.242188 L 117.207031 139.1875 C 114.300781 140.667969 111.941406 143.246094 110.898438 146.59375 C 108.757812 153.289062 115.398438 159.433594 120.117188 159.324219 C 124.835938 159.214844 130.046875 158.007812 144.3125 163.054688 C 151.996094 165.796875 166.589844 176.113281 184.203125 181.765625 L 186.503906 174.519531 C 164.503906 167.5 150.402344 157.84375 142.722656 155.371094 " fill-opacity="1" fill-rule="nonzero"/><g clip-path="url(#798d58ac84)"><path fill="#ff3131" d="M 187.613281 10.445312 L 197.015625 29.507812 L 218.054688 32.566406 L 202.828125 47.417969 L 206.433594 68.367188 L 187.613281 58.476562 L 168.78125 68.367188 L 172.375 47.417969 L 157.160156 32.566406 L 178.195312 29.507812 Z M 187.613281 10.445312 " fill-opacity="1" fill-rule="nonzero"/><path fill="#ff3131" d="M 187.46875 10.261719 L 196.882812 29.328125 L 217.921875 32.382812 L 202.695312 47.234375 L 206.289062 68.1875 L 187.46875 58.292969 L 168.644531 68.1875 L 172.238281 47.234375 L 157.011719 32.382812 L 178.050781 29.328125 Z M 187.46875 10.261719 " fill-opacity="1" fill-rule="nonzero"/><path fill="#ff3131" d="M 187.46875 10.261719 L 196.882812 29.328125 L 217.921875 32.382812 L 202.695312 47.234375 L 206.289062 68.1875 L 187.46875 58.292969 L 168.644531 68.1875 L 172.238281 47.234375 L 157.011719 32.382812 L 178.050781 29.328125 Z M 187.46875 10.261719 " fill-opacity="1" fill-rule="nonzero"/><path fill="#ff3131" d="M 187.46875 10.261719 L 196.882812 29.328125 L 217.921875 32.382812 L 202.695312 47.234375 L 206.289062 68.1875 L 187.46875 58.292969 L 168.644531 68.1875 L 172.238281 47.234375 L 157.011719 32.382812 L 178.050781 29.328125 Z M 187.46875 10.261719 " fill-opacity="1" fill-rule="nonzero"/></g><g clip-path="url(#bb42c3412d)"><path fill="#ff3131" d="M 268.035156 10.445312 L 277.4375 29.507812 L 298.476562 32.566406 L 283.25 47.417969 L 286.855469 68.367188 L 268.035156 58.476562 L 249.203125 68.367188 L 252.796875 47.417969 L 237.582031 32.566406 L 258.617188 29.507812 Z M 268.035156 10.445312 " fill-opacity="1" fill-rule="nonzero"/><path fill="#ff3131" d="M 267.890625 10.261719 L 277.304688 29.328125 L 298.34375 32.382812 L 283.117188 47.234375 L 286.710938 68.1875 L 267.890625 58.292969 L 249.066406 68.1875 L 252.660156 47.234375 L 237.433594 32.382812 L 258.472656 29.328125 Z M 267.890625 10.261719 " fill-opacity="1" fill-rule="nonzero"/><path fill="#ff3131" d="M 267.890625 10.261719 L 277.304688 29.328125 L 298.34375 32.382812 L 283.117188 47.234375 L 286.710938 68.1875 L 267.890625 58.292969 L 249.066406 68.1875 L 252.660156 47.234375 L 237.433594 32.382812 L 258.472656 29.328125 Z M 267.890625 10.261719 " fill-opacity="1" fill-rule="nonzero"/><path fill="#ff3131" d="M 267.890625 10.261719 L 277.304688 29.328125 L 298.34375 32.382812 L 283.117188 47.234375 L 286.710938 68.1875 L 267.890625 58.292969 L 249.066406 68.1875 L 252.660156 47.234375 L 237.433594 32.382812 L 258.472656 29.328125 Z M 267.890625 10.261719 " fill-opacity="1" fill-rule="nonzero"/></g></svg>