<svg xmlns="http://www.w3.org/2000/svg" xmlns:xlink="http://www.w3.org/1999/xlink" width="500" zoomAndPan="magnify" viewBox="0 0 375 374.999991" height="500" preserveAspectRatio="xMidYMid meet" version="1.0"><defs><clipPath id="54b841921b"><path d="M 26 7 L 91.136719 7 L 91.136719 69.246094 L 26 69.246094 Z M 26 7 " clip-rule="nonzero"/></clipPath><clipPath id="5a3fe4d2cb"><path d="M 25.886719 7 L 91.136719 7 L 91.136719 69 L 25.886719 69 Z M 25.886719 7 " clip-rule="nonzero"/></clipPath><clipPath id="d709717d68"><path d="M 69 362 L 305 362 L 305 374.945312 L 69 374.945312 Z M 69 362 " clip-rule="nonzero"/></clipPath><clipPath id="3312265508"><path d="M 173 102.695312 L 202 102.695312 L 202 140 L 173 140 Z M 173 102.695312 " clip-rule="nonzero"/></clipPath><clipPath id="c9b849a7d7"><path d="M 51.347656 143 L 176 143 L 176 299 L 51.347656 299 Z M 51.347656 143 " clip-rule="nonzero"/></clipPath><clipPath id="8b1cfffd64"><path d="M 199 143 L 323.597656 143 L 323.597656 299 L 199 299 Z M 199 143 " clip-rule="nonzero"/></clipPath><clipPath id="352a744954"><path d="M 112 7 L 177.121094 7 L 177.121094 69.246094 L 112 69.246094 Z M 112 7 " clip-rule="nonzero"/></clipPath><clipPath id="56edbc082f"><path d="M 111.871094 7 L 177 7 L 177 69 L 111.871094 69 Z M 111.871094 7 " clip-rule="nonzero"/></clipPath><clipPath id="887a0869c1"><path d="M 198 7 L 263.105469 7 L 263.105469 69.246094 L 198 69.246094 Z M 198 7 " clip-rule="nonzero"/></clipPath><clipPath id="ad431dbdbe"><path d="M 197.855469 7 L 263 7 L 263 69 L 197.855469 69 Z M 197.855469 7 " clip-rule="nonzero"/></clipPath><clipPath id="307d18a074"><path d="M 283.835938 7 L 349.085938 7 L 349.085938 69.246094 L 283.835938 69.246094 Z M 283.835938 7 " clip-rule="nonzero"/></clipPath><clipPath id="05be9595c9"><path d="M 283.835938 7 L 349 7 L 349 69 L 283.835938 69 Z M 283.835938 7 " clip-rule="nonzero"/></clipPath></defs><g clip-path="url(#54b841921b)"><path fill="#a6a6a6" d="M 58.609375 7.207031 L 68.664062 27.59375 L 91.160156 30.863281 L 74.875 46.742188 L 78.734375 69.144531 L 58.609375 58.570312 L 38.46875 69.144531 L 42.3125 46.742188 L 26.042969 30.863281 L 48.539062 27.59375 Z M 58.609375 7.207031 " fill-opacity="1" fill-rule="nonzero"/></g><g clip-path="url(#5a3fe4d2cb)"><path fill="#a6a6a6" d="M 58.449219 7.011719 L 68.519531 27.398438 L 91.015625 30.667969 L 74.734375 46.546875 L 78.578125 68.949219 L 58.449219 58.375 L 38.324219 68.949219 L 42.167969 46.546875 L 25.886719 30.667969 L 48.382812 27.398438 Z M 58.449219 7.011719 " fill-opacity="1" fill-rule="nonzero"/><path fill="#a6a6a6" d="M 58.449219 7.011719 L 68.519531 27.398438 L 91.015625 30.667969 L 74.734375 46.546875 L 78.578125 68.949219 L 58.449219 58.375 L 38.324219 68.949219 L 42.167969 46.546875 L 25.886719 30.667969 L 48.382812 27.398438 Z M 58.449219 7.011719 " fill-opacity="1" fill-rule="nonzero"/><path fill="#a6a6a6" d="M 58.449219 7.011719 L 68.519531 27.398438 L 91.015625 30.667969 L 74.734375 46.546875 L 78.578125 68.949219 L 58.449219 58.375 L 38.324219 68.949219 L 42.167969 46.546875 L 25.886719 30.667969 L 48.382812 27.398438 Z M 58.449219 7.011719 " fill-opacity="1" fill-rule="nonzero"/></g><g clip-path="url(#d709717d68)"><path fill="#ffffff" d="M 294.339844 362.910156 L 80.636719 362.910156 C 76.429688 362.910156 72.667969 365.734375 71.492188 369.773438 L 69.976562 374.992188 L 305 374.992188 L 303.484375 369.773438 C 302.308594 365.734375 298.550781 362.910156 294.339844 362.910156 Z M 294.339844 362.910156 " fill-opacity="1" fill-rule="nonzero"/></g><path fill="#ffffff" d="M 180.324219 144.242188 L 194.65625 144.242188 L 194.65625 151.746094 L 180.324219 151.746094 Z M 180.324219 144.242188 " fill-opacity="1" fill-rule="nonzero"/><g clip-path="url(#3312265508)"><path fill="#ffffff" d="M 195.894531 139.777344 C 199.453125 135.863281 201.578125 129.804688 201.578125 123.320312 C 201.578125 111.949219 195.257812 102.695312 187.488281 102.695312 C 179.71875 102.695312 173.398438 111.949219 173.398438 123.320312 C 173.398438 129.804688 175.519531 135.859375 179.082031 139.777344 Z M 195.894531 139.777344 " fill-opacity="1" fill-rule="nonzero"/></g><path fill="#ffffff" d="M 180.324219 156.210938 L 194.65625 156.210938 L 194.65625 328.859375 L 180.324219 328.859375 Z M 180.324219 156.210938 " fill-opacity="1" fill-rule="nonzero"/><path fill="#ffffff" d="M 128.265625 346.425781 C 124.128906 346.425781 120.425781 349.203125 119.265625 353.175781 L 117.730469 358.445312 L 257.246094 358.445312 L 255.710938 353.175781 C 254.554688 349.199219 250.851562 346.425781 246.710938 346.425781 Z M 128.265625 346.425781 " fill-opacity="1" fill-rule="nonzero"/><path fill="#ffffff" d="M 178.089844 333.324219 L 152.992188 333.324219 L 152.992188 341.960938 L 221.980469 341.960938 L 221.980469 333.324219 Z M 178.089844 333.324219 " fill-opacity="1" fill-rule="nonzero"/><g clip-path="url(#c9b849a7d7)"><path fill="#ffffff" d="M 146.65625 269.582031 L 135.78125 269.582031 L 112.070312 176.761719 C 114.027344 177.109375 115.984375 177.308594 117.90625 177.308594 C 126.972656 177.308594 133.953125 174.605469 140.707031 171.992188 C 146.074219 169.914062 151.144531 167.949219 156.542969 167.773438 C 164.492188 167.507812 171.710938 171.03125 175.855469 173.574219 L 175.855469 155.511719 C 172.546875 154.386719 162.589844 151.421875 153.679688 152.945312 C 149.035156 153.742188 144.535156 156.15625 139.769531 158.714844 C 133.121094 162.285156 126.246094 165.972656 117.90625 165.972656 C 108.273438 165.972656 102.933594 162.609375 100.308594 160.15625 C 99.402344 161.175781 98.347656 162.078125 97.128906 162.777344 C 96.0625 163.390625 94.695312 163.019531 94.082031 161.949219 C 93.46875 160.878906 93.84375 159.515625 94.910156 158.902344 C 97.484375 157.429688 99.085938 154.671875 99.085938 151.710938 C 99.085938 147.144531 95.371094 143.429688 90.804688 143.429688 C 86.238281 143.429688 82.527344 147.144531 82.527344 151.710938 C 82.527344 156.097656 85.078125 160.707031 89.105469 164.789062 L 62.335938 269.582031 L 51.460938 269.582031 C 53.207031 285.832031 73.886719 298.699219 99.058594 298.699219 C 124.226562 298.699219 144.910156 285.832031 146.65625 269.582031 Z M 131.148438 269.582031 L 101.289062 269.582031 L 101.289062 173.257812 C 103.179688 174.152344 105.132812 174.914062 107.125 175.535156 Z M 96.824219 170.863281 L 96.824219 269.582031 L 66.96875 269.582031 L 92.890625 168.117188 C 94.132812 169.082031 95.4375 170.011719 96.824219 170.863281 Z M 96.824219 170.863281 " fill-opacity="1" fill-rule="nonzero"/></g><g clip-path="url(#8b1cfffd64)"><path fill="#ffffff" d="M 312.640625 269.582031 L 285.871094 164.792969 C 289.898438 160.707031 292.449219 156.101562 292.449219 151.714844 C 292.449219 147.148438 288.734375 143.433594 284.171875 143.433594 C 279.605469 143.433594 275.890625 147.148438 275.890625 151.714844 C 275.890625 154.675781 277.488281 157.433594 280.0625 158.90625 C 281.132812 159.515625 281.503906 160.882812 280.890625 161.953125 C 280.28125 163.019531 278.914062 163.390625 277.84375 162.78125 C 276.625 162.082031 275.570312 161.179688 274.664062 160.15625 C 272.042969 162.609375 266.703125 165.976562 257.070312 165.976562 C 248.726562 165.976562 241.855469 162.285156 235.207031 158.71875 C 230.441406 156.160156 225.941406 153.742188 221.296875 152.949219 C 212.386719 151.421875 202.429688 154.390625 199.117188 155.511719 L 199.117188 173.585938 C 203.261719 171.046875 210.480469 167.53125 218.433594 167.773438 C 223.832031 167.953125 228.902344 169.914062 234.265625 171.992188 C 241.019531 174.605469 248.003906 177.308594 257.070312 177.308594 C 258.996094 177.308594 260.949219 177.109375 262.90625 176.761719 L 239.195312 269.582031 L 228.320312 269.582031 C 230.066406 285.832031 250.746094 298.699219 275.917969 298.699219 C 301.085938 298.699219 321.769531 285.832031 323.515625 269.582031 Z M 282.089844 168.117188 L 308.007812 269.582031 L 278.152344 269.582031 L 278.152344 170.863281 C 279.539062 170.011719 280.84375 169.082031 282.089844 168.117188 Z M 273.683594 173.257812 L 273.683594 269.582031 L 243.828125 269.582031 L 267.851562 175.539062 C 269.84375 174.914062 271.796875 174.152344 273.683594 173.257812 Z M 273.683594 173.257812 " fill-opacity="1" fill-rule="nonzero"/></g><g clip-path="url(#352a744954)"><path fill="#a6a6a6" d="M 144.589844 7.207031 L 154.648438 27.59375 L 177.144531 30.863281 L 160.859375 46.742188 L 164.714844 69.144531 L 144.589844 58.570312 L 124.453125 69.144531 L 128.296875 46.742188 L 112.027344 30.863281 L 134.523438 27.59375 Z M 144.589844 7.207031 " fill-opacity="1" fill-rule="nonzero"/></g><g clip-path="url(#56edbc082f)"><path fill="#a6a6a6" d="M 144.433594 7.011719 L 154.503906 27.398438 L 177 30.667969 L 160.71875 46.546875 L 164.558594 68.949219 L 144.433594 58.375 L 124.308594 68.949219 L 128.152344 46.546875 L 111.871094 30.667969 L 134.367188 27.398438 Z M 144.433594 7.011719 " fill-opacity="1" fill-rule="nonzero"/><path fill="#a6a6a6" d="M 144.433594 7.011719 L 154.503906 27.398438 L 177 30.667969 L 160.71875 46.546875 L 164.558594 68.949219 L 144.433594 58.375 L 124.308594 68.949219 L 128.152344 46.546875 L 111.871094 30.667969 L 134.367188 27.398438 Z M 144.433594 7.011719 " fill-opacity="1" fill-rule="nonzero"/><path fill="#a6a6a6" d="M 144.433594 7.011719 L 154.503906 27.398438 L 177 30.667969 L 160.71875 46.546875 L 164.558594 68.949219 L 144.433594 58.375 L 124.308594 68.949219 L 128.152344 46.546875 L 111.871094 30.667969 L 134.367188 27.398438 Z M 144.433594 7.011719 " fill-opacity="1" fill-rule="nonzero"/></g><g clip-path="url(#887a0869c1)"><path fill="#a6a6a6" d="M 230.574219 7.207031 L 240.632812 27.59375 L 263.128906 30.863281 L 246.84375 46.742188 L 250.699219 69.144531 L 230.574219 58.570312 L 210.4375 69.144531 L 214.28125 46.742188 L 198.011719 30.863281 L 220.507812 27.59375 Z M 230.574219 7.207031 " fill-opacity="1" fill-rule="nonzero"/></g><g clip-path="url(#ad431dbdbe)"><path fill="#a6a6a6" d="M 230.417969 7.011719 L 240.488281 27.398438 L 262.984375 30.667969 L 246.703125 46.546875 L 250.542969 68.949219 L 230.417969 58.375 L 210.292969 68.949219 L 214.136719 46.546875 L 197.855469 30.667969 L 220.351562 27.398438 Z M 230.417969 7.011719 " fill-opacity="1" fill-rule="nonzero"/><path fill="#a6a6a6" d="M 230.417969 7.011719 L 240.488281 27.398438 L 262.984375 30.667969 L 246.703125 46.546875 L 250.542969 68.949219 L 230.417969 58.375 L 210.292969 68.949219 L 214.136719 46.546875 L 197.855469 30.667969 L 220.351562 27.398438 Z M 230.417969 7.011719 " fill-opacity="1" fill-rule="nonzero"/><path fill="#a6a6a6" d="M 230.417969 7.011719 L 240.488281 27.398438 L 262.984375 30.667969 L 246.703125 46.546875 L 250.542969 68.949219 L 230.417969 58.375 L 210.292969 68.949219 L 214.136719 46.546875 L 197.855469 30.667969 L 220.351562 27.398438 Z M 230.417969 7.011719 " fill-opacity="1" fill-rule="nonzero"/></g><g clip-path="url(#307d18a074)"><path fill="#a6a6a6" d="M 316.558594 7.207031 L 326.613281 27.59375 L 349.109375 30.863281 L 332.828125 46.742188 L 336.683594 69.144531 L 316.558594 58.570312 L 296.421875 69.144531 L 300.261719 46.742188 L 283.992188 30.863281 L 306.488281 27.59375 Z M 316.558594 7.207031 " fill-opacity="1" fill-rule="nonzero"/></g><g clip-path="url(#05be9595c9)"><path fill="#a6a6a6" d="M 316.402344 7.011719 L 326.472656 27.398438 L 348.96875 30.667969 L 332.683594 46.546875 L 336.527344 68.949219 L 316.402344 58.375 L 296.277344 68.949219 L 300.121094 46.546875 L 283.835938 30.667969 L 306.332031 27.398438 Z M 316.402344 7.011719 " fill-opacity="1" fill-rule="nonzero"/><path fill="#a6a6a6" d="M 316.402344 7.011719 L 326.472656 27.398438 L 348.96875 30.667969 L 332.683594 46.546875 L 336.527344 68.949219 L 316.402344 58.375 L 296.277344 68.949219 L 300.121094 46.546875 L 283.835938 30.667969 L 306.332031 27.398438 Z M 316.402344 7.011719 " fill-opacity="1" fill-rule="nonzero"/><path fill="#a6a6a6" d="M 316.402344 7.011719 L 326.472656 27.398438 L 348.96875 30.667969 L 332.683594 46.546875 L 336.527344 68.949219 L 316.402344 58.375 L 296.277344 68.949219 L 300.121094 46.546875 L 283.835938 30.667969 L 306.332031 27.398438 Z M 316.402344 7.011719 " fill-opacity="1" fill-rule="nonzero"/></g></svg>