<svg xmlns="http://www.w3.org/2000/svg" xmlns:xlink="http://www.w3.org/1999/xlink" width="500" zoomAndPan="magnify" viewBox="0 0 375 374.999991" height="500" preserveAspectRatio="xMidYMid meet" version="1.0"><defs><clipPath id="7b5380c9a4"><path d="M 79.738281 12.089844 L 138.988281 12.089844 L 138.988281 68.339844 L 79.738281 68.339844 Z M 79.738281 12.089844 " clip-rule="nonzero"/></clipPath><clipPath id="4aa12f356a"><path d="M 46.25 111.132812 L 329 111.132812 L 329 363 L 46.25 363 Z M 46.25 111.132812 " clip-rule="nonzero"/></clipPath><clipPath id="8d49b4c577"><path d="M 158.367188 12.089844 L 217.617188 12.089844 L 217.617188 68.339844 L 158.367188 68.339844 Z M 158.367188 12.089844 " clip-rule="nonzero"/></clipPath><clipPath id="d82b1e3b39"><path d="M 236.1875 12.089844 L 295.4375 12.089844 L 295.4375 68.339844 L 236.1875 68.339844 Z M 236.1875 12.089844 " clip-rule="nonzero"/></clipPath></defs><g clip-path="url(#7b5380c9a4)"><path fill="#a6a6a6" d="M 109.351562 12.28125 L 118.453125 30.730469 L 138.8125 33.691406 L 124.074219 48.0625 L 127.566406 68.335938 L 109.351562 58.765625 L 91.125 68.335938 L 94.601562 48.0625 L 79.878906 33.691406 L 100.238281 30.730469 Z M 109.351562 12.28125 " fill-opacity="1" fill-rule="nonzero"/><path fill="#a6a6a6" d="M 109.210938 12.105469 L 118.324219 30.554688 L 138.683594 33.511719 L 123.945312 47.882812 L 127.421875 68.160156 L 109.210938 58.589844 L 90.996094 68.160156 L 94.472656 47.882812 L 79.738281 33.511719 L 100.097656 30.554688 Z M 109.210938 12.105469 " fill-opacity="1" fill-rule="nonzero"/><path fill="#a6a6a6" d="M 109.210938 12.105469 L 118.324219 30.554688 L 138.683594 33.511719 L 123.945312 47.882812 L 127.421875 68.160156 L 109.210938 58.589844 L 90.996094 68.160156 L 94.472656 47.882812 L 79.738281 33.511719 L 100.097656 30.554688 Z M 109.210938 12.105469 " fill-opacity="1" fill-rule="nonzero"/><path fill="#a6a6a6" d="M 109.210938 12.105469 L 118.324219 30.554688 L 138.683594 33.511719 L 123.945312 47.882812 L 127.421875 68.160156 L 109.210938 58.589844 L 90.996094 68.160156 L 94.472656 47.882812 L 79.738281 33.511719 L 100.097656 30.554688 Z M 109.210938 12.105469 " fill-opacity="1" fill-rule="nonzero"/></g><g clip-path="url(#4aa12f356a)"><path fill="#a6a6a6" d="M 312.0625 252.96875 C 312.183594 252.578125 312.503906 252.292969 312.894531 252.222656 C 315.632812 251.777344 318.015625 250.695312 320.046875 248.984375 C 321.660156 247.617188 323.175781 245.589844 324.589844 242.894531 C 327.082031 238.144531 328.460938 233.035156 328.710938 227.566406 C 328.734375 227.1875 328.59375 227.113281 328.292969 227.351562 C 323.078125 231.5 318.242188 236.128906 313.789062 241.238281 C 313.324219 241.765625 313.121094 241.679688 313.1875 240.980469 L 314.28125 228.714844 C 314.3125 228.359375 314.539062 228.046875 314.875 227.902344 C 318.351562 226.425781 320.867188 224.160156 322.425781 221.117188 C 323.632812 218.753906 324.421875 215.632812 324.800781 211.742188 C 325.121094 208.425781 324.890625 205.078125 324.109375 201.699219 C 323.988281 201.183594 323.769531 201.132812 323.445312 201.542969 C 319.578125 206.472656 316.054688 211.675781 312.871094 217.152344 C 312.765625 217.332031 312.695312 217.316406 312.664062 217.113281 L 310.726562 206.011719 C 310.621094 205.417969 310.789062 204.820312 311.175781 204.390625 C 315.761719 199.304688 317.753906 193.496094 317.148438 186.96875 C 316.820312 183.421875 315.945312 179.847656 314.527344 176.246094 C 314.425781 175.992188 314.304688 175.984375 314.164062 176.214844 C 311.03125 181.433594 308.421875 186.804688 306.320312 192.335938 C 306.214844 192.617188 306.097656 192.617188 305.972656 192.351562 L 301.519531 182.699219 C 301.214844 182.042969 301.21875 181.386719 301.535156 180.730469 C 303.800781 175.949219 304.652344 171.144531 304.09375 166.316406 C 303.539062 161.511719 301.84375 157.070312 299.007812 152.996094 C 298.710938 152.574219 298.457031 152.597656 298.242188 153.066406 C 297.816406 153.996094 297.480469 155.09375 297.234375 156.367188 C 296.40625 160.660156 295.484375 165.132812 294.476562 169.777344 C 294.40625 170.101562 294.265625 170.132812 294.058594 169.875 L 287.078125 161.085938 C 286.632812 160.527344 286.5 159.925781 286.671875 159.277344 C 288.625 151.824219 287.835938 144.621094 284.300781 137.671875 C 283.324219 135.75 282.066406 134.03125 280.527344 132.515625 C 280.316406 132.300781 280.175781 132.34375 280.101562 132.632812 C 278.777344 138.117188 278.089844 143.679688 278.035156 149.320312 C 278.035156 149.539062 277.960938 149.566406 277.808594 149.410156 L 269.722656 141.234375 C 269.1875 140.6875 268.972656 140.027344 269.082031 139.257812 C 269.355469 137.34375 269.082031 135.261719 268.269531 133.011719 C 265.605469 125.636719 261.191406 119.742188 255.011719 115.332031 C 254.214844 114.761719 253.84375 114.96875 253.886719 115.945312 C 254.164062 121.550781 255.304688 126.890625 257.308594 131.96875 C 257.46875 132.378906 257.378906 132.445312 257.027344 132.171875 C 253.804688 129.617188 250.546875 127.148438 247.261719 124.773438 C 243.226562 121.859375 239.785156 119.667969 236.933594 118.203125 C 230.640625 114.964844 223.949219 112.753906 216.859375 111.574219 C 215.601562 111.367188 214.332031 111.292969 213.042969 111.351562 C 212.785156 111.367188 212.753906 111.457031 212.941406 111.632812 C 216.273438 114.78125 219.761719 117.714844 223.402344 120.433594 C 228.226562 124.042969 231.75 126.378906 233.972656 127.441406 C 237.757812 129.257812 242.066406 130.339844 246.898438 130.691406 C 247.84375 130.761719 248.660156 131.074219 249.351562 131.625 L 255.425781 136.496094 C 256.636719 137.464844 256.472656 137.84375 254.933594 137.621094 C 248.246094 136.667969 242.589844 138.308594 237.960938 142.550781 C 237.9375 142.570312 237.921875 142.59375 237.910156 142.621094 C 237.859375 142.726562 237.90625 142.855469 238.011719 142.90625 C 246.800781 147.285156 256.003906 147.890625 265.613281 144.726562 C 266.039062 144.585938 266.503906 144.683594 266.808594 144.988281 L 274.59375 152.636719 C 275.25 153.277344 275.128906 153.476562 274.246094 153.234375 C 273.4375 153.007812 272.660156 152.804688 271.910156 152.625 C 271.105469 152.425781 270.3125 152.324219 269.523438 152.324219 C 265.0625 152.324219 260.460938 152.917969 255.714844 154.105469 C 255.441406 154.171875 255.417969 154.292969 255.636719 154.460938 C 264.03125 160.71875 273.285156 163.734375 283.402344 163.503906 C 283.601562 163.5 283.792969 163.585938 283.929688 163.734375 C 286.546875 166.632812 288.820312 169.789062 290.753906 173.195312 C 290.855469 173.375 290.808594 173.433594 290.609375 173.355469 C 284.152344 170.925781 277.472656 169.480469 270.558594 169.019531 C 270.175781 168.996094 270.097656 169.136719 270.332031 169.441406 C 271.785156 171.347656 273.386719 173.183594 275.136719 174.941406 C 280.597656 180.464844 287.847656 183.632812 296.875 184.4375 C 297.109375 184.457031 297.320312 184.59375 297.433594 184.796875 C 299.398438 188.355469 301.089844 191.9375 302.511719 195.539062 C 302.589844 195.726562 302.535156 195.769531 302.351562 195.660156 C 298.871094 193.515625 295.15625 191.90625 291.214844 190.835938 C 288.824219 190.1875 286.46875 189.558594 284.148438 188.949219 C 283.578125 188.796875 283.441406 188.972656 283.742188 189.480469 C 285.164062 191.875 286.738281 194.144531 288.476562 196.289062 C 290.519531 198.820312 292.492188 200.726562 294.390625 202.007812 C 297.667969 204.214844 301.507812 205.59375 305.914062 206.144531 C 306.359375 206.199219 306.710938 206.519531 306.78125 206.933594 L 308.605469 217.722656 C 308.671875 218.097656 308.554688 218.164062 308.257812 217.90625 C 303.671875 213.953125 298.480469 211.101562 292.683594 209.347656 C 292.65625 209.339844 292.625 209.335938 292.59375 209.34375 C 292.484375 209.359375 292.40625 209.460938 292.421875 209.570312 C 293.613281 217.71875 297.90625 223.53125 305.300781 227.007812 C 306.582031 227.609375 308.003906 227.988281 309.574219 228.144531 C 309.753906 228.160156 309.886719 228.320312 309.875 228.5 L 309.148438 240.265625 C 309.105469 241.007812 308.863281 241.082031 308.429688 240.480469 C 305.269531 236.097656 301.292969 232.277344 296.492188 229.019531 C 296.445312 228.988281 296.394531 228.96875 296.34375 228.964844 C 296.175781 228.953125 296.027344 229.078125 296.015625 229.246094 C 295.828125 231.582031 295.804688 234.011719 295.9375 236.542969 C 296.054688 238.800781 296.566406 240.800781 297.460938 242.542969 C 299.640625 246.765625 302.792969 249.816406 306.917969 251.691406 C 307.339844 251.882812 307.570312 252.351562 307.457031 252.804688 C 306.472656 256.804688 305.230469 260.695312 303.734375 264.46875 C 303.496094 265.070312 303.304688 265.058594 303.164062 264.429688 C 302.332031 260.839844 300.960938 257.300781 299.050781 253.820312 C 297.832031 251.59375 296.574219 249.871094 295.277344 248.667969 C 295.253906 248.644531 295.226562 248.632812 295.195312 248.621094 C 295.089844 248.585938 294.972656 248.652344 294.9375 248.761719 C 293.832031 252.113281 293.195312 255.5625 293.027344 259.101562 C 292.742188 264.984375 294.621094 270.03125 298.664062 274.234375 C 298.890625 274.476562 298.945312 274.824219 298.804688 275.101562 L 293.605469 284.734375 C 293.449219 285.023438 293.34375 285.003906 293.296875 284.675781 C 292.375 279.089844 290.570312 273.953125 287.875 269.265625 C 287.523438 268.652344 287.207031 268.667969 286.929688 269.316406 C 285.292969 273.152344 284.285156 277.324219 283.902344 281.832031 C 283.550781 286 284.425781 290.050781 286.527344 293.992188 C 286.949219 294.777344 286.894531 295.480469 286.363281 296.101562 L 278.921875 304.871094 C 278.757812 305.0625 278.675781 305.027344 278.679688 304.769531 C 278.742188 299.378906 278.027344 293.945312 276.527344 288.476562 C 276.515625 288.4375 276.492188 288.398438 276.460938 288.367188 C 276.359375 288.25 276.183594 288.242188 276.074219 288.34375 C 275 289.3125 274.164062 290.308594 273.566406 291.328125 C 271.625 294.632812 270.136719 298.128906 269.105469 301.820312 C 268.136719 305.257812 268.074219 308.703125 268.914062 312.164062 C 268.960938 312.355469 268.902344 312.558594 268.761719 312.691406 C 265.550781 315.675781 262.222656 318.347656 258.777344 320.710938 C 258.433594 320.945312 258.332031 320.871094 258.472656 320.472656 C 259.316406 318.160156 259.78125 315.917969 259.867188 313.75 C 259.984375 310.503906 259.847656 307.273438 259.460938 304.0625 C 259.390625 303.503906 259.140625 303.40625 258.710938 303.765625 C 252.820312 308.71875 249.09375 314.976562 247.523438 322.542969 C 247.355469 323.359375 247.246094 324.410156 247.199219 325.691406 C 247.1875 325.988281 247.027344 326.257812 246.773438 326.390625 L 236.570312 332.011719 C 236.128906 332.253906 236.039062 332.160156 236.304688 331.726562 C 239.429688 326.605469 240.992188 321.046875 240.992188 315.054688 C 240.992188 315.03125 240.988281 315.003906 240.980469 314.980469 C 240.941406 314.847656 240.808594 314.773438 240.679688 314.8125 C 239.328125 315.195312 238.085938 315.808594 236.953125 316.660156 C 231.453125 320.785156 227.121094 326.0625 223.972656 332.484375 C 223.828125 332.777344 223.582031 333.007812 223.28125 333.125 C 212.613281 337.375 201.738281 340.113281 190.664062 341.34375 C 188.382812 341.597656 186.105469 341.566406 183.832031 341.257812 C 172.917969 339.769531 162.332031 337.074219 152.070312 333.175781 C 151.386719 332.910156 150.867188 332.457031 150.523438 331.816406 C 148.046875 327.230469 145 323.074219 141.378906 319.34375 C 139.472656 317.375 137.214844 315.878906 134.609375 314.847656 C 134.515625 314.808594 134.414062 314.796875 134.3125 314.804688 C 133.964844 314.835938 133.707031 315.148438 133.738281 315.496094 C 134.28125 321.464844 135.929688 326.878906 138.6875 331.738281 C 138.921875 332.152344 138.847656 332.21875 138.464844 331.9375 C 135.578125 329.792969 132.328125 327.832031 128.71875 326.058594 C 128.523438 325.960938 128.402344 325.765625 128.394531 325.554688 C 128.347656 324.015625 128.101562 322.535156 127.65625 321.101562 C 126.089844 316.09375 123.648438 311.558594 120.332031 307.5 C 119.082031 305.96875 117.671875 304.699219 116.105469 303.691406 C 116.042969 303.652344 115.96875 303.628906 115.890625 303.621094 C 115.636719 303.601562 115.414062 303.792969 115.394531 304.046875 C 115.152344 307.21875 115.121094 310.28125 115.3125 313.25 C 115.464844 315.679688 116.015625 318.011719 116.964844 320.257812 C 117.234375 320.898438 117.101562 321.003906 116.5625 320.578125 L 106.867188 312.828125 C 106.722656 312.714844 106.664062 312.515625 106.71875 312.324219 C 107.367188 310.003906 107.605469 308.144531 107.425781 306.746094 C 106.566406 300.03125 103.960938 294 99.617188 288.652344 C 99.046875 287.957031 98.667969 288.046875 98.464844 288.921875 C 97.277344 294.101562 96.753906 299.425781 96.902344 304.886719 C 96.90625 305.175781 96.816406 305.214844 96.628906 305.003906 L 88.234375 295.617188 C 87.984375 295.332031 87.953125 294.902344 88.152344 294.546875 C 90.859375 289.820312 91.757812 284.917969 90.84375 279.84375 C 90.46875 277.765625 89.929688 275.804688 89.226562 273.960938 C 88.496094 272.03125 87.492188 270.242188 86.214844 268.589844 C 86.195312 268.566406 86.171875 268.550781 86.144531 268.535156 C 86.042969 268.484375 85.925781 268.523438 85.878906 268.625 C 83.570312 273.367188 82.015625 278.742188 81.214844 284.746094 C 81.144531 285.285156 80.980469 285.320312 80.726562 284.847656 L 75.476562 275.105469 C 75.386719 274.9375 75.410156 274.722656 75.539062 274.566406 C 77.46875 272.148438 78.816406 270.3125 79.589844 269.054688 C 80.785156 267.09375 81.488281 264.71875 81.691406 261.933594 C 82.015625 257.515625 81.410156 253.171875 79.882812 248.898438 C 79.703125 248.402344 79.457031 248.363281 79.136719 248.789062 C 75.5625 253.542969 72.972656 258.71875 71.371094 264.320312 C 71.246094 264.769531 71.101562 264.773438 70.941406 264.335938 C 69.472656 260.34375 68.273438 256.375 67.351562 252.425781 C 67.253906 252.019531 67.449219 251.59375 67.828125 251.40625 C 72.273438 249.167969 75.519531 246.132812 77.570312 242.304688 C 78.375 240.796875 78.839844 239.191406 78.960938 237.480469 C 79.152344 234.839844 79.210938 232.042969 79.140625 229.09375 C 79.132812 228.761719 78.996094 228.695312 78.730469 228.890625 C 73.984375 232.3125 69.808594 236.402344 66.203125 241.160156 C 66.0625 241.339844 65.984375 241.320312 65.976562 241.097656 L 65.210938 228.578125 C 65.199219 228.324219 65.375 228.09375 65.636719 228.03125 C 75.5625 225.585938 81.3125 219.429688 82.878906 209.554688 C 82.882812 209.523438 82.878906 209.492188 82.867188 209.464844 C 82.835938 209.363281 82.726562 209.304688 82.621094 209.335938 C 76.949219 211.101562 71.839844 213.757812 67.292969 217.292969 C 66.875 217.617188 66.699219 217.515625 66.761719 216.992188 C 67.167969 213.460938 67.820312 209.976562 68.710938 206.53125 C 68.808594 206.144531 69.15625 205.871094 69.558594 205.863281 C 72.066406 205.8125 74.445312 205.195312 76.699219 204.015625 C 83.070312 200.664062 87.929688 195.785156 91.273438 189.375 C 91.417969 189.085938 91.335938 188.972656 91.015625 189.035156 C 84.742188 190.234375 78.671875 192.425781 72.804688 195.609375 C 72.320312 195.871094 72.171875 195.742188 72.359375 195.226562 C 73.585938 191.820312 75.144531 188.351562 77.027344 184.816406 C 77.144531 184.601562 77.359375 184.457031 77.609375 184.429688 C 86.375 183.617188 93.402344 180.539062 98.699219 175.203125 C 100.527344 173.359375 102.222656 171.398438 103.785156 169.320312 C 103.957031 169.085938 103.898438 168.980469 103.613281 169.007812 C 99.136719 169.414062 94.707031 170.125 90.316406 171.136719 C 88.417969 171.578125 86.597656 172.246094 84.867188 173.144531 C 84.132812 173.523438 83.96875 173.351562 84.371094 172.632812 C 86.113281 169.523438 88.234375 166.554688 90.738281 163.730469 C 90.871094 163.582031 91.066406 163.496094 91.273438 163.5 C 101.1875 163.757812 110.019531 160.753906 117.761719 154.492188 C 118.257812 154.09375 118.195312 153.828125 117.574219 153.703125 C 116.269531 153.441406 114.878906 153.214844 113.402344 153.023438 C 113.339844 153.015625 112.121094 152.824219 109.746094 152.449219 C 106.421875 151.929688 103.121094 152.113281 99.835938 152.996094 C 99.632812 153.050781 99.601562 153.003906 99.734375 152.851562 C 102.46875 149.789062 105.476562 147.03125 108.757812 144.578125 C 108.921875 144.457031 109.132812 144.425781 109.320312 144.492188 C 118.09375 147.472656 126.914062 146.925781 135.785156 142.84375 C 135.816406 142.832031 135.847656 142.808594 135.875 142.785156 C 136.019531 142.65625 136.03125 142.433594 135.902344 142.289062 C 132.011719 138.125 127.285156 136.433594 121.722656 137.214844 C 120.710938 137.355469 119.703125 137.378906 118.703125 137.277344 C 118.492188 137.253906 118.472656 137.179688 118.648438 137.039062 C 121.367188 134.9375 124.164062 132.953125 127.042969 131.085938 C 127.867188 130.546875 128.773438 130.226562 129.753906 130.132812 C 131.257812 129.976562 132.769531 129.859375 134.28125 129.769531 C 136.359375 129.644531 138.835938 128.785156 141.707031 127.183594 C 146.042969 124.765625 150.101562 121.945312 153.875 118.71875 C 156.558594 116.421875 159.359375 114.042969 162.285156 111.582031 C 162.597656 111.324219 162.550781 111.191406 162.144531 111.191406 C 160.175781 111.175781 158.503906 111.300781 157.136719 111.5625 C 146.574219 113.609375 136.984375 117.824219 128.363281 124.203125 C 124.519531 127.046875 120.710938 129.9375 116.929688 132.867188 C 116.769531 133 116.730469 132.96875 116.808594 132.78125 C 119.089844 127.441406 120.480469 121.640625 120.992188 115.367188 C 121.027344 114.9375 120.863281 114.839844 120.5 115.082031 C 113.851562 119.488281 109.070312 125.546875 106.160156 133.265625 C 105.488281 135.050781 105.3125 137.328125 105.644531 140.089844 C 105.671875 140.296875 105.601562 140.5 105.460938 140.636719 L 96.820312 149.183594 C 96.566406 149.433594 96.445312 149.378906 96.453125 149.015625 C 96.5625 143.304688 96.015625 138.113281 94.8125 133.449219 C 94.613281 132.679688 94.273438 132.613281 93.796875 133.246094 C 88.171875 140.652344 86.28125 149.257812 88.117188 159.0625 C 88.238281 159.742188 88.074219 160.339844 87.625 160.863281 C 85.257812 163.585938 82.921875 166.6875 80.625 170.164062 C 80.34375 170.585938 80.160156 170.542969 80.074219 170.042969 L 77.136719 153.613281 C 76.972656 152.683594 76.613281 152.609375 76.0625 153.386719 C 70.289062 161.523438 69.320312 170.539062 73.144531 180.4375 C 73.511719 181.382812 73.480469 182.308594 73.058594 183.214844 L 68.691406 192.515625 C 68.523438 192.878906 68.375 192.867188 68.242188 192.492188 C 66.3125 187 63.699219 181.863281 60.394531 177.089844 C 60.269531 176.917969 60.171875 176.933594 60.09375 177.132812 C 58.941406 180.132812 58.253906 183.519531 58.027344 187.277344 C 57.636719 193.902344 59.496094 199.480469 63.613281 204.023438 C 64.199219 204.671875 64.421875 205.445312 64.265625 206.351562 L 62.601562 216.085938 C 62.476562 216.820312 62.222656 216.871094 61.832031 216.246094 C 58.652344 211.0625 55.109375 206.113281 51.203125 201.386719 C 51.0625 201.222656 50.972656 201.246094 50.929688 201.449219 C 49.484375 208.4375 50.324219 215.113281 53.441406 221.484375 C 54.871094 224.402344 57.222656 226.484375 60.496094 227.734375 C 60.722656 227.816406 60.878906 228.039062 60.894531 228.292969 L 61.539062 241.269531 C 61.578125 242.042969 61.367188 242.121094 60.914062 241.496094 C 56.949219 236.007812 52.222656 231.1875 46.738281 227.039062 C 46.410156 226.789062 46.253906 226.871094 46.269531 227.28125 C 46.410156 232.671875 47.621094 237.671875 49.890625 242.285156 C 51.375 245.300781 53.324219 247.757812 55.746094 249.648438 C 56.636719 250.339844 57.613281 250.878906 58.683594 251.265625 C 59.742188 251.648438 60.824219 251.9375 61.933594 252.128906 C 62.34375 252.203125 62.679688 252.496094 62.800781 252.886719 L 66.292969 264.40625 C 66.457031 264.929688 66.308594 265.035156 65.855469 264.71875 C 61.902344 261.941406 57.929688 259.3125 53.9375 256.824219 C 52.039062 255.636719 50.445312 254.796875 49.160156 254.316406 C 48.957031 254.234375 48.871094 254.300781 48.910156 254.519531 C 50.472656 262.855469 54.667969 269.28125 61.492188 273.789062 C 63.039062 274.8125 64.523438 275.554688 65.953125 276.015625 C 67.570312 276.535156 69.230469 276.824219 70.929688 276.871094 C 71.203125 276.882812 71.449219 277.035156 71.582031 277.273438 L 77.097656 287.21875 C 77.410156 287.78125 77.277344 287.925781 76.691406 287.648438 C 70.667969 284.8125 64.320312 282.3125 57.640625 280.136719 C 57.382812 280.054688 57.308594 280.136719 57.417969 280.386719 C 59.207031 284.457031 61.617188 287.960938 64.65625 290.902344 C 69.679688 295.761719 75.972656 297.898438 83.53125 297.316406 C 83.8125 297.296875 84.082031 297.402344 84.257812 297.605469 L 93.261719 307.867188 C 93.390625 308.023438 93.4375 308.199219 93.375 308.289062 C 93.3125 308.375 93.1875 308.375 92.992188 308.300781 C 89.210938 306.730469 85.289062 305.671875 81.230469 305.125 C 78.332031 304.730469 75.425781 304.34375 72.527344 303.96875 C 72.316406 303.9375 72.269531 304.007812 72.386719 304.183594 C 74.308594 306.9375 76.769531 309.445312 79.757812 311.707031 C 84.101562 314.996094 88.875 316.933594 94.078125 317.523438 C 97.171875 317.871094 100.121094 317.484375 102.933594 316.363281 C 103.242188 316.234375 103.59375 316.269531 103.871094 316.457031 C 107.457031 318.84375 110.882812 321.421875 114.152344 324.191406 C 114.972656 324.886719 114.867188 325.09375 113.828125 324.820312 C 112.152344 324.375 110.449219 324.222656 108.71875 324.367188 C 104.449219 324.726562 99.945312 325.363281 95.210938 326.28125 C 94.917969 326.335938 94.886719 326.460938 95.113281 326.648438 C 97.8125 328.867188 100.679688 330.648438 103.710938 332 C 107.066406 333.496094 110.296875 334.273438 113.402344 334.328125 C 118.042969 334.410156 122.371094 333.0625 126.390625 330.285156 C 126.554688 330.171875 126.765625 330.152344 126.941406 330.234375 C 130.621094 331.929688 134.148438 333.800781 137.523438 335.855469 C 138.375 336.371094 138.308594 336.679688 137.316406 336.769531 C 131.394531 337.324219 125.773438 338.890625 120.457031 341.480469 C 119.980469 341.714844 119.980469 341.945312 120.457031 342.171875 C 125.425781 344.554688 130.671875 345.792969 136.191406 345.878906 C 141.738281 345.957031 146.414062 344.296875 150.222656 340.890625 C 150.625 340.527344 151.191406 340.40625 151.71875 340.558594 C 160.957031 343.304688 169.878906 345.476562 178.488281 347.070312 C 179.636719 347.289062 179.640625 347.519531 178.503906 347.769531 C 169.394531 349.773438 161.859375 354.523438 155.898438 362.011719 C 155.421875 362.613281 155.566406 362.863281 156.324219 362.765625 C 162.066406 362.054688 167.304688 360.589844 172.035156 358.371094 C 177.179688 355.953125 182.09375 353.058594 186.777344 349.679688 C 186.933594 349.5625 187.148438 349.5625 187.308594 349.679688 C 195.214844 355.335938 203.867188 359.417969 213.265625 361.929688 C 214.507812 362.261719 215.867188 362.453125 217.347656 362.515625 C 217.8125 362.53125 217.90625 362.351562 217.625 361.980469 C 214.058594 357.222656 209.546875 353.421875 204.085938 350.589844 C 201.761719 349.386719 199.304688 348.519531 196.714844 347.996094 C 195.253906 347.703125 195.257812 347.4375 196.734375 347.203125 C 205.9375 345.722656 215.035156 343.40625 224.027344 340.25 C 224.207031 340.183594 224.410156 340.230469 224.554688 340.371094 C 228.390625 344.15625 232.933594 346.027344 238.183594 345.980469 C 244.234375 345.929688 249.796875 344.484375 254.878906 341.640625 C 255.4375 341.328125 255.421875 341.042969 254.832031 340.785156 C 249.132812 338.246094 243.238281 336.859375 237.15625 336.621094 C 236.484375 336.59375 236.453125 336.433594 237.058594 336.140625 L 248.957031 330.367188 C 249.25 330.226562 249.59375 330.246094 249.855469 330.425781 C 253.246094 332.707031 256.859375 333.964844 260.703125 334.199219 C 263.957031 334.402344 267.382812 333.726562 270.980469 332.171875 C 274.148438 330.808594 277.191406 328.96875 280.117188 326.652344 C 280.394531 326.433594 280.359375 326.277344 280.015625 326.1875 C 273.5625 324.496094 267.296875 323.933594 261.21875 324.503906 C 260.996094 324.527344 260.972656 324.46875 261.152344 324.339844 L 271.761719 316.453125 C 271.914062 316.339844 272.125 316.304688 272.335938 316.355469 C 280.675781 318.507812 288.316406 317.011719 295.253906 311.863281 C 298.207031 309.671875 300.628906 307.152344 302.511719 304.304688 C 302.628906 304.125 302.578125 304.050781 302.367188 304.070312 C 299.28125 304.394531 296.207031 304.769531 293.140625 305.191406 C 289.53125 305.6875 286.035156 306.625 282.660156 308.007812 C 282.003906 308.28125 281.886719 308.132812 282.316406 307.5625 C 284.78125 304.296875 287.667969 300.957031 290.972656 297.542969 C 291.207031 297.300781 291.53125 297.175781 291.867188 297.195312 C 297.804688 297.558594 302.980469 295.898438 307.402344 292.21875 C 311.203125 289.054688 314.144531 285.21875 316.230469 280.71875 C 316.417969 280.304688 316.304688 280.179688 315.886719 280.335938 L 298.023438 287.066406 C 297.625 287.21875 297.53125 287.117188 297.742188 286.761719 L 303.632812 276.929688 C 303.773438 276.695312 304.042969 276.554688 304.34375 276.554688 C 306.5 276.566406 308.511719 276.101562 310.386719 275.171875 C 318.667969 271.03125 323.804688 264.261719 325.796875 254.871094 C 325.90625 254.351562 325.734375 254.226562 325.273438 254.488281 C 319.777344 257.667969 314.464844 261.015625 309.34375 264.53125 C 308.652344 265.003906 308.429688 264.835938 308.675781 264.03125 Z M 312.0625 252.96875 " fill-opacity="1" fill-rule="nonzero"/></g><path fill="#a6a6a6" d="M 191.140625 159.90625 C 191.625 160.105469 192.085938 160.351562 192.523438 160.644531 C 192.960938 160.9375 193.363281 161.269531 193.734375 161.640625 C 194.109375 162.011719 194.4375 162.414062 194.730469 162.851562 C 195.023438 163.289062 195.269531 163.75 195.472656 164.234375 C 195.671875 164.722656 195.824219 165.222656 195.925781 165.738281 C 196.027344 166.253906 196.078125 166.773438 196.078125 167.296875 C 196.078125 167.824219 196.027344 168.34375 195.925781 168.859375 C 195.824219 169.375 195.671875 169.875 195.472656 170.359375 C 195.269531 170.84375 195.023438 171.304688 194.730469 171.742188 C 194.4375 172.179688 194.109375 172.585938 193.734375 172.957031 C 193.363281 173.328125 192.960938 173.660156 192.523438 173.949219 C 192.085938 174.242188 191.625 174.488281 191.140625 174.691406 C 190.65625 174.890625 190.15625 175.042969 189.640625 175.144531 C 189.125 175.25 188.601562 175.300781 188.078125 175.300781 C 187.550781 175.300781 187.03125 175.25 186.515625 175.144531 C 186 175.042969 185.5 174.890625 185.015625 174.691406 C 184.53125 174.488281 184.070312 174.242188 183.632812 173.949219 C 183.195312 173.660156 182.792969 173.328125 182.421875 172.957031 C 182.046875 172.585938 181.714844 172.179688 181.425781 171.742188 C 181.132812 171.304688 180.886719 170.84375 180.683594 170.359375 C 180.484375 169.875 180.332031 169.375 180.230469 168.859375 C 180.128906 168.34375 180.078125 167.824219 180.078125 167.296875 C 180.078125 166.773438 180.128906 166.253906 180.230469 165.738281 C 180.332031 165.222656 180.484375 164.722656 180.683594 164.234375 C 180.886719 163.75 181.132812 163.289062 181.425781 162.851562 C 181.71875 162.414062 182.046875 162.011719 182.421875 161.640625 C 182.792969 161.269531 183.195312 160.9375 183.632812 160.644531 C 184.070312 160.351562 184.53125 160.105469 185.015625 159.90625 C 185.5 159.703125 186 159.550781 186.515625 159.449219 C 187.03125 159.347656 187.550781 159.296875 188.078125 159.296875 C 188.601562 159.296875 189.125 159.347656 189.640625 159.449219 C 190.15625 159.550781 190.65625 159.703125 191.140625 159.90625 Z M 191.140625 159.90625 " fill-opacity="1" fill-rule="nonzero"/><path fill="#a6a6a6" d="M 272.25 259.992188 C 272.066406 259.898438 271.929688 259.730469 271.878906 259.527344 C 270.488281 254.160156 268.9375 248.882812 267.234375 243.6875 C 262.636719 229.714844 257.9375 215.777344 253.140625 201.867188 C 252.746094 200.71875 252.402344 199.796875 252.113281 199.105469 C 253.589844 198.03125 254.554688 196.292969 254.554688 194.332031 C 254.554688 192.21875 253.445312 190.375 251.78125 189.332031 C 252.066406 189.261719 252.332031 189.1875 252.582031 189.109375 C 255.351562 188.617188 257.453125 186.203125 257.453125 183.296875 C 257.453125 181.191406 256.351562 179.351562 254.695312 178.300781 C 253.90625 177.738281 253.039062 177.4375 252.09375 177.394531 C 252.816406 178.234375 253.292969 179.289062 253.40625 180.441406 C 253.757812 183.964844 250.824219 186.898438 247.300781 186.546875 C 247.039062 186.523438 246.78125 186.472656 246.53125 186.410156 C 246.539062 186.429688 246.550781 186.449219 246.566406 186.46875 C 229.691406 183.539062 212.863281 180.773438 196.082031 178.171875 C 190.667969 177.335938 185.371094 177.300781 180.183594 178.078125 C 164.472656 180.417969 147.757812 183.246094 130.039062 186.566406 C 130.046875 186.554688 130.050781 186.539062 130.0625 186.527344 C 129.644531 186.582031 129.210938 186.589844 128.765625 186.546875 C 126.164062 186.289062 124.054688 184.179688 123.796875 181.578125 C 123.636719 179.972656 124.160156 178.492188 125.109375 177.382812 C 124.691406 177.382812 124.285156 177.429688 123.886719 177.515625 C 123.695312 177.550781 123.5 177.589844 123.304688 177.644531 C 122.097656 177.972656 121.148438 178.652344 120.449219 179.679688 C 119.675781 180.679688 119.207031 181.929688 119.207031 183.292969 C 119.207031 183.351562 119.214844 183.410156 119.214844 183.464844 C 119.15625 184.78125 119.523438 185.9375 120.328125 186.933594 C 121.148438 187.945312 122.199219 188.707031 123.476562 189.222656 C 121.71875 190.246094 120.53125 192.148438 120.53125 194.328125 C 120.53125 196.523438 121.730469 198.429688 123.503906 199.449219 C 121.980469 204.421875 120.324219 209.371094 118.535156 214.296875 C 114.910156 224.253906 111.40625 234.25 108.015625 244.285156 C 105.742188 251.011719 104.175781 256.257812 103.320312 260.015625 C 103.277344 260.195312 103.121094 260.332031 102.933594 260.34375 C 101.484375 260.460938 100.648438 261.210938 100.429688 262.59375 C 100.046875 265 100.886719 266.652344 102.953125 267.542969 C 103.332031 267.707031 103.890625 267.804688 104.628906 267.828125 C 105.210938 267.855469 105.785156 267.925781 106.351562 268.046875 C 106.550781 268.085938 106.738281 268.191406 106.886719 268.347656 C 107.871094 269.378906 108.847656 270.425781 109.808594 271.484375 C 112.230469 274.160156 115.058594 276.019531 118.296875 277.066406 C 121.195312 278 124.457031 278.371094 128.085938 278.175781 C 135.125 277.792969 140.816406 274.578125 145.160156 268.539062 C 145.285156 268.371094 145.472656 268.265625 145.664062 268.257812 C 146.171875 268.234375 146.675781 268.234375 147.183594 268.257812 C 147.925781 268.289062 148.527344 268.234375 148.980469 268.105469 C 151.921875 267.261719 153.042969 265.28125 152.34375 262.164062 C 152.234375 261.65625 152.054688 261.261719 151.8125 260.988281 C 151.472656 260.605469 151.070312 260.394531 150.601562 260.351562 C 150.238281 260.320312 149.929688 260.0625 149.832031 259.703125 C 148.386719 254.082031 146.839844 248.707031 145.183594 243.578125 C 140.464844 228.949219 135.480469 214.410156 130.238281 199.964844 C 130.148438 199.71875 130.015625 199.449219 129.847656 199.15625 C 131.359375 198.085938 132.351562 196.324219 132.351562 194.332031 C 132.351562 192.238281 131.261719 190.402344 129.617188 189.351562 C 133.585938 188.832031 139 188.039062 145.867188 186.972656 C 158.148438 185.074219 170.277344 183.152344 182.246094 181.203125 C 182.261719 181.199219 182.28125 181.199219 182.296875 181.199219 C 182.605469 181.179688 182.863281 181.410156 182.882812 181.714844 C 183.976562 205.4375 184.46875 229.164062 184.355469 252.898438 C 184.335938 257.582031 184.25 261.816406 184.109375 265.601562 C 183.789062 273.859375 183.328125 280.585938 182.722656 285.78125 C 182.132812 290.886719 181.335938 295.546875 180.339844 299.761719 C 179.523438 303.230469 178.359375 306.652344 176.851562 310.039062 C 175.351562 313.40625 173.734375 316.148438 171.996094 318.261719 C 169.949219 320.746094 167.527344 322.875 164.734375 324.644531 C 161.835938 326.488281 158.890625 328.269531 155.910156 329.992188 C 154.835938 330.609375 154.910156 331.023438 156.132812 331.234375 C 166.488281 333.011719 176.566406 332.851562 186.363281 330.753906 C 187.300781 330.554688 188.246094 330.542969 189.195312 330.714844 C 199.144531 332.550781 208.796875 332.820312 218.160156 331.53125 C 219.699219 331.320312 219.847656 330.742188 218.617188 329.796875 C 217.570312 328.996094 216.292969 328.203125 214.785156 327.421875 C 209.921875 324.886719 205.945312 321.496094 202.859375 317.246094 C 200.8125 314.433594 198.988281 310.632812 197.386719 305.847656 C 195.558594 300.378906 194.324219 294.964844 193.691406 289.589844 C 191.609375 271.949219 190.730469 253.46875 191.046875 234.148438 C 191.339844 216.617188 191.847656 199.089844 192.566406 181.566406 C 192.566406 181.558594 192.570312 181.542969 192.570312 181.53125 C 192.59375 181.375 192.738281 181.269531 192.890625 181.292969 L 245.414062 189.375 C 243.804688 190.429688 242.738281 192.25 242.738281 194.316406 C 242.738281 196.429688 243.847656 198.273438 245.515625 199.320312 C 245.488281 199.371094 245.460938 199.421875 245.445312 199.472656 C 242.003906 209.425781 238.523438 219.371094 235 229.300781 C 231.832031 238.210938 228.894531 247.195312 226.179688 256.25 C 225.867188 257.285156 225.613281 258.445312 225.414062 259.734375 C 225.382812 259.933594 225.246094 260.101562 225.058594 260.171875 C 223.089844 260.910156 222.164062 262.128906 222.28125 263.828125 C 222.367188 265.160156 222.902344 266.25 223.886719 267.09375 C 224.910156 267.984375 226.222656 268.28125 227.820312 267.988281 C 228.4375 267.875 229.074219 268.09375 229.492188 268.566406 C 230.648438 269.882812 231.816406 271.109375 233.003906 272.253906 C 234.398438 273.601562 235.738281 274.628906 237.035156 275.335938 C 240.238281 277.089844 243.898438 278.027344 248.019531 278.152344 C 256.523438 278.402344 263.082031 275.257812 267.695312 268.726562 C 267.808594 268.5625 267.992188 268.464844 268.1875 268.464844 C 269.808594 268.484375 271.253906 268.109375 272.527344 267.347656 C 273.910156 266.523438 274.695312 265.421875 274.878906 264.039062 C 275.109375 262.335938 274.234375 260.984375 272.25 259.992188 Z M 151.589844 263.429688 C 151.59375 263.375 151.597656 263.328125 151.597656 263.28125 C 151.597656 263.328125 151.59375 263.378906 151.589844 263.429688 C 151.585938 263.460938 151.578125 263.488281 151.574219 263.515625 C 151.578125 263.488281 151.585938 263.460938 151.589844 263.429688 Z M 151.46875 262.664062 C 151.433594 262.621094 151.394531 262.597656 151.347656 262.589844 C 151.390625 262.59375 151.433594 262.621094 151.46875 262.664062 Z M 151.160156 264.191406 C 151.082031 264.183594 151.019531 264.117188 150.976562 264.003906 C 151.023438 264.117188 151.085938 264.183594 151.160156 264.191406 Z M 125.007812 263.027344 C 125.007812 263.03125 125.007812 263.035156 125.007812 263.035156 C 125.007812 263.207031 124.871094 263.34375 124.703125 263.34375 L 108.976562 263.375 C 108.5625 263.382812 108.203125 263.074219 108.136719 262.660156 C 107.949219 261.449219 107.476562 260.640625 106.71875 260.226562 C 106.664062 260.195312 106.460938 260.164062 106.105469 260.125 L 104.867188 259.996094 C 104.851562 259.996094 104.839844 259.992188 104.824219 259.988281 C 104.675781 259.945312 104.597656 259.765625 104.644531 259.585938 C 107.371094 249.515625 110.539062 239.589844 114.140625 229.800781 C 117.539062 220.582031 120.8125 211.324219 123.960938 202.019531 C 124.195312 201.320312 124.519531 200.65625 124.933594 200.035156 C 125.117188 200.082031 125.296875 200.121094 125.484375 200.152344 C 125.484375 200.167969 125.484375 200.179688 125.484375 200.199219 C 124.949219 221.085938 124.789062 242.03125 125.007812 263.027344 Z M 148.597656 259.464844 C 148.597656 259.46875 148.601562 259.46875 148.601562 259.472656 C 148.640625 259.640625 148.542969 259.808594 148.375 259.851562 C 147.8125 259.992188 147.246094 260.105469 146.675781 260.191406 C 145.332031 260.394531 144.636719 261.195312 144.59375 262.597656 C 144.578125 263.039062 144.21875 263.386719 143.777344 263.386719 L 126.359375 263.347656 C 126.351562 263.347656 126.34375 263.347656 126.332031 263.347656 C 126.171875 263.335938 126.054688 263.191406 126.066406 263.035156 C 126.101562 262.652344 126.148438 262.273438 126.210938 261.894531 C 126.285156 261.46875 126.320312 261.085938 126.320312 260.746094 C 126.40625 242.929688 126.574219 225.121094 126.820312 207.308594 C 126.859375 204.9375 126.941406 202.570312 127.078125 200.203125 C 127.617188 200.144531 128.128906 200.011719 128.613281 199.820312 C 128.726562 199.957031 128.820312 200.113281 128.882812 200.28125 C 136.375 219.878906 142.945312 239.609375 148.597656 259.464844 Z M 248.636719 205.398438 C 248.472656 224.636719 248.4375 243.875 248.53125 263.113281 C 248.53125 263.285156 248.386719 263.421875 248.210938 263.421875 L 230.890625 263.386719 C 230.546875 263.386719 230.261719 263.117188 230.253906 262.773438 C 230.222656 261.75 229.761719 260.914062 228.855469 260.265625 C 228.761719 260.191406 228.566406 260.136719 228.277344 260.105469 L 227.0625 259.945312 C 227.058594 259.945312 227.058594 259.945312 227.054688 259.945312 C 226.890625 259.917969 226.785156 259.734375 226.816406 259.535156 C 227.285156 256.722656 228.050781 253.660156 229.109375 250.359375 C 234.75 232.765625 240.605469 216.121094 246.6875 200.425781 C 246.753906 200.25 246.820312 200.105469 246.890625 199.976562 C 247.355469 200.117188 247.847656 200.199219 248.355469 200.226562 C 248.566406 200.8125 248.660156 202.539062 248.636719 205.398438 Z M 268.632812 263.027344 C 268.640625 262.886719 268.667969 262.757812 268.714844 262.644531 C 268.667969 262.757812 268.640625 262.886719 268.632812 263.027344 C 268.613281 263.335938 268.695312 263.617188 268.84375 263.785156 C 268.695312 263.617188 268.609375 263.335938 268.632812 263.027344 Z M 269.160156 263.960938 C 269.175781 263.960938 269.1875 263.957031 269.203125 263.957031 C 269.1875 263.957031 269.175781 263.960938 269.160156 263.960938 Z M 269.367188 263.921875 C 269.566406 263.828125 269.722656 263.589844 269.785156 263.285156 C 269.722656 263.589844 269.566406 263.828125 269.367188 263.921875 Z M 269.28125 262.171875 C 269.433594 262.183594 269.566406 262.28125 269.660156 262.433594 C 269.566406 262.28125 269.433594 262.183594 269.28125 262.171875 Z M 270.257812 259.859375 C 267.964844 260.023438 266.738281 261.019531 266.578125 262.84375 C 266.550781 263.175781 266.273438 263.429688 265.9375 263.429688 L 250.195312 263.421875 C 250.023438 263.421875 249.886719 263.28125 249.886719 263.105469 L 250.082031 200.050781 C 250.367188 199.980469 250.648438 199.894531 250.914062 199.78125 C 250.953125 199.847656 250.984375 199.921875 251.015625 200.003906 C 258.25 219.589844 264.808594 239.335938 270.683594 259.242188 C 270.695312 259.277344 270.699219 259.3125 270.703125 259.347656 C 270.722656 259.609375 270.519531 259.835938 270.257812 259.859375 Z M 270.257812 259.859375 " fill-opacity="1" fill-rule="nonzero"/><g clip-path="url(#8d49b4c577)"><path fill="#a6a6a6" d="M 187.980469 12.28125 L 197.082031 30.730469 L 217.441406 33.691406 L 202.707031 48.0625 L 206.195312 68.335938 L 187.980469 58.765625 L 169.757812 68.335938 L 173.234375 48.0625 L 158.511719 33.691406 L 178.871094 30.730469 Z M 187.980469 12.28125 " fill-opacity="1" fill-rule="nonzero"/><path fill="#a6a6a6" d="M 187.839844 12.105469 L 196.953125 30.554688 L 217.3125 33.511719 L 202.578125 47.882812 L 206.054688 68.160156 L 187.839844 58.589844 L 169.628906 68.160156 L 173.105469 47.882812 L 158.367188 33.511719 L 178.726562 30.554688 Z M 187.839844 12.105469 " fill-opacity="1" fill-rule="nonzero"/><path fill="#a6a6a6" d="M 187.839844 12.105469 L 196.953125 30.554688 L 217.3125 33.511719 L 202.578125 47.882812 L 206.054688 68.160156 L 187.839844 58.589844 L 169.628906 68.160156 L 173.105469 47.882812 L 158.367188 33.511719 L 178.726562 30.554688 Z M 187.839844 12.105469 " fill-opacity="1" fill-rule="nonzero"/><path fill="#a6a6a6" d="M 187.839844 12.105469 L 196.953125 30.554688 L 217.3125 33.511719 L 202.578125 47.882812 L 206.054688 68.160156 L 187.839844 58.589844 L 169.628906 68.160156 L 173.105469 47.882812 L 158.367188 33.511719 L 178.726562 30.554688 Z M 187.839844 12.105469 " fill-opacity="1" fill-rule="nonzero"/></g><g clip-path="url(#d82b1e3b39)"><path fill="#a6a6a6" d="M 265.800781 12.28125 L 274.902344 30.730469 L 295.261719 33.691406 L 280.523438 48.0625 L 284.011719 68.335938 L 265.800781 58.765625 L 247.574219 68.335938 L 251.050781 48.0625 L 236.328125 33.691406 L 256.6875 30.730469 Z M 265.800781 12.28125 " fill-opacity="1" fill-rule="nonzero"/><path fill="#a6a6a6" d="M 265.660156 12.105469 L 274.769531 30.554688 L 295.128906 33.511719 L 280.394531 47.882812 L 283.871094 68.160156 L 265.660156 58.589844 L 247.445312 68.160156 L 250.921875 47.882812 L 236.1875 33.511719 L 256.546875 30.554688 Z M 265.660156 12.105469 " fill-opacity="1" fill-rule="nonzero"/><path fill="#a6a6a6" d="M 265.660156 12.105469 L 274.769531 30.554688 L 295.128906 33.511719 L 280.394531 47.882812 L 283.871094 68.160156 L 265.660156 58.589844 L 247.445312 68.160156 L 250.921875 47.882812 L 236.1875 33.511719 L 256.546875 30.554688 Z M 265.660156 12.105469 " fill-opacity="1" fill-rule="nonzero"/><path fill="#a6a6a6" d="M 265.660156 12.105469 L 274.769531 30.554688 L 295.128906 33.511719 L 280.394531 47.882812 L 283.871094 68.160156 L 265.660156 58.589844 L 247.445312 68.160156 L 250.921875 47.882812 L 236.1875 33.511719 L 256.546875 30.554688 Z M 265.660156 12.105469 " fill-opacity="1" fill-rule="nonzero"/></g></svg>