<svg xmlns="http://www.w3.org/2000/svg" xmlns:xlink="http://www.w3.org/1999/xlink" width="500" zoomAndPan="magnify" viewBox="0 0 375 374.999991" height="500" preserveAspectRatio="xMidYMid meet" version="1.0"><defs><clipPath id="5e73af2bfb"><path d="M 0 37.5 L 60 37.5 L 60 94.5 L 0 94.5 Z M 0 37.5 " clip-rule="nonzero"/></clipPath><clipPath id="096b1f0f6d"><path d="M 174 125.351562 L 201 125.351562 L 201 160 L 174 160 Z M 174 125.351562 " clip-rule="nonzero"/></clipPath><clipPath id="1b5286e799"><path d="M 62.757812 162 L 177 162 L 177 306 L 62.757812 306 Z M 62.757812 162 " clip-rule="nonzero"/></clipPath><clipPath id="e9228147d2"><path d="M 198 162 L 312.507812 162 L 312.507812 306 L 198 306 Z M 198 162 " clip-rule="nonzero"/></clipPath><clipPath id="2457142dca"><path d="M 78.828125 37.5 L 138.828125 37.5 L 138.828125 94.5 L 78.828125 94.5 Z M 78.828125 37.5 " clip-rule="nonzero"/></clipPath><clipPath id="096e0f277d"><path d="M 157.660156 37.5 L 217.660156 37.5 L 217.660156 94.5 L 157.660156 94.5 Z M 157.660156 37.5 " clip-rule="nonzero"/></clipPath><clipPath id="430c793f5f"><path d="M 236.488281 37.5 L 296.488281 37.5 L 296.488281 94.5 L 236.488281 94.5 Z M 236.488281 37.5 " clip-rule="nonzero"/></clipPath><clipPath id="20e6861c8d"><path d="M 315.320312 37.5 L 375 37.5 L 375 94.5 L 315.320312 94.5 Z M 315.320312 37.5 " clip-rule="nonzero"/></clipPath></defs><g clip-path="url(#5e73af2bfb)"><path fill="#a6a6a6" d="M 29.996094 37.699219 L 39.214844 56.386719 L 59.835938 59.382812 L 44.910156 73.941406 L 48.445312 94.480469 L 29.996094 84.78125 L 11.535156 94.480469 L 15.058594 73.941406 L 0.144531 59.382812 L 20.765625 56.386719 Z M 29.996094 37.699219 " fill-opacity="1" fill-rule="nonzero"/><path fill="#a6a6a6" d="M 29.851562 37.519531 L 39.082031 56.207031 L 59.703125 59.207031 L 44.777344 73.761719 L 48.300781 94.300781 L 29.851562 84.605469 L 11.402344 94.300781 L 14.925781 73.761719 L 0 59.207031 L 20.621094 56.207031 Z M 29.851562 37.519531 " fill-opacity="1" fill-rule="nonzero"/><path fill="#a6a6a6" d="M 29.851562 37.519531 L 39.082031 56.207031 L 59.703125 59.207031 L 44.777344 73.761719 L 48.300781 94.300781 L 29.851562 84.605469 L 11.402344 94.300781 L 14.925781 73.761719 L 0 59.207031 L 20.621094 56.207031 Z M 29.851562 37.519531 " fill-opacity="1" fill-rule="nonzero"/><path fill="#a6a6a6" d="M 29.851562 37.519531 L 39.082031 56.207031 L 59.703125 59.207031 L 44.777344 73.761719 L 48.300781 94.300781 L 29.851562 84.605469 L 11.402344 94.300781 L 14.925781 73.761719 L 0 59.207031 L 20.621094 56.207031 Z M 29.851562 37.519531 " fill-opacity="1" fill-rule="nonzero"/></g><path fill="#ffffff" d="M 285.539062 363.917969 L 89.609375 363.917969 C 85.753906 363.917969 82.304688 366.507812 81.226562 370.210938 L 79.839844 374.996094 L 295.308594 374.996094 L 293.917969 370.214844 C 292.839844 366.507812 289.394531 363.917969 285.539062 363.917969 Z M 285.539062 363.917969 " fill-opacity="1" fill-rule="nonzero"/><path fill="#ffffff" d="M 181.003906 163.441406 L 194.144531 163.441406 L 194.144531 170.320312 L 181.003906 170.320312 Z M 181.003906 163.441406 " fill-opacity="1" fill-rule="nonzero"/><g clip-path="url(#096b1f0f6d)"><path fill="#ffffff" d="M 195.277344 159.347656 C 198.542969 155.761719 200.492188 150.207031 200.492188 144.261719 C 200.492188 133.835938 194.695312 125.351562 187.574219 125.351562 C 180.449219 125.351562 174.65625 133.835938 174.65625 144.261719 C 174.65625 150.203125 176.601562 155.757812 179.867188 159.347656 Z M 195.277344 159.347656 " fill-opacity="1" fill-rule="nonzero"/></g><path fill="#ffffff" d="M 181.003906 174.414062 L 194.144531 174.414062 L 194.144531 332.699219 L 181.003906 332.699219 Z M 181.003906 174.414062 " fill-opacity="1" fill-rule="nonzero"/><path fill="#ffffff" d="M 133.277344 348.808594 C 129.484375 348.808594 126.089844 351.351562 125.027344 354.996094 L 123.617188 359.824219 L 251.527344 359.824219 L 250.121094 354.996094 C 249.058594 351.351562 245.664062 348.808594 241.867188 348.808594 Z M 133.277344 348.808594 " fill-opacity="1" fill-rule="nonzero"/><path fill="#ffffff" d="M 178.957031 336.792969 L 155.949219 336.792969 L 155.949219 344.714844 L 219.199219 344.714844 L 219.199219 336.792969 Z M 178.957031 336.792969 " fill-opacity="1" fill-rule="nonzero"/><g clip-path="url(#1b5286e799)"><path fill="#ffffff" d="M 150.136719 278.355469 L 140.167969 278.355469 L 118.429688 193.257812 C 120.222656 193.574219 122.015625 193.757812 123.78125 193.757812 C 132.09375 193.757812 138.492188 191.28125 144.683594 188.882812 C 149.605469 186.976562 154.25 185.175781 159.199219 185.015625 C 166.492188 184.773438 173.109375 188.003906 176.910156 190.335938 L 176.910156 173.773438 C 173.875 172.742188 164.746094 170.023438 156.574219 171.421875 C 152.316406 172.152344 148.191406 174.363281 143.824219 176.710938 C 137.726562 179.984375 131.425781 183.367188 123.777344 183.367188 C 114.945312 183.367188 110.050781 180.28125 107.648438 178.03125 C 106.816406 178.96875 105.847656 179.796875 104.730469 180.4375 C 103.75 180.996094 102.5 180.65625 101.9375 179.675781 C 101.375 178.695312 101.71875 177.445312 102.699219 176.882812 C 105.058594 175.53125 106.523438 173.003906 106.523438 170.289062 C 106.523438 166.105469 103.117188 162.699219 98.933594 162.699219 C 94.746094 162.699219 91.34375 166.105469 91.34375 170.289062 C 91.34375 174.3125 93.679688 178.535156 97.375 182.28125 L 72.832031 278.355469 L 62.859375 278.355469 C 64.464844 293.253906 83.421875 305.050781 106.5 305.050781 C 129.574219 305.050781 148.539062 293.253906 150.136719 278.355469 Z M 135.917969 278.355469 L 108.546875 278.355469 L 108.546875 190.042969 C 110.277344 190.863281 112.066406 191.5625 113.894531 192.132812 Z M 104.453125 187.847656 L 104.453125 278.355469 L 77.082031 278.355469 L 100.84375 185.332031 C 101.984375 186.214844 103.179688 187.066406 104.453125 187.847656 Z M 104.453125 187.847656 " fill-opacity="1" fill-rule="nonzero"/></g><g clip-path="url(#e9228147d2)"><path fill="#ffffff" d="M 302.316406 278.355469 L 277.773438 182.28125 C 281.464844 178.539062 283.800781 174.316406 283.800781 170.292969 C 283.800781 166.105469 280.398438 162.699219 276.210938 162.699219 C 272.027344 162.699219 268.621094 166.105469 268.621094 170.292969 C 268.621094 173.007812 270.085938 175.535156 272.449219 176.886719 C 273.425781 177.445312 273.765625 178.699219 273.207031 179.679688 C 272.644531 180.660156 271.394531 181 270.414062 180.4375 C 269.296875 179.796875 268.328125 178.972656 267.496094 178.035156 C 265.09375 180.28125 260.195312 183.367188 251.367188 183.367188 C 243.71875 183.367188 237.417969 179.984375 231.320312 176.714844 C 226.953125 174.367188 222.828125 172.152344 218.570312 171.425781 C 210.402344 170.023438 201.273438 172.746094 198.234375 173.777344 L 198.234375 190.34375 C 202.035156 188.015625 208.652344 184.792969 215.945312 185.015625 C 220.894531 185.179688 225.539062 186.976562 230.460938 188.882812 C 236.648438 191.277344 243.054688 193.757812 251.363281 193.757812 C 253.128906 193.757812 254.921875 193.574219 256.714844 193.257812 L 234.976562 278.355469 L 225.007812 278.355469 C 226.609375 293.253906 245.570312 305.050781 268.644531 305.050781 C 291.722656 305.050781 310.683594 293.253906 312.285156 278.355469 Z M 274.304688 185.332031 L 298.066406 278.355469 L 270.695312 278.355469 L 270.695312 187.851562 C 271.964844 187.066406 273.160156 186.214844 274.304688 185.332031 Z M 266.597656 190.042969 L 266.597656 278.355469 L 239.226562 278.355469 L 261.25 192.132812 C 263.078125 191.5625 264.867188 190.863281 266.597656 190.042969 Z M 266.597656 190.042969 " fill-opacity="1" fill-rule="nonzero"/></g><g clip-path="url(#2457142dca)"><path fill="#a6a6a6" d="M 108.824219 37.699219 L 118.042969 56.386719 L 138.664062 59.382812 L 123.738281 73.941406 L 127.273438 94.480469 L 108.824219 84.78125 L 90.363281 94.480469 L 93.886719 73.941406 L 78.972656 59.382812 L 99.59375 56.386719 Z M 108.824219 37.699219 " fill-opacity="1" fill-rule="nonzero"/><path fill="#a6a6a6" d="M 108.683594 37.519531 L 117.914062 56.207031 L 138.535156 59.207031 L 123.609375 73.761719 L 127.128906 94.300781 L 108.683594 84.605469 L 90.234375 94.300781 L 93.757812 73.761719 L 78.828125 59.207031 L 99.453125 56.207031 Z M 108.683594 37.519531 " fill-opacity="1" fill-rule="nonzero"/><path fill="#a6a6a6" d="M 108.683594 37.519531 L 117.914062 56.207031 L 138.535156 59.207031 L 123.609375 73.761719 L 127.128906 94.300781 L 108.683594 84.605469 L 90.234375 94.300781 L 93.757812 73.761719 L 78.828125 59.207031 L 99.453125 56.207031 Z M 108.683594 37.519531 " fill-opacity="1" fill-rule="nonzero"/><path fill="#a6a6a6" d="M 108.683594 37.519531 L 117.914062 56.207031 L 138.535156 59.207031 L 123.609375 73.761719 L 127.128906 94.300781 L 108.683594 84.605469 L 90.234375 94.300781 L 93.757812 73.761719 L 78.828125 59.207031 L 99.453125 56.207031 Z M 108.683594 37.519531 " fill-opacity="1" fill-rule="nonzero"/></g><g clip-path="url(#096e0f277d)"><path fill="#a6a6a6" d="M 187.65625 37.699219 L 196.875 56.386719 L 217.496094 59.382812 L 202.570312 73.941406 L 206.105469 94.480469 L 187.65625 84.78125 L 169.195312 94.480469 L 172.71875 73.941406 L 157.804688 59.382812 L 178.425781 56.386719 Z M 187.65625 37.699219 " fill-opacity="1" fill-rule="nonzero"/><path fill="#a6a6a6" d="M 187.511719 37.519531 L 196.742188 56.207031 L 217.363281 59.207031 L 202.4375 73.761719 L 205.960938 94.300781 L 187.511719 84.605469 L 169.0625 94.300781 L 172.585938 73.761719 L 157.660156 59.207031 L 178.28125 56.207031 Z M 187.511719 37.519531 " fill-opacity="1" fill-rule="nonzero"/><path fill="#a6a6a6" d="M 187.511719 37.519531 L 196.742188 56.207031 L 217.363281 59.207031 L 202.4375 73.761719 L 205.960938 94.300781 L 187.511719 84.605469 L 169.0625 94.300781 L 172.585938 73.761719 L 157.660156 59.207031 L 178.28125 56.207031 Z M 187.511719 37.519531 " fill-opacity="1" fill-rule="nonzero"/><path fill="#a6a6a6" d="M 187.511719 37.519531 L 196.742188 56.207031 L 217.363281 59.207031 L 202.4375 73.761719 L 205.960938 94.300781 L 187.511719 84.605469 L 169.0625 94.300781 L 172.585938 73.761719 L 157.660156 59.207031 L 178.28125 56.207031 Z M 187.511719 37.519531 " fill-opacity="1" fill-rule="nonzero"/></g><g clip-path="url(#430c793f5f)"><path fill="#a6a6a6" d="M 266.484375 37.699219 L 275.703125 56.386719 L 296.324219 59.382812 L 281.398438 73.941406 L 284.933594 94.480469 L 266.484375 84.78125 L 248.023438 94.480469 L 251.546875 73.941406 L 236.632812 59.382812 L 257.253906 56.386719 Z M 266.484375 37.699219 " fill-opacity="1" fill-rule="nonzero"/><path fill="#a6a6a6" d="M 266.339844 37.519531 L 275.570312 56.207031 L 296.195312 59.207031 L 281.269531 73.761719 L 284.789062 94.300781 L 266.339844 84.605469 L 247.894531 94.300781 L 251.414062 73.761719 L 236.488281 59.207031 L 257.109375 56.207031 Z M 266.339844 37.519531 " fill-opacity="1" fill-rule="nonzero"/><path fill="#a6a6a6" d="M 266.339844 37.519531 L 275.570312 56.207031 L 296.195312 59.207031 L 281.269531 73.761719 L 284.789062 94.300781 L 266.339844 84.605469 L 247.894531 94.300781 L 251.414062 73.761719 L 236.488281 59.207031 L 257.109375 56.207031 Z M 266.339844 37.519531 " fill-opacity="1" fill-rule="nonzero"/><path fill="#a6a6a6" d="M 266.339844 37.519531 L 275.570312 56.207031 L 296.195312 59.207031 L 281.269531 73.761719 L 284.789062 94.300781 L 266.339844 84.605469 L 247.894531 94.300781 L 251.414062 73.761719 L 236.488281 59.207031 L 257.109375 56.207031 Z M 266.339844 37.519531 " fill-opacity="1" fill-rule="nonzero"/></g><g clip-path="url(#20e6861c8d)"><path fill="#a6a6a6" d="M 345.316406 37.699219 L 354.53125 56.386719 L 375.15625 59.382812 L 360.230469 73.941406 L 363.761719 94.480469 L 345.316406 84.78125 L 326.855469 94.480469 L 330.375 73.941406 L 315.460938 59.382812 L 336.085938 56.386719 Z M 345.316406 37.699219 " fill-opacity="1" fill-rule="nonzero"/><path fill="#a6a6a6" d="M 345.171875 37.519531 L 354.402344 56.207031 L 375.023438 59.207031 L 360.097656 73.761719 L 363.621094 94.300781 L 345.171875 84.605469 L 326.722656 94.300781 L 330.246094 73.761719 L 315.320312 59.207031 L 335.941406 56.207031 Z M 345.171875 37.519531 " fill-opacity="1" fill-rule="nonzero"/><path fill="#a6a6a6" d="M 345.171875 37.519531 L 354.402344 56.207031 L 375.023438 59.207031 L 360.097656 73.761719 L 363.621094 94.300781 L 345.171875 84.605469 L 326.722656 94.300781 L 330.246094 73.761719 L 315.320312 59.207031 L 335.941406 56.207031 Z M 345.171875 37.519531 " fill-opacity="1" fill-rule="nonzero"/><path fill="#a6a6a6" d="M 345.171875 37.519531 L 354.402344 56.207031 L 375.023438 59.207031 L 360.097656 73.761719 L 363.621094 94.300781 L 345.171875 84.605469 L 326.722656 94.300781 L 330.246094 73.761719 L 315.320312 59.207031 L 335.941406 56.207031 Z M 345.171875 37.519531 " fill-opacity="1" fill-rule="nonzero"/></g></svg>