<svg xmlns="http://www.w3.org/2000/svg" xmlns:xlink="http://www.w3.org/1999/xlink" width="500" zoomAndPan="magnify" viewBox="0 0 375 374.999991" height="500" preserveAspectRatio="xMidYMid meet" version="1.0"><defs><clipPath id="299900d489"><path d="M 15.003906 24.457031 L 69.753906 24.457031 L 69.753906 76.957031 L 15.003906 76.957031 Z M 15.003906 24.457031 " clip-rule="nonzero"/></clipPath><clipPath id="50003a585b"><path d="M 56.207031 116.515625 L 318.707031 116.515625 L 318.707031 350.515625 L 56.207031 350.515625 Z M 56.207031 116.515625 " clip-rule="nonzero"/></clipPath><clipPath id="394a0c2266"><path d="M 88.089844 24.457031 L 142.839844 24.457031 L 142.839844 76.957031 L 88.089844 76.957031 Z M 88.089844 24.457031 " clip-rule="nonzero"/></clipPath><clipPath id="c6f252f50c"><path d="M 160.421875 24.457031 L 215.171875 24.457031 L 215.171875 76.957031 L 160.421875 76.957031 Z M 160.421875 24.457031 " clip-rule="nonzero"/></clipPath><clipPath id="be343d69ff"><path d="M 232.753906 24.457031 L 287.503906 24.457031 L 287.503906 76.957031 L 232.753906 76.957031 Z M 232.753906 24.457031 " clip-rule="nonzero"/></clipPath><clipPath id="dde8ff3f82"><path d="M 305.085938 24.457031 L 359.835938 24.457031 L 359.835938 76.957031 L 305.085938 76.957031 Z M 305.085938 24.457031 " clip-rule="nonzero"/></clipPath></defs><g clip-path="url(#299900d489)"><path fill="#a6a6a6" d="M 42.527344 24.640625 L 50.984375 41.789062 L 69.90625 44.539062 L 56.210938 57.894531 L 59.453125 76.738281 L 42.527344 67.84375 L 25.589844 76.738281 L 28.820312 57.894531 L 15.136719 44.539062 L 34.058594 41.789062 Z M 42.527344 24.640625 " fill-opacity="1" fill-rule="nonzero"/><path fill="#a6a6a6" d="M 42.394531 24.476562 L 50.863281 41.625 L 69.785156 44.375 L 56.089844 57.730469 L 59.324219 76.574219 L 42.394531 67.679688 L 25.46875 76.574219 L 28.699219 57.730469 L 15.003906 44.375 L 33.925781 41.625 Z M 42.394531 24.476562 " fill-opacity="1" fill-rule="nonzero"/><path fill="#a6a6a6" d="M 42.394531 24.476562 L 50.863281 41.625 L 69.785156 44.375 L 56.089844 57.730469 L 59.324219 76.574219 L 42.394531 67.679688 L 25.46875 76.574219 L 28.699219 57.730469 L 15.003906 44.375 L 33.925781 41.625 Z M 42.394531 24.476562 " fill-opacity="1" fill-rule="nonzero"/><path fill="#a6a6a6" d="M 42.394531 24.476562 L 50.863281 41.625 L 69.785156 44.375 L 56.089844 57.730469 L 59.324219 76.574219 L 42.394531 67.679688 L 25.46875 76.574219 L 28.699219 57.730469 L 15.003906 44.375 L 33.925781 41.625 Z M 42.394531 24.476562 " fill-opacity="1" fill-rule="nonzero"/></g><g clip-path="url(#50003a585b)"><path fill="#a6a6a6" d="M 303.285156 248.351562 C 303.398438 247.988281 303.699219 247.722656 304.0625 247.660156 C 306.605469 247.242188 308.820312 246.238281 310.707031 244.648438 C 312.207031 243.378906 313.613281 241.492188 314.929688 238.988281 C 317.25 234.570312 318.527344 229.824219 318.761719 224.742188 C 318.78125 224.386719 318.652344 224.320312 318.371094 224.539062 C 313.527344 228.394531 309.03125 232.699219 304.894531 237.445312 C 304.460938 237.941406 304.273438 237.859375 304.332031 237.210938 L 305.347656 225.808594 C 305.378906 225.476562 305.589844 225.1875 305.902344 225.054688 C 309.132812 223.679688 311.46875 221.574219 312.917969 218.742188 C 314.042969 216.550781 314.777344 213.648438 315.125 210.03125 C 315.425781 206.949219 315.210938 203.835938 314.484375 200.695312 C 314.375 200.21875 314.167969 200.171875 313.867188 200.550781 C 310.273438 205.136719 306.996094 209.972656 304.039062 215.058594 C 303.941406 215.226562 303.875 215.210938 303.847656 215.023438 L 302.042969 204.707031 C 301.945312 204.15625 302.101562 203.597656 302.460938 203.199219 C 306.726562 198.472656 308.578125 193.070312 308.015625 187.003906 C 307.710938 183.707031 306.894531 180.386719 305.578125 177.039062 C 305.484375 176.800781 305.371094 176.792969 305.242188 177.007812 C 302.328125 181.859375 299.902344 186.851562 297.949219 191.992188 C 297.851562 192.253906 297.742188 192.257812 297.625 192.003906 L 293.488281 183.035156 C 293.203125 182.425781 293.210938 181.816406 293.5 181.207031 C 295.605469 176.761719 296.402344 172.292969 295.878906 167.808594 C 295.363281 163.339844 293.789062 159.210938 291.152344 155.425781 C 290.878906 155.035156 290.640625 155.054688 290.4375 155.492188 C 290.046875 156.355469 289.734375 157.375 289.503906 158.558594 C 288.734375 162.550781 287.878906 166.707031 286.941406 171.023438 C 286.875 171.324219 286.746094 171.355469 286.550781 171.113281 L 280.066406 162.945312 C 279.652344 162.425781 279.527344 161.867188 279.6875 161.265625 C 281.503906 154.335938 280.765625 147.640625 277.484375 141.183594 C 276.574219 139.394531 275.40625 137.796875 273.976562 136.386719 C 273.777344 136.191406 273.644531 136.230469 273.578125 136.5 C 272.347656 141.597656 271.707031 146.765625 271.660156 152.011719 C 271.660156 152.210938 271.585938 152.238281 271.449219 152.09375 L 263.933594 144.492188 C 263.433594 143.984375 263.234375 143.371094 263.335938 142.65625 C 263.589844 140.878906 263.335938 138.941406 262.578125 136.847656 C 260.105469 129.992188 256 124.515625 250.257812 120.417969 C 249.515625 119.886719 249.167969 120.078125 249.214844 120.988281 C 249.46875 126.195312 250.527344 131.160156 252.390625 135.878906 C 252.542969 136.261719 252.457031 136.324219 252.132812 136.066406 C 249.132812 133.691406 246.109375 131.402344 243.050781 129.191406 C 239.304688 126.484375 236.105469 124.449219 233.453125 123.085938 C 227.601562 120.078125 221.382812 118.019531 214.792969 116.921875 C 213.625 116.730469 212.441406 116.660156 211.246094 116.714844 C 211.007812 116.730469 210.976562 116.816406 211.152344 116.976562 C 214.25 119.90625 217.492188 122.632812 220.875 125.15625 C 225.359375 128.511719 228.636719 130.683594 230.703125 131.671875 C 234.21875 133.359375 238.222656 134.363281 242.714844 134.691406 C 243.59375 134.757812 244.355469 135.050781 244.996094 135.558594 L 250.644531 140.089844 C 251.769531 140.992188 251.617188 141.339844 250.183594 141.132812 C 243.96875 140.246094 238.710938 141.773438 234.40625 145.71875 C 234.386719 145.734375 234.371094 145.753906 234.359375 145.78125 C 234.3125 145.878906 234.355469 146 234.453125 146.046875 C 242.625 150.117188 251.179688 150.679688 260.113281 147.738281 C 260.507812 147.609375 260.9375 147.699219 261.222656 147.980469 L 268.460938 155.09375 C 269.066406 155.6875 268.957031 155.871094 268.136719 155.648438 C 267.382812 155.4375 266.660156 155.25 265.960938 155.078125 C 265.21875 154.894531 264.480469 154.800781 263.746094 154.800781 C 259.601562 154.800781 255.320312 155.351562 250.910156 156.457031 C 250.660156 156.519531 250.636719 156.628906 250.839844 156.789062 C 258.640625 162.605469 267.242188 165.40625 276.644531 165.195312 C 276.832031 165.191406 277.011719 165.265625 277.136719 165.40625 C 279.570312 168.101562 281.683594 171.035156 283.480469 174.203125 C 283.574219 174.371094 283.53125 174.421875 283.34375 174.351562 C 277.34375 172.089844 271.132812 170.746094 264.710938 170.320312 C 264.351562 170.296875 264.28125 170.429688 264.496094 170.710938 C 265.847656 172.484375 267.335938 174.1875 268.960938 175.824219 C 274.042969 180.960938 280.777344 183.902344 289.167969 184.648438 C 289.386719 184.667969 289.582031 184.796875 289.691406 184.988281 C 291.511719 188.292969 293.085938 191.621094 294.410156 194.96875 C 294.480469 195.144531 294.429688 195.183594 294.261719 195.082031 C 291.023438 193.089844 287.570312 191.59375 283.90625 190.597656 C 281.6875 189.996094 279.496094 189.410156 277.339844 188.84375 C 276.808594 188.703125 276.679688 188.867188 276.960938 189.339844 C 278.28125 191.5625 279.746094 193.671875 281.363281 195.667969 C 283.265625 198.019531 285.097656 199.789062 286.863281 200.984375 C 289.90625 203.035156 293.472656 204.316406 297.570312 204.828125 C 297.984375 204.878906 298.3125 205.179688 298.378906 205.5625 L 300.074219 215.589844 C 300.132812 215.941406 300.027344 216 299.75 215.761719 C 295.488281 212.085938 290.664062 209.433594 285.273438 207.804688 C 285.246094 207.796875 285.21875 207.796875 285.191406 207.800781 C 285.085938 207.816406 285.015625 207.910156 285.03125 208.011719 C 286.136719 215.585938 290.128906 220.988281 297.003906 224.222656 C 298.191406 224.78125 299.515625 225.132812 300.972656 225.277344 C 301.140625 225.292969 301.265625 225.441406 301.253906 225.609375 L 300.578125 236.542969 C 300.539062 237.234375 300.316406 237.304688 299.910156 236.746094 C 296.972656 232.667969 293.277344 229.117188 288.8125 226.089844 C 288.769531 226.0625 288.722656 226.042969 288.675781 226.042969 C 288.519531 226.027344 288.382812 226.144531 288.371094 226.300781 C 288.195312 228.472656 288.175781 230.730469 288.300781 233.082031 C 288.410156 235.183594 288.882812 237.039062 289.714844 238.660156 C 291.742188 242.585938 294.667969 245.421875 298.503906 247.164062 C 298.898438 247.34375 299.109375 247.777344 299.007812 248.199219 C 298.089844 251.917969 296.9375 255.535156 295.546875 259.042969 C 295.324219 259.601562 295.148438 259.589844 295.015625 259.007812 C 294.242188 255.667969 292.96875 252.378906 291.191406 249.144531 C 290.058594 247.074219 288.890625 245.472656 287.683594 244.355469 C 287.664062 244.332031 287.636719 244.320312 287.609375 244.308594 C 287.511719 244.28125 287.402344 244.339844 287.371094 244.441406 C 286.339844 247.558594 285.75 250.761719 285.59375 254.050781 C 285.328125 259.519531 287.074219 264.210938 290.832031 268.121094 C 291.042969 268.34375 291.09375 268.667969 290.960938 268.925781 L 286.132812 277.878906 C 285.984375 278.148438 285.890625 278.132812 285.84375 277.824219 C 284.988281 272.632812 283.308594 267.859375 280.804688 263.5 C 280.476562 262.929688 280.183594 262.945312 279.925781 263.550781 C 278.40625 267.113281 277.46875 270.988281 277.113281 275.179688 C 276.785156 279.054688 277.597656 282.820312 279.550781 286.484375 C 279.941406 287.214844 279.890625 287.867188 279.398438 288.445312 L 272.480469 296.597656 C 272.328125 296.773438 272.253906 296.742188 272.257812 296.503906 C 272.316406 291.488281 271.648438 286.441406 270.253906 281.359375 C 270.246094 281.320312 270.222656 281.285156 270.195312 281.253906 C 270.097656 281.148438 269.9375 281.140625 269.835938 281.234375 C 268.835938 282.136719 268.058594 283.0625 267.503906 284.007812 C 265.699219 287.082031 264.316406 290.332031 263.355469 293.761719 C 262.457031 296.953125 262.398438 300.160156 263.179688 303.375 C 263.222656 303.554688 263.167969 303.742188 263.035156 303.867188 C 260.050781 306.640625 256.960938 309.125 253.757812 311.320312 C 253.4375 311.539062 253.339844 311.46875 253.472656 311.097656 C 254.257812 308.949219 254.691406 306.867188 254.769531 304.847656 C 254.878906 301.832031 254.753906 298.832031 254.390625 295.847656 C 254.328125 295.324219 254.09375 295.234375 253.695312 295.566406 C 248.21875 300.171875 244.753906 305.992188 243.296875 313.023438 C 243.140625 313.78125 243.039062 314.757812 242.996094 315.949219 C 242.984375 316.226562 242.835938 316.472656 242.601562 316.597656 L 233.113281 321.824219 C 232.707031 322.050781 232.621094 321.960938 232.867188 321.558594 C 235.773438 316.796875 237.226562 311.632812 237.226562 306.0625 C 237.226562 306.039062 237.222656 306.015625 237.214844 305.992188 C 237.179688 305.871094 237.054688 305.800781 236.933594 305.835938 C 235.679688 306.191406 234.523438 306.765625 233.472656 307.554688 C 228.359375 311.390625 224.332031 316.292969 221.40625 322.261719 C 221.273438 322.535156 221.042969 322.75 220.761719 322.859375 C 210.847656 326.808594 200.738281 329.355469 190.445312 330.496094 C 188.324219 330.734375 186.207031 330.707031 184.09375 330.421875 C 173.949219 329.035156 164.109375 326.527344 154.570312 322.90625 C 153.933594 322.660156 153.453125 322.238281 153.132812 321.640625 C 150.832031 317.378906 148 313.515625 144.632812 310.046875 C 142.859375 308.21875 140.765625 306.828125 138.339844 305.871094 C 138.253906 305.835938 138.160156 305.820312 138.066406 305.828125 C 137.742188 305.859375 137.5 306.148438 137.53125 306.472656 C 138.035156 312.019531 139.570312 317.054688 142.132812 321.570312 C 142.347656 321.957031 142.28125 322.015625 141.925781 321.753906 C 139.238281 319.761719 136.21875 317.941406 132.863281 316.289062 C 132.683594 316.199219 132.570312 316.019531 132.5625 315.824219 C 132.519531 314.394531 132.292969 313.015625 131.878906 311.683594 C 130.421875 307.027344 128.152344 302.8125 125.070312 299.039062 C 123.90625 297.617188 122.597656 296.4375 121.140625 295.5 C 121.082031 295.464844 121.015625 295.441406 120.941406 295.433594 C 120.707031 295.417969 120.5 295.59375 120.480469 295.832031 C 120.253906 298.777344 120.226562 301.625 120.402344 304.382812 C 120.546875 306.640625 121.058594 308.8125 121.9375 310.898438 C 122.191406 311.496094 122.066406 311.59375 121.566406 311.195312 L 112.550781 303.992188 C 112.417969 303.886719 112.367188 303.703125 112.417969 303.523438 C 113.019531 301.367188 113.238281 299.636719 113.074219 298.339844 C 112.273438 292.097656 109.855469 286.492188 105.8125 281.523438 C 105.285156 280.875 104.929688 280.957031 104.746094 281.769531 C 103.640625 286.585938 103.152344 291.535156 103.292969 296.613281 C 103.296875 296.878906 103.210938 296.914062 103.039062 296.71875 L 95.234375 287.996094 C 95.003906 287.730469 94.972656 287.332031 95.160156 287 C 97.675781 282.605469 98.507812 278.050781 97.660156 273.332031 C 97.3125 271.402344 96.8125 269.578125 96.15625 267.863281 C 95.476562 266.070312 94.542969 264.410156 93.355469 262.871094 C 93.339844 262.851562 93.316406 262.835938 93.292969 262.820312 C 93.199219 262.777344 93.089844 262.8125 93.046875 262.902344 C 90.898438 267.3125 89.453125 272.308594 88.710938 277.890625 C 88.644531 278.390625 88.488281 278.425781 88.253906 277.984375 L 83.375 268.929688 C 83.292969 268.769531 83.316406 268.574219 83.433594 268.425781 C 85.226562 266.183594 86.480469 264.472656 87.199219 263.304688 C 88.3125 261.480469 88.964844 259.273438 89.152344 256.683594 C 89.453125 252.582031 88.890625 248.539062 87.472656 244.566406 C 87.304688 244.109375 87.074219 244.074219 86.78125 244.46875 C 83.453125 248.886719 81.050781 253.699219 79.5625 258.90625 C 79.445312 259.320312 79.308594 259.324219 79.160156 258.917969 C 77.792969 255.207031 76.679688 251.519531 75.824219 247.847656 C 75.734375 247.46875 75.914062 247.074219 76.265625 246.898438 C 80.398438 244.820312 83.417969 242 85.320312 238.441406 C 86.070312 237.039062 86.5 235.542969 86.617188 233.957031 C 86.792969 231.5 86.847656 228.902344 86.78125 226.160156 C 86.773438 225.851562 86.648438 225.789062 86.398438 225.96875 C 81.988281 229.152344 78.109375 232.953125 74.753906 237.375 C 74.625 237.542969 74.554688 237.527344 74.542969 237.316406 L 73.835938 225.679688 C 73.820312 225.445312 73.988281 225.230469 74.230469 225.171875 C 83.453125 222.902344 88.800781 217.175781 90.253906 207.996094 C 90.257812 207.96875 90.257812 207.941406 90.246094 207.914062 C 90.214844 207.816406 90.113281 207.765625 90.015625 207.796875 C 84.746094 209.4375 79.996094 211.902344 75.769531 215.191406 C 75.378906 215.492188 75.214844 215.398438 75.273438 214.910156 C 75.652344 211.628906 76.257812 208.390625 77.085938 205.1875 C 77.175781 204.828125 77.5 204.574219 77.875 204.566406 C 80.203125 204.519531 82.417969 203.949219 84.511719 202.847656 C 90.4375 199.734375 94.949219 195.199219 98.058594 189.242188 C 98.195312 188.972656 98.117188 188.867188 97.820312 188.925781 C 91.988281 190.039062 86.34375 192.078125 80.890625 195.035156 C 80.441406 195.277344 80.304688 195.160156 80.476562 194.679688 C 81.621094 191.511719 83.066406 188.289062 84.820312 185.003906 C 84.925781 184.804688 85.128906 184.667969 85.355469 184.644531 C 93.503906 183.890625 100.039062 181.027344 104.960938 176.066406 C 106.660156 174.355469 108.234375 172.53125 109.6875 170.597656 C 109.847656 170.382812 109.792969 170.285156 109.53125 170.308594 C 105.367188 170.6875 101.25 171.347656 97.171875 172.289062 C 95.40625 172.699219 93.714844 173.320312 92.101562 174.15625 C 91.421875 174.503906 91.269531 174.347656 91.644531 173.679688 C 93.261719 170.789062 95.234375 168.03125 97.5625 165.402344 C 97.683594 165.265625 97.867188 165.1875 98.058594 165.191406 C 107.273438 165.429688 115.484375 162.636719 122.679688 156.816406 C 123.140625 156.445312 123.082031 156.199219 122.503906 156.082031 C 121.292969 155.839844 120 155.628906 118.628906 155.449219 C 118.570312 155.441406 117.4375 155.265625 115.226562 154.917969 C 112.140625 154.433594 109.074219 154.605469 106.019531 155.425781 C 105.828125 155.476562 105.800781 155.433594 105.925781 155.292969 C 108.464844 152.445312 111.261719 149.882812 114.3125 147.601562 C 114.464844 147.488281 114.660156 147.457031 114.832031 147.519531 C 122.988281 150.292969 131.1875 149.78125 139.433594 145.988281 C 139.464844 145.976562 139.492188 145.957031 139.519531 145.933594 C 139.652344 145.8125 139.660156 145.605469 139.539062 145.472656 C 135.925781 141.601562 131.535156 140.03125 126.363281 140.753906 C 125.421875 140.886719 124.488281 140.910156 123.558594 140.816406 C 123.359375 140.792969 123.34375 140.722656 123.503906 140.59375 C 126.03125 138.640625 128.632812 136.796875 131.304688 135.058594 C 132.074219 134.558594 132.914062 134.261719 133.828125 134.171875 C 135.226562 134.03125 136.628906 133.921875 138.035156 133.835938 C 139.96875 133.722656 142.269531 132.917969 144.9375 131.429688 C 148.96875 129.1875 152.742188 126.566406 156.25 123.5625 C 158.742188 121.429688 161.347656 119.21875 164.066406 116.929688 C 164.355469 116.691406 164.3125 116.566406 163.933594 116.566406 C 162.105469 116.554688 160.550781 116.671875 159.28125 116.914062 C 149.464844 118.816406 140.550781 122.730469 132.535156 128.660156 C 128.960938 131.304688 125.421875 133.992188 121.90625 136.714844 C 121.757812 136.839844 121.722656 136.8125 121.796875 136.632812 C 123.914062 131.671875 125.210938 126.277344 125.679688 120.449219 C 125.71875 120.046875 125.5625 119.960938 125.226562 120.183594 C 119.046875 124.277344 114.601562 129.910156 111.894531 137.085938 C 111.269531 138.746094 111.109375 140.859375 111.417969 143.429688 C 111.441406 143.625 111.378906 143.808594 111.246094 143.9375 L 103.214844 151.878906 C 102.976562 152.113281 102.863281 152.0625 102.871094 151.726562 C 102.976562 146.417969 102.46875 141.589844 101.347656 137.253906 C 101.164062 136.542969 100.847656 136.480469 100.402344 137.066406 C 95.175781 143.953125 93.417969 151.953125 95.125 161.066406 C 95.238281 161.695312 95.085938 162.253906 94.667969 162.738281 C 92.46875 165.269531 90.296875 168.152344 88.160156 171.386719 C 87.898438 171.777344 87.730469 171.738281 87.648438 171.273438 L 84.917969 156 C 84.765625 155.136719 84.433594 155.066406 83.917969 155.785156 C 78.554688 163.351562 77.652344 171.734375 81.207031 180.933594 C 81.546875 181.808594 81.519531 182.671875 81.125 183.511719 L 77.070312 192.160156 C 76.910156 192.496094 76.773438 192.488281 76.652344 192.136719 C 74.859375 187.03125 72.425781 182.257812 69.355469 177.820312 C 69.242188 177.660156 69.148438 177.675781 69.078125 177.859375 C 68.007812 180.652344 67.367188 183.796875 67.15625 187.292969 C 66.792969 193.449219 68.519531 198.632812 72.347656 202.855469 C 72.894531 203.460938 73.097656 204.179688 72.957031 205.019531 L 71.410156 214.070312 C 71.292969 214.75 71.054688 214.800781 70.695312 214.21875 C 67.738281 209.402344 64.441406 204.796875 60.8125 200.40625 C 60.683594 200.253906 60.597656 200.273438 60.558594 200.464844 C 59.214844 206.957031 59.996094 213.164062 62.894531 219.089844 C 64.222656 221.796875 66.40625 223.734375 69.449219 224.894531 C 69.660156 224.972656 69.808594 225.179688 69.824219 225.414062 L 70.421875 237.476562 C 70.457031 238.199219 70.261719 238.269531 69.839844 237.6875 C 66.152344 232.585938 61.761719 228.105469 56.664062 224.25 C 56.359375 224.019531 56.214844 224.09375 56.226562 224.476562 C 56.359375 229.484375 57.484375 234.132812 59.59375 238.421875 C 60.972656 241.226562 62.785156 243.507812 65.035156 245.269531 C 65.863281 245.910156 66.773438 246.410156 67.765625 246.769531 C 68.75 247.125 69.757812 247.390625 70.789062 247.574219 C 71.167969 247.640625 71.480469 247.914062 71.59375 248.277344 L 74.839844 258.984375 C 74.992188 259.472656 74.851562 259.570312 74.429688 259.273438 C 70.757812 256.695312 67.066406 254.246094 63.355469 251.9375 C 61.589844 250.832031 60.109375 250.050781 58.914062 249.601562 C 58.722656 249.527344 58.648438 249.589844 58.683594 249.792969 C 60.136719 257.542969 64.035156 263.511719 70.375 267.707031 C 71.8125 268.65625 73.195312 269.34375 74.523438 269.773438 C 76.027344 270.257812 77.570312 270.523438 79.148438 270.570312 C 79.402344 270.582031 79.632812 270.722656 79.753906 270.945312 L 84.882812 280.1875 C 85.171875 280.710938 85.046875 280.84375 84.503906 280.585938 C 78.90625 277.953125 73.007812 275.625 66.796875 273.605469 C 66.558594 273.527344 66.488281 273.605469 66.589844 273.835938 C 68.253906 277.621094 70.496094 280.878906 73.316406 283.613281 C 77.988281 288.128906 83.835938 290.117188 90.863281 289.574219 C 91.121094 289.554688 91.371094 289.65625 91.535156 289.84375 L 99.90625 299.382812 C 100.027344 299.527344 100.070312 299.6875 100.011719 299.773438 C 99.953125 299.851562 99.835938 299.855469 99.660156 299.785156 C 96.140625 298.324219 92.496094 297.339844 88.726562 296.832031 C 86.027344 296.464844 83.328125 296.105469 80.632812 295.757812 C 80.4375 295.730469 80.394531 295.796875 80.503906 295.957031 C 82.289062 298.515625 84.574219 300.847656 87.355469 302.953125 C 91.394531 306.007812 95.832031 307.808594 100.667969 308.355469 C 103.542969 308.679688 106.285156 308.320312 108.894531 307.277344 C 109.183594 307.160156 109.511719 307.191406 109.769531 307.367188 C 113.101562 309.582031 116.285156 311.980469 119.328125 314.554688 C 120.089844 315.199219 119.988281 315.394531 119.023438 315.140625 C 117.464844 314.726562 115.882812 314.585938 114.277344 314.71875 C 110.304688 315.050781 106.121094 315.644531 101.71875 316.496094 C 101.449219 316.546875 101.417969 316.664062 101.628906 316.839844 C 104.136719 318.898438 106.800781 320.558594 109.621094 321.8125 C 112.738281 323.203125 115.742188 323.925781 118.628906 323.976562 C 122.941406 324.054688 126.964844 322.800781 130.703125 320.21875 C 130.855469 320.113281 131.050781 320.09375 131.214844 320.171875 C 134.632812 321.746094 137.910156 323.488281 141.050781 325.398438 C 141.839844 325.878906 141.777344 326.160156 140.855469 326.25 C 135.351562 326.761719 130.125 328.21875 125.1875 330.625 C 124.746094 330.839844 124.746094 331.054688 125.1875 331.269531 C 129.804688 333.484375 134.679688 334.632812 139.8125 334.710938 C 144.964844 334.785156 149.3125 333.242188 152.855469 330.074219 C 153.230469 329.742188 153.753906 329.625 154.242188 329.769531 C 162.832031 332.320312 171.125 334.339844 179.128906 335.824219 C 180.195312 336.023438 180.199219 336.238281 179.140625 336.472656 C 170.671875 338.332031 163.667969 342.746094 158.128906 349.707031 C 157.6875 350.265625 157.820312 350.503906 158.523438 350.410156 C 163.863281 349.75 168.730469 348.386719 173.128906 346.328125 C 177.910156 344.078125 182.480469 341.386719 186.832031 338.246094 C 186.980469 338.140625 187.179688 338.140625 187.324219 338.246094 C 194.675781 343.503906 202.71875 347.300781 211.453125 349.632812 C 212.609375 349.941406 213.871094 350.121094 215.246094 350.179688 C 215.679688 350.191406 215.765625 350.027344 215.507812 349.683594 C 212.191406 345.257812 207.996094 341.726562 202.917969 339.089844 C 200.761719 337.972656 198.476562 337.167969 196.070312 336.679688 C 194.710938 336.410156 194.714844 336.164062 196.085938 335.941406 C 204.640625 334.570312 213.097656 332.414062 221.457031 329.480469 C 221.621094 329.417969 221.8125 329.464844 221.945312 329.59375 C 225.511719 333.113281 229.734375 334.851562 234.617188 334.808594 C 240.238281 334.761719 245.410156 333.417969 250.132812 330.773438 C 250.652344 330.484375 250.636719 330.21875 250.089844 329.980469 C 244.789062 327.621094 239.3125 326.328125 233.660156 326.109375 C 233.035156 326.082031 233.007812 325.933594 233.570312 325.660156 L 244.628906 320.296875 C 244.902344 320.167969 245.21875 320.183594 245.464844 320.351562 C 248.617188 322.46875 251.976562 323.640625 255.546875 323.859375 C 258.570312 324.046875 261.753906 323.417969 265.101562 321.972656 C 268.046875 320.703125 270.875 318.996094 273.59375 316.84375 C 273.851562 316.636719 273.820312 316.496094 273.5 316.410156 C 267.5 314.839844 261.675781 314.316406 256.027344 314.84375 C 255.820312 314.867188 255.796875 314.816406 255.964844 314.691406 L 265.828125 307.363281 C 265.96875 307.257812 266.164062 307.222656 266.359375 307.273438 C 274.113281 309.269531 281.214844 307.878906 287.664062 303.09375 C 290.40625 301.058594 292.65625 298.71875 294.410156 296.070312 C 294.515625 295.90625 294.46875 295.832031 294.273438 295.851562 C 291.40625 296.15625 288.550781 296.503906 285.695312 296.894531 C 282.34375 297.355469 279.09375 298.226562 275.957031 299.511719 C 275.347656 299.765625 275.238281 299.628906 275.636719 299.097656 C 277.929688 296.0625 280.609375 292.957031 283.683594 289.785156 C 283.898438 289.558594 284.203125 289.441406 284.515625 289.460938 C 290.03125 289.800781 294.847656 288.257812 298.957031 284.835938 C 302.488281 281.894531 305.222656 278.332031 307.160156 274.144531 C 307.335938 273.761719 307.230469 273.644531 306.839844 273.789062 L 290.238281 280.046875 C 289.867188 280.1875 289.78125 280.09375 289.976562 279.761719 L 295.449219 270.625 C 295.582031 270.40625 295.832031 270.277344 296.113281 270.277344 C 298.117188 270.285156 299.988281 269.855469 301.730469 268.992188 C 309.425781 265.140625 314.203125 258.847656 316.054688 250.117188 C 316.15625 249.640625 315.996094 249.519531 315.566406 249.765625 C 310.457031 252.722656 305.519531 255.832031 300.757812 259.101562 C 300.117188 259.539062 299.910156 259.382812 300.140625 258.632812 Z M 303.285156 248.351562 " fill-opacity="1" fill-rule="nonzero"/></g><path fill="#a6a6a6" d="M 190.886719 161.847656 C 191.339844 162.035156 191.765625 162.265625 192.171875 162.535156 C 192.578125 162.804688 192.953125 163.113281 193.300781 163.460938 C 193.644531 163.804688 193.953125 164.179688 194.226562 164.585938 C 194.496094 164.992188 194.726562 165.421875 194.914062 165.875 C 195.097656 166.324219 195.242188 166.789062 195.335938 167.269531 C 195.429688 167.746094 195.480469 168.230469 195.480469 168.71875 C 195.480469 169.207031 195.429688 169.691406 195.335938 170.171875 C 195.242188 170.648438 195.097656 171.113281 194.914062 171.566406 C 194.726562 172.015625 194.496094 172.445312 194.226562 172.851562 C 193.953125 173.257812 193.644531 173.632812 193.300781 173.980469 C 192.953125 174.324219 192.578125 174.632812 192.171875 174.902344 C 191.765625 175.175781 191.339844 175.402344 190.886719 175.589844 C 190.4375 175.777344 189.972656 175.917969 189.492188 176.015625 C 189.011719 176.109375 188.527344 176.15625 188.039062 176.15625 C 187.550781 176.15625 187.070312 176.109375 186.589844 176.015625 C 186.109375 175.917969 185.644531 175.777344 185.195312 175.589844 C 184.742188 175.402344 184.316406 175.175781 183.910156 174.902344 C 183.503906 174.632812 183.125 174.324219 182.78125 173.980469 C 182.4375 173.632812 182.128906 173.257812 181.855469 172.851562 C 181.585938 172.445312 181.355469 172.015625 181.167969 171.566406 C 180.984375 171.113281 180.839844 170.648438 180.746094 170.171875 C 180.652344 169.691406 180.601562 169.207031 180.601562 168.71875 C 180.601562 168.230469 180.652344 167.746094 180.746094 167.269531 C 180.839844 166.789062 180.984375 166.324219 181.167969 165.875 C 181.355469 165.421875 181.585938 164.992188 181.855469 164.585938 C 182.128906 164.179688 182.4375 163.804688 182.78125 163.460938 C 183.128906 163.113281 183.503906 162.804688 183.910156 162.535156 C 184.316406 162.265625 184.742188 162.035156 185.195312 161.847656 C 185.644531 161.660156 186.109375 161.519531 186.589844 161.425781 C 187.070312 161.328125 187.550781 161.28125 188.039062 161.28125 C 188.53125 161.28125 189.011719 161.328125 189.492188 161.425781 C 189.972656 161.519531 190.4375 161.660156 190.886719 161.847656 Z M 190.886719 161.847656 " fill-opacity="1" fill-rule="nonzero"/><path fill="#a6a6a6" d="M 266.28125 254.882812 C 266.109375 254.792969 265.984375 254.636719 265.933594 254.449219 C 264.644531 249.460938 263.203125 244.554688 261.617188 239.722656 C 257.34375 226.738281 252.976562 213.78125 248.515625 200.851562 C 248.152344 199.785156 247.832031 198.929688 247.5625 198.285156 C 248.933594 197.285156 249.832031 195.671875 249.832031 193.847656 C 249.832031 191.886719 248.800781 190.167969 247.253906 189.199219 C 247.519531 189.136719 247.765625 189.066406 248 188.992188 C 250.570312 188.535156 252.527344 186.292969 252.527344 183.589844 C 252.527344 181.632812 251.503906 179.921875 249.964844 178.949219 C 249.230469 178.425781 248.425781 178.144531 247.546875 178.101562 C 248.21875 178.882812 248.660156 179.863281 248.765625 180.9375 C 249.089844 184.210938 246.363281 186.9375 243.089844 186.613281 C 242.84375 186.589844 242.609375 186.542969 242.371094 186.484375 C 242.382812 186.503906 242.394531 186.519531 242.40625 186.539062 C 226.722656 183.816406 211.078125 181.242188 195.480469 178.828125 C 190.449219 178.050781 185.523438 178.019531 180.703125 178.738281 C 166.101562 180.914062 150.5625 183.542969 134.09375 186.628906 C 134.101562 186.617188 134.105469 186.605469 134.113281 186.59375 C 133.722656 186.644531 133.320312 186.652344 132.910156 186.609375 C 130.488281 186.371094 128.527344 184.414062 128.289062 181.992188 C 128.140625 180.5 128.628906 179.125 129.511719 178.09375 C 129.121094 178.09375 128.742188 178.140625 128.375 178.214844 C 128.195312 178.25 128.015625 178.285156 127.832031 178.339844 C 126.710938 178.640625 125.828125 179.273438 125.179688 180.226562 C 124.457031 181.15625 124.023438 182.320312 124.023438 183.585938 C 124.023438 183.640625 124.03125 183.695312 124.03125 183.75 C 123.976562 184.96875 124.316406 186.042969 125.066406 186.96875 C 125.828125 187.914062 126.804688 188.621094 127.992188 189.097656 C 126.359375 190.050781 125.253906 191.816406 125.253906 193.84375 C 125.253906 195.882812 126.367188 197.660156 128.019531 198.605469 C 126.601562 203.226562 125.0625 207.828125 123.398438 212.40625 C 120.03125 221.660156 116.773438 230.953125 113.621094 240.28125 C 111.507812 246.535156 110.054688 251.410156 109.257812 254.902344 C 109.21875 255.070312 109.074219 255.195312 108.894531 255.207031 C 107.550781 255.316406 106.773438 256.015625 106.570312 257.300781 C 106.210938 259.535156 106.992188 261.070312 108.914062 261.898438 C 109.269531 262.054688 109.789062 262.140625 110.472656 262.164062 C 111.011719 262.1875 111.546875 262.253906 112.074219 262.367188 C 112.257812 262.40625 112.433594 262.503906 112.570312 262.644531 C 113.488281 263.605469 114.394531 264.578125 115.289062 265.5625 C 117.539062 268.046875 120.167969 269.777344 123.179688 270.75 C 125.875 271.621094 128.902344 271.964844 132.277344 271.785156 C 138.820312 271.425781 144.109375 268.4375 148.148438 262.824219 C 148.261719 262.667969 148.4375 262.570312 148.617188 262.5625 C 149.085938 262.542969 149.558594 262.542969 150.027344 262.5625 C 150.71875 262.59375 151.277344 262.542969 151.699219 262.421875 C 154.433594 261.636719 155.472656 259.796875 154.824219 256.898438 C 154.722656 256.425781 154.558594 256.058594 154.328125 255.804688 C 154.015625 255.449219 153.640625 255.253906 153.207031 255.214844 C 152.867188 255.1875 152.582031 254.945312 152.492188 254.613281 C 151.148438 249.386719 149.707031 244.390625 148.167969 239.621094 C 143.78125 226.027344 139.148438 212.511719 134.277344 199.082031 C 134.195312 198.855469 134.070312 198.605469 133.914062 198.332031 C 135.320312 197.335938 136.242188 195.699219 136.242188 193.847656 C 136.242188 191.902344 135.226562 190.195312 133.703125 189.21875 C 137.390625 188.734375 142.421875 187.996094 148.804688 187.007812 C 160.21875 185.246094 171.492188 183.457031 182.621094 181.644531 C 182.636719 181.640625 182.652344 181.640625 182.667969 181.640625 C 182.953125 181.625 183.195312 181.839844 183.210938 182.121094 C 184.230469 204.167969 184.6875 226.226562 184.582031 248.289062 C 184.5625 252.640625 184.484375 256.578125 184.351562 260.09375 C 184.054688 267.769531 183.625 274.023438 183.066406 278.855469 C 182.511719 283.597656 181.773438 287.929688 180.847656 291.847656 C 180.085938 295.070312 179.007812 298.25 177.605469 301.398438 C 176.210938 304.53125 174.707031 307.078125 173.09375 309.042969 C 171.1875 311.351562 168.9375 313.332031 166.34375 314.976562 C 163.648438 316.691406 160.910156 318.347656 158.140625 319.945312 C 157.144531 320.519531 157.210938 320.90625 158.347656 321.101562 C 167.972656 322.753906 177.339844 322.605469 186.445312 320.652344 C 187.320312 320.46875 188.195312 320.457031 189.082031 320.617188 C 198.324219 322.324219 207.300781 322.578125 216.003906 321.378906 C 217.433594 321.183594 217.574219 320.644531 216.429688 319.765625 C 215.457031 319.023438 214.269531 318.285156 212.867188 317.558594 C 208.34375 315.203125 204.648438 312.050781 201.78125 308.097656 C 199.878906 305.484375 198.183594 301.953125 196.695312 297.503906 C 194.992188 292.421875 193.847656 287.386719 193.257812 282.394531 C 191.324219 265.996094 190.503906 248.816406 190.800781 230.855469 C 191.070312 214.5625 191.542969 198.273438 192.214844 181.984375 C 192.214844 181.972656 192.214844 181.960938 192.214844 181.949219 C 192.238281 181.804688 192.371094 181.707031 192.515625 181.730469 L 241.335938 189.242188 C 239.839844 190.222656 238.847656 191.910156 238.847656 193.832031 C 238.847656 195.796875 239.878906 197.511719 241.429688 198.484375 C 241.40625 198.53125 241.378906 198.582031 241.363281 198.625 C 238.167969 207.878906 234.929688 217.121094 231.652344 226.351562 C 228.710938 234.632812 225.980469 242.984375 223.457031 251.402344 C 223.167969 252.363281 222.933594 253.445312 222.746094 254.640625 C 222.714844 254.828125 222.589844 254.984375 222.414062 255.050781 C 220.585938 255.734375 219.726562 256.867188 219.832031 258.445312 C 219.914062 259.6875 220.410156 260.699219 221.324219 261.480469 C 222.277344 262.308594 223.5 262.585938 224.980469 262.3125 C 225.558594 262.207031 226.148438 262.410156 226.535156 262.851562 C 227.609375 264.074219 228.699219 265.214844 229.800781 266.277344 C 231.09375 267.53125 232.34375 268.484375 233.546875 269.144531 C 236.523438 270.773438 239.925781 271.644531 243.757812 271.761719 C 251.660156 271.992188 257.757812 269.070312 262.046875 263 C 262.152344 262.847656 262.324219 262.757812 262.503906 262.757812 C 264.007812 262.773438 265.355469 262.425781 266.539062 261.71875 C 267.824219 260.949219 268.550781 259.925781 268.726562 258.640625 C 268.9375 257.058594 268.125 255.800781 266.28125 254.882812 Z M 154.121094 258.074219 C 154.128906 258.027344 154.128906 257.980469 154.132812 257.9375 C 154.128906 257.984375 154.128906 258.027344 154.121094 258.074219 C 154.121094 258.101562 154.117188 258.128906 154.109375 258.15625 C 154.117188 258.132812 154.121094 258.101562 154.121094 258.074219 Z M 154.011719 257.367188 C 153.976562 257.324219 153.941406 257.300781 153.898438 257.296875 C 153.9375 257.300781 153.976562 257.324219 154.011719 257.367188 Z M 153.722656 258.785156 C 153.652344 258.777344 153.59375 258.714844 153.554688 258.609375 C 153.597656 258.714844 153.65625 258.777344 153.722656 258.785156 Z M 129.417969 257.703125 C 129.417969 257.703125 129.417969 257.707031 129.417969 257.707031 C 129.417969 257.867188 129.289062 257.996094 129.132812 257.996094 L 114.511719 258.027344 C 114.128906 258.03125 113.796875 257.746094 113.734375 257.359375 C 113.5625 256.238281 113.121094 255.484375 112.417969 255.097656 C 112.367188 255.070312 112.175781 255.039062 111.84375 255.003906 L 110.695312 254.886719 C 110.679688 254.882812 110.667969 254.882812 110.65625 254.878906 C 110.515625 254.835938 110.445312 254.667969 110.488281 254.503906 C 113.023438 245.144531 115.964844 235.914062 119.316406 226.816406 C 122.476562 218.25 125.515625 209.640625 128.441406 200.992188 C 128.660156 200.34375 128.960938 199.726562 129.347656 199.148438 C 129.515625 199.191406 129.683594 199.230469 129.859375 199.257812 C 129.859375 199.273438 129.859375 199.285156 129.859375 199.304688 C 129.359375 218.714844 129.210938 238.183594 129.417969 257.703125 Z M 151.34375 254.390625 C 151.34375 254.394531 151.34375 254.394531 151.34375 254.398438 C 151.382812 254.554688 151.292969 254.710938 151.136719 254.75 C 150.613281 254.882812 150.085938 254.984375 149.558594 255.066406 C 148.308594 255.253906 147.664062 256 147.621094 257.304688 C 147.605469 257.710938 147.273438 258.035156 146.863281 258.035156 L 130.671875 258 C 130.664062 258 130.65625 258 130.648438 258 C 130.496094 257.988281 130.386719 257.855469 130.398438 257.707031 C 130.429688 257.351562 130.476562 257 130.535156 256.648438 C 130.601562 256.253906 130.636719 255.898438 130.636719 255.582031 C 130.714844 239.023438 130.871094 222.464844 131.101562 205.910156 C 131.136719 203.707031 131.214844 201.507812 131.339844 199.304688 C 131.839844 199.253906 132.316406 199.128906 132.765625 198.949219 C 132.871094 199.078125 132.957031 199.222656 133.015625 199.378906 C 139.984375 217.59375 146.089844 235.933594 151.34375 254.390625 Z M 244.332031 204.136719 C 244.179688 222.015625 244.144531 239.902344 244.230469 257.78125 C 244.230469 257.941406 244.097656 258.070312 243.933594 258.070312 L 227.835938 258.035156 C 227.515625 258.035156 227.253906 257.785156 227.246094 257.46875 C 227.214844 256.515625 226.785156 255.734375 225.945312 255.132812 C 225.855469 255.066406 225.675781 255.015625 225.40625 254.984375 L 224.277344 254.835938 C 224.273438 254.835938 224.273438 254.835938 224.269531 254.835938 C 224.121094 254.8125 224.019531 254.640625 224.046875 254.453125 C 224.484375 251.839844 225.195312 248.996094 226.179688 245.925781 C 231.421875 229.574219 236.867188 214.101562 242.519531 199.511719 C 242.578125 199.347656 242.644531 199.214844 242.710938 199.09375 C 243.140625 199.226562 243.597656 199.304688 244.070312 199.324219 C 244.265625 199.871094 244.351562 201.476562 244.332031 204.136719 Z M 262.917969 257.703125 C 262.925781 257.570312 262.953125 257.453125 262.996094 257.34375 C 262.953125 257.453125 262.925781 257.570312 262.917969 257.703125 C 262.898438 257.988281 262.976562 258.25 263.113281 258.40625 C 262.976562 258.25 262.894531 257.988281 262.917969 257.703125 Z M 263.410156 258.570312 C 263.421875 258.570312 263.433594 258.566406 263.449219 258.566406 C 263.433594 258.566406 263.421875 258.570312 263.410156 258.570312 Z M 263.601562 258.53125 C 263.785156 258.445312 263.933594 258.222656 263.988281 257.941406 C 263.933594 258.222656 263.785156 258.445312 263.601562 258.53125 Z M 263.519531 256.910156 C 263.664062 256.917969 263.785156 257.007812 263.875 257.148438 C 263.785156 257.007812 263.664062 256.917969 263.519531 256.910156 Z M 264.429688 254.753906 C 262.296875 254.910156 261.15625 255.835938 261.007812 257.53125 C 260.980469 257.839844 260.722656 258.074219 260.410156 258.074219 L 245.78125 258.070312 C 245.621094 258.070312 245.492188 257.9375 245.492188 257.773438 L 245.675781 199.164062 C 245.941406 199.097656 246.199219 199.015625 246.449219 198.914062 C 246.484375 198.976562 246.515625 199.042969 246.542969 199.121094 C 253.269531 217.328125 259.363281 235.679688 264.824219 254.183594 C 264.835938 254.214844 264.839844 254.246094 264.84375 254.28125 C 264.859375 254.523438 264.671875 254.734375 264.429688 254.753906 Z M 264.429688 254.753906 " fill-opacity="1" fill-rule="nonzero"/><g clip-path="url(#394a0c2266)"><path fill="#a6a6a6" d="M 115.613281 24.640625 L 124.074219 41.789062 L 142.992188 44.539062 L 129.296875 57.894531 L 132.542969 76.738281 L 115.613281 67.84375 L 98.675781 76.738281 L 101.90625 57.894531 L 88.222656 44.539062 L 107.144531 41.789062 Z M 115.613281 24.640625 " fill-opacity="1" fill-rule="nonzero"/><path fill="#a6a6a6" d="M 115.484375 24.476562 L 123.953125 41.625 L 142.875 44.375 L 129.179688 57.730469 L 132.410156 76.574219 L 115.484375 67.679688 L 98.554688 76.574219 L 101.789062 57.730469 L 88.089844 44.375 L 107.011719 41.625 Z M 115.484375 24.476562 " fill-opacity="1" fill-rule="nonzero"/><path fill="#a6a6a6" d="M 115.484375 24.476562 L 123.953125 41.625 L 142.875 44.375 L 129.179688 57.730469 L 132.410156 76.574219 L 115.484375 67.679688 L 98.554688 76.574219 L 101.789062 57.730469 L 88.089844 44.375 L 107.011719 41.625 Z M 115.484375 24.476562 " fill-opacity="1" fill-rule="nonzero"/><path fill="#a6a6a6" d="M 115.484375 24.476562 L 123.953125 41.625 L 142.875 44.375 L 129.179688 57.730469 L 132.410156 76.574219 L 115.484375 67.679688 L 98.554688 76.574219 L 101.789062 57.730469 L 88.089844 44.375 L 107.011719 41.625 Z M 115.484375 24.476562 " fill-opacity="1" fill-rule="nonzero"/></g><g clip-path="url(#c6f252f50c)"><path fill="#a6a6a6" d="M 187.945312 24.640625 L 196.402344 41.789062 L 215.324219 44.539062 L 201.628906 57.894531 L 204.871094 76.738281 L 187.945312 67.84375 L 171.007812 76.738281 L 174.238281 57.894531 L 160.554688 44.539062 L 179.476562 41.789062 Z M 187.945312 24.640625 " fill-opacity="1" fill-rule="nonzero"/><path fill="#a6a6a6" d="M 187.8125 24.476562 L 196.28125 41.625 L 215.203125 44.375 L 201.507812 57.730469 L 204.742188 76.574219 L 187.8125 67.679688 L 170.886719 76.574219 L 174.117188 57.730469 L 160.421875 44.375 L 179.34375 41.625 Z M 187.8125 24.476562 " fill-opacity="1" fill-rule="nonzero"/><path fill="#a6a6a6" d="M 187.8125 24.476562 L 196.28125 41.625 L 215.203125 44.375 L 201.507812 57.730469 L 204.742188 76.574219 L 187.8125 67.679688 L 170.886719 76.574219 L 174.117188 57.730469 L 160.421875 44.375 L 179.34375 41.625 Z M 187.8125 24.476562 " fill-opacity="1" fill-rule="nonzero"/><path fill="#a6a6a6" d="M 187.8125 24.476562 L 196.28125 41.625 L 215.203125 44.375 L 201.507812 57.730469 L 204.742188 76.574219 L 187.8125 67.679688 L 170.886719 76.574219 L 174.117188 57.730469 L 160.421875 44.375 L 179.34375 41.625 Z M 187.8125 24.476562 " fill-opacity="1" fill-rule="nonzero"/></g><g clip-path="url(#be343d69ff)"><path fill="#a6a6a6" d="M 260.277344 24.640625 L 268.734375 41.789062 L 287.65625 44.539062 L 273.960938 57.894531 L 277.203125 76.738281 L 260.277344 67.84375 L 243.335938 76.738281 L 246.570312 57.894531 L 232.886719 44.539062 L 251.804688 41.789062 Z M 260.277344 24.640625 " fill-opacity="1" fill-rule="nonzero"/><path fill="#a6a6a6" d="M 260.144531 24.476562 L 268.613281 41.625 L 287.535156 44.375 L 273.839844 57.730469 L 277.070312 76.574219 L 260.144531 67.679688 L 243.214844 76.574219 L 246.449219 57.730469 L 232.753906 44.375 L 251.675781 41.625 Z M 260.144531 24.476562 " fill-opacity="1" fill-rule="nonzero"/><path fill="#a6a6a6" d="M 260.144531 24.476562 L 268.613281 41.625 L 287.535156 44.375 L 273.839844 57.730469 L 277.070312 76.574219 L 260.144531 67.679688 L 243.214844 76.574219 L 246.449219 57.730469 L 232.753906 44.375 L 251.675781 41.625 Z M 260.144531 24.476562 " fill-opacity="1" fill-rule="nonzero"/><path fill="#a6a6a6" d="M 260.144531 24.476562 L 268.613281 41.625 L 287.535156 44.375 L 273.839844 57.730469 L 277.070312 76.574219 L 260.144531 67.679688 L 243.214844 76.574219 L 246.449219 57.730469 L 232.753906 44.375 L 251.675781 41.625 Z M 260.144531 24.476562 " fill-opacity="1" fill-rule="nonzero"/></g><g clip-path="url(#dde8ff3f82)"><path fill="#a6a6a6" d="M 332.605469 24.640625 L 341.066406 41.789062 L 359.988281 44.539062 L 346.292969 57.894531 L 349.535156 76.738281 L 332.605469 67.84375 L 315.667969 76.738281 L 318.898438 57.894531 L 305.214844 44.539062 L 324.136719 41.789062 Z M 332.605469 24.640625 " fill-opacity="1" fill-rule="nonzero"/><path fill="#a6a6a6" d="M 332.476562 24.476562 L 340.945312 41.625 L 359.867188 44.375 L 346.171875 57.730469 L 349.402344 76.574219 L 332.476562 67.679688 L 315.546875 76.574219 L 318.78125 57.730469 L 305.085938 44.375 L 324.003906 41.625 Z M 332.476562 24.476562 " fill-opacity="1" fill-rule="nonzero"/><path fill="#a6a6a6" d="M 332.476562 24.476562 L 340.945312 41.625 L 359.867188 44.375 L 346.171875 57.730469 L 349.402344 76.574219 L 332.476562 67.679688 L 315.546875 76.574219 L 318.78125 57.730469 L 305.085938 44.375 L 324.003906 41.625 Z M 332.476562 24.476562 " fill-opacity="1" fill-rule="nonzero"/><path fill="#a6a6a6" d="M 332.476562 24.476562 L 340.945312 41.625 L 359.867188 44.375 L 346.171875 57.730469 L 349.402344 76.574219 L 332.476562 67.679688 L 315.546875 76.574219 L 318.78125 57.730469 L 305.085938 44.375 L 324.003906 41.625 Z M 332.476562 24.476562 " fill-opacity="1" fill-rule="nonzero"/></g></svg>