<svg xmlns="http://www.w3.org/2000/svg" xmlns:xlink="http://www.w3.org/1999/xlink" width="500" zoomAndPan="magnify" viewBox="0 0 375 374.999991" height="500" preserveAspectRatio="xMidYMid meet" version="1.0"><defs><clipPath id="0d7593eb6a"><path d="M 13.429688 26.066406 L 68.929688 26.066406 L 68.929688 78.566406 L 13.429688 78.566406 Z M 13.429688 26.066406 " clip-rule="nonzero"/></clipPath><clipPath id="ee4fd36f63"><path d="M 55.011719 112.769531 L 319.761719 112.769531 L 319.761719 349 L 55.011719 349 Z M 55.011719 112.769531 " clip-rule="nonzero"/></clipPath><clipPath id="c0f2428b8b"><path d="M 87.183594 26.066406 L 142.683594 26.066406 L 142.683594 78.566406 L 87.183594 78.566406 Z M 87.183594 26.066406 " clip-rule="nonzero"/></clipPath><clipPath id="3a9b072839"><path d="M 160.175781 26.066406 L 215.675781 26.066406 L 215.675781 78.566406 L 160.175781 78.566406 Z M 160.175781 26.066406 " clip-rule="nonzero"/></clipPath><clipPath id="938e5714e0"><path d="M 233.167969 26.066406 L 288.667969 26.066406 L 288.667969 78.566406 L 233.167969 78.566406 Z M 233.167969 26.066406 " clip-rule="nonzero"/></clipPath><clipPath id="df07adbf4b"><path d="M 306.15625 26.066406 L 361.65625 26.066406 L 361.65625 78.566406 L 306.15625 78.566406 Z M 306.15625 26.066406 " clip-rule="nonzero"/></clipPath></defs><g clip-path="url(#0d7593eb6a)"><path fill="#ffbd59" d="M 41.207031 26.25 L 49.742188 43.550781 L 68.835938 46.328125 L 55.015625 59.804688 L 58.289062 78.824219 L 41.207031 69.84375 L 24.109375 78.824219 L 27.371094 59.804688 L 13.5625 46.328125 L 32.65625 43.550781 Z M 41.207031 26.25 " fill-opacity="1" fill-rule="nonzero"/><path fill="#ffbd59" d="M 41.074219 26.082031 L 49.621094 43.386719 L 68.714844 46.160156 L 54.894531 59.640625 L 58.15625 78.65625 L 41.074219 69.679688 L 23.988281 78.65625 L 27.25 59.640625 L 13.429688 46.160156 L 32.527344 43.386719 Z M 41.074219 26.082031 " fill-opacity="1" fill-rule="nonzero"/><path fill="#ffbd59" d="M 41.074219 26.082031 L 49.621094 43.386719 L 68.714844 46.160156 L 54.894531 59.640625 L 58.15625 78.65625 L 41.074219 69.679688 L 23.988281 78.65625 L 27.25 59.640625 L 13.429688 46.160156 L 32.527344 43.386719 Z M 41.074219 26.082031 " fill-opacity="1" fill-rule="nonzero"/><path fill="#ffbd59" d="M 41.074219 26.082031 L 49.621094 43.386719 L 68.714844 46.160156 L 54.894531 59.640625 L 58.15625 78.65625 L 41.074219 69.679688 L 23.988281 78.65625 L 27.25 59.640625 L 13.429688 46.160156 L 32.527344 43.386719 Z M 41.074219 26.082031 " fill-opacity="1" fill-rule="nonzero"/></g><g clip-path="url(#ee4fd36f63)"><path fill="#ffbd59" d="M 304.339844 245.808594 C 304.453125 245.441406 304.753906 245.171875 305.117188 245.109375 C 307.683594 244.6875 309.921875 243.671875 311.824219 242.066406 C 313.339844 240.789062 314.761719 238.886719 316.085938 236.359375 C 318.425781 231.902344 319.71875 227.109375 319.953125 221.980469 C 319.976562 221.625 319.84375 221.554688 319.5625 221.777344 C 314.671875 225.667969 310.136719 230.011719 305.960938 234.800781 C 305.519531 235.300781 305.332031 235.21875 305.390625 234.5625 L 306.417969 223.058594 C 306.449219 222.722656 306.664062 222.433594 306.976562 222.296875 C 310.234375 220.910156 312.597656 218.785156 314.058594 215.929688 C 315.191406 213.714844 315.933594 210.785156 316.285156 207.136719 C 316.585938 204.023438 316.371094 200.882812 315.636719 197.714844 C 315.527344 197.234375 315.320312 197.1875 315.015625 197.570312 C 311.386719 202.195312 308.082031 207.074219 305.097656 212.210938 C 304.996094 212.378906 304.933594 212.367188 304.902344 212.175781 L 303.082031 201.761719 C 302.984375 201.207031 303.144531 200.644531 303.507812 200.242188 C 307.808594 195.472656 309.675781 190.023438 309.109375 183.898438 C 308.800781 180.574219 307.980469 177.222656 306.648438 173.84375 C 306.554688 173.605469 306.441406 173.597656 306.308594 173.8125 C 303.371094 178.707031 300.921875 183.746094 298.953125 188.933594 C 298.851562 189.199219 298.746094 189.199219 298.625 188.949219 L 294.449219 179.894531 C 294.164062 179.28125 294.167969 178.664062 294.460938 178.046875 C 296.589844 173.5625 297.390625 169.054688 296.863281 164.53125 C 296.34375 160.019531 294.753906 155.855469 292.09375 152.035156 C 291.816406 151.640625 291.578125 151.660156 291.375 152.101562 C 290.976562 152.972656 290.660156 154 290.429688 155.195312 C 289.652344 159.222656 288.789062 163.417969 287.84375 167.777344 C 287.777344 168.078125 287.644531 168.109375 287.449219 167.867188 L 280.90625 159.625 C 280.488281 159.097656 280.359375 158.535156 280.523438 157.925781 C 282.355469 150.933594 281.613281 144.179688 278.300781 137.660156 C 277.382812 135.859375 276.203125 134.246094 274.757812 132.824219 C 274.5625 132.625 274.425781 132.664062 274.359375 132.9375 C 273.117188 138.078125 272.472656 143.296875 272.421875 148.589844 C 272.421875 148.792969 272.351562 148.816406 272.207031 148.671875 L 264.625 141 C 264.121094 140.488281 263.921875 139.871094 264.023438 139.148438 C 264.277344 137.355469 264.023438 135.402344 263.261719 133.289062 C 260.765625 126.371094 256.621094 120.84375 250.824219 116.707031 C 250.078125 116.171875 249.726562 116.367188 249.773438 117.28125 C 250.03125 122.539062 251.097656 127.546875 252.980469 132.308594 C 253.132812 132.695312 253.042969 132.757812 252.71875 132.5 C 249.691406 130.105469 246.640625 127.789062 243.554688 125.5625 C 239.773438 122.828125 236.542969 120.773438 233.871094 119.398438 C 227.964844 116.363281 221.6875 114.289062 215.039062 113.179688 C 213.859375 112.984375 212.667969 112.914062 211.457031 112.972656 C 211.21875 112.984375 211.1875 113.074219 211.363281 113.234375 C 214.492188 116.191406 217.761719 118.941406 221.175781 121.492188 C 225.703125 124.875 229.007812 127.070312 231.09375 128.066406 C 234.640625 129.765625 238.683594 130.78125 243.214844 131.113281 C 244.101562 131.179688 244.867188 131.472656 245.515625 131.988281 L 251.214844 136.558594 C 252.351562 137.46875 252.195312 137.820312 250.75 137.613281 C 244.480469 136.71875 239.175781 138.257812 234.832031 142.238281 C 234.808594 142.253906 234.792969 142.277344 234.785156 142.300781 C 234.734375 142.402344 234.777344 142.523438 234.878906 142.570312 C 243.125 146.675781 251.757812 147.246094 260.769531 144.277344 C 261.171875 144.144531 261.605469 144.238281 261.890625 144.523438 L 269.195312 151.699219 C 269.808594 152.296875 269.695312 152.484375 268.867188 152.257812 C 268.105469 152.046875 267.378906 151.855469 266.675781 151.683594 C 265.921875 151.5 265.175781 151.40625 264.4375 151.40625 C 260.253906 151.40625 255.933594 151.960938 251.484375 153.074219 C 251.230469 153.136719 251.207031 153.25 251.414062 153.410156 C 259.285156 159.277344 267.964844 162.105469 277.453125 161.890625 C 277.644531 161.886719 277.824219 161.964844 277.949219 162.105469 C 280.40625 164.824219 282.539062 167.785156 284.351562 170.980469 C 284.449219 171.152344 284.402344 171.203125 284.214844 171.128906 C 278.160156 168.851562 271.890625 167.496094 265.410156 167.066406 C 265.046875 167.042969 264.976562 167.171875 265.195312 167.457031 C 266.558594 169.246094 268.058594 170.96875 269.703125 172.621094 C 274.828125 177.800781 281.625 180.769531 290.09375 181.523438 C 290.3125 181.542969 290.511719 181.671875 290.617188 181.863281 C 292.457031 185.199219 294.046875 188.5625 295.378906 191.9375 C 295.453125 192.117188 295.398438 192.15625 295.230469 192.050781 C 291.964844 190.042969 288.480469 188.53125 284.78125 187.527344 C 282.539062 186.917969 280.332031 186.328125 278.15625 185.757812 C 277.621094 185.613281 277.492188 185.78125 277.773438 186.257812 C 279.105469 188.5 280.585938 190.628906 282.214844 192.640625 C 284.132812 195.015625 285.984375 196.804688 287.761719 198.007812 C 290.835938 200.078125 294.4375 201.367188 298.570312 201.886719 C 298.988281 201.9375 299.320312 202.238281 299.386719 202.625 L 301.097656 212.746094 C 301.15625 213.101562 301.046875 213.160156 300.769531 212.917969 C 296.46875 209.210938 291.601562 206.535156 286.160156 204.890625 C 286.136719 204.882812 286.105469 204.878906 286.078125 204.886719 C 285.972656 204.902344 285.902344 204.996094 285.914062 205.101562 C 287.03125 212.742188 291.058594 218.195312 297.996094 221.457031 C 299.199219 222.019531 300.53125 222.375 302.003906 222.523438 C 302.175781 222.539062 302.296875 222.6875 302.285156 222.855469 L 301.605469 233.890625 C 301.566406 234.589844 301.339844 234.65625 300.933594 234.09375 C 297.964844 229.980469 294.234375 226.398438 289.730469 223.339844 C 289.691406 223.3125 289.640625 223.296875 289.59375 223.292969 C 289.433594 223.28125 289.300781 223.398438 289.285156 223.554688 C 289.109375 225.746094 289.085938 228.027344 289.214844 230.398438 C 289.324219 232.515625 289.800781 234.394531 290.644531 236.027344 C 292.6875 239.988281 295.640625 242.847656 299.511719 244.609375 C 299.910156 244.789062 300.121094 245.226562 300.019531 245.652344 C 299.09375 249.40625 297.929688 253.054688 296.527344 256.59375 C 296.304688 257.160156 296.125 257.144531 295.988281 256.558594 C 295.210938 253.1875 293.925781 249.871094 292.132812 246.605469 C 290.988281 244.515625 289.808594 242.902344 288.59375 241.773438 C 288.574219 241.75 288.546875 241.738281 288.519531 241.726562 C 288.417969 241.695312 288.308594 241.757812 288.277344 241.859375 C 287.238281 245.003906 286.640625 248.238281 286.484375 251.558594 C 286.21875 257.078125 287.980469 261.808594 291.769531 265.753906 C 291.984375 265.980469 292.035156 266.308594 291.902344 266.566406 L 287.027344 275.601562 C 286.878906 275.875 286.78125 275.855469 286.734375 275.546875 C 285.871094 270.308594 284.179688 265.492188 281.652344 261.09375 C 281.320312 260.515625 281.027344 260.535156 280.761719 261.140625 C 279.230469 264.738281 278.285156 268.652344 277.925781 272.878906 C 277.597656 276.789062 278.414062 280.589844 280.386719 284.289062 C 280.78125 285.023438 280.730469 285.679688 280.230469 286.265625 L 273.253906 294.492188 C 273.097656 294.667969 273.023438 294.636719 273.027344 294.394531 C 273.085938 289.335938 272.414062 284.242188 271.003906 279.113281 C 270.996094 279.074219 270.972656 279.039062 270.945312 279.007812 C 270.847656 278.898438 270.6875 278.890625 270.582031 278.988281 C 269.574219 279.898438 268.789062 280.832031 268.226562 281.789062 C 266.410156 284.886719 265.011719 288.167969 264.042969 291.628906 C 263.136719 294.851562 263.078125 298.085938 263.867188 301.332031 C 263.910156 301.511719 263.855469 301.699219 263.722656 301.824219 C 260.710938 304.625 257.589844 307.132812 254.359375 309.347656 C 254.035156 309.570312 253.9375 309.496094 254.074219 309.125 C 254.863281 306.957031 255.296875 304.855469 255.378906 302.816406 C 255.488281 299.773438 255.363281 296.746094 254.996094 293.734375 C 254.933594 293.207031 254.699219 293.113281 254.292969 293.453125 C 248.769531 298.097656 245.273438 303.96875 243.800781 311.066406 C 243.640625 311.832031 243.542969 312.816406 243.5 314.019531 C 243.488281 314.300781 243.335938 314.550781 243.097656 314.675781 L 233.527344 319.949219 C 233.113281 320.175781 233.03125 320.085938 233.277344 319.679688 C 236.210938 314.875 237.675781 309.664062 237.675781 304.042969 C 237.675781 304.019531 237.671875 303.996094 237.664062 303.972656 C 237.628906 303.847656 237.503906 303.777344 237.382812 303.816406 C 236.113281 304.171875 234.949219 304.75 233.886719 305.550781 C 228.726562 309.417969 224.667969 314.367188 221.710938 320.390625 C 221.578125 320.664062 221.34375 320.882812 221.0625 320.992188 C 211.058594 324.980469 200.855469 327.546875 190.46875 328.699219 C 188.328125 328.9375 186.191406 328.910156 184.058594 328.621094 C 173.824219 327.222656 163.894531 324.695312 154.269531 321.039062 C 153.625 320.792969 153.140625 320.367188 152.816406 319.765625 C 150.496094 315.464844 147.636719 311.566406 144.238281 308.0625 C 142.449219 306.21875 140.335938 304.816406 137.890625 303.847656 C 137.804688 303.8125 137.707031 303.800781 137.613281 303.808594 C 137.285156 303.839844 137.042969 304.128906 137.074219 304.457031 C 137.582031 310.054688 139.128906 315.132812 141.714844 319.691406 C 141.9375 320.082031 141.867188 320.144531 141.507812 319.878906 C 138.796875 317.867188 135.75 316.027344 132.363281 314.363281 C 132.183594 314.269531 132.066406 314.089844 132.058594 313.890625 C 132.015625 312.449219 131.785156 311.058594 131.371094 309.714844 C 129.898438 305.015625 127.605469 300.765625 124.496094 296.957031 C 123.324219 295.519531 122.003906 294.332031 120.535156 293.386719 C 120.476562 293.347656 120.40625 293.324219 120.332031 293.316406 C 120.09375 293.300781 119.886719 293.476562 119.867188 293.71875 C 119.636719 296.691406 119.613281 299.566406 119.789062 302.347656 C 119.933594 304.625 120.449219 306.816406 121.339844 308.925781 C 121.59375 309.523438 121.46875 309.621094 120.960938 309.222656 L 111.867188 301.953125 C 111.734375 301.847656 111.679688 301.660156 111.730469 301.480469 C 112.339844 299.304688 112.558594 297.558594 112.394531 296.246094 C 111.585938 289.949219 109.144531 284.292969 105.066406 279.277344 C 104.535156 278.625 104.175781 278.710938 103.988281 279.527344 C 102.871094 284.386719 102.382812 289.382812 102.523438 294.507812 C 102.527344 294.777344 102.441406 294.8125 102.265625 294.613281 L 94.394531 285.808594 C 94.160156 285.542969 94.128906 285.140625 94.316406 284.808594 C 96.855469 280.375 97.695312 275.773438 96.839844 271.015625 C 96.488281 269.066406 95.984375 267.226562 95.324219 265.496094 C 94.636719 263.6875 93.695312 262.011719 92.496094 260.460938 C 92.480469 260.4375 92.457031 260.421875 92.433594 260.40625 C 92.335938 260.363281 92.226562 260.398438 92.183594 260.492188 C 90.015625 264.941406 88.558594 269.984375 87.808594 275.613281 C 87.742188 276.121094 87.585938 276.152344 87.347656 275.707031 L 82.425781 266.570312 C 82.339844 266.410156 82.363281 266.214844 82.484375 266.0625 C 84.292969 263.796875 85.558594 262.074219 86.28125 260.894531 C 87.40625 259.054688 88.066406 256.828125 88.253906 254.214844 C 88.558594 250.074219 87.992188 245.996094 86.558594 241.988281 C 86.390625 241.523438 86.160156 241.488281 85.859375 241.886719 C 82.503906 246.34375 80.078125 251.203125 78.574219 256.457031 C 78.457031 256.875 78.320312 256.878906 78.171875 256.46875 C 76.792969 252.726562 75.667969 249 74.804688 245.300781 C 74.714844 244.914062 74.894531 244.519531 75.25 244.339844 C 79.421875 242.242188 82.464844 239.394531 84.386719 235.804688 C 85.144531 234.390625 85.578125 232.882812 85.695312 231.28125 C 85.871094 228.800781 85.929688 226.179688 85.863281 223.410156 C 85.855469 223.101562 85.726562 223.039062 85.476562 223.21875 C 81.027344 226.429688 77.109375 230.265625 73.726562 234.730469 C 73.59375 234.898438 73.523438 234.882812 73.511719 234.671875 L 72.796875 222.929688 C 72.785156 222.691406 72.949219 222.472656 73.195312 222.417969 C 82.503906 220.125 87.898438 214.347656 89.367188 205.085938 C 89.371094 205.054688 89.367188 205.027344 89.359375 205 C 89.328125 204.902344 89.222656 204.851562 89.125 204.878906 C 83.804688 206.539062 79.011719 209.027344 74.75 212.34375 C 74.355469 212.648438 74.191406 212.554688 74.25 212.0625 C 74.632812 208.75 75.242188 205.480469 76.078125 202.25 C 76.167969 201.886719 76.496094 201.632812 76.871094 201.625 C 79.226562 201.574219 81.457031 200.996094 83.570312 199.890625 C 89.550781 196.746094 94.105469 192.167969 97.238281 186.15625 C 97.378906 185.886719 97.300781 185.78125 97 185.839844 C 91.117188 186.964844 85.421875 189.019531 79.917969 192.003906 C 79.464844 192.25 79.324219 192.128906 79.5 191.644531 C 80.652344 188.449219 82.113281 185.195312 83.878906 181.882812 C 83.988281 181.679688 84.191406 181.542969 84.425781 181.519531 C 92.644531 180.757812 99.238281 177.871094 104.207031 172.863281 C 105.921875 171.136719 107.511719 169.296875 108.976562 167.34375 C 109.140625 167.125 109.085938 167.027344 108.816406 167.054688 C 104.617188 167.4375 100.460938 168.101562 96.347656 169.050781 C 94.5625 169.464844 92.859375 170.09375 91.230469 170.933594 C 90.542969 171.289062 90.390625 171.128906 90.769531 170.453125 C 92.402344 167.535156 94.394531 164.753906 96.742188 162.101562 C 96.863281 161.964844 97.046875 161.882812 97.238281 161.886719 C 106.542969 162.128906 114.824219 159.308594 122.089844 153.4375 C 122.550781 153.0625 122.492188 152.816406 121.910156 152.699219 C 120.6875 152.449219 119.382812 152.238281 118 152.058594 C 117.941406 152.050781 116.796875 151.875 114.566406 151.523438 C 111.453125 151.035156 108.355469 151.207031 105.273438 152.035156 C 105.082031 152.085938 105.050781 152.039062 105.179688 151.898438 C 107.742188 149.027344 110.5625 146.4375 113.640625 144.136719 C 113.796875 144.023438 113.992188 143.996094 114.167969 144.054688 C 122.398438 146.855469 130.671875 146.339844 138.992188 142.511719 C 139.023438 142.5 139.050781 142.480469 139.078125 142.457031 C 139.210938 142.335938 139.222656 142.125 139.101562 141.992188 C 135.453125 138.085938 131.019531 136.5 125.804688 137.230469 C 124.851562 137.363281 123.910156 137.386719 122.972656 137.289062 C 122.773438 137.269531 122.753906 137.199219 122.917969 137.070312 C 125.46875 135.097656 128.09375 133.234375 130.792969 131.484375 C 131.566406 130.976562 132.414062 130.679688 133.335938 130.589844 C 134.746094 130.445312 136.164062 130.332031 137.582031 130.25 C 139.53125 130.132812 141.855469 129.324219 144.546875 127.820312 C 148.617188 125.554688 152.421875 122.910156 155.960938 119.882812 C 158.476562 117.730469 161.105469 115.496094 163.847656 113.1875 C 164.144531 112.945312 164.097656 112.824219 163.71875 112.820312 C 161.871094 112.808594 160.304688 112.925781 159.019531 113.171875 C 149.113281 115.089844 140.117188 119.042969 132.03125 125.027344 C 128.425781 127.695312 124.851562 130.40625 121.308594 133.15625 C 121.15625 133.277344 121.121094 133.25 121.195312 133.070312 C 123.332031 128.066406 124.640625 122.621094 125.117188 116.738281 C 125.152344 116.335938 124.996094 116.246094 124.65625 116.472656 C 118.417969 120.605469 113.933594 126.289062 111.203125 133.527344 C 110.574219 135.203125 110.410156 137.335938 110.722656 139.929688 C 110.746094 140.125 110.683594 140.3125 110.550781 140.441406 L 102.445312 148.457031 C 102.207031 148.691406 102.09375 148.640625 102.097656 148.300781 C 102.203125 142.941406 101.691406 138.074219 100.5625 133.699219 C 100.375 132.980469 100.054688 132.914062 99.609375 133.507812 C 94.332031 140.457031 92.558594 148.527344 94.28125 157.726562 C 94.394531 158.359375 94.242188 158.921875 93.820312 159.414062 C 91.601562 161.96875 89.410156 164.878906 87.253906 168.140625 C 86.992188 168.535156 86.816406 168.496094 86.734375 168.027344 L 83.980469 152.613281 C 83.828125 151.742188 83.492188 151.667969 82.972656 152.398438 C 77.558594 160.035156 76.652344 168.488281 80.238281 177.773438 C 80.582031 178.660156 80.550781 179.527344 80.15625 180.378906 L 76.0625 189.105469 C 75.902344 189.441406 75.761719 189.433594 75.636719 189.082031 C 73.828125 183.929688 71.375 179.113281 68.277344 174.632812 C 68.160156 174.472656 68.070312 174.488281 67.996094 174.671875 C 66.917969 177.488281 66.269531 180.664062 66.058594 184.191406 C 65.691406 190.402344 67.433594 195.636719 71.296875 199.898438 C 71.847656 200.503906 72.054688 201.230469 71.910156 202.078125 L 70.347656 211.210938 C 70.234375 211.898438 69.992188 211.949219 69.628906 211.359375 C 66.644531 206.5 63.320312 201.855469 59.65625 197.425781 C 59.523438 197.269531 59.441406 197.289062 59.402344 197.484375 C 58.046875 204.035156 58.832031 210.300781 61.757812 216.277344 C 63.09375 219.011719 65.300781 220.964844 68.371094 222.136719 C 68.585938 222.214844 68.734375 222.421875 68.75 222.660156 L 69.351562 234.832031 C 69.386719 235.558594 69.191406 235.632812 68.765625 235.046875 C 65.046875 229.894531 60.613281 225.378906 55.46875 221.488281 C 55.164062 221.253906 55.015625 221.328125 55.027344 221.714844 C 55.164062 226.769531 56.296875 231.457031 58.425781 235.785156 C 59.816406 238.617188 61.648438 240.917969 63.917969 242.695312 C 64.753906 243.339844 65.667969 243.847656 66.671875 244.210938 C 67.667969 244.566406 68.679688 244.839844 69.722656 245.019531 C 70.105469 245.089844 70.421875 245.363281 70.535156 245.730469 L 73.8125 256.535156 C 73.964844 257.027344 73.824219 257.125 73.398438 256.828125 C 69.691406 254.222656 65.964844 251.757812 62.222656 249.425781 C 60.4375 248.308594 58.945312 247.523438 57.738281 247.070312 C 57.546875 246.996094 57.472656 247.054688 57.507812 247.261719 C 58.972656 255.078125 62.90625 261.105469 69.308594 265.335938 C 70.757812 266.296875 72.152344 266.992188 73.492188 267.425781 C 75.007812 267.914062 76.566406 268.179688 78.15625 268.226562 C 78.414062 268.238281 78.648438 268.382812 78.769531 268.605469 L 83.945312 277.929688 C 84.238281 278.460938 84.113281 278.597656 83.5625 278.335938 C 77.914062 275.675781 71.960938 273.328125 65.695312 271.292969 C 65.453125 271.210938 65.382812 271.289062 65.488281 271.523438 C 67.164062 275.339844 69.425781 278.628906 72.277344 281.390625 C 76.988281 285.945312 82.890625 287.953125 89.980469 287.402344 C 90.242188 287.382812 90.496094 287.484375 90.660156 287.675781 L 99.105469 297.300781 C 99.230469 297.445312 99.273438 297.609375 99.214844 297.695312 C 99.15625 297.777344 99.035156 297.777344 98.855469 297.707031 C 95.308594 296.234375 91.628906 295.242188 87.824219 294.726562 C 85.101562 294.359375 82.378906 293.996094 79.65625 293.644531 C 79.460938 293.613281 79.414062 293.679688 79.527344 293.847656 C 81.328125 296.429688 83.636719 298.78125 86.4375 300.902344 C 90.515625 303.988281 94.992188 305.804688 99.875 306.359375 C 102.773438 306.683594 105.542969 306.320312 108.175781 305.269531 C 108.46875 305.148438 108.796875 305.183594 109.058594 305.359375 C 112.421875 307.59375 115.632812 310.015625 118.703125 312.613281 C 119.472656 313.261719 119.371094 313.460938 118.398438 313.203125 C 116.824219 312.785156 115.226562 312.640625 113.605469 312.777344 C 109.601562 313.113281 105.375 313.710938 100.933594 314.574219 C 100.660156 314.625 100.632812 314.738281 100.84375 314.917969 C 103.375 316.996094 106.066406 318.667969 108.910156 319.9375 C 112.054688 321.339844 115.085938 322.066406 118 322.117188 C 122.351562 322.199219 126.410156 320.933594 130.179688 318.328125 C 130.335938 318.21875 130.535156 318.203125 130.699219 318.28125 C 134.148438 319.871094 137.457031 321.625 140.625 323.554688 C 141.421875 324.039062 141.359375 324.324219 140.429688 324.414062 C 134.875 324.929688 129.601562 326.402344 124.617188 328.828125 C 124.171875 329.046875 124.171875 329.265625 124.617188 329.476562 C 129.277344 331.714844 134.195312 332.875 139.375 332.953125 C 144.578125 333.027344 148.960938 331.46875 152.535156 328.273438 C 152.914062 327.9375 153.441406 327.820312 153.9375 327.964844 C 162.605469 330.539062 170.972656 332.578125 179.046875 334.074219 C 180.125 334.277344 180.128906 334.496094 179.0625 334.730469 C 170.515625 336.605469 163.449219 341.0625 157.859375 348.085938 C 157.414062 348.648438 157.546875 348.886719 158.257812 348.792969 C 163.644531 348.125 168.554688 346.753906 172.992188 344.675781 C 177.820312 342.402344 182.429688 339.6875 186.820312 336.519531 C 186.972656 336.410156 187.171875 336.410156 187.320312 336.519531 C 194.738281 341.824219 202.851562 345.65625 211.671875 348.011719 C 212.835938 348.320312 214.109375 348.503906 215.496094 348.558594 C 215.933594 348.574219 216.023438 348.40625 215.757812 348.058594 C 212.410156 343.59375 208.179688 340.03125 203.054688 337.371094 C 200.878906 336.242188 198.574219 335.433594 196.144531 334.941406 C 194.773438 334.667969 194.777344 334.417969 196.160156 334.195312 C 204.792969 332.808594 213.328125 330.632812 221.761719 327.675781 C 221.929688 327.613281 222.121094 327.65625 222.257812 327.789062 C 225.855469 331.339844 230.117188 333.09375 235.042969 333.050781 C 240.714844 333.003906 245.933594 331.648438 250.699219 328.980469 C 251.226562 328.6875 251.210938 328.417969 250.660156 328.175781 C 245.308594 325.796875 239.78125 324.496094 234.074219 324.273438 C 233.445312 324.246094 233.417969 324.09375 233.984375 323.820312 L 245.144531 318.40625 C 245.421875 318.273438 245.742188 318.292969 245.988281 318.460938 C 249.167969 320.597656 252.558594 321.777344 256.164062 322 C 259.214844 322.191406 262.429688 321.558594 265.804688 320.097656 C 268.777344 318.820312 271.632812 317.09375 274.375 314.921875 C 274.632812 314.714844 274.601562 314.570312 274.28125 314.484375 C 268.226562 312.898438 262.347656 312.371094 256.648438 312.90625 C 256.4375 312.925781 256.417969 312.875 256.585938 312.75 L 266.539062 305.351562 C 266.679688 305.246094 266.878906 305.214844 267.074219 305.261719 C 274.898438 307.28125 282.0625 305.875 288.574219 301.046875 C 291.34375 298.996094 293.613281 296.632812 295.378906 293.960938 C 295.488281 293.792969 295.441406 293.71875 295.242188 293.738281 C 292.347656 294.042969 289.464844 294.394531 286.589844 294.792969 C 283.203125 295.257812 279.925781 296.136719 276.757812 297.433594 C 276.144531 297.6875 276.035156 297.550781 276.4375 297.015625 C 278.75 293.953125 281.457031 290.820312 284.554688 287.617188 C 284.773438 287.390625 285.082031 287.269531 285.394531 287.289062 C 290.964844 287.632812 295.820312 286.074219 299.96875 282.625 C 303.53125 279.65625 306.292969 276.058594 308.246094 271.835938 C 308.425781 271.449219 308.320312 271.328125 307.925781 271.476562 L 291.167969 277.789062 C 290.796875 277.933594 290.707031 277.839844 290.90625 277.503906 L 296.429688 268.28125 C 296.566406 268.0625 296.816406 267.929688 297.097656 267.929688 C 299.121094 267.9375 301.007812 267.507812 302.765625 266.632812 C 310.535156 262.746094 315.351562 256.398438 317.222656 247.589844 C 317.324219 247.105469 317.160156 246.988281 316.730469 247.230469 C 311.574219 250.214844 306.59375 253.355469 301.789062 256.652344 C 301.140625 257.09375 300.933594 256.9375 301.160156 256.183594 Z M 304.339844 245.808594 " fill-opacity="1" fill-rule="nonzero"/></g><path fill="#ffbd59" d="M 190.914062 158.515625 C 191.371094 158.703125 191.804688 158.933594 192.210938 159.207031 C 192.621094 159.480469 193 159.792969 193.351562 160.140625 C 193.699219 160.492188 194.011719 160.871094 194.285156 161.28125 C 194.558594 161.6875 194.789062 162.121094 194.976562 162.578125 C 195.164062 163.03125 195.308594 163.5 195.402344 163.984375 C 195.5 164.46875 195.546875 164.957031 195.546875 165.449219 C 195.546875 165.941406 195.5 166.429688 195.402344 166.914062 C 195.308594 167.398438 195.164062 167.867188 194.976562 168.320312 C 194.789062 168.777344 194.558594 169.210938 194.285156 169.617188 C 194.011719 170.027344 193.699219 170.40625 193.351562 170.757812 C 193 171.105469 192.621094 171.414062 192.210938 171.691406 C 191.804688 171.964844 191.371094 172.195312 190.914062 172.382812 C 190.460938 172.570312 189.992188 172.714844 189.507812 172.808594 C 189.023438 172.90625 188.535156 172.953125 188.042969 172.953125 C 187.550781 172.953125 187.0625 172.90625 186.578125 172.808594 C 186.09375 172.714844 185.625 172.570312 185.171875 172.382812 C 184.714844 172.195312 184.28125 171.964844 183.875 171.691406 C 183.464844 171.414062 183.085938 171.105469 182.734375 170.757812 C 182.386719 170.40625 182.078125 170.027344 181.800781 169.617188 C 181.527344 169.210938 181.296875 168.777344 181.109375 168.320312 C 180.921875 167.867188 180.777344 167.398438 180.683594 166.914062 C 180.585938 166.429688 180.539062 165.941406 180.539062 165.449219 C 180.539062 164.957031 180.585938 164.46875 180.683594 163.984375 C 180.777344 163.5 180.921875 163.03125 181.109375 162.578125 C 181.296875 162.121094 181.527344 161.6875 181.800781 161.277344 C 182.078125 160.871094 182.386719 160.492188 182.734375 160.140625 C 183.085938 159.792969 183.464844 159.480469 183.875 159.207031 C 184.28125 158.933594 184.714844 158.703125 185.171875 158.515625 C 185.625 158.328125 186.09375 158.183594 186.578125 158.085938 C 187.0625 157.992188 187.550781 157.945312 188.042969 157.945312 C 188.535156 157.945312 189.023438 157.992188 189.507812 158.085938 C 189.992188 158.183594 190.460938 158.328125 190.914062 158.515625 Z M 190.914062 158.515625 " fill-opacity="1" fill-rule="nonzero"/><path fill="#ffbd59" d="M 266.996094 252.394531 C 266.820312 252.308594 266.695312 252.148438 266.644531 251.960938 C 265.34375 246.925781 263.890625 241.972656 262.289062 237.101562 C 257.976562 223.996094 253.570312 210.921875 249.070312 197.875 C 248.699219 196.796875 248.378906 195.933594 248.109375 195.28125 C 249.492188 194.277344 250.394531 192.648438 250.394531 190.804688 C 250.394531 188.828125 249.355469 187.09375 247.796875 186.117188 C 248.0625 186.050781 248.3125 185.980469 248.546875 185.90625 C 251.144531 185.445312 253.117188 183.183594 253.117188 180.457031 C 253.117188 178.480469 252.082031 176.753906 250.53125 175.769531 C 249.789062 175.242188 248.976562 174.960938 248.089844 174.917969 C 248.765625 175.707031 249.214844 176.695312 249.320312 177.777344 C 249.648438 181.082031 246.898438 183.832031 243.59375 183.503906 C 243.347656 183.484375 243.105469 183.433594 242.871094 183.375 C 242.878906 183.394531 242.890625 183.414062 242.902344 183.429688 C 227.074219 180.683594 211.292969 178.085938 195.550781 175.648438 C 190.472656 174.863281 185.503906 174.832031 180.636719 175.558594 C 165.902344 177.753906 150.222656 180.410156 133.601562 183.519531 C 133.609375 183.511719 133.617188 183.496094 133.625 183.484375 C 133.230469 183.535156 132.824219 183.542969 132.410156 183.503906 C 129.96875 183.261719 127.988281 181.285156 127.746094 178.84375 C 127.597656 177.335938 128.089844 175.949219 128.980469 174.910156 C 128.585938 174.910156 128.207031 174.953125 127.835938 175.03125 C 127.652344 175.066406 127.472656 175.105469 127.285156 175.15625 C 126.15625 175.460938 125.261719 176.097656 124.609375 177.0625 C 123.882812 178 123.445312 179.175781 123.445312 180.453125 C 123.445312 180.507812 123.453125 180.5625 123.453125 180.613281 C 123.394531 181.847656 123.738281 182.929688 124.496094 183.867188 C 125.261719 184.816406 126.25 185.53125 127.449219 186.011719 C 125.796875 186.972656 124.6875 188.757812 124.6875 190.800781 C 124.6875 192.859375 125.808594 194.652344 127.472656 195.609375 C 126.042969 200.269531 124.492188 204.914062 122.8125 209.535156 C 119.414062 218.871094 116.125 228.246094 112.945312 237.664062 C 110.8125 243.972656 109.34375 248.890625 108.539062 252.414062 C 108.503906 252.585938 108.355469 252.710938 108.175781 252.726562 C 106.820312 252.835938 106.035156 253.539062 105.832031 254.835938 C 105.46875 257.09375 106.257812 258.640625 108.195312 259.476562 C 108.554688 259.632812 109.078125 259.722656 109.769531 259.746094 C 110.3125 259.769531 110.851562 259.835938 111.386719 259.949219 C 111.570312 259.988281 111.746094 260.085938 111.886719 260.230469 C 112.808594 261.199219 113.726562 262.179688 114.625 263.175781 C 116.898438 265.683594 119.554688 267.425781 122.589844 268.410156 C 125.308594 269.285156 128.367188 269.632812 131.769531 269.453125 C 138.371094 269.089844 143.710938 266.078125 147.785156 260.410156 C 147.902344 260.253906 148.078125 260.15625 148.257812 260.148438 C 148.734375 260.128906 149.210938 260.128906 149.683594 260.148438 C 150.382812 260.175781 150.945312 260.128906 151.371094 260.003906 C 154.128906 259.210938 155.179688 257.355469 154.523438 254.429688 C 154.421875 253.953125 154.253906 253.585938 154.023438 253.328125 C 153.707031 252.96875 153.328125 252.769531 152.890625 252.734375 C 152.546875 252.703125 152.261719 252.460938 152.167969 252.125 C 150.816406 246.851562 149.359375 241.808594 147.808594 236.996094 C 143.382812 223.277344 138.707031 209.640625 133.789062 196.089844 C 133.707031 195.859375 133.582031 195.609375 133.421875 195.332031 C 134.84375 194.328125 135.773438 192.675781 135.773438 190.804688 C 135.773438 188.839844 134.75 187.121094 133.207031 186.136719 C 136.933594 185.648438 142.007812 184.902344 148.449219 183.90625 C 159.96875 182.125 171.34375 180.320312 182.574219 178.492188 C 182.589844 178.488281 182.605469 178.488281 182.621094 178.488281 C 182.90625 178.472656 183.152344 178.6875 183.167969 178.972656 C 184.195312 201.222656 184.65625 223.476562 184.550781 245.742188 C 184.53125 250.132812 184.453125 254.105469 184.320312 257.65625 C 184.019531 265.402344 183.589844 271.710938 183.019531 276.585938 C 182.464844 281.375 181.71875 285.746094 180.785156 289.699219 C 180.015625 292.949219 178.925781 296.160156 177.511719 299.335938 C 176.105469 302.496094 174.589844 305.066406 172.960938 307.046875 C 171.039062 309.378906 168.765625 311.378906 166.148438 313.039062 C 163.425781 314.769531 160.664062 316.4375 157.867188 318.054688 C 156.863281 318.632812 156.933594 319.023438 158.078125 319.21875 C 167.792969 320.886719 177.246094 320.734375 186.433594 318.765625 C 187.3125 318.582031 188.199219 318.570312 189.089844 318.730469 C 198.421875 320.453125 207.476562 320.707031 216.257812 319.5 C 217.703125 319.300781 217.84375 318.757812 216.6875 317.871094 C 215.707031 317.121094 214.507812 316.375 213.09375 315.640625 C 208.53125 313.265625 204.804688 310.082031 201.90625 306.097656 C 199.988281 303.460938 198.277344 299.894531 196.773438 295.40625 C 195.058594 290.277344 193.902344 285.195312 193.308594 280.15625 C 191.355469 263.609375 190.53125 246.277344 190.828125 228.152344 C 191.101562 211.707031 191.578125 195.269531 192.253906 178.835938 C 192.253906 178.824219 192.253906 178.8125 192.253906 178.800781 C 192.277344 178.652344 192.414062 178.554688 192.558594 178.578125 L 241.824219 186.15625 C 240.3125 187.144531 239.3125 188.851562 239.3125 190.792969 C 239.3125 192.773438 240.355469 194.503906 241.917969 195.488281 C 241.894531 195.53125 241.867188 195.582031 241.851562 195.628906 C 238.625 204.964844 235.359375 214.292969 232.054688 223.605469 C 229.085938 231.964844 226.328125 240.390625 223.78125 248.886719 C 223.488281 249.855469 223.25 250.945312 223.0625 252.152344 C 223.03125 252.339844 222.90625 252.496094 222.730469 252.566406 C 220.882812 253.253906 220.015625 254.398438 220.125 255.992188 C 220.207031 257.242188 220.707031 258.265625 221.632812 259.054688 C 222.59375 259.890625 223.824219 260.171875 225.320312 259.894531 C 225.898438 259.785156 226.496094 259.992188 226.886719 260.4375 C 227.972656 261.671875 229.070312 262.824219 230.183594 263.898438 C 231.488281 265.160156 232.75 266.121094 233.960938 266.789062 C 236.964844 268.429688 240.402344 269.3125 244.269531 269.429688 C 252.242188 269.664062 258.394531 266.714844 262.722656 260.589844 C 262.828125 260.433594 263.003906 260.34375 263.1875 260.34375 C 264.703125 260.359375 266.0625 260.007812 267.257812 259.296875 C 268.550781 258.519531 269.285156 257.484375 269.460938 256.191406 C 269.675781 254.59375 268.855469 253.324219 266.996094 252.394531 Z M 153.816406 255.617188 C 153.820312 255.570312 153.824219 255.523438 153.828125 255.480469 C 153.824219 255.527344 153.820312 255.570312 153.816406 255.617188 C 153.8125 255.648438 153.808594 255.671875 153.804688 255.699219 C 153.808594 255.675781 153.8125 255.648438 153.816406 255.617188 Z M 153.703125 254.902344 C 153.667969 254.859375 153.632812 254.835938 153.589844 254.832031 C 153.628906 254.835938 153.667969 254.859375 153.703125 254.902344 Z M 153.414062 256.335938 C 153.34375 256.328125 153.28125 256.261719 153.242188 256.160156 C 153.285156 256.261719 153.34375 256.328125 153.414062 256.335938 Z M 128.886719 255.242188 C 128.886719 255.246094 128.886719 255.246094 128.886719 255.246094 C 128.886719 255.410156 128.757812 255.539062 128.597656 255.539062 L 113.847656 255.570312 C 113.457031 255.574219 113.121094 255.285156 113.058594 254.898438 C 112.886719 253.761719 112.441406 253.003906 111.730469 252.613281 C 111.679688 252.585938 111.484375 252.554688 111.152344 252.519531 L 109.992188 252.398438 C 109.980469 252.398438 109.964844 252.394531 109.953125 252.390625 C 109.8125 252.351562 109.738281 252.179688 109.78125 252.011719 C 112.339844 242.566406 115.3125 233.257812 118.691406 224.074219 C 121.878906 215.429688 124.949219 206.742188 127.902344 198.015625 C 128.121094 197.359375 128.425781 196.738281 128.816406 196.15625 C 128.984375 196.199219 129.15625 196.238281 129.332031 196.265625 C 129.332031 196.28125 129.332031 196.292969 129.332031 196.3125 C 128.828125 215.902344 128.679688 235.546875 128.886719 255.242188 Z M 151.011719 251.898438 C 151.011719 251.902344 151.011719 251.90625 151.011719 251.90625 C 151.050781 252.066406 150.957031 252.222656 150.800781 252.261719 C 150.273438 252.394531 149.742188 252.5 149.210938 252.582031 C 147.949219 252.769531 147.296875 253.523438 147.253906 254.839844 C 147.242188 255.253906 146.902344 255.578125 146.492188 255.578125 L 130.152344 255.542969 C 130.144531 255.542969 130.136719 255.542969 130.128906 255.542969 C 129.976562 255.53125 129.863281 255.398438 129.878906 255.246094 C 129.910156 254.890625 129.953125 254.535156 130.015625 254.179688 C 130.082031 253.777344 130.113281 253.421875 130.113281 253.101562 C 130.195312 236.390625 130.355469 219.6875 130.585938 202.980469 C 130.621094 200.753906 130.699219 198.535156 130.824219 196.3125 C 131.332031 196.257812 131.8125 196.136719 132.265625 195.957031 C 132.371094 196.085938 132.460938 196.230469 132.519531 196.386719 C 139.546875 214.769531 145.710938 233.273438 151.011719 251.898438 Z M 244.847656 201.1875 C 244.691406 219.230469 244.65625 237.277344 244.746094 255.320312 C 244.746094 255.484375 244.609375 255.613281 244.445312 255.613281 L 228.199219 255.578125 C 227.875 255.578125 227.609375 255.324219 227.601562 255.003906 C 227.574219 254.042969 227.140625 253.257812 226.292969 252.648438 C 226.203125 252.582031 226.019531 252.53125 225.75 252.5 L 224.609375 252.351562 C 224.605469 252.351562 224.605469 252.351562 224.601562 252.351562 C 224.449219 252.324219 224.347656 252.152344 224.378906 251.964844 C 224.816406 249.328125 225.535156 246.457031 226.527344 243.359375 C 231.820312 226.855469 237.316406 211.246094 243.015625 196.523438 C 243.078125 196.359375 243.144531 196.222656 243.210938 196.101562 C 243.644531 196.234375 244.105469 196.3125 244.582031 196.335938 C 244.777344 196.886719 244.867188 198.503906 244.847656 201.1875 Z M 263.601562 255.242188 C 263.609375 255.109375 263.636719 254.988281 263.679688 254.882812 C 263.636719 254.988281 263.609375 255.109375 263.601562 255.242188 C 263.582031 255.53125 263.664062 255.792969 263.800781 255.953125 C 263.660156 255.792969 263.578125 255.53125 263.601562 255.242188 Z M 264.097656 256.117188 C 264.109375 256.117188 264.125 256.117188 264.136719 256.117188 C 264.125 256.117188 264.109375 256.117188 264.097656 256.117188 Z M 264.289062 256.078125 C 264.476562 255.992188 264.625 255.769531 264.683594 255.484375 C 264.625 255.769531 264.476562 255.992188 264.289062 256.078125 Z M 264.207031 254.441406 C 264.351562 254.449219 264.476562 254.542969 264.566406 254.683594 C 264.476562 254.542969 264.351562 254.449219 264.207031 254.441406 Z M 265.125 252.269531 C 262.976562 252.421875 261.824219 253.359375 261.675781 255.070312 C 261.648438 255.382812 261.386719 255.617188 261.074219 255.617188 L 246.308594 255.613281 C 246.148438 255.613281 246.019531 255.480469 246.019531 255.3125 L 246.199219 196.171875 C 246.46875 196.105469 246.730469 196.023438 246.980469 195.917969 C 247.019531 195.980469 247.046875 196.046875 247.078125 196.128906 C 253.863281 214.5 260.015625 233.019531 265.523438 251.691406 C 265.535156 251.722656 265.539062 251.757812 265.542969 251.789062 C 265.5625 252.035156 265.375 252.25 265.125 252.269531 Z M 265.125 252.269531 " fill-opacity="1" fill-rule="nonzero"/><g clip-path="url(#c0f2428b8b)"><path fill="#ffbd59" d="M 114.960938 26.25 L 123.496094 43.550781 L 142.589844 46.328125 L 128.769531 59.804688 L 132.042969 78.824219 L 114.960938 69.84375 L 97.867188 78.824219 L 101.128906 59.804688 L 87.316406 46.328125 L 106.414062 43.550781 Z M 114.960938 26.25 " fill-opacity="1" fill-rule="nonzero"/><path fill="#ffbd59" d="M 114.828125 26.082031 L 123.375 43.386719 L 142.46875 46.160156 L 128.648438 59.640625 L 131.910156 78.65625 L 114.828125 69.679688 L 97.742188 78.65625 L 101.003906 59.640625 L 87.183594 46.160156 L 106.28125 43.386719 Z M 114.828125 26.082031 " fill-opacity="1" fill-rule="nonzero"/><path fill="#ffbd59" d="M 114.828125 26.082031 L 123.375 43.386719 L 142.46875 46.160156 L 128.648438 59.640625 L 131.910156 78.65625 L 114.828125 69.679688 L 97.742188 78.65625 L 101.003906 59.640625 L 87.183594 46.160156 L 106.28125 43.386719 Z M 114.828125 26.082031 " fill-opacity="1" fill-rule="nonzero"/><path fill="#ffbd59" d="M 114.828125 26.082031 L 123.375 43.386719 L 142.46875 46.160156 L 128.648438 59.640625 L 131.910156 78.65625 L 114.828125 69.679688 L 97.742188 78.65625 L 101.003906 59.640625 L 87.183594 46.160156 L 106.28125 43.386719 Z M 114.828125 26.082031 " fill-opacity="1" fill-rule="nonzero"/></g><g clip-path="url(#3a9b072839)"><path fill="#ffbd59" d="M 187.949219 26.25 L 196.488281 43.550781 L 215.582031 46.328125 L 201.761719 59.804688 L 205.035156 78.824219 L 187.949219 69.84375 L 170.855469 78.824219 L 174.117188 59.804688 L 160.308594 46.328125 L 179.402344 43.550781 Z M 187.949219 26.25 " fill-opacity="1" fill-rule="nonzero"/><path fill="#ffbd59" d="M 187.816406 26.082031 L 196.363281 43.386719 L 215.460938 46.160156 L 201.640625 59.640625 L 204.902344 78.65625 L 187.816406 69.679688 L 170.734375 78.65625 L 173.996094 59.640625 L 160.175781 46.160156 L 179.269531 43.386719 Z M 187.816406 26.082031 " fill-opacity="1" fill-rule="nonzero"/><path fill="#ffbd59" d="M 187.816406 26.082031 L 196.363281 43.386719 L 215.460938 46.160156 L 201.640625 59.640625 L 204.902344 78.65625 L 187.816406 69.679688 L 170.734375 78.65625 L 173.996094 59.640625 L 160.175781 46.160156 L 179.269531 43.386719 Z M 187.816406 26.082031 " fill-opacity="1" fill-rule="nonzero"/><path fill="#ffbd59" d="M 187.816406 26.082031 L 196.363281 43.386719 L 215.460938 46.160156 L 201.640625 59.640625 L 204.902344 78.65625 L 187.816406 69.679688 L 170.734375 78.65625 L 173.996094 59.640625 L 160.175781 46.160156 L 179.269531 43.386719 Z M 187.816406 26.082031 " fill-opacity="1" fill-rule="nonzero"/></g><g clip-path="url(#938e5714e0)"><path fill="#ffbd59" d="M 260.941406 26.25 L 269.476562 43.550781 L 288.574219 46.328125 L 274.75 59.804688 L 278.023438 78.824219 L 260.941406 69.84375 L 243.847656 78.824219 L 247.109375 59.804688 L 233.300781 46.328125 L 252.394531 43.550781 Z M 260.941406 26.25 " fill-opacity="1" fill-rule="nonzero"/><path fill="#ffbd59" d="M 260.808594 26.082031 L 269.355469 43.386719 L 288.449219 46.160156 L 274.628906 59.640625 L 277.890625 78.65625 L 260.808594 69.679688 L 243.726562 78.65625 L 246.988281 59.640625 L 233.167969 46.160156 L 252.261719 43.386719 Z M 260.808594 26.082031 " fill-opacity="1" fill-rule="nonzero"/><path fill="#ffbd59" d="M 260.808594 26.082031 L 269.355469 43.386719 L 288.449219 46.160156 L 274.628906 59.640625 L 277.890625 78.65625 L 260.808594 69.679688 L 243.726562 78.65625 L 246.988281 59.640625 L 233.167969 46.160156 L 252.261719 43.386719 Z M 260.808594 26.082031 " fill-opacity="1" fill-rule="nonzero"/><path fill="#ffbd59" d="M 260.808594 26.082031 L 269.355469 43.386719 L 288.449219 46.160156 L 274.628906 59.640625 L 277.890625 78.65625 L 260.808594 69.679688 L 243.726562 78.65625 L 246.988281 59.640625 L 233.167969 46.160156 L 252.261719 43.386719 Z M 260.808594 26.082031 " fill-opacity="1" fill-rule="nonzero"/></g><g clip-path="url(#df07adbf4b)"><path fill="#ffbd59" d="M 333.933594 26.25 L 342.46875 43.550781 L 361.5625 46.328125 L 347.742188 59.804688 L 351.015625 78.824219 L 333.933594 69.84375 L 316.839844 78.824219 L 320.101562 59.804688 L 306.289062 46.328125 L 325.386719 43.550781 Z M 333.933594 26.25 " fill-opacity="1" fill-rule="nonzero"/><path fill="#ffbd59" d="M 333.800781 26.082031 L 342.347656 43.386719 L 361.441406 46.160156 L 347.621094 59.640625 L 350.882812 78.65625 L 333.800781 69.679688 L 316.714844 78.65625 L 319.976562 59.640625 L 306.15625 46.160156 L 325.253906 43.386719 Z M 333.800781 26.082031 " fill-opacity="1" fill-rule="nonzero"/><path fill="#ffbd59" d="M 333.800781 26.082031 L 342.347656 43.386719 L 361.441406 46.160156 L 347.621094 59.640625 L 350.882812 78.65625 L 333.800781 69.679688 L 316.714844 78.65625 L 319.976562 59.640625 L 306.15625 46.160156 L 325.253906 43.386719 Z M 333.800781 26.082031 " fill-opacity="1" fill-rule="nonzero"/><path fill="#ffbd59" d="M 333.800781 26.082031 L 342.347656 43.386719 L 361.441406 46.160156 L 347.621094 59.640625 L 350.882812 78.65625 L 333.800781 69.679688 L 316.714844 78.65625 L 319.976562 59.640625 L 306.15625 46.160156 L 325.253906 43.386719 Z M 333.800781 26.082031 " fill-opacity="1" fill-rule="nonzero"/></g></svg>