<svg xmlns="http://www.w3.org/2000/svg" xmlns:xlink="http://www.w3.org/1999/xlink" width="500" zoomAndPan="magnify" viewBox="0 0 375 374.999991" height="500" preserveAspectRatio="xMidYMid meet" version="1.0"><defs><clipPath id="920f671ed6"><path d="M 45.6875 16.621094 L 102.6875 16.621094 L 102.6875 71.371094 L 45.6875 71.371094 Z M 45.6875 16.621094 " clip-rule="nonzero"/></clipPath><clipPath id="86d8789d00"><path d="M 59.742188 102.863281 L 315.492188 102.863281 L 315.492188 358.613281 L 59.742188 358.613281 Z M 59.742188 102.863281 " clip-rule="nonzero"/></clipPath><clipPath id="1e63d25cc8"><path d="M 121.433594 16.621094 L 178.433594 16.621094 L 178.433594 71.371094 L 121.433594 71.371094 Z M 121.433594 16.621094 " clip-rule="nonzero"/></clipPath><clipPath id="d6130b9d61"><path d="M 196.773438 16.621094 L 253.773438 16.621094 L 253.773438 71.371094 L 196.773438 71.371094 Z M 196.773438 16.621094 " clip-rule="nonzero"/></clipPath><clipPath id="0802a39f8b"><path d="M 272.117188 16.621094 L 329.117188 16.621094 L 329.117188 71.371094 L 272.117188 71.371094 Z M 272.117188 16.621094 " clip-rule="nonzero"/></clipPath><clipPath id="24ad544f05"><path d="M 272.117188 16.621094 L 329 16.621094 L 329 71.371094 L 272.117188 71.371094 Z M 272.117188 16.621094 " clip-rule="nonzero"/></clipPath></defs><g clip-path="url(#920f671ed6)"><path fill="#ffffff" d="M 74.261719 16.808594 L 83.042969 34.761719 L 102.6875 37.640625 L 88.46875 51.625 L 91.835938 71.355469 L 74.261719 62.042969 L 56.675781 71.355469 L 60.03125 51.625 L 45.824219 37.640625 L 65.46875 34.761719 Z M 74.261719 16.808594 " fill-opacity="1" fill-rule="nonzero"/><path fill="#ffffff" d="M 74.125 16.636719 L 82.917969 34.589844 L 102.5625 37.46875 L 88.34375 51.453125 L 91.699219 71.183594 L 74.125 61.867188 L 56.550781 71.183594 L 59.90625 51.453125 L 45.6875 37.46875 L 65.332031 34.589844 Z M 74.125 16.636719 " fill-opacity="1" fill-rule="nonzero"/><path fill="#ffffff" d="M 74.125 16.636719 L 82.917969 34.589844 L 102.5625 37.46875 L 88.34375 51.453125 L 91.699219 71.183594 L 74.125 61.867188 L 56.550781 71.183594 L 59.90625 51.453125 L 45.6875 37.46875 L 65.332031 34.589844 Z M 74.125 16.636719 " fill-opacity="1" fill-rule="nonzero"/><path fill="#ffffff" d="M 74.125 16.636719 L 82.917969 34.589844 L 102.5625 37.46875 L 88.34375 51.453125 L 91.699219 71.183594 L 74.125 61.867188 L 56.550781 71.183594 L 59.90625 51.453125 L 45.6875 37.46875 L 65.332031 34.589844 Z M 74.125 16.636719 " fill-opacity="1" fill-rule="nonzero"/></g><g clip-path="url(#86d8789d00)"><path fill="#ffffff" d="M 315.257812 230.621094 C 315.257812 301.179688 258.058594 358.378906 187.5 358.378906 C 116.941406 358.378906 59.742188 301.179688 59.742188 230.621094 C 59.742188 160.0625 116.941406 102.863281 187.5 102.863281 C 258.058594 102.863281 315.257812 160.0625 315.257812 230.621094 " fill-opacity="1" fill-rule="nonzero"/></g><path fill="#dfaa61" d="M 138.96875 203.511719 C 139.191406 210.582031 145.015625 216.265625 152.136719 216.265625 C 159.261719 216.265625 165.082031 210.582031 165.308594 203.511719 L 152.136719 171.066406 Z M 152.136719 220.773438 C 142.386719 220.773438 134.453125 212.839844 134.453125 203.089844 C 134.453125 202.796875 134.507812 202.507812 134.617188 202.238281 L 150.046875 164.226562 C 150.394531 163.375 151.21875 162.820312 152.136719 162.820312 C 153.054688 162.820312 153.882812 163.375 154.226562 164.226562 L 169.65625 202.238281 C 169.765625 202.507812 169.824219 202.796875 169.824219 203.089844 C 169.824219 212.839844 161.890625 220.773438 152.136719 220.773438 " fill-opacity="1" fill-rule="nonzero"/><path fill="#dfaa61" d="M 167.566406 205.34375 L 136.707031 205.34375 C 135.460938 205.34375 134.453125 204.332031 134.453125 203.089844 C 134.453125 201.84375 135.460938 200.832031 136.707031 200.832031 L 167.566406 200.832031 C 168.8125 200.832031 169.824219 201.84375 169.824219 203.089844 C 169.824219 204.332031 168.8125 205.34375 167.566406 205.34375 " fill-opacity="1" fill-rule="nonzero"/><path fill="#dfaa61" d="M 209.691406 203.511719 C 209.917969 210.582031 215.738281 216.265625 222.863281 216.265625 C 229.984375 216.265625 235.808594 210.582031 236.03125 203.511719 L 222.863281 171.066406 Z M 222.863281 220.773438 C 213.109375 220.773438 205.175781 212.839844 205.175781 203.089844 C 205.175781 202.796875 205.234375 202.507812 205.34375 202.238281 L 220.773438 164.226562 C 221.117188 163.375 221.945312 162.820312 222.863281 162.820312 C 223.777344 162.820312 224.605469 163.375 224.949219 164.226562 L 240.382812 202.238281 C 240.492188 202.507812 240.546875 202.796875 240.546875 203.089844 C 240.546875 212.839844 232.613281 220.773438 222.863281 220.773438 " fill-opacity="1" fill-rule="nonzero"/><path fill="#dfaa61" d="M 238.292969 205.34375 L 207.429688 205.34375 C 206.1875 205.34375 205.175781 204.332031 205.175781 203.089844 C 205.175781 201.84375 206.1875 200.832031 207.429688 200.832031 L 238.292969 200.832031 C 239.539062 200.832031 240.546875 201.84375 240.546875 203.089844 C 240.546875 204.332031 239.539062 205.34375 238.292969 205.34375 " fill-opacity="1" fill-rule="nonzero"/><path fill="#dfaa61" d="M 165.496094 297.304688 C 164.917969 297.304688 164.34375 297.085938 163.902344 296.644531 C 163.023438 295.765625 163.019531 294.339844 163.902344 293.457031 L 169.597656 287.761719 C 171.515625 285.84375 173.757812 284.347656 176.257812 283.308594 C 178.761719 282.269531 181.40625 281.746094 184.117188 281.746094 L 213.738281 281.746094 C 218.214844 281.746094 222.859375 279.621094 226.167969 276.054688 L 252.929688 245.21875 C 253.964844 244.023438 254.535156 242.5 254.535156 240.921875 C 254.535156 239.019531 253.710938 237.210938 252.277344 235.964844 C 249.542969 233.59375 245.394531 233.890625 243.023438 236.621094 L 223.476562 259.144531 C 222.660156 260.085938 221.234375 260.1875 220.296875 259.371094 C 219.355469 258.554688 219.253906 257.132812 220.070312 256.191406 L 239.617188 233.664062 C 243.617188 229.058594 250.621094 228.5625 255.230469 232.558594 C 257.65625 234.664062 259.042969 237.710938 259.042969 240.921875 C 259.042969 243.585938 258.082031 246.160156 256.335938 248.171875 L 229.550781 279.039062 C 229.535156 279.058594 229.519531 279.078125 229.503906 279.09375 C 225.289062 283.644531 219.542969 286.253906 213.738281 286.253906 L 184.117188 286.253906 C 179.835938 286.253906 175.8125 287.921875 172.785156 290.949219 L 167.089844 296.644531 C 166.648438 297.085938 166.074219 297.304688 165.496094 297.304688 " fill-opacity="1" fill-rule="nonzero"/><path fill="#dfaa61" d="M 121.398438 278.640625 L 150.058594 307.300781 L 162.308594 295.050781 L 133.648438 266.390625 Z M 150.058594 312.742188 C 149.480469 312.742188 148.90625 312.523438 148.464844 312.082031 L 116.617188 280.234375 C 116.191406 279.8125 115.957031 279.238281 115.957031 278.640625 C 115.957031 278.042969 116.191406 277.46875 116.617188 277.046875 L 132.054688 261.609375 C 132.933594 260.726562 134.359375 260.726562 135.242188 261.609375 L 167.089844 293.457031 C 167.511719 293.878906 167.75 294.453125 167.75 295.050781 C 167.75 295.648438 167.511719 296.222656 167.089844 296.644531 L 151.652344 312.082031 C 151.210938 312.523438 150.636719 312.742188 150.058594 312.742188 " fill-opacity="1" fill-rule="nonzero"/><path fill="#dfaa61" d="M 213.292969 269.21875 L 181.863281 269.21875 C 180.617188 269.21875 179.609375 268.207031 179.609375 266.964844 C 179.609375 265.71875 180.617188 264.707031 181.863281 264.707031 L 213.292969 264.707031 C 216.746094 264.707031 219.554688 261.898438 219.554688 258.445312 C 219.554688 258.25 219.546875 258.0625 219.53125 257.886719 C 219.527344 257.878906 219.527344 257.875 219.527344 257.867188 C 219.398438 256.417969 218.753906 255.050781 217.722656 254.015625 C 216.539062 252.832031 214.964844 252.183594 213.292969 252.183594 L 154.492188 252.183594 C 150.210938 252.183594 146.1875 253.847656 143.160156 256.875 L 135.242188 264.796875 C 134.359375 265.675781 132.933594 265.675781 132.050781 264.796875 C 131.171875 263.914062 131.171875 262.488281 132.050781 261.609375 L 139.972656 253.6875 C 141.890625 251.769531 144.132812 250.273438 146.636719 249.234375 C 149.136719 248.199219 151.78125 247.671875 154.492188 247.671875 L 213.292969 247.671875 C 216.167969 247.671875 218.875 248.792969 220.910156 250.828125 C 222.691406 252.609375 223.792969 254.964844 224.019531 257.460938 C 224.046875 257.777344 224.0625 258.109375 224.0625 258.445312 C 224.0625 264.386719 219.230469 269.21875 213.292969 269.21875 " fill-opacity="1" fill-rule="nonzero"/><path fill="#dfaa61" d="M 191.53125 244.707031 L 183.46875 244.707031 C 182.222656 244.707031 181.214844 243.699219 181.214844 242.453125 L 181.214844 171.105469 C 181.214844 169.863281 182.222656 168.851562 183.46875 168.851562 C 184.710938 168.851562 185.722656 169.863281 185.722656 171.105469 L 185.722656 240.199219 L 189.277344 240.199219 L 189.277344 171.105469 C 189.277344 169.863281 190.289062 168.851562 191.53125 168.851562 C 192.777344 168.851562 193.785156 169.863281 193.785156 171.105469 L 193.785156 242.453125 C 193.785156 243.699219 192.777344 244.707031 191.53125 244.707031 " fill-opacity="1" fill-rule="nonzero"/><path fill="#dfaa61" d="M 172.875 247.671875 L 202.125 247.671875 L 202.125 244.707031 L 172.875 244.707031 Z M 204.378906 252.183594 L 170.621094 252.183594 C 169.378906 252.183594 168.367188 251.171875 168.367188 249.925781 L 168.367188 242.453125 C 168.367188 241.207031 169.378906 240.199219 170.621094 240.199219 L 204.378906 240.199219 C 205.621094 240.199219 206.632812 241.207031 206.632812 242.453125 L 206.632812 249.925781 C 206.632812 251.171875 205.621094 252.183594 204.378906 252.183594 " fill-opacity="1" fill-rule="nonzero"/><path fill="#dfaa61" d="M 187.5 160.414062 C 184.933594 160.414062 182.84375 162.503906 182.84375 165.074219 C 182.84375 167.640625 184.933594 169.730469 187.5 169.730469 C 190.066406 169.730469 192.15625 167.640625 192.15625 165.074219 C 192.15625 162.503906 190.066406 160.414062 187.5 160.414062 Z M 187.5 174.238281 C 182.445312 174.238281 178.332031 170.128906 178.332031 165.074219 C 178.332031 160.019531 182.445312 155.90625 187.5 155.90625 C 192.554688 155.90625 196.667969 160.019531 196.667969 165.074219 C 196.667969 170.128906 192.554688 174.238281 187.5 174.238281 " fill-opacity="1" fill-rule="nonzero"/><path fill="#dfaa61" d="M 232.1875 167.328125 L 194.410156 167.328125 C 193.167969 167.328125 192.15625 166.320312 192.15625 165.074219 C 192.15625 163.828125 193.167969 162.820312 194.410156 162.820312 L 232.1875 162.820312 C 233.429688 162.820312 234.4375 163.828125 234.4375 165.074219 C 234.4375 166.320312 233.429688 167.328125 232.1875 167.328125 " fill-opacity="1" fill-rule="nonzero"/><path fill="#dfaa61" d="M 180.589844 167.328125 L 142.816406 167.328125 C 141.570312 167.328125 140.558594 166.320312 140.558594 165.074219 C 140.558594 163.828125 141.570312 162.820312 142.816406 162.820312 L 180.589844 162.820312 C 181.832031 162.820312 182.84375 163.828125 182.84375 165.074219 C 182.84375 166.320312 181.832031 167.328125 180.589844 167.328125 " fill-opacity="1" fill-rule="nonzero"/><path fill="#dfaa61" d="M 190.875 161.296875 C 189.628906 161.296875 188.621094 160.285156 188.621094 159.039062 L 188.621094 154.128906 C 188.621094 153.507812 188.117188 153.007812 187.5 153.007812 C 186.882812 153.007812 186.378906 153.507812 186.378906 154.128906 L 186.378906 159.039062 C 186.378906 160.285156 185.371094 161.296875 184.125 161.296875 C 182.878906 161.296875 181.871094 160.285156 181.871094 159.039062 L 181.871094 154.128906 C 181.871094 151.023438 184.394531 148.496094 187.5 148.496094 C 190.605469 148.496094 193.128906 151.023438 193.128906 154.128906 L 193.128906 159.039062 C 193.128906 160.285156 192.121094 161.296875 190.875 161.296875 " fill-opacity="1" fill-rule="nonzero"/><g clip-path="url(#1e63d25cc8)"><path fill="#ffffff" d="M 150.007812 16.808594 L 158.789062 34.761719 L 178.433594 37.640625 L 164.214844 51.625 L 167.582031 71.355469 L 150.007812 62.042969 L 132.421875 71.355469 L 135.777344 51.625 L 121.570312 37.640625 L 141.214844 34.761719 Z M 150.007812 16.808594 " fill-opacity="1" fill-rule="nonzero"/><path fill="#ffffff" d="M 149.871094 16.636719 L 158.664062 34.589844 L 178.308594 37.46875 L 164.089844 51.453125 L 167.445312 71.183594 L 149.871094 61.867188 L 132.296875 71.183594 L 135.652344 51.453125 L 121.433594 37.46875 L 141.078125 34.589844 Z M 149.871094 16.636719 " fill-opacity="1" fill-rule="nonzero"/><path fill="#ffffff" d="M 149.871094 16.636719 L 158.664062 34.589844 L 178.308594 37.46875 L 164.089844 51.453125 L 167.445312 71.183594 L 149.871094 61.867188 L 132.296875 71.183594 L 135.652344 51.453125 L 121.433594 37.46875 L 141.078125 34.589844 Z M 149.871094 16.636719 " fill-opacity="1" fill-rule="nonzero"/><path fill="#ffffff" d="M 149.871094 16.636719 L 158.664062 34.589844 L 178.308594 37.46875 L 164.089844 51.453125 L 167.445312 71.183594 L 149.871094 61.867188 L 132.296875 71.183594 L 135.652344 51.453125 L 121.433594 37.46875 L 141.078125 34.589844 Z M 149.871094 16.636719 " fill-opacity="1" fill-rule="nonzero"/></g><g clip-path="url(#d6130b9d61)"><path fill="#ffffff" d="M 225.347656 16.808594 L 234.128906 34.761719 L 253.773438 37.640625 L 239.554688 51.625 L 242.921875 71.355469 L 225.347656 62.042969 L 207.761719 71.355469 L 211.117188 51.625 L 196.910156 37.640625 L 216.554688 34.761719 Z M 225.347656 16.808594 " fill-opacity="1" fill-rule="nonzero"/><path fill="#ffffff" d="M 225.210938 16.636719 L 234.003906 34.589844 L 253.648438 37.46875 L 239.429688 51.453125 L 242.785156 71.183594 L 225.210938 61.867188 L 207.636719 71.183594 L 210.992188 51.453125 L 196.773438 37.46875 L 216.417969 34.589844 Z M 225.210938 16.636719 " fill-opacity="1" fill-rule="nonzero"/><path fill="#ffffff" d="M 225.210938 16.636719 L 234.003906 34.589844 L 253.648438 37.46875 L 239.429688 51.453125 L 242.785156 71.183594 L 225.210938 61.867188 L 207.636719 71.183594 L 210.992188 51.453125 L 196.773438 37.46875 L 216.417969 34.589844 Z M 225.210938 16.636719 " fill-opacity="1" fill-rule="nonzero"/><path fill="#ffffff" d="M 225.210938 16.636719 L 234.003906 34.589844 L 253.648438 37.46875 L 239.429688 51.453125 L 242.785156 71.183594 L 225.210938 61.867188 L 207.636719 71.183594 L 210.992188 51.453125 L 196.773438 37.46875 L 216.417969 34.589844 Z M 225.210938 16.636719 " fill-opacity="1" fill-rule="nonzero"/></g><g clip-path="url(#0802a39f8b)"><path fill="#ffffff" d="M 300.6875 16.808594 L 309.472656 34.761719 L 329.117188 37.640625 L 314.898438 51.625 L 318.261719 71.355469 L 300.6875 62.042969 L 283.105469 71.355469 L 286.460938 51.625 L 272.25 37.640625 L 291.894531 34.761719 Z M 300.6875 16.808594 " fill-opacity="1" fill-rule="nonzero"/></g><g clip-path="url(#24ad544f05)"><path fill="#ffffff" d="M 300.554688 16.636719 L 309.34375 34.589844 L 328.988281 37.46875 L 314.773438 51.453125 L 318.128906 71.183594 L 300.554688 61.867188 L 282.976562 71.183594 L 286.335938 51.453125 L 272.117188 37.46875 L 291.761719 34.589844 Z M 300.554688 16.636719 " fill-opacity="1" fill-rule="nonzero"/><path fill="#ffffff" d="M 300.554688 16.636719 L 309.34375 34.589844 L 328.988281 37.46875 L 314.773438 51.453125 L 318.128906 71.183594 L 300.554688 61.867188 L 282.976562 71.183594 L 286.335938 51.453125 L 272.117188 37.46875 L 291.761719 34.589844 Z M 300.554688 16.636719 " fill-opacity="1" fill-rule="nonzero"/><path fill="#ffffff" d="M 300.554688 16.636719 L 309.34375 34.589844 L 328.988281 37.46875 L 314.773438 51.453125 L 318.128906 71.183594 L 300.554688 61.867188 L 282.976562 71.183594 L 286.335938 51.453125 L 272.117188 37.46875 L 291.761719 34.589844 Z M 300.554688 16.636719 " fill-opacity="1" fill-rule="nonzero"/></g></svg>