<svg xmlns="http://www.w3.org/2000/svg" xmlns:xlink="http://www.w3.org/1999/xlink" width="500" zoomAndPan="magnify" viewBox="0 0 375 374.999991" height="500" preserveAspectRatio="xMidYMid meet" version="1.0"><defs><clipPath id="6244f8f77e"><path d="M 113.492188 29 L 177.242188 29 L 177.242188 89.613281 L 113.492188 89.613281 Z M 113.492188 29 " clip-rule="nonzero"/></clipPath><clipPath id="fba46b011e"><path d="M 113.492188 28.863281 L 177.242188 28.863281 L 177.242188 89.613281 L 113.492188 89.613281 Z M 113.492188 28.863281 " clip-rule="nonzero"/></clipPath><clipPath id="5a82554198"><path d="M 72 363 L 303 363 L 303 374.78125 L 72 374.78125 Z M 72 363 " clip-rule="nonzero"/></clipPath><clipPath id="599f87b6aa"><path d="M 173 108.53125 L 202 108.53125 L 202 145 L 173 145 Z M 173 108.53125 " clip-rule="nonzero"/></clipPath><clipPath id="3d03d759ea"><path d="M 54.265625 148 L 177 148 L 177 301 L 54.265625 301 Z M 54.265625 148 " clip-rule="nonzero"/></clipPath><clipPath id="67bfb699db"><path d="M 198 148 L 320.515625 148 L 320.515625 301 L 198 301 Z M 198 148 " clip-rule="nonzero"/></clipPath><clipPath id="383b56ee97"><path d="M 197.632812 29 L 261.382812 29 L 261.382812 89.613281 L 197.632812 89.613281 Z M 197.632812 29 " clip-rule="nonzero"/></clipPath><clipPath id="3aa6e2eb06"><path d="M 197.632812 28.863281 L 261.382812 28.863281 L 261.382812 89.613281 L 197.632812 89.613281 Z M 197.632812 28.863281 " clip-rule="nonzero"/></clipPath></defs><g clip-path="url(#6244f8f77e)"><path fill="#a6a6a6" d="M 145.507812 29.070312 L 155.347656 49.019531 L 177.359375 52.21875 L 161.425781 67.753906 L 165.199219 89.675781 L 145.507812 79.328125 L 125.804688 89.675781 L 129.5625 67.753906 L 113.644531 52.21875 L 135.65625 49.019531 Z M 145.507812 29.070312 " fill-opacity="1" fill-rule="nonzero"/></g><g clip-path="url(#fba46b011e)"><path fill="#a6a6a6" d="M 145.355469 28.882812 L 155.207031 48.828125 L 177.21875 52.027344 L 161.285156 67.5625 L 165.046875 89.484375 L 145.355469 79.136719 L 125.664062 89.484375 L 129.421875 67.5625 L 113.492188 52.027344 L 135.503906 48.828125 Z M 145.355469 28.882812 " fill-opacity="1" fill-rule="nonzero"/><path fill="#a6a6a6" d="M 145.355469 28.882812 L 155.207031 48.828125 L 177.21875 52.027344 L 161.285156 67.5625 L 165.046875 89.484375 L 145.355469 79.136719 L 125.664062 89.484375 L 129.421875 67.5625 L 113.492188 52.027344 L 135.503906 48.828125 Z M 145.355469 28.882812 " fill-opacity="1" fill-rule="nonzero"/><path fill="#a6a6a6" d="M 145.355469 28.882812 L 155.207031 48.828125 L 177.21875 52.027344 L 161.285156 67.5625 L 165.046875 89.484375 L 145.355469 79.136719 L 125.664062 89.484375 L 129.421875 67.5625 L 113.492188 52.027344 L 135.503906 48.828125 Z M 145.355469 28.882812 " fill-opacity="1" fill-rule="nonzero"/></g><g clip-path="url(#5a82554198)"><path fill="#ffffff" d="M 292.050781 363.167969 L 82.925781 363.167969 C 78.808594 363.167969 75.132812 365.933594 73.980469 369.886719 L 72.496094 374.992188 L 302.480469 374.992188 L 301 369.886719 C 299.847656 365.933594 296.167969 363.167969 292.050781 363.167969 Z M 292.050781 363.167969 " fill-opacity="1" fill-rule="nonzero"/></g><path fill="#ffffff" d="M 180.476562 149.1875 L 194.5 149.1875 L 194.5 156.53125 L 180.476562 156.53125 Z M 180.476562 149.1875 " fill-opacity="1" fill-rule="nonzero"/><g clip-path="url(#599f87b6aa)"><path fill="#ffffff" d="M 195.714844 144.820312 C 199.195312 140.988281 201.277344 135.0625 201.277344 128.714844 C 201.277344 117.589844 195.089844 108.53125 187.488281 108.53125 C 179.886719 108.53125 173.699219 117.589844 173.699219 128.714844 C 173.699219 135.058594 175.777344 140.988281 179.261719 144.820312 Z M 195.714844 144.820312 " fill-opacity="1" fill-rule="nonzero"/></g><path fill="#ffffff" d="M 180.476562 160.898438 L 194.5 160.898438 L 194.5 329.847656 L 180.476562 329.847656 Z M 180.476562 160.898438 " fill-opacity="1" fill-rule="nonzero"/><path fill="#ffffff" d="M 129.539062 347.039062 C 125.484375 347.039062 121.863281 349.757812 120.730469 353.644531 L 119.226562 358.800781 L 255.753906 358.800781 L 254.25 353.644531 C 253.117188 349.753906 249.492188 347.039062 245.441406 347.039062 Z M 129.539062 347.039062 " fill-opacity="1" fill-rule="nonzero"/><path fill="#ffffff" d="M 178.292969 334.214844 L 153.734375 334.214844 L 153.734375 342.671875 L 221.242188 342.671875 L 221.242188 334.214844 Z M 178.292969 334.214844 " fill-opacity="1" fill-rule="nonzero"/><g clip-path="url(#3d03d759ea)"><path fill="#ffffff" d="M 147.53125 271.84375 L 136.890625 271.84375 L 113.6875 181.011719 C 115.601562 181.351562 117.515625 181.546875 119.398438 181.546875 C 128.269531 181.546875 135.101562 178.902344 141.710938 176.34375 C 146.960938 174.308594 151.921875 172.386719 157.207031 172.214844 C 164.988281 171.957031 172.050781 175.402344 176.105469 177.894531 L 176.105469 160.214844 C 172.867188 159.117188 163.121094 156.214844 154.402344 157.707031 C 149.859375 158.484375 145.457031 160.847656 140.792969 163.351562 C 134.285156 166.84375 127.5625 170.453125 119.398438 170.453125 C 109.96875 170.453125 104.746094 167.160156 102.179688 164.761719 C 101.292969 165.761719 100.257812 166.644531 99.066406 167.328125 C 98.019531 167.925781 96.6875 167.5625 96.085938 166.515625 C 95.484375 165.46875 95.851562 164.136719 96.894531 163.535156 C 99.414062 162.089844 100.980469 159.394531 100.980469 156.5 C 100.980469 152.03125 97.347656 148.394531 92.878906 148.394531 C 88.410156 148.394531 84.777344 152.03125 84.777344 156.5 C 84.777344 160.789062 87.273438 165.300781 91.210938 169.292969 L 65.019531 271.84375 L 54.375 271.84375 C 56.085938 287.742188 76.324219 300.335938 100.953125 300.335938 C 125.585938 300.335938 145.824219 287.742188 147.53125 271.84375 Z M 132.355469 271.84375 L 103.136719 271.84375 L 103.136719 177.582031 C 104.988281 178.457031 106.898438 179.203125 108.847656 179.8125 Z M 98.769531 175.238281 L 98.769531 271.84375 L 69.554688 271.84375 L 94.917969 172.550781 C 96.136719 173.496094 97.410156 174.40625 98.769531 175.238281 Z M 98.769531 175.238281 " fill-opacity="1" fill-rule="nonzero"/></g><g clip-path="url(#67bfb699db)"><path fill="#ffffff" d="M 309.960938 271.84375 L 283.761719 169.296875 C 287.703125 165.300781 290.199219 160.792969 290.199219 156.5 C 290.199219 152.03125 286.566406 148.398438 282.097656 148.398438 C 277.628906 148.398438 273.996094 152.03125 273.996094 156.5 C 273.996094 159.398438 275.558594 162.097656 278.082031 163.539062 C 279.125 164.136719 279.488281 165.472656 278.890625 166.519531 C 278.292969 167.566406 276.957031 167.925781 275.910156 167.328125 C 274.71875 166.644531 273.683594 165.761719 272.796875 164.761719 C 270.230469 167.164062 265.003906 170.457031 255.578125 170.457031 C 247.414062 170.457031 240.691406 166.847656 234.183594 163.355469 C 229.519531 160.851562 225.117188 158.484375 220.574219 157.707031 C 211.855469 156.214844 202.109375 159.117188 198.871094 160.21875 L 198.871094 177.902344 C 202.925781 175.417969 209.988281 171.980469 217.769531 172.214844 C 223.054688 172.390625 228.015625 174.308594 233.265625 176.34375 C 239.871094 178.902344 246.707031 181.546875 255.578125 181.546875 C 257.460938 181.546875 259.375 181.351562 261.289062 181.011719 L 238.085938 271.84375 L 227.445312 271.84375 C 229.15625 287.742188 249.390625 300.335938 274.023438 300.335938 C 298.652344 300.335938 318.890625 287.742188 320.601562 271.84375 Z M 280.0625 172.550781 L 305.425781 271.84375 L 276.207031 271.84375 L 276.207031 175.238281 C 277.566406 174.40625 278.84375 173.496094 280.0625 172.550781 Z M 271.839844 177.582031 L 271.839844 271.84375 L 242.621094 271.84375 L 266.128906 179.8125 C 268.078125 179.203125 269.992188 178.457031 271.839844 177.582031 Z M 271.839844 177.582031 " fill-opacity="1" fill-rule="nonzero"/></g><g clip-path="url(#383b56ee97)"><path fill="#a6a6a6" d="M 229.648438 29.070312 L 239.488281 49.019531 L 261.5 52.21875 L 245.566406 67.753906 L 249.339844 89.675781 L 229.648438 79.328125 L 209.945312 89.675781 L 213.703125 67.753906 L 197.785156 52.21875 L 219.796875 49.019531 Z M 229.648438 29.070312 " fill-opacity="1" fill-rule="nonzero"/></g><g clip-path="url(#3aa6e2eb06)"><path fill="#a6a6a6" d="M 229.496094 28.882812 L 239.347656 48.828125 L 261.359375 52.027344 L 245.425781 67.5625 L 249.1875 89.484375 L 229.496094 79.136719 L 209.804688 89.484375 L 213.5625 67.5625 L 197.632812 52.027344 L 219.644531 48.828125 Z M 229.496094 28.882812 " fill-opacity="1" fill-rule="nonzero"/><path fill="#a6a6a6" d="M 229.496094 28.882812 L 239.347656 48.828125 L 261.359375 52.027344 L 245.425781 67.5625 L 249.1875 89.484375 L 229.496094 79.136719 L 209.804688 89.484375 L 213.5625 67.5625 L 197.632812 52.027344 L 219.644531 48.828125 Z M 229.496094 28.882812 " fill-opacity="1" fill-rule="nonzero"/><path fill="#a6a6a6" d="M 229.496094 28.882812 L 239.347656 48.828125 L 261.359375 52.027344 L 245.425781 67.5625 L 249.1875 89.484375 L 229.496094 79.136719 L 209.804688 89.484375 L 213.5625 67.5625 L 197.632812 52.027344 L 219.644531 48.828125 Z M 229.496094 28.882812 " fill-opacity="1" fill-rule="nonzero"/></g></svg>