<svg xmlns="http://www.w3.org/2000/svg" xmlns:xlink="http://www.w3.org/1999/xlink" width="500" zoomAndPan="magnify" viewBox="0 0 375 374.999991" height="500" preserveAspectRatio="xMidYMid meet" version="1.0"><defs><clipPath id="78b9aaa344"><path d="M 157.65625 11.1875 L 218.40625 11.1875 L 218.40625 68.9375 L 157.65625 68.9375 Z M 157.65625 11.1875 " clip-rule="nonzero"/></clipPath><clipPath id="1fac894c74"><path d="M 42.796875 105.878906 L 332.296875 105.878906 L 332.296875 363.878906 L 42.796875 363.878906 Z M 42.796875 105.878906 " clip-rule="nonzero"/></clipPath></defs><g clip-path="url(#78b9aaa344)"><path fill="#ffbd59" d="M 187.992188 11.386719 L 197.316406 30.289062 L 218.171875 33.320312 L 203.078125 48.039062 L 206.652344 68.8125 L 187.992188 59.003906 L 169.324219 68.8125 L 172.886719 48.039062 L 157.800781 33.320312 L 178.65625 30.289062 Z M 187.992188 11.386719 " fill-opacity="1" fill-rule="nonzero"/><path fill="#ffbd59" d="M 187.847656 11.207031 L 197.183594 30.105469 L 218.039062 33.136719 L 202.945312 47.859375 L 206.507812 68.628906 L 187.847656 58.824219 L 169.191406 68.628906 L 172.753906 47.859375 L 157.65625 33.136719 L 178.511719 30.105469 Z M 187.847656 11.207031 " fill-opacity="1" fill-rule="nonzero"/><path fill="#ffbd59" d="M 187.847656 11.207031 L 197.183594 30.105469 L 218.039062 33.136719 L 202.945312 47.859375 L 206.507812 68.628906 L 187.847656 58.824219 L 169.191406 68.628906 L 172.753906 47.859375 L 157.65625 33.136719 L 178.511719 30.105469 Z M 187.847656 11.207031 " fill-opacity="1" fill-rule="nonzero"/><path fill="#ffbd59" d="M 187.847656 11.207031 L 197.183594 30.105469 L 218.039062 33.136719 L 202.945312 47.859375 L 206.507812 68.628906 L 187.847656 58.824219 L 169.191406 68.628906 L 172.753906 47.859375 L 157.65625 33.136719 L 178.511719 30.105469 Z M 187.847656 11.207031 " fill-opacity="1" fill-rule="nonzero"/></g><g clip-path="url(#1fac894c74)"><path fill="#ffbd59" d="M 315.105469 251.183594 C 315.230469 250.785156 315.558594 250.492188 315.957031 250.421875 C 318.761719 249.960938 321.203125 248.851562 323.28125 247.101562 C 324.9375 245.703125 326.488281 243.625 327.9375 240.863281 C 330.492188 235.996094 331.902344 230.761719 332.160156 225.160156 C 332.183594 224.769531 332.039062 224.699219 331.730469 224.941406 C 326.390625 229.1875 321.4375 233.929688 316.875 239.164062 C 316.394531 239.707031 316.191406 239.621094 316.253906 238.902344 L 317.375 226.339844 C 317.410156 225.972656 317.644531 225.65625 317.988281 225.503906 C 321.546875 223.992188 324.125 221.671875 325.71875 218.550781 C 326.957031 216.132812 327.769531 212.933594 328.152344 208.949219 C 328.484375 205.550781 328.246094 202.121094 327.445312 198.660156 C 327.324219 198.132812 327.097656 198.082031 326.765625 198.5 C 322.804688 203.554688 319.195312 208.882812 315.933594 214.492188 C 315.824219 214.675781 315.753906 214.660156 315.722656 214.453125 L 313.734375 203.082031 C 313.628906 202.472656 313.800781 201.859375 314.195312 201.417969 C 318.894531 196.207031 320.933594 190.257812 320.316406 183.570312 C 319.980469 179.9375 319.082031 176.277344 317.628906 172.585938 C 317.523438 172.324219 317.402344 172.316406 317.257812 172.554688 C 314.050781 177.898438 311.375 183.40625 309.222656 189.070312 C 309.113281 189.355469 308.996094 189.359375 308.867188 189.082031 L 304.304688 179.199219 C 303.992188 178.523438 303.996094 177.851562 304.320312 177.179688 C 306.640625 172.28125 307.515625 167.359375 306.941406 162.414062 C 306.371094 157.488281 304.636719 152.941406 301.734375 148.769531 C 301.429688 148.335938 301.167969 148.359375 300.945312 148.839844 C 300.511719 149.789062 300.167969 150.917969 299.914062 152.21875 C 299.066406 156.621094 298.121094 161.203125 297.089844 165.960938 C 297.015625 166.289062 296.871094 166.324219 296.660156 166.058594 L 289.511719 157.058594 C 289.054688 156.484375 288.917969 155.867188 289.09375 155.203125 C 291.09375 147.566406 290.285156 140.191406 286.667969 133.070312 C 285.664062 131.101562 284.375 129.339844 282.800781 127.785156 C 282.582031 127.570312 282.4375 127.609375 282.363281 127.910156 C 281.003906 133.527344 280.300781 139.222656 280.246094 145.003906 C 280.246094 145.226562 280.167969 145.253906 280.015625 145.09375 L 271.730469 136.71875 C 271.179688 136.15625 270.960938 135.480469 271.074219 134.695312 C 271.351562 132.734375 271.074219 130.601562 270.242188 128.292969 C 267.515625 120.738281 262.988281 114.703125 256.660156 110.183594 C 255.84375 109.601562 255.460938 109.8125 255.507812 110.8125 C 255.789062 116.554688 256.957031 122.023438 259.011719 127.226562 C 259.179688 127.648438 259.082031 127.714844 258.726562 127.433594 C 255.421875 124.816406 252.085938 122.289062 248.71875 119.855469 C 244.589844 116.871094 241.0625 114.625 238.140625 113.125 C 231.691406 109.808594 224.835938 107.542969 217.578125 106.332031 C 216.289062 106.121094 214.984375 106.042969 213.664062 106.105469 C 213.402344 106.121094 213.371094 106.214844 213.5625 106.394531 C 216.976562 109.621094 220.546875 112.625 224.277344 115.410156 C 229.21875 119.105469 232.832031 121.5 235.109375 122.589844 C 238.984375 124.449219 243.398438 125.554688 248.347656 125.917969 C 249.316406 125.988281 250.152344 126.3125 250.859375 126.875 L 257.085938 131.867188 C 258.324219 132.859375 258.15625 133.246094 256.578125 133.015625 C 249.730469 132.039062 243.933594 133.722656 239.191406 138.066406 C 239.167969 138.085938 239.152344 138.109375 239.140625 138.136719 C 239.085938 138.246094 239.132812 138.378906 239.246094 138.433594 C 248.25 142.917969 257.675781 143.539062 267.523438 140.296875 C 267.957031 140.152344 268.429688 140.253906 268.746094 140.5625 L 276.722656 148.402344 C 277.390625 149.054688 277.269531 149.257812 276.363281 149.011719 C 275.535156 148.78125 274.738281 148.574219 273.96875 148.386719 C 273.148438 148.183594 272.335938 148.078125 271.527344 148.078125 C 266.957031 148.078125 262.242188 148.6875 257.378906 149.902344 C 257.101562 149.972656 257.078125 150.09375 257.300781 150.269531 C 265.898438 156.679688 275.378906 159.765625 285.742188 159.53125 C 285.949219 159.53125 286.144531 159.613281 286.285156 159.765625 C 288.964844 162.738281 291.296875 165.972656 293.277344 169.460938 C 293.378906 169.648438 293.328125 169.703125 293.128906 169.625 C 286.515625 167.132812 279.667969 165.652344 272.585938 165.183594 C 272.195312 165.160156 272.113281 165.300781 272.355469 165.613281 C 273.84375 167.566406 275.484375 169.445312 277.277344 171.25 C 282.871094 176.910156 290.296875 180.152344 299.546875 180.976562 C 299.785156 180.996094 300 181.136719 300.121094 181.347656 C 302.128906 184.992188 303.863281 188.660156 305.320312 192.351562 C 305.398438 192.542969 305.34375 192.585938 305.15625 192.472656 C 301.589844 190.277344 297.785156 188.628906 293.746094 187.53125 C 291.296875 186.867188 288.886719 186.222656 286.507812 185.597656 C 285.921875 185.441406 285.78125 185.625 286.09375 186.144531 C 287.546875 188.597656 289.164062 190.921875 290.941406 193.117188 C 293.035156 195.710938 295.058594 197.664062 297.003906 198.976562 C 300.355469 201.238281 304.289062 202.648438 308.804688 203.214844 C 309.261719 203.273438 309.621094 203.601562 309.695312 204.023438 L 311.566406 215.078125 C 311.628906 215.460938 311.511719 215.527344 311.207031 215.265625 C 306.511719 211.214844 301.191406 208.292969 295.25 206.496094 C 295.222656 206.488281 295.191406 206.484375 295.160156 206.492188 C 295.046875 206.507812 294.96875 206.613281 294.984375 206.722656 C 296.203125 215.070312 300.601562 221.023438 308.179688 224.585938 C 309.492188 225.203125 310.949219 225.59375 312.554688 225.753906 C 312.742188 225.769531 312.875 225.933594 312.863281 226.117188 L 312.117188 238.167969 C 312.078125 238.929688 311.828125 239.007812 311.382812 238.390625 C 308.144531 233.898438 304.070312 229.984375 299.152344 226.648438 C 299.105469 226.617188 299.054688 226.597656 299 226.59375 C 298.828125 226.582031 298.679688 226.710938 298.664062 226.882812 C 298.472656 229.273438 298.449219 231.761719 298.585938 234.355469 C 298.707031 236.667969 299.226562 238.71875 300.148438 240.5 C 302.378906 244.828125 305.605469 247.953125 309.835938 249.875 C 310.265625 250.070312 310.5 250.550781 310.386719 251.015625 C 309.378906 255.113281 308.105469 259.097656 306.574219 262.964844 C 306.332031 263.582031 306.132812 263.566406 305.988281 262.925781 C 305.136719 259.246094 303.734375 255.621094 301.773438 252.054688 C 300.523438 249.773438 299.238281 248.011719 297.90625 246.777344 C 297.886719 246.753906 297.859375 246.738281 297.828125 246.730469 C 297.714844 246.695312 297.597656 246.757812 297.5625 246.871094 C 296.429688 250.308594 295.773438 253.839844 295.601562 257.464844 C 295.3125 263.492188 297.238281 268.660156 301.378906 272.96875 C 301.613281 273.21875 301.667969 273.574219 301.519531 273.855469 L 296.195312 283.722656 C 296.035156 284.023438 295.929688 284.003906 295.878906 283.664062 C 294.9375 277.945312 293.085938 272.683594 290.328125 267.878906 C 289.96875 267.25 289.644531 267.269531 289.355469 267.933594 C 287.683594 271.859375 286.648438 276.132812 286.257812 280.75 C 285.898438 285.023438 286.792969 289.171875 288.945312 293.210938 C 289.375 294.011719 289.320312 294.734375 288.777344 295.371094 L 281.152344 304.355469 C 280.984375 304.546875 280.902344 304.515625 280.90625 304.25 C 280.96875 298.726562 280.234375 293.164062 278.699219 287.558594 C 278.6875 287.519531 278.664062 287.476562 278.636719 287.445312 C 278.527344 287.328125 278.351562 287.316406 278.238281 287.421875 C 277.136719 288.414062 276.28125 289.4375 275.667969 290.480469 C 273.679688 293.867188 272.152344 297.449219 271.097656 301.226562 C 270.105469 304.75 270.039062 308.28125 270.902344 311.824219 C 270.949219 312.023438 270.890625 312.226562 270.746094 312.367188 C 267.453125 315.421875 264.046875 318.160156 260.519531 320.578125 C 260.164062 320.820312 260.058594 320.742188 260.207031 320.335938 C 261.070312 317.96875 261.546875 315.671875 261.632812 313.449219 C 261.753906 310.125 261.617188 306.816406 261.214844 303.527344 C 261.144531 302.953125 260.890625 302.851562 260.449219 303.21875 C 254.414062 308.292969 250.597656 314.707031 248.988281 322.457031 C 248.816406 323.296875 248.703125 324.371094 248.65625 325.683594 C 248.644531 325.988281 248.480469 326.261719 248.222656 326.398438 L 237.765625 332.160156 C 237.316406 332.40625 237.222656 332.308594 237.492188 331.867188 C 240.695312 326.617188 242.296875 320.925781 242.296875 314.785156 C 242.296875 314.761719 242.292969 314.734375 242.285156 314.710938 C 242.246094 314.574219 242.109375 314.5 241.976562 314.539062 C 240.59375 314.929688 239.320312 315.558594 238.160156 316.433594 C 232.523438 320.660156 228.089844 326.0625 224.863281 332.640625 C 224.714844 332.941406 224.460938 333.179688 224.152344 333.300781 C 213.226562 337.652344 202.085938 340.457031 190.738281 341.714844 C 188.402344 341.976562 186.070312 341.945312 183.742188 341.632812 C 172.558594 340.105469 161.714844 337.34375 151.203125 333.351562 C 150.5 333.078125 149.972656 332.617188 149.617188 331.957031 C 147.082031 327.261719 143.960938 323.003906 140.25 319.179688 C 138.296875 317.164062 135.984375 315.628906 133.316406 314.574219 C 133.21875 314.535156 133.117188 314.519531 133.011719 314.53125 C 132.65625 314.5625 132.390625 314.882812 132.421875 315.238281 C 132.976562 321.355469 134.667969 326.898438 137.496094 331.878906 C 137.734375 332.304688 137.65625 332.371094 137.265625 332.082031 C 134.304688 329.886719 130.976562 327.875 127.28125 326.058594 C 127.082031 325.957031 126.957031 325.761719 126.949219 325.542969 C 126.898438 323.96875 126.648438 322.449219 126.195312 320.980469 C 124.585938 315.847656 122.085938 311.207031 118.6875 307.046875 C 117.40625 305.480469 115.964844 304.179688 114.359375 303.148438 C 114.296875 303.105469 114.21875 303.078125 114.140625 303.074219 C 113.878906 303.054688 113.652344 303.25 113.632812 303.511719 C 113.382812 306.757812 113.351562 309.898438 113.546875 312.9375 C 113.703125 315.425781 114.269531 317.816406 115.238281 320.117188 C 115.515625 320.773438 115.378906 320.882812 114.828125 320.445312 L 104.894531 312.503906 C 104.746094 312.386719 104.6875 312.1875 104.746094 311.988281 C 105.410156 309.609375 105.652344 307.707031 105.46875 306.273438 C 104.585938 299.394531 101.917969 293.214844 97.46875 287.738281 C 96.886719 287.027344 96.496094 287.117188 96.289062 288.011719 C 95.070312 293.320312 94.535156 298.773438 94.6875 304.371094 C 94.691406 304.667969 94.597656 304.707031 94.410156 304.488281 L 85.808594 294.875 C 85.554688 294.582031 85.519531 294.140625 85.726562 293.777344 C 88.496094 288.9375 89.417969 283.914062 88.480469 278.714844 C 88.097656 276.585938 87.546875 274.574219 86.824219 272.6875 C 86.074219 270.710938 85.046875 268.878906 83.738281 267.1875 C 83.71875 267.160156 83.691406 267.144531 83.667969 267.128906 C 83.5625 267.078125 83.441406 267.117188 83.394531 267.21875 C 81.027344 272.082031 79.4375 277.585938 78.617188 283.734375 C 78.542969 284.289062 78.375 284.328125 78.117188 283.839844 L 72.738281 273.863281 C 72.644531 273.6875 72.671875 273.46875 72.804688 273.308594 C 74.777344 270.832031 76.160156 268.949219 76.949219 267.660156 C 78.175781 265.652344 78.898438 263.222656 79.105469 260.367188 C 79.4375 255.84375 78.816406 251.390625 77.25 247.011719 C 77.070312 246.507812 76.816406 246.46875 76.488281 246.902344 C 72.824219 251.769531 70.175781 257.074219 68.535156 262.8125 C 68.40625 263.273438 68.253906 263.277344 68.09375 262.828125 C 66.585938 258.738281 65.359375 254.671875 64.414062 250.628906 C 64.316406 250.210938 64.515625 249.777344 64.902344 249.582031 C 69.457031 247.292969 72.785156 244.183594 74.882812 240.257812 C 75.707031 238.714844 76.183594 237.066406 76.308594 235.316406 C 76.503906 232.609375 76.566406 229.746094 76.492188 226.722656 C 76.484375 226.386719 76.34375 226.316406 76.070312 226.515625 C 71.210938 230.023438 66.933594 234.210938 63.238281 239.085938 C 63.09375 239.269531 63.015625 239.25 63.003906 239.019531 L 62.222656 226.199219 C 62.207031 225.9375 62.390625 225.699219 62.660156 225.636719 C 72.824219 223.132812 78.714844 216.824219 80.320312 206.707031 C 80.324219 206.675781 80.320312 206.644531 80.3125 206.617188 C 80.277344 206.511719 80.164062 206.453125 80.058594 206.484375 C 74.246094 208.292969 69.011719 211.011719 64.355469 214.632812 C 63.925781 214.96875 63.746094 214.867188 63.808594 214.328125 C 64.226562 210.710938 64.894531 207.140625 65.808594 203.613281 C 65.90625 203.214844 66.261719 202.9375 66.675781 202.929688 C 69.242188 202.875 71.683594 202.246094 73.992188 201.035156 C 80.519531 197.601562 85.496094 192.601562 88.917969 186.035156 C 89.070312 185.738281 88.984375 185.625 88.65625 185.6875 C 82.230469 186.917969 76.011719 189.160156 70 192.421875 C 69.503906 192.691406 69.351562 192.558594 69.542969 192.03125 C 70.800781 188.539062 72.398438 184.984375 74.328125 181.367188 C 74.445312 181.144531 74.667969 180.996094 74.921875 180.96875 C 83.902344 180.136719 91.101562 176.984375 96.527344 171.519531 C 98.398438 169.628906 100.136719 167.621094 101.738281 165.492188 C 101.914062 165.25 101.855469 165.144531 101.5625 165.171875 C 96.976562 165.589844 92.4375 166.316406 87.941406 167.351562 C 85.996094 167.804688 84.132812 168.488281 82.355469 169.410156 C 81.605469 169.796875 81.4375 169.621094 81.851562 168.882812 C 83.632812 165.699219 85.808594 162.660156 88.371094 159.765625 C 88.507812 159.613281 88.707031 159.523438 88.917969 159.53125 C 99.078125 159.792969 108.125 156.714844 116.058594 150.300781 C 116.5625 149.890625 116.5 149.621094 115.863281 149.492188 C 114.527344 149.222656 113.101562 148.992188 111.589844 148.792969 C 111.527344 148.785156 110.277344 148.59375 107.84375 148.210938 C 104.441406 147.675781 101.058594 147.863281 97.691406 148.769531 C 97.484375 148.824219 97.449219 148.773438 97.589844 148.621094 C 100.390625 145.484375 103.46875 142.65625 106.832031 140.144531 C 107 140.019531 107.214844 139.988281 107.40625 140.054688 C 116.394531 143.109375 125.433594 142.546875 134.519531 138.367188 C 134.554688 138.355469 134.585938 138.332031 134.613281 138.308594 C 134.757812 138.175781 134.769531 137.945312 134.636719 137.800781 C 130.652344 133.535156 125.8125 131.800781 120.113281 132.601562 C 119.078125 132.746094 118.046875 132.769531 117.023438 132.664062 C 116.804688 132.640625 116.785156 132.5625 116.964844 132.421875 C 119.75 130.269531 122.617188 128.234375 125.5625 126.320312 C 126.410156 125.769531 127.335938 125.445312 128.34375 125.34375 C 129.882812 125.1875 131.429688 125.066406 132.976562 124.972656 C 135.109375 124.847656 137.648438 123.964844 140.585938 122.324219 C 145.03125 119.851562 149.1875 116.960938 153.054688 113.652344 C 155.800781 111.300781 158.671875 108.863281 161.667969 106.34375 C 161.988281 106.078125 161.941406 105.941406 161.523438 105.941406 C 159.507812 105.925781 157.796875 106.054688 156.394531 106.324219 C 145.574219 108.417969 135.75 112.734375 126.917969 119.269531 C 122.980469 122.183594 119.078125 125.144531 115.203125 128.148438 C 115.039062 128.285156 115 128.253906 115.082031 128.058594 C 117.417969 122.589844 118.84375 116.644531 119.363281 110.21875 C 119.402344 109.777344 119.234375 109.679688 118.863281 109.925781 C 112.050781 114.441406 107.152344 120.648438 104.171875 128.554688 C 103.480469 130.386719 103.304688 132.714844 103.644531 135.546875 C 103.671875 135.761719 103.601562 135.964844 103.457031 136.105469 L 94.601562 144.859375 C 94.339844 145.117188 94.21875 145.058594 94.226562 144.691406 C 94.339844 138.839844 93.777344 133.519531 92.546875 128.742188 C 92.34375 127.957031 91.996094 127.886719 91.503906 128.535156 C 85.746094 136.125 83.804688 144.941406 85.683594 154.984375 C 85.8125 155.679688 85.644531 156.292969 85.183594 156.824219 C 82.757812 159.617188 80.367188 162.792969 78.011719 166.355469 C 77.726562 166.789062 77.535156 166.746094 77.445312 166.234375 L 74.4375 149.398438 C 74.269531 148.449219 73.902344 148.371094 73.335938 149.167969 C 67.425781 157.503906 66.433594 166.738281 70.347656 176.878906 C 70.722656 177.847656 70.691406 178.796875 70.257812 179.722656 L 65.789062 189.253906 C 65.613281 189.625 65.460938 189.613281 65.324219 189.230469 C 63.351562 183.601562 60.671875 178.34375 57.285156 173.449219 C 57.160156 173.273438 57.058594 173.289062 56.980469 173.492188 C 55.800781 176.570312 55.09375 180.035156 54.863281 183.886719 C 54.460938 190.671875 56.367188 196.386719 60.585938 201.042969 C 61.1875 201.707031 61.410156 202.5 61.253906 203.425781 L 59.550781 213.398438 C 59.421875 214.152344 59.160156 214.203125 58.761719 213.5625 C 55.503906 208.253906 51.871094 203.179688 47.871094 198.339844 C 47.726562 198.171875 47.632812 198.195312 47.59375 198.40625 C 46.113281 205.5625 46.96875 212.402344 50.164062 218.929688 C 51.628906 221.917969 54.035156 224.050781 57.390625 225.332031 C 57.625 225.417969 57.785156 225.644531 57.800781 225.90625 L 58.460938 239.199219 C 58.5 239.992188 58.285156 240.070312 57.820312 239.433594 C 53.757812 233.804688 48.917969 228.871094 43.296875 224.621094 C 42.964844 224.367188 42.800781 224.445312 42.816406 224.867188 C 42.964844 230.390625 44.199219 235.511719 46.527344 240.238281 C 48.046875 243.328125 50.046875 245.84375 52.523438 247.785156 C 53.4375 248.488281 54.4375 249.042969 55.535156 249.4375 C 56.621094 249.828125 57.726562 250.125 58.863281 250.324219 C 59.285156 250.402344 59.628906 250.699219 59.75 251.097656 L 63.332031 262.902344 C 63.496094 263.4375 63.34375 263.546875 62.878906 263.21875 C 58.832031 260.375 54.761719 257.679688 50.671875 255.132812 C 48.726562 253.914062 47.09375 253.058594 45.777344 252.5625 C 45.570312 252.480469 45.484375 252.546875 45.523438 252.769531 C 47.125 261.3125 51.421875 267.894531 58.410156 272.511719 C 59.996094 273.558594 61.519531 274.320312 62.980469 274.792969 C 64.640625 275.328125 66.339844 275.621094 68.078125 275.671875 C 68.359375 275.683594 68.613281 275.839844 68.746094 276.082031 L 74.398438 286.269531 C 74.71875 286.84375 74.582031 286.996094 73.980469 286.710938 C 67.8125 283.804688 61.308594 281.242188 54.464844 279.015625 C 54.203125 278.929688 54.125 279.015625 54.238281 279.269531 C 56.070312 283.441406 58.542969 287.03125 61.652344 290.042969 C 66.800781 295.023438 73.246094 297.210938 80.988281 296.613281 C 81.277344 296.59375 81.550781 296.703125 81.730469 296.910156 L 90.957031 307.425781 C 91.089844 307.582031 91.140625 307.761719 91.074219 307.855469 C 91.007812 307.941406 90.878906 307.945312 90.683594 307.867188 C 86.808594 306.257812 82.789062 305.171875 78.632812 304.613281 C 75.660156 304.210938 72.6875 303.8125 69.714844 303.429688 C 69.5 303.398438 69.453125 303.46875 69.574219 303.652344 C 71.542969 306.46875 74.0625 309.039062 77.121094 311.359375 C 81.574219 314.726562 86.464844 316.710938 91.792969 317.316406 C 94.964844 317.671875 97.984375 317.273438 100.863281 316.125 C 101.183594 315.996094 101.542969 316.03125 101.828125 316.222656 C 105.5 318.667969 109.007812 321.308594 112.359375 324.144531 C 113.199219 324.855469 113.089844 325.070312 112.027344 324.789062 C 110.308594 324.332031 108.5625 324.179688 106.792969 324.328125 C 102.417969 324.695312 97.804688 325.347656 92.953125 326.285156 C 92.65625 326.34375 92.621094 326.46875 92.855469 326.664062 C 95.617188 328.933594 98.558594 330.761719 101.664062 332.144531 C 105.097656 333.675781 108.410156 334.472656 111.589844 334.527344 C 116.34375 334.617188 120.777344 333.234375 124.894531 330.390625 C 125.066406 330.269531 125.28125 330.25 125.460938 330.335938 C 129.230469 332.074219 132.84375 333.992188 136.300781 336.097656 C 137.171875 336.625 137.101562 336.9375 136.085938 337.035156 C 130.019531 337.597656 124.261719 339.207031 118.816406 341.855469 C 118.332031 342.097656 118.332031 342.332031 118.816406 342.566406 C 123.910156 345.007812 129.28125 346.273438 134.9375 346.363281 C 140.617188 346.445312 145.40625 344.742188 149.3125 341.25 C 149.722656 340.882812 150.300781 340.757812 150.839844 340.914062 C 160.308594 343.726562 169.449219 345.949219 178.265625 347.585938 C 179.441406 347.808594 179.449219 348.042969 178.28125 348.300781 C 168.949219 350.351562 161.230469 355.21875 155.125 362.890625 C 154.636719 363.503906 154.785156 363.765625 155.5625 363.664062 C 161.445312 362.933594 166.808594 361.433594 171.652344 359.164062 C 176.925781 356.683594 181.960938 353.71875 186.757812 350.257812 C 186.921875 350.136719 187.140625 350.136719 187.304688 350.257812 C 195.402344 356.050781 204.265625 360.234375 213.894531 362.808594 C 215.167969 363.144531 216.558594 363.34375 218.074219 363.40625 C 218.550781 363.421875 218.648438 363.242188 218.359375 362.859375 C 214.707031 357.984375 210.082031 354.09375 204.488281 351.1875 C 202.109375 349.957031 199.589844 349.070312 196.9375 348.53125 C 195.441406 348.234375 195.445312 347.960938 196.957031 347.71875 C 206.382812 346.203125 215.703125 343.828125 224.917969 340.597656 C 225.101562 340.527344 225.3125 340.578125 225.457031 340.71875 C 229.386719 344.601562 234.039062 346.515625 239.421875 346.46875 C 245.617188 346.414062 251.320312 344.933594 256.523438 342.023438 C 257.097656 341.703125 257.078125 341.410156 256.476562 341.144531 C 250.636719 338.542969 244.597656 337.125 238.367188 336.882812 C 237.679688 336.851562 237.648438 336.6875 238.269531 336.386719 L 250.457031 330.472656 C 250.757812 330.332031 251.109375 330.351562 251.378906 330.53125 C 254.851562 332.867188 258.554688 334.15625 262.492188 334.398438 C 265.824219 334.609375 269.332031 333.914062 273.019531 332.324219 C 276.265625 330.925781 279.382812 329.039062 282.378906 326.667969 C 282.660156 326.441406 282.628906 326.285156 282.277344 326.191406 C 275.664062 324.460938 269.246094 323.882812 263.019531 324.464844 C 262.789062 324.488281 262.765625 324.433594 262.949219 324.296875 L 273.820312 316.21875 C 273.976562 316.101562 274.191406 316.066406 274.40625 316.121094 C 282.953125 318.324219 290.777344 316.789062 297.886719 311.515625 C 300.910156 309.273438 303.390625 306.691406 305.320312 303.773438 C 305.4375 303.589844 305.386719 303.511719 305.171875 303.53125 C 302.011719 303.867188 298.863281 304.25 295.71875 304.683594 C 292.019531 305.191406 288.441406 306.152344 284.984375 307.566406 C 284.3125 307.847656 284.191406 307.695312 284.632812 307.113281 C 287.160156 303.765625 290.113281 300.34375 293.5 296.847656 C 293.738281 296.597656 294.074219 296.46875 294.414062 296.488281 C 300.496094 296.863281 305.800781 295.164062 310.332031 291.394531 C 314.222656 288.152344 317.238281 284.222656 319.375 279.609375 C 319.566406 279.1875 319.453125 279.058594 319.023438 279.21875 L 300.722656 286.113281 C 300.3125 286.269531 300.21875 286.167969 300.433594 285.800781 L 306.46875 275.730469 C 306.613281 275.492188 306.890625 275.347656 307.195312 275.347656 C 309.40625 275.355469 311.46875 274.882812 313.386719 273.929688 C 321.871094 269.683594 327.132812 262.75 329.175781 253.128906 C 329.289062 252.601562 329.109375 252.472656 328.640625 252.738281 C 323.007812 255.996094 317.566406 259.429688 312.320312 263.03125 C 311.613281 263.511719 311.382812 263.339844 311.636719 262.515625 Z M 315.105469 251.183594 " fill-opacity="1" fill-rule="nonzero"/></g><path fill="#ffbd59" d="M 191.226562 155.847656 C 191.726562 156.050781 192.199219 156.304688 192.644531 156.601562 C 193.09375 156.902344 193.507812 157.242188 193.886719 157.621094 C 194.269531 158.003906 194.609375 158.417969 194.90625 158.863281 C 195.207031 159.3125 195.457031 159.785156 195.664062 160.28125 C 195.871094 160.78125 196.027344 161.292969 196.128906 161.820312 C 196.234375 162.347656 196.289062 162.882812 196.289062 163.417969 C 196.289062 163.957031 196.234375 164.492188 196.128906 165.019531 C 196.027344 165.546875 195.871094 166.058594 195.664062 166.554688 C 195.457031 167.054688 195.207031 167.527344 194.90625 167.972656 C 194.609375 168.421875 194.269531 168.835938 193.886719 169.214844 C 193.507812 169.597656 193.09375 169.9375 192.644531 170.234375 C 192.199219 170.535156 191.726562 170.785156 191.226562 170.992188 C 190.730469 171.199219 190.21875 171.355469 189.691406 171.457031 C 189.160156 171.5625 188.628906 171.617188 188.089844 171.617188 C 187.550781 171.617188 187.019531 171.5625 186.492188 171.457031 C 185.964844 171.355469 185.449219 171.199219 184.953125 170.992188 C 184.457031 170.785156 183.984375 170.535156 183.535156 170.234375 C 183.089844 169.9375 182.675781 169.597656 182.292969 169.214844 C 181.914062 168.835938 181.574219 168.421875 181.273438 167.972656 C 180.976562 167.527344 180.722656 167.054688 180.515625 166.554688 C 180.3125 166.058594 180.15625 165.546875 180.050781 165.019531 C 179.945312 164.492188 179.894531 163.957031 179.894531 163.417969 C 179.894531 162.882812 179.945312 162.347656 180.050781 161.820312 C 180.15625 161.292969 180.3125 160.78125 180.515625 160.28125 C 180.722656 159.785156 180.976562 159.3125 181.273438 158.863281 C 181.574219 158.417969 181.914062 158.003906 182.292969 157.621094 C 182.675781 157.242188 183.089844 156.902344 183.535156 156.601562 C 183.984375 156.304688 184.457031 156.050781 184.953125 155.847656 C 185.449219 155.640625 185.964844 155.484375 186.492188 155.378906 C 187.019531 155.273438 187.550781 155.222656 188.089844 155.222656 C 188.628906 155.222656 189.160156 155.273438 189.691406 155.378906 C 190.21875 155.484375 190.730469 155.640625 191.226562 155.847656 Z M 191.226562 155.847656 " fill-opacity="1" fill-rule="nonzero"/><path fill="#ffbd59" d="M 274.320312 258.378906 C 274.128906 258.28125 273.992188 258.109375 273.9375 257.902344 C 272.515625 252.40625 270.925781 246.996094 269.179688 241.675781 C 264.472656 227.363281 259.65625 213.082031 254.742188 198.832031 C 254.339844 197.65625 253.988281 196.710938 253.691406 196.003906 C 255.203125 194.902344 256.191406 193.125 256.191406 191.113281 C 256.191406 188.949219 255.054688 187.058594 253.351562 185.992188 C 253.644531 185.921875 253.914062 185.84375 254.171875 185.761719 C 257.007812 185.257812 259.160156 182.789062 259.160156 179.808594 C 259.160156 177.652344 258.035156 175.765625 256.335938 174.691406 C 255.527344 174.117188 254.640625 173.804688 253.671875 173.761719 C 254.410156 174.621094 254.898438 175.703125 255.015625 176.882812 C 255.375 180.492188 252.367188 183.496094 248.761719 183.140625 C 248.492188 183.113281 248.230469 183.0625 247.96875 183 C 247.980469 183.019531 247.992188 183.039062 248.007812 183.058594 C 230.71875 180.054688 213.480469 177.222656 196.289062 174.558594 C 190.746094 173.703125 185.316406 173.667969 180.003906 174.460938 C 163.910156 176.859375 146.785156 179.757812 128.632812 183.15625 C 128.640625 183.144531 128.648438 183.132812 128.65625 183.117188 C 128.226562 183.171875 127.785156 183.183594 127.332031 183.136719 C 124.664062 182.871094 122.5 180.714844 122.238281 178.046875 C 122.074219 176.402344 122.609375 174.886719 123.585938 173.753906 C 123.15625 173.753906 122.738281 173.800781 122.332031 173.882812 C 122.136719 173.921875 121.9375 173.964844 121.734375 174.019531 C 120.496094 174.355469 119.523438 175.050781 118.808594 176.101562 C 118.015625 177.125 117.539062 178.410156 117.539062 179.804688 C 117.539062 179.863281 117.546875 179.921875 117.546875 179.984375 C 117.484375 181.328125 117.859375 182.511719 118.6875 183.535156 C 119.523438 184.574219 120.601562 185.351562 121.910156 185.878906 C 120.109375 186.925781 118.894531 188.875 118.894531 191.109375 C 118.894531 193.359375 120.121094 195.3125 121.9375 196.359375 C 120.378906 201.449219 118.683594 206.523438 116.847656 211.566406 C 113.136719 221.765625 109.546875 232.003906 106.074219 242.289062 C 103.742188 249.179688 102.140625 254.550781 101.261719 258.402344 C 101.21875 258.585938 101.058594 258.726562 100.863281 258.738281 C 99.382812 258.859375 98.527344 259.628906 98.300781 261.042969 C 97.90625 263.507812 98.769531 265.199219 100.882812 266.113281 C 101.273438 266.285156 101.847656 266.382812 102.605469 266.40625 C 103.199219 266.433594 103.785156 266.503906 104.367188 266.628906 C 104.570312 266.671875 104.761719 266.777344 104.914062 266.9375 C 105.925781 267.996094 106.921875 269.066406 107.90625 270.152344 C 110.390625 272.890625 113.289062 274.796875 116.605469 275.867188 C 119.574219 276.828125 122.914062 277.207031 126.632812 277.007812 C 133.84375 276.613281 139.671875 273.320312 144.125 267.132812 C 144.25 266.960938 144.441406 266.855469 144.640625 266.847656 C 145.160156 266.824219 145.679688 266.824219 146.195312 266.847656 C 146.957031 266.878906 147.574219 266.824219 148.039062 266.6875 C 151.050781 265.824219 152.199219 263.796875 151.484375 260.601562 C 151.371094 260.082031 151.1875 259.679688 150.9375 259.398438 C 150.589844 259.007812 150.175781 258.789062 149.699219 258.746094 C 149.324219 258.714844 149.007812 258.449219 148.910156 258.082031 C 147.429688 252.324219 145.84375 246.816406 144.148438 241.5625 C 139.3125 226.578125 134.207031 211.683594 128.835938 196.882812 C 128.746094 196.632812 128.609375 196.359375 128.4375 196.054688 C 129.988281 194.957031 131.003906 193.15625 131.003906 191.113281 C 131.003906 188.96875 129.886719 187.089844 128.203125 186.011719 C 132.269531 185.476562 137.8125 184.664062 144.847656 183.574219 C 157.429688 181.632812 169.851562 179.660156 182.117188 177.664062 C 182.132812 177.660156 182.152344 177.660156 182.171875 177.660156 C 182.484375 177.640625 182.75 177.878906 182.765625 178.191406 C 183.890625 202.488281 184.394531 226.796875 184.277344 251.113281 C 184.253906 255.90625 184.171875 260.246094 184.023438 264.125 C 183.699219 272.582031 183.226562 279.476562 182.605469 284.800781 C 182 290.027344 181.183594 294.804688 180.164062 299.121094 C 179.324219 302.671875 178.136719 306.175781 176.589844 309.648438 C 175.054688 313.097656 173.394531 315.90625 171.617188 318.070312 C 169.519531 320.617188 167.035156 322.796875 164.175781 324.613281 C 161.207031 326.5 158.1875 328.324219 155.136719 330.089844 C 154.039062 330.722656 154.113281 331.148438 155.363281 331.363281 C 165.976562 333.179688 176.296875 333.019531 186.332031 330.867188 C 187.292969 330.664062 188.261719 330.652344 189.234375 330.828125 C 199.425781 332.707031 209.316406 332.988281 218.90625 331.667969 C 220.484375 331.449219 220.636719 330.855469 219.378906 329.886719 C 218.304688 329.070312 216.996094 328.257812 215.453125 327.453125 C 210.46875 324.859375 206.394531 321.382812 203.234375 317.03125 C 201.136719 314.148438 199.269531 310.257812 197.628906 305.351562 C 195.753906 299.753906 194.488281 294.203125 193.839844 288.699219 C 191.710938 270.628906 190.804688 251.695312 191.132812 231.902344 C 191.429688 213.941406 191.953125 195.988281 192.6875 178.039062 C 192.6875 178.027344 192.691406 178.011719 192.691406 178 C 192.71875 177.839844 192.863281 177.730469 193.019531 177.757812 L 246.828125 186.035156 C 245.179688 187.117188 244.085938 188.980469 244.085938 191.097656 C 244.085938 193.261719 245.222656 195.152344 246.933594 196.226562 C 246.902344 196.277344 246.875 196.328125 246.859375 196.378906 C 243.335938 206.578125 239.769531 216.765625 236.15625 226.9375 C 232.914062 236.0625 229.90625 245.269531 227.121094 254.546875 C 226.804688 255.605469 226.542969 256.792969 226.339844 258.113281 C 226.304688 258.320312 226.167969 258.492188 225.972656 258.5625 C 223.957031 259.320312 223.011719 260.566406 223.128906 262.308594 C 223.21875 263.675781 223.765625 264.789062 224.773438 265.652344 C 225.824219 266.566406 227.167969 266.871094 228.804688 266.570312 C 229.4375 266.453125 230.085938 266.675781 230.515625 267.164062 C 231.699219 268.507812 232.898438 269.765625 234.113281 270.941406 C 235.539062 272.320312 236.917969 273.371094 238.242188 274.097656 C 241.523438 275.894531 245.273438 276.855469 249.5 276.980469 C 258.207031 277.238281 264.929688 274.019531 269.652344 267.328125 C 269.769531 267.160156 269.960938 267.058594 270.160156 267.058594 C 271.816406 267.078125 273.300781 266.695312 274.605469 265.914062 C 276.019531 265.066406 276.824219 263.9375 277.015625 262.523438 C 277.246094 260.777344 276.351562 259.394531 274.320312 258.378906 Z M 150.710938 261.898438 C 150.714844 261.84375 150.71875 261.792969 150.71875 261.746094 C 150.71875 261.796875 150.714844 261.847656 150.710938 261.898438 C 150.707031 261.929688 150.699219 261.957031 150.695312 261.988281 C 150.699219 261.960938 150.707031 261.929688 150.710938 261.898438 Z M 150.585938 261.117188 C 150.550781 261.070312 150.507812 261.046875 150.460938 261.039062 C 150.507812 261.042969 150.550781 261.070312 150.585938 261.117188 Z M 150.269531 262.679688 C 150.191406 262.671875 150.125 262.601562 150.082031 262.488281 C 150.128906 262.601562 150.195312 262.671875 150.269531 262.679688 Z M 123.480469 261.488281 C 123.480469 261.492188 123.480469 261.492188 123.480469 261.492188 C 123.480469 261.671875 123.339844 261.8125 123.167969 261.8125 L 107.054688 261.84375 C 106.628906 261.851562 106.265625 261.535156 106.195312 261.109375 C 106.003906 259.871094 105.523438 259.042969 104.746094 258.617188 C 104.6875 258.585938 104.476562 258.554688 104.113281 258.515625 L 102.84375 258.382812 C 102.832031 258.382812 102.816406 258.378906 102.804688 258.375 C 102.652344 258.332031 102.570312 258.144531 102.617188 257.960938 C 105.410156 247.644531 108.65625 237.476562 112.347656 227.449219 C 115.828125 218.003906 119.179688 208.519531 122.40625 198.988281 C 122.648438 198.269531 122.980469 197.59375 123.40625 196.957031 C 123.589844 197.003906 123.777344 197.042969 123.96875 197.074219 C 123.96875 197.09375 123.96875 197.105469 123.96875 197.125 C 123.417969 218.519531 123.253906 239.976562 123.480469 261.488281 Z M 147.644531 257.839844 C 147.644531 257.839844 147.648438 257.84375 147.648438 257.847656 C 147.691406 258.019531 147.589844 258.191406 147.417969 258.234375 C 146.839844 258.378906 146.261719 258.492188 145.679688 258.582031 C 144.300781 258.789062 143.589844 259.609375 143.542969 261.050781 C 143.527344 261.5 143.160156 261.855469 142.710938 261.855469 L 124.867188 261.816406 C 124.855469 261.816406 124.847656 261.816406 124.835938 261.816406 C 124.671875 261.804688 124.550781 261.65625 124.5625 261.492188 C 124.597656 261.101562 124.648438 260.714844 124.714844 260.328125 C 124.785156 259.890625 124.824219 259.5 124.824219 259.148438 C 124.914062 240.902344 125.085938 222.65625 125.339844 204.410156 C 125.375 201.980469 125.460938 199.554688 125.601562 197.128906 C 126.152344 197.070312 126.675781 196.933594 127.171875 196.738281 C 127.289062 196.878906 127.382812 197.035156 127.449219 197.210938 C 135.125 217.285156 141.855469 237.496094 147.644531 257.839844 Z M 250.128906 202.453125 C 249.960938 222.160156 249.921875 241.867188 250.019531 261.574219 C 250.019531 261.753906 249.871094 261.894531 249.691406 261.894531 L 231.949219 261.855469 C 231.597656 261.855469 231.304688 261.578125 231.296875 261.230469 C 231.265625 260.179688 230.789062 259.320312 229.863281 258.65625 C 229.765625 258.585938 229.566406 258.527344 229.269531 258.492188 L 228.027344 258.332031 C 228.023438 258.332031 228.023438 258.332031 228.019531 258.332031 C 227.851562 258.300781 227.742188 258.113281 227.773438 257.910156 C 228.253906 255.027344 229.039062 251.890625 230.125 248.511719 C 235.902344 230.484375 241.902344 213.4375 248.132812 197.355469 C 248.199219 197.175781 248.269531 197.027344 248.34375 196.894531 C 248.816406 197.042969 249.320312 197.125 249.84375 197.152344 C 250.054688 197.753906 250.152344 199.519531 250.128906 202.453125 Z M 270.613281 261.488281 C 270.621094 261.34375 270.652344 261.210938 270.699219 261.09375 C 270.652344 261.210938 270.621094 261.34375 270.613281 261.488281 C 270.59375 261.804688 270.679688 262.089844 270.828125 262.265625 C 270.675781 262.089844 270.589844 261.804688 270.613281 261.488281 Z M 271.15625 262.445312 C 271.167969 262.445312 271.183594 262.441406 271.199219 262.441406 C 271.183594 262.441406 271.167969 262.445312 271.15625 262.445312 Z M 271.367188 262.402344 C 271.570312 262.308594 271.730469 262.0625 271.792969 261.753906 C 271.730469 262.0625 271.570312 262.308594 271.367188 262.402344 Z M 271.277344 260.613281 C 271.433594 260.625 271.570312 260.722656 271.667969 260.878906 C 271.570312 260.722656 271.433594 260.625 271.277344 260.613281 Z M 272.277344 258.242188 C 269.929688 258.410156 268.671875 259.429688 268.511719 261.300781 C 268.480469 261.640625 268.195312 261.898438 267.851562 261.898438 L 251.726562 261.894531 C 251.550781 261.894531 251.410156 261.746094 251.410156 261.566406 L 251.609375 196.972656 C 251.902344 196.902344 252.1875 196.8125 252.460938 196.699219 C 252.5 196.765625 252.535156 196.839844 252.566406 196.925781 C 259.976562 216.988281 266.695312 237.21875 272.714844 257.609375 C 272.726562 257.644531 272.730469 257.679688 272.734375 257.71875 C 272.753906 257.984375 272.546875 258.21875 272.277344 258.242188 Z M 272.277344 258.242188 " fill-opacity="1" fill-rule="nonzero"/></svg>