<svg xmlns="http://www.w3.org/2000/svg" xmlns:xlink="http://www.w3.org/1999/xlink" width="500" zoomAndPan="magnify" viewBox="0 0 375 374.999991" height="500" preserveAspectRatio="xMidYMid meet" version="1.0"><defs><clipPath id="75bc340d1d"><path d="M 61.066406 205.210938 L 302.496094 205.210938 L 302.496094 301.96875 L 61.066406 301.96875 Z M 61.066406 205.210938 " clip-rule="nonzero"/></clipPath><clipPath id="5d5b2671f6"><path d="M 132.390625 50 L 179.640625 50 L 179.640625 94.84375 L 132.390625 94.84375 Z M 132.390625 50 " clip-rule="nonzero"/></clipPath><clipPath id="9cbdb8f2e4"><path d="M 132.390625 49.84375 L 179.640625 49.84375 L 179.640625 94.84375 L 132.390625 94.84375 Z M 132.390625 49.84375 " clip-rule="nonzero"/></clipPath><clipPath id="0deb4168e6"><path d="M 195.324219 50 L 242.574219 50 L 242.574219 94.84375 L 195.324219 94.84375 Z M 195.324219 50 " clip-rule="nonzero"/></clipPath><clipPath id="e1884acccc"><path d="M 195.324219 49.84375 L 242.574219 49.84375 L 242.574219 94.84375 L 195.324219 94.84375 Z M 195.324219 49.84375 " clip-rule="nonzero"/></clipPath></defs><g clip-path="url(#75bc340d1d)"><path fill="#ffffff" d="M 297.640625 279.160156 C 293.207031 281.695312 286.492188 285.011719 277.15625 288.300781 C 259.496094 294.539062 228.601562 301.96875 181.714844 301.96875 C 134.828125 301.96875 103.933594 294.539062 86.273438 288.300781 C 76.933594 285.007812 70.21875 281.695312 65.789062 279.164062 C 62.820312 277.464844 61.074219 274.230469 61.269531 270.816406 L 64.8125 207.292969 C 64.855469 206.597656 65.238281 206 65.800781 205.675781 L 179.085938 243.828125 C 180.792969 244.402344 182.636719 244.402344 184.34375 243.828125 L 297.628906 205.675781 C 298.191406 206 298.578125 206.597656 298.617188 207.292969 L 302.160156 270.816406 C 302.351562 274.230469 300.605469 277.464844 297.640625 279.160156 " fill-opacity="1" fill-rule="nonzero"/></g><path fill="#ffffff" d="M 179.125 108.46875 L 2.117188 168.527344 C -0.0078125 169.25 -0.0078125 172.253906 2.117188 172.980469 L 55.203125 190.988281 L 65.523438 194.492188 L 179.125 233.039062 C 180.804688 233.609375 182.625 233.609375 184.304688 233.039062 L 297.90625 194.492188 L 308.226562 190.988281 L 309.464844 190.566406 C 299.53125 178.613281 288.035156 171.359375 274.824219 168.632812 C 240.441406 161.53125 188.289062 172.429688 187.765625 172.539062 C 185.066406 173.105469 182.414062 171.738281 181.707031 169.429688 C 181.375 168.320312 181.519531 167.148438 182.125 166.125 C 182.828125 164.9375 184.082031 164.078125 185.570312 163.761719 C 187.808594 163.289062 240.804688 152.261719 277.445312 159.835938 C 293.808594 163.214844 307.746094 172.25 319.460938 187.175781 L 361.3125 172.980469 C 363.4375 172.253906 363.4375 169.25 361.3125 168.527344 L 184.304688 108.46875 C 182.625 107.898438 180.804688 107.898438 179.125 108.46875 " fill-opacity="1" fill-rule="nonzero"/><path fill="#ffffff" d="M 373.691406 285.957031 L 352.265625 243.332031 C 352.011719 242.101562 351.445312 239.792969 350.390625 237.445312 C 347.890625 231.871094 344.390625 229.902344 341.617188 229.292969 C 335.351562 212.070312 327.996094 198.054688 319.460938 187.175781 L 309.464844 190.566406 C 318.355469 201.257812 325.984375 215.707031 332.480469 234.035156 C 331.425781 236.050781 330.769531 238.824219 331.171875 242.625 C 331.464844 245.453125 332.25 247.933594 332.621094 248.992188 L 341.3125 295.277344 C 341.773438 297.734375 343.90625 299.527344 346.40625 299.558594 C 346.425781 299.558594 346.46875 299.558594 346.527344 299.558594 C 347.898438 299.558594 359.332031 299.359375 371.453125 292.957031 C 373.980469 291.621094 374.976562 288.507812 373.691406 285.957031 " fill-opacity="1" fill-rule="nonzero"/><g clip-path="url(#5d5b2671f6)"><path fill="#ffffff" d="M 156.074219 50.003906 L 163.355469 64.753906 L 179.640625 67.121094 L 167.851562 78.613281 L 170.644531 94.824219 L 156.074219 87.171875 L 141.5 94.824219 L 144.28125 78.613281 L 132.503906 67.121094 L 148.789062 64.753906 Z M 156.074219 50.003906 " fill-opacity="1" fill-rule="nonzero"/></g><g clip-path="url(#9cbdb8f2e4)"><path fill="#ffffff" d="M 155.960938 49.859375 L 163.25 64.613281 L 179.535156 66.980469 L 167.75 78.46875 L 170.53125 94.683594 L 155.960938 87.03125 L 141.394531 94.683594 L 144.175781 78.46875 L 132.390625 66.980469 L 148.675781 64.613281 Z M 155.960938 49.859375 " fill-opacity="1" fill-rule="nonzero"/><path fill="#ffffff" d="M 155.960938 49.859375 L 163.25 64.613281 L 179.535156 66.980469 L 167.75 78.46875 L 170.53125 94.683594 L 155.960938 87.03125 L 141.394531 94.683594 L 144.175781 78.46875 L 132.390625 66.980469 L 148.675781 64.613281 Z M 155.960938 49.859375 " fill-opacity="1" fill-rule="nonzero"/><path fill="#ffffff" d="M 155.960938 49.859375 L 163.25 64.613281 L 179.535156 66.980469 L 167.75 78.46875 L 170.53125 94.683594 L 155.960938 87.03125 L 141.394531 94.683594 L 144.175781 78.46875 L 132.390625 66.980469 L 148.675781 64.613281 Z M 155.960938 49.859375 " fill-opacity="1" fill-rule="nonzero"/></g><g clip-path="url(#0deb4168e6)"><path fill="#ffffff" d="M 219.011719 50.003906 L 226.292969 64.753906 L 242.574219 67.121094 L 230.789062 78.613281 L 233.582031 94.824219 L 219.011719 87.171875 L 204.433594 94.824219 L 207.214844 78.613281 L 195.4375 67.121094 L 211.722656 64.753906 Z M 219.011719 50.003906 " fill-opacity="1" fill-rule="nonzero"/></g><g clip-path="url(#e1884acccc)"><path fill="#ffffff" d="M 218.898438 49.859375 L 226.1875 64.613281 L 242.472656 66.980469 L 230.683594 78.46875 L 233.46875 94.683594 L 218.898438 87.03125 L 204.332031 94.683594 L 207.113281 78.46875 L 195.324219 66.980469 L 211.609375 64.613281 Z M 218.898438 49.859375 " fill-opacity="1" fill-rule="nonzero"/><path fill="#ffffff" d="M 218.898438 49.859375 L 226.1875 64.613281 L 242.472656 66.980469 L 230.683594 78.46875 L 233.46875 94.683594 L 218.898438 87.03125 L 204.332031 94.683594 L 207.113281 78.46875 L 195.324219 66.980469 L 211.609375 64.613281 Z M 218.898438 49.859375 " fill-opacity="1" fill-rule="nonzero"/><path fill="#ffffff" d="M 218.898438 49.859375 L 226.1875 64.613281 L 242.472656 66.980469 L 230.683594 78.46875 L 233.46875 94.683594 L 218.898438 87.03125 L 204.332031 94.683594 L 207.113281 78.46875 L 195.324219 66.980469 L 211.609375 64.613281 Z M 218.898438 49.859375 " fill-opacity="1" fill-rule="nonzero"/></g></svg>