<svg xmlns="http://www.w3.org/2000/svg" xmlns:xlink="http://www.w3.org/1999/xlink" width="500" zoomAndPan="magnify" viewBox="0 0 375 374.999991" height="500" preserveAspectRatio="xMidYMid meet" version="1.0"><defs><clipPath id="03509ebab2"><path d="M 120.351562 18.207031 L 178.101562 18.207031 L 178.101562 73.707031 L 120.351562 73.707031 Z M 120.351562 18.207031 " clip-rule="nonzero"/></clipPath><clipPath id="6d81fa8f2f"><path d="M 69.820312 94.246094 L 305.1875 94.246094 L 305.1875 356.71875 L 69.820312 356.71875 Z M 69.820312 94.246094 " clip-rule="nonzero"/></clipPath><clipPath id="625acc05b9"><path d="M 196.59375 18.207031 L 254.34375 18.207031 L 254.34375 73.707031 L 196.59375 73.707031 Z M 196.59375 18.207031 " clip-rule="nonzero"/></clipPath></defs><g clip-path="url(#03509ebab2)"><path fill="#9bc9a8" d="M 149.449219 18.398438 L 158.390625 36.527344 L 178.394531 39.433594 L 163.917969 53.554688 L 167.347656 73.476562 L 149.449219 64.070312 L 131.542969 73.476562 L 134.960938 53.554688 L 120.492188 39.433594 L 140.496094 36.527344 Z M 149.449219 18.398438 " fill-opacity="1" fill-rule="nonzero"/><path fill="#9bc9a8" d="M 149.3125 18.226562 L 158.265625 36.351562 L 178.269531 39.261719 L 163.789062 53.378906 L 167.207031 73.304688 L 149.3125 63.898438 L 131.414062 73.304688 L 134.832031 53.378906 L 120.351562 39.261719 L 140.359375 36.351562 Z M 149.3125 18.226562 " fill-opacity="1" fill-rule="nonzero"/><path fill="#9bc9a8" d="M 149.3125 18.226562 L 158.265625 36.351562 L 178.269531 39.261719 L 163.789062 53.378906 L 167.207031 73.304688 L 149.3125 63.898438 L 131.414062 73.304688 L 134.832031 53.378906 L 120.351562 39.261719 L 140.359375 36.351562 Z M 149.3125 18.226562 " fill-opacity="1" fill-rule="nonzero"/><path fill="#9bc9a8" d="M 149.3125 18.226562 L 158.265625 36.351562 L 178.269531 39.261719 L 163.789062 53.378906 L 167.207031 73.304688 L 149.3125 63.898438 L 131.414062 73.304688 L 134.832031 53.378906 L 120.351562 39.261719 L 140.359375 36.351562 Z M 149.3125 18.226562 " fill-opacity="1" fill-rule="nonzero"/></g><path fill="#ffffff" d="M 302.859375 322.523438 L 302.859375 334.183594 C 302.859375 345.367188 293.761719 354.460938 282.582031 354.460938 L 72.144531 354.460938 L 72.144531 342.535156 L 282.582031 342.535156 C 287.1875 342.535156 290.929688 338.789062 290.929688 334.183594 L 290.929688 322.523438 C 290.929688 317.917969 287.1875 314.171875 282.582031 314.171875 L 260.675781 314.171875 L 260.675781 322.945312 L 246.851562 314.136719 L 233.035156 322.945312 L 233.035156 314.171875 L 72.144531 314.171875 L 72.144531 302.25 L 100.316406 302.25 C 89.140625 302.25 80.039062 293.152344 80.039062 281.972656 L 80.039062 268.507812 C 80.039062 257.324219 89.140625 248.230469 100.316406 248.230469 L 294.957031 248.230469 L 294.957031 260.15625 L 100.316406 260.15625 C 95.714844 260.15625 91.96875 263.898438 91.96875 268.507812 L 91.96875 281.972656 C 91.96875 286.574219 95.714844 290.320312 100.316406 290.320312 L 233.035156 290.320312 L 233.035156 275.238281 L 260.675781 275.238281 L 260.675781 290.320312 L 294.957031 290.320312 L 294.957031 302.25 L 282.582031 302.25 C 293.761719 302.25 302.859375 311.34375 302.859375 322.523438 " fill-opacity="1" fill-rule="nonzero"/><path fill="#bc813d" d="M 290.929688 322.523438 L 290.929688 334.183594 C 290.929688 338.789062 287.1875 342.535156 282.582031 342.535156 L 79.59375 342.535156 C 86.484375 326.222656 79.59375 314.171875 79.59375 314.171875 L 233.035156 314.171875 L 233.035156 322.945312 L 246.796875 314.171875 L 246.910156 314.171875 L 260.675781 322.945312 L 260.675781 314.171875 L 282.582031 314.171875 C 287.1875 314.171875 290.929688 317.917969 290.929688 322.523438 " fill-opacity="1" fill-rule="nonzero"/><path fill="#9bc9a8" d="M 287.511719 290.320312 L 260.675781 290.320312 L 260.675781 275.242188 L 233.035156 275.242188 L 233.035156 290.320312 L 100.316406 290.320312 C 95.714844 290.320312 91.96875 286.574219 91.96875 281.972656 L 91.96875 268.507812 C 91.96875 263.898438 95.714844 260.15625 100.316406 260.15625 L 287.511719 260.15625 C 287.511719 260.15625 280.617188 274.003906 287.511719 290.320312 " fill-opacity="1" fill-rule="nonzero"/><g clip-path="url(#6d81fa8f2f)"><path fill="#ffffff" d="M 300.535156 322.523438 C 300.535156 312.625 292.480469 304.574219 282.582031 304.574219 L 263 304.574219 L 263 311.847656 L 282.582031 311.847656 C 288.464844 311.847656 293.253906 316.636719 293.253906 322.523438 L 293.253906 334.183594 C 293.253906 340.074219 288.464844 344.859375 282.582031 344.859375 L 74.46875 344.859375 L 74.46875 352.136719 L 282.582031 352.136719 C 292.480469 352.136719 300.535156 344.082031 300.535156 334.183594 Z M 82.953125 340.210938 L 282.582031 340.210938 C 285.902344 340.210938 288.605469 337.507812 288.605469 334.183594 L 288.605469 322.523438 C 288.605469 319.199219 285.902344 316.5 282.582031 316.5 L 263 316.5 L 263 327.183594 L 246.851562 316.894531 L 230.710938 327.183594 L 230.710938 316.5 L 83.117188 316.5 C 84.695312 321.023438 86.480469 329.605469 82.953125 340.210938 Z M 74.46875 311.847656 L 230.710938 311.847656 L 230.710938 304.574219 L 74.46875 304.574219 Z M 100.316406 299.921875 L 230.710938 299.921875 L 230.710938 292.644531 L 100.316406 292.644531 C 94.433594 292.644531 89.644531 287.855469 89.644531 281.972656 L 89.644531 268.507812 C 89.644531 262.621094 94.433594 257.832031 100.316406 257.832031 L 292.632812 257.832031 L 292.632812 250.554688 L 100.316406 250.554688 C 90.421875 250.554688 82.363281 258.609375 82.363281 268.507812 L 82.363281 281.972656 C 82.363281 291.871094 90.421875 299.921875 100.316406 299.921875 Z M 284.109375 262.480469 L 100.316406 262.480469 C 96.996094 262.480469 94.292969 265.183594 94.292969 268.507812 L 94.292969 281.972656 C 94.292969 285.292969 96.996094 287.996094 100.316406 287.996094 L 230.710938 287.996094 L 230.710938 277.5625 C 226.398438 277.5625 222.089844 277.5625 217.777344 277.5625 C 214.785156 277.5625 214.789062 272.914062 217.777344 272.914062 C 222.089844 272.914062 226.398438 272.914062 230.710938 272.914062 L 263 272.914062 C 267.289062 272.914062 271.578125 272.914062 275.871094 272.914062 C 278.871094 272.914062 278.863281 277.5625 275.871094 277.5625 C 271.578125 277.5625 267.289062 277.5625 263 277.5625 L 263 287.996094 L 284.15625 287.996094 C 280.507812 276.914062 282.523438 267.332031 284.109375 262.480469 Z M 235.359375 318.707031 L 246.851562 311.378906 L 258.351562 318.707031 L 258.351562 277.5625 C 250.683594 277.5625 243.019531 277.5625 235.359375 277.5625 Z M 291.011719 292.644531 L 263 292.644531 L 263 299.921875 L 292.632812 299.921875 L 292.632812 292.644531 Z M 131.800781 145.335938 L 131.800781 181.917969 L 148.246094 181.917969 Z M 127.152344 145.183594 L 110.636719 181.917969 L 127.152344 181.917969 Z M 227.558594 181.917969 L 244 181.917969 L 244 145.335938 Z M 248.652344 181.917969 L 265.167969 181.917969 L 248.652344 145.183594 Z M 305.183594 322.523438 L 305.183594 334.183594 C 305.183594 346.648438 295.042969 356.785156 282.582031 356.785156 L 69.820312 356.785156 L 69.820312 340.210938 L 78.019531 340.210938 C 82.421875 328.5625 79.488281 319.609375 78.136719 316.5 L 69.820312 316.5 L 69.820312 299.921875 L 86.609375 299.921875 C 81.210938 295.789062 77.714844 289.28125 77.714844 281.972656 L 77.714844 268.507812 C 77.714844 256.042969 87.855469 245.90625 100.316406 245.90625 L 149.992188 245.90625 L 149.992188 236.699219 L 164.242188 236.699219 L 164.242188 232.195312 C 164.242188 226.875 168.570312 222.546875 173.890625 222.546875 L 174.015625 222.546875 L 174.015625 203.890625 C 174.015625 199.035156 177.617188 195.007812 182.289062 194.339844 L 182.289062 144.8125 L 182.140625 144.496094 C 178.859375 137.316406 172.808594 132.035156 165.957031 130.375 C 161.867188 129.378906 158.128906 129.910156 155.691406 131.820312 C 152.539062 134.296875 146.355469 138.746094 140.34375 140.714844 L 140.195312 140.757812 C 139.660156 140.890625 137.324219 141.46875 135.246094 141.65625 L 153.144531 181.46875 L 153.144531 184.582031 C 153.144531 195.179688 142.496094 203.800781 129.410156 203.800781 C 116.320312 203.800781 105.675781 195.179688 105.675781 184.582031 L 105.675781 181.917969 L 105.742188 181.917969 L 105.742188 181.46875 L 125.773438 136.914062 C 124.132812 134.144531 123.820312 130.589844 124.882812 126.566406 C 123.980469 125.519531 123.4375 124.164062 123.4375 122.679688 C 123.4375 119.386719 126.113281 116.707031 129.410156 116.707031 C 132.699219 116.707031 135.378906 119.386719 135.378906 122.679688 C 135.378906 125.449219 133.480469 127.777344 130.921875 128.449219 C 130.921875 129.980469 131.339844 131.328125 132.699219 131.746094 C 136.425781 132.890625 139.007812 130.496094 143.261719 126.160156 C 146.957031 122.394531 151.554688 117.707031 158.46875 116.027344 C 168.980469 113.46875 177.207031 116.925781 182.289062 120.925781 L 182.289062 116.539062 C 178.636719 114.503906 176.160156 110.609375 176.160156 106.140625 C 176.160156 99.578125 181.496094 94.242188 188.050781 94.242188 C 194.613281 94.242188 199.949219 99.578125 199.949219 106.140625 C 199.949219 110.730469 197.332031 114.710938 193.519531 116.695312 L 193.519531 120.925781 C 198.597656 116.921875 206.824219 113.472656 217.335938 116.027344 C 224.25 117.707031 228.847656 122.394531 232.542969 126.160156 C 236.796875 130.5 239.382812 132.890625 243.109375 131.746094 C 244.464844 131.328125 244.882812 129.980469 244.882812 128.449219 C 242.324219 127.777344 240.421875 125.449219 240.421875 122.679688 C 240.421875 119.386719 243.105469 116.707031 246.398438 116.707031 C 249.691406 116.707031 252.371094 119.386719 252.371094 122.679688 C 252.371094 124.164062 251.824219 125.519531 250.925781 126.566406 C 251.980469 130.589844 251.671875 134.144531 250.03125 136.914062 L 270.0625 181.46875 L 270.0625 181.917969 L 270.128906 181.917969 L 270.128906 184.582031 C 270.128906 195.179688 259.484375 203.800781 246.398438 203.800781 C 233.3125 203.800781 222.660156 195.179688 222.660156 184.582031 L 222.660156 181.46875 L 240.558594 141.660156 C 238.472656 141.476562 236.144531 140.890625 235.609375 140.757812 L 235.464844 140.714844 C 229.449219 138.746094 223.265625 134.296875 220.109375 131.820312 C 217.675781 129.910156 213.9375 129.378906 209.847656 130.375 C 202.996094 132.035156 196.945312 137.316406 193.664062 144.496094 L 193.519531 144.8125 L 193.519531 194.339844 C 198.1875 195.007812 201.789062 199.035156 201.789062 203.890625 L 201.789062 222.546875 L 201.917969 222.546875 C 207.234375 222.546875 211.5625 226.875 211.5625 232.195312 L 211.5625 236.699219 L 225.808594 236.699219 L 225.808594 245.90625 L 297.28125 245.90625 L 297.28125 262.480469 L 289.054688 262.480469 C 287.726562 265.988281 284.6875 276.25 289.085938 287.996094 L 297.28125 287.996094 L 297.28125 304.574219 L 296.289062 304.574219 C 301.691406 308.707031 305.183594 315.210938 305.183594 322.523438 Z M 89.382812 336.988281 C 109.167969 336.988281 128.953125 336.988281 148.742188 336.988281 C 151.730469 336.988281 151.738281 332.339844 148.742188 332.339844 C 128.953125 332.339844 109.167969 332.339844 89.382812 332.339844 C 86.390625 332.339844 86.386719 336.988281 89.382812 336.988281 Z M 155.933594 336.988281 C 158.214844 336.988281 160.5 336.988281 162.78125 336.988281 C 165.769531 336.988281 165.777344 332.339844 162.78125 332.339844 C 160.5 332.339844 158.214844 332.339844 155.933594 332.339844 C 152.941406 332.339844 152.9375 336.988281 155.933594 336.988281 Z M 170.816406 336.988281 C 167.820312 336.988281 167.820312 332.339844 170.816406 332.339844 C 173.050781 332.339844 175.285156 332.339844 177.519531 332.339844 C 180.515625 332.339844 180.515625 336.988281 177.519531 336.988281 C 175.285156 336.988281 173.050781 336.988281 170.816406 336.988281 " fill-opacity="1" fill-rule="nonzero"/></g><g clip-path="url(#625acc05b9)"><path fill="#9bc9a8" d="M 225.691406 18.398438 L 234.632812 36.527344 L 254.636719 39.433594 L 240.160156 53.554688 L 243.589844 73.476562 L 225.691406 64.070312 L 207.785156 73.476562 L 211.203125 53.554688 L 196.734375 39.433594 L 216.738281 36.527344 Z M 225.691406 18.398438 " fill-opacity="1" fill-rule="nonzero"/><path fill="#9bc9a8" d="M 225.554688 18.226562 L 234.507812 36.351562 L 254.511719 39.261719 L 240.03125 53.378906 L 243.449219 73.304688 L 225.554688 63.898438 L 207.65625 73.304688 L 211.074219 53.378906 L 196.59375 39.261719 L 216.597656 36.351562 Z M 225.554688 18.226562 " fill-opacity="1" fill-rule="nonzero"/><path fill="#9bc9a8" d="M 225.554688 18.226562 L 234.507812 36.351562 L 254.511719 39.261719 L 240.03125 53.378906 L 243.449219 73.304688 L 225.554688 63.898438 L 207.65625 73.304688 L 211.074219 53.378906 L 196.59375 39.261719 L 216.597656 36.351562 Z M 225.554688 18.226562 " fill-opacity="1" fill-rule="nonzero"/><path fill="#9bc9a8" d="M 225.554688 18.226562 L 234.507812 36.351562 L 254.511719 39.261719 L 240.03125 53.378906 L 243.449219 73.304688 L 225.554688 63.898438 L 207.65625 73.304688 L 211.074219 53.378906 L 196.59375 39.261719 L 216.597656 36.351562 Z M 225.554688 18.226562 " fill-opacity="1" fill-rule="nonzero"/></g></svg>