<svg xmlns="http://www.w3.org/2000/svg" xmlns:xlink="http://www.w3.org/1999/xlink" width="500" zoomAndPan="magnify" viewBox="0 0 375 374.999991" height="500" preserveAspectRatio="xMidYMid meet" version="1.0"><defs><clipPath id="ae0a6d6376"><path d="M 118.164062 14.1875 L 177.414062 14.1875 L 177.414062 71 L 118.164062 71 Z M 118.164062 14.1875 " clip-rule="nonzero"/></clipPath><clipPath id="07d3c704dc"><path d="M 45.261719 107.269531 L 329.511719 107.269531 L 329.511719 360.769531 L 45.261719 360.769531 Z M 45.261719 107.269531 " clip-rule="nonzero"/></clipPath><clipPath id="fae0aedbdb"><path d="M 197.347656 14.1875 L 256.597656 14.1875 L 256.597656 71 L 197.347656 71 Z M 197.347656 14.1875 " clip-rule="nonzero"/></clipPath></defs><g clip-path="url(#ae0a6d6376)"><path fill="#ffbd59" d="M 147.984375 14.386719 L 157.148438 32.964844 L 177.648438 35.941406 L 162.808594 50.414062 L 166.324219 70.832031 L 147.984375 61.191406 L 129.632812 70.832031 L 133.132812 50.414062 L 118.304688 35.941406 L 138.808594 32.964844 Z M 147.984375 14.386719 " fill-opacity="1" fill-rule="nonzero"/><path fill="#ffbd59" d="M 147.839844 14.207031 L 157.015625 32.785156 L 177.519531 35.765625 L 162.679688 50.234375 L 166.179688 70.652344 L 147.839844 61.015625 L 129.5 70.652344 L 133.003906 50.234375 L 118.164062 35.765625 L 138.664062 32.785156 Z M 147.839844 14.207031 " fill-opacity="1" fill-rule="nonzero"/><path fill="#ffbd59" d="M 147.839844 14.207031 L 157.015625 32.785156 L 177.519531 35.765625 L 162.679688 50.234375 L 166.179688 70.652344 L 147.839844 61.015625 L 129.5 70.652344 L 133.003906 50.234375 L 118.164062 35.765625 L 138.664062 32.785156 Z M 147.839844 14.207031 " fill-opacity="1" fill-rule="nonzero"/><path fill="#ffbd59" d="M 147.839844 14.207031 L 157.015625 32.785156 L 177.519531 35.765625 L 162.679688 50.234375 L 166.179688 70.652344 L 147.839844 61.015625 L 129.5 70.652344 L 133.003906 50.234375 L 118.164062 35.765625 L 138.664062 32.785156 Z M 147.839844 14.207031 " fill-opacity="1" fill-rule="nonzero"/></g><g clip-path="url(#07d3c704dc)"><path fill="#ffbd59" d="M 312.9375 250.097656 C 313.058594 249.703125 313.382812 249.417969 313.777344 249.347656 C 316.53125 248.898438 318.933594 247.808594 320.976562 246.085938 C 322.601562 244.710938 324.125 242.667969 325.550781 239.953125 C 328.0625 235.167969 329.449219 230.023438 329.703125 224.519531 C 329.726562 224.132812 329.585938 224.0625 329.28125 224.300781 C 324.03125 228.476562 319.160156 233.136719 314.675781 238.285156 C 314.207031 238.816406 314.003906 238.730469 314.070312 238.027344 L 315.167969 225.675781 C 315.203125 225.316406 315.433594 225.003906 315.769531 224.855469 C 319.269531 223.367188 321.804688 221.089844 323.371094 218.019531 C 324.589844 215.644531 325.386719 212.5 325.765625 208.582031 C 326.085938 205.242188 325.855469 201.871094 325.066406 198.46875 C 324.949219 197.949219 324.726562 197.898438 324.402344 198.3125 C 320.503906 203.277344 316.957031 208.515625 313.753906 214.03125 C 313.644531 214.210938 313.578125 214.195312 313.542969 213.992188 L 311.589844 202.8125 C 311.484375 202.214844 311.652344 201.613281 312.042969 201.179688 C 316.664062 196.058594 318.667969 190.207031 318.058594 183.636719 C 317.730469 180.0625 316.847656 176.464844 315.417969 172.839844 C 315.316406 172.582031 315.195312 172.574219 315.054688 172.804688 C 311.898438 178.0625 309.269531 183.472656 307.15625 189.039062 C 307.046875 189.324219 306.933594 189.324219 306.804688 189.054688 L 302.320312 179.335938 C 302.015625 178.675781 302.019531 178.015625 302.335938 177.351562 C 304.617188 172.539062 305.476562 167.699219 304.914062 162.839844 C 304.355469 158 302.648438 153.527344 299.792969 149.425781 C 299.492188 149 299.238281 149.023438 299.019531 149.496094 C 298.59375 150.429688 298.253906 151.535156 298.003906 152.816406 C 297.171875 157.144531 296.242188 161.648438 295.230469 166.324219 C 295.15625 166.648438 295.015625 166.679688 294.804688 166.421875 L 287.777344 157.574219 C 287.332031 157.007812 287.195312 156.402344 287.371094 155.75 C 289.335938 148.246094 288.539062 140.992188 284.984375 133.992188 C 283.996094 132.058594 282.730469 130.324219 281.183594 128.796875 C 280.96875 128.585938 280.824219 128.628906 280.753906 128.921875 C 279.417969 134.441406 278.726562 140.042969 278.671875 145.726562 C 278.671875 145.945312 278.59375 145.972656 278.445312 145.8125 L 270.300781 137.578125 C 269.761719 137.027344 269.542969 136.363281 269.65625 135.589844 C 269.929688 133.664062 269.65625 131.566406 268.835938 129.300781 C 266.15625 121.871094 261.707031 115.9375 255.488281 111.496094 C 254.683594 110.921875 254.308594 111.132812 254.355469 112.117188 C 254.632812 117.757812 255.78125 123.136719 257.800781 128.25 C 257.960938 128.664062 257.867188 128.730469 257.515625 128.453125 C 254.269531 125.878906 250.992188 123.394531 247.679688 121.003906 C 243.621094 118.070312 240.152344 115.863281 237.28125 114.386719 C 230.941406 111.128906 224.203125 108.902344 217.066406 107.710938 C 215.800781 107.503906 214.519531 107.425781 213.222656 107.488281 C 212.964844 107.503906 212.933594 107.597656 213.121094 107.769531 C 216.476562 110.941406 219.988281 113.898438 223.652344 116.632812 C 228.515625 120.269531 232.0625 122.621094 234.300781 123.691406 C 238.109375 125.519531 242.449219 126.609375 247.316406 126.960938 C 248.265625 127.035156 249.089844 127.347656 249.785156 127.902344 L 255.90625 132.808594 C 257.125 133.785156 256.957031 134.164062 255.40625 133.941406 C 248.675781 132.980469 242.976562 134.636719 238.316406 138.90625 C 238.292969 138.925781 238.277344 138.949219 238.265625 138.976562 C 238.210938 139.082031 238.257812 139.214844 238.367188 139.265625 C 247.21875 143.671875 256.484375 144.285156 266.164062 141.097656 C 266.59375 140.957031 267.058594 141.054688 267.367188 141.359375 L 275.207031 149.0625 C 275.867188 149.707031 275.746094 149.90625 274.855469 149.664062 C 274.039062 149.4375 273.257812 149.230469 272.5 149.050781 C 271.695312 148.851562 270.894531 148.75 270.101562 148.75 C 265.609375 148.75 260.972656 149.347656 256.195312 150.539062 C 255.921875 150.609375 255.894531 150.730469 256.117188 150.898438 C 264.566406 157.203125 273.886719 160.234375 284.074219 160.007812 C 284.277344 160.003906 284.472656 160.085938 284.605469 160.234375 C 287.242188 163.15625 289.53125 166.335938 291.480469 169.765625 C 291.582031 169.949219 291.53125 170.003906 291.332031 169.925781 C 284.832031 167.476562 278.101562 166.023438 271.144531 165.5625 C 270.757812 165.535156 270.679688 165.675781 270.914062 165.984375 C 272.378906 167.902344 273.988281 169.75 275.75 171.523438 C 281.253906 177.085938 288.550781 180.273438 297.644531 181.085938 C 297.878906 181.105469 298.089844 181.242188 298.207031 181.449219 C 300.183594 185.03125 301.886719 188.640625 303.320312 192.265625 C 303.398438 192.457031 303.339844 192.496094 303.160156 192.386719 C 299.652344 190.230469 295.910156 188.609375 291.941406 187.53125 C 289.535156 186.878906 287.164062 186.242188 284.828125 185.628906 C 284.253906 185.476562 284.113281 185.65625 284.417969 186.167969 C 285.847656 188.574219 287.4375 190.859375 289.183594 193.019531 C 291.246094 195.570312 293.230469 197.488281 295.144531 198.78125 C 298.441406 201.003906 302.308594 202.390625 306.742188 202.945312 C 307.195312 203 307.550781 203.324219 307.621094 203.738281 L 309.457031 214.605469 C 309.519531 214.984375 309.40625 215.046875 309.105469 214.789062 C 304.488281 210.808594 299.261719 207.9375 293.421875 206.171875 C 293.394531 206.164062 293.363281 206.160156 293.332031 206.164062 C 293.21875 206.183594 293.144531 206.285156 293.160156 206.394531 C 294.355469 214.601562 298.679688 220.453125 306.128906 223.953125 C 307.417969 224.5625 308.851562 224.941406 310.429688 225.101562 C 310.613281 225.117188 310.746094 225.277344 310.734375 225.460938 L 310.003906 237.304688 C 309.960938 238.054688 309.71875 238.128906 309.28125 237.523438 C 306.097656 233.109375 302.089844 229.261719 297.257812 225.980469 C 297.210938 225.949219 297.160156 225.929688 297.105469 225.925781 C 296.9375 225.914062 296.792969 226.039062 296.777344 226.210938 C 296.589844 228.558594 296.566406 231.007812 296.699219 233.554688 C 296.820312 235.828125 297.332031 237.84375 298.234375 239.597656 C 300.429688 243.851562 303.601562 246.921875 307.757812 248.8125 C 308.183594 249.003906 308.410156 249.476562 308.300781 249.933594 C 307.308594 253.960938 306.058594 257.878906 304.550781 261.679688 C 304.3125 262.285156 304.117188 262.273438 303.976562 261.640625 C 303.140625 258.023438 301.757812 254.460938 299.835938 250.957031 C 298.605469 248.710938 297.339844 246.980469 296.035156 245.765625 C 296.011719 245.742188 295.984375 245.730469 295.953125 245.71875 C 295.84375 245.6875 295.730469 245.75 295.691406 245.859375 C 294.578125 249.238281 293.9375 252.710938 293.769531 256.273438 C 293.484375 262.195312 295.375 267.277344 299.445312 271.511719 C 299.671875 271.757812 299.730469 272.109375 299.585938 272.386719 L 294.351562 282.085938 C 294.195312 282.378906 294.089844 282.359375 294.039062 282.027344 C 293.113281 276.402344 291.296875 271.230469 288.582031 266.507812 C 288.226562 265.890625 287.910156 265.910156 287.628906 266.5625 C 285.980469 270.421875 284.964844 274.621094 284.582031 279.160156 C 284.226562 283.359375 285.105469 287.441406 287.222656 291.410156 C 287.644531 292.199219 287.589844 292.90625 287.058594 293.535156 L 279.5625 302.363281 C 279.398438 302.554688 279.316406 302.523438 279.320312 302.261719 C 279.382812 296.832031 278.660156 291.363281 277.152344 285.855469 C 277.140625 285.816406 277.117188 285.777344 277.085938 285.742188 C 276.984375 285.625 276.808594 285.617188 276.699219 285.71875 C 275.613281 286.695312 274.773438 287.699219 274.167969 288.726562 C 272.214844 292.054688 270.71875 295.578125 269.675781 299.292969 C 268.703125 302.75 268.640625 306.222656 269.488281 309.707031 C 269.535156 309.902344 269.476562 310.105469 269.332031 310.238281 C 266.097656 313.242188 262.75 315.933594 259.28125 318.3125 C 258.929688 318.550781 258.828125 318.476562 258.972656 318.078125 C 259.820312 315.746094 260.289062 313.488281 260.375 311.304688 C 260.492188 308.039062 260.359375 304.785156 259.964844 301.550781 C 259.894531 300.988281 259.644531 300.886719 259.210938 301.25 C 253.28125 306.238281 249.527344 312.542969 247.945312 320.160156 C 247.773438 320.984375 247.667969 322.039062 247.621094 323.332031 C 247.609375 323.628906 247.445312 323.898438 247.191406 324.035156 L 236.914062 329.695312 C 236.472656 329.941406 236.382812 329.84375 236.648438 329.410156 C 239.792969 324.25 241.367188 318.65625 241.367188 312.617188 C 241.367188 312.59375 241.367188 312.570312 241.355469 312.542969 C 241.320312 312.410156 241.183594 312.335938 241.054688 312.375 C 239.691406 312.761719 238.441406 313.378906 237.300781 314.238281 C 231.761719 318.390625 227.402344 323.703125 224.230469 330.171875 C 224.085938 330.464844 223.835938 330.699219 223.53125 330.816406 C 212.792969 335.097656 201.839844 337.855469 190.6875 339.089844 C 188.390625 339.347656 186.097656 339.316406 183.808594 339.007812 C 172.816406 337.507812 162.15625 334.792969 151.824219 330.867188 C 151.132812 330.601562 150.613281 330.144531 150.265625 329.496094 C 147.773438 324.882812 144.703125 320.695312 141.054688 316.9375 C 139.136719 314.957031 136.867188 313.449219 134.242188 312.410156 C 134.144531 312.371094 134.042969 312.359375 133.941406 312.367188 C 133.589844 312.398438 133.332031 312.710938 133.363281 313.0625 C 133.910156 319.074219 135.570312 324.527344 138.347656 329.421875 C 138.582031 329.839844 138.507812 329.90625 138.125 329.621094 C 135.214844 327.460938 131.941406 325.488281 128.308594 323.699219 C 128.113281 323.601562 127.988281 323.40625 127.980469 323.195312 C 127.933594 321.644531 127.6875 320.152344 127.238281 318.707031 C 125.660156 313.664062 123.199219 309.101562 119.863281 305.011719 C 118.601562 303.472656 117.183594 302.191406 115.605469 301.179688 C 115.542969 301.136719 115.46875 301.113281 115.390625 301.105469 C 115.132812 301.085938 114.910156 301.277344 114.890625 301.535156 C 114.644531 304.726562 114.617188 307.8125 114.808594 310.800781 C 114.960938 313.246094 115.515625 315.597656 116.46875 317.859375 C 116.746094 318.503906 116.609375 318.609375 116.066406 318.179688 L 106.300781 310.375 C 106.15625 310.261719 106.101562 310.0625 106.15625 309.871094 C 106.808594 307.53125 107.046875 305.660156 106.867188 304.25 C 106 297.492188 103.378906 291.417969 99.003906 286.03125 C 98.429688 285.332031 98.046875 285.421875 97.84375 286.300781 C 96.644531 291.519531 96.121094 296.878906 96.269531 302.382812 C 96.273438 302.671875 96.179688 302.710938 95.996094 302.496094 L 87.542969 293.046875 C 87.289062 292.757812 87.257812 292.324219 87.457031 291.96875 C 90.183594 287.207031 91.089844 282.269531 90.167969 277.160156 C 89.789062 275.066406 89.25 273.09375 88.539062 271.238281 C 87.800781 269.296875 86.792969 267.496094 85.507812 265.828125 C 85.488281 265.804688 85.460938 265.789062 85.4375 265.773438 C 85.335938 265.722656 85.214844 265.761719 85.167969 265.863281 C 82.84375 270.640625 81.277344 276.054688 80.472656 282.097656 C 80.398438 282.640625 80.234375 282.679688 79.980469 282.199219 L 74.691406 272.390625 C 74.601562 272.21875 74.625 272.003906 74.757812 271.84375 C 76.699219 269.414062 78.058594 267.5625 78.832031 266.296875 C 80.039062 264.320312 80.75 261.929688 80.953125 259.125 C 81.277344 254.679688 80.667969 250.300781 79.128906 246 C 78.949219 245.5 78.703125 245.460938 78.378906 245.890625 C 74.777344 250.675781 72.171875 255.890625 70.558594 261.53125 C 70.433594 261.980469 70.285156 261.988281 70.125 261.542969 C 68.644531 257.523438 67.441406 253.527344 66.511719 249.554688 C 66.414062 249.140625 66.609375 248.714844 66.992188 248.523438 C 71.46875 246.273438 74.738281 243.214844 76.800781 239.359375 C 77.609375 237.839844 78.078125 236.222656 78.203125 234.503906 C 78.394531 231.839844 78.453125 229.023438 78.382812 226.054688 C 78.375 225.722656 78.238281 225.652344 77.96875 225.847656 C 73.191406 229.296875 68.988281 233.414062 65.355469 238.207031 C 65.214844 238.386719 65.136719 238.371094 65.125 238.140625 L 64.355469 225.535156 C 64.34375 225.28125 64.523438 225.046875 64.785156 224.988281 C 74.777344 222.523438 80.566406 216.324219 82.144531 206.378906 C 82.152344 206.347656 82.148438 206.316406 82.136719 206.289062 C 82.105469 206.183594 81.992188 206.125 81.886719 206.160156 C 76.175781 207.9375 71.03125 210.609375 66.453125 214.171875 C 66.03125 214.5 65.851562 214.398438 65.914062 213.871094 C 66.324219 210.316406 66.980469 206.804688 67.878906 203.335938 C 67.976562 202.945312 68.328125 202.671875 68.730469 202.664062 C 71.257812 202.609375 73.65625 201.992188 75.925781 200.800781 C 82.339844 197.425781 87.230469 192.511719 90.597656 186.058594 C 90.746094 185.769531 90.660156 185.65625 90.339844 185.71875 C 84.023438 186.925781 77.910156 189.132812 72 192.335938 C 71.515625 192.601562 71.367188 192.46875 71.554688 191.949219 C 72.789062 188.519531 74.359375 185.027344 76.257812 181.46875 C 76.371094 181.25 76.589844 181.105469 76.839844 181.078125 C 85.667969 180.261719 92.746094 177.164062 98.078125 171.789062 C 99.917969 169.929688 101.625 167.957031 103.199219 165.863281 C 103.371094 165.628906 103.316406 165.523438 103.027344 165.550781 C 98.519531 165.960938 94.054688 166.671875 89.636719 167.695312 C 87.722656 168.136719 85.894531 168.8125 84.148438 169.714844 C 83.410156 170.09375 83.242188 169.921875 83.648438 169.199219 C 85.402344 166.066406 87.542969 163.078125 90.0625 160.234375 C 90.195312 160.082031 90.390625 160 90.597656 160.003906 C 100.585938 160.261719 109.476562 157.234375 117.273438 150.929688 C 117.773438 150.53125 117.710938 150.265625 117.085938 150.136719 C 115.769531 149.871094 114.371094 149.644531 112.886719 149.449219 C 112.820312 149.441406 111.59375 149.25 109.199219 148.875 C 105.855469 148.351562 102.53125 148.535156 99.222656 149.425781 C 99.019531 149.480469 98.984375 149.429688 99.121094 149.28125 C 101.875 146.195312 104.902344 143.417969 108.207031 140.949219 C 108.375 140.824219 108.585938 140.792969 108.773438 140.859375 C 117.605469 143.863281 126.492188 143.308594 135.425781 139.203125 C 135.457031 139.1875 135.488281 139.167969 135.515625 139.140625 C 135.660156 139.011719 135.671875 138.789062 135.539062 138.644531 C 131.625 134.449219 126.867188 132.746094 121.265625 133.53125 C 120.242188 133.675781 119.230469 133.699219 118.222656 133.59375 C 118.011719 133.574219 117.992188 133.496094 118.167969 133.355469 C 120.90625 131.242188 123.722656 129.242188 126.621094 127.359375 C 127.453125 126.816406 128.363281 126.496094 129.351562 126.398438 C 130.867188 126.246094 132.386719 126.125 133.910156 126.035156 C 136.003906 125.910156 138.496094 125.042969 141.386719 123.429688 C 145.753906 120.996094 149.839844 118.15625 153.640625 114.90625 C 156.34375 112.59375 159.164062 110.199219 162.109375 107.71875 C 162.425781 107.460938 162.378906 107.328125 161.96875 107.324219 C 159.984375 107.3125 158.304688 107.4375 156.925781 107.699219 C 146.289062 109.761719 136.632812 114.003906 127.949219 120.429688 C 124.082031 123.292969 120.242188 126.203125 116.4375 129.15625 C 116.273438 129.289062 116.234375 129.257812 116.316406 129.066406 C 118.613281 123.691406 120.015625 117.847656 120.527344 111.53125 C 120.5625 111.097656 120.398438 111 120.035156 111.246094 C 113.335938 115.679688 108.519531 121.785156 105.589844 129.554688 C 104.914062 131.355469 104.738281 133.644531 105.074219 136.425781 C 105.097656 136.636719 105.03125 136.839844 104.886719 136.976562 L 96.1875 145.582031 C 95.929688 145.835938 95.808594 145.78125 95.816406 145.417969 C 95.925781 139.664062 95.375 134.4375 94.164062 129.738281 C 93.964844 128.96875 93.621094 128.898438 93.140625 129.535156 C 87.476562 136.996094 85.574219 145.660156 87.421875 155.535156 C 87.542969 156.21875 87.378906 156.820312 86.929688 157.34375 C 84.542969 160.089844 82.191406 163.210938 79.875 166.714844 C 79.59375 167.136719 79.410156 167.097656 79.320312 166.59375 L 76.363281 150.046875 C 76.199219 149.109375 75.839844 149.03125 75.28125 149.816406 C 69.46875 158.011719 68.492188 167.089844 72.34375 177.058594 C 72.710938 178.007812 72.683594 178.941406 72.257812 179.855469 L 67.859375 189.222656 C 67.6875 189.585938 67.539062 189.578125 67.40625 189.199219 C 65.464844 183.664062 62.832031 178.496094 59.503906 173.683594 C 59.378906 173.515625 59.28125 173.53125 59.203125 173.730469 C 58.042969 176.753906 57.347656 180.160156 57.121094 183.949219 C 56.726562 190.617188 58.597656 196.234375 62.746094 200.808594 C 63.335938 201.464844 63.558594 202.242188 63.402344 203.152344 L 61.726562 212.957031 C 61.601562 213.695312 61.347656 213.746094 60.953125 213.117188 C 57.75 207.898438 54.183594 202.914062 50.25 198.15625 C 50.105469 197.988281 50.015625 198.011719 49.972656 198.21875 C 48.519531 205.253906 49.363281 211.976562 52.503906 218.394531 C 53.941406 221.328125 56.308594 223.425781 59.605469 224.683594 C 59.835938 224.769531 59.992188 224.992188 60.011719 225.25 L 60.65625 238.316406 C 60.695312 239.097656 60.484375 239.175781 60.03125 238.546875 C 56.035156 233.015625 51.277344 228.164062 45.753906 223.988281 C 45.425781 223.734375 45.265625 223.816406 45.28125 224.230469 C 45.425781 229.660156 46.640625 234.691406 48.929688 239.339844 C 50.421875 242.378906 52.386719 244.851562 54.824219 246.757812 C 55.71875 247.449219 56.703125 247.992188 57.78125 248.382812 C 58.847656 248.765625 59.9375 249.058594 61.054688 249.253906 C 61.46875 249.328125 61.804688 249.621094 61.925781 250.015625 L 65.445312 261.617188 C 65.609375 262.144531 65.460938 262.25 65.003906 261.929688 C 61.023438 259.136719 57.023438 256.484375 53.003906 253.980469 C 51.089844 252.785156 49.484375 251.941406 48.191406 251.453125 C 47.984375 251.371094 47.902344 251.4375 47.941406 251.65625 C 49.515625 260.054688 53.738281 266.523438 60.609375 271.066406 C 62.167969 272.09375 63.664062 272.839844 65.101562 273.304688 C 66.730469 273.832031 68.402344 274.121094 70.113281 274.167969 C 70.390625 274.179688 70.636719 274.335938 70.769531 274.574219 L 76.324219 284.585938 C 76.640625 285.152344 76.503906 285.300781 75.914062 285.019531 C 69.851562 282.164062 63.460938 279.644531 56.730469 277.457031 C 56.472656 277.371094 56.398438 277.457031 56.507812 277.707031 C 58.308594 281.804688 60.738281 285.335938 63.796875 288.296875 C 68.855469 293.191406 75.191406 295.34375 82.804688 294.753906 C 83.085938 294.734375 83.355469 294.84375 83.535156 295.046875 L 92.601562 305.382812 C 92.734375 305.539062 92.78125 305.714844 92.71875 305.804688 C 92.652344 305.890625 92.527344 305.894531 92.332031 305.820312 C 88.523438 304.238281 84.574219 303.167969 80.488281 302.617188 C 77.566406 302.222656 74.644531 301.832031 71.722656 301.453125 C 71.507812 301.425781 71.460938 301.496094 71.582031 301.671875 C 73.515625 304.445312 75.992188 306.96875 79.003906 309.25 C 83.378906 312.5625 88.1875 314.511719 93.425781 315.105469 C 96.539062 315.453125 99.511719 315.0625 102.339844 313.933594 C 102.652344 313.808594 103.007812 313.84375 103.285156 314.03125 C 106.898438 316.433594 110.347656 319.03125 113.640625 321.820312 C 114.46875 322.519531 114.359375 322.730469 113.3125 322.453125 C 111.625 322.003906 109.910156 321.851562 108.167969 322 C 103.867188 322.359375 99.335938 323 94.566406 323.925781 C 94.273438 323.980469 94.238281 324.105469 94.46875 324.292969 C 97.183594 326.527344 100.074219 328.320312 103.125 329.683594 C 106.503906 331.1875 109.757812 331.972656 112.886719 332.027344 C 117.558594 332.113281 121.917969 330.753906 125.964844 327.957031 C 126.128906 327.839844 126.34375 327.820312 126.519531 327.90625 C 130.222656 329.609375 133.777344 331.496094 137.175781 333.566406 C 138.03125 334.085938 137.964844 334.394531 136.964844 334.488281 C 131 335.042969 125.339844 336.625 119.988281 339.230469 C 119.511719 339.464844 119.511719 339.695312 119.988281 339.925781 C 124.992188 342.328125 130.273438 343.570312 135.832031 343.65625 C 141.417969 343.738281 146.125 342.066406 149.964844 338.632812 C 150.371094 338.273438 150.9375 338.148438 151.46875 338.300781 C 160.773438 341.066406 169.757812 343.253906 178.425781 344.859375 C 179.582031 345.078125 179.589844 345.3125 178.441406 345.5625 C 169.269531 347.582031 161.679688 352.363281 155.679688 359.902344 C 155.199219 360.507812 155.34375 360.765625 156.105469 360.664062 C 161.890625 359.949219 167.164062 358.472656 171.925781 356.242188 C 177.109375 353.804688 182.058594 350.886719 186.773438 347.484375 C 186.933594 347.371094 187.148438 347.371094 187.308594 347.484375 C 195.269531 353.183594 203.984375 357.296875 213.449219 359.824219 C 214.699219 360.15625 216.070312 360.351562 217.558594 360.414062 C 218.027344 360.429688 218.121094 360.25 217.839844 359.875 C 214.246094 355.082031 209.703125 351.257812 204.203125 348.402344 C 201.863281 347.191406 199.390625 346.320312 196.78125 345.789062 C 195.308594 345.496094 195.316406 345.230469 196.800781 344.992188 C 206.066406 343.503906 215.226562 341.167969 224.285156 337.988281 C 224.464844 337.921875 224.671875 337.96875 224.816406 338.113281 C 228.675781 341.925781 233.253906 343.808594 238.542969 343.761719 C 244.632812 343.710938 250.238281 342.253906 255.351562 339.390625 C 255.914062 339.078125 255.898438 338.789062 255.308594 338.53125 C 249.566406 335.972656 243.632812 334.578125 237.503906 334.339844 C 236.828125 334.308594 236.796875 334.148438 237.40625 333.851562 L 249.386719 328.039062 C 249.683594 327.898438 250.027344 327.917969 250.292969 328.097656 C 253.707031 330.394531 257.347656 331.660156 261.21875 331.898438 C 264.492188 332.105469 267.941406 331.421875 271.566406 329.859375 C 274.757812 328.484375 277.824219 326.628906 280.769531 324.296875 C 281.046875 324.074219 281.011719 323.921875 280.667969 323.828125 C 274.167969 322.128906 267.855469 321.5625 261.738281 322.132812 C 261.511719 322.15625 261.488281 322.101562 261.667969 321.96875 L 272.355469 314.027344 C 272.507812 313.914062 272.71875 313.878906 272.929688 313.929688 C 281.332031 316.097656 289.023438 314.589844 296.011719 309.40625 C 298.984375 307.199219 301.421875 304.664062 303.320312 301.792969 C 303.4375 301.613281 303.386719 301.539062 303.171875 301.558594 C 300.066406 301.886719 296.972656 302.261719 293.882812 302.6875 C 290.246094 303.1875 286.726562 304.132812 283.328125 305.523438 C 282.667969 305.796875 282.550781 305.648438 282.984375 305.074219 C 285.464844 301.785156 288.371094 298.421875 291.699219 294.984375 C 291.933594 294.742188 292.261719 294.613281 292.601562 294.632812 C 298.578125 295 303.792969 293.332031 308.246094 289.625 C 312.070312 286.4375 315.035156 282.574219 317.132812 278.042969 C 317.324219 277.625 317.210938 277.5 316.789062 277.65625 L 298.800781 284.433594 C 298.398438 284.589844 298.304688 284.488281 298.515625 284.128906 L 304.449219 274.226562 C 304.59375 273.992188 304.863281 273.851562 305.164062 273.851562 C 307.335938 273.859375 309.363281 273.394531 311.25 272.457031 C 319.589844 268.285156 324.761719 261.46875 326.769531 252.011719 C 326.878906 251.492188 326.703125 251.363281 326.242188 251.628906 C 320.703125 254.832031 315.359375 258.203125 310.199219 261.742188 C 309.503906 262.214844 309.28125 262.046875 309.527344 261.238281 Z M 312.9375 250.097656 " fill-opacity="1" fill-rule="nonzero"/></g><path fill="#ffbd59" d="M 191.167969 156.382812 C 191.65625 156.585938 192.121094 156.832031 192.558594 157.125 C 193 157.421875 193.40625 157.753906 193.78125 158.128906 C 194.15625 158.503906 194.488281 158.910156 194.785156 159.351562 C 195.078125 159.789062 195.324219 160.253906 195.527344 160.742188 C 195.730469 161.230469 195.882812 161.734375 195.988281 162.253906 C 196.089844 162.773438 196.140625 163.296875 196.140625 163.828125 C 196.140625 164.355469 196.089844 164.878906 195.988281 165.398438 C 195.882812 165.917969 195.730469 166.421875 195.527344 166.910156 C 195.324219 167.398438 195.078125 167.863281 194.785156 168.304688 C 194.488281 168.742188 194.15625 169.148438 193.78125 169.523438 C 193.40625 169.898438 193 170.234375 192.558594 170.527344 C 192.121094 170.820312 191.65625 171.070312 191.167969 171.269531 C 190.679688 171.472656 190.175781 171.625 189.65625 171.730469 C 189.136719 171.832031 188.613281 171.882812 188.082031 171.882812 C 187.554688 171.882812 187.03125 171.832031 186.511719 171.730469 C 185.992188 171.625 185.488281 171.472656 185 171.269531 C 184.511719 171.070312 184.046875 170.820312 183.605469 170.527344 C 183.167969 170.234375 182.761719 169.898438 182.386719 169.523438 C 182.011719 169.148438 181.679688 168.742188 181.382812 168.304688 C 181.089844 167.863281 180.839844 167.398438 180.640625 166.910156 C 180.4375 166.421875 180.285156 165.917969 180.179688 165.398438 C 180.078125 164.878906 180.027344 164.355469 180.027344 163.828125 C 180.027344 163.296875 180.078125 162.773438 180.179688 162.253906 C 180.285156 161.734375 180.4375 161.230469 180.640625 160.742188 C 180.839844 160.253906 181.089844 159.789062 181.382812 159.351562 C 181.679688 158.910156 182.011719 158.503906 182.386719 158.128906 C 182.761719 157.753906 183.167969 157.421875 183.605469 157.125 C 184.046875 156.832031 184.511719 156.585938 185 156.382812 C 185.488281 156.179688 185.992188 156.027344 186.511719 155.921875 C 187.03125 155.820312 187.554688 155.769531 188.082031 155.769531 C 188.613281 155.769531 189.136719 155.820312 189.65625 155.921875 C 190.175781 156.027344 190.679688 156.179688 191.167969 156.382812 Z M 191.167969 156.382812 " fill-opacity="1" fill-rule="nonzero"/><path fill="#ffbd59" d="M 272.847656 257.171875 C 272.660156 257.078125 272.523438 256.90625 272.472656 256.703125 C 271.070312 251.296875 269.511719 245.980469 267.792969 240.75 C 263.164062 226.683594 258.433594 212.644531 253.601562 198.640625 C 253.203125 197.484375 252.859375 196.554688 252.570312 195.855469 C 254.054688 194.773438 255.023438 193.027344 255.023438 191.046875 C 255.023438 188.925781 253.910156 187.066406 252.234375 186.015625 C 252.523438 185.945312 252.789062 185.871094 253.042969 185.789062 C 255.828125 185.292969 257.945312 182.867188 257.945312 179.9375 C 257.945312 177.816406 256.835938 175.964844 255.167969 174.90625 C 254.375 174.339844 253.5 174.035156 252.550781 173.992188 C 253.277344 174.839844 253.753906 175.902344 253.871094 177.0625 C 254.222656 180.609375 251.269531 183.5625 247.722656 183.210938 C 247.457031 183.1875 247.199219 183.132812 246.945312 183.074219 C 246.957031 183.09375 246.96875 183.113281 246.980469 183.132812 C 229.988281 180.179688 213.042969 177.394531 196.144531 174.777344 C 190.691406 173.933594 185.355469 173.902344 180.132812 174.679688 C 164.3125 177.039062 147.480469 179.886719 129.636719 183.230469 C 129.644531 183.21875 129.652344 183.203125 129.660156 183.191406 C 129.238281 183.246094 128.800781 183.253906 128.355469 183.210938 C 125.734375 182.949219 123.609375 180.828125 123.351562 178.207031 C 123.191406 176.589844 123.71875 175.097656 124.675781 173.984375 C 124.25 173.984375 123.84375 174.03125 123.445312 174.113281 C 123.25 174.148438 123.054688 174.191406 122.855469 174.246094 C 121.640625 174.574219 120.683594 175.257812 119.980469 176.292969 C 119.199219 177.300781 118.730469 178.5625 118.730469 179.933594 C 118.730469 179.992188 118.738281 180.050781 118.738281 180.109375 C 118.679688 181.429688 119.046875 182.59375 119.859375 183.597656 C 120.683594 184.621094 121.742188 185.386719 123.027344 185.902344 C 121.257812 186.933594 120.0625 188.847656 120.0625 191.046875 C 120.0625 193.257812 121.269531 195.179688 123.058594 196.203125 C 121.523438 201.210938 119.855469 206.195312 118.054688 211.15625 C 114.402344 221.179688 110.875 231.246094 107.460938 241.355469 C 105.171875 248.128906 103.59375 253.410156 102.730469 257.191406 C 102.691406 257.375 102.53125 257.511719 102.339844 257.523438 C 100.882812 257.644531 100.042969 258.398438 99.820312 259.789062 C 99.433594 262.214844 100.28125 263.875 102.359375 264.773438 C 102.746094 264.941406 103.304688 265.039062 104.050781 265.0625 C 104.632812 265.085938 105.210938 265.160156 105.785156 265.28125 C 105.984375 265.324219 106.171875 265.429688 106.320312 265.582031 C 107.316406 266.621094 108.296875 267.675781 109.265625 268.746094 C 111.703125 271.4375 114.554688 273.308594 117.816406 274.363281 C 120.734375 275.304688 124.015625 275.679688 127.671875 275.484375 C 134.757812 275.097656 140.488281 271.859375 144.863281 265.777344 C 144.988281 265.609375 145.179688 265.503906 145.371094 265.496094 C 145.882812 265.472656 146.390625 265.472656 146.902344 265.496094 C 147.652344 265.523438 148.257812 265.472656 148.714844 265.339844 C 151.671875 264.488281 152.800781 262.496094 152.097656 259.355469 C 151.988281 258.84375 151.808594 258.449219 151.5625 258.171875 C 151.222656 257.789062 150.816406 257.574219 150.34375 257.535156 C 149.976562 257.503906 149.667969 257.238281 149.570312 256.878906 C 148.117188 251.21875 146.554688 245.804688 144.886719 240.640625 C 140.136719 225.910156 135.117188 211.269531 129.835938 196.722656 C 129.75 196.476562 129.617188 196.203125 129.445312 195.910156 C 130.96875 194.828125 131.964844 193.058594 131.964844 191.046875 C 131.964844 188.941406 130.867188 187.09375 129.214844 186.035156 C 133.210938 185.511719 138.660156 184.710938 145.574219 183.640625 C 157.945312 181.730469 170.15625 179.792969 182.210938 177.828125 C 182.226562 177.828125 182.246094 177.824219 182.265625 177.824219 C 182.570312 177.808594 182.832031 178.039062 182.851562 178.347656 C 183.953125 202.230469 184.449219 226.125 184.335938 250.027344 C 184.3125 254.742188 184.230469 259.007812 184.085938 262.820312 C 183.765625 271.132812 183.300781 277.910156 182.691406 283.140625 C 182.09375 288.28125 181.296875 292.976562 180.292969 297.21875 C 179.46875 300.710938 178.296875 304.15625 176.777344 307.566406 C 175.269531 310.960938 173.640625 313.71875 171.890625 315.847656 C 169.828125 318.351562 167.386719 320.492188 164.578125 322.277344 C 161.65625 324.132812 158.691406 325.925781 155.6875 327.660156 C 154.609375 328.285156 154.683594 328.703125 155.914062 328.914062 C 166.34375 330.703125 176.492188 330.539062 186.355469 328.425781 C 187.300781 328.226562 188.253906 328.214844 189.210938 328.390625 C 199.226562 330.238281 208.949219 330.511719 218.375 329.214844 C 219.925781 329 220.078125 328.417969 218.839844 327.464844 C 217.785156 326.660156 216.496094 325.859375 214.980469 325.070312 C 210.082031 322.523438 206.078125 319.105469 202.96875 314.824219 C 200.90625 311.992188 199.070312 308.167969 197.457031 303.347656 C 195.617188 297.84375 194.375 292.386719 193.734375 286.976562 C 191.640625 269.210938 190.753906 250.601562 191.074219 231.144531 C 191.367188 213.492188 191.878906 195.84375 192.605469 178.195312 C 192.605469 178.1875 192.605469 178.171875 192.605469 178.160156 C 192.632812 178.003906 192.773438 177.894531 192.929688 177.921875 L 245.820312 186.058594 C 244.199219 187.121094 243.128906 188.953125 243.128906 191.035156 C 243.128906 193.160156 244.246094 195.019531 245.925781 196.074219 C 245.898438 196.125 245.867188 196.175781 245.851562 196.226562 C 242.390625 206.25 238.882812 216.265625 235.332031 226.265625 C 232.144531 235.234375 229.1875 244.285156 226.449219 253.402344 C 226.136719 254.445312 225.882812 255.613281 225.679688 256.910156 C 225.648438 257.113281 225.511719 257.28125 225.320312 257.351562 C 223.339844 258.09375 222.410156 259.324219 222.523438 261.03125 C 222.613281 262.375 223.152344 263.472656 224.144531 264.320312 C 225.175781 265.21875 226.496094 265.519531 228.105469 265.222656 C 228.726562 265.105469 229.367188 265.328125 229.785156 265.808594 C 230.949219 267.128906 232.128906 268.367188 233.324219 269.519531 C 234.726562 270.875 236.078125 271.910156 237.382812 272.621094 C 240.609375 274.386719 244.296875 275.332031 248.445312 275.457031 C 257.007812 275.710938 263.613281 272.546875 268.257812 265.96875 C 268.375 265.800781 268.558594 265.703125 268.757812 265.703125 C 270.386719 265.722656 271.84375 265.34375 273.125 264.578125 C 274.519531 263.746094 275.304688 262.636719 275.496094 261.246094 C 275.722656 259.53125 274.84375 258.167969 272.847656 257.171875 Z M 151.339844 260.632812 C 151.34375 260.578125 151.347656 260.527344 151.347656 260.480469 C 151.347656 260.53125 151.34375 260.582031 151.339844 260.632812 C 151.335938 260.660156 151.328125 260.691406 151.324219 260.71875 C 151.328125 260.691406 151.335938 260.660156 151.339844 260.632812 Z M 151.214844 259.863281 C 151.179688 259.816406 151.140625 259.792969 151.09375 259.789062 C 151.140625 259.789062 151.179688 259.816406 151.214844 259.863281 Z M 150.90625 261.402344 C 150.828125 261.390625 150.765625 261.324219 150.722656 261.210938 C 150.769531 261.324219 150.832031 261.390625 150.90625 261.402344 Z M 124.574219 260.226562 C 124.574219 260.230469 124.574219 260.234375 124.574219 260.234375 C 124.574219 260.40625 124.433594 260.546875 124.265625 260.546875 L 108.425781 260.578125 C 108.007812 260.585938 107.648438 260.273438 107.582031 259.855469 C 107.394531 258.640625 106.917969 257.824219 106.15625 257.40625 C 106.101562 257.375 105.894531 257.34375 105.535156 257.304688 L 104.289062 257.175781 C 104.273438 257.171875 104.261719 257.171875 104.246094 257.167969 C 104.097656 257.125 104.015625 256.941406 104.0625 256.761719 C 106.8125 246.621094 110 236.625 113.628906 226.769531 C 117.050781 217.484375 120.347656 208.160156 123.515625 198.789062 C 123.753906 198.085938 124.082031 197.417969 124.496094 196.792969 C 124.679688 196.839844 124.863281 196.878906 125.050781 196.910156 C 125.050781 196.925781 125.050781 196.941406 125.050781 196.960938 C 124.511719 217.992188 124.351562 239.082031 124.574219 260.226562 Z M 148.324219 256.640625 C 148.324219 256.644531 148.328125 256.644531 148.328125 256.648438 C 148.371094 256.816406 148.269531 256.984375 148.101562 257.03125 C 147.535156 257.171875 146.964844 257.285156 146.390625 257.371094 C 145.039062 257.574219 144.339844 258.382812 144.292969 259.796875 C 144.277344 260.238281 143.917969 260.589844 143.472656 260.589844 L 125.933594 260.550781 C 125.925781 260.550781 125.917969 260.550781 125.90625 260.550781 C 125.742188 260.539062 125.625 260.394531 125.636719 260.234375 C 125.671875 259.847656 125.71875 259.46875 125.785156 259.089844 C 125.855469 258.65625 125.890625 258.273438 125.890625 257.929688 C 125.980469 239.992188 126.148438 222.054688 126.398438 204.117188 C 126.433594 201.730469 126.519531 199.347656 126.65625 196.960938 C 127.199219 196.90625 127.714844 196.773438 128.203125 196.578125 C 128.316406 196.714844 128.410156 196.871094 128.472656 197.042969 C 136.019531 216.777344 142.636719 236.644531 148.324219 256.640625 Z M 249.066406 202.195312 C 248.902344 221.566406 248.863281 240.941406 248.957031 260.3125 C 248.957031 260.488281 248.816406 260.625 248.636719 260.625 L 231.195312 260.585938 C 230.847656 260.585938 230.5625 260.316406 230.554688 259.972656 C 230.523438 258.941406 230.058594 258.097656 229.148438 257.445312 C 229.050781 257.371094 228.855469 257.316406 228.5625 257.285156 L 227.339844 257.125 C 227.339844 257.125 227.335938 257.125 227.332031 257.125 C 227.167969 257.097656 227.0625 256.910156 227.09375 256.710938 C 227.566406 253.875 228.335938 250.796875 229.402344 247.46875 C 235.082031 229.753906 240.980469 212.992188 247.101562 197.1875 C 247.167969 197.007812 247.238281 196.863281 247.308594 196.734375 C 247.777344 196.875 248.273438 196.960938 248.785156 196.984375 C 248.996094 197.578125 249.089844 199.3125 249.066406 202.195312 Z M 269.203125 260.226562 C 269.210938 260.085938 269.242188 259.957031 269.289062 259.839844 C 269.242188 259.957031 269.210938 260.085938 269.203125 260.226562 C 269.183594 260.539062 269.269531 260.820312 269.414062 260.992188 C 269.265625 260.820312 269.179688 260.539062 269.203125 260.226562 Z M 269.734375 261.167969 C 269.75 261.167969 269.761719 261.164062 269.777344 261.164062 C 269.761719 261.164062 269.75 261.167969 269.734375 261.167969 Z M 269.941406 261.125 C 270.140625 261.03125 270.300781 260.792969 270.363281 260.488281 C 270.300781 260.792969 270.140625 261.03125 269.941406 261.125 Z M 269.855469 259.367188 C 270.007812 259.378906 270.140625 259.476562 270.238281 259.628906 C 270.140625 259.476562 270.007812 259.378906 269.855469 259.367188 Z M 270.839844 257.035156 C 268.53125 257.203125 267.296875 258.207031 267.136719 260.042969 C 267.105469 260.375 266.824219 260.632812 266.488281 260.632812 L 250.636719 260.625 C 250.464844 260.625 250.324219 260.480469 250.324219 260.304688 L 250.523438 196.808594 C 250.808594 196.738281 251.089844 196.648438 251.359375 196.539062 C 251.398438 196.605469 251.433594 196.675781 251.460938 196.761719 C 258.75 216.484375 265.351562 236.371094 271.269531 256.414062 C 271.277344 256.449219 271.285156 256.484375 271.289062 256.519531 C 271.308594 256.785156 271.105469 257.011719 270.839844 257.035156 Z M 270.839844 257.035156 " fill-opacity="1" fill-rule="nonzero"/><g clip-path="url(#fae0aedbdb)"><path fill="#ffbd59" d="M 227.164062 14.386719 L 236.328125 32.964844 L 256.832031 35.941406 L 241.992188 50.414062 L 245.503906 70.832031 L 227.164062 61.191406 L 208.8125 70.832031 L 212.316406 50.414062 L 197.488281 35.941406 L 217.988281 32.964844 Z M 227.164062 14.386719 " fill-opacity="1" fill-rule="nonzero"/><path fill="#ffbd59" d="M 227.023438 14.207031 L 236.199219 32.785156 L 256.699219 35.765625 L 241.859375 50.234375 L 245.363281 70.652344 L 227.023438 61.015625 L 208.683594 70.652344 L 212.183594 50.234375 L 197.347656 35.765625 L 217.847656 32.785156 Z M 227.023438 14.207031 " fill-opacity="1" fill-rule="nonzero"/><path fill="#ffbd59" d="M 227.023438 14.207031 L 236.199219 32.785156 L 256.699219 35.765625 L 241.859375 50.234375 L 245.363281 70.652344 L 227.023438 61.015625 L 208.683594 70.652344 L 212.183594 50.234375 L 197.347656 35.765625 L 217.847656 32.785156 Z M 227.023438 14.207031 " fill-opacity="1" fill-rule="nonzero"/><path fill="#ffbd59" d="M 227.023438 14.207031 L 236.199219 32.785156 L 256.699219 35.765625 L 241.859375 50.234375 L 245.363281 70.652344 L 227.023438 61.015625 L 208.683594 70.652344 L 212.183594 50.234375 L 197.347656 35.765625 L 217.847656 32.785156 Z M 227.023438 14.207031 " fill-opacity="1" fill-rule="nonzero"/></g></svg>