<svg xmlns="http://www.w3.org/2000/svg" xmlns:xlink="http://www.w3.org/1999/xlink" width="500" zoomAndPan="magnify" viewBox="0 0 375 374.999991" height="500" preserveAspectRatio="xMidYMid meet" version="1.0"><defs><clipPath id="9bf7bd235a"><path d="M 52.378906 37.5 L 107 37.5 L 107 89.25 L 52.378906 89.25 Z M 52.378906 37.5 " clip-rule="nonzero"/></clipPath><clipPath id="a4f5e03bca"><path d="M 76.777344 109.042969 L 298.027344 109.042969 L 298.027344 355.765625 L 76.777344 355.765625 Z M 76.777344 109.042969 " clip-rule="nonzero"/></clipPath><clipPath id="c6d19b63f8"><path d="M 124.113281 37.5 L 178.863281 37.5 L 178.863281 89.25 L 124.113281 89.25 Z M 124.113281 37.5 " clip-rule="nonzero"/></clipPath><clipPath id="8d5ee2d41a"><path d="M 196.058594 37.5 L 250.808594 37.5 L 250.808594 89.25 L 196.058594 89.25 Z M 196.058594 37.5 " clip-rule="nonzero"/></clipPath><clipPath id="682ad011d7"><path d="M 268 37.5 L 322.75 37.5 L 322.75 89.25 L 268 89.25 Z M 268 37.5 " clip-rule="nonzero"/></clipPath></defs><g clip-path="url(#9bf7bd235a)"><path fill="#9bc9a8" d="M 79.757812 37.683594 L 88.167969 54.738281 L 106.988281 57.472656 L 93.367188 70.757812 L 96.59375 89.5 L 79.757812 80.652344 L 62.90625 89.5 L 66.121094 70.757812 L 52.511719 57.472656 L 71.332031 54.738281 Z M 79.757812 37.683594 " fill-opacity="1" fill-rule="nonzero"/><path fill="#9bc9a8" d="M 79.625 37.519531 L 88.050781 54.574219 L 106.871094 57.308594 L 93.246094 70.59375 L 96.460938 89.335938 L 79.625 80.488281 L 62.789062 89.335938 L 66.003906 70.59375 L 52.378906 57.308594 L 71.203125 54.574219 Z M 79.625 37.519531 " fill-opacity="1" fill-rule="nonzero"/><path fill="#9bc9a8" d="M 79.625 37.519531 L 88.050781 54.574219 L 106.871094 57.308594 L 93.246094 70.59375 L 96.460938 89.335938 L 79.625 80.488281 L 62.789062 89.335938 L 66.003906 70.59375 L 52.378906 57.308594 L 71.203125 54.574219 Z M 79.625 37.519531 " fill-opacity="1" fill-rule="nonzero"/><path fill="#9bc9a8" d="M 79.625 37.519531 L 88.050781 54.574219 L 106.871094 57.308594 L 93.246094 70.59375 L 96.460938 89.335938 L 79.625 80.488281 L 62.789062 89.335938 L 66.003906 70.59375 L 52.378906 57.308594 L 71.203125 54.574219 Z M 79.625 37.519531 " fill-opacity="1" fill-rule="nonzero"/></g><path fill="#ffffff" d="M 296.035156 323.820312 L 296.035156 334.789062 C 296.035156 345.3125 287.476562 353.867188 276.957031 353.867188 L 78.964844 353.867188 L 78.964844 342.648438 L 276.957031 342.648438 C 281.289062 342.648438 284.8125 339.125 284.8125 334.789062 L 284.8125 323.820312 C 284.8125 319.484375 281.289062 315.960938 276.957031 315.960938 L 256.34375 315.960938 L 256.34375 324.214844 L 243.339844 315.929688 L 230.339844 324.214844 L 230.339844 315.960938 L 78.964844 315.960938 L 78.964844 304.742188 L 105.472656 304.742188 C 94.957031 304.742188 86.394531 296.183594 86.394531 285.664062 L 86.394531 272.996094 C 86.394531 262.476562 94.957031 253.917969 105.472656 253.917969 L 288.601562 253.917969 L 288.601562 265.140625 L 105.472656 265.140625 C 101.144531 265.140625 97.621094 268.664062 97.621094 272.996094 L 97.621094 285.664062 C 97.621094 289.996094 101.144531 293.519531 105.472656 293.519531 L 230.339844 293.519531 L 230.339844 279.328125 L 256.34375 279.328125 L 256.34375 293.519531 L 288.601562 293.519531 L 288.601562 304.742188 L 276.957031 304.742188 C 287.476562 304.742188 296.035156 313.300781 296.035156 323.820312 " fill-opacity="1" fill-rule="nonzero"/><path fill="#bc813d" d="M 284.8125 323.820312 L 284.8125 334.789062 C 284.8125 339.125 281.289062 342.648438 276.957031 342.648438 L 85.976562 342.648438 C 92.457031 327.296875 85.976562 315.960938 85.976562 315.960938 L 230.339844 315.960938 L 230.339844 324.214844 L 243.289062 315.960938 L 243.394531 315.960938 L 256.34375 324.214844 L 256.34375 315.960938 L 276.957031 315.960938 C 281.289062 315.960938 284.8125 319.484375 284.8125 323.820312 " fill-opacity="1" fill-rule="nonzero"/><path fill="#9bc9a8" d="M 281.59375 293.519531 L 256.34375 293.519531 L 256.34375 279.332031 L 230.339844 279.332031 L 230.339844 293.519531 L 105.472656 293.519531 C 101.144531 293.519531 97.621094 289.996094 97.621094 285.664062 L 97.621094 272.996094 C 97.621094 268.664062 101.144531 265.140625 105.472656 265.140625 L 281.59375 265.140625 C 281.59375 265.140625 275.109375 278.171875 281.59375 293.519531 " fill-opacity="1" fill-rule="nonzero"/><g clip-path="url(#a4f5e03bca)"><path fill="#ffffff" d="M 293.847656 323.820312 C 293.847656 314.507812 286.269531 306.929688 276.957031 306.929688 L 258.53125 306.929688 L 258.53125 313.773438 L 276.957031 313.773438 C 282.492188 313.773438 286.996094 318.28125 286.996094 323.820312 L 286.996094 334.789062 C 286.996094 340.328125 282.492188 344.835938 276.957031 344.835938 L 81.152344 344.835938 L 81.152344 351.679688 L 276.957031 351.679688 C 286.269531 351.679688 293.847656 344.101562 293.847656 334.789062 Z M 89.136719 340.460938 L 276.957031 340.460938 C 280.082031 340.460938 282.625 337.917969 282.625 334.789062 L 282.625 323.820312 C 282.625 320.691406 280.082031 318.148438 276.957031 318.148438 L 258.53125 318.148438 L 258.53125 328.203125 L 243.339844 318.523438 L 228.152344 328.203125 L 228.152344 318.148438 L 89.289062 318.148438 C 90.773438 322.40625 92.457031 330.480469 89.136719 340.460938 Z M 81.152344 313.773438 L 228.152344 313.773438 L 228.152344 306.929688 L 81.152344 306.929688 Z M 105.472656 302.554688 L 228.152344 302.554688 L 228.152344 295.707031 L 105.472656 295.707031 C 99.9375 295.707031 95.433594 291.203125 95.433594 285.664062 L 95.433594 272.996094 C 95.433594 267.460938 99.9375 262.953125 105.472656 262.953125 L 286.414062 262.953125 L 286.414062 256.105469 L 105.472656 256.105469 C 96.164062 256.105469 88.582031 263.683594 88.582031 272.996094 L 88.582031 285.664062 C 88.582031 294.976562 96.164062 302.554688 105.472656 302.554688 Z M 278.394531 267.328125 L 105.472656 267.328125 C 102.347656 267.328125 99.804688 269.871094 99.804688 272.996094 L 99.804688 285.664062 C 99.804688 288.789062 102.347656 291.332031 105.472656 291.332031 L 228.152344 291.332031 L 228.152344 281.515625 C 224.097656 281.515625 220.042969 281.515625 215.988281 281.515625 C 213.171875 281.515625 213.175781 277.140625 215.988281 277.140625 C 220.042969 277.140625 224.097656 277.140625 228.152344 277.140625 L 258.53125 277.140625 C 262.570312 277.140625 266.605469 277.140625 270.644531 277.140625 C 273.464844 277.140625 273.457031 281.515625 270.644531 281.515625 C 266.605469 281.515625 262.570312 281.515625 258.53125 281.515625 L 258.53125 291.332031 L 278.4375 291.332031 C 275.003906 280.90625 276.902344 271.890625 278.394531 267.328125 Z M 232.527344 320.226562 L 243.339844 313.335938 L 254.160156 320.226562 L 254.160156 281.515625 C 246.945312 281.515625 239.734375 281.515625 232.527344 281.515625 Z M 284.890625 295.707031 L 258.53125 295.707031 L 258.53125 302.554688 L 286.414062 302.554688 L 286.414062 295.707031 Z M 135.097656 157.113281 L 135.097656 191.53125 L 150.566406 191.53125 Z M 130.722656 156.96875 L 115.183594 191.53125 L 130.722656 191.53125 Z M 225.1875 191.53125 L 240.660156 191.53125 L 240.660156 157.113281 Z M 245.035156 191.53125 L 260.574219 191.53125 L 245.035156 156.96875 Z M 298.222656 323.820312 L 298.222656 334.789062 C 298.222656 346.515625 288.683594 356.054688 276.957031 356.054688 L 76.777344 356.054688 L 76.777344 340.460938 L 84.496094 340.460938 C 88.636719 329.5 85.875 321.074219 84.605469 318.148438 L 76.777344 318.148438 L 76.777344 302.554688 L 92.574219 302.554688 C 87.496094 298.664062 84.207031 292.542969 84.207031 285.664062 L 84.207031 272.996094 C 84.207031 261.269531 93.75 251.730469 105.472656 251.730469 L 152.210938 251.730469 L 152.210938 243.070312 L 165.617188 243.070312 L 165.617188 238.835938 C 165.617188 233.828125 169.6875 229.757812 174.695312 229.757812 L 174.8125 229.757812 L 174.8125 212.199219 C 174.8125 207.636719 178.203125 203.84375 182.597656 203.214844 L 182.597656 156.621094 L 182.457031 156.320312 C 179.371094 149.566406 173.675781 144.597656 167.230469 143.035156 C 163.382812 142.097656 159.863281 142.597656 157.574219 144.394531 C 154.609375 146.726562 148.789062 150.910156 143.132812 152.761719 L 142.992188 152.804688 C 142.488281 152.929688 140.292969 153.472656 138.335938 153.652344 L 155.175781 191.109375 L 155.175781 194.035156 C 155.175781 204.003906 145.15625 212.117188 132.84375 212.117188 C 120.53125 212.117188 110.515625 204.003906 110.515625 194.035156 L 110.515625 191.53125 L 110.578125 191.53125 L 110.578125 191.109375 L 129.421875 149.1875 C 127.878906 146.582031 127.589844 143.238281 128.585938 139.449219 C 127.738281 138.464844 127.226562 137.191406 127.226562 135.792969 C 127.226562 132.699219 129.746094 130.175781 132.84375 130.175781 C 135.941406 130.175781 138.460938 132.699219 138.460938 135.792969 C 138.460938 138.402344 136.675781 140.59375 134.265625 141.226562 C 134.269531 142.664062 134.664062 143.929688 135.941406 144.324219 C 139.445312 145.40625 141.878906 143.148438 145.878906 139.070312 C 149.355469 135.527344 153.679688 131.117188 160.183594 129.535156 C 170.074219 127.128906 177.816406 130.378906 182.597656 134.148438 L 182.597656 130.019531 C 179.160156 128.105469 176.828125 124.4375 176.828125 120.234375 C 176.828125 114.0625 181.847656 109.042969 188.019531 109.042969 C 194.191406 109.042969 199.210938 114.0625 199.210938 120.234375 C 199.210938 124.554688 196.75 128.300781 193.160156 130.164062 L 193.160156 134.148438 C 197.9375 130.378906 205.679688 127.132812 215.570312 129.535156 C 222.074219 131.117188 226.402344 135.527344 229.875 139.070312 C 233.878906 143.152344 236.3125 145.40625 239.816406 144.324219 C 241.09375 143.929688 241.488281 142.664062 241.488281 141.226562 C 239.078125 140.59375 237.292969 138.402344 237.292969 135.792969 C 237.292969 132.699219 239.816406 130.175781 242.914062 130.175781 C 246.011719 130.175781 248.53125 132.699219 248.53125 135.792969 C 248.53125 137.191406 248.015625 138.464844 247.171875 139.449219 C 248.167969 143.238281 247.875 146.582031 246.332031 149.1875 L 265.175781 191.109375 L 265.175781 191.53125 L 265.242188 191.53125 L 265.242188 194.035156 C 265.242188 204.003906 255.222656 212.117188 242.914062 212.117188 C 230.601562 212.117188 220.582031 204.003906 220.582031 194.035156 L 220.582031 191.109375 L 237.417969 153.65625 C 235.457031 153.480469 233.265625 152.929688 232.765625 152.804688 L 232.628906 152.761719 C 226.96875 150.910156 221.148438 146.726562 218.179688 144.394531 C 215.890625 142.597656 212.371094 142.097656 208.523438 143.035156 C 202.078125 144.597656 196.386719 149.566406 193.296875 156.320312 L 193.160156 156.621094 L 193.160156 203.214844 C 197.554688 203.84375 200.941406 207.636719 200.941406 212.199219 L 200.941406 229.757812 L 201.0625 229.757812 C 206.066406 229.757812 210.140625 233.828125 210.140625 238.835938 L 210.140625 243.070312 L 223.542969 243.070312 L 223.542969 251.730469 L 290.789062 251.730469 L 290.789062 267.328125 L 283.046875 267.328125 C 281.796875 270.628906 278.9375 280.28125 283.078125 291.332031 L 290.789062 291.332031 L 290.789062 306.929688 L 289.855469 306.929688 C 294.9375 310.820312 298.222656 316.941406 298.222656 323.820312 Z M 95.1875 337.429688 C 113.800781 337.429688 132.417969 337.429688 151.03125 337.429688 C 153.84375 337.429688 153.851562 333.054688 151.03125 333.054688 C 132.417969 333.054688 113.800781 333.054688 95.1875 333.054688 C 92.371094 333.054688 92.367188 337.429688 95.1875 337.429688 Z M 157.800781 337.429688 C 159.945312 337.429688 162.09375 337.429688 164.242188 337.429688 C 167.054688 337.429688 167.0625 333.054688 164.242188 333.054688 C 162.09375 333.054688 159.945312 333.054688 157.800781 333.054688 C 154.984375 333.054688 154.980469 337.429688 157.800781 337.429688 Z M 171.800781 337.429688 C 168.980469 337.429688 168.984375 333.054688 171.800781 333.054688 C 173.902344 333.054688 176.007812 333.054688 178.109375 333.054688 C 180.929688 333.054688 180.925781 337.429688 178.109375 337.429688 C 176.007812 337.429688 173.902344 337.429688 171.800781 337.429688 " fill-opacity="1" fill-rule="nonzero"/></g><g clip-path="url(#c6d19b63f8)"><path fill="#9bc9a8" d="M 151.488281 37.683594 L 159.902344 54.738281 L 178.722656 57.472656 L 165.101562 70.757812 L 168.324219 89.5 L 151.488281 80.652344 L 134.640625 89.5 L 137.855469 70.757812 L 124.242188 57.472656 L 143.066406 54.738281 Z M 151.488281 37.683594 " fill-opacity="1" fill-rule="nonzero"/><path fill="#9bc9a8" d="M 151.359375 37.519531 L 159.78125 54.574219 L 178.601562 57.308594 L 164.980469 70.59375 L 168.195312 89.335938 L 151.359375 80.488281 L 134.519531 89.335938 L 137.734375 70.59375 L 124.113281 57.308594 L 142.933594 54.574219 Z M 151.359375 37.519531 " fill-opacity="1" fill-rule="nonzero"/><path fill="#9bc9a8" d="M 151.359375 37.519531 L 159.78125 54.574219 L 178.601562 57.308594 L 164.980469 70.59375 L 168.195312 89.335938 L 151.359375 80.488281 L 134.519531 89.335938 L 137.734375 70.59375 L 124.113281 57.308594 L 142.933594 54.574219 Z M 151.359375 37.519531 " fill-opacity="1" fill-rule="nonzero"/><path fill="#9bc9a8" d="M 151.359375 37.519531 L 159.78125 54.574219 L 178.601562 57.308594 L 164.980469 70.59375 L 168.195312 89.335938 L 151.359375 80.488281 L 134.519531 89.335938 L 137.734375 70.59375 L 124.113281 57.308594 L 142.933594 54.574219 Z M 151.359375 37.519531 " fill-opacity="1" fill-rule="nonzero"/></g><g clip-path="url(#8d5ee2d41a)"><path fill="#9bc9a8" d="M 223.433594 37.683594 L 231.847656 54.738281 L 250.667969 57.472656 L 237.042969 70.757812 L 240.269531 89.5 L 223.433594 80.652344 L 206.585938 89.5 L 209.800781 70.757812 L 196.1875 57.472656 L 215.007812 54.738281 Z M 223.433594 37.683594 " fill-opacity="1" fill-rule="nonzero"/><path fill="#9bc9a8" d="M 223.300781 37.519531 L 231.726562 54.574219 L 250.546875 57.308594 L 236.925781 70.59375 L 240.140625 89.335938 L 223.300781 80.488281 L 206.464844 89.335938 L 209.679688 70.59375 L 196.058594 57.308594 L 214.878906 54.574219 Z M 223.300781 37.519531 " fill-opacity="1" fill-rule="nonzero"/><path fill="#9bc9a8" d="M 223.300781 37.519531 L 231.726562 54.574219 L 250.546875 57.308594 L 236.925781 70.59375 L 240.140625 89.335938 L 223.300781 80.488281 L 206.464844 89.335938 L 209.679688 70.59375 L 196.058594 57.308594 L 214.878906 54.574219 Z M 223.300781 37.519531 " fill-opacity="1" fill-rule="nonzero"/><path fill="#9bc9a8" d="M 223.300781 37.519531 L 231.726562 54.574219 L 250.546875 57.308594 L 236.925781 70.59375 L 240.140625 89.335938 L 223.300781 80.488281 L 206.464844 89.335938 L 209.679688 70.59375 L 196.058594 57.308594 L 214.878906 54.574219 Z M 223.300781 37.519531 " fill-opacity="1" fill-rule="nonzero"/></g><g clip-path="url(#682ad011d7)"><path fill="#9bc9a8" d="M 295.375 37.683594 L 303.789062 54.738281 L 322.609375 57.472656 L 308.988281 70.757812 L 312.214844 89.5 L 295.375 80.652344 L 278.527344 89.5 L 281.742188 70.757812 L 268.132812 57.472656 L 286.953125 54.738281 Z M 295.375 37.683594 " fill-opacity="1" fill-rule="nonzero"/><path fill="#9bc9a8" d="M 295.246094 37.519531 L 303.671875 54.574219 L 322.492188 57.308594 L 308.867188 70.59375 L 312.082031 89.335938 L 295.246094 80.488281 L 278.410156 89.335938 L 281.625 70.59375 L 268 57.308594 L 286.820312 54.574219 Z M 295.246094 37.519531 " fill-opacity="1" fill-rule="nonzero"/><path fill="#9bc9a8" d="M 295.246094 37.519531 L 303.671875 54.574219 L 322.492188 57.308594 L 308.867188 70.59375 L 312.082031 89.335938 L 295.246094 80.488281 L 278.410156 89.335938 L 281.625 70.59375 L 268 57.308594 L 286.820312 54.574219 Z M 295.246094 37.519531 " fill-opacity="1" fill-rule="nonzero"/><path fill="#9bc9a8" d="M 295.246094 37.519531 L 303.671875 54.574219 L 322.492188 57.308594 L 308.867188 70.59375 L 312.082031 89.335938 L 295.246094 80.488281 L 278.410156 89.335938 L 281.625 70.59375 L 268 57.308594 L 286.820312 54.574219 Z M 295.246094 37.519531 " fill-opacity="1" fill-rule="nonzero"/></g></svg>