<svg xmlns="http://www.w3.org/2000/svg" xmlns:xlink="http://www.w3.org/1999/xlink" width="500" zoomAndPan="magnify" viewBox="0 0 375 374.999991" height="500" preserveAspectRatio="xMidYMid meet" version="1.0"><defs><clipPath id="5eef0418c9"><path d="M 13.679688 26.53125 L 69.179688 26.53125 L 69.179688 79.03125 L 13.679688 79.03125 Z M 13.679688 26.53125 " clip-rule="nonzero"/></clipPath><clipPath id="080c4b97c8"><path d="M 13.679688 26.53125 L 69 26.53125 L 69 79.03125 L 13.679688 79.03125 Z M 13.679688 26.53125 " clip-rule="nonzero"/></clipPath><clipPath id="094ba77d78"><path d="M 63.929688 101.328125 L 311.429688 101.328125 L 311.429688 348.828125 L 63.929688 348.828125 Z M 63.929688 101.328125 " clip-rule="nonzero"/></clipPath><clipPath id="87a2d745ad"><path d="M 86.785156 26.53125 L 142.285156 26.53125 L 142.285156 79.03125 L 86.785156 79.03125 Z M 86.785156 26.53125 " clip-rule="nonzero"/></clipPath><clipPath id="1127394730"><path d="M 159.816406 26.53125 L 215.316406 26.53125 L 215.316406 79.03125 L 159.816406 79.03125 Z M 159.816406 26.53125 " clip-rule="nonzero"/></clipPath><clipPath id="9734b17984"><path d="M 232.84375 26.53125 L 288.34375 26.53125 L 288.34375 79.03125 L 232.84375 79.03125 Z M 232.84375 26.53125 " clip-rule="nonzero"/></clipPath><clipPath id="35756ee070"><path d="M 306 26.53125 L 361.375 26.53125 L 361.375 79.03125 L 306 79.03125 Z M 306 26.53125 " clip-rule="nonzero"/></clipPath><clipPath id="9088ddfd32"><path d="M 305.875 26.53125 L 361.375 26.53125 L 361.375 79.03125 L 305.875 79.03125 Z M 305.875 26.53125 " clip-rule="nonzero"/></clipPath></defs><g clip-path="url(#5eef0418c9)"><path fill="#ff3131" d="M 41.472656 26.710938 L 50.015625 44.027344 L 69.121094 46.804688 L 55.292969 60.292969 L 58.566406 79.320312 L 41.472656 70.335938 L 24.367188 79.320312 L 27.632812 60.292969 L 13.8125 46.804688 L 32.921875 44.027344 Z M 41.472656 26.710938 " fill-opacity="1" fill-rule="nonzero"/></g><g clip-path="url(#080c4b97c8)"><path fill="#ff3131" d="M 41.339844 26.546875 L 49.894531 43.863281 L 69 46.640625 L 55.171875 60.125 L 58.433594 79.15625 L 41.339844 70.171875 L 24.246094 79.15625 L 27.511719 60.125 L 13.679688 46.640625 L 32.789062 43.863281 Z M 41.339844 26.546875 " fill-opacity="1" fill-rule="nonzero"/><path fill="#ff3131" d="M 41.339844 26.546875 L 49.894531 43.863281 L 69 46.640625 L 55.171875 60.125 L 58.433594 79.15625 L 41.339844 70.171875 L 24.246094 79.15625 L 27.511719 60.125 L 13.679688 46.640625 L 32.789062 43.863281 Z M 41.339844 26.546875 " fill-opacity="1" fill-rule="nonzero"/><path fill="#ff3131" d="M 41.339844 26.546875 L 49.894531 43.863281 L 69 46.640625 L 55.171875 60.125 L 58.433594 79.15625 L 41.339844 70.171875 L 24.246094 79.15625 L 27.511719 60.125 L 13.679688 46.640625 L 32.789062 43.863281 Z M 41.339844 26.546875 " fill-opacity="1" fill-rule="nonzero"/></g><g clip-path="url(#094ba77d78)"><path fill="#ea4949" d="M 187.679688 101.328125 C 119.34375 101.328125 63.929688 156.742188 63.929688 225.078125 C 63.929688 293.410156 119.34375 348.828125 187.679688 348.828125 C 256.011719 348.828125 311.429688 293.410156 311.429688 225.078125 C 311.429688 156.742188 256.011719 101.328125 187.679688 101.328125 Z M 187.679688 101.328125 " fill-opacity="1" fill-rule="nonzero"/></g><path fill="#d8dbba" d="M 185.183594 179.984375 L 190.621094 179.984375 L 190.621094 281.191406 L 185.183594 281.191406 Z M 185.183594 179.984375 " fill-opacity="1" fill-rule="nonzero"/><path fill="#d8dbba" d="M 197.753906 294.109375 C 197.753906 271.015625 188.078125 271.464844 188.078125 271.464844 C 188.078125 271.464844 178.402344 271.066406 178.402344 294.109375 C 178.402344 317.152344 180.894531 302.9375 139.347656 302.9375 L 139.347656 307.128906 L 236.710938 307.128906 L 236.710938 302.9375 C 195.210938 302.9375 197.753906 294.109375 197.753906 294.109375 " fill-opacity="1" fill-rule="nonzero"/><path fill="#d8dbba" d="M 187.878906 162.777344 C 185.585938 162.777344 182.492188 167.664062 182.492188 178.589844 C 182.492188 189.511719 193.714844 189.511719 193.714844 178.589844 C 193.714844 167.664062 190.171875 162.777344 187.878906 162.777344 " fill-opacity="1" fill-rule="nonzero"/><path fill="#6d6d68" d="M 248.480469 196.644531 C 247.632812 196.296875 246.636719 196.695312 246.285156 197.59375 L 223.59375 253.40625 C 223.242188 254.253906 223.640625 255.253906 224.539062 255.601562 C 224.738281 255.703125 224.9375 255.703125 225.1875 255.703125 C 225.835938 255.703125 226.484375 255.304688 226.734375 254.65625 L 249.378906 198.839844 C 249.730469 197.992188 249.328125 196.996094 248.480469 196.644531 " fill-opacity="1" fill-rule="nonzero"/><path fill="#6d6d68" d="M 279.40625 253.40625 L 256.761719 197.59375 C 256.414062 196.746094 255.414062 196.347656 254.566406 196.644531 C 253.71875 196.996094 253.269531 197.992188 253.621094 198.839844 L 276.265625 254.65625 C 276.515625 255.304688 277.164062 255.703125 277.8125 255.703125 C 278.011719 255.703125 278.257812 255.652344 278.460938 255.601562 C 279.355469 255.203125 279.757812 254.253906 279.40625 253.40625 " fill-opacity="1" fill-rule="nonzero"/><path fill="#e4e5cf" d="M 223.191406 252.957031 C 223.191406 252.957031 223.59375 272.910156 251.722656 272.910156 C 279.855469 272.910156 279.855469 252.957031 279.855469 252.957031 Z M 223.191406 252.957031 " fill-opacity="1" fill-rule="nonzero"/><path fill="#d8dbba" d="M 256.660156 186.421875 L 256.660156 186.46875 C 255.914062 185.023438 254.566406 183.828125 252.769531 183.226562 C 249.527344 182.179688 246.136719 183.625 245.238281 186.421875 C 244.34375 189.261719 246.238281 192.355469 249.480469 193.402344 C 249.578125 193.453125 249.628906 193.453125 249.730469 193.453125 C 248.132812 193.851562 246.4375 193.800781 244.742188 193.253906 C 242.296875 192.457031 238.058594 187.667969 229.226562 184.824219 C 222.246094 182.578125 206.734375 182.230469 186.730469 175.796875 L 184.636719 182.378906 C 200.648438 187.515625 216.910156 187.617188 224.039062 189.664062 C 237.257812 193.453125 240.453125 197.144531 243.894531 199.6875 C 247.335938 202.28125 255.515625 201.234375 257.460938 195.148438 C 258.40625 192.207031 258.058594 189.0625 256.660156 186.421875 " fill-opacity="1" fill-rule="nonzero"/><path fill="#6d6d68" d="M 151.765625 213.503906 L 129.121094 157.691406 C 128.773438 156.84375 127.773438 156.441406 126.925781 156.742188 C 126.078125 157.089844 125.628906 158.089844 125.980469 158.9375 L 148.625 214.75 C 148.875 215.398438 149.523438 215.800781 150.171875 215.800781 C 150.371094 215.800781 150.617188 215.75 150.820312 215.699219 C 151.667969 215.300781 152.117188 214.351562 151.765625 213.503906 " fill-opacity="1" fill-rule="nonzero"/><path fill="#6d6d68" d="M 120.792969 156.742188 C 119.945312 156.394531 118.945312 156.792969 118.597656 157.691406 L 95.953125 213.503906 C 95.601562 214.351562 96 215.351562 96.898438 215.699219 C 97.097656 215.800781 97.296875 215.800781 97.546875 215.800781 C 98.195312 215.800781 98.84375 215.398438 99.09375 214.75 L 121.738281 158.9375 C 122.089844 158.089844 121.6875 157.089844 120.792969 156.742188 " fill-opacity="1" fill-rule="nonzero"/><path fill="#e4e5cf" d="M 95.503906 213.054688 C 95.503906 213.054688 95.503906 233.007812 123.632812 233.007812 C 151.765625 233.007812 152.164062 213.054688 152.164062 213.054688 Z M 95.503906 213.054688 " fill-opacity="1" fill-rule="nonzero"/><path fill="#d8dbba" d="M 146.929688 158.386719 C 138.097656 155.546875 131.863281 156.992188 129.421875 156.195312 C 127.773438 155.644531 126.328125 154.695312 125.28125 153.449219 C 125.378906 153.5 125.429688 153.5 125.53125 153.550781 C 128.773438 154.597656 132.164062 153.152344 133.0625 150.359375 C 133.960938 147.5625 132.0625 144.421875 128.820312 143.375 C 127.027344 142.777344 125.179688 142.976562 123.734375 143.722656 L 123.734375 143.671875 C 121.089844 145.019531 118.945312 147.363281 118 150.40625 C 116.054688 156.492188 122.089844 162.078125 126.378906 161.980469 C 130.667969 161.878906 135.40625 160.78125 148.375 165.371094 C 155.359375 167.863281 168.625 177.242188 184.636719 182.378906 L 186.730469 175.796875 C 166.730469 169.410156 153.910156 160.632812 146.929688 158.386719 " fill-opacity="1" fill-rule="nonzero"/><g clip-path="url(#87a2d745ad)"><path fill="#ff3131" d="M 114.578125 26.710938 L 123.117188 44.027344 L 142.226562 46.804688 L 128.394531 60.292969 L 131.671875 79.320312 L 114.578125 70.335938 L 97.472656 79.320312 L 100.734375 60.292969 L 86.917969 46.804688 L 106.023438 44.027344 Z M 114.578125 26.710938 " fill-opacity="1" fill-rule="nonzero"/><path fill="#ff3131" d="M 114.445312 26.546875 L 122.996094 43.863281 L 142.101562 46.640625 L 128.273438 60.125 L 131.539062 79.15625 L 114.445312 70.171875 L 97.351562 79.15625 L 100.613281 60.125 L 86.785156 46.640625 L 105.890625 43.863281 Z M 114.445312 26.546875 " fill-opacity="1" fill-rule="nonzero"/><path fill="#ff3131" d="M 114.445312 26.546875 L 122.996094 43.863281 L 142.101562 46.640625 L 128.273438 60.125 L 131.539062 79.15625 L 114.445312 70.171875 L 97.351562 79.15625 L 100.613281 60.125 L 86.785156 46.640625 L 105.890625 43.863281 Z M 114.445312 26.546875 " fill-opacity="1" fill-rule="nonzero"/><path fill="#ff3131" d="M 114.445312 26.546875 L 122.996094 43.863281 L 142.101562 46.640625 L 128.273438 60.125 L 131.539062 79.15625 L 114.445312 70.171875 L 97.351562 79.15625 L 100.613281 60.125 L 86.785156 46.640625 L 105.890625 43.863281 Z M 114.445312 26.546875 " fill-opacity="1" fill-rule="nonzero"/></g><g clip-path="url(#1127394730)"><path fill="#ff3131" d="M 187.605469 26.710938 L 196.148438 44.027344 L 215.257812 46.804688 L 201.425781 60.292969 L 204.699219 79.320312 L 187.605469 70.335938 L 170.503906 79.320312 L 173.765625 60.292969 L 159.945312 46.804688 L 179.054688 44.027344 Z M 187.605469 26.710938 " fill-opacity="1" fill-rule="nonzero"/><path fill="#ff3131" d="M 187.472656 26.546875 L 196.027344 43.863281 L 215.132812 46.640625 L 201.304688 60.125 L 204.566406 79.15625 L 187.472656 70.171875 L 170.378906 79.15625 L 173.644531 60.125 L 159.816406 46.640625 L 178.921875 43.863281 Z M 187.472656 26.546875 " fill-opacity="1" fill-rule="nonzero"/><path fill="#ff3131" d="M 187.472656 26.546875 L 196.027344 43.863281 L 215.132812 46.640625 L 201.304688 60.125 L 204.566406 79.15625 L 187.472656 70.171875 L 170.378906 79.15625 L 173.644531 60.125 L 159.816406 46.640625 L 178.921875 43.863281 Z M 187.472656 26.546875 " fill-opacity="1" fill-rule="nonzero"/><path fill="#ff3131" d="M 187.472656 26.546875 L 196.027344 43.863281 L 215.132812 46.640625 L 201.304688 60.125 L 204.566406 79.15625 L 187.472656 70.171875 L 170.378906 79.15625 L 173.644531 60.125 L 159.816406 46.640625 L 178.921875 43.863281 Z M 187.472656 26.546875 " fill-opacity="1" fill-rule="nonzero"/></g><g clip-path="url(#9734b17984)"><path fill="#ff3131" d="M 260.636719 26.710938 L 269.179688 44.027344 L 288.285156 46.804688 L 274.457031 60.292969 L 277.730469 79.320312 L 260.636719 70.335938 L 243.53125 79.320312 L 246.796875 60.292969 L 232.976562 46.804688 L 252.085938 44.027344 Z M 260.636719 26.710938 " fill-opacity="1" fill-rule="nonzero"/><path fill="#ff3131" d="M 260.503906 26.546875 L 269.058594 43.863281 L 288.164062 46.640625 L 274.335938 60.125 L 277.597656 79.15625 L 260.503906 70.171875 L 243.410156 79.15625 L 246.675781 60.125 L 232.84375 46.640625 L 251.953125 43.863281 Z M 260.503906 26.546875 " fill-opacity="1" fill-rule="nonzero"/><path fill="#ff3131" d="M 260.503906 26.546875 L 269.058594 43.863281 L 288.164062 46.640625 L 274.335938 60.125 L 277.597656 79.15625 L 260.503906 70.171875 L 243.410156 79.15625 L 246.675781 60.125 L 232.84375 46.640625 L 251.953125 43.863281 Z M 260.503906 26.546875 " fill-opacity="1" fill-rule="nonzero"/><path fill="#ff3131" d="M 260.503906 26.546875 L 269.058594 43.863281 L 288.164062 46.640625 L 274.335938 60.125 L 277.597656 79.15625 L 260.503906 70.171875 L 243.410156 79.15625 L 246.675781 60.125 L 232.84375 46.640625 L 251.953125 43.863281 Z M 260.503906 26.546875 " fill-opacity="1" fill-rule="nonzero"/></g><g clip-path="url(#35756ee070)"><path fill="#ff3131" d="M 333.667969 26.710938 L 342.210938 44.027344 L 361.316406 46.804688 L 347.488281 60.292969 L 350.761719 79.320312 L 333.667969 70.335938 L 316.5625 79.320312 L 319.828125 60.292969 L 306.007812 46.804688 L 325.117188 44.027344 Z M 333.667969 26.710938 " fill-opacity="1" fill-rule="nonzero"/></g><g clip-path="url(#9088ddfd32)"><path fill="#ff3131" d="M 333.535156 26.546875 L 342.089844 43.863281 L 361.195312 46.640625 L 347.367188 60.125 L 350.628906 79.15625 L 333.535156 70.171875 L 316.441406 79.15625 L 319.707031 60.125 L 305.875 46.640625 L 324.984375 43.863281 Z M 333.535156 26.546875 " fill-opacity="1" fill-rule="nonzero"/><path fill="#ff3131" d="M 333.535156 26.546875 L 342.089844 43.863281 L 361.195312 46.640625 L 347.367188 60.125 L 350.628906 79.15625 L 333.535156 70.171875 L 316.441406 79.15625 L 319.707031 60.125 L 305.875 46.640625 L 324.984375 43.863281 Z M 333.535156 26.546875 " fill-opacity="1" fill-rule="nonzero"/><path fill="#ff3131" d="M 333.535156 26.546875 L 342.089844 43.863281 L 361.195312 46.640625 L 347.367188 60.125 L 350.628906 79.15625 L 333.535156 70.171875 L 316.441406 79.15625 L 319.707031 60.125 L 305.875 46.640625 L 324.984375 43.863281 Z M 333.535156 26.546875 " fill-opacity="1" fill-rule="nonzero"/></g></svg>