<svg xmlns="http://www.w3.org/2000/svg" xmlns:xlink="http://www.w3.org/1999/xlink" width="500" zoomAndPan="magnify" viewBox="0 0 375 374.999991" height="500" preserveAspectRatio="xMidYMid meet" version="1.0"><defs><clipPath id="39d8350833"><path d="M 9.382812 17.714844 L 66.382812 17.714844 L 66.382812 71.714844 L 9.382812 71.714844 Z M 9.382812 17.714844 " clip-rule="nonzero"/></clipPath><clipPath id="f83dc1e656"><path d="M 51.351562 114.597656 L 323.601562 114.597656 L 323.601562 357.597656 L 51.351562 357.597656 Z M 51.351562 114.597656 " clip-rule="nonzero"/></clipPath><clipPath id="001982e6f6"><path d="M 83.652344 17.714844 L 140.652344 17.714844 L 140.652344 71.714844 L 83.652344 71.714844 Z M 83.652344 17.714844 " clip-rule="nonzero"/></clipPath><clipPath id="af1f8fa716"><path d="M 158.660156 17.714844 L 215.660156 17.714844 L 215.660156 71.714844 L 158.660156 71.714844 Z M 158.660156 17.714844 " clip-rule="nonzero"/></clipPath><clipPath id="2b1f90999d"><path d="M 233.667969 17.714844 L 290.667969 17.714844 L 290.667969 71.714844 L 233.667969 71.714844 Z M 233.667969 17.714844 " clip-rule="nonzero"/></clipPath><clipPath id="a741d8ca0b"><path d="M 308.675781 17.714844 L 365.675781 17.714844 L 365.675781 71.714844 L 308.675781 71.714844 Z M 308.675781 17.714844 " clip-rule="nonzero"/></clipPath></defs><g clip-path="url(#39d8350833)"><path fill="#bc813d" d="M 37.925781 17.902344 L 46.699219 35.683594 L 66.324219 38.539062 L 52.117188 52.390625 L 55.480469 71.933594 L 37.925781 62.707031 L 20.359375 71.933594 L 23.710938 52.390625 L 9.519531 38.539062 L 29.140625 35.683594 Z M 37.925781 17.902344 " fill-opacity="1" fill-rule="nonzero"/><path fill="#bc813d" d="M 37.789062 17.730469 L 46.574219 35.515625 L 66.199219 38.367188 L 51.992188 52.21875 L 55.347656 71.765625 L 37.789062 62.535156 L 20.234375 71.765625 L 23.585938 52.21875 L 9.382812 38.367188 L 29.007812 35.515625 Z M 37.789062 17.730469 " fill-opacity="1" fill-rule="nonzero"/><path fill="#bc813d" d="M 37.789062 17.730469 L 46.574219 35.515625 L 66.199219 38.367188 L 51.992188 52.21875 L 55.347656 71.765625 L 37.789062 62.535156 L 20.234375 71.765625 L 23.585938 52.21875 L 9.382812 38.367188 L 29.007812 35.515625 Z M 37.789062 17.730469 " fill-opacity="1" fill-rule="nonzero"/><path fill="#bc813d" d="M 37.789062 17.730469 L 46.574219 35.515625 L 66.199219 38.367188 L 51.992188 52.21875 L 55.347656 71.765625 L 37.789062 62.535156 L 20.234375 71.765625 L 23.585938 52.21875 L 9.382812 38.367188 L 29.007812 35.515625 Z M 37.789062 17.730469 " fill-opacity="1" fill-rule="nonzero"/></g><g clip-path="url(#f83dc1e656)"><path fill="#bc813d" d="M 307.570312 251.3125 C 307.6875 250.9375 307.996094 250.660156 308.371094 250.59375 C 311.007812 250.164062 313.308594 249.121094 315.265625 247.46875 C 316.820312 246.152344 318.28125 244.199219 319.644531 241.601562 C 322.046875 237.023438 323.375 232.097656 323.617188 226.828125 C 323.640625 226.460938 323.503906 226.390625 323.210938 226.617188 C 318.1875 230.617188 313.527344 235.078125 309.234375 240.003906 C 308.785156 240.515625 308.589844 240.433594 308.652344 239.757812 L 309.707031 227.933594 C 309.738281 227.589844 309.957031 227.292969 310.28125 227.152344 C 313.628906 225.726562 316.054688 223.542969 317.558594 220.609375 C 318.722656 218.335938 319.484375 215.324219 319.847656 211.574219 C 320.15625 208.375 319.933594 205.148438 319.179688 201.890625 C 319.066406 201.394531 318.855469 201.347656 318.542969 201.742188 C 314.8125 206.496094 311.417969 211.511719 308.351562 216.789062 C 308.246094 216.960938 308.179688 216.945312 308.148438 216.75 L 306.28125 206.050781 C 306.179688 205.480469 306.339844 204.902344 306.714844 204.488281 C 311.136719 199.585938 313.054688 193.984375 312.472656 187.695312 C 312.15625 184.277344 311.3125 180.832031 309.945312 177.359375 C 309.847656 177.113281 309.730469 177.105469 309.59375 177.328125 C 306.578125 182.359375 304.058594 187.539062 302.035156 192.867188 C 301.933594 193.136719 301.820312 193.140625 301.699219 192.882812 L 297.40625 183.578125 C 297.113281 182.945312 297.117188 182.3125 297.421875 181.679688 C 299.605469 177.070312 300.429688 172.441406 299.886719 167.789062 C 299.355469 163.15625 297.71875 158.871094 294.988281 154.949219 C 294.703125 154.542969 294.457031 154.5625 294.246094 155.015625 C 293.839844 155.910156 293.515625 156.96875 293.277344 158.195312 C 292.476562 162.335938 291.589844 166.648438 290.617188 171.125 C 290.550781 171.433594 290.414062 171.464844 290.214844 171.21875 L 283.488281 162.746094 C 283.058594 162.207031 282.929688 161.625 283.097656 161 C 284.980469 153.820312 284.214844 146.875 280.8125 140.175781 C 279.867188 138.324219 278.65625 136.667969 277.171875 135.203125 C 276.96875 135 276.832031 135.039062 276.761719 135.320312 C 275.484375 140.605469 274.820312 145.96875 274.773438 151.40625 C 274.773438 151.617188 274.699219 151.640625 274.550781 151.492188 L 266.757812 143.609375 C 266.242188 143.082031 266.035156 142.445312 266.140625 141.703125 C 266.402344 139.863281 266.140625 137.855469 265.355469 135.683594 C 262.789062 128.574219 258.53125 122.894531 252.578125 118.644531 C 251.808594 118.09375 251.449219 118.292969 251.496094 119.234375 C 251.761719 124.636719 252.859375 129.785156 254.792969 134.675781 C 254.949219 135.074219 254.859375 135.136719 254.523438 134.875 C 251.414062 132.410156 248.277344 130.035156 245.105469 127.742188 C 241.21875 124.933594 237.902344 122.824219 235.152344 121.410156 C 229.085938 118.289062 222.632812 116.160156 215.804688 115.019531 C 214.589844 114.820312 213.363281 114.746094 212.121094 114.804688 C 211.875 114.820312 211.84375 114.910156 212.023438 115.078125 C 215.238281 118.113281 218.597656 120.941406 222.109375 123.558594 C 226.757812 127.039062 230.15625 129.292969 232.296875 130.316406 C 235.945312 132.0625 240.097656 133.109375 244.757812 133.445312 C 245.667969 133.515625 246.457031 133.816406 247.121094 134.347656 L 252.976562 139.042969 C 254.144531 139.980469 253.988281 140.339844 252.5 140.125 C 246.054688 139.207031 240.605469 140.792969 236.140625 144.878906 C 236.121094 144.898438 236.105469 144.917969 236.09375 144.945312 C 236.042969 145.050781 236.085938 145.171875 236.191406 145.222656 C 244.664062 149.441406 253.535156 150.027344 262.796875 146.976562 C 263.207031 146.839844 263.652344 146.9375 263.949219 147.226562 L 271.453125 154.601562 C 272.085938 155.21875 271.96875 155.410156 271.117188 155.175781 C 270.335938 154.960938 269.585938 154.765625 268.863281 154.589844 C 268.089844 154.398438 267.324219 154.300781 266.566406 154.300781 C 262.265625 154.300781 257.828125 154.871094 253.257812 156.015625 C 252.992188 156.082031 252.96875 156.195312 253.183594 156.359375 C 261.269531 162.390625 270.191406 165.296875 279.941406 165.078125 C 280.136719 165.074219 280.320312 165.152344 280.449219 165.296875 C 282.972656 168.09375 285.167969 171.136719 287.03125 174.417969 C 287.128906 174.59375 287.082031 174.644531 286.890625 174.570312 C 280.667969 172.226562 274.226562 170.835938 267.5625 170.394531 C 267.195312 170.371094 267.121094 170.503906 267.34375 170.796875 C 268.746094 172.636719 270.289062 174.40625 271.976562 176.101562 C 277.242188 181.425781 284.226562 184.476562 292.929688 185.253906 C 293.15625 185.269531 293.359375 185.402344 293.46875 185.601562 C 295.359375 189.03125 296.992188 192.484375 298.363281 195.957031 C 298.4375 196.136719 298.382812 196.175781 298.210938 196.070312 C 294.851562 194.007812 291.273438 192.453125 287.472656 191.421875 C 285.167969 190.796875 282.898438 190.191406 280.664062 189.601562 C 280.113281 189.453125 279.980469 189.625 280.269531 190.117188 C 281.640625 192.421875 283.160156 194.609375 284.832031 196.679688 C 286.804688 199.117188 288.707031 200.953125 290.535156 202.191406 C 293.691406 204.320312 297.394531 205.644531 301.640625 206.179688 C 302.074219 206.230469 302.410156 206.539062 302.480469 206.9375 L 304.238281 217.339844 C 304.300781 217.703125 304.1875 217.761719 303.902344 217.515625 C 299.484375 213.707031 294.480469 210.953125 288.890625 209.265625 C 288.863281 209.257812 288.832031 209.253906 288.804688 209.261719 C 288.695312 209.277344 288.621094 209.375 288.636719 209.480469 C 289.785156 217.332031 293.921875 222.9375 301.054688 226.289062 C 302.289062 226.867188 303.660156 227.234375 305.171875 227.382812 C 305.34375 227.398438 305.472656 227.554688 305.460938 227.726562 L 304.761719 239.066406 C 304.71875 239.785156 304.488281 239.855469 304.070312 239.273438 C 301.023438 235.050781 297.1875 231.367188 292.558594 228.226562 C 292.515625 228.195312 292.464844 228.179688 292.417969 228.175781 C 292.253906 228.164062 292.113281 228.285156 292.101562 228.445312 C 291.921875 230.695312 291.898438 233.039062 292.027344 235.476562 C 292.140625 237.65625 292.632812 239.582031 293.496094 241.261719 C 295.597656 245.332031 298.632812 248.273438 302.609375 250.082031 C 303.019531 250.265625 303.238281 250.714844 303.132812 251.152344 C 302.179688 255.011719 300.984375 258.761719 299.542969 262.398438 C 299.3125 262.976562 299.128906 262.964844 298.992188 262.359375 C 298.191406 258.898438 296.871094 255.488281 295.027344 252.132812 C 293.851562 249.984375 292.640625 248.328125 291.390625 247.164062 C 291.367188 247.144531 291.339844 247.132812 291.3125 247.121094 C 291.210938 247.089844 291.097656 247.148438 291.0625 247.253906 C 289.996094 250.488281 289.382812 253.8125 289.21875 257.222656 C 288.949219 262.894531 290.757812 267.757812 294.652344 271.8125 C 294.875 272.042969 294.925781 272.378906 294.789062 272.644531 L 289.777344 281.929688 C 289.628906 282.210938 289.527344 282.191406 289.480469 281.875 C 288.59375 276.492188 286.851562 271.539062 284.257812 267.019531 C 283.917969 266.429688 283.613281 266.445312 283.34375 267.070312 C 281.765625 270.769531 280.796875 274.789062 280.425781 279.132812 C 280.089844 283.152344 280.929688 287.058594 282.957031 290.855469 C 283.359375 291.609375 283.308594 292.289062 282.796875 292.890625 L 275.625 301.339844 C 275.464844 301.523438 275.386719 301.492188 275.390625 301.242188 C 275.453125 296.046875 274.761719 290.8125 273.316406 285.539062 C 273.304688 285.5 273.285156 285.464844 273.253906 285.429688 C 273.152344 285.320312 272.988281 285.3125 272.882812 285.410156 C 271.84375 286.34375 271.039062 287.304688 270.460938 288.289062 C 268.589844 291.472656 267.15625 294.84375 266.160156 298.398438 C 265.230469 301.710938 265.167969 305.035156 265.976562 308.371094 C 266.023438 308.558594 265.96875 308.75 265.832031 308.878906 C 262.734375 311.753906 259.527344 314.332031 256.207031 316.609375 C 255.875 316.835938 255.777344 316.761719 255.914062 316.382812 C 256.726562 314.152344 257.175781 311.992188 257.257812 309.898438 C 257.371094 306.773438 257.242188 303.660156 256.863281 300.5625 C 256.796875 300.023438 256.558594 299.929688 256.140625 300.273438 C 250.464844 305.046875 246.871094 311.082031 245.359375 318.375 C 245.195312 319.164062 245.09375 320.175781 245.046875 321.410156 C 245.039062 321.699219 244.882812 321.953125 244.636719 322.085938 L 234.800781 327.503906 C 234.378906 327.738281 234.289062 327.644531 234.542969 327.230469 C 237.558594 322.289062 239.0625 316.933594 239.0625 311.15625 C 239.0625 311.132812 239.0625 311.109375 239.054688 311.085938 C 239.015625 310.957031 238.886719 310.886719 238.761719 310.925781 C 237.460938 311.292969 236.261719 311.886719 235.171875 312.707031 C 229.867188 316.683594 225.695312 321.765625 222.660156 327.957031 C 222.519531 328.242188 222.28125 328.460938 221.992188 328.578125 C 211.710938 332.671875 201.226562 335.3125 190.550781 336.496094 C 188.355469 336.742188 186.160156 336.714844 183.964844 336.417969 C 173.445312 334.980469 163.242188 332.382812 153.351562 328.625 C 152.691406 328.371094 152.191406 327.933594 151.859375 327.3125 C 149.472656 322.894531 146.539062 318.886719 143.046875 315.289062 C 141.207031 313.394531 139.035156 311.953125 136.519531 310.957031 C 136.429688 310.921875 136.332031 310.90625 136.234375 310.914062 C 135.898438 310.949219 135.648438 311.246094 135.679688 311.582031 C 136.203125 317.335938 137.792969 322.554688 140.453125 327.238281 C 140.679688 327.640625 140.605469 327.703125 140.238281 327.429688 C 137.453125 325.363281 134.320312 323.472656 130.839844 321.765625 C 130.65625 321.667969 130.535156 321.484375 130.527344 321.28125 C 130.484375 319.796875 130.25 318.367188 129.820312 316.984375 C 128.308594 312.15625 125.953125 307.789062 122.757812 303.875 C 121.554688 302.402344 120.195312 301.175781 118.683594 300.207031 C 118.625 300.167969 118.554688 300.140625 118.480469 300.136719 C 118.234375 300.117188 118.019531 300.300781 118 300.546875 C 117.765625 303.601562 117.738281 306.558594 117.921875 309.417969 C 118.070312 311.757812 118.597656 314.007812 119.511719 316.175781 C 119.773438 316.792969 119.644531 316.890625 119.125 316.480469 L 109.777344 309.007812 C 109.640625 308.902344 109.585938 308.710938 109.636719 308.523438 C 110.261719 306.289062 110.492188 304.496094 110.320312 303.148438 C 109.488281 296.675781 106.980469 290.863281 102.789062 285.710938 C 102.242188 285.039062 101.875 285.125 101.679688 285.964844 C 100.535156 290.960938 100.03125 296.089844 100.175781 301.359375 C 100.179688 301.636719 100.089844 301.671875 99.914062 301.46875 L 91.820312 292.421875 C 91.582031 292.144531 91.546875 291.734375 91.742188 291.390625 C 94.351562 286.835938 95.214844 282.109375 94.332031 277.21875 C 93.972656 275.214844 93.453125 273.324219 92.777344 271.546875 C 92.070312 269.6875 91.105469 267.964844 89.871094 266.371094 C 89.855469 266.347656 89.832031 266.332031 89.804688 266.316406 C 89.707031 266.269531 89.59375 266.304688 89.550781 266.402344 C 87.324219 270.972656 85.824219 276.15625 85.054688 281.941406 C 84.984375 282.464844 84.824219 282.496094 84.582031 282.039062 L 79.523438 272.652344 C 79.433594 272.484375 79.457031 272.28125 79.582031 272.128906 C 81.441406 269.800781 82.742188 268.03125 83.484375 266.816406 C 84.640625 264.925781 85.316406 262.640625 85.515625 259.953125 C 85.824219 255.695312 85.242188 251.507812 83.769531 247.386719 C 83.597656 246.910156 83.359375 246.875 83.050781 247.285156 C 79.605469 251.867188 77.109375 256.855469 75.566406 262.253906 C 75.445312 262.6875 75.304688 262.691406 75.152344 262.269531 C 73.734375 258.421875 72.578125 254.59375 71.691406 250.789062 C 71.597656 250.394531 71.785156 249.988281 72.152344 249.804688 C 76.433594 247.648438 79.566406 244.722656 81.539062 241.035156 C 82.316406 239.578125 82.761719 238.03125 82.882812 236.382812 C 83.066406 233.835938 83.125 231.140625 83.054688 228.296875 C 83.046875 227.980469 82.914062 227.914062 82.65625 228.101562 C 78.085938 231.402344 74.058594 235.34375 70.582031 239.929688 C 70.449219 240.105469 70.375 240.085938 70.363281 239.867188 L 69.628906 227.800781 C 69.613281 227.554688 69.785156 227.332031 70.039062 227.277344 C 79.605469 224.917969 85.144531 218.984375 86.65625 209.464844 C 86.660156 209.433594 86.65625 209.40625 86.648438 209.378906 C 86.617188 209.277344 86.511719 209.222656 86.410156 209.253906 C 80.941406 210.957031 76.015625 213.515625 71.632812 216.921875 C 71.230469 217.238281 71.058594 217.140625 71.121094 216.632812 C 71.511719 213.230469 72.140625 209.871094 73 206.550781 C 73.09375 206.179688 73.429688 205.914062 73.816406 205.90625 C 76.234375 205.859375 78.53125 205.265625 80.699219 204.125 C 86.84375 200.894531 91.523438 196.191406 94.746094 190.011719 C 94.890625 189.734375 94.808594 189.625 94.5 189.6875 C 88.453125 190.84375 82.601562 192.957031 76.945312 196.019531 C 76.480469 196.277344 76.335938 196.152344 76.515625 195.652344 C 77.699219 192.371094 79.203125 189.027344 81.019531 185.621094 C 81.128906 185.410156 81.339844 185.269531 81.578125 185.246094 C 90.027344 184.464844 96.800781 181.5 101.90625 176.355469 C 103.667969 174.578125 105.300781 172.6875 106.808594 170.683594 C 106.972656 170.457031 106.917969 170.355469 106.644531 170.382812 C 102.328125 170.773438 98.058594 171.457031 93.828125 172.433594 C 91.996094 172.859375 90.242188 173.503906 88.574219 174.371094 C 87.867188 174.734375 87.707031 174.570312 88.097656 173.875 C 89.773438 170.878906 91.820312 168.019531 94.234375 165.292969 C 94.359375 165.152344 94.546875 165.070312 94.746094 165.074219 C 104.304688 165.320312 112.816406 162.421875 120.28125 156.390625 C 120.757812 156.003906 120.699219 155.75 120.097656 155.628906 C 118.839844 155.375 117.503906 155.15625 116.082031 154.972656 C 116.019531 154.964844 114.84375 154.78125 112.554688 154.421875 C 109.351562 153.917969 106.167969 154.097656 103.003906 154.949219 C 102.808594 155 102.773438 154.953125 102.90625 154.808594 C 105.539062 151.855469 108.4375 149.199219 111.601562 146.832031 C 111.761719 146.71875 111.960938 146.683594 112.144531 146.75 C 120.601562 149.625 129.105469 149.09375 137.652344 145.164062 C 137.6875 145.148438 137.714844 145.128906 137.742188 145.105469 C 137.878906 144.980469 137.890625 144.765625 137.765625 144.628906 C 134.015625 140.613281 129.460938 138.984375 124.101562 139.734375 C 123.125 139.871094 122.152344 139.894531 121.191406 139.796875 C 120.988281 139.773438 120.96875 139.699219 121.132812 139.566406 C 123.757812 137.542969 126.453125 135.628906 129.226562 133.828125 C 130.023438 133.308594 130.894531 133 131.84375 132.910156 C 133.289062 132.761719 134.746094 132.648438 136.203125 132.558594 C 138.207031 132.441406 140.597656 131.609375 143.363281 130.066406 C 147.542969 127.738281 151.453125 125.019531 155.09375 121.90625 C 157.675781 119.695312 160.378906 117.402344 163.195312 115.027344 C 163.5 114.78125 163.453125 114.652344 163.0625 114.648438 C 161.164062 114.636719 159.554688 114.757812 158.234375 115.011719 C 148.054688 116.984375 138.8125 121.042969 130.5 127.191406 C 126.796875 129.933594 123.125 132.722656 119.480469 135.546875 C 119.324219 135.671875 119.285156 135.644531 119.363281 135.460938 C 121.5625 130.316406 122.902344 124.722656 123.394531 118.675781 C 123.429688 118.261719 123.269531 118.167969 122.921875 118.402344 C 116.511719 122.648438 111.902344 128.488281 109.097656 135.925781 C 108.449219 137.652344 108.28125 139.84375 108.601562 142.507812 C 108.625 142.707031 108.558594 142.902344 108.425781 143.035156 L 100.09375 151.269531 C 99.847656 151.511719 99.734375 151.460938 99.742188 151.113281 C 99.847656 145.605469 99.320312 140.601562 98.160156 136.105469 C 97.96875 135.367188 97.640625 135.300781 97.179688 135.910156 C 91.761719 143.050781 89.9375 151.34375 91.703125 160.796875 C 91.824219 161.449219 91.664062 162.027344 91.234375 162.53125 C 88.949219 165.15625 86.699219 168.144531 84.484375 171.496094 C 84.214844 171.902344 84.035156 171.863281 83.953125 171.382812 L 81.121094 155.542969 C 80.960938 154.648438 80.617188 154.574219 80.085938 155.324219 C 74.523438 163.167969 73.589844 171.859375 77.273438 181.398438 C 77.625 182.308594 77.597656 183.199219 77.191406 184.074219 L 72.980469 193.042969 C 72.816406 193.390625 72.675781 193.382812 72.546875 193.019531 C 70.6875 187.722656 68.167969 182.773438 64.984375 178.171875 C 64.863281 178.003906 64.769531 178.023438 64.695312 178.210938 C 63.585938 181.105469 62.921875 184.367188 62.703125 187.992188 C 62.324219 194.375 64.117188 199.753906 68.085938 204.132812 C 68.652344 204.757812 68.863281 205.503906 68.714844 206.375 L 67.113281 215.761719 C 66.992188 216.46875 66.746094 216.519531 66.371094 215.914062 C 63.304688 210.921875 59.890625 206.144531 56.125 201.59375 C 55.988281 201.433594 55.902344 201.453125 55.863281 201.652344 C 54.46875 208.386719 55.277344 214.824219 58.28125 220.964844 C 59.660156 223.773438 61.925781 225.78125 65.082031 226.988281 C 65.300781 227.070312 65.453125 227.28125 65.46875 227.527344 L 66.085938 240.035156 C 66.125 240.78125 65.921875 240.855469 65.488281 240.253906 C 61.664062 234.960938 57.109375 230.316406 51.820312 226.320312 C 51.507812 226.078125 51.355469 226.15625 51.367188 226.550781 C 51.507812 231.746094 52.671875 236.566406 54.859375 241.015625 C 56.289062 243.921875 58.171875 246.289062 60.503906 248.113281 C 61.359375 248.777344 62.304688 249.296875 63.332031 249.671875 C 64.355469 250.039062 65.398438 250.316406 66.46875 250.503906 C 66.863281 250.574219 67.1875 250.855469 67.304688 251.234375 L 70.671875 262.335938 C 70.828125 262.84375 70.683594 262.945312 70.246094 262.636719 C 66.4375 259.960938 62.609375 257.425781 58.761719 255.03125 C 56.929688 253.882812 55.394531 253.074219 54.152344 252.609375 C 53.957031 252.53125 53.878906 252.597656 53.914062 252.804688 C 55.421875 260.839844 59.464844 267.035156 66.042969 271.382812 C 67.53125 272.367188 68.964844 273.082031 70.34375 273.527344 C 71.902344 274.03125 73.5 274.304688 75.136719 274.351562 C 75.402344 274.363281 75.640625 274.511719 75.769531 274.738281 L 81.085938 284.324219 C 81.386719 284.867188 81.257812 285.007812 80.691406 284.738281 C 74.890625 282.007812 68.769531 279.59375 62.332031 277.5 C 62.082031 277.417969 62.011719 277.5 62.117188 277.738281 C 63.839844 281.664062 66.164062 285.042969 69.09375 287.878906 C 73.933594 292.5625 80 294.621094 87.285156 294.058594 C 87.554688 294.039062 87.816406 294.140625 87.984375 294.339844 L 96.664062 304.230469 C 96.792969 304.378906 96.835938 304.546875 96.773438 304.636719 C 96.714844 304.71875 96.59375 304.71875 96.40625 304.648438 C 92.761719 303.132812 88.980469 302.113281 85.070312 301.585938 C 82.273438 301.207031 79.476562 300.832031 76.679688 300.46875 C 76.476562 300.441406 76.429688 300.511719 76.542969 300.679688 C 78.398438 303.332031 80.765625 305.75 83.648438 307.933594 C 87.835938 311.101562 92.4375 312.96875 97.453125 313.539062 C 100.433594 313.871094 103.277344 313.496094 105.988281 312.417969 C 106.285156 312.296875 106.625 312.328125 106.890625 312.511719 C 110.347656 314.808594 113.648438 317.292969 116.804688 319.964844 C 117.59375 320.632812 117.492188 320.835938 116.492188 320.570312 C 114.871094 320.140625 113.230469 319.996094 111.566406 320.136719 C 107.449219 320.480469 103.109375 321.09375 98.542969 321.976562 C 98.261719 322.03125 98.230469 322.152344 98.453125 322.332031 C 101.050781 324.46875 103.816406 326.1875 106.738281 327.492188 C 109.972656 328.929688 113.085938 329.679688 116.082031 329.734375 C 120.550781 329.816406 124.726562 328.515625 128.597656 325.839844 C 128.757812 325.726562 128.960938 325.710938 129.132812 325.789062 C 132.675781 327.421875 136.074219 329.226562 139.332031 331.207031 C 140.152344 331.707031 140.085938 332 139.128906 332.089844 C 133.421875 332.621094 128.003906 334.132812 122.878906 336.628906 C 122.421875 336.855469 122.421875 337.074219 122.878906 337.296875 C 127.667969 339.59375 132.722656 340.785156 138.046875 340.867188 C 143.390625 340.945312 147.898438 339.34375 151.570312 336.058594 C 151.960938 335.710938 152.503906 335.59375 153.011719 335.742188 C 161.917969 338.386719 170.519531 340.480469 178.816406 342.019531 C 179.921875 342.230469 179.929688 342.449219 178.828125 342.691406 C 170.050781 344.621094 162.785156 349.199219 157.042969 356.417969 C 156.582031 356.996094 156.722656 357.242188 157.453125 357.144531 C 162.988281 356.460938 168.035156 355.050781 172.59375 352.914062 C 177.554688 350.578125 182.292969 347.789062 186.804688 344.53125 C 186.957031 344.421875 187.164062 344.421875 187.320312 344.53125 C 194.9375 349.984375 203.277344 353.921875 212.339844 356.339844 C 213.535156 356.660156 214.847656 356.847656 216.273438 356.90625 C 216.722656 356.921875 216.8125 356.75 216.542969 356.390625 C 213.101562 351.804688 208.753906 348.140625 203.488281 345.410156 C 201.25 344.25 198.882812 343.414062 196.382812 342.910156 C 194.976562 342.628906 194.980469 342.371094 196.402344 342.144531 C 205.273438 340.71875 214.042969 338.484375 222.710938 335.441406 C 222.882812 335.378906 223.082031 335.421875 223.21875 335.558594 C 226.914062 339.210938 231.296875 341.011719 236.359375 340.96875 C 242.1875 340.917969 247.550781 339.523438 252.449219 336.785156 C 252.988281 336.484375 252.972656 336.207031 252.40625 335.957031 C 246.910156 333.511719 241.230469 332.175781 235.363281 331.945312 C 234.71875 331.917969 234.691406 331.765625 235.273438 331.480469 L 246.738281 325.917969 C 247.023438 325.78125 247.355469 325.800781 247.609375 325.972656 C 250.875 328.171875 254.359375 329.382812 258.0625 329.613281 C 261.199219 329.808594 264.5 329.15625 267.96875 327.65625 C 271.023438 326.34375 273.957031 324.566406 276.777344 322.335938 C 277.042969 322.125 277.011719 321.976562 276.679688 321.886719 C 270.457031 320.261719 264.417969 319.71875 258.5625 320.265625 C 258.34375 320.285156 258.324219 320.234375 258.496094 320.105469 L 268.722656 312.503906 C 268.871094 312.394531 269.074219 312.363281 269.273438 312.410156 C 277.316406 314.484375 284.679688 313.042969 291.367188 308.082031 C 294.214844 305.96875 296.546875 303.542969 298.363281 300.796875 C 298.472656 300.625 298.425781 300.550781 298.222656 300.570312 C 295.25 300.882812 292.285156 301.242188 289.328125 301.652344 C 285.851562 302.128906 282.480469 303.035156 279.226562 304.367188 C 278.59375 304.628906 278.484375 304.484375 278.898438 303.9375 C 281.273438 300.789062 284.054688 297.570312 287.238281 294.277344 C 287.464844 294.042969 287.78125 293.921875 288.101562 293.941406 C 293.824219 294.292969 298.816406 292.695312 303.078125 289.144531 C 306.742188 286.097656 309.578125 282.398438 311.585938 278.058594 C 311.769531 277.664062 311.660156 277.539062 311.253906 277.691406 L 294.035156 284.179688 C 293.652344 284.328125 293.5625 284.230469 293.765625 283.886719 L 299.445312 274.410156 C 299.582031 274.183594 299.839844 274.046875 300.128906 274.046875 C 302.207031 274.054688 304.148438 273.613281 305.953125 272.714844 C 313.9375 268.722656 318.890625 262.195312 320.808594 253.144531 C 320.914062 252.648438 320.746094 252.523438 320.304688 252.777344 C 315.003906 255.84375 309.886719 259.070312 304.949219 262.460938 C 304.285156 262.910156 304.070312 262.75 304.304688 261.972656 Z M 307.570312 251.3125 " fill-opacity="1" fill-rule="nonzero"/></g><path fill="#bc813d" d="M 191.011719 161.605469 C 191.480469 161.800781 191.921875 162.039062 192.34375 162.320312 C 192.765625 162.601562 193.15625 162.921875 193.511719 163.28125 C 193.871094 163.636719 194.191406 164.027344 194.472656 164.449219 C 194.753906 164.871094 194.992188 165.3125 195.1875 165.78125 C 195.378906 166.25 195.527344 166.730469 195.625 167.226562 C 195.722656 167.726562 195.773438 168.226562 195.773438 168.734375 C 195.773438 169.238281 195.722656 169.742188 195.625 170.238281 C 195.527344 170.734375 195.378906 171.21875 195.1875 171.683594 C 194.992188 172.152344 194.753906 172.597656 194.472656 173.019531 C 194.191406 173.4375 193.871094 173.828125 193.511719 174.1875 C 193.15625 174.546875 192.765625 174.863281 192.34375 175.144531 C 191.921875 175.425781 191.480469 175.664062 191.011719 175.859375 C 190.542969 176.054688 190.0625 176.199219 189.566406 176.296875 C 189.066406 176.398438 188.566406 176.445312 188.058594 176.445312 C 187.554688 176.445312 187.050781 176.398438 186.554688 176.296875 C 186.058594 176.199219 185.574219 176.054688 185.109375 175.859375 C 184.640625 175.664062 184.195312 175.425781 183.773438 175.144531 C 183.355469 174.863281 182.964844 174.546875 182.605469 174.1875 C 182.246094 173.828125 181.929688 173.4375 181.648438 173.019531 C 181.367188 172.597656 181.128906 172.152344 180.933594 171.683594 C 180.738281 171.21875 180.59375 170.734375 180.496094 170.238281 C 180.394531 169.742188 180.347656 169.238281 180.347656 168.734375 C 180.347656 168.226562 180.394531 167.726562 180.496094 167.230469 C 180.59375 166.730469 180.738281 166.25 180.933594 165.78125 C 181.128906 165.3125 181.367188 164.871094 181.648438 164.449219 C 181.929688 164.027344 182.246094 163.636719 182.605469 163.28125 C 182.964844 162.921875 183.355469 162.601562 183.773438 162.320312 C 184.195312 162.039062 184.640625 161.800781 185.109375 161.605469 C 185.574219 161.414062 186.058594 161.265625 186.554688 161.167969 C 187.050781 161.070312 187.554688 161.019531 188.058594 161.019531 C 188.566406 161.019531 189.066406 161.070312 189.566406 161.167969 C 190.0625 161.265625 190.542969 161.414062 191.011719 161.605469 Z M 191.011719 161.605469 " fill-opacity="1" fill-rule="nonzero"/><path fill="#bc813d" d="M 269.195312 258.082031 C 269.015625 257.992188 268.886719 257.832031 268.835938 257.636719 C 267.496094 252.460938 266.003906 247.371094 264.359375 242.363281 C 259.929688 228.898438 255.398438 215.460938 250.773438 202.054688 C 250.394531 200.949219 250.0625 200.058594 249.785156 199.390625 C 251.207031 198.355469 252.136719 196.683594 252.136719 194.789062 C 252.136719 192.757812 251.070312 190.976562 249.464844 189.972656 C 249.738281 189.90625 249.992188 189.832031 250.238281 189.757812 C 252.902344 189.28125 254.933594 186.957031 254.933594 184.152344 C 254.933594 182.125 253.871094 180.351562 252.273438 179.339844 C 251.515625 178.796875 250.675781 178.507812 249.765625 178.464844 C 250.460938 179.273438 250.921875 180.289062 251.03125 181.402344 C 251.367188 184.796875 248.539062 187.625 245.144531 187.289062 C 244.890625 187.265625 244.644531 187.214844 244.402344 187.15625 C 244.414062 187.175781 244.421875 187.195312 244.4375 187.210938 C 228.171875 184.386719 211.949219 181.71875 195.777344 179.214844 C 190.558594 178.410156 185.449219 178.375 180.449219 179.125 C 165.308594 181.378906 149.191406 184.105469 132.113281 187.304688 C 132.125 187.292969 132.128906 187.28125 132.136719 187.269531 C 131.734375 187.320312 131.316406 187.328125 130.890625 187.285156 C 128.378906 187.039062 126.34375 185.007812 126.097656 182.496094 C 125.941406 180.949219 126.449219 179.523438 127.363281 178.457031 C 126.960938 178.457031 126.566406 178.5 126.1875 178.582031 C 126 178.613281 125.8125 178.65625 125.621094 178.707031 C 124.460938 179.023438 123.542969 179.675781 122.871094 180.667969 C 122.125 181.628906 121.675781 182.839844 121.675781 184.152344 C 121.675781 184.207031 121.683594 184.261719 121.683594 184.316406 C 121.625 185.582031 121.980469 186.699219 122.753906 187.660156 C 123.542969 188.636719 124.558594 189.371094 125.789062 189.863281 C 124.09375 190.851562 122.949219 192.683594 122.949219 194.789062 C 122.949219 196.902344 124.105469 198.742188 125.816406 199.726562 C 124.347656 204.519531 122.753906 209.289062 121.027344 214.035156 C 117.535156 223.632812 114.15625 233.265625 110.886719 242.941406 C 108.695312 249.425781 107.1875 254.480469 106.359375 258.105469 C 106.320312 258.277344 106.167969 258.40625 105.988281 258.421875 C 104.589844 258.535156 103.785156 259.257812 103.574219 260.589844 C 103.203125 262.910156 104.015625 264.5 106.003906 265.359375 C 106.375 265.519531 106.910156 265.613281 107.625 265.636719 C 108.183594 265.660156 108.734375 265.730469 109.285156 265.84375 C 109.472656 265.886719 109.652344 265.984375 109.796875 266.132812 C 110.746094 267.128906 111.6875 268.136719 112.613281 269.160156 C 114.949219 271.738281 117.675781 273.53125 120.796875 274.539062 C 123.59375 275.441406 126.734375 275.796875 130.234375 275.609375 C 137.015625 275.238281 142.503906 272.140625 146.691406 266.320312 C 146.808594 266.15625 146.992188 266.058594 147.175781 266.050781 C 147.664062 266.027344 148.152344 266.027344 148.640625 266.050781 C 149.355469 266.078125 149.9375 266.027344 150.375 265.902344 C 153.207031 265.089844 154.289062 263.179688 153.613281 260.175781 C 153.507812 259.683594 153.335938 259.304688 153.101562 259.039062 C 152.777344 258.671875 152.386719 258.46875 151.9375 258.429688 C 151.585938 258.398438 151.289062 258.148438 151.195312 257.804688 C 149.800781 252.382812 148.308594 247.203125 146.710938 242.257812 C 142.164062 228.160156 137.359375 214.144531 132.304688 200.21875 C 132.222656 199.984375 132.09375 199.726562 131.929688 199.441406 C 133.390625 198.410156 134.34375 196.710938 134.34375 194.789062 C 134.34375 192.773438 133.292969 191.003906 131.710938 189.992188 C 135.535156 189.488281 140.753906 188.722656 147.371094 187.699219 C 159.210938 185.871094 170.898438 184.015625 182.4375 182.136719 C 182.453125 182.132812 182.472656 182.132812 182.488281 182.132812 C 182.78125 182.113281 183.035156 182.335938 183.050781 182.632812 C 184.105469 205.496094 184.582031 228.367188 184.472656 251.246094 C 184.449219 255.757812 184.371094 259.839844 184.234375 263.488281 C 183.925781 271.449219 183.480469 277.933594 182.898438 282.941406 C 182.328125 287.863281 181.5625 292.355469 180.601562 296.417969 C 179.8125 299.757812 178.691406 303.058594 177.238281 306.320312 C 175.792969 309.566406 174.234375 312.210938 172.558594 314.246094 C 170.585938 316.644531 168.25 318.695312 165.558594 320.402344 C 162.761719 322.179688 159.925781 323.894531 157.050781 325.554688 C 156.019531 326.152344 156.089844 326.550781 157.265625 326.753906 C 167.25 328.464844 176.964844 328.3125 186.40625 326.289062 C 187.308594 326.097656 188.222656 326.085938 189.136719 326.25 C 198.726562 328.019531 208.03125 328.28125 217.054688 327.039062 C 218.539062 326.835938 218.683594 326.277344 217.496094 325.367188 C 216.488281 324.597656 215.257812 323.832031 213.804688 323.078125 C 209.113281 320.636719 205.285156 317.367188 202.308594 313.269531 C 200.335938 310.558594 198.578125 306.898438 197.03125 302.28125 C 195.269531 297.011719 194.082031 291.792969 193.46875 286.613281 C 191.464844 269.609375 190.613281 251.792969 190.921875 233.167969 C 191.203125 216.269531 191.691406 199.378906 192.386719 182.488281 C 192.386719 182.476562 192.390625 182.464844 192.390625 182.453125 C 192.414062 182.304688 192.550781 182.199219 192.699219 182.222656 L 243.328125 190.011719 C 241.773438 191.03125 240.746094 192.78125 240.746094 194.777344 C 240.746094 196.8125 241.816406 198.59375 243.425781 199.601562 C 243.398438 199.648438 243.371094 199.699219 243.355469 199.746094 C 240.039062 209.34375 236.683594 218.925781 233.285156 228.5 C 230.234375 237.085938 227.402344 245.746094 224.785156 254.476562 C 224.484375 255.472656 224.242188 256.589844 224.046875 257.832031 C 224.015625 258.027344 223.886719 258.1875 223.703125 258.257812 C 221.808594 258.964844 220.917969 260.140625 221.027344 261.777344 C 221.113281 263.066406 221.628906 264.113281 222.578125 264.925781 C 223.5625 265.785156 224.828125 266.074219 226.367188 265.789062 C 226.964844 265.679688 227.574219 265.890625 227.976562 266.347656 C 229.09375 267.613281 230.21875 268.796875 231.363281 269.902344 C 232.707031 271.199219 234 272.191406 235.25 272.871094 C 238.335938 274.5625 241.863281 275.46875 245.839844 275.585938 C 254.035156 275.828125 260.355469 272.796875 264.804688 266.503906 C 264.914062 266.34375 265.089844 266.25 265.28125 266.25 C 266.839844 266.265625 268.234375 265.90625 269.464844 265.171875 C 270.792969 264.375 271.550781 263.3125 271.730469 261.984375 C 271.949219 260.339844 271.105469 259.039062 269.195312 258.082031 Z M 152.886719 261.394531 C 152.890625 261.34375 152.894531 261.296875 152.898438 261.25 C 152.894531 261.300781 152.890625 261.347656 152.886719 261.394531 C 152.882812 261.425781 152.878906 261.449219 152.875 261.480469 C 152.878906 261.453125 152.882812 261.425781 152.886719 261.394531 Z M 152.769531 260.660156 C 152.734375 260.617188 152.699219 260.59375 152.652344 260.585938 C 152.695312 260.589844 152.734375 260.617188 152.769531 260.660156 Z M 152.472656 262.128906 C 152.398438 262.121094 152.339844 262.058594 152.296875 261.949219 C 152.339844 262.058594 152.402344 262.121094 152.472656 262.128906 Z M 127.265625 261.007812 C 127.265625 261.011719 127.265625 261.011719 127.265625 261.011719 C 127.265625 261.179688 127.132812 261.3125 126.972656 261.3125 L 111.8125 261.34375 C 111.414062 261.351562 111.066406 261.054688 111.003906 260.652344 C 110.824219 259.488281 110.367188 258.707031 109.636719 258.308594 C 109.585938 258.277344 109.386719 258.246094 109.046875 258.210938 L 107.851562 258.085938 C 107.835938 258.085938 107.824219 258.082031 107.8125 258.078125 C 107.667969 258.039062 107.589844 257.863281 107.636719 257.691406 C 110.265625 247.984375 113.320312 238.414062 116.792969 228.980469 C 120.066406 220.09375 123.222656 211.167969 126.253906 202.203125 C 126.484375 201.527344 126.796875 200.886719 127.195312 200.289062 C 127.371094 200.335938 127.546875 200.371094 127.726562 200.402344 C 127.726562 200.417969 127.726562 200.429688 127.726562 200.449219 C 127.207031 220.578125 127.054688 240.769531 127.265625 261.007812 Z M 150.003906 257.574219 C 150.003906 257.578125 150.007812 257.578125 150.007812 257.582031 C 150.046875 257.742188 149.949219 257.90625 149.789062 257.949219 C 149.246094 258.082031 148.699219 258.191406 148.152344 258.273438 C 146.859375 258.46875 146.1875 259.242188 146.144531 260.59375 C 146.128906 261.019531 145.78125 261.355469 145.359375 261.355469 L 128.570312 261.316406 C 128.5625 261.316406 128.554688 261.316406 128.542969 261.316406 C 128.386719 261.304688 128.273438 261.167969 128.285156 261.011719 C 128.316406 260.644531 128.367188 260.28125 128.425781 259.917969 C 128.496094 259.503906 128.53125 259.136719 128.53125 258.808594 C 128.613281 241.636719 128.777344 224.46875 129.015625 207.300781 C 129.050781 205.015625 129.132812 202.734375 129.261719 200.449219 C 129.78125 200.394531 130.273438 200.269531 130.742188 200.082031 C 130.847656 200.214844 130.941406 200.363281 131 200.527344 C 138.222656 219.417969 144.558594 238.433594 150.003906 257.574219 Z M 246.433594 205.460938 C 246.273438 224.003906 246.238281 242.546875 246.328125 261.089844 C 246.328125 261.257812 246.191406 261.390625 246.023438 261.390625 L 229.324219 261.351562 C 228.996094 261.351562 228.722656 261.09375 228.714844 260.765625 C 228.683594 259.777344 228.238281 258.96875 227.367188 258.34375 C 227.273438 258.277344 227.085938 258.222656 226.808594 258.191406 L 225.636719 258.039062 C 225.632812 258.039062 225.632812 258.039062 225.628906 258.039062 C 225.472656 258.011719 225.371094 257.832031 225.398438 257.640625 C 225.851562 254.929688 226.589844 251.980469 227.609375 248.796875 C 233.046875 231.835938 238.691406 215.792969 244.550781 200.664062 C 244.617188 200.496094 244.683594 200.355469 244.75 200.230469 C 245.199219 200.367188 245.671875 200.449219 246.164062 200.472656 C 246.363281 201.039062 246.453125 202.703125 246.433594 205.460938 Z M 265.707031 261.007812 C 265.714844 260.875 265.742188 260.75 265.789062 260.636719 C 265.742188 260.75 265.714844 260.875 265.707031 261.007812 C 265.6875 261.304688 265.769531 261.574219 265.910156 261.738281 C 265.765625 261.574219 265.683594 261.304688 265.707031 261.007812 Z M 266.214844 261.910156 C 266.230469 261.910156 266.242188 261.90625 266.257812 261.90625 C 266.242188 261.90625 266.230469 261.910156 266.214844 261.910156 Z M 266.414062 261.867188 C 266.605469 261.777344 266.757812 261.546875 266.816406 261.257812 C 266.757812 261.546875 266.605469 261.777344 266.414062 261.867188 Z M 266.332031 260.183594 C 266.480469 260.195312 266.605469 260.289062 266.699219 260.433594 C 266.605469 260.289062 266.480469 260.195312 266.332031 260.183594 Z M 267.273438 257.953125 C 265.066406 258.113281 263.882812 259.074219 263.726562 260.832031 C 263.699219 261.152344 263.429688 261.394531 263.109375 261.394531 L 247.9375 261.390625 C 247.769531 261.390625 247.636719 261.25 247.636719 261.082031 L 247.824219 200.304688 C 248.101562 200.238281 248.371094 200.152344 248.628906 200.046875 C 248.664062 200.109375 248.695312 200.179688 248.726562 200.261719 C 255.699219 219.140625 262.019531 238.171875 267.683594 257.359375 C 267.695312 257.390625 267.699219 257.425781 267.703125 257.460938 C 267.722656 257.710938 267.527344 257.929688 267.273438 257.953125 Z M 267.273438 257.953125 " fill-opacity="1" fill-rule="nonzero"/><g clip-path="url(#001982e6f6)"><path fill="#bc813d" d="M 112.195312 17.902344 L 120.96875 35.683594 L 140.59375 38.539062 L 126.390625 52.390625 L 129.753906 71.933594 L 112.195312 62.707031 L 94.628906 71.933594 L 97.980469 52.390625 L 83.789062 38.539062 L 103.414062 35.683594 Z M 112.195312 17.902344 " fill-opacity="1" fill-rule="nonzero"/><path fill="#bc813d" d="M 112.058594 17.730469 L 120.84375 35.515625 L 140.46875 38.367188 L 126.265625 52.21875 L 129.617188 71.765625 L 112.058594 62.535156 L 94.503906 71.765625 L 97.855469 52.21875 L 83.652344 38.367188 L 103.277344 35.515625 Z M 112.058594 17.730469 " fill-opacity="1" fill-rule="nonzero"/><path fill="#bc813d" d="M 112.058594 17.730469 L 120.84375 35.515625 L 140.46875 38.367188 L 126.265625 52.21875 L 129.617188 71.765625 L 112.058594 62.535156 L 94.503906 71.765625 L 97.855469 52.21875 L 83.652344 38.367188 L 103.277344 35.515625 Z M 112.058594 17.730469 " fill-opacity="1" fill-rule="nonzero"/><path fill="#bc813d" d="M 112.058594 17.730469 L 120.84375 35.515625 L 140.46875 38.367188 L 126.265625 52.21875 L 129.617188 71.765625 L 112.058594 62.535156 L 94.503906 71.765625 L 97.855469 52.21875 L 83.652344 38.367188 L 103.277344 35.515625 Z M 112.058594 17.730469 " fill-opacity="1" fill-rule="nonzero"/></g><g clip-path="url(#af1f8fa716)"><path fill="#bc813d" d="M 187.203125 17.902344 L 195.976562 35.683594 L 215.601562 38.539062 L 201.398438 52.390625 L 204.761719 71.933594 L 187.203125 62.707031 L 169.636719 71.933594 L 172.988281 52.390625 L 158.796875 38.539062 L 178.421875 35.683594 Z M 187.203125 17.902344 " fill-opacity="1" fill-rule="nonzero"/><path fill="#bc813d" d="M 187.066406 17.730469 L 195.851562 35.515625 L 215.476562 38.367188 L 201.273438 52.21875 L 204.625 71.765625 L 187.066406 62.535156 L 169.511719 71.765625 L 172.863281 52.21875 L 158.660156 38.367188 L 178.285156 35.515625 Z M 187.066406 17.730469 " fill-opacity="1" fill-rule="nonzero"/><path fill="#bc813d" d="M 187.066406 17.730469 L 195.851562 35.515625 L 215.476562 38.367188 L 201.273438 52.21875 L 204.625 71.765625 L 187.066406 62.535156 L 169.511719 71.765625 L 172.863281 52.21875 L 158.660156 38.367188 L 178.285156 35.515625 Z M 187.066406 17.730469 " fill-opacity="1" fill-rule="nonzero"/><path fill="#bc813d" d="M 187.066406 17.730469 L 195.851562 35.515625 L 215.476562 38.367188 L 201.273438 52.21875 L 204.625 71.765625 L 187.066406 62.535156 L 169.511719 71.765625 L 172.863281 52.21875 L 158.660156 38.367188 L 178.285156 35.515625 Z M 187.066406 17.730469 " fill-opacity="1" fill-rule="nonzero"/></g><g clip-path="url(#2b1f90999d)"><path fill="#bc813d" d="M 262.210938 17.902344 L 270.984375 35.683594 L 290.609375 38.539062 L 276.40625 52.390625 L 279.769531 71.933594 L 262.210938 62.707031 L 244.644531 71.933594 L 247.996094 52.390625 L 233.804688 38.539062 L 253.429688 35.683594 Z M 262.210938 17.902344 " fill-opacity="1" fill-rule="nonzero"/><path fill="#bc813d" d="M 262.074219 17.730469 L 270.859375 35.515625 L 290.484375 38.367188 L 276.28125 52.21875 L 279.632812 71.765625 L 262.074219 62.535156 L 244.519531 71.765625 L 247.871094 52.21875 L 233.667969 38.367188 L 253.292969 35.515625 Z M 262.074219 17.730469 " fill-opacity="1" fill-rule="nonzero"/><path fill="#bc813d" d="M 262.074219 17.730469 L 270.859375 35.515625 L 290.484375 38.367188 L 276.28125 52.21875 L 279.632812 71.765625 L 262.074219 62.535156 L 244.519531 71.765625 L 247.871094 52.21875 L 233.667969 38.367188 L 253.292969 35.515625 Z M 262.074219 17.730469 " fill-opacity="1" fill-rule="nonzero"/><path fill="#bc813d" d="M 262.074219 17.730469 L 270.859375 35.515625 L 290.484375 38.367188 L 276.28125 52.21875 L 279.632812 71.765625 L 262.074219 62.535156 L 244.519531 71.765625 L 247.871094 52.21875 L 233.667969 38.367188 L 253.292969 35.515625 Z M 262.074219 17.730469 " fill-opacity="1" fill-rule="nonzero"/></g><g clip-path="url(#a741d8ca0b)"><path fill="#bc813d" d="M 337.21875 17.902344 L 345.992188 35.683594 L 365.617188 38.539062 L 351.414062 52.390625 L 354.777344 71.933594 L 337.21875 62.707031 L 319.652344 71.933594 L 323.003906 52.390625 L 308.8125 38.539062 L 328.4375 35.683594 Z M 337.21875 17.902344 " fill-opacity="1" fill-rule="nonzero"/><path fill="#bc813d" d="M 337.082031 17.730469 L 345.867188 35.515625 L 365.492188 38.367188 L 351.289062 52.21875 L 354.640625 71.765625 L 337.082031 62.535156 L 319.527344 71.765625 L 322.878906 52.21875 L 308.675781 38.367188 L 328.300781 35.515625 Z M 337.082031 17.730469 " fill-opacity="1" fill-rule="nonzero"/><path fill="#bc813d" d="M 337.082031 17.730469 L 345.867188 35.515625 L 365.492188 38.367188 L 351.289062 52.21875 L 354.640625 71.765625 L 337.082031 62.535156 L 319.527344 71.765625 L 322.878906 52.21875 L 308.675781 38.367188 L 328.300781 35.515625 Z M 337.082031 17.730469 " fill-opacity="1" fill-rule="nonzero"/><path fill="#bc813d" d="M 337.082031 17.730469 L 345.867188 35.515625 L 365.492188 38.367188 L 351.289062 52.21875 L 354.640625 71.765625 L 337.082031 62.535156 L 319.527344 71.765625 L 322.878906 52.21875 L 308.675781 38.367188 L 328.300781 35.515625 Z M 337.082031 17.730469 " fill-opacity="1" fill-rule="nonzero"/></g></svg>