<svg xmlns="http://www.w3.org/2000/svg" xmlns:xlink="http://www.w3.org/1999/xlink" width="500" zoomAndPan="magnify" viewBox="0 0 375 374.999991" height="500" preserveAspectRatio="xMidYMid meet" version="1.0"><defs><clipPath id="2914f50b0a"><path d="M 13.257812 25.285156 L 68.757812 25.285156 L 68.757812 78.535156 L 13.257812 78.535156 Z M 13.257812 25.285156 " clip-rule="nonzero"/></clipPath><clipPath id="1dc22af33b"><path d="M 74.738281 98.144531 L 300.261719 98.144531 L 300.261719 349.367188 L 74.738281 349.367188 Z M 74.738281 98.144531 " clip-rule="nonzero"/></clipPath><clipPath id="c0c3a4c954"><path d="M 86.308594 25.285156 L 141.808594 25.285156 L 141.808594 78.535156 L 86.308594 78.535156 Z M 86.308594 25.285156 " clip-rule="nonzero"/></clipPath><clipPath id="2b31324cd8"><path d="M 159.582031 25.285156 L 215.082031 25.285156 L 215.082031 78.535156 L 159.582031 78.535156 Z M 159.582031 25.285156 " clip-rule="nonzero"/></clipPath><clipPath id="6d3faea1a1"><path d="M 232.851562 25.285156 L 288.351562 25.285156 L 288.351562 78.535156 L 232.851562 78.535156 Z M 232.851562 25.285156 " clip-rule="nonzero"/></clipPath><clipPath id="3503fc3b77"><path d="M 306.121094 25.285156 L 361.621094 25.285156 L 361.621094 78.535156 L 306.121094 78.535156 Z M 306.121094 25.285156 " clip-rule="nonzero"/></clipPath></defs><g clip-path="url(#2914f50b0a)"><path fill="#9bc9a8" d="M 41.136719 25.46875 L 49.707031 42.839844 L 68.875 45.625 L 55 59.15625 L 58.285156 78.246094 L 41.136719 69.234375 L 23.976562 78.246094 L 27.253906 59.15625 L 13.390625 45.625 L 32.558594 42.839844 Z M 41.136719 25.46875 " fill-opacity="1" fill-rule="nonzero"/><path fill="#9bc9a8" d="M 41.003906 25.304688 L 49.582031 42.675781 L 68.75 45.460938 L 54.878906 58.988281 L 58.152344 78.078125 L 41.003906 69.066406 L 23.855469 78.078125 L 27.128906 58.988281 L 13.257812 45.460938 L 32.425781 42.675781 Z M 41.003906 25.304688 " fill-opacity="1" fill-rule="nonzero"/><path fill="#9bc9a8" d="M 41.003906 25.304688 L 49.582031 42.675781 L 68.75 45.460938 L 54.878906 58.988281 L 58.152344 78.078125 L 41.003906 69.066406 L 23.855469 78.078125 L 27.128906 58.988281 L 13.257812 45.460938 L 32.425781 42.675781 Z M 41.003906 25.304688 " fill-opacity="1" fill-rule="nonzero"/><path fill="#9bc9a8" d="M 41.003906 25.304688 L 49.582031 42.675781 L 68.75 45.460938 L 54.878906 58.988281 L 58.152344 78.078125 L 41.003906 69.066406 L 23.855469 78.078125 L 27.128906 58.988281 L 13.257812 45.460938 L 32.425781 42.675781 Z M 41.003906 25.304688 " fill-opacity="1" fill-rule="nonzero"/></g><path fill="#ffffff" d="M 298.03125 316.875 L 298.03125 328.050781 C 298.03125 338.765625 289.316406 347.476562 278.605469 347.476562 L 76.964844 347.476562 L 76.964844 336.050781 L 278.605469 336.050781 C 283.015625 336.050781 286.601562 332.460938 286.601562 328.050781 L 286.601562 316.875 C 286.601562 312.464844 283.015625 308.875 278.605469 308.875 L 257.613281 308.875 L 257.613281 317.28125 L 244.371094 308.839844 L 231.128906 317.28125 L 231.128906 308.875 L 76.964844 308.875 L 76.964844 297.449219 L 103.960938 297.449219 C 93.25 297.449219 84.53125 288.734375 84.53125 278.019531 L 84.53125 265.117188 C 84.53125 254.40625 93.25 245.6875 103.960938 245.6875 L 290.460938 245.6875 L 290.460938 257.117188 L 103.960938 257.117188 C 99.550781 257.117188 95.964844 260.703125 95.964844 265.117188 L 95.964844 278.019531 C 95.964844 282.429688 99.550781 286.019531 103.960938 286.019531 L 231.128906 286.019531 L 231.128906 271.566406 L 257.613281 271.566406 L 257.613281 286.019531 L 290.460938 286.019531 L 290.460938 297.449219 L 278.605469 297.449219 C 289.316406 297.449219 298.03125 306.164062 298.03125 316.875 " fill-opacity="1" fill-rule="nonzero"/><path fill="#bc813d" d="M 286.601562 316.875 L 286.601562 328.050781 C 286.601562 332.460938 283.015625 336.050781 278.605469 336.050781 L 84.105469 336.050781 C 90.707031 320.417969 84.105469 308.875 84.105469 308.875 L 231.128906 308.875 L 231.128906 317.28125 L 244.316406 308.875 L 244.425781 308.875 L 257.613281 317.28125 L 257.613281 308.875 L 278.605469 308.875 C 283.015625 308.875 286.601562 312.464844 286.601562 316.875 " fill-opacity="1" fill-rule="nonzero"/><path fill="#9bc9a8" d="M 283.328125 286.019531 L 257.613281 286.019531 L 257.613281 271.570312 L 231.128906 271.570312 L 231.128906 286.019531 L 103.960938 286.019531 C 99.550781 286.019531 95.964844 282.429688 95.964844 278.019531 L 95.964844 265.117188 C 95.964844 260.703125 99.550781 257.117188 103.960938 257.117188 L 283.328125 257.117188 C 283.328125 257.117188 276.71875 270.386719 283.328125 286.019531 " fill-opacity="1" fill-rule="nonzero"/><g clip-path="url(#1dc22af33b)"><path fill="#ffffff" d="M 295.804688 316.875 C 295.804688 307.390625 288.089844 299.675781 278.605469 299.675781 L 259.839844 299.675781 L 259.839844 306.648438 L 278.605469 306.648438 C 284.242188 306.648438 288.828125 311.234375 288.828125 316.875 L 288.828125 328.050781 C 288.828125 333.691406 284.242188 338.277344 278.605469 338.277344 L 79.195312 338.277344 L 79.195312 345.25 L 278.605469 345.25 C 288.089844 345.25 295.804688 337.535156 295.804688 328.050781 Z M 87.324219 333.824219 L 278.605469 333.824219 C 281.785156 333.824219 284.375 331.234375 284.375 328.050781 L 284.375 316.875 C 284.375 313.691406 281.785156 311.101562 278.605469 311.101562 L 259.839844 311.101562 L 259.839844 321.34375 L 244.371094 311.480469 L 228.902344 321.34375 L 228.902344 311.101562 L 87.480469 311.101562 C 88.992188 315.4375 90.703125 323.660156 87.324219 333.824219 Z M 79.195312 306.648438 L 228.902344 306.648438 L 228.902344 299.675781 L 79.195312 299.675781 Z M 103.960938 295.21875 L 228.902344 295.21875 L 228.902344 288.246094 L 103.960938 288.246094 C 98.324219 288.246094 93.734375 283.660156 93.734375 278.019531 L 93.734375 265.117188 C 93.734375 259.480469 98.324219 254.886719 103.960938 254.886719 L 288.234375 254.886719 L 288.234375 247.917969 L 103.960938 247.917969 C 94.480469 247.917969 86.761719 255.632812 86.761719 265.117188 L 86.761719 278.019531 C 86.761719 287.503906 94.480469 295.21875 103.960938 295.21875 Z M 280.070312 259.34375 L 103.960938 259.34375 C 100.78125 259.34375 98.191406 261.933594 98.191406 265.117188 L 98.191406 278.019531 C 98.191406 281.199219 100.78125 283.789062 103.960938 283.789062 L 228.902344 283.789062 L 228.902344 273.792969 C 224.769531 273.792969 220.640625 273.792969 216.511719 273.792969 C 213.644531 273.792969 213.648438 269.339844 216.511719 269.339844 C 220.640625 269.339844 224.769531 269.339844 228.902344 269.339844 L 259.839844 269.339844 C 263.949219 269.339844 268.0625 269.339844 272.175781 269.339844 C 275.046875 269.339844 275.039062 273.792969 272.175781 273.792969 C 268.0625 273.792969 263.949219 273.792969 259.839844 273.792969 L 259.839844 283.789062 L 280.109375 283.789062 C 276.617188 273.175781 278.546875 263.992188 280.070312 259.34375 Z M 233.355469 313.21875 L 244.371094 306.199219 L 255.386719 313.21875 L 255.386719 273.792969 C 248.042969 273.792969 240.695312 273.792969 233.355469 273.792969 Z M 286.683594 288.246094 L 259.839844 288.246094 L 259.839844 295.21875 L 288.234375 295.21875 L 288.234375 288.246094 Z M 134.128906 147.101562 L 134.128906 182.152344 L 149.886719 182.152344 Z M 129.675781 146.953125 L 113.847656 182.152344 L 129.675781 182.152344 Z M 225.878906 182.152344 L 241.636719 182.152344 L 241.636719 147.101562 Z M 246.09375 182.152344 L 261.917969 182.152344 L 246.09375 146.953125 Z M 300.257812 316.875 L 300.257812 328.050781 C 300.257812 339.992188 290.546875 349.703125 278.605469 349.703125 L 74.738281 349.703125 L 74.738281 333.824219 L 82.597656 333.824219 C 86.816406 322.660156 84.003906 314.082031 82.710938 311.101562 L 74.738281 311.101562 L 74.738281 295.21875 L 90.824219 295.21875 C 85.652344 291.261719 82.304688 285.023438 82.304688 278.019531 L 82.304688 265.117188 C 82.304688 253.175781 92.023438 243.460938 103.960938 243.460938 L 151.5625 243.460938 L 151.5625 234.640625 L 165.210938 234.640625 L 165.210938 230.328125 C 165.210938 225.226562 169.359375 221.082031 174.460938 221.082031 L 174.578125 221.082031 L 174.578125 203.203125 C 174.578125 198.550781 178.03125 194.691406 182.507812 194.050781 L 182.507812 146.597656 L 182.363281 146.292969 C 179.222656 139.414062 173.421875 134.355469 166.859375 132.765625 C 162.9375 131.808594 159.355469 132.316406 157.023438 134.148438 C 154 136.523438 148.074219 140.78125 142.3125 142.667969 L 142.171875 142.710938 C 141.660156 142.839844 139.421875 143.394531 137.429688 143.574219 L 154.578125 181.722656 L 154.578125 184.703125 C 154.578125 194.855469 144.378906 203.117188 131.835938 203.117188 C 119.296875 203.117188 109.09375 194.855469 109.09375 184.703125 L 109.09375 182.152344 L 109.160156 182.152344 L 109.160156 181.722656 L 128.351562 139.027344 C 126.78125 136.375 126.484375 132.96875 127.5 129.113281 C 126.636719 128.109375 126.113281 126.8125 126.113281 125.386719 C 126.113281 122.234375 128.679688 119.667969 131.835938 119.667969 C 134.992188 119.667969 137.558594 122.234375 137.558594 125.386719 C 137.558594 128.042969 135.738281 130.273438 133.285156 130.917969 C 133.289062 132.382812 133.6875 133.675781 134.992188 134.074219 C 138.5625 135.175781 141.035156 132.878906 145.113281 128.726562 C 148.652344 125.117188 153.058594 120.628906 159.679688 119.015625 C 169.753906 116.566406 177.636719 119.875 182.507812 123.710938 L 182.507812 119.507812 C 179.003906 117.558594 176.632812 113.824219 176.632812 109.542969 C 176.632812 103.257812 181.742188 98.144531 188.027344 98.144531 C 194.3125 98.144531 199.425781 103.257812 199.425781 109.542969 C 199.425781 113.941406 196.917969 117.753906 193.265625 119.65625 L 193.265625 123.710938 C 198.128906 119.871094 206.015625 116.570312 216.085938 119.015625 C 222.710938 120.628906 227.117188 125.117188 230.65625 128.726562 C 234.730469 132.882812 237.210938 135.175781 240.78125 134.074219 C 242.078125 133.675781 242.484375 132.382812 242.484375 130.917969 C 240.027344 130.273438 238.207031 128.042969 238.207031 125.386719 C 238.207031 122.234375 240.777344 119.667969 243.933594 119.667969 C 247.085938 119.667969 249.65625 122.234375 249.65625 125.386719 C 249.65625 126.8125 249.128906 128.109375 248.269531 129.113281 C 249.285156 132.96875 248.988281 136.375 247.414062 139.027344 L 266.605469 181.722656 L 266.605469 182.152344 L 266.671875 182.152344 L 266.671875 184.703125 C 266.671875 194.855469 256.472656 203.117188 243.933594 203.117188 C 231.394531 203.117188 221.1875 194.855469 221.1875 184.703125 L 221.1875 181.722656 L 238.335938 143.578125 C 236.339844 143.398438 234.109375 142.839844 233.597656 142.710938 L 233.457031 142.667969 C 227.695312 140.78125 221.765625 136.523438 218.746094 134.148438 C 216.414062 132.316406 212.828125 131.808594 208.910156 132.765625 C 202.34375 134.355469 196.550781 139.414062 193.402344 146.292969 L 193.265625 146.597656 L 193.265625 194.050781 C 197.742188 194.691406 201.191406 198.550781 201.191406 203.203125 L 201.191406 221.082031 L 201.3125 221.082031 C 206.40625 221.082031 210.554688 225.226562 210.554688 230.328125 L 210.554688 234.640625 L 224.207031 234.640625 L 224.207031 243.460938 L 292.6875 243.460938 L 292.6875 259.34375 L 284.804688 259.34375 C 283.53125 262.707031 280.621094 272.539062 284.835938 283.789062 L 292.6875 283.789062 L 292.6875 299.675781 L 291.738281 299.675781 C 296.914062 303.636719 300.257812 309.871094 300.257812 316.875 Z M 93.484375 330.734375 C 112.445312 330.734375 131.402344 330.734375 150.359375 330.734375 C 153.226562 330.734375 153.230469 326.28125 150.359375 326.28125 C 131.402344 326.28125 112.445312 326.28125 93.484375 326.28125 C 90.617188 326.28125 90.613281 330.734375 93.484375 330.734375 Z M 157.25 330.734375 C 159.4375 330.734375 161.625 330.734375 163.8125 330.734375 C 166.675781 330.734375 166.683594 326.28125 163.8125 326.28125 C 161.625 326.28125 159.4375 326.28125 157.25 326.28125 C 154.382812 326.28125 154.378906 330.734375 157.25 330.734375 Z M 171.511719 330.734375 C 168.640625 330.734375 168.644531 326.28125 171.511719 326.28125 C 173.652344 326.28125 175.796875 326.28125 177.9375 326.28125 C 180.808594 326.28125 180.804688 330.734375 177.9375 330.734375 C 175.796875 330.734375 173.652344 330.734375 171.511719 330.734375 " fill-opacity="1" fill-rule="nonzero"/></g><g clip-path="url(#c0c3a4c954)"><path fill="#9bc9a8" d="M 114.191406 25.46875 L 122.757812 42.839844 L 141.925781 45.625 L 128.054688 59.15625 L 131.339844 78.246094 L 114.191406 69.234375 L 97.03125 78.246094 L 100.304688 59.15625 L 86.445312 45.625 L 105.613281 42.839844 Z M 114.191406 25.46875 " fill-opacity="1" fill-rule="nonzero"/><path fill="#9bc9a8" d="M 114.058594 25.304688 L 122.636719 42.675781 L 141.804688 45.460938 L 127.933594 58.988281 L 131.207031 78.078125 L 114.058594 69.066406 L 96.910156 78.078125 L 100.183594 58.988281 L 86.308594 45.460938 L 105.480469 42.675781 Z M 114.058594 25.304688 " fill-opacity="1" fill-rule="nonzero"/><path fill="#9bc9a8" d="M 114.058594 25.304688 L 122.636719 42.675781 L 141.804688 45.460938 L 127.933594 58.988281 L 131.207031 78.078125 L 114.058594 69.066406 L 96.910156 78.078125 L 100.183594 58.988281 L 86.308594 45.460938 L 105.480469 42.675781 Z M 114.058594 25.304688 " fill-opacity="1" fill-rule="nonzero"/><path fill="#9bc9a8" d="M 114.058594 25.304688 L 122.636719 42.675781 L 141.804688 45.460938 L 127.933594 58.988281 L 131.207031 78.078125 L 114.058594 69.066406 L 96.910156 78.078125 L 100.183594 58.988281 L 86.308594 45.460938 L 105.480469 42.675781 Z M 114.058594 25.304688 " fill-opacity="1" fill-rule="nonzero"/></g><g clip-path="url(#2b31324cd8)"><path fill="#9bc9a8" d="M 187.460938 25.46875 L 196.03125 42.839844 L 215.199219 45.625 L 201.324219 59.15625 L 204.609375 78.246094 L 187.460938 69.234375 L 170.300781 78.246094 L 173.574219 59.15625 L 159.714844 45.625 L 178.882812 42.839844 Z M 187.460938 25.46875 " fill-opacity="1" fill-rule="nonzero"/><path fill="#9bc9a8" d="M 187.328125 25.304688 L 195.90625 42.675781 L 215.074219 45.460938 L 201.203125 58.988281 L 204.476562 78.078125 L 187.328125 69.066406 L 170.179688 78.078125 L 173.453125 58.988281 L 159.582031 45.460938 L 178.75 42.675781 Z M 187.328125 25.304688 " fill-opacity="1" fill-rule="nonzero"/><path fill="#9bc9a8" d="M 187.328125 25.304688 L 195.90625 42.675781 L 215.074219 45.460938 L 201.203125 58.988281 L 204.476562 78.078125 L 187.328125 69.066406 L 170.179688 78.078125 L 173.453125 58.988281 L 159.582031 45.460938 L 178.75 42.675781 Z M 187.328125 25.304688 " fill-opacity="1" fill-rule="nonzero"/><path fill="#9bc9a8" d="M 187.328125 25.304688 L 195.90625 42.675781 L 215.074219 45.460938 L 201.203125 58.988281 L 204.476562 78.078125 L 187.328125 69.066406 L 170.179688 78.078125 L 173.453125 58.988281 L 159.582031 45.460938 L 178.75 42.675781 Z M 187.328125 25.304688 " fill-opacity="1" fill-rule="nonzero"/></g><g clip-path="url(#6d3faea1a1)"><path fill="#9bc9a8" d="M 260.730469 25.46875 L 269.300781 42.839844 L 288.46875 45.625 L 274.59375 59.15625 L 277.878906 78.246094 L 260.730469 69.234375 L 243.570312 78.246094 L 246.84375 59.15625 L 232.984375 45.625 L 252.152344 42.839844 Z M 260.730469 25.46875 " fill-opacity="1" fill-rule="nonzero"/><path fill="#9bc9a8" d="M 260.597656 25.304688 L 269.175781 42.675781 L 288.34375 45.460938 L 274.472656 58.988281 L 277.746094 78.078125 L 260.597656 69.066406 L 243.449219 78.078125 L 246.722656 58.988281 L 232.851562 45.460938 L 252.019531 42.675781 Z M 260.597656 25.304688 " fill-opacity="1" fill-rule="nonzero"/><path fill="#9bc9a8" d="M 260.597656 25.304688 L 269.175781 42.675781 L 288.34375 45.460938 L 274.472656 58.988281 L 277.746094 78.078125 L 260.597656 69.066406 L 243.449219 78.078125 L 246.722656 58.988281 L 232.851562 45.460938 L 252.019531 42.675781 Z M 260.597656 25.304688 " fill-opacity="1" fill-rule="nonzero"/><path fill="#9bc9a8" d="M 260.597656 25.304688 L 269.175781 42.675781 L 288.34375 45.460938 L 274.472656 58.988281 L 277.746094 78.078125 L 260.597656 69.066406 L 243.449219 78.078125 L 246.722656 58.988281 L 232.851562 45.460938 L 252.019531 42.675781 Z M 260.597656 25.304688 " fill-opacity="1" fill-rule="nonzero"/></g><g clip-path="url(#3503fc3b77)"><path fill="#9bc9a8" d="M 334 25.46875 L 342.570312 42.839844 L 361.738281 45.625 L 347.863281 59.15625 L 351.148438 78.246094 L 334 69.234375 L 316.839844 78.246094 L 320.117188 59.15625 L 306.253906 45.625 L 325.421875 42.839844 Z M 334 25.46875 " fill-opacity="1" fill-rule="nonzero"/><path fill="#9bc9a8" d="M 333.867188 25.304688 L 342.445312 42.675781 L 361.613281 45.460938 L 347.742188 58.988281 L 351.015625 78.078125 L 333.867188 69.066406 L 316.71875 78.078125 L 319.992188 58.988281 L 306.121094 45.460938 L 325.289062 42.675781 Z M 333.867188 25.304688 " fill-opacity="1" fill-rule="nonzero"/><path fill="#9bc9a8" d="M 333.867188 25.304688 L 342.445312 42.675781 L 361.613281 45.460938 L 347.742188 58.988281 L 351.015625 78.078125 L 333.867188 69.066406 L 316.71875 78.078125 L 319.992188 58.988281 L 306.121094 45.460938 L 325.289062 42.675781 Z M 333.867188 25.304688 " fill-opacity="1" fill-rule="nonzero"/><path fill="#9bc9a8" d="M 333.867188 25.304688 L 342.445312 42.675781 L 361.613281 45.460938 L 347.742188 58.988281 L 351.015625 78.078125 L 333.867188 69.066406 L 316.71875 78.078125 L 319.992188 58.988281 L 306.121094 45.460938 L 325.289062 42.675781 Z M 333.867188 25.304688 " fill-opacity="1" fill-rule="nonzero"/></g></svg>