<svg xmlns="http://www.w3.org/2000/svg" xmlns:xlink="http://www.w3.org/1999/xlink" width="500" zoomAndPan="magnify" viewBox="0 0 375 374.999991" height="500" preserveAspectRatio="xMidYMid meet" version="1.0"><defs><clipPath id="f10848c23c"><path d="M 158.355469 14.023438 L 216.105469 14.023438 L 216.105469 69.523438 L 158.355469 69.523438 Z M 158.355469 14.023438 " clip-rule="nonzero"/></clipPath><clipPath id="5c18ff8779"><path d="M 158.355469 14.023438 L 216 14.023438 L 216 69.523438 L 158.355469 69.523438 Z M 158.355469 14.023438 " clip-rule="nonzero"/></clipPath><clipPath id="74ef2c9f0f"><path d="M 57.800781 101.574219 L 317.300781 101.574219 L 317.300781 361 L 57.800781 361 Z M 57.800781 101.574219 " clip-rule="nonzero"/></clipPath></defs><g clip-path="url(#f10848c23c)"><path fill="#ffffff" d="M 187.304688 14.210938 L 196.199219 32.414062 L 216.105469 35.332031 L 201.699219 49.507812 L 205.109375 69.511719 L 187.304688 60.066406 L 169.488281 69.511719 L 172.886719 49.507812 L 158.492188 35.332031 L 178.394531 32.414062 Z M 187.304688 14.210938 " fill-opacity="1" fill-rule="nonzero"/></g><g clip-path="url(#5c18ff8779)"><path fill="#ffffff" d="M 187.164062 14.039062 L 196.074219 32.238281 L 215.976562 35.15625 L 201.570312 49.332031 L 204.972656 69.335938 L 187.164062 59.894531 L 169.359375 69.335938 L 172.761719 49.332031 L 158.355469 35.15625 L 178.257812 32.238281 Z M 187.164062 14.039062 " fill-opacity="1" fill-rule="nonzero"/><path fill="#ffffff" d="M 187.164062 14.039062 L 196.074219 32.238281 L 215.976562 35.15625 L 201.570312 49.332031 L 204.972656 69.335938 L 187.164062 59.894531 L 169.359375 69.335938 L 172.761719 49.332031 L 158.355469 35.15625 L 178.257812 32.238281 Z M 187.164062 14.039062 " fill-opacity="1" fill-rule="nonzero"/><path fill="#ffffff" d="M 187.164062 14.039062 L 196.074219 32.238281 L 215.976562 35.15625 L 201.570312 49.332031 L 204.972656 69.335938 L 187.164062 59.894531 L 169.359375 69.335938 L 172.761719 49.332031 L 158.355469 35.15625 L 178.257812 32.238281 Z M 187.164062 14.039062 " fill-opacity="1" fill-rule="nonzero"/></g><g clip-path="url(#74ef2c9f0f)"><path fill="#ffffff" d="M 317.195312 231.273438 C 317.195312 302.902344 259.128906 360.96875 187.496094 360.96875 C 115.867188 360.96875 57.800781 302.902344 57.800781 231.273438 C 57.800781 159.644531 115.867188 101.578125 187.496094 101.578125 C 259.128906 101.578125 317.195312 159.644531 317.195312 231.273438 " fill-opacity="1" fill-rule="nonzero"/></g><path fill="#dfaa61" d="M 138.226562 203.753906 C 138.457031 210.929688 144.367188 216.699219 151.597656 216.699219 C 158.828125 216.699219 164.738281 210.929688 164.96875 203.753906 L 151.597656 170.816406 Z M 151.597656 221.277344 C 141.699219 221.277344 133.644531 213.222656 133.644531 203.324219 C 133.644531 203.027344 133.703125 202.734375 133.8125 202.460938 L 149.476562 163.871094 C 149.828125 163.007812 150.667969 162.441406 151.597656 162.441406 C 152.53125 162.441406 153.367188 163.007812 153.71875 163.871094 L 169.382812 202.460938 C 169.496094 202.734375 169.550781 203.027344 169.550781 203.324219 C 169.550781 213.222656 161.496094 221.277344 151.597656 221.277344 " fill-opacity="1" fill-rule="nonzero"/><path fill="#dfaa61" d="M 167.261719 205.609375 L 135.933594 205.609375 C 134.667969 205.609375 133.644531 204.585938 133.644531 203.324219 C 133.644531 202.058594 134.667969 201.035156 135.933594 201.035156 L 167.261719 201.035156 C 168.527344 201.035156 169.550781 202.058594 169.550781 203.324219 C 169.550781 204.585938 168.527344 205.609375 167.261719 205.609375 " fill-opacity="1" fill-rule="nonzero"/><path fill="#dfaa61" d="M 210.027344 203.753906 C 210.253906 210.929688 216.164062 216.699219 223.394531 216.699219 C 230.628906 216.699219 236.539062 210.929688 236.765625 203.753906 L 223.394531 170.816406 Z M 223.394531 221.277344 C 213.496094 221.277344 205.441406 213.222656 205.441406 203.324219 C 205.441406 203.027344 205.5 202.734375 205.609375 202.460938 L 221.277344 163.871094 C 221.625 163.007812 222.464844 162.441406 223.394531 162.441406 C 224.328125 162.441406 225.167969 163.007812 225.515625 163.871094 L 241.183594 202.460938 C 241.292969 202.734375 241.351562 203.027344 241.351562 203.324219 C 241.351562 213.222656 233.296875 221.277344 223.394531 221.277344 " fill-opacity="1" fill-rule="nonzero"/><path fill="#dfaa61" d="M 239.0625 205.609375 L 207.730469 205.609375 C 206.46875 205.609375 205.441406 204.585938 205.441406 203.324219 C 205.441406 202.058594 206.46875 201.035156 207.730469 201.035156 L 239.0625 201.035156 C 240.324219 201.035156 241.351562 202.058594 241.351562 203.324219 C 241.351562 204.585938 240.324219 205.609375 239.0625 205.609375 " fill-opacity="1" fill-rule="nonzero"/><path fill="#dfaa61" d="M 165.160156 298.972656 C 164.574219 298.972656 163.988281 298.746094 163.542969 298.300781 C 162.648438 297.40625 162.648438 295.957031 163.539062 295.066406 L 169.324219 289.28125 C 171.269531 287.335938 173.542969 285.816406 176.085938 284.761719 C 178.628906 283.707031 181.3125 283.175781 184.0625 283.175781 L 214.132812 283.175781 C 218.675781 283.175781 223.394531 281.015625 226.753906 277.398438 L 253.921875 246.09375 C 254.972656 244.882812 255.550781 243.332031 255.550781 241.734375 C 255.550781 239.800781 254.714844 237.964844 253.257812 236.699219 C 250.484375 234.292969 246.269531 234.59375 243.863281 237.363281 L 224.019531 260.230469 C 223.191406 261.1875 221.746094 261.289062 220.789062 260.460938 C 219.835938 259.632812 219.734375 258.1875 220.5625 257.230469 L 240.40625 234.363281 C 244.464844 229.6875 251.578125 229.183594 256.257812 233.242188 C 258.714844 235.378906 260.128906 238.472656 260.128906 241.734375 C 260.128906 244.433594 259.152344 247.046875 257.378906 249.09375 L 230.1875 280.425781 C 230.171875 280.445312 230.15625 280.464844 230.136719 280.480469 C 225.863281 285.101562 220.027344 287.753906 214.132812 287.753906 L 184.0625 287.753906 C 179.71875 287.753906 175.632812 289.445312 172.5625 292.515625 L 166.777344 298.300781 C 166.332031 298.746094 165.746094 298.972656 165.160156 298.972656 " fill-opacity="1" fill-rule="nonzero"/><path fill="#dfaa61" d="M 120.390625 280.019531 L 149.488281 309.117188 L 161.921875 296.683594 L 132.828125 267.585938 Z M 149.488281 314.640625 C 148.902344 314.640625 148.316406 314.417969 147.867188 313.972656 L 115.535156 281.640625 C 115.109375 281.210938 114.867188 280.628906 114.867188 280.019531 C 114.867188 279.414062 115.109375 278.832031 115.535156 278.402344 L 131.207031 262.730469 C 132.101562 261.835938 133.550781 261.835938 134.445312 262.730469 L 166.777344 295.0625 C 167.207031 295.492188 167.449219 296.074219 167.449219 296.683594 C 167.449219 297.289062 167.207031 297.871094 166.777344 298.300781 L 151.105469 313.972656 C 150.660156 314.417969 150.074219 314.640625 149.488281 314.640625 " fill-opacity="1" fill-rule="nonzero"/><path fill="#dfaa61" d="M 213.679688 270.457031 L 181.773438 270.457031 C 180.511719 270.457031 179.488281 269.429688 179.488281 268.167969 C 179.488281 266.902344 180.511719 265.878906 181.773438 265.878906 L 213.679688 265.878906 C 217.1875 265.878906 220.039062 263.027344 220.039062 259.519531 C 220.039062 259.324219 220.03125 259.132812 220.015625 258.953125 C 220.011719 258.945312 220.011719 258.941406 220.011719 258.933594 C 219.878906 257.464844 219.226562 256.074219 218.175781 255.023438 C 216.976562 253.824219 215.378906 253.160156 213.679688 253.160156 L 153.988281 253.160156 C 149.644531 253.160156 145.558594 254.851562 142.484375 257.925781 L 134.445312 265.96875 C 133.550781 266.863281 132.101562 266.863281 131.207031 265.96875 C 130.3125 265.074219 130.3125 263.625 131.207031 262.730469 L 139.25 254.691406 C 141.195312 252.746094 143.46875 251.222656 146.011719 250.171875 C 148.554688 249.117188 151.238281 248.585938 153.988281 248.585938 L 213.679688 248.585938 C 216.601562 248.585938 219.347656 249.722656 221.414062 251.789062 C 223.222656 253.59375 224.339844 255.984375 224.570312 258.519531 C 224.601562 258.84375 224.617188 259.179688 224.617188 259.519531 C 224.617188 265.550781 219.710938 270.457031 213.679688 270.457031 " fill-opacity="1" fill-rule="nonzero"/><path fill="#dfaa61" d="M 191.589844 245.574219 L 183.402344 245.574219 C 182.140625 245.574219 181.113281 244.550781 181.113281 243.285156 L 181.113281 170.855469 C 181.113281 169.589844 182.140625 168.566406 183.402344 168.566406 C 184.667969 168.566406 185.691406 169.589844 185.691406 170.855469 L 185.691406 240.996094 L 189.304688 240.996094 L 189.304688 170.855469 C 189.304688 169.589844 190.328125 168.566406 191.589844 168.566406 C 192.855469 168.566406 193.878906 169.589844 193.878906 170.855469 L 193.878906 243.285156 C 193.878906 244.550781 192.855469 245.574219 191.589844 245.574219 " fill-opacity="1" fill-rule="nonzero"/><path fill="#dfaa61" d="M 172.652344 248.585938 L 202.34375 248.585938 L 202.34375 245.574219 L 172.652344 245.574219 Z M 204.632812 253.160156 L 170.363281 253.160156 C 169.097656 253.160156 168.074219 252.136719 168.074219 250.871094 L 168.074219 243.285156 C 168.074219 242.023438 169.097656 240.996094 170.363281 240.996094 L 204.632812 240.996094 C 205.894531 240.996094 206.917969 242.023438 206.917969 243.285156 L 206.917969 250.871094 C 206.917969 252.136719 205.894531 253.160156 204.632812 253.160156 " fill-opacity="1" fill-rule="nonzero"/><path fill="#dfaa61" d="M 187.496094 160.003906 C 184.890625 160.003906 182.769531 162.125 182.769531 164.730469 C 182.769531 167.339844 184.890625 169.460938 187.496094 169.460938 C 190.105469 169.460938 192.226562 167.339844 192.226562 164.730469 C 192.226562 162.125 190.105469 160.003906 187.496094 160.003906 Z M 187.496094 174.035156 C 182.367188 174.035156 178.191406 169.863281 178.191406 164.730469 C 178.191406 159.597656 182.367188 155.425781 187.496094 155.425781 C 192.628906 155.425781 196.804688 159.597656 196.804688 164.730469 C 196.804688 169.863281 192.628906 174.035156 187.496094 174.035156 " fill-opacity="1" fill-rule="nonzero"/><path fill="#dfaa61" d="M 232.863281 167.019531 L 194.515625 167.019531 C 193.25 167.019531 192.222656 165.996094 192.222656 164.730469 C 192.222656 163.46875 193.25 162.441406 194.515625 162.441406 L 232.863281 162.441406 C 234.125 162.441406 235.148438 163.46875 235.148438 164.730469 C 235.148438 165.996094 234.125 167.019531 232.863281 167.019531 " fill-opacity="1" fill-rule="nonzero"/><path fill="#dfaa61" d="M 180.480469 167.019531 L 142.132812 167.019531 C 140.871094 167.019531 139.84375 165.996094 139.84375 164.730469 C 139.84375 163.46875 140.871094 162.441406 142.132812 162.441406 L 180.480469 162.441406 C 181.746094 162.441406 182.769531 163.46875 182.769531 164.730469 C 182.769531 165.996094 181.746094 167.019531 180.480469 167.019531 " fill-opacity="1" fill-rule="nonzero"/><path fill="#dfaa61" d="M 190.921875 160.894531 C 189.660156 160.894531 188.636719 159.871094 188.636719 158.605469 L 188.636719 153.621094 C 188.636719 152.992188 188.125 152.480469 187.496094 152.480469 C 186.871094 152.480469 186.359375 152.992188 186.359375 153.621094 L 186.359375 158.605469 C 186.359375 159.871094 185.335938 160.894531 184.070312 160.894531 C 182.804688 160.894531 181.78125 159.871094 181.78125 158.605469 L 181.78125 153.621094 C 181.78125 150.46875 184.34375 147.902344 187.496094 147.902344 C 190.648438 147.902344 193.214844 150.46875 193.214844 153.621094 L 193.214844 158.605469 C 193.214844 159.871094 192.1875 160.894531 190.921875 160.894531 " fill-opacity="1" fill-rule="nonzero"/></svg>