<svg xmlns="http://www.w3.org/2000/svg" xmlns:xlink="http://www.w3.org/1999/xlink" width="500" zoomAndPan="magnify" viewBox="0 0 375 374.999991" height="500" preserveAspectRatio="xMidYMid meet" version="1.0"><defs><clipPath id="f357bff546"><path d="M 49.269531 23 L 105.519531 23 L 105.519531 76.207031 L 49.269531 76.207031 Z M 49.269531 23 " clip-rule="nonzero"/></clipPath><clipPath id="7978063614"><path d="M 49.269531 22.957031 L 105.519531 22.957031 L 105.519531 76.207031 L 49.269531 76.207031 Z M 49.269531 22.957031 " clip-rule="nonzero"/></clipPath><clipPath id="e041c44c9a"><path d="M 59.683594 94.070312 L 315.433594 94.070312 L 315.433594 352.070312 L 59.683594 352.070312 Z M 59.683594 94.070312 " clip-rule="nonzero"/></clipPath><clipPath id="c355017233"><path d="M 122.175781 23 L 178.425781 23 L 178.425781 76.207031 L 122.175781 76.207031 Z M 122.175781 23 " clip-rule="nonzero"/></clipPath><clipPath id="f172b664fc"><path d="M 122.175781 22.957031 L 178.425781 22.957031 L 178.425781 76.207031 L 122.175781 76.207031 Z M 122.175781 22.957031 " clip-rule="nonzero"/></clipPath><clipPath id="48f36bbfbc"><path d="M 196 23 L 252 23 L 252 76.207031 L 196 76.207031 Z M 196 23 " clip-rule="nonzero"/></clipPath><clipPath id="b66d134d09"><path d="M 195.949219 22.957031 L 252 22.957031 L 252 76.207031 L 195.949219 76.207031 Z M 195.949219 22.957031 " clip-rule="nonzero"/></clipPath><clipPath id="47d5c752d4"><path d="M 269.722656 23 L 325.972656 23 L 325.972656 76.207031 L 269.722656 76.207031 Z M 269.722656 23 " clip-rule="nonzero"/></clipPath><clipPath id="691e758937"><path d="M 269.722656 22.957031 L 325.972656 22.957031 L 325.972656 76.207031 L 269.722656 76.207031 Z M 269.722656 22.957031 " clip-rule="nonzero"/></clipPath></defs><g clip-path="url(#f357bff546)"><path fill="#00bf63" d="M 77.34375 23.140625 L 85.972656 40.628906 L 105.273438 43.433594 L 91.304688 57.058594 L 94.613281 76.28125 L 77.34375 67.207031 L 60.066406 76.28125 L 63.363281 57.058594 L 49.402344 43.433594 L 68.707031 40.628906 Z M 77.34375 23.140625 " fill-opacity="1" fill-rule="nonzero"/></g><g clip-path="url(#7978063614)"><path fill="#00bf63" d="M 77.210938 22.972656 L 85.847656 40.460938 L 105.152344 43.269531 L 91.179688 56.890625 L 94.476562 76.113281 L 77.210938 67.039062 L 59.941406 76.113281 L 63.238281 56.890625 L 49.269531 43.269531 L 68.570312 40.460938 Z M 77.210938 22.972656 " fill-opacity="1" fill-rule="nonzero"/><path fill="#00bf63" d="M 77.210938 22.972656 L 85.847656 40.460938 L 105.152344 43.269531 L 91.179688 56.890625 L 94.476562 76.113281 L 77.210938 67.039062 L 59.941406 76.113281 L 63.238281 56.890625 L 49.269531 43.269531 L 68.570312 40.460938 Z M 77.210938 22.972656 " fill-opacity="1" fill-rule="nonzero"/><path fill="#00bf63" d="M 77.210938 22.972656 L 85.847656 40.460938 L 105.152344 43.269531 L 91.179688 56.890625 L 94.476562 76.113281 L 77.210938 67.039062 L 59.941406 76.113281 L 63.238281 56.890625 L 49.269531 43.269531 L 68.570312 40.460938 Z M 77.210938 22.972656 " fill-opacity="1" fill-rule="nonzero"/></g><path fill="#ffffff" d="M 296.734375 175.460938 L 296.734375 326 C 296.734375 326 210.230469 308.890625 187.71875 326 L 187.511719 326 C 165 308.890625 78.492188 326 78.492188 326 L 78.492188 175.460938 C 90.15625 173.027344 106.867188 170.050781 116.195312 168.675781 C 116.195312 168.675781 106.453125 178.957031 118.527344 186.980469 C 130.605469 195.011719 163.878906 185.953125 148.304688 166.4375 C 165.933594 166.261719 182.0625 169.59375 187.5 171.988281 L 188.699219 171.59375 C 194.902344 169.246094 210.246094 166.273438 226.925781 166.4375 C 226.925781 166.4375 221.886719 181.519531 223.835938 184.625 C 225.789062 187.730469 258.199219 192.519531 260.53125 184.625 C 262.863281 176.726562 261.351562 174.292969 259.035156 168.675781 C 268.363281 170.050781 285.074219 173.027344 296.734375 175.460938 " fill-opacity="1" fill-rule="nonzero"/><path fill="#9ac8a8" d="M 312.964844 191.230469 L 312.964844 340.285156 L 62.039062 340.285156 L 62.039062 191.230469 L 78.492188 191.230469 L 78.492188 326 C 78.492188 326 165 308.890625 187.511719 326 C 210.019531 308.890625 296.527344 326 296.527344 326 L 296.527344 191.230469 L 312.964844 191.230469 " fill-opacity="1" fill-rule="nonzero"/><g clip-path="url(#e041c44c9a)"><path fill="#dfaa61" d="M 262.144531 118.023438 L 258.921875 114.800781 L 251.824219 121.894531 L 255.046875 125.117188 Z M 274.625 105.542969 L 271.402344 102.320312 L 264.304688 109.414062 L 267.527344 112.632812 Z M 274.625 121.894531 L 267.527344 114.800781 L 264.304688 118.023438 L 271.402344 125.117188 Z M 262.144531 109.414062 L 255.046875 102.320312 L 251.824219 105.542969 L 258.921875 112.632812 Z M 310.703125 193.507812 L 299.015625 193.507812 C 299.015625 193.804688 299.015625 194.09375 299.015625 194.390625 C 299.015625 238.261719 299.015625 282.132812 299.015625 326 C 299.015625 327.570312 297.566406 328.484375 296.128906 328.203125 C 292.621094 327.507812 289.089844 326.910156 285.558594 326.324219 C 268.804688 323.566406 251.875 321.496094 234.902344 320.851562 C 226.082031 320.519531 217.164062 320.523438 208.394531 321.621094 C 201.671875 322.464844 194.4375 323.875 188.867188 327.96875 C 188.238281 328.433594 187.613281 328.488281 187.085938 328.289062 C 186.835938 328.238281 186.589844 328.140625 186.363281 327.96875 C 179.980469 323.277344 171.414062 322.007812 163.726562 321.285156 C 145.445312 319.578125 126.792969 321.296875 108.640625 323.570312 C 98.757812 324.804688 88.875 326.273438 79.097656 328.203125 C 77.667969 328.484375 76.214844 327.570312 76.214844 326 C 76.214844 319.691406 76.214844 313.386719 76.214844 307.078125 C 76.214844 269.21875 76.214844 231.363281 76.214844 193.507812 L 64.320312 193.507812 L 64.300781 338.007812 L 310.6875 338.007812 Z M 112.394531 171.566406 C 101.8125 173.230469 91.265625 175.175781 80.773438 177.324219 C 80.773438 183.011719 80.773438 188.703125 80.773438 194.390625 C 80.773438 237.351562 80.773438 280.3125 80.773438 323.269531 C 83.644531 322.742188 86.527344 322.246094 89.410156 321.773438 C 106.75 318.953125 124.289062 316.804688 141.855469 316.242188 C 150.960938 315.949219 160.136719 316.078125 169.167969 317.375 C 174.585938 318.152344 180.296875 319.335938 185.234375 321.910156 C 185.234375 301.234375 185.234375 280.550781 185.234375 259.871094 C 185.234375 258.773438 185.875 258.085938 186.679688 257.8125 L 151.949219 257.8125 L 151.949219 244.785156 L 165.355469 244.785156 L 165.355469 240.636719 C 165.355469 235.578125 169.472656 231.464844 174.53125 231.464844 L 174.558594 231.464844 L 174.558594 213.992188 C 174.558594 209.40625 177.945312 205.597656 182.34375 204.921875 L 182.34375 172.523438 C 172.667969 169.46875 161.777344 168.800781 151.710938 168.722656 L 155.089844 176.238281 L 155.089844 179.191406 C 155.089844 189.214844 145.027344 197.371094 132.664062 197.371094 C 120.292969 197.371094 110.230469 189.214844 110.230469 179.191406 L 110.230469 176.59375 L 110.296875 176.59375 L 110.296875 176.238281 Z M 149.660156 164.15625 C 160.175781 164.164062 171.953125 164.710938 182.34375 167.769531 L 182.34375 141.777344 L 182.21875 141.496094 C 179.136719 134.765625 173.464844 129.816406 167.042969 128.253906 C 163.21875 127.328125 159.726562 127.816406 157.460938 129.601562 C 154.484375 131.9375 148.652344 136.128906 142.980469 137.984375 L 142.832031 138.027344 C 142.140625 138.199219 140.128906 138.671875 138.285156 138.855469 Z M 193.09375 167.707031 C 203.507812 164.683594 215.28125 164.15625 225.777344 164.15625 L 237.152344 138.859375 C 235.308594 138.675781 233.296875 138.199219 232.609375 138.027344 L 232.457031 137.984375 C 226.78125 136.128906 220.953125 131.933594 217.980469 129.601562 C 215.710938 127.816406 212.214844 127.328125 208.394531 128.253906 C 201.972656 129.8125 196.304688 134.765625 193.222656 141.496094 L 193.09375 141.777344 Z M 115.132812 176.59375 L 130.449219 176.59375 L 130.449219 142.527344 L 118.433594 169.257812 C 118.390625 169.660156 118.234375 170.027344 117.953125 170.316406 Z M 135.003906 142.675781 L 135.003906 176.59375 L 150.253906 176.59375 Z M 225.183594 176.59375 L 240.433594 176.59375 L 240.433594 142.675781 Z M 256.796875 168.78125 L 244.992188 142.527344 L 244.992188 176.59375 L 260.304688 176.59375 L 257.601562 170.582031 C 256.960938 170.1875 256.722656 169.496094 256.796875 168.78125 Z M 263.058594 171.601562 L 265.140625 176.238281 L 265.140625 176.59375 L 265.210938 176.59375 L 265.210938 179.191406 C 265.210938 189.214844 255.148438 197.371094 242.777344 197.371094 C 230.410156 197.371094 220.347656 189.214844 220.347656 179.191406 L 220.347656 176.238281 L 223.726562 168.722656 C 213.679688 168.792969 202.785156 169.445312 193.09375 172.464844 L 193.09375 204.921875 C 197.496094 205.597656 200.882812 209.40625 200.882812 213.992188 L 200.90625 231.464844 C 205.964844 231.464844 210.082031 235.578125 210.082031 240.636719 L 210.082031 244.785156 L 223.492188 244.785156 L 223.492188 257.8125 L 188.339844 257.8125 C 189.144531 258.085938 189.789062 258.773438 189.789062 259.871094 C 189.789062 280.589844 189.789062 301.308594 189.789062 322.023438 C 195.699219 318.859375 202.746094 317.707031 209.269531 316.960938 C 228.082031 314.804688 247.425781 316.628906 266.136719 318.953125 C 275.601562 320.128906 285.070312 321.511719 294.457031 323.269531 C 294.457031 317.871094 294.457031 312.472656 294.457031 307.078125 C 294.457031 263.824219 294.457031 220.574219 294.457031 177.324219 C 284.039062 175.1875 273.566406 173.257812 263.058594 171.601562 Z M 315.246094 342.566406 L 206.308594 342.566406 C 204.589844 347.964844 196.882812 352.035156 187.632812 352.035156 C 178.378906 352.035156 170.671875 347.964844 168.953125 342.566406 L 59.742188 342.566406 L 59.761719 188.949219 L 76.214844 188.949219 C 76.214844 184.453125 76.214844 179.960938 76.214844 175.460938 C 76.214844 174.507812 76.921875 173.46875 77.886719 173.265625 C 90.066406 170.742188 102.320312 168.492188 114.613281 166.632812 L 129.136719 134.328125 C 127.601562 131.71875 127.316406 128.378906 128.300781 124.605469 C 127.460938 123.613281 126.949219 122.328125 126.949219 120.921875 C 126.949219 117.777344 129.511719 115.210938 132.664062 115.210938 C 135.808594 115.210938 138.375 117.777344 138.375 120.921875 C 138.375 123.550781 136.589844 125.761719 134.175781 126.425781 C 134.191406 127.800781 134.578125 129 135.785156 129.371094 C 139.238281 130.4375 141.660156 128.195312 145.636719 124.140625 C 149.125 120.585938 153.460938 116.164062 159.996094 114.574219 C 169.820312 112.183594 177.535156 115.355469 182.34375 119.089844 L 182.34375 115.195312 C 178.90625 113.257812 176.574219 109.574219 176.574219 105.355469 C 176.574219 99.132812 181.636719 94.070312 187.859375 94.070312 C 194.085938 94.070312 199.148438 99.132812 199.148438 105.355469 C 199.148438 109.691406 196.6875 113.457031 193.09375 115.347656 L 193.09375 119.089844 C 197.90625 115.355469 205.613281 112.183594 215.445312 114.574219 C 221.980469 116.164062 226.316406 120.585938 229.800781 124.140625 C 233.777344 128.195312 236.199219 130.4375 239.65625 129.371094 C 240.863281 129 241.25 127.800781 241.265625 126.425781 C 238.847656 125.761719 237.066406 123.550781 237.066406 120.921875 C 237.066406 117.777344 239.628906 115.210938 242.777344 115.210938 C 245.929688 115.210938 248.488281 117.777344 248.488281 120.921875 C 248.488281 122.328125 247.980469 123.609375 247.140625 124.605469 C 248.121094 128.378906 247.835938 131.71875 246.300781 134.328125 L 260.839844 166.667969 C 273.0625 168.519531 285.238281 170.757812 297.339844 173.265625 C 298.3125 173.46875 299.015625 174.515625 299.015625 175.460938 C 299.015625 179.960938 299.015625 184.453125 299.015625 188.949219 L 315.261719 188.949219 Z M 94.285156 145.832031 L 84.246094 145.832031 L 84.246094 150.386719 L 94.285156 150.386719 Z M 111.9375 145.832031 L 101.902344 145.832031 L 101.902344 150.386719 L 111.9375 150.386719 Z M 100.371094 151.917969 L 95.8125 151.917969 L 95.8125 161.953125 L 100.371094 161.953125 Z M 100.371094 134.265625 L 95.8125 134.265625 L 95.8125 144.300781 L 100.371094 144.300781 Z M 207.253906 209.125 C 225.609375 206.554688 244.597656 208.246094 262.914062 210.339844 C 265.820312 210.675781 265.796875 206.113281 262.914062 205.78125 C 244.121094 203.632812 224.859375 202.09375 206.046875 204.730469 C 203.148438 205.136719 204.382812 209.527344 207.253906 209.125 Z M 271.238281 211.378906 C 272.984375 211.613281 274.730469 211.863281 276.480469 212.117188 C 277.691406 212.292969 278.925781 211.816406 279.28125 210.523438 C 279.574219 209.453125 278.914062 207.902344 277.691406 207.722656 C 275.539062 207.410156 273.386719 207.113281 271.238281 206.820312 C 270.011719 206.660156 268.957031 207.988281 268.957031 209.101562 C 268.957031 210.472656 270.007812 211.214844 271.238281 211.378906 Z M 210.511719 225.199219 C 222.304688 224.019531 234.167969 224.375 245.964844 225.207031 C 248.890625 225.410156 248.875 220.855469 245.964844 220.648438 C 234.167969 219.816406 222.304688 219.460938 210.511719 220.640625 C 207.621094 220.933594 207.59375 225.492188 210.511719 225.199219 Z M 255.585938 226.035156 C 262.566406 226.738281 269.527344 227.597656 276.480469 228.597656 C 279.34375 229.011719 280.585938 224.621094 277.691406 224.203125 C 270.335938 223.144531 262.972656 222.222656 255.585938 221.476562 C 252.664062 221.183594 252.6875 225.742188 255.585938 226.035156 Z M 229.863281 240.945312 C 234.867188 241.03125 239.871094 241.269531 244.871094 241.605469 C 247.796875 241.804688 247.785156 237.246094 244.871094 237.046875 C 239.871094 236.710938 234.867188 236.476562 229.863281 236.386719 C 226.929688 236.332031 226.929688 240.890625 229.863281 240.945312 Z M 250.824219 242.074219 C 253.386719 242.296875 255.949219 242.546875 258.507812 242.8125 C 259.742188 242.941406 260.777344 241.671875 260.785156 240.535156 C 260.800781 239.195312 259.730469 238.382812 258.507812 238.253906 C 255.949219 237.988281 253.386719 237.738281 250.824219 237.515625 C 247.90625 237.257812 247.917969 241.820312 250.824219 242.074219 Z M 263.953125 243.425781 C 268.136719 243.925781 272.308594 244.476562 276.480469 245.078125 C 279.34375 245.492188 280.585938 241.101562 277.691406 240.683594 C 273.117188 240.019531 268.539062 239.414062 263.953125 238.867188 C 261.046875 238.519531 261.070312 243.078125 263.953125 243.425781 Z M 228.238281 257.410156 C 244.394531 257.601562 260.5 259.261719 276.480469 261.5625 C 279.34375 261.976562 280.585938 257.585938 277.691406 257.167969 C 261.304688 254.804688 244.804688 253.046875 228.238281 252.851562 C 225.304688 252.816406 225.304688 257.371094 228.238281 257.410156 Z M 207.253906 275.054688 C 215.488281 273.90625 223.816406 273.777344 232.113281 273.953125 C 235.046875 274.019531 235.046875 269.460938 232.113281 269.398438 C 223.390625 269.210938 214.695312 269.453125 206.046875 270.660156 C 203.148438 271.0625 204.382812 275.453125 207.253906 275.054688 Z M 239.78125 274.261719 C 252.066406 274.953125 264.300781 276.289062 276.480469 278.046875 C 279.34375 278.460938 280.585938 274.070312 277.691406 273.652344 C 265.109375 271.835938 252.476562 270.417969 239.78125 269.703125 C 236.851562 269.535156 236.863281 274.09375 239.78125 274.261719 Z M 207.253906 291.539062 C 219.691406 289.804688 232.378906 290.21875 244.871094 291.058594 C 247.796875 291.253906 247.785156 286.695312 244.871094 286.5 C 231.929688 285.628906 218.917969 285.347656 206.046875 287.144531 C 203.148438 287.546875 204.382812 291.9375 207.253906 291.539062 Z M 252.523438 291.875 C 255.273438 292.144531 258.023438 292.433594 260.769531 292.75 C 262.003906 292.894531 263.039062 291.605469 263.046875 290.472656 C 263.0625 289.125 261.988281 288.335938 260.769531 288.195312 C 258.023438 287.878906 255.273438 287.585938 252.523438 287.316406 C 249.605469 287.03125 249.628906 291.589844 252.523438 291.875 Z M 267.988281 293.371094 C 270.820312 293.730469 273.648438 294.117188 276.480469 294.527344 C 277.703125 294.707031 278.910156 294.226562 279.28125 292.9375 C 279.585938 291.867188 278.902344 290.308594 277.691406 290.132812 C 274.460938 289.664062 271.226562 289.226562 267.988281 288.8125 C 266.753906 288.652344 265.722656 289.972656 265.707031 291.09375 C 265.695312 292.453125 266.773438 293.214844 267.988281 293.371094 Z M 207.253906 308.019531 C 208.816406 307.792969 210.382812 307.617188 211.953125 307.464844 C 213.175781 307.351562 214.230469 306.503906 214.230469 305.1875 C 214.230469 304.046875 213.183594 302.792969 211.953125 302.90625 C 209.976562 303.097656 208.007812 303.335938 206.046875 303.625 C 204.824219 303.804688 204.152344 305.347656 204.453125 306.429688 C 204.8125 307.734375 206.03125 308.199219 207.253906 308.019531 Z M 219.382812 306.984375 C 238.464844 306.320312 257.609375 308.289062 276.480469 311.011719 C 279.34375 311.425781 280.585938 307.035156 277.691406 306.617188 C 258.414062 303.835938 238.878906 301.75 219.382812 302.425781 C 216.457031 302.527344 216.441406 307.082031 219.382812 306.984375 Z M 169.132812 204.730469 C 150.316406 202.09375 131.050781 203.632812 112.261719 205.78125 C 109.382812 206.113281 109.351562 210.675781 112.261719 210.339844 C 130.578125 208.246094 149.566406 206.554688 167.921875 209.125 C 170.785156 209.527344 172.03125 205.136719 169.132812 204.730469 Z M 103.9375 206.820312 C 101.789062 207.113281 99.636719 207.410156 97.488281 207.722656 C 96.269531 207.898438 95.597656 209.441406 95.894531 210.523438 C 96.253906 211.832031 97.476562 212.292969 98.699219 212.117188 C 100.445312 211.863281 102.191406 211.613281 103.9375 211.378906 C 105.160156 211.21875 106.21875 210.449219 106.21875 209.101562 C 106.21875 207.996094 105.167969 206.65625 103.9375 206.820312 Z M 164.660156 220.640625 C 152.875 219.460938 141.011719 219.816406 129.210938 220.648438 C 126.304688 220.851562 126.277344 225.410156 129.210938 225.207031 C 141.011719 224.375 152.875 224.019531 164.660156 225.199219 C 167.574219 225.488281 167.558594 220.933594 164.660156 220.640625 Z M 119.589844 221.476562 C 112.203125 222.222656 104.835938 223.144531 97.488281 224.203125 C 94.59375 224.621094 95.824219 229.011719 98.699219 228.597656 C 105.644531 227.597656 112.609375 226.738281 119.589844 226.035156 C 122.484375 225.742188 122.515625 221.183594 119.589844 221.476562 Z M 145.3125 236.386719 C 140.304688 236.476562 135.304688 236.710938 130.304688 237.046875 C 127.394531 237.242188 127.375 241.804688 130.304688 241.605469 C 135.304688 241.269531 140.304688 241.03125 145.3125 240.945312 C 148.246094 240.890625 148.25 236.328125 145.3125 236.386719 Z M 124.351562 237.515625 C 121.789062 237.738281 119.226562 237.988281 116.667969 238.253906 C 115.433594 238.382812 114.402344 239.210938 114.390625 240.535156 C 114.375 241.667969 115.441406 242.941406 116.667969 242.8125 C 119.226562 242.546875 121.789062 242.296875 124.351562 242.074219 C 127.25 241.820312 127.277344 237.257812 124.351562 237.515625 Z M 111.222656 238.867188 C 106.636719 239.414062 102.058594 240.019531 97.488281 240.683594 C 94.59375 241.101562 95.824219 245.496094 98.699219 245.078125 C 102.867188 244.476562 107.039062 243.925781 111.222656 243.425781 C 114.097656 243.078125 114.132812 238.519531 111.222656 238.867188 Z M 146.9375 252.851562 C 130.371094 253.046875 113.871094 254.804688 97.488281 257.167969 C 94.59375 257.585938 95.824219 261.976562 98.699219 261.5625 C 114.675781 259.261719 130.78125 257.601562 146.9375 257.410156 C 149.867188 257.371094 149.875 252.816406 146.9375 252.851562 Z M 169.132812 270.660156 C 160.480469 269.453125 151.789062 269.210938 143.0625 269.398438 C 140.132812 269.460938 140.121094 274.019531 143.0625 273.953125 C 151.359375 273.777344 159.6875 273.90625 167.921875 275.054688 C 170.785156 275.453125 172.03125 271.0625 169.132812 270.660156 Z M 135.394531 269.703125 C 122.699219 270.417969 110.066406 271.835938 97.488281 273.652344 C 94.59375 274.070312 95.824219 278.460938 98.699219 278.046875 C 110.875 276.289062 123.105469 274.953125 135.394531 274.261719 C 138.308594 274.097656 138.328125 269.535156 135.394531 269.703125 Z M 169.132812 287.144531 C 156.257812 285.347656 143.246094 285.628906 130.304688 286.5 C 127.394531 286.695312 127.375 291.253906 130.304688 291.058594 C 142.796875 290.21875 155.484375 289.804688 167.921875 291.539062 C 170.785156 291.9375 172.03125 287.546875 169.132812 287.144531 Z M 122.648438 287.316406 C 119.902344 287.585938 117.152344 287.878906 114.40625 288.195312 C 113.171875 288.335938 112.140625 289.140625 112.128906 290.472656 C 112.113281 291.597656 113.183594 292.894531 114.40625 292.75 C 117.152344 292.433594 119.902344 292.144531 122.648438 291.875 C 125.542969 291.59375 125.574219 287.03125 122.648438 287.316406 Z M 107.191406 288.8125 C 103.949219 289.226562 100.714844 289.664062 97.488281 290.132812 C 96.257812 290.308594 95.609375 291.855469 95.894531 292.9375 C 96.242188 294.246094 97.488281 294.703125 98.699219 294.527344 C 101.523438 294.117188 104.355469 293.730469 107.191406 293.371094 C 108.417969 293.214844 109.453125 292.433594 109.46875 291.09375 C 109.480469 289.976562 108.410156 288.65625 107.191406 288.8125 Z M 169.132812 303.625 C 167.167969 303.335938 165.199219 303.097656 163.222656 302.90625 C 161.996094 302.792969 160.945312 304.042969 160.945312 305.1875 C 160.945312 306.515625 161.992188 307.351562 163.222656 307.464844 C 164.792969 307.617188 166.359375 307.792969 167.921875 308.019531 C 169.136719 308.195312 170.371094 307.71875 170.722656 306.429688 C 171.019531 305.355469 170.355469 303.804688 169.132812 303.625 Z M 155.792969 302.425781 C 158.722656 302.527344 158.726562 307.082031 155.792969 306.984375 C 136.710938 306.320312 117.566406 308.289062 98.699219 311.011719 C 95.824219 311.425781 94.59375 307.035156 97.488281 306.617188 C 116.761719 303.835938 136.292969 301.75 155.792969 302.425781 " fill-opacity="1" fill-rule="nonzero"/></g><g clip-path="url(#c355017233)"><path fill="#00bf63" d="M 150.25 23.140625 L 158.878906 40.628906 L 178.179688 43.433594 L 164.210938 57.058594 L 167.515625 76.28125 L 150.25 67.207031 L 132.972656 76.28125 L 136.269531 57.058594 L 122.308594 43.433594 L 141.609375 40.628906 Z M 150.25 23.140625 " fill-opacity="1" fill-rule="nonzero"/></g><g clip-path="url(#f172b664fc)"><path fill="#00bf63" d="M 150.117188 22.972656 L 158.753906 40.460938 L 178.054688 43.269531 L 164.085938 56.890625 L 167.382812 76.113281 L 150.117188 67.039062 L 132.847656 76.113281 L 136.144531 56.890625 L 122.175781 43.269531 L 141.476562 40.460938 Z M 150.117188 22.972656 " fill-opacity="1" fill-rule="nonzero"/><path fill="#00bf63" d="M 150.117188 22.972656 L 158.753906 40.460938 L 178.054688 43.269531 L 164.085938 56.890625 L 167.382812 76.113281 L 150.117188 67.039062 L 132.847656 76.113281 L 136.144531 56.890625 L 122.175781 43.269531 L 141.476562 40.460938 Z M 150.117188 22.972656 " fill-opacity="1" fill-rule="nonzero"/><path fill="#00bf63" d="M 150.117188 22.972656 L 158.753906 40.460938 L 178.054688 43.269531 L 164.085938 56.890625 L 167.382812 76.113281 L 150.117188 67.039062 L 132.847656 76.113281 L 136.144531 56.890625 L 122.175781 43.269531 L 141.476562 40.460938 Z M 150.117188 22.972656 " fill-opacity="1" fill-rule="nonzero"/></g><g clip-path="url(#48f36bbfbc)"><path fill="#00bf63" d="M 224.023438 23.140625 L 232.652344 40.628906 L 251.953125 43.433594 L 237.984375 57.058594 L 241.292969 76.28125 L 224.023438 67.207031 L 206.746094 76.28125 L 210.042969 57.058594 L 196.082031 43.433594 L 215.382812 40.628906 Z M 224.023438 23.140625 " fill-opacity="1" fill-rule="nonzero"/></g><g clip-path="url(#b66d134d09)"><path fill="#00bf63" d="M 223.890625 22.972656 L 232.527344 40.460938 L 251.832031 43.269531 L 237.859375 56.890625 L 241.15625 76.113281 L 223.890625 67.039062 L 206.621094 76.113281 L 209.917969 56.890625 L 195.949219 43.269531 L 215.25 40.460938 Z M 223.890625 22.972656 " fill-opacity="1" fill-rule="nonzero"/><path fill="#00bf63" d="M 223.890625 22.972656 L 232.527344 40.460938 L 251.832031 43.269531 L 237.859375 56.890625 L 241.15625 76.113281 L 223.890625 67.039062 L 206.621094 76.113281 L 209.917969 56.890625 L 195.949219 43.269531 L 215.25 40.460938 Z M 223.890625 22.972656 " fill-opacity="1" fill-rule="nonzero"/><path fill="#00bf63" d="M 223.890625 22.972656 L 232.527344 40.460938 L 251.832031 43.269531 L 237.859375 56.890625 L 241.15625 76.113281 L 223.890625 67.039062 L 206.621094 76.113281 L 209.917969 56.890625 L 195.949219 43.269531 L 215.25 40.460938 Z M 223.890625 22.972656 " fill-opacity="1" fill-rule="nonzero"/></g><g clip-path="url(#47d5c752d4)"><path fill="#00bf63" d="M 297.796875 23.140625 L 306.425781 40.628906 L 325.726562 43.433594 L 311.757812 57.058594 L 315.066406 76.28125 L 297.796875 67.207031 L 280.519531 76.28125 L 283.816406 57.058594 L 269.855469 43.433594 L 289.160156 40.628906 Z M 297.796875 23.140625 " fill-opacity="1" fill-rule="nonzero"/></g><g clip-path="url(#691e758937)"><path fill="#00bf63" d="M 297.664062 22.972656 L 306.304688 40.460938 L 325.605469 43.269531 L 311.632812 56.890625 L 314.929688 76.113281 L 297.664062 67.039062 L 280.394531 76.113281 L 283.695312 56.890625 L 269.722656 43.269531 L 289.023438 40.460938 Z M 297.664062 22.972656 " fill-opacity="1" fill-rule="nonzero"/><path fill="#00bf63" d="M 297.664062 22.972656 L 306.304688 40.460938 L 325.605469 43.269531 L 311.632812 56.890625 L 314.929688 76.113281 L 297.664062 67.039062 L 280.394531 76.113281 L 283.695312 56.890625 L 269.722656 43.269531 L 289.023438 40.460938 Z M 297.664062 22.972656 " fill-opacity="1" fill-rule="nonzero"/><path fill="#00bf63" d="M 297.664062 22.972656 L 306.304688 40.460938 L 325.605469 43.269531 L 311.632812 56.890625 L 314.929688 76.113281 L 297.664062 67.039062 L 280.394531 76.113281 L 283.695312 56.890625 L 269.722656 43.269531 L 289.023438 40.460938 Z M 297.664062 22.972656 " fill-opacity="1" fill-rule="nonzero"/></g></svg>