<svg xmlns="http://www.w3.org/2000/svg" xmlns:xlink="http://www.w3.org/1999/xlink" width="500" zoomAndPan="magnify" viewBox="0 0 375 374.999991" height="500" preserveAspectRatio="xMidYMid meet" version="1.0"><defs><clipPath id="0031a83abe"><path d="M 122.394531 21.300781 L 178.644531 21.300781 L 178.644531 75.300781 L 122.394531 75.300781 Z M 122.394531 21.300781 " clip-rule="nonzero"/></clipPath><clipPath id="5316871494"><path d="M 122.394531 21.300781 L 178.644531 21.300781 L 178.644531 75 L 122.394531 75 Z M 122.394531 21.300781 " clip-rule="nonzero"/></clipPath><clipPath id="a127bb217c"><path d="M 58.398438 93.128906 L 316.398438 93.128906 L 316.398438 353.378906 L 58.398438 353.378906 Z M 58.398438 93.128906 " clip-rule="nonzero"/></clipPath><clipPath id="e32c550621"><path d="M 196.035156 21.300781 L 252.285156 21.300781 L 252.285156 75.300781 L 196.035156 75.300781 Z M 196.035156 21.300781 " clip-rule="nonzero"/></clipPath><clipPath id="ee7d175715"><path d="M 196.035156 21.300781 L 252.285156 21.300781 L 252.285156 75 L 196.035156 75 Z M 196.035156 21.300781 " clip-rule="nonzero"/></clipPath></defs><g clip-path="url(#0031a83abe)"><path fill="#00bf63" d="M 150.75 21.488281 L 159.464844 39.152344 L 178.960938 41.988281 L 164.851562 55.746094 L 168.191406 75.164062 L 150.75 65.996094 L 133.300781 75.164062 L 136.628906 55.746094 L 122.53125 41.988281 L 142.027344 39.152344 Z M 150.75 21.488281 " fill-opacity="1" fill-rule="nonzero"/></g><g clip-path="url(#5316871494)"><path fill="#00bf63" d="M 150.617188 21.316406 L 159.34375 38.984375 L 178.835938 41.816406 L 164.726562 55.578125 L 168.058594 74.996094 L 150.617188 65.828125 L 133.175781 74.996094 L 136.503906 55.578125 L 122.394531 41.816406 L 141.890625 38.984375 Z M 150.617188 21.316406 " fill-opacity="1" fill-rule="nonzero"/><path fill="#00bf63" d="M 150.617188 21.316406 L 159.34375 38.984375 L 178.835938 41.816406 L 164.726562 55.578125 L 168.058594 74.996094 L 150.617188 65.828125 L 133.175781 74.996094 L 136.503906 55.578125 L 122.394531 41.816406 L 141.890625 38.984375 Z M 150.617188 21.316406 " fill-opacity="1" fill-rule="nonzero"/><path fill="#00bf63" d="M 150.617188 21.316406 L 159.34375 38.984375 L 178.835938 41.816406 L 164.726562 55.578125 L 168.058594 74.996094 L 150.617188 65.828125 L 133.175781 74.996094 L 136.503906 55.578125 L 122.394531 41.816406 L 141.890625 38.984375 Z M 150.617188 21.316406 " fill-opacity="1" fill-rule="nonzero"/></g><path fill="#ffffff" d="M 297.839844 175.34375 L 297.839844 327.402344 C 297.839844 327.402344 210.460938 310.113281 187.722656 327.402344 L 187.515625 327.402344 C 164.777344 310.113281 77.398438 327.402344 77.398438 327.402344 L 77.398438 175.34375 C 89.175781 172.882812 106.054688 169.875 115.480469 168.488281 C 115.480469 168.488281 105.636719 178.871094 117.835938 186.976562 C 130.035156 195.089844 163.644531 185.9375 147.914062 166.226562 C 165.71875 166.050781 182.011719 169.417969 187.503906 171.832031 L 188.710938 171.433594 C 194.980469 169.0625 210.480469 166.0625 227.324219 166.226562 C 227.324219 166.226562 222.238281 181.460938 224.207031 184.597656 C 226.179688 187.734375 258.914062 192.570312 261.269531 184.597656 C 263.625 176.621094 262.101562 174.164062 259.761719 168.488281 C 269.183594 169.875 286.0625 172.882812 297.839844 175.34375 " fill-opacity="1" fill-rule="nonzero"/><path fill="#9ac8a8" d="M 314.234375 191.269531 L 314.234375 341.828125 L 60.777344 341.828125 L 60.777344 191.269531 L 77.398438 191.269531 L 77.398438 327.402344 C 77.398438 327.402344 164.777344 310.113281 187.515625 327.402344 C 210.25 310.113281 297.628906 327.402344 297.628906 327.402344 L 297.628906 191.269531 L 314.234375 191.269531 " fill-opacity="1" fill-rule="nonzero"/><g clip-path="url(#a127bb217c)"><path fill="#dfaa61" d="M 262.898438 117.324219 L 259.644531 114.066406 L 252.476562 121.234375 L 255.730469 124.492188 Z M 275.503906 104.71875 L 272.25 101.460938 L 265.082031 108.628906 L 268.335938 111.882812 Z M 275.503906 121.234375 L 268.335938 114.066406 L 265.082031 117.324219 L 272.25 124.492188 Z M 262.898438 108.628906 L 255.730469 101.460938 L 252.476562 104.71875 L 259.644531 111.882812 Z M 311.949219 193.570312 L 300.140625 193.570312 C 300.140625 193.871094 300.140625 194.164062 300.140625 194.464844 C 300.140625 238.777344 300.140625 283.089844 300.140625 327.402344 C 300.140625 328.988281 298.679688 329.90625 297.230469 329.625 C 293.683594 328.921875 290.117188 328.316406 286.550781 327.726562 C 269.628906 324.941406 252.527344 322.851562 235.382812 322.199219 C 226.472656 321.863281 217.46875 321.867188 208.609375 322.976562 C 201.820312 323.828125 194.511719 325.253906 188.886719 329.390625 C 188.25 329.855469 187.621094 329.910156 187.082031 329.714844 C 186.832031 329.660156 186.582031 329.5625 186.351562 329.390625 C 179.90625 324.648438 171.253906 323.363281 163.488281 322.636719 C 145.023438 320.914062 126.1875 322.648438 107.847656 324.945312 C 97.867188 326.191406 87.882812 327.671875 78.007812 329.625 C 76.5625 329.90625 75.097656 328.988281 75.097656 327.402344 C 75.097656 321.027344 75.097656 314.65625 75.097656 308.285156 C 75.097656 270.046875 75.097656 231.804688 75.097656 193.570312 L 63.078125 193.570312 L 63.0625 339.527344 L 311.933594 339.527344 Z M 111.640625 171.410156 C 100.953125 173.089844 90.300781 175.050781 79.699219 177.222656 C 79.699219 182.96875 79.699219 188.714844 79.699219 194.464844 C 79.699219 237.855469 79.699219 281.25 79.699219 324.640625 C 82.601562 324.109375 85.511719 323.605469 88.425781 323.132812 C 105.941406 320.28125 123.652344 318.109375 141.398438 317.542969 C 150.597656 317.246094 159.863281 317.375 168.984375 318.6875 C 174.460938 319.472656 180.226562 320.667969 185.214844 323.269531 C 185.214844 302.382812 185.214844 281.492188 185.214844 260.605469 C 185.214844 259.492188 185.859375 258.800781 186.671875 258.523438 L 151.59375 258.523438 L 151.59375 245.367188 L 165.136719 245.367188 L 165.136719 241.175781 C 165.136719 236.066406 169.292969 231.910156 174.40625 231.910156 L 174.429688 231.910156 L 174.429688 214.261719 C 174.429688 209.628906 177.851562 205.78125 182.296875 205.101562 L 182.296875 172.375 C 172.519531 169.289062 161.523438 168.613281 151.355469 168.535156 L 154.769531 176.128906 L 154.769531 179.109375 C 154.769531 189.234375 144.605469 197.472656 132.113281 197.472656 C 119.617188 197.472656 109.453125 189.234375 109.453125 179.109375 L 109.453125 176.488281 L 109.523438 176.488281 L 109.523438 176.128906 Z M 149.28125 163.925781 C 159.902344 163.929688 171.796875 164.484375 182.296875 167.574219 L 182.296875 141.320312 L 182.167969 141.035156 C 179.054688 134.234375 173.328125 129.234375 166.839844 127.660156 C 162.980469 126.726562 159.449219 127.21875 157.160156 129.019531 C 154.15625 131.378906 148.265625 135.613281 142.535156 137.484375 L 142.386719 137.527344 C 141.6875 137.703125 139.65625 138.179688 137.792969 138.367188 Z M 193.15625 167.511719 C 203.671875 164.457031 215.566406 163.925781 226.167969 163.925781 L 237.65625 138.371094 C 235.792969 138.1875 233.761719 137.703125 233.066406 137.527344 L 232.914062 137.484375 C 227.183594 135.613281 221.292969 131.375 218.289062 129.019531 C 216 127.21875 212.46875 126.726562 208.609375 127.660156 C 202.121094 129.230469 196.394531 134.234375 193.285156 141.035156 L 193.15625 141.320312 Z M 114.40625 176.488281 L 129.875 176.488281 L 129.875 142.074219 L 117.742188 169.074219 C 117.699219 169.480469 117.539062 169.855469 117.253906 170.144531 Z M 134.480469 142.226562 L 134.480469 176.488281 L 149.878906 176.488281 Z M 225.566406 176.488281 L 240.972656 176.488281 L 240.972656 142.226562 Z M 257.496094 168.597656 L 245.574219 142.074219 L 245.574219 176.488281 L 261.042969 176.488281 L 258.308594 170.414062 C 257.667969 170.011719 257.421875 169.316406 257.496094 168.597656 Z M 263.824219 171.445312 L 265.929688 176.128906 L 265.929688 176.488281 L 265.996094 176.488281 L 265.996094 179.109375 C 265.996094 189.234375 255.832031 197.472656 243.335938 197.472656 C 230.847656 197.472656 220.683594 189.234375 220.683594 179.109375 L 220.683594 176.128906 L 224.097656 168.535156 C 213.945312 168.605469 202.945312 169.265625 193.15625 172.316406 L 193.15625 205.101562 C 197.601562 205.78125 201.019531 209.628906 201.019531 214.261719 L 201.046875 231.910156 C 206.15625 231.910156 210.3125 236.066406 210.3125 241.175781 L 210.3125 245.367188 L 223.859375 245.367188 L 223.859375 258.523438 L 188.351562 258.523438 C 189.164062 258.800781 189.816406 259.492188 189.816406 260.605469 C 189.816406 281.53125 189.816406 302.457031 189.816406 323.382812 C 195.785156 320.1875 202.90625 319.023438 209.492188 318.269531 C 228.496094 316.09375 248.035156 317.933594 266.929688 320.28125 C 276.496094 321.46875 286.058594 322.863281 295.539062 324.640625 C 295.539062 319.1875 295.539062 313.738281 295.539062 308.285156 C 295.539062 264.597656 295.539062 220.910156 295.539062 177.222656 C 285.015625 175.066406 274.4375 173.117188 263.824219 171.445312 Z M 316.535156 344.132812 L 206.5 344.132812 C 204.765625 349.585938 196.980469 353.695312 187.636719 353.695312 C 178.289062 353.695312 170.507812 349.585938 168.769531 344.132812 L 58.457031 344.132812 L 58.476562 188.96875 L 75.097656 188.96875 C 75.097656 184.425781 75.097656 179.886719 75.097656 175.34375 C 75.097656 174.378906 75.808594 173.328125 76.785156 173.125 C 89.085938 170.574219 101.460938 168.300781 113.882812 166.425781 L 128.550781 133.796875 C 127.003906 131.160156 126.710938 127.785156 127.707031 123.972656 C 126.859375 122.96875 126.339844 121.671875 126.339844 120.253906 C 126.339844 117.074219 128.929688 114.484375 132.113281 114.484375 C 135.292969 114.484375 137.882812 117.074219 137.882812 120.253906 C 137.882812 122.910156 136.078125 125.140625 133.640625 125.8125 C 133.65625 127.199219 134.046875 128.410156 135.265625 128.785156 C 138.753906 129.863281 141.203125 127.597656 145.21875 123.503906 C 148.738281 119.914062 153.121094 115.445312 159.71875 113.839844 C 169.644531 111.429688 177.4375 114.628906 182.296875 118.402344 L 182.296875 114.46875 C 178.820312 112.511719 176.464844 108.792969 176.464844 104.53125 C 176.464844 98.242188 181.582031 93.128906 187.867188 93.128906 C 194.152344 93.128906 199.269531 98.242188 199.269531 104.53125 C 199.269531 108.910156 196.785156 112.710938 193.15625 114.621094 L 193.15625 118.402344 C 198.011719 114.628906 205.800781 111.429688 215.730469 113.839844 C 222.328125 115.445312 226.710938 119.914062 230.230469 123.503906 C 234.25 127.597656 236.695312 129.863281 240.183594 128.785156 C 241.402344 128.410156 241.792969 127.199219 241.808594 125.8125 C 239.367188 125.140625 237.570312 122.910156 237.570312 120.253906 C 237.570312 117.074219 240.160156 114.484375 243.335938 114.484375 C 246.519531 114.484375 249.105469 117.074219 249.105469 120.253906 C 249.105469 121.671875 248.59375 122.964844 247.742188 123.972656 C 248.734375 127.785156 248.449219 131.160156 246.898438 133.796875 L 261.582031 166.460938 C 273.925781 168.332031 286.226562 170.59375 298.453125 173.125 C 299.433594 173.328125 300.140625 174.386719 300.140625 175.34375 C 300.140625 179.886719 300.140625 184.425781 300.140625 188.96875 L 316.554688 188.96875 Z M 93.347656 145.414062 L 83.210938 145.414062 L 83.210938 150.015625 L 93.347656 150.015625 Z M 111.175781 145.414062 L 101.042969 145.414062 L 101.042969 150.015625 L 111.175781 150.015625 Z M 99.496094 151.5625 L 94.890625 151.5625 L 94.890625 161.699219 L 99.496094 161.699219 Z M 99.496094 133.730469 L 94.890625 133.730469 L 94.890625 143.867188 L 99.496094 143.867188 Z M 207.457031 209.34375 C 226 206.75 245.175781 208.457031 263.675781 210.570312 C 266.613281 210.910156 266.589844 206.304688 263.675781 205.96875 C 244.695312 203.800781 225.238281 202.242188 206.234375 204.90625 C 203.3125 205.316406 204.554688 209.753906 207.457031 209.34375 Z M 272.085938 211.621094 C 273.851562 211.859375 275.613281 212.113281 277.378906 212.367188 C 278.605469 212.546875 279.851562 212.066406 280.210938 210.757812 C 280.503906 209.675781 279.839844 208.109375 278.601562 207.929688 C 276.429688 207.613281 274.257812 207.3125 272.085938 207.019531 C 270.847656 206.855469 269.785156 208.199219 269.785156 209.320312 C 269.785156 210.707031 270.84375 211.457031 272.085938 211.621094 Z M 210.75 225.582031 C 222.65625 224.390625 234.640625 224.75 246.558594 225.589844 C 249.511719 225.796875 249.5 221.191406 246.558594 220.984375 C 234.640625 220.144531 222.65625 219.785156 210.75 220.976562 C 207.828125 221.273438 207.800781 225.878906 210.75 225.582031 Z M 256.273438 226.425781 C 263.328125 227.136719 270.359375 228.003906 277.378906 229.015625 C 280.273438 229.433594 281.527344 225 278.601562 224.578125 C 271.175781 223.503906 263.738281 222.574219 256.273438 221.824219 C 253.324219 221.523438 253.347656 226.132812 256.273438 226.425781 Z M 230.292969 241.484375 C 235.351562 241.574219 240.402344 241.8125 245.453125 242.152344 C 248.410156 242.355469 248.394531 237.75 245.453125 237.550781 C 240.402344 237.207031 235.351562 236.972656 230.292969 236.882812 C 227.328125 236.828125 227.328125 241.429688 230.292969 241.484375 Z M 251.464844 242.625 C 254.054688 242.851562 256.640625 243.101562 259.226562 243.375 C 260.476562 243.503906 261.519531 242.222656 261.53125 241.070312 C 261.542969 239.71875 260.460938 238.898438 259.226562 238.769531 C 256.640625 238.5 254.054688 238.246094 251.464844 238.019531 C 248.515625 237.761719 248.53125 242.371094 251.464844 242.625 Z M 264.726562 243.992188 C 268.953125 244.496094 273.167969 245.050781 277.378906 245.660156 C 280.273438 246.078125 281.527344 241.644531 278.601562 241.222656 C 273.984375 240.554688 269.359375 239.9375 264.726562 239.386719 C 261.792969 239.035156 261.816406 243.644531 264.726562 243.992188 Z M 228.652344 258.117188 C 244.96875 258.308594 261.238281 259.984375 277.378906 262.3125 C 280.273438 262.730469 281.527344 258.296875 278.601562 257.875 C 262.050781 255.488281 245.382812 253.710938 228.652344 253.511719 C 225.6875 253.476562 225.6875 258.078125 228.652344 258.117188 Z M 207.457031 275.941406 C 215.773438 274.777344 224.1875 274.648438 232.566406 274.828125 C 235.53125 274.894531 235.53125 270.289062 232.566406 270.226562 C 223.753906 270.039062 214.972656 270.28125 206.234375 271.503906 C 203.3125 271.910156 204.554688 276.34375 207.457031 275.941406 Z M 240.3125 275.136719 C 252.722656 275.835938 265.078125 277.1875 277.378906 278.960938 C 280.273438 279.378906 281.527344 274.945312 278.601562 274.523438 C 265.894531 272.6875 253.136719 271.257812 240.3125 270.535156 C 237.351562 270.367188 237.363281 274.96875 240.3125 275.136719 Z M 207.457031 292.589844 C 220.019531 290.835938 232.835938 291.257812 245.453125 292.101562 C 248.410156 292.300781 248.394531 287.699219 245.453125 287.5 C 232.382812 286.621094 219.238281 286.339844 206.234375 288.152344 C 203.3125 288.558594 204.554688 292.992188 207.457031 292.589844 Z M 253.179688 292.929688 C 255.960938 293.199219 258.738281 293.496094 261.511719 293.816406 C 262.757812 293.960938 263.800781 292.65625 263.8125 291.511719 C 263.828125 290.152344 262.742188 289.355469 261.511719 289.210938 C 258.738281 288.890625 255.960938 288.597656 253.179688 288.328125 C 250.234375 288.039062 250.257812 292.644531 253.179688 292.929688 Z M 268.800781 294.441406 C 271.664062 294.804688 274.519531 295.195312 277.378906 295.609375 C 278.617188 295.789062 279.835938 295.304688 280.210938 294.003906 C 280.519531 292.921875 279.828125 291.347656 278.601562 291.171875 C 275.339844 290.695312 272.074219 290.253906 268.800781 289.835938 C 267.558594 289.675781 266.515625 291.007812 266.5 292.140625 C 266.484375 293.511719 267.574219 294.28125 268.800781 294.441406 Z M 207.457031 309.238281 C 209.035156 309.007812 210.617188 308.832031 212.203125 308.675781 C 213.4375 308.5625 214.503906 307.707031 214.503906 306.375 C 214.503906 305.222656 213.445312 303.957031 212.203125 304.074219 C 210.207031 304.265625 208.21875 304.507812 206.234375 304.800781 C 205 304.980469 204.324219 306.535156 204.628906 307.628906 C 204.992188 308.949219 206.222656 309.417969 207.457031 309.238281 Z M 219.707031 308.191406 C 238.980469 307.523438 258.320312 309.511719 277.378906 312.257812 C 280.273438 312.675781 281.527344 308.242188 278.601562 307.820312 C 259.132812 305.011719 239.398438 302.902344 219.707031 303.585938 C 216.75 303.6875 216.738281 308.292969 219.707031 308.191406 Z M 168.949219 204.90625 C 149.945312 202.242188 130.484375 203.800781 111.507812 205.96875 C 108.597656 206.304688 108.566406 210.910156 111.507812 210.570312 C 130.007812 208.457031 149.1875 206.75 167.726562 209.34375 C 170.621094 209.753906 171.875 205.316406 168.949219 204.90625 Z M 103.097656 207.019531 C 100.925781 207.3125 98.753906 207.613281 96.582031 207.929688 C 95.351562 208.105469 94.675781 209.664062 94.972656 210.757812 C 95.335938 212.078125 96.570312 212.546875 97.804688 212.367188 C 99.570312 212.113281 101.332031 211.859375 103.097656 211.621094 C 104.332031 211.460938 105.402344 210.683594 105.402344 209.320312 C 105.402344 208.207031 104.339844 206.851562 103.097656 207.019531 Z M 164.433594 220.976562 C 152.527344 219.785156 140.546875 220.144531 128.628906 220.984375 C 125.6875 221.1875 125.664062 225.796875 128.628906 225.589844 C 140.546875 224.75 152.527344 224.390625 164.433594 225.582031 C 167.378906 225.875 167.359375 221.273438 164.433594 220.976562 Z M 118.910156 221.824219 C 111.445312 222.574219 104.003906 223.503906 96.582031 224.578125 C 93.660156 225 94.902344 229.433594 97.804688 229.015625 C 104.820312 228.003906 111.855469 227.136719 118.910156 226.425781 C 121.832031 226.132812 121.863281 221.523438 118.910156 221.824219 Z M 144.890625 236.882812 C 139.832031 236.972656 134.78125 237.207031 129.730469 237.550781 C 126.792969 237.746094 126.773438 242.355469 129.730469 242.152344 C 134.78125 241.8125 139.832031 241.574219 144.890625 241.484375 C 147.851562 241.429688 147.859375 236.824219 144.890625 236.882812 Z M 123.71875 238.019531 C 121.128906 238.246094 118.539062 238.5 115.957031 238.769531 C 114.707031 238.898438 113.667969 239.734375 113.65625 241.070312 C 113.640625 242.214844 114.71875 243.503906 115.957031 243.375 C 118.539062 243.101562 121.128906 242.851562 123.71875 242.625 C 126.644531 242.371094 126.675781 237.761719 123.71875 238.019531 Z M 110.457031 239.386719 C 105.824219 239.9375 101.199219 240.554688 96.582031 241.222656 C 93.660156 241.644531 94.902344 246.082031 97.804688 245.660156 C 102.015625 245.050781 106.230469 244.496094 110.457031 243.992188 C 113.359375 243.644531 113.394531 239.035156 110.457031 239.386719 Z M 146.53125 253.511719 C 129.796875 253.710938 113.132812 255.488281 96.582031 257.875 C 93.660156 258.296875 94.902344 262.730469 97.804688 262.3125 C 113.945312 259.984375 130.214844 258.308594 146.53125 258.117188 C 149.492188 258.078125 149.5 253.476562 146.53125 253.511719 Z M 168.949219 271.503906 C 160.214844 270.28125 151.429688 270.039062 142.617188 270.226562 C 139.660156 270.289062 139.648438 274.894531 142.617188 274.828125 C 151 274.648438 159.410156 274.777344 167.726562 275.941406 C 170.621094 276.34375 171.875 271.910156 168.949219 271.503906 Z M 134.871094 270.535156 C 122.050781 271.257812 109.289062 272.6875 96.582031 274.523438 C 93.660156 274.945312 94.902344 279.378906 97.804688 278.960938 C 110.105469 277.1875 122.460938 275.835938 134.871094 275.136719 C 137.816406 274.972656 137.835938 270.367188 134.871094 270.535156 Z M 168.949219 288.152344 C 155.949219 286.339844 142.800781 286.621094 129.730469 287.5 C 126.792969 287.699219 126.773438 292.300781 129.730469 292.101562 C 142.347656 291.257812 155.164062 290.835938 167.726562 292.589844 C 170.621094 292.992188 171.875 288.558594 168.949219 288.152344 Z M 122 288.328125 C 119.222656 288.597656 116.445312 288.890625 113.671875 289.210938 C 112.425781 289.355469 111.382812 290.167969 111.371094 291.511719 C 111.355469 292.648438 112.4375 293.960938 113.671875 293.816406 C 116.445312 293.496094 119.222656 293.199219 122 292.929688 C 124.921875 292.648438 124.953125 288.039062 122 288.328125 Z M 106.382812 289.835938 C 103.109375 290.253906 99.84375 290.695312 96.582031 291.171875 C 95.339844 291.347656 94.6875 292.910156 94.972656 294.003906 C 95.324219 295.324219 96.582031 295.785156 97.804688 295.609375 C 100.660156 295.195312 103.519531 294.804688 106.382812 294.441406 C 107.625 294.28125 108.671875 293.496094 108.683594 292.140625 C 108.695312 291.011719 107.617188 289.679688 106.382812 289.835938 Z M 168.949219 304.800781 C 166.96875 304.507812 164.980469 304.265625 162.984375 304.074219 C 161.742188 303.957031 160.679688 305.21875 160.679688 306.375 C 160.679688 307.71875 161.738281 308.5625 162.984375 308.675781 C 164.570312 308.832031 166.152344 309.007812 167.726562 309.238281 C 168.957031 309.414062 170.199219 308.933594 170.558594 307.628906 C 170.855469 306.546875 170.1875 304.980469 168.949219 304.800781 Z M 155.476562 303.585938 C 158.4375 303.6875 158.441406 308.292969 155.476562 308.191406 C 136.203125 307.523438 116.863281 309.511719 97.804688 312.257812 C 94.902344 312.675781 93.660156 308.242188 96.582031 307.820312 C 116.050781 305.011719 135.78125 302.902344 155.476562 303.585938 " fill-opacity="1" fill-rule="nonzero"/></g><g clip-path="url(#e32c550621)"><path fill="#00bf63" d="M 224.390625 21.488281 L 233.105469 39.152344 L 252.601562 41.988281 L 238.488281 55.746094 L 241.832031 75.164062 L 224.390625 65.996094 L 206.9375 75.164062 L 210.269531 55.746094 L 196.167969 41.988281 L 215.664062 39.152344 Z M 224.390625 21.488281 " fill-opacity="1" fill-rule="nonzero"/></g><g clip-path="url(#ee7d175715)"><path fill="#00bf63" d="M 224.253906 21.316406 L 232.980469 38.984375 L 252.476562 41.816406 L 238.367188 55.578125 L 241.695312 74.996094 L 224.253906 65.828125 L 206.816406 74.996094 L 210.144531 55.578125 L 196.035156 41.816406 L 215.53125 38.984375 Z M 224.253906 21.316406 " fill-opacity="1" fill-rule="nonzero"/><path fill="#00bf63" d="M 224.253906 21.316406 L 232.980469 38.984375 L 252.476562 41.816406 L 238.367188 55.578125 L 241.695312 74.996094 L 224.253906 65.828125 L 206.816406 74.996094 L 210.144531 55.578125 L 196.035156 41.816406 L 215.53125 38.984375 Z M 224.253906 21.316406 " fill-opacity="1" fill-rule="nonzero"/><path fill="#00bf63" d="M 224.253906 21.316406 L 232.980469 38.984375 L 252.476562 41.816406 L 238.367188 55.578125 L 241.695312 74.996094 L 224.253906 65.828125 L 206.816406 74.996094 L 210.144531 55.578125 L 196.035156 41.816406 L 215.53125 38.984375 Z M 224.253906 21.316406 " fill-opacity="1" fill-rule="nonzero"/></g></svg>