<svg xmlns="http://www.w3.org/2000/svg" xmlns:xlink="http://www.w3.org/1999/xlink" width="500" zoomAndPan="magnify" viewBox="0 0 375 374.999991" height="500" preserveAspectRatio="xMidYMid meet" version="1.0"><defs><clipPath id="2e4eb33d6a"><path d="M 119 11.113281 L 178.136719 11.113281 L 178.136719 67.363281 L 119 67.363281 Z M 119 11.113281 " clip-rule="nonzero"/></clipPath><clipPath id="dc9fefbf3e"><path d="M 118.886719 11.113281 L 178.136719 11.113281 L 178.136719 67.363281 L 118.886719 67.363281 Z M 118.886719 11.113281 " clip-rule="nonzero"/></clipPath><clipPath id="e13f9d32e7"><path d="M 55.625 100.132812 L 319.625 100.132812 L 319.625 364 L 55.625 364 Z M 55.625 100.132812 " clip-rule="nonzero"/></clipPath><clipPath id="3e058c1148"><path d="M 197.074219 11.113281 L 256.324219 11.113281 L 256.324219 67.363281 L 197.074219 67.363281 Z M 197.074219 11.113281 " clip-rule="nonzero"/></clipPath></defs><g clip-path="url(#2e4eb33d6a)"><path fill="#ffffff" d="M 148.589844 11.304688 L 157.714844 29.75 L 178.136719 32.707031 L 163.355469 47.078125 L 166.855469 67.351562 L 148.589844 57.78125 L 130.308594 67.351562 L 133.796875 47.078125 L 119.027344 32.707031 L 139.449219 29.75 Z M 148.589844 11.304688 " fill-opacity="1" fill-rule="nonzero"/></g><g clip-path="url(#dc9fefbf3e)"><path fill="#ffffff" d="M 148.445312 11.128906 L 157.585938 29.574219 L 178.007812 32.53125 L 163.226562 46.898438 L 166.714844 67.171875 L 148.445312 57.601562 L 130.179688 67.171875 L 133.667969 46.898438 L 118.886719 32.53125 L 139.304688 29.574219 Z M 148.445312 11.128906 " fill-opacity="1" fill-rule="nonzero"/><path fill="#ffffff" d="M 148.445312 11.128906 L 157.585938 29.574219 L 178.007812 32.53125 L 163.226562 46.898438 L 166.714844 67.171875 L 148.445312 57.601562 L 130.179688 67.171875 L 133.667969 46.898438 L 118.886719 32.53125 L 139.304688 29.574219 Z M 148.445312 11.128906 " fill-opacity="1" fill-rule="nonzero"/><path fill="#ffffff" d="M 148.445312 11.128906 L 157.585938 29.574219 L 178.007812 32.53125 L 163.226562 46.898438 L 166.714844 67.171875 L 148.445312 57.601562 L 130.179688 67.171875 L 133.667969 46.898438 L 118.886719 32.53125 L 139.304688 29.574219 Z M 148.445312 11.128906 " fill-opacity="1" fill-rule="nonzero"/></g><g clip-path="url(#e13f9d32e7)"><path fill="#ffffff" d="M 319.363281 232.003906 C 319.363281 304.835938 260.324219 363.875 187.496094 363.875 C 114.664062 363.875 55.625 304.835938 55.625 232.003906 C 55.625 159.175781 114.664062 100.136719 187.496094 100.136719 C 260.324219 100.136719 319.363281 159.175781 319.363281 232.003906 " fill-opacity="1" fill-rule="nonzero"/></g><path fill="#dfaa61" d="M 137.402344 204.023438 C 137.632812 211.320312 143.640625 217.1875 150.992188 217.1875 C 158.347656 217.1875 164.355469 211.320312 164.589844 204.023438 L 150.992188 170.535156 Z M 150.992188 221.839844 C 140.929688 221.839844 132.738281 213.652344 132.738281 203.585938 C 132.738281 203.285156 132.796875 202.988281 132.910156 202.710938 L 148.839844 163.472656 C 149.195312 162.59375 150.046875 162.019531 150.992188 162.019531 C 151.941406 162.019531 152.792969 162.59375 153.148438 163.472656 L 169.078125 202.710938 C 169.191406 202.988281 169.25 203.285156 169.25 203.585938 C 169.25 213.652344 161.058594 221.839844 150.992188 221.839844 " fill-opacity="1" fill-rule="nonzero"/><path fill="#dfaa61" d="M 166.921875 205.914062 L 135.066406 205.914062 C 133.78125 205.914062 132.738281 204.871094 132.738281 203.585938 C 132.738281 202.300781 133.78125 201.257812 135.066406 201.257812 L 166.921875 201.257812 C 168.207031 201.257812 169.25 202.300781 169.25 203.585938 C 169.25 204.871094 168.207031 205.914062 166.921875 205.914062 " fill-opacity="1" fill-rule="nonzero"/><path fill="#dfaa61" d="M 210.402344 204.023438 C 210.632812 211.320312 216.644531 217.1875 223.996094 217.1875 C 231.347656 217.1875 237.359375 211.320312 237.589844 204.023438 L 223.996094 170.535156 Z M 223.996094 221.839844 C 213.929688 221.839844 205.742188 213.652344 205.742188 203.585938 C 205.742188 203.285156 205.796875 202.988281 205.914062 202.710938 L 221.839844 163.472656 C 222.195312 162.59375 223.046875 162.019531 223.996094 162.019531 C 224.941406 162.019531 225.796875 162.59375 226.152344 163.472656 L 242.078125 202.710938 C 242.191406 202.988281 242.25 203.285156 242.25 203.585938 C 242.25 213.652344 234.0625 221.839844 223.996094 221.839844 " fill-opacity="1" fill-rule="nonzero"/><path fill="#dfaa61" d="M 239.921875 205.914062 L 208.070312 205.914062 C 206.78125 205.914062 205.742188 204.871094 205.742188 203.585938 C 205.742188 202.300781 206.78125 201.257812 208.070312 201.257812 L 239.921875 201.257812 C 241.207031 201.257812 242.25 202.300781 242.25 203.585938 C 242.25 204.871094 241.207031 205.914062 239.921875 205.914062 " fill-opacity="1" fill-rule="nonzero"/><path fill="#dfaa61" d="M 164.78125 300.835938 C 164.1875 300.835938 163.59375 300.609375 163.136719 300.15625 C 162.230469 299.246094 162.226562 297.773438 163.136719 296.867188 L 169.015625 290.984375 C 170.996094 289.007812 173.308594 287.460938 175.894531 286.390625 C 178.476562 285.320312 181.207031 284.777344 184.003906 284.777344 L 214.578125 284.777344 C 219.199219 284.777344 223.992188 282.582031 227.410156 278.902344 L 255.03125 247.074219 C 256.101562 245.839844 256.6875 244.265625 256.6875 242.640625 C 256.6875 240.675781 255.839844 238.808594 254.355469 237.523438 C 251.535156 235.078125 247.253906 235.378906 244.804688 238.199219 L 224.628906 261.449219 C 223.789062 262.421875 222.316406 262.523438 221.347656 261.679688 C 220.375 260.839844 220.273438 259.371094 221.113281 258.398438 L 241.289062 235.148438 C 245.417969 230.390625 252.648438 229.878906 257.40625 234.007812 C 259.90625 236.179688 261.34375 239.324219 261.34375 242.640625 C 261.34375 245.386719 260.351562 248.042969 258.546875 250.121094 L 230.898438 281.984375 C 230.882812 282 230.867188 282.019531 230.851562 282.039062 C 226.503906 286.738281 220.570312 289.429688 214.578125 289.429688 L 184.003906 289.429688 C 179.585938 289.429688 175.433594 291.152344 172.308594 294.277344 L 166.429688 300.15625 C 165.972656 300.609375 165.378906 300.835938 164.78125 300.835938 " fill-opacity="1" fill-rule="nonzero"/><path fill="#dfaa61" d="M 119.265625 281.570312 L 148.847656 311.152344 L 161.492188 298.511719 L 131.910156 268.925781 Z M 148.847656 316.773438 C 148.253906 316.773438 147.65625 316.542969 147.203125 316.089844 L 114.328125 283.214844 C 113.890625 282.78125 113.648438 282.1875 113.648438 281.570312 C 113.648438 280.953125 113.890625 280.363281 114.328125 279.925781 L 130.261719 263.992188 C 131.171875 263.082031 132.644531 263.082031 133.554688 263.992188 L 166.425781 296.863281 C 166.863281 297.300781 167.109375 297.894531 167.109375 298.511719 C 167.109375 299.128906 166.863281 299.71875 166.425781 300.15625 L 150.492188 316.089844 C 150.039062 316.542969 149.445312 316.773438 148.847656 316.773438 " fill-opacity="1" fill-rule="nonzero"/><path fill="#dfaa61" d="M 214.117188 271.84375 L 181.675781 271.84375 C 180.390625 271.84375 179.351562 270.804688 179.351562 269.519531 C 179.351562 268.234375 180.390625 267.191406 181.675781 267.191406 L 214.117188 267.191406 C 217.679688 267.191406 220.582031 264.289062 220.582031 260.726562 C 220.582031 260.527344 220.574219 260.332031 220.554688 260.148438 C 220.554688 260.144531 220.554688 260.136719 220.554688 260.128906 C 220.421875 258.636719 219.757812 257.222656 218.6875 256.15625 C 217.46875 254.933594 215.84375 254.261719 214.117188 254.261719 L 153.425781 254.261719 C 149.007812 254.261719 144.851562 255.980469 141.730469 259.105469 L 133.554688 267.28125 C 132.644531 268.191406 131.171875 268.191406 130.261719 267.28125 C 129.355469 266.371094 129.355469 264.898438 130.261719 263.992188 L 138.4375 255.816406 C 140.417969 253.835938 142.730469 252.289062 145.3125 251.21875 C 147.898438 250.148438 150.625 249.605469 153.425781 249.605469 L 214.117188 249.605469 C 217.085938 249.605469 219.878906 250.765625 221.980469 252.863281 C 223.816406 254.703125 224.957031 257.132812 225.1875 259.707031 C 225.21875 260.039062 225.238281 260.382812 225.238281 260.726562 C 225.238281 266.855469 220.246094 271.84375 214.117188 271.84375 " fill-opacity="1" fill-rule="nonzero"/><path fill="#dfaa61" d="M 191.65625 246.546875 L 183.332031 246.546875 C 182.046875 246.546875 181.007812 245.503906 181.007812 244.21875 L 181.007812 170.574219 C 181.007812 169.289062 182.046875 168.246094 183.332031 168.246094 C 184.617188 168.246094 185.660156 169.289062 185.660156 170.574219 L 185.660156 241.890625 L 189.332031 241.890625 L 189.332031 170.574219 C 189.332031 169.289062 190.371094 168.246094 191.65625 168.246094 C 192.941406 168.246094 193.984375 169.289062 193.984375 170.574219 L 193.984375 244.21875 C 193.984375 245.503906 192.941406 246.546875 191.65625 246.546875 " fill-opacity="1" fill-rule="nonzero"/><path fill="#dfaa61" d="M 172.402344 249.605469 L 202.589844 249.605469 L 202.589844 246.546875 L 172.402344 246.546875 Z M 204.917969 254.261719 L 170.074219 254.261719 C 168.789062 254.261719 167.746094 253.21875 167.746094 251.933594 L 167.746094 244.21875 C 167.746094 242.933594 168.789062 241.890625 170.074219 241.890625 L 204.917969 241.890625 C 206.199219 241.890625 207.242188 242.933594 207.242188 244.21875 L 207.242188 251.933594 C 207.242188 253.21875 206.199219 254.261719 204.917969 254.261719 " fill-opacity="1" fill-rule="nonzero"/><path fill="#dfaa61" d="M 187.496094 159.539062 C 184.84375 159.539062 182.6875 161.695312 182.6875 164.347656 C 182.6875 167 184.84375 169.15625 187.496094 169.15625 C 190.144531 169.15625 192.304688 167 192.304688 164.347656 C 192.304688 161.695312 190.144531 159.539062 187.496094 159.539062 Z M 187.496094 173.808594 C 182.277344 173.808594 178.035156 169.566406 178.035156 164.347656 C 178.035156 159.128906 182.277344 154.886719 187.496094 154.886719 C 192.710938 154.886719 196.957031 159.128906 196.957031 164.347656 C 196.957031 169.566406 192.710938 173.808594 187.496094 173.808594 " fill-opacity="1" fill-rule="nonzero"/><path fill="#dfaa61" d="M 233.621094 166.675781 L 194.628906 166.675781 C 193.34375 166.675781 192.300781 165.632812 192.300781 164.347656 C 192.300781 163.0625 193.34375 162.019531 194.628906 162.019531 L 233.621094 162.019531 C 234.902344 162.019531 235.945312 163.0625 235.945312 164.347656 C 235.945312 165.632812 234.902344 166.675781 233.621094 166.675781 " fill-opacity="1" fill-rule="nonzero"/><path fill="#dfaa61" d="M 180.359375 166.675781 L 141.371094 166.675781 C 140.085938 166.675781 139.042969 165.632812 139.042969 164.347656 C 139.042969 163.0625 140.085938 162.019531 141.371094 162.019531 L 180.359375 162.019531 C 181.644531 162.019531 182.6875 163.0625 182.6875 164.347656 C 182.6875 165.632812 181.644531 166.675781 180.359375 166.675781 " fill-opacity="1" fill-rule="nonzero"/><path fill="#dfaa61" d="M 190.976562 160.449219 C 189.695312 160.449219 188.652344 159.40625 188.652344 158.121094 L 188.652344 153.050781 C 188.652344 152.410156 188.132812 151.894531 187.496094 151.894531 C 186.855469 151.894531 186.335938 152.410156 186.335938 153.050781 L 186.335938 158.121094 C 186.335938 159.40625 185.296875 160.449219 184.011719 160.449219 C 182.726562 160.449219 181.683594 159.40625 181.683594 158.121094 L 181.683594 153.050781 C 181.683594 149.84375 184.289062 147.238281 187.496094 147.238281 C 190.699219 147.238281 193.304688 149.84375 193.304688 153.050781 L 193.304688 158.121094 C 193.304688 159.40625 192.265625 160.449219 190.976562 160.449219 " fill-opacity="1" fill-rule="nonzero"/><g clip-path="url(#3e058c1148)"><path fill="#ffffff" d="M 226.773438 11.304688 L 235.902344 29.75 L 256.324219 32.707031 L 241.542969 47.078125 L 245.042969 67.351562 L 226.773438 57.78125 L 208.496094 67.351562 L 211.984375 47.078125 L 197.214844 32.707031 L 217.632812 29.75 Z M 226.773438 11.304688 " fill-opacity="1" fill-rule="nonzero"/><path fill="#ffffff" d="M 226.632812 11.128906 L 235.773438 29.574219 L 256.191406 32.53125 L 241.414062 46.898438 L 244.902344 67.171875 L 226.632812 57.601562 L 208.363281 67.171875 L 211.851562 46.898438 L 197.074219 32.53125 L 217.492188 29.574219 Z M 226.632812 11.128906 " fill-opacity="1" fill-rule="nonzero"/><path fill="#ffffff" d="M 226.632812 11.128906 L 235.773438 29.574219 L 256.191406 32.53125 L 241.414062 46.898438 L 244.902344 67.171875 L 226.632812 57.601562 L 208.363281 67.171875 L 211.851562 46.898438 L 197.074219 32.53125 L 217.492188 29.574219 Z M 226.632812 11.128906 " fill-opacity="1" fill-rule="nonzero"/><path fill="#ffffff" d="M 226.632812 11.128906 L 235.773438 29.574219 L 256.191406 32.53125 L 241.414062 46.898438 L 244.902344 67.171875 L 226.632812 57.601562 L 208.363281 67.171875 L 211.851562 46.898438 L 197.074219 32.53125 L 217.492188 29.574219 Z M 226.632812 11.128906 " fill-opacity="1" fill-rule="nonzero"/></g></svg>