<svg xmlns="http://www.w3.org/2000/svg" xmlns:xlink="http://www.w3.org/1999/xlink" width="500" zoomAndPan="magnify" viewBox="0 0 375 374.999991" height="500" preserveAspectRatio="xMidYMid meet" version="1.0"><defs><clipPath id="c8e6bdff7e"><path d="M 18.671875 37.5 L 72.671875 37.5 L 72.671875 89 L 18.671875 89 Z M 18.671875 37.5 " clip-rule="nonzero"/></clipPath><clipPath id="292f38c9da"><path d="M 64.277344 106.058594 L 311 106.058594 L 311 355 L 64.277344 355 Z M 64.277344 106.058594 " clip-rule="nonzero"/></clipPath><clipPath id="bcc4a660f3"><path d="M 89 37.5 L 142.960938 37.5 L 142.960938 89 L 89 89 Z M 89 37.5 " clip-rule="nonzero"/></clipPath><clipPath id="2766ae493e"><path d="M 88.960938 37.5 L 142.960938 37.5 L 142.960938 89 L 88.960938 89 Z M 88.960938 37.5 " clip-rule="nonzero"/></clipPath><clipPath id="3cf1a132bd"><path d="M 160.082031 37.5 L 214.082031 37.5 L 214.082031 89 L 160.082031 89 Z M 160.082031 37.5 " clip-rule="nonzero"/></clipPath><clipPath id="237cc81904"><path d="M 160.082031 37.5 L 214 37.5 L 214 89 L 160.082031 89 Z M 160.082031 37.5 " clip-rule="nonzero"/></clipPath><clipPath id="e2641082a1"><path d="M 231.207031 37.5 L 285.207031 37.5 L 285.207031 89 L 231.207031 89 Z M 231.207031 37.5 " clip-rule="nonzero"/></clipPath><clipPath id="6315dfab36"><path d="M 302.332031 37.5 L 356.332031 37.5 L 356.332031 89 L 302.332031 89 Z M 302.332031 37.5 " clip-rule="nonzero"/></clipPath></defs><g clip-path="url(#c8e6bdff7e)"><path fill="#00bf63" d="M 45.738281 37.675781 L 54.054688 54.539062 L 72.660156 57.242188 L 59.195312 70.375 L 62.382812 88.90625 L 45.738281 80.160156 L 29.082031 88.90625 L 32.257812 70.375 L 18.800781 57.242188 L 37.410156 54.539062 Z M 45.738281 37.675781 " fill-opacity="1" fill-rule="nonzero"/><path fill="#00bf63" d="M 45.609375 37.515625 L 53.9375 54.375 L 72.542969 57.082031 L 59.074219 70.214844 L 62.253906 88.746094 L 45.609375 79.996094 L 28.960938 88.746094 L 32.140625 70.214844 L 18.671875 57.082031 L 37.28125 54.375 Z M 45.609375 37.515625 " fill-opacity="1" fill-rule="nonzero"/><path fill="#00bf63" d="M 45.609375 37.515625 L 53.9375 54.375 L 72.542969 57.082031 L 59.074219 70.214844 L 62.253906 88.746094 L 45.609375 79.996094 L 28.960938 88.746094 L 32.140625 70.214844 L 18.671875 57.082031 L 37.28125 54.375 Z M 45.609375 37.515625 " fill-opacity="1" fill-rule="nonzero"/><path fill="#00bf63" d="M 45.609375 37.515625 L 53.9375 54.375 L 72.542969 57.082031 L 59.074219 70.214844 L 62.253906 88.746094 L 45.609375 79.996094 L 28.960938 88.746094 L 32.140625 70.214844 L 18.671875 57.082031 L 37.28125 54.375 Z M 45.609375 37.515625 " fill-opacity="1" fill-rule="nonzero"/></g><path fill="#ffffff" d="M 292.820312 184.53125 L 292.820312 329.667969 C 292.820312 329.667969 209.414062 313.167969 187.714844 329.667969 L 187.515625 329.667969 C 165.8125 313.167969 82.410156 329.667969 82.410156 329.667969 L 82.410156 184.53125 C 93.652344 182.183594 109.761719 179.3125 118.757812 177.988281 C 118.757812 177.988281 109.363281 187.898438 121.003906 195.636719 C 132.648438 203.378906 164.730469 194.644531 149.714844 175.828125 C 166.710938 175.660156 182.261719 178.875 187.503906 181.179688 L 188.65625 180.800781 C 194.640625 178.539062 209.433594 175.671875 225.511719 175.828125 C 225.511719 175.828125 220.65625 190.371094 222.535156 193.363281 C 224.417969 196.359375 255.664062 200.976562 257.914062 193.363281 C 260.160156 185.75 258.707031 183.40625 256.472656 177.988281 C 265.464844 179.3125 281.574219 182.183594 292.820312 184.53125 " fill-opacity="1" fill-rule="nonzero"/><path fill="#9ac8a8" d="M 308.464844 199.734375 L 308.464844 343.441406 L 66.546875 343.441406 L 66.546875 199.734375 L 82.410156 199.734375 L 82.410156 329.667969 C 82.410156 329.667969 165.8125 313.167969 187.515625 329.667969 C 209.214844 313.167969 292.617188 329.667969 292.617188 329.667969 L 292.617188 199.734375 L 308.464844 199.734375 " fill-opacity="1" fill-rule="nonzero"/><g clip-path="url(#292f38c9da)"><path fill="#dfaa61" d="M 259.46875 129.152344 L 256.359375 126.046875 L 249.519531 132.886719 L 252.625 135.996094 Z M 271.5 117.121094 L 268.394531 114.011719 L 261.550781 120.855469 L 264.660156 123.957031 Z M 271.5 132.886719 L 264.660156 126.046875 L 261.550781 129.152344 L 268.394531 135.996094 Z M 259.46875 120.855469 L 252.625 114.011719 L 249.519531 117.121094 L 256.359375 123.957031 Z M 306.285156 201.929688 L 295.015625 201.929688 C 295.015625 202.214844 295.015625 202.496094 295.015625 202.78125 C 295.015625 245.078125 295.015625 287.375 295.015625 329.667969 C 295.015625 331.183594 293.617188 332.0625 292.234375 331.789062 C 288.851562 331.121094 285.449219 330.542969 282.042969 329.980469 C 265.890625 327.320312 249.566406 325.324219 233.203125 324.703125 C 224.699219 324.382812 216.101562 324.386719 207.648438 325.445312 C 201.167969 326.257812 194.191406 327.617188 188.820312 331.566406 C 188.214844 332.011719 187.613281 332.066406 187.101562 331.875 C 186.863281 331.824219 186.625 331.730469 186.40625 331.566406 C 180.253906 327.042969 171.992188 325.816406 164.582031 325.125 C 146.957031 323.476562 128.976562 325.132812 111.472656 327.324219 C 101.945312 328.515625 92.414062 329.929688 82.992188 331.789062 C 81.613281 332.0625 80.210938 331.183594 80.210938 329.667969 C 80.210938 323.585938 80.210938 317.503906 80.210938 311.421875 C 80.210938 274.921875 80.210938 238.425781 80.210938 201.929688 L 68.742188 201.929688 L 68.726562 341.242188 L 306.269531 341.242188 Z M 115.09375 180.777344 C 104.890625 182.378906 94.722656 184.253906 84.605469 186.328125 C 84.605469 191.808594 84.605469 197.296875 84.605469 202.78125 C 84.605469 244.199219 84.605469 285.617188 84.605469 327.035156 C 87.375 326.527344 90.152344 326.046875 92.933594 325.59375 C 109.652344 322.875 126.558594 320.800781 143.496094 320.257812 C 152.273438 319.976562 161.121094 320.101562 169.828125 321.351562 C 175.050781 322.101562 180.558594 323.242188 185.316406 325.722656 C 185.316406 305.789062 185.316406 285.851562 185.316406 265.914062 C 185.316406 264.851562 185.933594 264.1875 186.710938 263.925781 L 153.226562 263.925781 L 153.226562 251.367188 L 166.15625 251.367188 L 166.15625 247.367188 C 166.15625 242.488281 170.121094 238.523438 175 238.523438 L 175.023438 238.523438 L 175.023438 221.679688 C 175.023438 217.257812 178.289062 213.585938 182.53125 212.9375 L 182.53125 181.699219 C 173.203125 178.753906 162.703125 178.109375 153 178.035156 L 156.257812 185.28125 L 156.257812 188.125 C 156.257812 197.789062 146.554688 205.65625 134.632812 205.65625 C 122.707031 205.65625 113.007812 197.789062 113.007812 188.125 L 113.007812 185.625 L 113.070312 185.625 L 113.070312 185.28125 Z M 151.023438 173.632812 C 161.160156 173.640625 172.511719 174.167969 182.53125 177.117188 L 182.53125 152.058594 L 182.410156 151.785156 C 179.441406 145.292969 173.972656 140.523438 167.78125 139.019531 C 164.09375 138.125 160.726562 138.597656 158.539062 140.316406 C 155.675781 142.566406 150.050781 146.609375 144.582031 148.398438 L 144.4375 148.4375 C 143.773438 148.605469 141.832031 149.058594 140.054688 149.238281 Z M 192.898438 177.054688 C 202.933594 174.140625 214.289062 173.632812 224.40625 173.632812 L 235.371094 149.242188 C 233.59375 149.066406 231.65625 148.605469 230.992188 148.4375 L 230.847656 148.398438 C 225.375 146.609375 219.757812 142.566406 216.890625 140.316406 C 214.703125 138.597656 211.332031 138.125 207.648438 139.019531 C 201.457031 140.519531 195.988281 145.292969 193.019531 151.785156 L 192.898438 152.058594 Z M 117.734375 185.625 L 132.5 185.625 L 132.5 152.777344 L 120.914062 178.546875 C 120.875 178.9375 120.722656 179.292969 120.453125 179.570312 Z M 136.890625 152.921875 L 136.890625 185.625 L 151.59375 185.625 Z M 223.835938 185.625 L 238.539062 185.625 L 238.539062 152.921875 Z M 254.3125 178.09375 L 242.929688 152.777344 L 242.929688 185.625 L 257.695312 185.625 L 255.085938 179.824219 C 254.472656 179.445312 254.238281 178.777344 254.3125 178.09375 Z M 260.351562 180.8125 L 262.359375 185.28125 L 262.359375 185.625 L 262.421875 185.625 L 262.421875 188.125 C 262.421875 197.789062 252.722656 205.65625 240.796875 205.65625 C 228.875 205.65625 219.171875 197.789062 219.171875 188.125 L 219.171875 185.28125 L 222.429688 178.035156 C 212.742188 178.101562 202.242188 178.730469 192.898438 181.640625 L 192.898438 212.9375 C 197.140625 213.585938 200.40625 217.257812 200.40625 221.679688 L 200.429688 238.523438 C 205.308594 238.523438 209.273438 242.488281 209.273438 247.367188 L 209.273438 251.367188 L 222.203125 251.367188 L 222.203125 263.925781 L 188.3125 263.925781 C 189.089844 264.1875 189.710938 264.851562 189.710938 265.914062 C 189.710938 285.886719 189.710938 305.859375 189.710938 325.832031 C 195.410156 322.78125 202.203125 321.671875 208.492188 320.953125 C 226.628906 318.875 245.28125 320.632812 263.316406 322.875 C 272.445312 324.007812 281.570312 325.339844 290.621094 327.035156 C 290.621094 321.832031 290.621094 316.625 290.621094 311.421875 C 290.621094 269.722656 290.621094 228.023438 290.621094 186.328125 C 280.578125 184.269531 270.480469 182.40625 260.351562 180.8125 Z M 310.664062 345.636719 L 205.636719 345.636719 C 203.976562 350.84375 196.550781 354.765625 187.628906 354.765625 C 178.707031 354.765625 171.28125 350.84375 169.621094 345.636719 L 64.332031 345.636719 L 64.347656 197.535156 L 80.210938 197.535156 C 80.210938 193.199219 80.210938 188.867188 80.210938 184.53125 C 80.210938 183.613281 80.890625 182.609375 81.824219 182.414062 C 93.566406 179.980469 105.378906 177.808594 117.230469 176.019531 L 131.234375 144.875 C 129.753906 142.359375 129.476562 139.140625 130.429688 135.5 C 129.617188 134.542969 129.125 133.304688 129.125 131.949219 C 129.125 128.914062 131.59375 126.445312 134.632812 126.445312 C 137.667969 126.445312 140.140625 128.914062 140.140625 131.949219 C 140.140625 134.484375 138.421875 136.617188 136.09375 137.253906 C 136.105469 138.578125 136.480469 139.734375 137.644531 140.09375 C 140.972656 141.121094 143.308594 138.960938 147.144531 135.050781 C 150.503906 131.625 154.683594 127.359375 160.984375 125.828125 C 170.457031 123.527344 177.894531 126.582031 182.53125 130.183594 L 182.53125 126.425781 C 179.214844 124.558594 176.96875 121.007812 176.96875 116.941406 C 176.96875 110.941406 181.851562 106.058594 187.851562 106.058594 C 193.851562 106.058594 198.734375 110.941406 198.734375 116.941406 C 198.734375 121.121094 196.359375 124.75 192.898438 126.574219 L 192.898438 130.183594 C 197.535156 126.582031 204.96875 123.527344 214.445312 125.828125 C 220.746094 127.359375 224.925781 131.625 228.285156 135.050781 C 232.121094 138.960938 234.457031 141.121094 237.785156 140.09375 C 238.949219 139.734375 239.324219 138.578125 239.335938 137.253906 C 237.007812 136.617188 235.289062 134.484375 235.289062 131.949219 C 235.289062 128.914062 237.761719 126.445312 240.796875 126.445312 C 243.835938 126.445312 246.300781 128.914062 246.300781 131.949219 C 246.300781 133.304688 245.8125 134.539062 245 135.5 C 245.949219 139.140625 245.675781 142.359375 244.195312 144.875 L 258.210938 176.050781 C 269.992188 177.835938 281.734375 179.996094 293.402344 182.414062 C 294.339844 182.609375 295.015625 183.617188 295.015625 184.53125 C 295.015625 188.867188 295.015625 193.199219 295.015625 197.535156 L 310.679688 197.535156 Z M 97.632812 155.964844 L 87.957031 155.964844 L 87.957031 160.359375 L 97.632812 160.359375 Z M 114.652344 155.964844 L 104.976562 155.964844 L 104.976562 160.359375 L 114.652344 160.359375 Z M 103.5 161.832031 L 99.105469 161.832031 L 99.105469 171.507812 L 103.5 171.507812 Z M 103.5 144.8125 L 99.105469 144.8125 L 99.105469 154.488281 L 103.5 154.488281 Z M 206.550781 216.988281 C 224.246094 214.507812 242.550781 216.140625 260.210938 218.15625 C 263.015625 218.480469 262.988281 214.082031 260.210938 213.761719 C 242.09375 211.691406 223.523438 210.207031 205.382812 212.75 C 202.589844 213.140625 203.777344 217.375 206.550781 216.988281 Z M 268.234375 219.160156 C 269.921875 219.386719 271.601562 219.625 273.289062 219.871094 C 274.460938 220.042969 275.648438 219.582031 275.992188 218.335938 C 276.273438 217.300781 275.636719 215.804688 274.457031 215.632812 C 272.382812 215.332031 270.308594 215.046875 268.234375 214.765625 C 267.054688 214.609375 266.039062 215.890625 266.039062 216.960938 C 266.039062 218.285156 267.050781 219 268.234375 219.160156 Z M 209.691406 232.484375 C 221.058594 231.347656 232.496094 231.691406 243.867188 232.488281 C 246.691406 232.6875 246.675781 228.292969 243.867188 228.09375 C 232.496094 227.296875 221.058594 226.953125 209.691406 228.089844 C 206.902344 228.371094 206.875 232.769531 209.691406 232.484375 Z M 253.144531 233.289062 C 259.875 233.96875 266.585938 234.796875 273.289062 235.761719 C 276.050781 236.160156 277.246094 231.925781 274.457031 231.523438 C 267.367188 230.503906 260.269531 229.613281 253.144531 228.894531 C 250.328125 228.609375 250.351562 233.007812 253.144531 233.289062 Z M 228.34375 247.664062 C 233.171875 247.75 237.996094 247.976562 242.816406 248.300781 C 245.636719 248.492188 245.621094 244.101562 242.816406 243.90625 C 237.996094 243.582031 233.171875 243.355469 228.34375 243.269531 C 225.515625 243.21875 225.515625 247.613281 228.34375 247.664062 Z M 248.554688 248.75 C 251.027344 248.96875 253.496094 249.207031 255.960938 249.464844 C 257.152344 249.589844 258.148438 248.367188 258.160156 247.269531 C 258.171875 245.976562 257.140625 245.195312 255.960938 245.070312 C 253.496094 244.8125 251.027344 244.574219 248.554688 244.355469 C 245.738281 244.109375 245.753906 248.507812 248.554688 248.75 Z M 261.210938 250.054688 C 265.246094 250.535156 269.269531 251.070312 273.289062 251.648438 C 276.050781 252.046875 277.246094 247.8125 274.457031 247.414062 C 270.046875 246.773438 265.632812 246.1875 261.210938 245.660156 C 258.410156 245.324219 258.433594 249.722656 261.210938 250.054688 Z M 226.78125 263.535156 C 242.355469 263.722656 257.882812 265.320312 273.289062 267.542969 C 276.050781 267.941406 277.246094 263.707031 274.457031 263.308594 C 258.65625 261.027344 242.75 259.332031 226.78125 259.144531 C 223.949219 259.109375 223.949219 263.503906 226.78125 263.535156 Z M 206.550781 280.550781 C 214.488281 279.441406 222.515625 279.316406 230.515625 279.488281 C 233.34375 279.550781 233.34375 275.15625 230.515625 275.09375 C 222.105469 274.917969 213.722656 275.148438 205.382812 276.3125 C 202.589844 276.703125 203.777344 280.933594 206.550781 280.550781 Z M 237.910156 279.785156 C 249.753906 280.449219 261.546875 281.742188 273.289062 283.433594 C 276.050781 283.832031 277.246094 279.597656 274.457031 279.199219 C 262.328125 277.445312 250.148438 276.082031 237.910156 275.390625 C 235.082031 275.230469 235.09375 279.625 237.910156 279.785156 Z M 206.550781 296.441406 C 218.539062 294.769531 230.773438 295.171875 242.816406 295.976562 C 245.636719 296.167969 245.621094 291.773438 242.816406 291.582031 C 230.339844 290.746094 217.792969 290.476562 205.382812 292.203125 C 202.589844 292.59375 203.777344 296.824219 206.550781 296.441406 Z M 250.191406 296.765625 C 252.84375 297.023438 255.496094 297.304688 258.144531 297.613281 C 259.332031 297.75 260.328125 296.507812 260.339844 295.414062 C 260.351562 294.117188 259.316406 293.355469 258.144531 293.21875 C 255.496094 292.914062 252.84375 292.628906 250.191406 292.375 C 247.378906 292.097656 247.402344 296.492188 250.191406 296.765625 Z M 265.101562 298.210938 C 267.832031 298.554688 270.558594 298.929688 273.289062 299.324219 C 274.46875 299.496094 275.632812 299.03125 275.992188 297.789062 C 276.285156 296.761719 275.625 295.257812 274.457031 295.089844 C 271.34375 294.636719 268.226562 294.214844 265.101562 293.816406 C 263.914062 293.660156 262.917969 294.929688 262.902344 296.011719 C 262.890625 297.324219 263.929688 298.058594 265.101562 298.210938 Z M 206.550781 312.332031 C 208.054688 312.113281 209.5625 311.945312 211.078125 311.796875 C 212.257812 311.6875 213.273438 310.871094 213.273438 309.597656 C 213.273438 308.5 212.265625 307.292969 211.078125 307.402344 C 209.171875 307.585938 207.273438 307.816406 205.382812 308.097656 C 204.203125 308.269531 203.558594 309.753906 203.847656 310.796875 C 204.195312 312.058594 205.367188 312.503906 206.550781 312.332031 Z M 218.242188 311.332031 C 236.640625 310.695312 255.097656 312.59375 273.289062 315.214844 C 276.050781 315.613281 277.246094 311.382812 274.457031 310.980469 C 255.875 308.296875 237.039062 306.285156 218.242188 306.9375 C 215.421875 307.035156 215.40625 311.429688 218.242188 311.332031 Z M 169.792969 212.75 C 151.652344 210.207031 133.078125 211.691406 114.964844 213.761719 C 112.1875 214.082031 112.160156 218.480469 114.964844 218.15625 C 132.625 216.140625 150.929688 214.507812 168.625 216.988281 C 171.390625 217.375 172.585938 213.140625 169.792969 212.75 Z M 106.941406 214.765625 C 104.867188 215.046875 102.792969 215.332031 100.71875 215.632812 C 99.546875 215.800781 98.902344 217.292969 99.183594 218.335938 C 99.53125 219.59375 100.710938 220.042969 101.886719 219.871094 C 103.574219 219.625 105.253906 219.386719 106.941406 219.160156 C 108.117188 219.003906 109.136719 218.265625 109.136719 216.960938 C 109.136719 215.898438 108.125 214.609375 106.941406 214.765625 Z M 165.480469 228.089844 C 154.117188 226.953125 142.683594 227.296875 131.308594 228.09375 C 128.503906 228.292969 128.476562 232.6875 131.308594 232.488281 C 142.683594 231.691406 154.117188 231.347656 165.480469 232.484375 C 168.292969 232.765625 168.277344 228.371094 165.480469 228.089844 Z M 122.03125 228.894531 C 114.90625 229.613281 107.804688 230.503906 100.71875 231.523438 C 97.933594 231.925781 99.117188 236.160156 101.886719 235.761719 C 108.585938 234.796875 115.300781 233.96875 122.03125 233.289062 C 124.820312 233.007812 124.851562 228.609375 122.03125 228.894531 Z M 146.832031 243.269531 C 142 243.355469 137.179688 243.582031 132.359375 243.90625 C 129.554688 244.097656 129.535156 248.492188 132.359375 248.300781 C 137.179688 247.976562 142 247.75 146.832031 247.664062 C 149.65625 247.613281 149.664062 243.214844 146.832031 243.269531 Z M 126.621094 244.355469 C 124.148438 244.574219 121.679688 244.8125 119.214844 245.070312 C 118.023438 245.195312 117.03125 245.992188 117.015625 247.269531 C 117.003906 248.359375 118.03125 249.589844 119.214844 249.464844 C 121.679688 249.207031 124.148438 248.96875 126.621094 248.75 C 129.414062 248.507812 129.441406 244.109375 126.621094 244.355469 Z M 113.964844 245.660156 C 109.542969 246.1875 105.128906 246.773438 100.71875 247.414062 C 97.933594 247.8125 99.117188 252.050781 101.886719 251.648438 C 105.90625 251.070312 109.929688 250.535156 113.964844 250.054688 C 116.734375 249.722656 116.769531 245.324219 113.964844 245.660156 Z M 148.394531 259.144531 C 132.421875 259.332031 116.519531 261.027344 100.71875 263.308594 C 97.933594 263.707031 99.117188 267.941406 101.886719 267.542969 C 117.292969 265.320312 132.820312 263.722656 148.394531 263.535156 C 151.222656 263.503906 151.226562 259.109375 148.394531 259.144531 Z M 169.792969 276.3125 C 161.453125 275.148438 153.070312 274.917969 144.660156 275.09375 C 141.835938 275.15625 141.824219 279.550781 144.660156 279.488281 C 152.660156 279.316406 160.6875 279.441406 168.625 280.550781 C 171.390625 280.933594 172.585938 276.703125 169.792969 276.3125 Z M 137.265625 275.390625 C 125.027344 276.082031 112.847656 277.445312 100.71875 279.199219 C 97.933594 279.597656 99.117188 283.832031 101.886719 283.433594 C 113.628906 281.742188 125.417969 280.449219 137.265625 279.785156 C 140.078125 279.625 140.09375 275.230469 137.265625 275.390625 Z M 169.792969 292.203125 C 157.382812 290.476562 144.835938 290.746094 132.359375 291.582031 C 129.554688 291.773438 129.535156 296.167969 132.359375 295.976562 C 144.402344 295.171875 156.636719 294.769531 168.625 296.441406 C 171.390625 296.824219 172.585938 292.59375 169.792969 292.203125 Z M 124.980469 292.375 C 122.332031 292.628906 119.679688 292.914062 117.03125 293.21875 C 115.84375 293.355469 114.847656 294.132812 114.835938 295.414062 C 114.824219 296.5 115.851562 297.75 117.03125 297.613281 C 119.679688 297.304688 122.332031 297.023438 124.980469 296.765625 C 127.769531 296.496094 127.796875 292.097656 124.980469 292.375 Z M 110.074219 293.816406 C 106.949219 294.214844 103.832031 294.636719 100.71875 295.089844 C 99.535156 295.257812 98.910156 296.746094 99.183594 297.789062 C 99.519531 299.054688 100.71875 299.492188 101.886719 299.324219 C 104.613281 298.929688 107.34375 298.554688 110.074219 298.210938 C 111.257812 298.058594 112.257812 297.304688 112.273438 296.011719 C 112.28125 294.9375 111.253906 293.664062 110.074219 293.816406 Z M 169.792969 308.097656 C 167.902344 307.816406 166.003906 307.585938 164.097656 307.402344 C 162.914062 307.292969 161.902344 308.496094 161.902344 309.597656 C 161.902344 310.882812 162.910156 311.6875 164.097656 311.796875 C 165.613281 311.945312 167.121094 312.113281 168.625 312.332031 C 169.800781 312.5 170.988281 312.039062 171.328125 310.796875 C 171.613281 309.765625 170.972656 308.269531 169.792969 308.097656 Z M 156.933594 306.9375 C 159.757812 307.035156 159.761719 311.429688 156.933594 311.332031 C 138.535156 310.695312 120.078125 312.59375 101.886719 315.214844 C 99.117188 315.613281 97.933594 311.382812 100.71875 310.980469 C 119.300781 308.296875 138.136719 306.285156 156.933594 306.9375 " fill-opacity="1" fill-rule="nonzero"/></g><g clip-path="url(#bcc4a660f3)"><path fill="#00bf63" d="M 116.023438 37.675781 L 124.339844 54.539062 L 142.949219 57.242188 L 129.480469 70.375 L 132.667969 88.90625 L 116.023438 80.160156 L 99.367188 88.90625 L 102.546875 70.375 L 89.089844 57.242188 L 107.695312 54.539062 Z M 116.023438 37.675781 " fill-opacity="1" fill-rule="nonzero"/></g><g clip-path="url(#2766ae493e)"><path fill="#00bf63" d="M 115.894531 37.515625 L 124.222656 54.375 L 142.828125 57.082031 L 129.363281 70.214844 L 132.539062 88.746094 L 115.894531 79.996094 L 99.25 88.746094 L 102.425781 70.214844 L 88.960938 57.082031 L 107.566406 54.375 Z M 115.894531 37.515625 " fill-opacity="1" fill-rule="nonzero"/><path fill="#00bf63" d="M 115.894531 37.515625 L 124.222656 54.375 L 142.828125 57.082031 L 129.363281 70.214844 L 132.539062 88.746094 L 115.894531 79.996094 L 99.25 88.746094 L 102.425781 70.214844 L 88.960938 57.082031 L 107.566406 54.375 Z M 115.894531 37.515625 " fill-opacity="1" fill-rule="nonzero"/><path fill="#00bf63" d="M 115.894531 37.515625 L 124.222656 54.375 L 142.828125 57.082031 L 129.363281 70.214844 L 132.539062 88.746094 L 115.894531 79.996094 L 99.25 88.746094 L 102.425781 70.214844 L 88.960938 57.082031 L 107.566406 54.375 Z M 115.894531 37.515625 " fill-opacity="1" fill-rule="nonzero"/></g><g clip-path="url(#3cf1a132bd)"><path fill="#00bf63" d="M 187.148438 37.675781 L 195.464844 54.539062 L 214.070312 57.242188 L 200.605469 70.375 L 203.792969 88.90625 L 187.148438 80.160156 L 170.492188 88.90625 L 173.667969 70.375 L 160.214844 57.242188 L 178.820312 54.539062 Z M 187.148438 37.675781 " fill-opacity="1" fill-rule="nonzero"/></g><g clip-path="url(#237cc81904)"><path fill="#00bf63" d="M 187.019531 37.515625 L 195.347656 54.375 L 213.953125 57.082031 L 200.484375 70.214844 L 203.664062 88.746094 L 187.019531 79.996094 L 170.371094 88.746094 L 173.550781 70.214844 L 160.082031 57.082031 L 178.691406 54.375 Z M 187.019531 37.515625 " fill-opacity="1" fill-rule="nonzero"/><path fill="#00bf63" d="M 187.019531 37.515625 L 195.347656 54.375 L 213.953125 57.082031 L 200.484375 70.214844 L 203.664062 88.746094 L 187.019531 79.996094 L 170.371094 88.746094 L 173.550781 70.214844 L 160.082031 57.082031 L 178.691406 54.375 Z M 187.019531 37.515625 " fill-opacity="1" fill-rule="nonzero"/><path fill="#00bf63" d="M 187.019531 37.515625 L 195.347656 54.375 L 213.953125 57.082031 L 200.484375 70.214844 L 203.664062 88.746094 L 187.019531 79.996094 L 170.371094 88.746094 L 173.550781 70.214844 L 160.082031 57.082031 L 178.691406 54.375 Z M 187.019531 37.515625 " fill-opacity="1" fill-rule="nonzero"/></g><g clip-path="url(#e2641082a1)"><path fill="#00bf63" d="M 258.273438 37.675781 L 266.589844 54.539062 L 285.195312 57.242188 L 271.730469 70.375 L 274.917969 88.90625 L 258.273438 80.160156 L 241.617188 88.90625 L 244.792969 70.375 L 231.335938 57.242188 L 249.945312 54.539062 Z M 258.273438 37.675781 " fill-opacity="1" fill-rule="nonzero"/><path fill="#00bf63" d="M 258.144531 37.515625 L 266.472656 54.375 L 285.078125 57.082031 L 271.609375 70.214844 L 274.789062 88.746094 L 258.144531 79.996094 L 241.496094 88.746094 L 244.675781 70.214844 L 231.207031 57.082031 L 249.816406 54.375 Z M 258.144531 37.515625 " fill-opacity="1" fill-rule="nonzero"/><path fill="#00bf63" d="M 258.144531 37.515625 L 266.472656 54.375 L 285.078125 57.082031 L 271.609375 70.214844 L 274.789062 88.746094 L 258.144531 79.996094 L 241.496094 88.746094 L 244.675781 70.214844 L 231.207031 57.082031 L 249.816406 54.375 Z M 258.144531 37.515625 " fill-opacity="1" fill-rule="nonzero"/><path fill="#00bf63" d="M 258.144531 37.515625 L 266.472656 54.375 L 285.078125 57.082031 L 271.609375 70.214844 L 274.789062 88.746094 L 258.144531 79.996094 L 241.496094 88.746094 L 244.675781 70.214844 L 231.207031 57.082031 L 249.816406 54.375 Z M 258.144531 37.515625 " fill-opacity="1" fill-rule="nonzero"/></g><g clip-path="url(#6315dfab36)"><path fill="#00bf63" d="M 329.394531 37.675781 L 337.714844 54.539062 L 356.320312 57.242188 L 342.851562 70.375 L 346.042969 88.90625 L 329.394531 80.160156 L 312.738281 88.90625 L 315.917969 70.375 L 302.460938 57.242188 L 321.066406 54.539062 Z M 329.394531 37.675781 " fill-opacity="1" fill-rule="nonzero"/><path fill="#00bf63" d="M 329.265625 37.515625 L 337.59375 54.375 L 356.203125 57.082031 L 342.734375 70.214844 L 345.914062 88.746094 L 329.265625 79.996094 L 312.621094 88.746094 L 315.800781 70.214844 L 302.332031 57.082031 L 320.9375 54.375 Z M 329.265625 37.515625 " fill-opacity="1" fill-rule="nonzero"/><path fill="#00bf63" d="M 329.265625 37.515625 L 337.59375 54.375 L 356.203125 57.082031 L 342.734375 70.214844 L 345.914062 88.746094 L 329.265625 79.996094 L 312.621094 88.746094 L 315.800781 70.214844 L 302.332031 57.082031 L 320.9375 54.375 Z M 329.265625 37.515625 " fill-opacity="1" fill-rule="nonzero"/><path fill="#00bf63" d="M 329.265625 37.515625 L 337.59375 54.375 L 356.203125 57.082031 L 342.734375 70.214844 L 345.914062 88.746094 L 329.265625 79.996094 L 312.621094 88.746094 L 315.800781 70.214844 L 302.332031 57.082031 L 320.9375 54.375 Z M 329.265625 37.515625 " fill-opacity="1" fill-rule="nonzero"/></g></svg>