<svg xmlns="http://www.w3.org/2000/svg" xmlns:xlink="http://www.w3.org/1999/xlink" width="500" zoomAndPan="magnify" viewBox="0 0 375 374.999991" height="500" preserveAspectRatio="xMidYMid meet" version="1.0"><defs><clipPath id="42b73ccde3"><path d="M 120.851562 20.585938 L 178.601562 20.585938 L 178.601562 75.335938 L 120.851562 75.335938 Z M 120.851562 20.585938 " clip-rule="nonzero"/></clipPath><clipPath id="6d4f4d5626"><path d="M 59.363281 98.144531 L 315.863281 98.144531 L 315.863281 354.644531 L 59.363281 354.644531 Z M 59.363281 98.144531 " clip-rule="nonzero"/></clipPath><clipPath id="b9eed290e9"><path d="M 196.65625 20.585938 L 254.40625 20.585938 L 254.40625 75.335938 L 196.65625 75.335938 Z M 196.65625 20.585938 " clip-rule="nonzero"/></clipPath></defs><g clip-path="url(#42b73ccde3)"><path fill="#ff3131" d="M 149.667969 20.777344 L 158.523438 38.726562 L 178.332031 41.605469 L 163.996094 55.589844 L 167.390625 75.320312 L 149.667969 66.003906 L 131.933594 75.320312 L 135.316406 55.589844 L 120.992188 41.605469 L 140.800781 38.726562 Z M 149.667969 20.777344 " fill-opacity="1" fill-rule="nonzero"/><path fill="#ff3131" d="M 149.53125 20.601562 L 158.398438 38.554688 L 178.207031 41.433594 L 163.867188 55.417969 L 167.253906 75.148438 L 149.53125 65.832031 L 131.808594 75.148438 L 135.191406 55.417969 L 120.851562 41.433594 L 140.664062 38.554688 Z M 149.53125 20.601562 " fill-opacity="1" fill-rule="nonzero"/><path fill="#ff3131" d="M 149.53125 20.601562 L 158.398438 38.554688 L 178.207031 41.433594 L 163.867188 55.417969 L 167.253906 75.148438 L 149.53125 65.832031 L 131.808594 75.148438 L 135.191406 55.417969 L 120.851562 41.433594 L 140.664062 38.554688 Z M 149.53125 20.601562 " fill-opacity="1" fill-rule="nonzero"/><path fill="#ff3131" d="M 149.53125 20.601562 L 158.398438 38.554688 L 178.207031 41.433594 L 163.867188 55.417969 L 167.253906 75.148438 L 149.53125 65.832031 L 131.808594 75.148438 L 135.191406 55.417969 L 120.851562 41.433594 L 140.664062 38.554688 Z M 149.53125 20.601562 " fill-opacity="1" fill-rule="nonzero"/></g><g clip-path="url(#6d4f4d5626)"><path fill="#ea4949" d="M 187.613281 98.144531 C 116.796875 98.144531 59.363281 155.574219 59.363281 226.394531 C 59.363281 297.210938 116.796875 354.644531 187.613281 354.644531 C 258.433594 354.644531 315.863281 297.210938 315.863281 226.394531 C 315.863281 155.574219 258.433594 98.144531 187.613281 98.144531 Z M 187.613281 98.144531 " fill-opacity="1" fill-rule="nonzero"/></g><path fill="#d8dbba" d="M 185.03125 179.664062 L 190.664062 179.664062 L 190.664062 284.546875 L 185.03125 284.546875 Z M 185.03125 179.664062 " fill-opacity="1" fill-rule="nonzero"/><path fill="#d8dbba" d="M 198.058594 297.9375 C 198.058594 274.003906 188.027344 274.46875 188.027344 274.46875 C 188.027344 274.46875 178 274.054688 178 297.9375 C 178 321.816406 180.585938 307.085938 137.523438 307.085938 L 137.523438 311.429688 L 238.429688 311.429688 L 238.429688 307.085938 C 195.421875 307.085938 198.058594 297.9375 198.058594 297.9375 " fill-opacity="1" fill-rule="nonzero"/><path fill="#d8dbba" d="M 187.820312 161.828125 C 185.445312 161.828125 182.238281 166.894531 182.238281 178.214844 C 182.238281 189.535156 193.871094 189.535156 193.871094 178.214844 C 193.871094 166.894531 190.199219 161.828125 187.820312 161.828125 " fill-opacity="1" fill-rule="nonzero"/><path fill="#6d6d68" d="M 250.628906 196.929688 C 249.75 196.566406 248.714844 196.980469 248.355469 197.910156 L 224.832031 255.753906 C 224.472656 256.632812 224.886719 257.667969 225.816406 258.03125 C 226.023438 258.132812 226.230469 258.132812 226.488281 258.132812 C 227.160156 258.132812 227.832031 257.71875 228.089844 257.046875 L 251.558594 199.203125 C 251.921875 198.324219 251.507812 197.289062 250.628906 196.929688 " fill-opacity="1" fill-rule="nonzero"/><path fill="#6d6d68" d="M 282.679688 255.753906 L 259.210938 197.910156 C 258.847656 197.03125 257.8125 196.617188 256.933594 196.929688 C 256.054688 197.289062 255.589844 198.324219 255.953125 199.203125 L 279.421875 257.046875 C 279.679688 257.71875 280.351562 258.132812 281.023438 258.132812 C 281.230469 258.132812 281.488281 258.082031 281.695312 258.03125 C 282.625 257.617188 283.039062 256.632812 282.679688 255.753906 " fill-opacity="1" fill-rule="nonzero"/><path fill="#e4e5cf" d="M 224.421875 255.289062 C 224.421875 255.289062 224.832031 275.964844 253.988281 275.964844 C 283.144531 275.964844 283.144531 255.289062 283.144531 255.289062 Z M 224.421875 255.289062 " fill-opacity="1" fill-rule="nonzero"/><path fill="#d8dbba" d="M 259.105469 186.332031 L 259.105469 186.382812 C 258.332031 184.882812 256.933594 183.644531 255.074219 183.023438 C 251.714844 181.9375 248.199219 183.4375 247.269531 186.332031 C 246.339844 189.277344 248.300781 192.484375 251.664062 193.566406 C 251.765625 193.621094 251.816406 193.621094 251.921875 193.621094 C 250.265625 194.035156 248.507812 193.980469 246.75 193.414062 C 244.21875 192.585938 239.824219 187.625 230.675781 184.675781 C 223.4375 182.351562 207.363281 181.988281 186.632812 175.320312 L 184.460938 182.144531 C 201.054688 187.46875 217.90625 187.570312 225.300781 189.691406 C 238.996094 193.621094 242.304688 197.445312 245.871094 200.082031 C 249.441406 202.769531 257.917969 201.683594 259.933594 195.378906 C 260.914062 192.328125 260.554688 189.070312 259.105469 186.332031 " fill-opacity="1" fill-rule="nonzero"/><path fill="#6d6d68" d="M 150.394531 214.402344 L 126.925781 156.554688 C 126.566406 155.675781 125.53125 155.265625 124.652344 155.574219 C 123.773438 155.9375 123.308594 156.96875 123.671875 157.847656 L 147.140625 215.691406 C 147.398438 216.363281 148.070312 216.777344 148.742188 216.777344 C 148.949219 216.777344 149.207031 216.726562 149.414062 216.675781 C 150.292969 216.261719 150.757812 215.28125 150.394531 214.402344 " fill-opacity="1" fill-rule="nonzero"/><path fill="#6d6d68" d="M 118.292969 155.574219 C 117.417969 155.210938 116.382812 155.625 116.019531 156.554688 L 92.550781 214.402344 C 92.191406 215.28125 92.601562 216.3125 93.535156 216.675781 C 93.742188 216.777344 93.949219 216.777344 94.207031 216.777344 C 94.878906 216.777344 95.550781 216.363281 95.808594 215.691406 L 119.277344 157.847656 C 119.640625 156.96875 119.226562 155.9375 118.292969 155.574219 " fill-opacity="1" fill-rule="nonzero"/><path fill="#e4e5cf" d="M 92.085938 213.933594 C 92.085938 213.933594 92.085938 234.613281 121.242188 234.613281 C 150.394531 234.613281 150.808594 213.933594 150.808594 213.933594 Z M 92.085938 213.933594 " fill-opacity="1" fill-rule="nonzero"/><path fill="#d8dbba" d="M 145.382812 157.28125 C 136.230469 154.332031 129.769531 155.832031 127.238281 155.003906 C 125.53125 154.4375 124.03125 153.453125 122.945312 152.164062 C 123.050781 152.214844 123.101562 152.214844 123.207031 152.265625 C 126.566406 153.351562 130.082031 151.851562 131.011719 148.957031 C 131.941406 146.0625 129.976562 142.804688 126.617188 141.71875 C 124.757812 141.101562 122.84375 141.308594 121.34375 142.082031 L 121.34375 142.03125 C 118.605469 143.425781 116.382812 145.855469 115.398438 149.007812 C 113.382812 155.316406 119.640625 161.105469 124.085938 161 C 128.53125 160.898438 133.441406 159.761719 146.882812 164.515625 C 154.117188 167.101562 167.867188 176.820312 184.460938 182.144531 L 186.632812 175.320312 C 165.902344 168.703125 152.617188 159.605469 145.382812 157.28125 " fill-opacity="1" fill-rule="nonzero"/><g clip-path="url(#b9eed290e9)"><path fill="#ff3131" d="M 225.472656 20.777344 L 234.328125 38.726562 L 254.136719 41.605469 L 239.796875 55.589844 L 243.191406 75.320312 L 225.472656 66.003906 L 207.738281 75.320312 L 211.121094 55.589844 L 196.792969 41.605469 L 216.605469 38.726562 Z M 225.472656 20.777344 " fill-opacity="1" fill-rule="nonzero"/><path fill="#ff3131" d="M 225.332031 20.601562 L 234.199219 38.554688 L 254.011719 41.433594 L 239.671875 55.417969 L 243.054688 75.148438 L 225.332031 65.832031 L 207.609375 75.148438 L 210.996094 55.417969 L 196.65625 41.433594 L 216.464844 38.554688 Z M 225.332031 20.601562 " fill-opacity="1" fill-rule="nonzero"/><path fill="#ff3131" d="M 225.332031 20.601562 L 234.199219 38.554688 L 254.011719 41.433594 L 239.671875 55.417969 L 243.054688 75.148438 L 225.332031 65.832031 L 207.609375 75.148438 L 210.996094 55.417969 L 196.65625 41.433594 L 216.464844 38.554688 Z M 225.332031 20.601562 " fill-opacity="1" fill-rule="nonzero"/><path fill="#ff3131" d="M 225.332031 20.601562 L 234.199219 38.554688 L 254.011719 41.433594 L 239.671875 55.417969 L 243.054688 75.148438 L 225.332031 65.832031 L 207.609375 75.148438 L 210.996094 55.417969 L 196.65625 41.433594 L 216.464844 38.554688 Z M 225.332031 20.601562 " fill-opacity="1" fill-rule="nonzero"/></g></svg>