<svg xmlns="http://www.w3.org/2000/svg" xmlns:xlink="http://www.w3.org/1999/xlink" width="500" zoomAndPan="magnify" viewBox="0 0 375 374.999991" height="500" preserveAspectRatio="xMidYMid meet" version="1.0"><defs><clipPath id="620f330f8c"><path d="M 60.496094 204 L 299.660156 204 L 299.660156 299.335938 L 60.496094 299.335938 Z M 60.496094 204 " clip-rule="nonzero"/></clipPath><clipPath id="fc3ddb589f"><path d="M 0 107.335938 L 360 107.335938 L 360 232 L 0 232 Z M 0 107.335938 " clip-rule="nonzero"/></clipPath><clipPath id="81500fc061"><path d="M 162.324219 49.84375 L 208.824219 49.84375 L 208.824219 94.09375 L 162.324219 94.09375 Z M 162.324219 49.84375 " clip-rule="nonzero"/></clipPath><clipPath id="ac7b2d61f5"><path d="M 162.324219 49.84375 L 208.824219 49.84375 L 208.824219 94 L 162.324219 94 Z M 162.324219 49.84375 " clip-rule="nonzero"/></clipPath></defs><g clip-path="url(#620f330f8c)"><path fill="#ffffff" d="M 294.851562 277.015625 C 290.460938 279.523438 283.808594 282.808594 274.558594 286.066406 C 257.0625 292.246094 226.457031 299.605469 180.011719 299.605469 C 133.566406 299.605469 102.960938 292.246094 85.464844 286.066406 C 76.210938 282.804688 69.558594 279.523438 65.171875 277.015625 C 62.234375 275.332031 60.503906 272.128906 60.695312 268.746094 L 64.207031 205.816406 C 64.246094 205.128906 64.628906 204.539062 65.183594 204.214844 L 177.40625 242.011719 C 179.097656 242.582031 180.925781 242.582031 182.617188 242.011719 L 294.839844 204.214844 C 295.394531 204.539062 295.777344 205.128906 295.820312 205.816406 L 299.328125 268.746094 C 299.519531 272.128906 297.789062 275.332031 294.851562 277.015625 " fill-opacity="1" fill-rule="nonzero"/></g><g clip-path="url(#fc3ddb589f)"><path fill="#ffffff" d="M 177.445312 107.921875 L 2.097656 167.417969 C -0.0078125 168.132812 -0.0078125 171.109375 2.097656 171.828125 L 54.6875 189.667969 L 64.910156 193.136719 L 177.445312 231.324219 C 179.109375 231.886719 180.914062 231.886719 182.578125 231.324219 L 295.113281 193.136719 L 305.335938 189.667969 L 306.566406 189.25 C 296.722656 177.410156 285.335938 170.222656 272.25 167.519531 C 238.1875 160.484375 186.523438 171.28125 186.003906 171.394531 C 183.332031 171.953125 180.703125 170.597656 180.003906 168.3125 C 179.671875 167.214844 179.816406 166.050781 180.417969 165.039062 C 181.113281 163.859375 182.355469 163.007812 183.828125 162.695312 C 186.046875 162.226562 238.546875 151.304688 274.84375 158.804688 C 291.054688 162.15625 304.859375 171.105469 316.464844 185.890625 L 357.925781 171.828125 C 360.03125 171.109375 360.03125 168.132812 357.925781 167.417969 L 182.578125 107.921875 C 180.914062 107.359375 179.109375 107.359375 177.445312 107.921875 " fill-opacity="1" fill-rule="nonzero"/></g><path fill="#ffffff" d="M 370.1875 283.746094 L 348.964844 241.519531 C 348.710938 240.300781 348.152344 238.015625 347.105469 235.691406 C 344.628906 230.167969 341.160156 228.21875 338.414062 227.613281 C 332.207031 210.550781 324.921875 196.667969 316.464844 185.890625 L 306.566406 189.25 C 315.371094 199.839844 322.929688 214.152344 329.363281 232.308594 C 328.320312 234.308594 327.671875 237.054688 328.066406 240.820312 C 328.359375 243.621094 329.136719 246.082031 329.503906 247.128906 L 338.113281 292.976562 C 338.570312 295.414062 340.679688 297.1875 343.160156 297.21875 C 343.179688 297.21875 343.21875 297.21875 343.277344 297.21875 C 344.636719 297.21875 355.964844 297.019531 367.96875 290.679688 C 370.476562 289.355469 371.460938 286.273438 370.1875 283.746094 " fill-opacity="1" fill-rule="nonzero"/><g clip-path="url(#81500fc061)"><path fill="#ffffff" d="M 185.632812 49.996094 L 192.796875 64.503906 L 208.824219 66.832031 L 197.226562 78.132812 L 199.972656 94.078125 L 185.632812 86.550781 L 171.289062 94.078125 L 174.027344 78.132812 L 162.4375 66.832031 L 178.460938 64.503906 Z M 185.632812 49.996094 " fill-opacity="1" fill-rule="nonzero"/></g><g clip-path="url(#ac7b2d61f5)"><path fill="#ffffff" d="M 185.523438 49.855469 L 192.695312 64.367188 L 208.722656 66.691406 L 197.121094 77.996094 L 199.859375 93.941406 L 185.523438 86.414062 L 171.1875 93.941406 L 173.925781 77.996094 L 162.324219 66.691406 L 178.351562 64.367188 Z M 185.523438 49.855469 " fill-opacity="1" fill-rule="nonzero"/><path fill="#ffffff" d="M 185.523438 49.855469 L 192.695312 64.367188 L 208.722656 66.691406 L 197.121094 77.996094 L 199.859375 93.941406 L 185.523438 86.414062 L 171.1875 93.941406 L 173.925781 77.996094 L 162.324219 66.691406 L 178.351562 64.367188 Z M 185.523438 49.855469 " fill-opacity="1" fill-rule="nonzero"/><path fill="#ffffff" d="M 185.523438 49.855469 L 192.695312 64.367188 L 208.722656 66.691406 L 197.121094 77.996094 L 199.859375 93.941406 L 185.523438 86.414062 L 171.1875 93.941406 L 173.925781 77.996094 L 162.324219 66.691406 L 178.351562 64.367188 Z M 185.523438 49.855469 " fill-opacity="1" fill-rule="nonzero"/></g></svg>