<svg xmlns="http://www.w3.org/2000/svg" xmlns:xlink="http://www.w3.org/1999/xlink" width="500" zoomAndPan="magnify" viewBox="0 0 375 374.999991" height="500" preserveAspectRatio="xMidYMid meet" version="1.0"><defs><clipPath id="ba66459dbf"><path d="M 158.039062 16.195312 L 217 16.195312 L 217 72.445312 L 158.039062 72.445312 Z M 158.039062 16.195312 " clip-rule="nonzero"/></clipPath><clipPath id="a942274ec2"><path d="M 68.046875 92.308594 L 306.957031 92.308594 L 306.957031 358.53125 L 68.046875 358.53125 Z M 68.046875 92.308594 " clip-rule="nonzero"/></clipPath></defs><g clip-path="url(#ba66459dbf)"><path fill="#9bc9a8" d="M 187.574219 16.386719 L 196.652344 34.789062 L 216.960938 37.742188 L 202.261719 52.074219 L 205.742188 72.300781 L 187.574219 62.75 L 169.394531 72.300781 L 172.863281 52.074219 L 158.179688 37.742188 L 178.484375 34.789062 Z M 187.574219 16.386719 " fill-opacity="1" fill-rule="nonzero"/><path fill="#9bc9a8" d="M 187.433594 16.210938 L 196.523438 34.613281 L 216.832031 37.5625 L 202.132812 51.898438 L 205.601562 72.121094 L 187.433594 62.574219 L 169.265625 72.121094 L 172.734375 51.898438 L 158.039062 37.5625 L 178.34375 34.613281 Z M 187.433594 16.210938 " fill-opacity="1" fill-rule="nonzero"/><path fill="#9bc9a8" d="M 187.433594 16.210938 L 196.523438 34.613281 L 216.832031 37.5625 L 202.132812 51.898438 L 205.601562 72.121094 L 187.433594 62.574219 L 169.265625 72.121094 L 172.734375 51.898438 L 158.039062 37.5625 L 178.34375 34.613281 Z M 187.433594 16.210938 " fill-opacity="1" fill-rule="nonzero"/><path fill="#9bc9a8" d="M 187.433594 16.210938 L 196.523438 34.613281 L 216.832031 37.5625 L 202.132812 51.898438 L 205.601562 72.121094 L 187.433594 62.574219 L 169.265625 72.121094 L 172.734375 51.898438 L 158.039062 37.5625 L 178.34375 34.613281 Z M 187.433594 16.210938 " fill-opacity="1" fill-rule="nonzero"/></g><path fill="#ffffff" d="M 304.59375 324.019531 L 304.59375 335.855469 C 304.59375 347.207031 295.359375 356.4375 284.011719 356.4375 L 70.40625 356.4375 L 70.40625 344.332031 L 284.011719 344.332031 C 288.6875 344.332031 292.484375 340.53125 292.484375 335.855469 L 292.484375 324.019531 C 292.484375 319.34375 288.6875 315.542969 284.011719 315.542969 L 261.773438 315.542969 L 261.773438 324.449219 L 247.746094 315.507812 L 233.71875 324.449219 L 233.71875 315.542969 L 70.40625 315.542969 L 70.40625 303.4375 L 99.003906 303.4375 C 87.660156 303.4375 78.421875 294.207031 78.421875 282.859375 L 78.421875 269.191406 C 78.421875 257.839844 87.660156 248.609375 99.003906 248.609375 L 296.574219 248.609375 L 296.574219 260.714844 L 99.003906 260.714844 C 94.332031 260.714844 90.53125 264.515625 90.53125 269.191406 L 90.53125 282.859375 C 90.53125 287.527344 94.332031 291.332031 99.003906 291.332031 L 233.71875 291.332031 L 233.71875 276.023438 L 261.773438 276.023438 L 261.773438 291.332031 L 296.574219 291.332031 L 296.574219 303.4375 L 284.011719 303.4375 C 295.359375 303.4375 304.59375 312.671875 304.59375 324.019531 " fill-opacity="1" fill-rule="nonzero"/><path fill="#bc813d" d="M 292.484375 324.019531 L 292.484375 335.855469 C 292.484375 340.53125 288.6875 344.332031 284.011719 344.332031 L 77.96875 344.332031 C 84.964844 327.773438 77.96875 315.542969 77.96875 315.542969 L 233.71875 315.542969 L 233.71875 324.449219 L 247.691406 315.542969 L 247.804688 315.542969 L 261.773438 324.449219 L 261.773438 315.542969 L 284.011719 315.542969 C 288.6875 315.542969 292.484375 319.34375 292.484375 324.019531 " fill-opacity="1" fill-rule="nonzero"/><path fill="#9bc9a8" d="M 289.015625 291.332031 L 261.773438 291.332031 L 261.773438 276.027344 L 233.71875 276.027344 L 233.71875 291.332031 L 99.003906 291.332031 C 94.332031 291.332031 90.53125 287.527344 90.53125 282.859375 L 90.53125 269.191406 C 90.53125 264.515625 94.332031 260.714844 99.003906 260.714844 L 289.015625 260.714844 C 289.015625 260.714844 282.015625 274.773438 289.015625 291.332031 " fill-opacity="1" fill-rule="nonzero"/><g clip-path="url(#a942274ec2)"><path fill="#ffffff" d="M 302.230469 324.019531 C 302.230469 313.972656 294.058594 305.796875 284.011719 305.796875 L 264.132812 305.796875 L 264.132812 313.183594 L 284.011719 313.183594 C 289.984375 313.183594 294.84375 318.042969 294.84375 324.019531 L 294.84375 335.855469 C 294.84375 341.832031 289.984375 346.691406 284.011719 346.691406 L 72.769531 346.691406 L 72.769531 354.078125 L 284.011719 354.078125 C 294.058594 354.078125 302.230469 345.902344 302.230469 335.855469 Z M 81.378906 341.972656 L 284.011719 341.972656 C 287.378906 341.972656 290.125 339.230469 290.125 335.855469 L 290.125 324.019531 C 290.125 320.644531 287.378906 317.902344 284.011719 317.902344 L 264.132812 317.902344 L 264.132812 328.75 L 247.746094 318.304688 L 231.359375 328.75 L 231.359375 317.902344 L 81.546875 317.902344 C 83.148438 322.496094 84.960938 331.207031 81.378906 341.972656 Z M 72.769531 313.183594 L 231.359375 313.183594 L 231.359375 305.796875 L 72.769531 305.796875 Z M 99.003906 301.078125 L 231.359375 301.078125 L 231.359375 293.691406 L 99.003906 293.691406 C 93.03125 293.691406 88.171875 288.832031 88.171875 282.859375 L 88.171875 269.191406 C 88.171875 263.214844 93.03125 258.351562 99.003906 258.351562 L 294.214844 258.351562 L 294.214844 250.96875 L 99.003906 250.96875 C 88.960938 250.96875 80.785156 259.140625 80.785156 269.191406 L 80.785156 282.859375 C 80.785156 292.90625 88.960938 301.078125 99.003906 301.078125 Z M 285.5625 263.074219 L 99.003906 263.074219 C 95.636719 263.074219 92.890625 265.816406 92.890625 269.191406 L 92.890625 282.859375 C 92.890625 286.226562 95.636719 288.972656 99.003906 288.972656 L 231.359375 288.972656 L 231.359375 278.382812 C 226.984375 278.382812 222.609375 278.382812 218.234375 278.382812 C 215.195312 278.382812 215.199219 273.664062 218.234375 273.664062 C 222.609375 273.664062 226.984375 273.664062 231.359375 273.664062 L 264.132812 273.664062 C 268.488281 273.664062 272.84375 273.664062 277.199219 273.664062 C 280.242188 273.664062 280.234375 278.382812 277.199219 278.382812 C 272.84375 278.382812 268.488281 278.382812 264.132812 278.382812 L 264.132812 288.972656 L 285.605469 288.972656 C 281.90625 277.726562 283.953125 268 285.5625 263.074219 Z M 236.078125 320.144531 L 247.746094 312.707031 L 259.414062 320.144531 L 259.414062 278.382812 C 251.632812 278.382812 243.855469 278.382812 236.078125 278.382812 Z M 292.570312 293.691406 L 264.132812 293.691406 L 264.132812 301.078125 L 294.214844 301.078125 L 294.214844 293.691406 Z M 130.964844 144.167969 L 130.964844 181.300781 L 147.65625 181.300781 Z M 126.246094 144.015625 L 109.480469 181.300781 L 126.246094 181.300781 Z M 228.160156 181.300781 L 244.851562 181.300781 L 244.851562 144.167969 Z M 249.570312 181.300781 L 266.335938 181.300781 L 249.570312 144.015625 Z M 306.953125 324.019531 L 306.953125 335.855469 C 306.953125 348.507812 296.660156 358.796875 284.011719 358.796875 L 68.046875 358.796875 L 68.046875 341.972656 L 76.375 341.972656 C 80.84375 330.148438 77.863281 321.058594 76.492188 317.902344 L 68.046875 317.902344 L 68.046875 301.078125 L 85.089844 301.078125 C 79.609375 296.882812 76.0625 290.277344 76.0625 282.859375 L 76.0625 269.191406 C 76.0625 256.539062 86.359375 246.25 99.003906 246.25 L 149.429688 246.25 L 149.429688 236.90625 L 163.890625 236.90625 L 163.890625 232.332031 C 163.890625 226.933594 168.285156 222.539062 173.6875 222.539062 L 173.8125 222.539062 L 173.8125 203.601562 C 173.8125 198.675781 177.46875 194.585938 182.210938 193.90625 L 182.210938 143.636719 L 182.058594 143.3125 C 178.730469 136.027344 172.585938 130.667969 165.632812 128.980469 C 161.480469 127.972656 157.683594 128.507812 155.214844 130.449219 C 152.015625 132.964844 145.734375 137.476562 139.632812 139.476562 L 139.480469 139.519531 C 138.9375 139.65625 136.570312 140.242188 134.460938 140.433594 L 152.625 180.84375 L 152.625 184.003906 C 152.625 194.757812 141.820312 203.511719 128.535156 203.511719 C 115.25 203.511719 104.441406 194.757812 104.441406 184.003906 L 104.441406 181.300781 L 104.511719 181.300781 L 104.511719 180.84375 L 124.84375 135.617188 C 123.175781 132.808594 122.863281 129.199219 123.941406 125.113281 C 123.027344 124.050781 122.472656 122.675781 122.472656 121.167969 C 122.472656 117.828125 125.191406 115.105469 128.535156 115.105469 C 131.875 115.105469 134.597656 117.828125 134.597656 121.167969 C 134.597656 123.980469 132.667969 126.34375 130.066406 127.027344 C 130.070312 128.578125 130.496094 129.949219 131.875 130.371094 C 135.65625 131.535156 138.28125 129.101562 142.597656 124.703125 C 146.347656 120.882812 151.015625 116.125 158.03125 114.417969 C 168.703125 111.820312 177.050781 115.328125 182.210938 119.390625 L 182.210938 114.9375 C 178.5 112.871094 175.988281 108.917969 175.988281 104.382812 C 175.988281 97.722656 181.402344 92.304688 188.058594 92.304688 C 194.71875 92.304688 200.132812 97.722656 200.132812 104.382812 C 200.132812 109.042969 197.480469 113.082031 193.609375 115.097656 L 193.609375 119.390625 C 198.761719 115.324219 207.113281 111.824219 217.785156 114.417969 C 224.800781 116.125 229.46875 120.882812 233.21875 124.703125 C 237.535156 129.105469 240.160156 131.535156 243.945312 130.371094 C 245.320312 129.949219 245.746094 128.578125 245.746094 127.027344 C 243.148438 126.34375 241.21875 123.980469 241.21875 121.167969 C 241.21875 117.828125 243.941406 115.105469 247.285156 115.105469 C 250.625 115.105469 253.34375 117.828125 253.34375 121.167969 C 253.34375 122.675781 252.789062 124.050781 251.878906 125.113281 C 252.949219 129.199219 252.636719 132.808594 250.972656 135.617188 L 271.300781 180.84375 L 271.300781 181.300781 L 271.371094 181.300781 L 271.371094 184.003906 C 271.371094 194.757812 260.566406 203.511719 247.285156 203.511719 C 234 203.511719 223.1875 194.757812 223.1875 184.003906 L 223.1875 180.84375 L 241.355469 140.4375 C 239.238281 140.25 236.875 139.65625 236.332031 139.519531 L 236.1875 139.476562 C 230.078125 137.476562 223.800781 132.964844 220.601562 130.449219 C 218.128906 128.507812 214.332031 127.972656 210.179688 128.980469 C 203.226562 130.667969 197.089844 136.027344 193.753906 143.3125 L 193.609375 143.636719 L 193.609375 193.90625 C 198.347656 194.585938 202.003906 198.675781 202.003906 203.601562 L 202.003906 222.539062 L 202.132812 222.539062 C 207.53125 222.539062 211.925781 226.933594 211.925781 232.332031 L 211.925781 236.90625 L 226.386719 236.90625 L 226.386719 246.25 L 298.933594 246.25 L 298.933594 263.074219 L 290.582031 263.074219 C 289.230469 266.632812 286.148438 277.050781 290.613281 288.972656 L 298.933594 288.972656 L 298.933594 305.796875 L 297.925781 305.796875 C 303.410156 309.996094 306.953125 316.597656 306.953125 324.019531 Z M 87.90625 338.703125 C 107.988281 338.703125 128.074219 338.703125 148.15625 338.703125 C 151.191406 338.703125 151.199219 333.984375 148.15625 333.984375 C 128.074219 333.984375 107.988281 333.984375 87.90625 333.984375 C 84.867188 333.984375 84.863281 338.703125 87.90625 338.703125 Z M 155.457031 338.703125 C 157.773438 338.703125 160.09375 338.703125 162.40625 338.703125 C 165.441406 338.703125 165.449219 333.984375 162.40625 333.984375 C 160.09375 333.984375 157.773438 333.984375 155.457031 333.984375 C 152.417969 333.984375 152.414062 338.703125 155.457031 338.703125 Z M 170.5625 338.703125 C 167.523438 338.703125 167.523438 333.984375 170.5625 333.984375 C 172.832031 333.984375 175.101562 333.984375 177.371094 333.984375 C 180.410156 333.984375 180.40625 338.703125 177.371094 338.703125 C 175.101562 338.703125 172.832031 338.703125 170.5625 338.703125 " fill-opacity="1" fill-rule="nonzero"/></g></svg>