<svg xmlns="http://www.w3.org/2000/svg" xmlns:xlink="http://www.w3.org/1999/xlink" width="500" zoomAndPan="magnify" viewBox="0 0 375 374.999991" height="500" preserveAspectRatio="xMidYMid meet" version="1.0"><defs><clipPath id="1158d74e95"><path d="M 61.066406 205.210938 L 302.496094 205.210938 L 302.496094 301.96875 L 61.066406 301.96875 Z M 61.066406 205.210938 " clip-rule="nonzero"/></clipPath><clipPath id="7ff2d984ab"><path d="M 70.105469 50 L 117.355469 50 L 117.355469 94.84375 L 70.105469 94.84375 Z M 70.105469 50 " clip-rule="nonzero"/></clipPath><clipPath id="e1f42f6d39"><path d="M 70.105469 49.84375 L 117.355469 49.84375 L 117.355469 94.84375 L 70.105469 94.84375 Z M 70.105469 49.84375 " clip-rule="nonzero"/></clipPath><clipPath id="fc36a88546"><path d="M 133.042969 50 L 180.292969 50 L 180.292969 94.84375 L 133.042969 94.84375 Z M 133.042969 50 " clip-rule="nonzero"/></clipPath><clipPath id="1cf8561d16"><path d="M 133.042969 49.84375 L 180.292969 49.84375 L 180.292969 94.84375 L 133.042969 94.84375 Z M 133.042969 49.84375 " clip-rule="nonzero"/></clipPath><clipPath id="0d2218bb57"><path d="M 195.324219 50 L 242.574219 50 L 242.574219 94.84375 L 195.324219 94.84375 Z M 195.324219 50 " clip-rule="nonzero"/></clipPath><clipPath id="06d47c4c5d"><path d="M 195.324219 49.84375 L 242.574219 49.84375 L 242.574219 94.84375 L 195.324219 94.84375 Z M 195.324219 49.84375 " clip-rule="nonzero"/></clipPath><clipPath id="4dfdf57683"><path d="M 257.609375 50 L 304.859375 50 L 304.859375 94.84375 L 257.609375 94.84375 Z M 257.609375 50 " clip-rule="nonzero"/></clipPath><clipPath id="5cb40b1bcf"><path d="M 257.609375 49.84375 L 304.859375 49.84375 L 304.859375 94.84375 L 257.609375 94.84375 Z M 257.609375 49.84375 " clip-rule="nonzero"/></clipPath></defs><g clip-path="url(#1158d74e95)"><path fill="#ffffff" d="M 297.640625 279.160156 C 293.207031 281.695312 286.492188 285.011719 277.15625 288.300781 C 259.496094 294.539062 228.601562 301.96875 181.714844 301.96875 C 134.828125 301.96875 103.933594 294.539062 86.273438 288.300781 C 76.933594 285.007812 70.21875 281.695312 65.789062 279.164062 C 62.820312 277.464844 61.074219 274.230469 61.269531 270.816406 L 64.8125 207.292969 C 64.855469 206.597656 65.238281 206 65.800781 205.675781 L 179.085938 243.828125 C 180.792969 244.402344 182.636719 244.402344 184.34375 243.828125 L 297.628906 205.675781 C 298.191406 206 298.578125 206.597656 298.617188 207.292969 L 302.160156 270.816406 C 302.351562 274.230469 300.605469 277.464844 297.640625 279.160156 " fill-opacity="1" fill-rule="nonzero"/></g><path fill="#ffffff" d="M 179.125 108.46875 L 2.117188 168.527344 C -0.0078125 169.25 -0.0078125 172.253906 2.117188 172.980469 L 55.203125 190.988281 L 65.523438 194.492188 L 179.125 233.039062 C 180.804688 233.609375 182.625 233.609375 184.304688 233.039062 L 297.90625 194.492188 L 308.226562 190.988281 L 309.464844 190.566406 C 299.53125 178.613281 288.035156 171.359375 274.824219 168.632812 C 240.441406 161.53125 188.289062 172.429688 187.765625 172.539062 C 185.066406 173.105469 182.414062 171.738281 181.707031 169.429688 C 181.375 168.320312 181.519531 167.148438 182.125 166.125 C 182.828125 164.9375 184.082031 164.078125 185.570312 163.761719 C 187.808594 163.289062 240.804688 152.261719 277.445312 159.835938 C 293.808594 163.214844 307.746094 172.25 319.460938 187.175781 L 361.3125 172.980469 C 363.4375 172.253906 363.4375 169.25 361.3125 168.527344 L 184.304688 108.46875 C 182.625 107.898438 180.804688 107.898438 179.125 108.46875 " fill-opacity="1" fill-rule="nonzero"/><path fill="#ffffff" d="M 373.691406 285.957031 L 352.265625 243.332031 C 352.011719 242.101562 351.445312 239.792969 350.390625 237.445312 C 347.890625 231.871094 344.390625 229.902344 341.617188 229.292969 C 335.351562 212.070312 327.996094 198.054688 319.460938 187.175781 L 309.464844 190.566406 C 318.355469 201.257812 325.984375 215.707031 332.480469 234.035156 C 331.425781 236.050781 330.769531 238.820312 331.171875 242.625 C 331.464844 245.453125 332.25 247.933594 332.621094 248.992188 L 341.3125 295.277344 C 341.773438 297.734375 343.90625 299.527344 346.40625 299.558594 C 346.425781 299.558594 346.46875 299.558594 346.527344 299.558594 C 347.898438 299.558594 359.332031 299.359375 371.453125 292.957031 C 373.980469 291.621094 374.976562 288.507812 373.691406 285.957031 " fill-opacity="1" fill-rule="nonzero"/><g clip-path="url(#7ff2d984ab)"><path fill="#ffffff" d="M 93.792969 50.003906 L 101.070312 64.753906 L 117.355469 67.121094 L 105.570312 78.613281 L 108.359375 94.824219 L 93.792969 87.171875 L 79.214844 94.824219 L 81.996094 78.613281 L 70.21875 67.121094 L 86.503906 64.753906 Z M 93.792969 50.003906 " fill-opacity="1" fill-rule="nonzero"/></g><g clip-path="url(#e1f42f6d39)"><path fill="#ffffff" d="M 93.679688 49.859375 L 100.96875 64.613281 L 117.25 66.980469 L 105.464844 78.46875 L 108.246094 94.683594 L 93.679688 87.03125 L 79.109375 94.683594 L 81.890625 78.46875 L 70.105469 66.980469 L 86.390625 64.613281 Z M 93.679688 49.859375 " fill-opacity="1" fill-rule="nonzero"/><path fill="#ffffff" d="M 93.679688 49.859375 L 100.96875 64.613281 L 117.25 66.980469 L 105.464844 78.46875 L 108.246094 94.683594 L 93.679688 87.03125 L 79.109375 94.683594 L 81.890625 78.46875 L 70.105469 66.980469 L 86.390625 64.613281 Z M 93.679688 49.859375 " fill-opacity="1" fill-rule="nonzero"/><path fill="#ffffff" d="M 93.679688 49.859375 L 100.96875 64.613281 L 117.25 66.980469 L 105.464844 78.46875 L 108.246094 94.683594 L 93.679688 87.03125 L 79.109375 94.683594 L 81.890625 78.46875 L 70.105469 66.980469 L 86.390625 64.613281 Z M 93.679688 49.859375 " fill-opacity="1" fill-rule="nonzero"/></g><g clip-path="url(#fc36a88546)"><path fill="#ffffff" d="M 156.726562 50.003906 L 164.007812 64.753906 L 180.292969 67.121094 L 168.503906 78.613281 L 171.296875 94.824219 L 156.726562 87.171875 L 142.148438 94.824219 L 144.929688 78.613281 L 133.152344 67.121094 L 149.4375 64.753906 Z M 156.726562 50.003906 " fill-opacity="1" fill-rule="nonzero"/></g><g clip-path="url(#1cf8561d16)"><path fill="#ffffff" d="M 156.613281 49.859375 L 163.902344 64.613281 L 180.1875 66.980469 L 168.402344 78.46875 L 171.183594 94.683594 L 156.613281 87.03125 L 142.046875 94.683594 L 144.828125 78.46875 L 133.042969 66.980469 L 149.324219 64.613281 Z M 156.613281 49.859375 " fill-opacity="1" fill-rule="nonzero"/><path fill="#ffffff" d="M 156.613281 49.859375 L 163.902344 64.613281 L 180.1875 66.980469 L 168.402344 78.46875 L 171.183594 94.683594 L 156.613281 87.03125 L 142.046875 94.683594 L 144.828125 78.46875 L 133.042969 66.980469 L 149.324219 64.613281 Z M 156.613281 49.859375 " fill-opacity="1" fill-rule="nonzero"/><path fill="#ffffff" d="M 156.613281 49.859375 L 163.902344 64.613281 L 180.1875 66.980469 L 168.402344 78.46875 L 171.183594 94.683594 L 156.613281 87.03125 L 142.046875 94.683594 L 144.828125 78.46875 L 133.042969 66.980469 L 149.324219 64.613281 Z M 156.613281 49.859375 " fill-opacity="1" fill-rule="nonzero"/></g><g clip-path="url(#0d2218bb57)"><path fill="#ffffff" d="M 219.011719 50.003906 L 226.292969 64.753906 L 242.574219 67.121094 L 230.789062 78.613281 L 233.582031 94.824219 L 219.011719 87.171875 L 204.433594 94.824219 L 207.214844 78.613281 L 195.4375 67.121094 L 211.722656 64.753906 Z M 219.011719 50.003906 " fill-opacity="1" fill-rule="nonzero"/></g><g clip-path="url(#06d47c4c5d)"><path fill="#ffffff" d="M 218.898438 49.859375 L 226.1875 64.613281 L 242.472656 66.980469 L 230.683594 78.46875 L 233.46875 94.683594 L 218.898438 87.03125 L 204.332031 94.683594 L 207.113281 78.46875 L 195.324219 66.980469 L 211.609375 64.613281 Z M 218.898438 49.859375 " fill-opacity="1" fill-rule="nonzero"/><path fill="#ffffff" d="M 218.898438 49.859375 L 226.1875 64.613281 L 242.472656 66.980469 L 230.683594 78.46875 L 233.46875 94.683594 L 218.898438 87.03125 L 204.332031 94.683594 L 207.113281 78.46875 L 195.324219 66.980469 L 211.609375 64.613281 Z M 218.898438 49.859375 " fill-opacity="1" fill-rule="nonzero"/><path fill="#ffffff" d="M 218.898438 49.859375 L 226.1875 64.613281 L 242.472656 66.980469 L 230.683594 78.46875 L 233.46875 94.683594 L 218.898438 87.03125 L 204.332031 94.683594 L 207.113281 78.46875 L 195.324219 66.980469 L 211.609375 64.613281 Z M 218.898438 49.859375 " fill-opacity="1" fill-rule="nonzero"/></g><g clip-path="url(#4dfdf57683)"><path fill="#ffffff" d="M 281.296875 50.003906 L 288.574219 64.753906 L 304.859375 67.121094 L 293.074219 78.613281 L 295.863281 94.824219 L 281.296875 87.171875 L 266.71875 94.824219 L 269.5 78.613281 L 257.722656 67.121094 L 274.007812 64.753906 Z M 281.296875 50.003906 " fill-opacity="1" fill-rule="nonzero"/></g><g clip-path="url(#5cb40b1bcf)"><path fill="#ffffff" d="M 281.183594 49.859375 L 288.472656 64.613281 L 304.757812 66.980469 L 292.96875 78.46875 L 295.75 94.683594 L 281.183594 87.03125 L 266.613281 94.683594 L 269.398438 78.46875 L 257.609375 66.980469 L 273.894531 64.613281 Z M 281.183594 49.859375 " fill-opacity="1" fill-rule="nonzero"/><path fill="#ffffff" d="M 281.183594 49.859375 L 288.472656 64.613281 L 304.757812 66.980469 L 292.96875 78.46875 L 295.75 94.683594 L 281.183594 87.03125 L 266.613281 94.683594 L 269.398438 78.46875 L 257.609375 66.980469 L 273.894531 64.613281 Z M 281.183594 49.859375 " fill-opacity="1" fill-rule="nonzero"/><path fill="#ffffff" d="M 281.183594 49.859375 L 288.472656 64.613281 L 304.757812 66.980469 L 292.96875 78.46875 L 295.75 94.683594 L 281.183594 87.03125 L 266.613281 94.683594 L 269.398438 78.46875 L 257.609375 66.980469 L 273.894531 64.613281 Z M 281.183594 49.859375 " fill-opacity="1" fill-rule="nonzero"/></g></svg>