<svg xmlns="http://www.w3.org/2000/svg" xmlns:xlink="http://www.w3.org/1999/xlink" width="500" zoomAndPan="magnify" viewBox="0 0 375 374.999991" height="500" preserveAspectRatio="xMidYMid meet" version="1.0"><defs><clipPath id="b2c048d2a9"><path d="M 45.355469 16 L 103 16 L 103 70.621094 L 45.355469 70.621094 Z M 45.355469 16 " clip-rule="nonzero"/></clipPath><clipPath id="4b8d077c8d"><path d="M 45.355469 15.871094 L 103 15.871094 L 103 70.621094 L 45.355469 70.621094 Z M 45.355469 15.871094 " clip-rule="nonzero"/></clipPath><clipPath id="115c4c1ad4"><path d="M 49.871094 113.804688 L 325.121094 113.804688 L 325.121094 359.054688 L 49.871094 359.054688 Z M 49.871094 113.804688 " clip-rule="nonzero"/></clipPath><clipPath id="47bbfedbc0"><path d="M 120.433594 16 L 178 16 L 178 70.621094 L 120.433594 70.621094 Z M 120.433594 16 " clip-rule="nonzero"/></clipPath><clipPath id="efa1ebda02"><path d="M 120.433594 15.871094 L 178 15.871094 L 178 70.621094 L 120.433594 70.621094 Z M 120.433594 15.871094 " clip-rule="nonzero"/></clipPath><clipPath id="6deae97ada"><path d="M 196.257812 16 L 254 16 L 254 70.621094 L 196.257812 70.621094 Z M 196.257812 16 " clip-rule="nonzero"/></clipPath><clipPath id="7e53986aae"><path d="M 196.257812 15.871094 L 254 15.871094 L 254 70.621094 L 196.257812 70.621094 Z M 196.257812 15.871094 " clip-rule="nonzero"/></clipPath><clipPath id="282191a34f"><path d="M 272.082031 16 L 329.832031 16 L 329.832031 70.621094 L 272.082031 70.621094 Z M 272.082031 16 " clip-rule="nonzero"/></clipPath><clipPath id="92eb6e912c"><path d="M 272.082031 15.871094 L 329.832031 15.871094 L 329.832031 70.621094 L 272.082031 70.621094 Z M 272.082031 15.871094 " clip-rule="nonzero"/></clipPath></defs><g clip-path="url(#b2c048d2a9)"><path fill="#bc813d" d="M 74.210938 16.054688 L 83.082031 34.03125 L 102.917969 36.914062 L 88.558594 50.917969 L 91.960938 70.675781 L 74.210938 61.347656 L 56.453125 70.675781 L 59.839844 50.917969 L 45.496094 36.914062 L 65.332031 34.03125 Z M 74.210938 16.054688 " fill-opacity="1" fill-rule="nonzero"/></g><g clip-path="url(#4b8d077c8d)"><path fill="#bc813d" d="M 74.074219 15.882812 L 82.953125 33.859375 L 102.792969 36.742188 L 88.433594 50.746094 L 91.820312 70.503906 L 74.074219 61.175781 L 56.328125 70.503906 L 59.714844 50.746094 L 45.355469 36.742188 L 65.195312 33.859375 Z M 74.074219 15.882812 " fill-opacity="1" fill-rule="nonzero"/><path fill="#bc813d" d="M 74.074219 15.882812 L 82.953125 33.859375 L 102.792969 36.742188 L 88.433594 50.746094 L 91.820312 70.503906 L 74.074219 61.175781 L 56.328125 70.503906 L 59.714844 50.746094 L 45.355469 36.742188 L 65.195312 33.859375 Z M 74.074219 15.882812 " fill-opacity="1" fill-rule="nonzero"/><path fill="#bc813d" d="M 74.074219 15.882812 L 82.953125 33.859375 L 102.792969 36.742188 L 88.433594 50.746094 L 91.820312 70.503906 L 74.074219 61.175781 L 56.328125 70.503906 L 59.714844 50.746094 L 45.355469 36.742188 L 65.195312 33.859375 Z M 74.074219 15.882812 " fill-opacity="1" fill-rule="nonzero"/></g><g clip-path="url(#115c4c1ad4)"><path fill="#bc813d" d="M 308.867188 252.003906 C 308.984375 251.625 309.300781 251.347656 309.679688 251.277344 C 312.34375 250.84375 314.667969 249.789062 316.644531 248.121094 C 318.21875 246.789062 319.695312 244.816406 321.074219 242.191406 C 323.503906 237.558594 324.84375 232.582031 325.089844 227.253906 C 325.113281 226.882812 324.976562 226.8125 324.679688 227.042969 C 319.601562 231.085938 314.890625 235.59375 310.550781 240.574219 C 310.097656 241.089844 309.902344 241.007812 309.960938 240.324219 L 311.027344 228.375 C 311.058594 228.027344 311.28125 227.722656 311.609375 227.582031 C 314.996094 226.140625 317.445312 223.9375 318.964844 220.96875 C 320.140625 218.667969 320.914062 215.625 321.277344 211.835938 C 321.59375 208.601562 321.367188 205.339844 320.605469 202.046875 C 320.488281 201.546875 320.273438 201.5 319.960938 201.898438 C 316.191406 206.703125 312.757812 211.769531 309.65625 217.105469 C 309.554688 217.28125 309.484375 217.265625 309.453125 217.066406 L 307.566406 206.253906 C 307.460938 205.675781 307.625 205.089844 308.003906 204.671875 C 312.472656 199.714844 314.414062 194.054688 313.824219 187.695312 C 313.503906 184.242188 312.648438 180.757812 311.269531 177.25 C 311.167969 177 311.050781 176.992188 310.914062 177.21875 C 307.863281 182.304688 305.320312 187.539062 303.273438 192.925781 C 303.167969 193.199219 303.058594 193.203125 302.933594 192.941406 L 298.59375 183.535156 C 298.296875 182.898438 298.304688 182.257812 298.609375 181.617188 C 300.816406 176.957031 301.648438 172.277344 301.101562 167.574219 C 300.5625 162.890625 298.910156 158.5625 296.148438 154.597656 C 295.859375 154.183594 295.613281 154.207031 295.398438 154.664062 C 294.988281 155.566406 294.660156 156.636719 294.421875 157.878906 C 293.613281 162.0625 292.714844 166.421875 291.734375 170.945312 C 291.664062 171.261719 291.527344 171.292969 291.324219 171.039062 L 284.523438 162.476562 C 284.089844 161.933594 283.960938 161.347656 284.128906 160.714844 C 286.03125 153.453125 285.261719 146.433594 281.820312 139.664062 C 280.867188 137.789062 279.640625 136.113281 278.140625 134.636719 C 277.9375 134.429688 277.796875 134.472656 277.726562 134.753906 C 276.433594 140.097656 275.765625 145.515625 275.714844 151.015625 C 275.714844 151.226562 275.640625 151.253906 275.492188 151.101562 L 267.617188 143.132812 C 267.089844 142.601562 266.882812 141.957031 266.988281 141.207031 C 267.253906 139.34375 266.988281 137.316406 266.195312 135.121094 C 263.601562 127.9375 259.300781 122.195312 253.28125 117.894531 C 252.503906 117.34375 252.140625 117.542969 252.183594 118.496094 C 252.453125 123.957031 253.5625 129.160156 255.515625 134.105469 C 255.675781 134.507812 255.585938 134.570312 255.246094 134.304688 C 252.101562 131.8125 248.929688 129.410156 245.726562 127.09375 C 241.796875 124.253906 238.445312 122.121094 235.667969 120.691406 C 229.53125 117.539062 223.011719 115.386719 216.105469 114.234375 C 214.878906 114.03125 213.640625 113.960938 212.386719 114.019531 C 212.136719 114.03125 212.105469 114.121094 212.285156 114.289062 C 215.535156 117.359375 218.933594 120.21875 222.480469 122.867188 C 227.179688 126.382812 230.617188 128.660156 232.78125 129.695312 C 236.464844 131.464844 240.664062 132.519531 245.375 132.859375 C 246.292969 132.929688 247.09375 133.234375 247.765625 133.769531 L 253.683594 138.519531 C 254.863281 139.464844 254.703125 139.828125 253.203125 139.613281 C 246.6875 138.683594 241.175781 140.285156 236.664062 144.417969 C 236.644531 144.4375 236.625 144.457031 236.617188 144.484375 C 236.566406 144.589844 236.609375 144.714844 236.714844 144.765625 C 245.28125 149.027344 254.246094 149.621094 263.609375 146.539062 C 264.027344 146.402344 264.476562 146.496094 264.777344 146.792969 L 272.359375 154.246094 C 272.996094 154.871094 272.882812 155.0625 272.019531 154.828125 C 271.230469 154.605469 270.472656 154.410156 269.742188 154.230469 C 268.960938 154.039062 268.1875 153.941406 267.417969 153.941406 C 263.074219 153.941406 258.585938 154.519531 253.964844 155.675781 C 253.699219 155.742188 253.675781 155.855469 253.890625 156.023438 C 262.066406 162.121094 271.082031 165.054688 280.941406 164.832031 C 281.136719 164.832031 281.324219 164.910156 281.457031 165.054688 C 284.007812 167.882812 286.222656 170.957031 288.105469 174.277344 C 288.207031 174.453125 288.15625 174.507812 287.964844 174.429688 C 281.675781 172.0625 275.164062 170.65625 268.429688 170.207031 C 268.054688 170.183594 267.980469 170.320312 268.207031 170.617188 C 269.621094 172.476562 271.183594 174.261719 272.886719 175.980469 C 278.210938 181.359375 285.273438 184.445312 294.070312 185.230469 C 294.296875 185.246094 294.503906 185.382812 294.617188 185.582031 C 296.527344 189.046875 298.175781 192.539062 299.5625 196.046875 C 299.636719 196.230469 299.582031 196.273438 299.40625 196.164062 C 296.011719 194.078125 292.394531 192.507812 288.554688 191.464844 C 286.226562 190.832031 283.929688 190.21875 281.667969 189.625 C 281.113281 189.476562 280.980469 189.648438 281.273438 190.144531 C 282.65625 192.476562 284.195312 194.6875 285.886719 196.777344 C 287.878906 199.242188 289.800781 201.101562 291.648438 202.351562 C 294.839844 204.5 298.582031 205.84375 302.875 206.378906 C 303.3125 206.433594 303.652344 206.746094 303.722656 207.148438 L 305.5 217.664062 C 305.5625 218.027344 305.449219 218.089844 305.160156 217.839844 C 300.695312 213.988281 295.636719 211.210938 289.984375 209.5 C 289.957031 209.492188 289.929688 209.492188 289.898438 209.496094 C 289.789062 209.511719 289.714844 209.613281 289.730469 209.71875 C 290.890625 217.65625 295.074219 223.320312 302.28125 226.707031 C 303.527344 227.292969 304.914062 227.664062 306.441406 227.816406 C 306.621094 227.832031 306.75 227.988281 306.734375 228.164062 L 306.027344 239.625 C 305.988281 240.351562 305.753906 240.421875 305.328125 239.835938 C 302.25 235.566406 298.375 231.84375 293.695312 228.667969 C 293.652344 228.636719 293.601562 228.621094 293.550781 228.617188 C 293.386719 228.605469 293.246094 228.726562 293.230469 228.890625 C 293.050781 231.164062 293.027344 233.535156 293.15625 236 C 293.273438 238.199219 293.765625 240.148438 294.640625 241.84375 C 296.765625 245.960938 299.835938 248.929688 303.855469 250.757812 C 304.265625 250.945312 304.488281 251.402344 304.382812 251.84375 C 303.421875 255.742188 302.210938 259.53125 300.753906 263.210938 C 300.523438 263.796875 300.335938 263.785156 300.195312 263.171875 C 299.386719 259.671875 298.050781 256.226562 296.1875 252.832031 C 295 250.664062 293.773438 248.988281 292.511719 247.8125 C 292.492188 247.792969 292.464844 247.777344 292.433594 247.765625 C 292.328125 247.734375 292.21875 247.796875 292.183594 247.902344 C 291.105469 251.171875 290.484375 254.53125 290.320312 257.976562 C 290.042969 263.710938 291.875 268.628906 295.8125 272.726562 C 296.035156 272.960938 296.085938 273.300781 295.949219 273.570312 L 290.882812 282.957031 C 290.730469 283.238281 290.628906 283.21875 290.582031 282.898438 C 289.683594 277.457031 287.925781 272.453125 285.300781 267.882812 C 284.957031 267.285156 284.652344 267.304688 284.378906 267.933594 C 282.785156 271.671875 281.804688 275.734375 281.429688 280.125 C 281.089844 284.1875 281.941406 288.136719 283.988281 291.976562 C 284.398438 292.742188 284.34375 293.425781 283.828125 294.03125 L 276.574219 302.578125 C 276.414062 302.761719 276.335938 302.730469 276.339844 302.476562 C 276.402344 297.222656 275.703125 291.933594 274.242188 286.601562 C 274.230469 286.5625 274.210938 286.527344 274.179688 286.492188 C 274.078125 286.382812 273.910156 286.371094 273.804688 286.472656 C 272.753906 287.417969 271.941406 288.386719 271.355469 289.382812 C 269.46875 292.601562 268.015625 296.007812 267.011719 299.601562 C 266.066406 302.949219 266.007812 306.308594 266.824219 309.683594 C 266.871094 309.871094 266.816406 310.066406 266.675781 310.195312 C 263.546875 313.101562 260.304688 315.707031 256.949219 318.007812 C 256.613281 318.238281 256.511719 318.164062 256.652344 317.777344 C 257.472656 315.523438 257.925781 313.339844 258.007812 311.226562 C 258.125 308.066406 257.992188 304.917969 257.613281 301.789062 C 257.546875 301.242188 257.300781 301.148438 256.882812 301.496094 C 251.144531 306.324219 247.511719 312.421875 245.984375 319.792969 C 245.816406 320.59375 245.714844 321.613281 245.667969 322.863281 C 245.65625 323.152344 245.5 323.414062 245.253906 323.542969 L 235.308594 329.023438 C 234.882812 329.257812 234.792969 329.164062 235.050781 328.746094 C 238.097656 323.753906 239.617188 318.339844 239.617188 312.5 C 239.617188 312.472656 239.617188 312.449219 239.609375 312.425781 C 239.570312 312.296875 239.441406 312.226562 239.3125 312.261719 C 237.996094 312.632812 236.789062 313.234375 235.683594 314.0625 C 230.324219 318.085938 226.105469 323.222656 223.035156 329.480469 C 222.894531 329.765625 222.65625 329.992188 222.359375 330.105469 C 211.96875 334.246094 201.371094 336.914062 190.582031 338.113281 C 188.359375 338.359375 186.140625 338.332031 183.925781 338.03125 C 173.289062 336.578125 162.976562 333.953125 152.980469 330.15625 C 152.308594 329.898438 151.804688 329.457031 151.46875 328.828125 C 149.058594 324.363281 146.089844 320.3125 142.558594 316.675781 C 140.703125 314.761719 138.503906 313.300781 135.964844 312.296875 C 135.875 312.261719 135.773438 312.246094 135.675781 312.253906 C 135.335938 312.285156 135.082031 312.589844 135.117188 312.929688 C 135.644531 318.746094 137.25 324.019531 139.9375 328.753906 C 140.167969 329.160156 140.09375 329.222656 139.722656 328.949219 C 136.90625 326.859375 133.738281 324.949219 130.222656 323.21875 C 130.035156 323.125 129.914062 322.9375 129.90625 322.730469 C 129.863281 321.230469 129.625 319.785156 129.191406 318.390625 C 127.660156 313.511719 125.28125 309.09375 122.050781 305.136719 C 120.832031 303.648438 119.460938 302.410156 117.933594 301.429688 C 117.875 301.386719 117.800781 301.363281 117.726562 301.359375 C 117.476562 301.339844 117.261719 301.523438 117.242188 301.773438 C 117.003906 304.863281 116.976562 307.847656 117.160156 310.738281 C 117.3125 313.105469 117.847656 315.378906 118.769531 317.570312 C 119.035156 318.195312 118.902344 318.296875 118.378906 317.878906 L 108.929688 310.328125 C 108.792969 310.21875 108.734375 310.023438 108.789062 309.835938 C 109.421875 307.574219 109.652344 305.765625 109.476562 304.402344 C 108.640625 297.859375 106.101562 291.984375 101.867188 286.773438 C 101.3125 286.097656 100.941406 286.183594 100.746094 287.035156 C 99.589844 292.082031 99.078125 297.269531 99.222656 302.59375 C 99.230469 302.875 99.136719 302.910156 98.960938 302.703125 L 90.78125 293.558594 C 90.535156 293.28125 90.503906 292.863281 90.699219 292.519531 C 93.335938 287.910156 94.210938 283.132812 93.320312 278.191406 C 92.957031 276.164062 92.429688 274.253906 91.746094 272.457031 C 91.03125 270.578125 90.054688 268.835938 88.808594 267.226562 C 88.792969 267.203125 88.765625 267.183594 88.742188 267.171875 C 88.644531 267.125 88.527344 267.160156 88.484375 267.257812 C 86.230469 271.878906 84.71875 277.117188 83.9375 282.964844 C 83.867188 283.492188 83.707031 283.527344 83.460938 283.066406 L 78.347656 273.574219 C 78.257812 273.40625 78.28125 273.203125 78.410156 273.046875 C 80.289062 270.695312 81.601562 268.902344 82.355469 267.675781 C 83.519531 265.765625 84.207031 263.453125 84.402344 260.738281 C 84.71875 256.4375 84.128906 252.203125 82.640625 248.039062 C 82.464844 247.554688 82.226562 247.519531 81.914062 247.933594 C 78.429688 252.5625 75.910156 257.609375 74.347656 263.066406 C 74.226562 263.503906 74.082031 263.507812 73.929688 263.078125 C 72.496094 259.191406 71.328125 255.324219 70.429688 251.476562 C 70.335938 251.078125 70.527344 250.664062 70.894531 250.480469 C 75.226562 248.300781 78.390625 245.34375 80.386719 241.613281 C 81.171875 240.144531 81.625 238.578125 81.742188 236.914062 C 81.929688 234.339844 81.988281 231.613281 81.917969 228.738281 C 81.910156 228.417969 81.777344 228.351562 81.515625 228.542969 C 76.894531 231.878906 72.824219 235.863281 69.3125 240.496094 C 69.175781 240.675781 69.101562 240.65625 69.089844 240.4375 L 68.34375 228.238281 C 68.332031 227.992188 68.507812 227.765625 68.761719 227.707031 C 78.429688 225.324219 84.03125 219.324219 85.558594 209.703125 C 85.5625 209.671875 85.558594 209.644531 85.550781 209.617188 C 85.519531 209.515625 85.410156 209.457031 85.308594 209.492188 C 79.78125 211.210938 74.804688 213.796875 70.375 217.242188 C 69.964844 217.558594 69.792969 217.460938 69.855469 216.949219 C 70.25 213.511719 70.886719 210.113281 71.753906 206.757812 C 71.847656 206.378906 72.1875 206.117188 72.578125 206.109375 C 75.023438 206.058594 77.34375 205.457031 79.539062 204.304688 C 85.746094 201.042969 90.480469 196.285156 93.738281 190.039062 C 93.882812 189.761719 93.796875 189.648438 93.488281 189.710938 C 87.375 190.878906 81.460938 193.015625 75.742188 196.113281 C 75.273438 196.371094 75.128906 196.246094 75.308594 195.742188 C 76.507812 192.421875 78.023438 189.042969 79.859375 185.601562 C 79.972656 185.390625 80.183594 185.246094 80.425781 185.222656 C 88.964844 184.429688 95.8125 181.433594 100.972656 176.234375 C 102.753906 174.4375 104.40625 172.527344 105.929688 170.5 C 106.097656 170.273438 106.042969 170.171875 105.761719 170.199219 C 101.398438 170.59375 97.082031 171.285156 92.808594 172.273438 C 90.957031 172.699219 89.183594 173.351562 87.496094 174.226562 C 86.78125 174.59375 86.621094 174.429688 87.015625 173.726562 C 88.710938 170.699219 90.78125 167.808594 93.21875 165.054688 C 93.347656 164.910156 93.535156 164.824219 93.738281 164.832031 C 103.398438 165.078125 112.003906 162.152344 119.550781 156.050781 C 120.03125 155.664062 119.96875 155.40625 119.363281 155.285156 C 118.09375 155.027344 116.738281 154.808594 115.300781 154.621094 C 115.238281 154.613281 114.050781 154.425781 111.738281 154.0625 C 108.5 153.554688 105.285156 153.734375 102.082031 154.597656 C 101.882812 154.648438 101.851562 154.601562 101.984375 154.453125 C 104.648438 151.46875 107.578125 148.78125 110.777344 146.394531 C 110.9375 146.273438 111.140625 146.242188 111.320312 146.308594 C 119.871094 149.214844 128.46875 148.679688 137.109375 144.703125 C 137.140625 144.691406 137.171875 144.667969 137.199219 144.644531 C 137.335938 144.519531 137.347656 144.300781 137.222656 144.164062 C 133.433594 140.105469 128.828125 138.457031 123.410156 139.21875 C 122.421875 139.355469 121.441406 139.378906 120.46875 139.277344 C 120.261719 139.257812 120.242188 139.183594 120.410156 139.046875 C 123.0625 137 125.789062 135.066406 128.589844 133.246094 C 129.394531 132.722656 130.277344 132.410156 131.234375 132.316406 C 132.699219 132.167969 134.171875 132.050781 135.644531 131.964844 C 137.667969 131.84375 140.082031 131.003906 142.878906 129.441406 C 147.105469 127.089844 151.058594 124.339844 154.738281 121.195312 C 157.347656 118.957031 160.078125 116.640625 162.929688 114.242188 C 163.234375 113.992188 163.1875 113.863281 162.792969 113.859375 C 160.875 113.847656 159.246094 113.96875 157.914062 114.222656 C 147.621094 116.21875 138.277344 120.324219 129.878906 126.539062 C 126.132812 129.3125 122.421875 132.128906 118.738281 134.984375 C 118.582031 135.109375 118.542969 135.082031 118.621094 134.898438 C 120.84375 129.695312 122.199219 124.042969 122.695312 117.929688 C 122.730469 117.511719 122.570312 117.417969 122.21875 117.652344 C 115.738281 121.945312 111.078125 127.851562 108.242188 135.367188 C 107.589844 137.109375 107.417969 139.328125 107.742188 142.019531 C 107.765625 142.222656 107.699219 142.417969 107.5625 142.550781 L 99.144531 150.878906 C 98.894531 151.121094 98.777344 151.070312 98.785156 150.71875 C 98.890625 145.152344 98.359375 140.09375 97.1875 135.546875 C 96.996094 134.800781 96.664062 134.734375 96.195312 135.347656 C 90.71875 142.566406 88.875 150.953125 90.660156 160.503906 C 90.78125 161.167969 90.621094 161.75 90.183594 162.257812 C 87.878906 164.914062 85.601562 167.9375 83.363281 171.324219 C 83.089844 171.734375 82.910156 171.695312 82.824219 171.207031 L 79.964844 155.195312 C 79.804688 154.289062 79.457031 154.214844 78.917969 154.972656 C 73.292969 162.902344 72.347656 171.6875 76.074219 181.332031 C 76.429688 182.253906 76.402344 183.152344 75.988281 184.039062 L 71.738281 193.101562 C 71.570312 193.453125 71.425781 193.445312 71.296875 193.078125 C 69.417969 187.726562 66.871094 182.722656 63.652344 178.070312 C 63.53125 177.902344 63.433594 177.917969 63.359375 178.113281 C 62.238281 181.039062 61.566406 184.335938 61.347656 188 C 60.964844 194.453125 62.777344 199.886719 66.789062 204.316406 C 67.359375 204.945312 67.574219 205.699219 67.425781 206.582031 L 65.800781 216.066406 C 65.683594 216.78125 65.433594 216.832031 65.054688 216.222656 C 61.953125 211.175781 58.5 206.347656 54.695312 201.746094 C 54.558594 201.585938 54.46875 201.605469 54.429688 201.808594 C 53.023438 208.613281 53.839844 215.121094 56.875 221.328125 C 58.269531 224.167969 60.558594 226.199219 63.75 227.414062 C 63.972656 227.5 64.125 227.710938 64.140625 227.960938 L 64.765625 240.605469 C 64.804688 241.359375 64.601562 241.433594 64.160156 240.828125 C 60.292969 235.476562 55.691406 230.78125 50.347656 226.742188 C 50.027344 226.496094 49.875 226.574219 49.886719 226.976562 C 50.027344 232.226562 51.207031 237.097656 53.417969 241.59375 C 54.863281 244.535156 56.765625 246.925781 59.121094 248.769531 C 59.988281 249.441406 60.941406 249.96875 61.984375 250.34375 C 63.015625 250.714844 64.070312 250.996094 65.152344 251.1875 C 65.550781 251.261719 65.878906 251.542969 65.996094 251.925781 L 69.398438 263.148438 C 69.558594 263.660156 69.414062 263.761719 68.972656 263.453125 C 65.121094 260.75 61.25 258.183594 57.359375 255.761719 C 55.507812 254.601562 53.957031 253.785156 52.703125 253.316406 C 52.507812 253.238281 52.425781 253.300781 52.464844 253.515625 C 53.984375 261.636719 58.074219 267.898438 64.722656 272.292969 C 66.226562 273.289062 67.675781 274.011719 69.066406 274.460938 C 70.644531 274.96875 72.261719 275.246094 73.914062 275.296875 C 74.183594 275.304688 74.421875 275.457031 74.550781 275.6875 L 79.925781 285.375 C 80.230469 285.921875 80.101562 286.066406 79.53125 285.792969 C 73.664062 283.03125 67.476562 280.59375 60.96875 278.476562 C 60.71875 278.394531 60.644531 278.476562 60.753906 278.71875 C 62.496094 282.683594 64.84375 286.101562 67.804688 288.964844 C 72.699219 293.703125 78.828125 295.785156 86.195312 295.214844 C 86.46875 295.195312 86.730469 295.300781 86.902344 295.496094 L 95.675781 305.496094 C 95.804688 305.644531 95.847656 305.816406 95.789062 305.90625 C 95.726562 305.988281 95.601562 305.992188 95.414062 305.917969 C 91.730469 304.386719 87.90625 303.355469 83.953125 302.824219 C 81.128906 302.441406 78.300781 302.0625 75.472656 301.695312 C 75.265625 301.667969 75.222656 301.734375 75.335938 301.90625 C 77.210938 304.589844 79.605469 307.03125 82.515625 309.238281 C 86.75 312.441406 91.402344 314.328125 96.472656 314.90625 C 99.484375 315.242188 102.359375 314.863281 105.097656 313.773438 C 105.402344 313.648438 105.742188 313.683594 106.015625 313.867188 C 109.507812 316.1875 112.84375 318.703125 116.03125 321.398438 C 116.832031 322.078125 116.726562 322.28125 115.714844 322.011719 C 114.082031 321.578125 112.421875 321.433594 110.738281 321.574219 C 106.578125 321.921875 102.191406 322.542969 97.574219 323.4375 C 97.292969 323.492188 97.257812 323.609375 97.480469 323.796875 C 100.109375 325.957031 102.902344 327.691406 105.859375 329.007812 C 109.128906 330.464844 112.273438 331.222656 115.300781 331.277344 C 119.820312 331.359375 124.039062 330.046875 127.957031 327.339844 C 128.117188 327.226562 128.324219 327.207031 128.492188 327.289062 C 132.078125 328.941406 135.515625 330.765625 138.804688 332.765625 C 139.632812 333.269531 139.566406 333.566406 138.601562 333.660156 C 132.828125 334.195312 127.355469 335.726562 122.175781 338.246094 C 121.710938 338.472656 121.710938 338.699219 122.175781 338.921875 C 127.015625 341.242188 132.125 342.449219 137.503906 342.53125 C 142.910156 342.609375 147.464844 340.988281 151.175781 337.671875 C 151.570312 337.320312 152.121094 337.199219 152.632812 337.347656 C 161.636719 340.023438 170.332031 342.140625 178.71875 343.695312 C 179.835938 343.90625 179.84375 344.132812 178.730469 344.375 C 169.855469 346.328125 162.515625 350.953125 156.707031 358.25 C 156.242188 358.835938 156.382812 359.082031 157.121094 358.984375 C 162.71875 358.292969 167.820312 356.867188 172.429688 354.707031 C 177.445312 352.347656 182.234375 349.527344 186.792969 346.234375 C 186.949219 346.121094 187.15625 346.121094 187.3125 346.234375 C 195.015625 351.746094 203.445312 355.726562 212.605469 358.171875 C 213.816406 358.492188 215.140625 358.683594 216.578125 358.742188 C 217.035156 358.757812 217.125 358.585938 216.851562 358.222656 C 213.375 353.585938 208.980469 349.882812 203.65625 347.121094 C 201.394531 345.949219 199 345.105469 196.476562 344.59375 C 195.054688 344.3125 195.058594 344.050781 196.496094 343.820312 C 205.460938 342.382812 214.328125 340.121094 223.089844 337.046875 C 223.261719 336.984375 223.464844 337.027344 223.601562 337.164062 C 227.339844 340.855469 231.765625 342.679688 236.882812 342.632812 C 242.777344 342.582031 248.199219 341.175781 253.148438 338.402344 C 253.695312 338.097656 253.679688 337.820312 253.105469 337.570312 C 247.550781 335.097656 241.808594 333.742188 235.878906 333.515625 C 235.226562 333.484375 235.199219 333.328125 235.785156 333.042969 L 247.378906 327.417969 C 247.664062 327.28125 248 327.300781 248.257812 327.476562 C 251.558594 329.695312 255.082031 330.921875 258.824219 331.152344 C 261.996094 331.351562 265.332031 330.691406 268.839844 329.179688 C 271.925781 327.847656 274.890625 326.054688 277.742188 323.796875 C 278.011719 323.585938 277.980469 323.433594 277.644531 323.347656 C 271.355469 321.699219 265.25 321.152344 259.328125 321.707031 C 259.109375 321.726562 259.089844 321.671875 259.261719 321.542969 L 269.601562 313.859375 C 269.75 313.75 269.953125 313.714844 270.15625 313.765625 C 278.285156 315.863281 285.730469 314.402344 292.492188 309.386719 C 295.367188 307.253906 297.726562 304.800781 299.5625 302.023438 C 299.675781 301.851562 299.625 301.777344 299.417969 301.792969 C 296.414062 302.113281 293.417969 302.476562 290.429688 302.890625 C 286.914062 303.371094 283.507812 304.285156 280.21875 305.632812 C 279.578125 305.898438 279.464844 305.753906 279.882812 305.199219 C 282.289062 302.015625 285.097656 298.761719 288.316406 295.4375 C 288.546875 295.199219 288.863281 295.078125 289.191406 295.09375 C 294.972656 295.453125 300.019531 293.835938 304.328125 290.25 C 308.03125 287.164062 310.898438 283.429688 312.929688 279.042969 C 313.113281 278.640625 313.003906 278.515625 312.59375 278.671875 L 295.1875 285.226562 C 294.800781 285.378906 294.710938 285.277344 294.914062 284.929688 L 300.652344 275.351562 C 300.792969 275.125 301.054688 274.988281 301.347656 274.988281 C 303.449219 274.996094 305.410156 274.546875 307.234375 273.636719 C 315.304688 269.601562 320.308594 263.007812 322.25 253.855469 C 322.355469 253.351562 322.1875 253.230469 321.742188 253.484375 C 316.382812 256.582031 311.210938 259.847656 306.21875 263.273438 C 305.546875 263.730469 305.328125 263.566406 305.566406 262.78125 Z M 308.867188 252.003906 " fill-opacity="1" fill-rule="nonzero"/></g><path fill="#bc813d" d="M 191.046875 161.328125 C 191.519531 161.523438 191.96875 161.761719 192.394531 162.046875 C 192.820312 162.332031 193.214844 162.65625 193.574219 163.015625 C 193.9375 163.378906 194.261719 163.773438 194.542969 164.199219 C 194.828125 164.625 195.070312 165.074219 195.265625 165.546875 C 195.460938 166.019531 195.609375 166.507812 195.707031 167.007812 C 195.808594 167.511719 195.859375 168.019531 195.859375 168.53125 C 195.859375 169.042969 195.808594 169.546875 195.707031 170.050781 C 195.609375 170.554688 195.460938 171.039062 195.265625 171.511719 C 195.070312 171.988281 194.828125 172.4375 194.542969 172.863281 C 194.261719 173.285156 193.9375 173.679688 193.574219 174.042969 C 193.214844 174.40625 192.820312 174.726562 192.394531 175.011719 C 191.96875 175.296875 191.519531 175.535156 191.046875 175.734375 C 190.574219 175.929688 190.085938 176.078125 189.582031 176.175781 C 189.082031 176.277344 188.574219 176.328125 188.0625 176.328125 C 187.550781 176.328125 187.042969 176.277344 186.539062 176.175781 C 186.039062 176.078125 185.550781 175.929688 185.078125 175.734375 C 184.605469 175.535156 184.15625 175.296875 183.730469 175.011719 C 183.304688 174.726562 182.910156 174.40625 182.550781 174.042969 C 182.1875 173.679688 181.863281 173.285156 181.578125 172.863281 C 181.292969 172.4375 181.054688 171.988281 180.859375 171.511719 C 180.664062 171.039062 180.515625 170.554688 180.414062 170.050781 C 180.316406 169.546875 180.265625 169.042969 180.265625 168.53125 C 180.265625 168.019531 180.316406 167.511719 180.414062 167.007812 C 180.515625 166.507812 180.664062 166.019531 180.859375 165.546875 C 181.054688 165.074219 181.292969 164.625 181.578125 164.199219 C 181.863281 163.773438 182.1875 163.378906 182.550781 163.015625 C 182.910156 162.65625 183.304688 162.332031 183.730469 162.046875 C 184.15625 161.761719 184.605469 161.523438 185.078125 161.328125 C 185.550781 161.128906 186.039062 160.984375 186.539062 160.882812 C 187.042969 160.78125 187.550781 160.734375 188.0625 160.734375 C 188.574219 160.734375 189.082031 160.78125 189.582031 160.882812 C 190.085938 160.984375 190.574219 161.128906 191.046875 161.328125 Z M 191.046875 161.328125 " fill-opacity="1" fill-rule="nonzero"/><path fill="#bc813d" d="M 270.078125 258.847656 C 269.894531 258.757812 269.765625 258.59375 269.714844 258.394531 C 268.359375 253.164062 266.851562 248.023438 265.1875 242.960938 C 260.710938 229.347656 256.128906 215.765625 251.453125 202.214844 C 251.070312 201.09375 250.738281 200.195312 250.457031 199.519531 C 251.894531 198.472656 252.832031 196.78125 252.832031 194.871094 C 252.832031 192.8125 251.753906 191.015625 250.132812 190 C 250.410156 189.929688 250.667969 189.859375 250.914062 189.78125 C 253.609375 189.300781 255.660156 186.953125 255.660156 184.117188 C 255.660156 182.066406 254.585938 180.273438 252.972656 179.253906 C 252.203125 178.703125 251.359375 178.410156 250.4375 178.367188 C 251.140625 179.183594 251.605469 180.210938 251.71875 181.335938 C 252.058594 184.769531 249.199219 187.625 245.765625 187.285156 C 245.511719 187.261719 245.261719 187.210938 245.015625 187.152344 C 245.027344 187.171875 245.035156 187.191406 245.050781 187.210938 C 228.609375 184.351562 212.210938 181.65625 195.863281 179.125 C 190.585938 178.308594 185.421875 178.277344 180.371094 179.03125 C 165.0625 181.3125 148.773438 184.070312 131.511719 187.304688 C 131.519531 187.292969 131.523438 187.277344 131.53125 187.265625 C 131.125 187.320312 130.703125 187.328125 130.269531 187.285156 C 127.734375 187.03125 125.679688 184.980469 125.425781 182.441406 C 125.273438 180.878906 125.78125 179.4375 126.707031 178.359375 C 126.300781 178.359375 125.902344 178.402344 125.519531 178.484375 C 125.332031 178.519531 125.140625 178.558594 124.949219 178.613281 C 123.773438 178.929688 122.847656 179.59375 122.167969 180.59375 C 121.414062 181.566406 120.957031 182.789062 120.957031 184.113281 C 120.957031 184.171875 120.964844 184.226562 120.964844 184.285156 C 120.90625 185.5625 121.265625 186.691406 122.050781 187.660156 C 122.847656 188.648438 123.871094 189.390625 125.117188 189.890625 C 123.402344 190.890625 122.246094 192.742188 122.246094 194.867188 C 122.246094 197.003906 123.414062 198.867188 125.144531 199.859375 C 123.65625 204.703125 122.046875 209.527344 120.300781 214.324219 C 116.769531 224.023438 113.355469 233.765625 110.054688 243.542969 C 107.835938 250.097656 106.3125 255.207031 105.476562 258.871094 C 105.4375 259.046875 105.285156 259.175781 105.097656 259.191406 C 103.6875 259.304688 102.875 260.035156 102.660156 261.382812 C 102.285156 263.726562 103.105469 265.335938 105.117188 266.207031 C 105.488281 266.367188 106.03125 266.460938 106.753906 266.484375 C 107.316406 266.507812 107.878906 266.578125 108.429688 266.695312 C 108.625 266.734375 108.804688 266.835938 108.949219 266.988281 C 109.910156 267.992188 110.863281 269.011719 111.796875 270.046875 C 114.160156 272.652344 116.914062 274.460938 120.070312 275.480469 C 122.894531 276.394531 126.070312 276.757812 129.609375 276.566406 C 136.464844 276.191406 142.011719 273.058594 146.246094 267.175781 C 146.363281 267.011719 146.546875 266.910156 146.734375 266.902344 C 147.230469 266.878906 147.722656 266.878906 148.214844 266.902344 C 148.941406 266.929688 149.527344 266.878906 149.96875 266.75 C 152.832031 265.929688 153.921875 264 153.242188 260.960938 C 153.136719 260.46875 152.960938 260.085938 152.722656 259.816406 C 152.394531 259.445312 152 259.238281 151.546875 259.199219 C 151.191406 259.167969 150.890625 258.914062 150.796875 258.566406 C 149.390625 253.089844 147.878906 247.851562 146.265625 242.851562 C 141.667969 228.601562 136.8125 214.433594 131.703125 200.359375 C 131.617188 200.121094 131.488281 199.859375 131.324219 199.570312 C 132.796875 198.527344 133.765625 196.8125 133.765625 194.871094 C 133.765625 192.828125 132.703125 191.042969 131.101562 190.019531 C 134.96875 189.511719 140.242188 188.738281 146.933594 187.703125 C 158.898438 185.851562 170.714844 183.980469 182.378906 182.078125 C 182.394531 182.074219 182.414062 182.074219 182.429688 182.074219 C 182.726562 182.058594 182.980469 182.28125 183 182.578125 C 184.066406 205.691406 184.546875 228.808594 184.433594 251.9375 C 184.414062 256.5 184.332031 260.625 184.195312 264.3125 C 183.882812 272.359375 183.433594 278.914062 182.84375 283.976562 C 182.265625 288.949219 181.492188 293.492188 180.523438 297.597656 C 179.726562 300.976562 178.59375 304.3125 177.125 307.609375 C 175.660156 310.890625 174.085938 313.5625 172.394531 315.621094 C 170.398438 318.042969 168.035156 320.117188 165.316406 321.84375 C 162.492188 323.640625 159.621094 325.375 156.71875 327.054688 C 155.675781 327.65625 155.746094 328.058594 156.933594 328.265625 C 167.027344 329.996094 176.84375 329.839844 186.390625 327.792969 C 187.304688 327.601562 188.226562 327.589844 189.152344 327.757812 C 198.84375 329.542969 208.25 329.808594 217.371094 328.554688 C 218.871094 328.347656 219.019531 327.785156 217.820312 326.863281 C 216.800781 326.085938 215.554688 325.308594 214.085938 324.546875 C 209.34375 322.078125 205.472656 318.773438 202.464844 314.632812 C 200.46875 311.894531 198.691406 308.191406 197.132812 303.527344 C 195.351562 298.199219 194.148438 292.921875 193.53125 287.6875 C 191.503906 270.5 190.644531 252.492188 190.957031 233.664062 C 191.238281 216.582031 191.734375 199.507812 192.433594 182.433594 C 192.433594 182.421875 192.4375 182.410156 192.4375 182.398438 C 192.460938 182.246094 192.601562 182.140625 192.75 182.167969 L 243.929688 190.039062 C 242.359375 191.070312 241.320312 192.839844 241.320312 194.855469 C 241.320312 196.914062 242.402344 198.710938 244.027344 199.734375 C 244 199.78125 243.972656 199.832031 243.957031 199.878906 C 240.605469 209.578125 237.214844 219.269531 233.777344 228.945312 C 230.695312 237.625 227.832031 246.378906 225.183594 255.203125 C 224.882812 256.210938 224.636719 257.339844 224.441406 258.597656 C 224.410156 258.792969 224.277344 258.953125 224.09375 259.023438 C 222.175781 259.742188 221.273438 260.929688 221.386719 262.585938 C 221.472656 263.886719 221.996094 264.945312 222.953125 265.765625 C 223.949219 266.632812 225.230469 266.925781 226.785156 266.640625 C 227.386719 266.527344 228.007812 266.742188 228.414062 267.203125 C 229.539062 268.484375 230.679688 269.679688 231.835938 270.796875 C 233.191406 272.105469 234.5 273.109375 235.761719 273.800781 C 238.882812 275.507812 242.449219 276.421875 246.46875 276.542969 C 254.753906 276.785156 261.144531 273.722656 265.636719 267.359375 C 265.75 267.199219 265.929688 267.105469 266.117188 267.105469 C 267.695312 267.121094 269.105469 266.757812 270.347656 266.015625 C 271.695312 265.210938 272.457031 264.136719 272.640625 262.789062 C 272.859375 261.132812 272.011719 259.8125 270.078125 258.847656 Z M 152.507812 262.195312 C 152.511719 262.144531 152.515625 262.097656 152.519531 262.050781 C 152.515625 262.101562 152.511719 262.148438 152.507812 262.195312 C 152.503906 262.226562 152.5 262.253906 152.496094 262.28125 C 152.5 262.253906 152.503906 262.226562 152.507812 262.195312 Z M 152.390625 261.453125 C 152.355469 261.410156 152.316406 261.386719 152.273438 261.378906 C 152.316406 261.382812 152.355469 261.410156 152.390625 261.453125 Z M 152.089844 262.941406 C 152.015625 262.933594 151.953125 262.867188 151.910156 262.757812 C 151.957031 262.867188 152.019531 262.933594 152.089844 262.941406 Z M 126.609375 261.804688 C 126.609375 261.808594 126.609375 261.8125 126.609375 261.8125 C 126.609375 261.980469 126.476562 262.113281 126.3125 262.113281 L 110.988281 262.144531 C 110.582031 262.152344 110.234375 261.851562 110.171875 261.445312 C 109.988281 260.269531 109.527344 259.480469 108.789062 259.074219 C 108.738281 259.046875 108.535156 259.015625 108.191406 258.976562 L 106.984375 258.851562 C 106.96875 258.851562 106.957031 258.847656 106.941406 258.84375 C 106.796875 258.800781 106.722656 258.625 106.765625 258.453125 C 109.425781 248.640625 112.511719 238.96875 116.023438 229.429688 C 119.332031 220.449219 122.519531 211.425781 125.585938 202.359375 C 125.816406 201.679688 126.132812 201.035156 126.539062 200.429688 C 126.714844 200.472656 126.890625 200.511719 127.074219 200.539062 C 127.074219 200.558594 127.074219 200.570312 127.074219 200.589844 C 126.550781 220.9375 126.394531 241.347656 126.609375 261.804688 Z M 149.59375 258.335938 C 149.59375 258.335938 149.59375 258.339844 149.59375 258.34375 C 149.636719 258.503906 149.539062 258.667969 149.375 258.710938 C 148.828125 258.847656 148.277344 258.957031 147.722656 259.039062 C 146.414062 259.238281 145.734375 260.019531 145.691406 261.386719 C 145.675781 261.816406 145.328125 262.15625 144.898438 262.15625 L 127.925781 262.117188 C 127.917969 262.117188 127.910156 262.117188 127.898438 262.117188 C 127.742188 262.105469 127.628906 261.964844 127.640625 261.8125 C 127.671875 261.4375 127.71875 261.070312 127.78125 260.703125 C 127.851562 260.285156 127.886719 259.914062 127.886719 259.582031 C 127.972656 242.222656 128.136719 224.871094 128.375 207.515625 C 128.410156 205.207031 128.496094 202.898438 128.625 200.589844 C 129.148438 200.535156 129.652344 200.40625 130.121094 200.21875 C 130.230469 200.351562 130.320312 200.503906 130.382812 200.667969 C 137.683594 219.761719 144.085938 238.984375 149.59375 258.335938 Z M 247.066406 205.65625 C 246.90625 224.398438 246.871094 243.144531 246.964844 261.886719 C 246.964844 262.058594 246.824219 262.191406 246.652344 262.191406 L 229.773438 262.152344 C 229.441406 262.152344 229.164062 261.890625 229.15625 261.558594 C 229.128906 260.5625 228.675781 259.746094 227.792969 259.113281 C 227.699219 259.042969 227.511719 258.988281 227.230469 258.957031 L 226.046875 258.800781 C 226.042969 258.800781 226.042969 258.800781 226.039062 258.800781 C 225.878906 258.777344 225.777344 258.597656 225.804688 258.402344 C 226.261719 255.660156 227.011719 252.679688 228.039062 249.460938 C 233.535156 232.320312 239.246094 216.101562 245.167969 200.808594 C 245.230469 200.636719 245.296875 200.496094 245.367188 200.371094 C 245.820312 200.507812 246.300781 200.589844 246.792969 200.613281 C 247 201.1875 247.089844 202.867188 247.066406 205.65625 Z M 266.550781 261.804688 C 266.558594 261.667969 266.585938 261.542969 266.632812 261.429688 C 266.585938 261.542969 266.558594 261.667969 266.550781 261.804688 C 266.53125 262.105469 266.613281 262.378906 266.757812 262.542969 C 266.613281 262.378906 266.527344 262.105469 266.550781 261.804688 Z M 267.066406 262.714844 C 267.078125 262.714844 267.09375 262.710938 267.105469 262.710938 C 267.09375 262.710938 267.078125 262.714844 267.066406 262.714844 Z M 267.265625 262.675781 C 267.460938 262.585938 267.617188 262.351562 267.675781 262.058594 C 267.617188 262.351562 267.460938 262.585938 267.265625 262.675781 Z M 267.183594 260.972656 C 267.332031 260.984375 267.460938 261.078125 267.554688 261.226562 C 267.460938 261.078125 267.332031 260.984375 267.183594 260.972656 Z M 268.132812 258.71875 C 265.902344 258.878906 264.707031 259.847656 264.550781 261.625 C 264.519531 261.949219 264.25 262.195312 263.925781 262.195312 L 248.589844 262.191406 C 248.417969 262.191406 248.285156 262.050781 248.285156 261.878906 L 248.476562 200.445312 C 248.753906 200.375 249.027344 200.289062 249.285156 200.183594 C 249.324219 200.246094 249.355469 200.316406 249.386719 200.398438 C 256.4375 219.480469 262.824219 238.722656 268.550781 258.117188 C 268.558594 258.148438 268.566406 258.183594 268.566406 258.21875 C 268.585938 258.472656 268.390625 258.695312 268.132812 258.71875 Z M 268.132812 258.71875 " fill-opacity="1" fill-rule="nonzero"/><g clip-path="url(#47bbfedbc0)"><path fill="#bc813d" d="M 149.289062 16.054688 L 158.160156 34.03125 L 177.996094 36.914062 L 163.636719 50.917969 L 167.039062 70.675781 L 149.289062 61.347656 L 131.53125 70.675781 L 134.921875 50.917969 L 120.574219 36.914062 L 140.410156 34.03125 Z M 149.289062 16.054688 " fill-opacity="1" fill-rule="nonzero"/></g><g clip-path="url(#efa1ebda02)"><path fill="#bc813d" d="M 149.152344 15.882812 L 158.03125 33.859375 L 177.871094 36.742188 L 163.511719 50.746094 L 166.902344 70.503906 L 149.152344 61.175781 L 131.40625 70.503906 L 134.792969 50.746094 L 120.433594 36.742188 L 140.273438 33.859375 Z M 149.152344 15.882812 " fill-opacity="1" fill-rule="nonzero"/><path fill="#bc813d" d="M 149.152344 15.882812 L 158.03125 33.859375 L 177.871094 36.742188 L 163.511719 50.746094 L 166.902344 70.503906 L 149.152344 61.175781 L 131.40625 70.503906 L 134.792969 50.746094 L 120.433594 36.742188 L 140.273438 33.859375 Z M 149.152344 15.882812 " fill-opacity="1" fill-rule="nonzero"/><path fill="#bc813d" d="M 149.152344 15.882812 L 158.03125 33.859375 L 177.871094 36.742188 L 163.511719 50.746094 L 166.902344 70.503906 L 149.152344 61.175781 L 131.40625 70.503906 L 134.792969 50.746094 L 120.433594 36.742188 L 140.273438 33.859375 Z M 149.152344 15.882812 " fill-opacity="1" fill-rule="nonzero"/></g><g clip-path="url(#6deae97ada)"><path fill="#bc813d" d="M 225.113281 16.054688 L 233.980469 34.03125 L 253.820312 36.914062 L 239.460938 50.917969 L 242.863281 70.675781 L 225.113281 61.347656 L 207.355469 70.675781 L 210.742188 50.917969 L 196.394531 36.914062 L 216.234375 34.03125 Z M 225.113281 16.054688 " fill-opacity="1" fill-rule="nonzero"/></g><g clip-path="url(#7e53986aae)"><path fill="#bc813d" d="M 224.976562 15.882812 L 233.855469 33.859375 L 253.695312 36.742188 L 239.335938 50.746094 L 242.722656 70.503906 L 224.976562 61.175781 L 207.226562 70.503906 L 210.617188 50.746094 L 196.257812 36.742188 L 216.097656 33.859375 Z M 224.976562 15.882812 " fill-opacity="1" fill-rule="nonzero"/><path fill="#bc813d" d="M 224.976562 15.882812 L 233.855469 33.859375 L 253.695312 36.742188 L 239.335938 50.746094 L 242.722656 70.503906 L 224.976562 61.175781 L 207.226562 70.503906 L 210.617188 50.746094 L 196.257812 36.742188 L 216.097656 33.859375 Z M 224.976562 15.882812 " fill-opacity="1" fill-rule="nonzero"/><path fill="#bc813d" d="M 224.976562 15.882812 L 233.855469 33.859375 L 253.695312 36.742188 L 239.335938 50.746094 L 242.722656 70.503906 L 224.976562 61.175781 L 207.226562 70.503906 L 210.617188 50.746094 L 196.257812 36.742188 L 216.097656 33.859375 Z M 224.976562 15.882812 " fill-opacity="1" fill-rule="nonzero"/></g><g clip-path="url(#282191a34f)"><path fill="#bc813d" d="M 300.9375 16.054688 L 309.804688 34.03125 L 329.644531 36.914062 L 315.285156 50.917969 L 318.683594 70.675781 L 300.9375 61.347656 L 283.175781 70.675781 L 286.566406 50.917969 L 272.21875 36.914062 L 292.058594 34.03125 Z M 300.9375 16.054688 " fill-opacity="1" fill-rule="nonzero"/></g><g clip-path="url(#92eb6e912c)"><path fill="#bc813d" d="M 300.800781 15.882812 L 309.679688 33.859375 L 329.515625 36.742188 L 315.15625 50.746094 L 318.546875 70.503906 L 300.800781 61.175781 L 283.050781 70.503906 L 286.441406 50.746094 L 272.082031 36.742188 L 291.917969 33.859375 Z M 300.800781 15.882812 " fill-opacity="1" fill-rule="nonzero"/><path fill="#bc813d" d="M 300.800781 15.882812 L 309.679688 33.859375 L 329.515625 36.742188 L 315.15625 50.746094 L 318.546875 70.503906 L 300.800781 61.175781 L 283.050781 70.503906 L 286.441406 50.746094 L 272.082031 36.742188 L 291.917969 33.859375 Z M 300.800781 15.882812 " fill-opacity="1" fill-rule="nonzero"/><path fill="#bc813d" d="M 300.800781 15.882812 L 309.679688 33.859375 L 329.515625 36.742188 L 315.15625 50.746094 L 318.546875 70.503906 L 300.800781 61.175781 L 283.050781 70.503906 L 286.441406 50.746094 L 272.082031 36.742188 L 291.917969 33.859375 Z M 300.800781 15.882812 " fill-opacity="1" fill-rule="nonzero"/></g></svg>