<svg xmlns="http://www.w3.org/2000/svg" xmlns:xlink="http://www.w3.org/1999/xlink" width="500" zoomAndPan="magnify" viewBox="0 0 375 374.999991" height="500" preserveAspectRatio="xMidYMid meet" version="1.0"><defs><clipPath id="e044a860e1"><path d="M 82.019531 18.046875 L 139.769531 18.046875 L 139.769531 73.546875 L 82.019531 73.546875 Z M 82.019531 18.046875 " clip-rule="nonzero"/></clipPath><clipPath id="bb3ec96dfe"><path d="M 69.707031 94.15625 L 305.207031 94.15625 L 305.207031 356.628906 L 69.707031 356.628906 Z M 69.707031 94.15625 " clip-rule="nonzero"/></clipPath><clipPath id="b8a38e1451"><path d="M 158.335938 18.046875 L 216.085938 18.046875 L 216.085938 73.546875 L 158.335938 73.546875 Z M 158.335938 18.046875 " clip-rule="nonzero"/></clipPath><clipPath id="9eac5ef8de"><path d="M 235 18.046875 L 292.625 18.046875 L 292.625 73.546875 L 235 73.546875 Z M 235 18.046875 " clip-rule="nonzero"/></clipPath><clipPath id="de8af59c8d"><path d="M 234.875 18.046875 L 292.625 18.046875 L 292.625 73.546875 L 234.875 73.546875 Z M 234.875 18.046875 " clip-rule="nonzero"/></clipPath></defs><g clip-path="url(#e044a860e1)"><path fill="#9bc9a8" d="M 111.144531 18.234375 L 120.097656 36.378906 L 140.121094 39.289062 L 125.628906 53.425781 L 129.058594 73.367188 L 111.144531 63.953125 L 93.21875 73.367188 L 96.640625 53.425781 L 82.160156 39.289062 L 102.183594 36.378906 Z M 111.144531 18.234375 " fill-opacity="1" fill-rule="nonzero"/><path fill="#9bc9a8" d="M 111.007812 18.058594 L 119.96875 36.207031 L 139.992188 39.117188 L 125.5 53.25 L 128.921875 73.195312 L 111.007812 63.777344 L 93.09375 73.195312 L 96.511719 53.25 L 82.019531 39.117188 L 102.042969 36.207031 Z M 111.007812 18.058594 " fill-opacity="1" fill-rule="nonzero"/><path fill="#9bc9a8" d="M 111.007812 18.058594 L 119.96875 36.207031 L 139.992188 39.117188 L 125.5 53.25 L 128.921875 73.195312 L 111.007812 63.777344 L 93.09375 73.195312 L 96.511719 53.25 L 82.019531 39.117188 L 102.042969 36.207031 Z M 111.007812 18.058594 " fill-opacity="1" fill-rule="nonzero"/><path fill="#9bc9a8" d="M 111.007812 18.058594 L 119.96875 36.207031 L 139.992188 39.117188 L 125.5 53.25 L 128.921875 73.195312 L 111.007812 63.777344 L 93.09375 73.195312 L 96.511719 53.25 L 82.019531 39.117188 L 102.042969 36.207031 Z M 111.007812 18.058594 " fill-opacity="1" fill-rule="nonzero"/></g><path fill="#ffffff" d="M 302.96875 322.652344 L 302.96875 334.320312 C 302.96875 345.515625 293.863281 354.617188 282.671875 354.617188 L 72.035156 354.617188 L 72.035156 342.679688 L 282.671875 342.679688 C 287.28125 342.679688 291.027344 338.933594 291.027344 334.320312 L 291.027344 322.652344 C 291.027344 318.039062 287.28125 314.292969 282.671875 314.292969 L 260.742188 314.292969 L 260.742188 323.074219 L 246.910156 314.253906 L 233.078125 323.074219 L 233.078125 314.292969 L 72.035156 314.292969 L 72.035156 302.355469 L 100.234375 302.355469 C 89.046875 302.355469 79.9375 293.25 79.9375 282.058594 L 79.9375 268.582031 C 79.9375 257.390625 89.046875 248.285156 100.234375 248.285156 L 295.058594 248.285156 L 295.058594 260.222656 L 100.234375 260.222656 C 95.628906 260.222656 91.878906 263.972656 91.878906 268.582031 L 91.878906 282.058594 C 91.878906 286.667969 95.628906 290.414062 100.234375 290.414062 L 233.078125 290.414062 L 233.078125 275.320312 L 260.742188 275.320312 L 260.742188 290.414062 L 295.058594 290.414062 L 295.058594 302.355469 L 282.671875 302.355469 C 293.863281 302.355469 302.96875 311.460938 302.96875 322.652344 " fill-opacity="1" fill-rule="nonzero"/><path fill="#bc813d" d="M 291.027344 322.652344 L 291.027344 334.320312 C 291.027344 338.933594 287.28125 342.679688 282.671875 342.679688 L 79.492188 342.679688 C 86.386719 326.351562 79.492188 314.292969 79.492188 314.292969 L 233.078125 314.292969 L 233.078125 323.074219 L 246.855469 314.292969 L 246.96875 314.292969 L 260.742188 323.074219 L 260.742188 314.292969 L 282.671875 314.292969 C 287.28125 314.292969 291.027344 318.039062 291.027344 322.652344 " fill-opacity="1" fill-rule="nonzero"/><path fill="#9bc9a8" d="M 287.605469 290.414062 L 260.742188 290.414062 L 260.742188 275.324219 L 233.078125 275.324219 L 233.078125 290.414062 L 100.234375 290.414062 C 95.628906 290.414062 91.878906 286.667969 91.878906 282.058594 L 91.878906 268.582031 C 91.878906 263.972656 95.628906 260.222656 100.234375 260.222656 L 287.605469 260.222656 C 287.605469 260.222656 280.703125 274.085938 287.605469 290.414062 " fill-opacity="1" fill-rule="nonzero"/><g clip-path="url(#bb3ec96dfe)"><path fill="#ffffff" d="M 300.640625 322.652344 C 300.640625 312.742188 292.578125 304.683594 282.671875 304.683594 L 263.070312 304.683594 L 263.070312 311.964844 L 282.671875 311.964844 C 288.5625 311.964844 293.355469 316.757812 293.355469 322.652344 L 293.355469 334.320312 C 293.355469 340.214844 288.5625 345.007812 282.671875 345.007812 L 74.359375 345.007812 L 74.359375 352.289062 L 282.671875 352.289062 C 292.578125 352.289062 300.640625 344.230469 300.640625 334.320312 Z M 82.855469 340.355469 L 282.671875 340.355469 C 285.996094 340.355469 288.699219 337.648438 288.699219 334.320312 L 288.699219 322.652344 C 288.699219 319.324219 285.996094 316.617188 282.671875 316.617188 L 263.070312 316.617188 L 263.070312 327.316406 L 246.910156 317.015625 L 230.75 327.316406 L 230.75 316.617188 L 83.019531 316.617188 C 84.597656 321.148438 86.382812 329.738281 82.855469 340.355469 Z M 74.359375 311.964844 L 230.75 311.964844 L 230.75 304.683594 L 74.359375 304.683594 Z M 100.234375 300.027344 L 230.75 300.027344 L 230.75 292.742188 L 100.234375 292.742188 C 94.34375 292.742188 89.550781 287.949219 89.550781 282.058594 L 89.550781 268.582031 C 89.550781 262.691406 94.34375 257.894531 100.234375 257.894531 L 292.730469 257.894531 L 292.730469 250.613281 L 100.234375 250.613281 C 90.328125 250.613281 82.265625 258.671875 82.265625 268.582031 L 82.265625 282.058594 C 82.265625 291.96875 90.328125 300.027344 100.234375 300.027344 Z M 284.203125 262.550781 L 100.234375 262.550781 C 96.910156 262.550781 94.207031 265.253906 94.207031 268.582031 L 94.207031 282.058594 C 94.207031 285.382812 96.910156 288.089844 100.234375 288.089844 L 230.75 288.089844 L 230.75 277.644531 C 226.433594 277.644531 222.125 277.644531 217.808594 277.644531 C 214.8125 277.644531 214.816406 272.992188 217.808594 272.992188 C 222.125 272.992188 226.433594 272.992188 230.75 272.992188 L 263.070312 272.992188 C 267.363281 272.992188 271.660156 272.992188 275.957031 272.992188 C 278.957031 272.992188 278.949219 277.644531 275.957031 277.644531 C 271.660156 277.644531 267.363281 277.644531 263.070312 277.644531 L 263.070312 288.089844 L 284.246094 288.089844 C 280.59375 277 282.613281 267.40625 284.203125 262.550781 Z M 235.40625 318.828125 L 246.910156 311.496094 L 258.417969 318.828125 L 258.417969 277.644531 C 250.746094 277.644531 243.074219 277.644531 235.40625 277.644531 Z M 291.109375 292.742188 L 263.070312 292.742188 L 263.070312 300.027344 L 292.730469 300.027344 L 292.730469 292.742188 Z M 131.75 145.296875 L 131.75 181.914062 L 148.210938 181.914062 Z M 127.097656 145.144531 L 110.5625 181.914062 L 127.097656 181.914062 Z M 227.59375 181.914062 L 244.054688 181.914062 L 244.054688 145.296875 Z M 248.707031 181.914062 L 265.242188 181.914062 L 248.707031 145.144531 Z M 305.292969 322.652344 L 305.292969 334.320312 C 305.292969 346.796875 295.144531 356.945312 282.671875 356.945312 L 69.707031 356.945312 L 69.707031 340.355469 L 77.917969 340.355469 C 82.324219 328.695312 79.386719 319.730469 78.03125 316.617188 L 69.707031 316.617188 L 69.707031 300.027344 L 86.511719 300.027344 C 81.109375 295.890625 77.613281 289.375 77.613281 282.058594 L 77.613281 268.582031 C 77.613281 256.105469 87.761719 245.960938 100.234375 245.960938 L 149.957031 245.960938 L 149.957031 236.746094 L 164.21875 236.746094 L 164.21875 232.238281 C 164.21875 226.910156 168.550781 222.582031 173.878906 222.582031 L 174.003906 222.582031 L 174.003906 203.902344 C 174.003906 199.046875 177.609375 195.011719 182.285156 194.34375 L 182.285156 144.773438 L 182.136719 144.453125 C 178.851562 137.269531 172.796875 131.980469 165.9375 130.320312 C 161.84375 129.324219 158.097656 129.855469 155.664062 131.765625 C 152.507812 134.246094 146.316406 138.695312 140.296875 140.667969 L 140.148438 140.710938 C 139.613281 140.84375 137.277344 141.421875 135.195312 141.613281 L 153.109375 181.460938 L 153.109375 184.578125 C 153.109375 195.183594 142.453125 203.816406 129.355469 203.816406 C 116.253906 203.816406 105.597656 195.183594 105.597656 184.578125 L 105.597656 181.914062 L 105.664062 181.914062 L 105.664062 181.460938 L 125.714844 136.863281 C 124.070312 134.09375 123.761719 130.535156 124.824219 126.503906 C 123.921875 125.457031 123.375 124.101562 123.375 122.617188 C 123.375 119.320312 126.054688 116.636719 129.355469 116.636719 C 132.648438 116.636719 135.332031 119.320312 135.332031 122.617188 C 135.332031 125.390625 133.429688 127.71875 130.867188 128.394531 C 130.871094 129.921875 131.289062 131.273438 132.648438 131.691406 C 136.378906 132.839844 138.964844 130.441406 143.222656 126.101562 C 146.917969 122.332031 151.523438 117.640625 158.441406 115.957031 C 168.964844 113.398438 177.199219 116.855469 182.285156 120.863281 L 182.285156 116.46875 C 178.628906 114.433594 176.148438 110.535156 176.148438 106.0625 C 176.148438 99.496094 181.488281 94.152344 188.050781 94.152344 C 194.617188 94.152344 199.957031 99.496094 199.957031 106.0625 C 199.957031 110.65625 197.339844 114.640625 193.523438 116.628906 L 193.523438 120.863281 C 198.605469 116.851562 206.839844 113.402344 217.363281 115.957031 C 224.28125 117.640625 228.886719 122.332031 232.582031 126.101562 C 236.839844 130.445312 239.429688 132.839844 243.160156 131.691406 C 244.515625 131.273438 244.9375 129.921875 244.9375 128.394531 C 242.375 127.71875 240.472656 125.390625 240.472656 122.617188 C 240.472656 119.320312 243.15625 116.636719 246.453125 116.636719 C 249.75 116.636719 252.433594 119.320312 252.433594 122.617188 C 252.433594 124.101562 251.882812 125.457031 250.984375 126.503906 C 252.042969 130.535156 251.734375 134.09375 250.089844 136.863281 L 270.136719 181.460938 L 270.136719 181.914062 L 270.207031 181.914062 L 270.207031 184.578125 C 270.207031 195.183594 259.550781 203.816406 246.453125 203.816406 C 233.355469 203.816406 222.695312 195.183594 222.695312 184.578125 L 222.695312 181.460938 L 240.609375 141.617188 C 238.519531 141.429688 236.191406 140.84375 235.65625 140.710938 L 235.511719 140.667969 C 229.488281 138.695312 223.296875 134.246094 220.140625 131.765625 C 217.707031 129.855469 213.960938 129.324219 209.867188 130.320312 C 203.007812 131.980469 196.957031 137.269531 193.667969 144.453125 L 193.523438 144.773438 L 193.523438 194.34375 C 198.199219 195.011719 201.800781 199.046875 201.800781 203.902344 L 201.800781 222.582031 L 201.929688 222.582031 C 207.253906 222.582031 211.585938 226.910156 211.585938 232.238281 L 211.585938 236.746094 L 225.847656 236.746094 L 225.847656 245.960938 L 297.386719 245.960938 L 297.386719 262.550781 L 289.152344 262.550781 C 287.820312 266.0625 284.78125 276.332031 289.183594 288.089844 L 297.386719 288.089844 L 297.386719 304.683594 L 296.394531 304.683594 C 301.800781 308.820312 305.292969 315.332031 305.292969 322.652344 Z M 89.289062 337.128906 C 109.09375 337.128906 128.898438 337.128906 148.703125 337.128906 C 151.695312 337.128906 151.703125 332.476562 148.703125 332.476562 C 128.898438 332.476562 109.09375 332.476562 89.289062 332.476562 C 86.292969 332.476562 86.289062 337.128906 89.289062 337.128906 Z M 155.902344 337.128906 C 158.1875 337.128906 160.472656 337.128906 162.757812 337.128906 C 165.75 337.128906 165.757812 332.476562 162.757812 332.476562 C 160.472656 332.476562 158.1875 332.476562 155.902344 332.476562 C 152.90625 332.476562 152.902344 337.128906 155.902344 337.128906 Z M 170.800781 337.128906 C 167.800781 337.128906 167.804688 332.476562 170.800781 332.476562 C 173.035156 332.476562 175.273438 332.476562 177.511719 332.476562 C 180.511719 332.476562 180.507812 337.128906 177.511719 337.128906 C 175.273438 337.128906 173.035156 337.128906 170.800781 337.128906 " fill-opacity="1" fill-rule="nonzero"/></g><g clip-path="url(#b8a38e1451)"><path fill="#9bc9a8" d="M 187.460938 18.234375 L 196.410156 36.378906 L 216.4375 39.289062 L 201.941406 53.425781 L 205.375 73.367188 L 187.460938 63.953125 L 169.535156 73.367188 L 172.957031 53.425781 L 158.472656 39.289062 L 178.496094 36.378906 Z M 187.460938 18.234375 " fill-opacity="1" fill-rule="nonzero"/><path fill="#9bc9a8" d="M 187.320312 18.058594 L 196.285156 36.207031 L 216.308594 39.117188 L 201.816406 53.25 L 205.234375 73.195312 L 187.320312 63.777344 L 169.40625 73.195312 L 172.828125 53.25 L 158.335938 39.117188 L 178.359375 36.207031 Z M 187.320312 18.058594 " fill-opacity="1" fill-rule="nonzero"/><path fill="#9bc9a8" d="M 187.320312 18.058594 L 196.285156 36.207031 L 216.308594 39.117188 L 201.816406 53.25 L 205.234375 73.195312 L 187.320312 63.777344 L 169.40625 73.195312 L 172.828125 53.25 L 158.335938 39.117188 L 178.359375 36.207031 Z M 187.320312 18.058594 " fill-opacity="1" fill-rule="nonzero"/><path fill="#9bc9a8" d="M 187.320312 18.058594 L 196.285156 36.207031 L 216.308594 39.117188 L 201.816406 53.25 L 205.234375 73.195312 L 187.320312 63.777344 L 169.40625 73.195312 L 172.828125 53.25 L 158.335938 39.117188 L 178.359375 36.207031 Z M 187.320312 18.058594 " fill-opacity="1" fill-rule="nonzero"/></g><g clip-path="url(#9eac5ef8de)"><path fill="#9bc9a8" d="M 264 18.234375 L 272.949219 36.378906 L 292.976562 39.289062 L 278.480469 53.425781 L 281.914062 73.367188 L 264 63.953125 L 246.074219 73.367188 L 249.496094 53.425781 L 235.011719 39.289062 L 255.035156 36.378906 Z M 264 18.234375 " fill-opacity="1" fill-rule="nonzero"/></g><g clip-path="url(#de8af59c8d)"><path fill="#9bc9a8" d="M 263.859375 18.058594 L 272.824219 36.207031 L 292.847656 39.117188 L 278.355469 53.25 L 281.773438 73.195312 L 263.859375 63.777344 L 245.945312 73.195312 L 249.367188 53.25 L 234.875 39.117188 L 254.898438 36.207031 Z M 263.859375 18.058594 " fill-opacity="1" fill-rule="nonzero"/><path fill="#9bc9a8" d="M 263.859375 18.058594 L 272.824219 36.207031 L 292.847656 39.117188 L 278.355469 53.25 L 281.773438 73.195312 L 263.859375 63.777344 L 245.945312 73.195312 L 249.367188 53.25 L 234.875 39.117188 L 254.898438 36.207031 Z M 263.859375 18.058594 " fill-opacity="1" fill-rule="nonzero"/><path fill="#9bc9a8" d="M 263.859375 18.058594 L 272.824219 36.207031 L 292.847656 39.117188 L 278.355469 53.25 L 281.773438 73.195312 L 263.859375 63.777344 L 245.945312 73.195312 L 249.367188 53.25 L 234.875 39.117188 L 254.898438 36.207031 Z M 263.859375 18.058594 " fill-opacity="1" fill-rule="nonzero"/></g></svg>