<svg xmlns="http://www.w3.org/2000/svg" xmlns:xlink="http://www.w3.org/1999/xlink" width="500" zoomAndPan="magnify" viewBox="0 0 375 374.999991" height="500" preserveAspectRatio="xMidYMid meet" version="1.0"><defs><clipPath id="19b907950e"><path d="M 82.675781 18.492188 L 140.425781 18.492188 L 140.425781 73.992188 L 82.675781 73.992188 Z M 82.675781 18.492188 " clip-rule="nonzero"/></clipPath><clipPath id="9f6950277f"><path d="M 49.085938 109.785156 L 325.835938 109.785156 L 325.835938 356.535156 L 49.085938 356.535156 Z M 49.085938 109.785156 " clip-rule="nonzero"/></clipPath><clipPath id="2ab118ee2b"><path d="M 158.179688 18.492188 L 215.929688 18.492188 L 215.929688 73.992188 L 158.179688 73.992188 Z M 158.179688 18.492188 " clip-rule="nonzero"/></clipPath><clipPath id="b2e684c592"><path d="M 234.433594 18.492188 L 292.183594 18.492188 L 292.183594 73.992188 L 234.433594 73.992188 Z M 234.433594 18.492188 " clip-rule="nonzero"/></clipPath></defs><g clip-path="url(#19b907950e)"><path fill="#bc813d" d="M 111.691406 18.6875 L 120.605469 36.765625 L 140.554688 39.664062 L 126.117188 53.742188 L 129.535156 73.609375 L 111.691406 64.230469 L 93.832031 73.609375 L 97.238281 53.742188 L 82.8125 39.664062 L 102.761719 36.765625 Z M 111.691406 18.6875 " fill-opacity="1" fill-rule="nonzero"/><path fill="#bc813d" d="M 111.550781 18.515625 L 120.480469 36.589844 L 140.425781 39.488281 L 125.988281 53.570312 L 129.394531 73.4375 L 111.550781 64.058594 L 93.707031 73.4375 L 97.113281 53.570312 L 82.675781 39.488281 L 102.621094 36.589844 Z M 111.550781 18.515625 " fill-opacity="1" fill-rule="nonzero"/><path fill="#bc813d" d="M 111.550781 18.515625 L 120.480469 36.589844 L 140.425781 39.488281 L 125.988281 53.570312 L 129.394531 73.4375 L 111.550781 64.058594 L 93.707031 73.4375 L 97.113281 53.570312 L 82.675781 39.488281 L 102.621094 36.589844 Z M 111.550781 18.515625 " fill-opacity="1" fill-rule="nonzero"/><path fill="#bc813d" d="M 111.550781 18.515625 L 120.480469 36.589844 L 140.425781 39.488281 L 125.988281 53.570312 L 129.394531 73.4375 L 111.550781 64.058594 L 93.707031 73.4375 L 97.113281 53.570312 L 82.675781 39.488281 L 102.621094 36.589844 Z M 111.550781 18.515625 " fill-opacity="1" fill-rule="nonzero"/></g><g clip-path="url(#9f6950277f)"><path fill="#bc813d" d="M 309.5625 248.769531 C 309.679688 248.386719 309.996094 248.109375 310.378906 248.042969 C 313.058594 247.601562 315.394531 246.542969 317.386719 244.863281 C 318.96875 243.527344 320.449219 241.539062 321.835938 238.898438 C 324.28125 234.242188 325.628906 229.238281 325.878906 223.878906 C 325.898438 223.507812 325.761719 223.4375 325.464844 223.667969 C 320.355469 227.730469 315.621094 232.269531 311.257812 237.273438 C 310.796875 237.792969 310.601562 237.710938 310.664062 237.023438 L 311.734375 225.003906 C 311.765625 224.65625 311.992188 224.351562 312.320312 224.207031 C 315.722656 222.761719 318.191406 220.542969 319.714844 217.558594 C 320.902344 215.246094 321.675781 212.183594 322.042969 208.371094 C 322.359375 205.121094 322.132812 201.839844 321.367188 198.527344 C 321.25 198.027344 321.035156 197.976562 320.71875 198.378906 C 316.925781 203.210938 313.472656 208.308594 310.355469 213.671875 C 310.25 213.847656 310.183594 213.835938 310.152344 213.636719 L 308.25 202.757812 C 308.148438 202.175781 308.3125 201.589844 308.691406 201.167969 C 313.1875 196.183594 315.140625 190.492188 314.546875 184.097656 C 314.226562 180.621094 313.367188 177.117188 311.976562 173.589844 C 311.878906 173.339844 311.757812 173.332031 311.621094 173.558594 C 308.554688 178.671875 305.992188 183.9375 303.9375 189.355469 C 303.832031 189.628906 303.71875 189.632812 303.59375 189.367188 L 299.230469 179.914062 C 298.933594 179.269531 298.9375 178.625 299.246094 177.984375 C 301.464844 173.296875 302.304688 168.589844 301.753906 163.859375 C 301.210938 159.148438 299.550781 154.796875 296.773438 150.808594 C 296.480469 150.390625 296.230469 150.414062 296.019531 150.875 C 295.601562 151.785156 295.273438 152.859375 295.03125 154.105469 C 294.21875 158.316406 293.316406 162.699219 292.332031 167.25 C 292.261719 167.566406 292.121094 167.597656 291.917969 167.34375 L 285.082031 158.734375 C 284.644531 158.183594 284.511719 157.59375 284.683594 156.960938 C 286.597656 149.65625 285.820312 142.601562 282.359375 135.789062 C 281.402344 133.90625 280.167969 132.21875 278.660156 130.734375 C 278.453125 130.527344 278.3125 130.566406 278.246094 130.851562 C 276.945312 136.226562 276.269531 141.675781 276.21875 147.207031 C 276.21875 147.417969 276.144531 147.445312 275.996094 147.292969 L 268.074219 139.277344 C 267.546875 138.742188 267.335938 138.097656 267.445312 137.34375 C 267.710938 135.46875 267.445312 133.429688 266.648438 131.222656 C 264.039062 123.996094 259.710938 118.21875 253.65625 113.898438 C 252.878906 113.339844 252.511719 113.542969 252.558594 114.5 C 252.824219 119.992188 253.941406 125.222656 255.90625 130.199219 C 256.066406 130.601562 255.976562 130.667969 255.632812 130.398438 C 252.472656 127.894531 249.285156 125.476562 246.0625 123.148438 C 242.109375 120.292969 238.738281 118.148438 235.941406 116.710938 C 229.773438 113.539062 223.214844 111.371094 216.273438 110.214844 C 215.039062 110.011719 213.792969 109.9375 212.53125 109.996094 C 212.28125 110.011719 212.246094 110.101562 212.429688 110.273438 C 215.699219 113.359375 219.113281 116.234375 222.679688 118.894531 C 227.410156 122.433594 230.863281 124.722656 233.042969 125.765625 C 236.746094 127.542969 240.972656 128.601562 245.707031 128.945312 C 246.632812 129.015625 247.433594 129.324219 248.109375 129.863281 L 254.0625 134.636719 C 255.25 135.585938 255.089844 135.957031 253.578125 135.738281 C 247.027344 134.804688 241.484375 136.414062 236.945312 140.570312 C 236.925781 140.589844 236.910156 140.609375 236.898438 140.636719 C 236.847656 140.742188 236.894531 140.867188 237 140.921875 C 245.613281 145.207031 254.628906 145.804688 264.046875 142.703125 C 264.464844 142.566406 264.917969 142.660156 265.21875 142.957031 L 272.847656 150.453125 C 273.488281 151.082031 273.371094 151.273438 272.503906 151.039062 C 271.710938 150.816406 270.949219 150.617188 270.214844 150.441406 C 269.429688 150.246094 268.652344 150.148438 267.878906 150.148438 C 263.507812 150.148438 258.996094 150.730469 254.347656 151.890625 C 254.082031 151.960938 254.054688 152.074219 254.269531 152.242188 C 262.496094 158.375 271.5625 161.328125 281.476562 161.101562 C 281.671875 161.101562 281.863281 161.179688 281.992188 161.328125 C 284.558594 164.167969 286.789062 167.261719 288.683594 170.597656 C 288.78125 170.777344 288.734375 170.832031 288.539062 170.753906 C 282.214844 168.375 275.664062 166.957031 268.894531 166.507812 C 268.515625 166.484375 268.441406 166.621094 268.667969 166.917969 C 270.09375 168.789062 271.664062 170.585938 273.378906 172.3125 C 278.730469 177.722656 285.832031 180.824219 294.679688 181.613281 C 294.910156 181.632812 295.117188 181.765625 295.230469 181.96875 C 297.152344 185.457031 298.808594 188.964844 300.203125 192.496094 C 300.277344 192.679688 300.226562 192.71875 300.046875 192.613281 C 296.632812 190.511719 292.996094 188.9375 289.132812 187.886719 C 286.789062 187.25 284.484375 186.632812 282.210938 186.035156 C 281.648438 185.886719 281.515625 186.0625 281.8125 186.558594 C 283.203125 188.902344 284.746094 191.125 286.449219 193.230469 C 288.453125 195.707031 290.386719 197.578125 292.246094 198.832031 C 295.457031 200.996094 299.21875 202.347656 303.535156 202.886719 C 303.972656 202.941406 304.320312 203.253906 304.390625 203.660156 L 306.175781 214.234375 C 306.238281 214.601562 306.125 214.664062 305.835938 214.414062 C 301.34375 210.539062 296.253906 207.742188 290.574219 206.027344 C 290.546875 206.015625 290.515625 206.015625 290.484375 206.019531 C 290.375 206.035156 290.300781 206.136719 290.316406 206.242188 C 291.480469 214.226562 295.6875 219.921875 302.9375 223.332031 C 304.191406 223.921875 305.585938 224.292969 307.125 224.445312 C 307.300781 224.460938 307.429688 224.617188 307.417969 224.796875 L 306.707031 236.320312 C 306.667969 237.050781 306.429688 237.125 306.003906 236.535156 C 302.90625 232.238281 299.007812 228.492188 294.304688 225.300781 C 294.261719 225.273438 294.207031 225.253906 294.15625 225.25 C 293.992188 225.238281 293.851562 225.359375 293.835938 225.523438 C 293.65625 227.8125 293.628906 230.195312 293.761719 232.675781 C 293.878906 234.886719 294.375 236.847656 295.257812 238.554688 C 297.390625 242.691406 300.476562 245.679688 304.519531 247.519531 C 304.933594 247.707031 305.160156 248.164062 305.050781 248.609375 C 304.085938 252.53125 302.867188 256.34375 301.402344 260.042969 C 301.167969 260.628906 300.980469 260.617188 300.839844 260.003906 C 300.027344 256.484375 298.683594 253.015625 296.8125 249.605469 C 295.617188 247.421875 294.382812 245.738281 293.113281 244.554688 C 293.089844 244.535156 293.066406 244.519531 293.035156 244.507812 C 292.929688 244.476562 292.816406 244.539062 292.78125 244.648438 C 291.699219 247.933594 291.074219 251.3125 290.910156 254.777344 C 290.632812 260.542969 292.472656 265.488281 296.433594 269.609375 C 296.65625 269.847656 296.710938 270.1875 296.570312 270.457031 L 291.476562 279.898438 C 291.324219 280.183594 291.222656 280.164062 291.171875 279.839844 C 290.269531 274.371094 288.503906 269.335938 285.863281 264.742188 C 285.515625 264.136719 285.207031 264.15625 284.933594 264.792969 C 283.332031 268.550781 282.34375 272.636719 281.96875 277.054688 C 281.625 281.140625 282.480469 285.109375 284.539062 288.972656 C 284.953125 289.738281 284.898438 290.429688 284.378906 291.039062 L 277.085938 299.632812 C 276.925781 299.816406 276.847656 299.785156 276.851562 299.53125 C 276.910156 294.246094 276.210938 288.925781 274.738281 283.566406 C 274.730469 283.527344 274.707031 283.488281 274.675781 283.457031 C 274.574219 283.34375 274.40625 283.335938 274.296875 283.433594 C 273.242188 284.386719 272.425781 285.363281 271.835938 286.359375 C 269.9375 289.597656 268.476562 293.027344 267.464844 296.640625 C 266.519531 300.007812 266.457031 303.386719 267.28125 306.777344 C 267.328125 306.964844 267.269531 307.164062 267.128906 307.292969 C 263.984375 310.21875 260.722656 312.835938 257.347656 315.152344 C 257.007812 315.382812 256.910156 315.308594 257.050781 314.921875 C 257.875 312.652344 258.332031 310.457031 258.414062 308.332031 C 258.53125 305.152344 258.398438 301.988281 258.015625 298.839844 C 257.949219 298.289062 257.703125 298.195312 257.28125 298.546875 C 251.507812 303.398438 247.855469 309.535156 246.320312 316.949219 C 246.152344 317.75 246.046875 318.777344 246.003906 320.035156 C 245.992188 320.324219 245.832031 320.585938 245.585938 320.71875 L 235.585938 326.230469 C 235.15625 326.464844 235.066406 326.371094 235.324219 325.949219 C 238.386719 320.929688 239.917969 315.484375 239.917969 309.609375 C 239.917969 309.585938 239.917969 309.5625 239.90625 309.535156 C 239.871094 309.40625 239.738281 309.335938 239.613281 309.371094 C 238.289062 309.746094 237.070312 310.351562 235.960938 311.183594 C 230.570312 315.226562 226.328125 320.394531 223.242188 326.6875 C 223.101562 326.976562 222.859375 327.203125 222.5625 327.320312 C 212.109375 331.484375 201.453125 334.167969 190.601562 335.371094 C 188.367188 335.621094 186.136719 335.589844 183.90625 335.289062 C 173.210938 333.828125 162.835938 331.1875 152.785156 327.367188 C 152.109375 327.109375 151.605469 326.664062 151.265625 326.035156 C 148.839844 321.542969 145.855469 317.46875 142.304688 313.8125 C 140.4375 311.882812 138.226562 310.417969 135.671875 309.40625 C 135.582031 309.371094 135.480469 309.355469 135.382812 309.363281 C 135.039062 309.398438 134.785156 309.703125 134.820312 310.042969 C 135.347656 315.890625 136.96875 321.199219 139.667969 325.960938 C 139.898438 326.367188 139.824219 326.429688 139.453125 326.152344 C 136.621094 324.054688 133.4375 322.132812 129.898438 320.394531 C 129.710938 320.296875 129.589844 320.109375 129.582031 319.898438 C 129.535156 318.394531 129.296875 316.9375 128.859375 315.535156 C 127.324219 310.628906 124.929688 306.1875 121.679688 302.207031 C 120.457031 300.707031 119.074219 299.464844 117.539062 298.476562 C 117.480469 298.4375 117.40625 298.410156 117.332031 298.40625 C 117.082031 298.386719 116.863281 298.574219 116.84375 298.824219 C 116.605469 301.929688 116.578125 304.933594 116.761719 307.839844 C 116.914062 310.222656 117.453125 312.507812 118.378906 314.710938 C 118.648438 315.335938 118.515625 315.441406 117.988281 315.023438 L 108.484375 307.425781 C 108.347656 307.316406 108.289062 307.121094 108.34375 306.933594 C 108.976562 304.660156 109.210938 302.835938 109.035156 301.46875 C 108.191406 294.886719 105.640625 288.976562 101.382812 283.738281 C 100.824219 283.058594 100.449219 283.144531 100.253906 284 C 99.089844 289.078125 98.578125 294.292969 98.722656 299.648438 C 98.726562 299.929688 98.636719 299.96875 98.457031 299.761719 L 90.230469 290.5625 C 89.984375 290.28125 89.953125 289.863281 90.148438 289.515625 C 92.800781 284.882812 93.679688 280.078125 92.785156 275.105469 C 92.417969 273.070312 91.890625 271.148438 91.203125 269.339844 C 90.484375 267.453125 89.5 265.699219 88.25 264.078125 C 88.230469 264.054688 88.207031 264.039062 88.183594 264.023438 C 88.082031 263.976562 87.964844 264.015625 87.921875 264.109375 C 85.65625 268.757812 84.132812 274.027344 83.351562 279.910156 C 83.28125 280.4375 83.117188 280.472656 82.871094 280.007812 L 77.726562 270.464844 C 77.636719 270.296875 77.664062 270.089844 77.789062 269.933594 C 79.679688 267.566406 81 265.765625 81.757812 264.535156 C 82.929688 262.613281 83.621094 260.285156 83.820312 257.554688 C 84.132812 253.226562 83.542969 248.96875 82.042969 244.78125 C 81.871094 244.296875 81.628906 244.257812 81.316406 244.675781 C 77.808594 249.332031 75.273438 254.40625 73.707031 259.894531 C 73.582031 260.335938 73.4375 260.339844 73.28125 259.910156 C 71.84375 256 70.667969 252.109375 69.765625 248.242188 C 69.671875 247.839844 69.863281 247.425781 70.234375 247.238281 C 74.589844 245.046875 77.769531 242.074219 79.777344 238.320312 C 80.566406 236.84375 81.023438 235.269531 81.144531 233.59375 C 81.328125 231.003906 81.386719 228.265625 81.316406 225.375 C 81.308594 225.050781 81.175781 224.984375 80.914062 225.175781 C 76.265625 228.527344 72.175781 232.535156 68.640625 237.199219 C 68.503906 237.375 68.425781 237.359375 68.417969 237.136719 L 67.667969 224.871094 C 67.65625 224.621094 67.828125 224.394531 68.085938 224.335938 C 77.808594 221.9375 83.445312 215.90625 84.980469 206.226562 C 84.984375 206.199219 84.980469 206.167969 84.96875 206.140625 C 84.9375 206.039062 84.832031 205.984375 84.726562 206.015625 C 79.167969 207.746094 74.164062 210.347656 69.707031 213.808594 C 69.296875 214.128906 69.125 214.03125 69.1875 213.515625 C 69.585938 210.058594 70.222656 206.640625 71.097656 203.265625 C 71.191406 202.886719 71.535156 202.621094 71.925781 202.613281 C 74.382812 202.5625 76.71875 201.957031 78.925781 200.800781 C 85.167969 197.515625 89.929688 192.734375 93.203125 186.453125 C 93.351562 186.171875 93.265625 186.0625 92.953125 186.121094 C 86.804688 187.296875 80.859375 189.445312 75.109375 192.5625 C 74.632812 192.820312 74.488281 192.691406 74.671875 192.1875 C 75.875 188.847656 77.402344 185.449219 79.246094 181.988281 C 79.359375 181.777344 79.574219 181.632812 79.816406 181.609375 C 88.40625 180.8125 95.292969 177.796875 100.484375 172.566406 C 102.273438 170.761719 103.933594 168.839844 105.464844 166.800781 C 105.636719 166.574219 105.578125 166.46875 105.296875 166.496094 C 100.910156 166.894531 96.570312 167.589844 92.269531 168.582031 C 90.40625 169.015625 88.625 169.671875 86.925781 170.550781 C 86.207031 170.917969 86.046875 170.753906 86.441406 170.046875 C 88.148438 167 90.230469 164.09375 92.683594 161.324219 C 92.8125 161.179688 93.003906 161.09375 93.203125 161.101562 C 102.921875 161.351562 111.574219 158.40625 119.164062 152.269531 C 119.648438 151.882812 119.585938 151.621094 118.976562 151.5 C 117.699219 151.242188 116.335938 151.019531 114.890625 150.832031 C 114.832031 150.824219 113.636719 150.636719 111.308594 150.269531 C 108.050781 149.761719 104.816406 149.941406 101.597656 150.808594 C 101.398438 150.859375 101.367188 150.8125 101.496094 150.664062 C 104.175781 147.664062 107.125 144.960938 110.339844 142.558594 C 110.5 142.4375 110.707031 142.40625 110.890625 142.46875 C 119.488281 145.394531 128.132812 144.855469 136.824219 140.859375 C 136.855469 140.84375 136.886719 140.824219 136.914062 140.800781 C 137.054688 140.671875 137.0625 140.453125 136.9375 140.3125 C 133.125 136.234375 128.496094 134.574219 123.046875 135.339844 C 122.050781 135.480469 121.066406 135.5 120.085938 135.402344 C 119.878906 135.378906 119.859375 135.304688 120.03125 135.171875 C 122.695312 133.109375 125.4375 131.164062 128.257812 129.335938 C 129.066406 128.808594 129.953125 128.496094 130.917969 128.402344 C 132.386719 128.25 133.867188 128.132812 135.347656 128.046875 C 137.386719 127.925781 139.816406 127.078125 142.628906 125.511719 C 146.878906 123.144531 150.855469 120.378906 154.550781 117.214844 C 157.179688 114.964844 159.925781 112.636719 162.792969 110.222656 C 163.097656 109.96875 163.054688 109.839844 162.65625 109.839844 C 160.726562 109.824219 159.089844 109.949219 157.746094 110.203125 C 147.398438 112.210938 138 116.339844 129.550781 122.589844 C 125.785156 125.378906 122.050781 128.210938 118.347656 131.082031 C 118.191406 131.210938 118.152344 131.179688 118.230469 130.996094 C 120.464844 125.765625 121.828125 120.078125 122.328125 113.933594 C 122.363281 113.511719 122.203125 113.414062 121.847656 113.652344 C 115.332031 117.96875 110.644531 123.90625 107.792969 131.46875 C 107.132812 133.222656 106.964844 135.449219 107.289062 138.160156 C 107.316406 138.363281 107.246094 138.558594 107.109375 138.695312 L 98.640625 147.066406 C 98.390625 147.3125 98.273438 147.257812 98.28125 146.90625 C 98.390625 141.308594 97.851562 136.21875 96.675781 131.648438 C 96.480469 130.898438 96.148438 130.832031 95.679688 131.449219 C 90.167969 138.710938 88.3125 147.144531 90.113281 156.75 C 90.234375 157.414062 90.070312 158.003906 89.632812 158.511719 C 87.3125 161.183594 85.023438 164.222656 82.769531 167.628906 C 82.496094 168.042969 82.316406 168 82.230469 167.511719 L 79.351562 151.410156 C 79.191406 150.5 78.839844 150.425781 78.300781 151.1875 C 72.644531 159.164062 71.695312 167.996094 75.441406 177.695312 C 75.800781 178.621094 75.769531 179.527344 75.355469 180.417969 L 71.078125 189.53125 C 70.910156 189.886719 70.765625 189.878906 70.636719 189.507812 C 68.746094 184.125 66.183594 179.09375 62.945312 174.414062 C 62.824219 174.246094 62.730469 174.261719 62.652344 174.457031 C 61.523438 177.398438 60.851562 180.714844 60.628906 184.398438 C 60.242188 190.890625 62.066406 196.355469 66.101562 200.808594 C 66.675781 201.445312 66.894531 202.203125 66.742188 203.089844 L 65.109375 212.628906 C 64.988281 213.347656 64.738281 213.398438 64.355469 212.785156 C 61.238281 207.707031 57.769531 202.855469 53.941406 198.226562 C 53.800781 198.0625 53.714844 198.085938 53.671875 198.285156 C 52.257812 205.132812 53.078125 211.675781 56.132812 217.921875 C 57.535156 220.777344 59.835938 222.816406 63.046875 224.042969 C 63.269531 224.125 63.421875 224.339844 63.4375 224.589844 L 64.070312 237.304688 C 64.105469 238.066406 63.902344 238.140625 63.457031 237.53125 C 59.570312 232.148438 54.941406 227.429688 49.566406 223.363281 C 49.246094 223.117188 49.09375 223.195312 49.105469 223.601562 C 49.246094 228.882812 50.429688 233.78125 52.65625 238.300781 C 54.109375 241.257812 56.019531 243.664062 58.390625 245.519531 C 59.265625 246.195312 60.222656 246.722656 61.269531 247.101562 C 62.308594 247.476562 63.371094 247.757812 64.457031 247.949219 C 64.859375 248.023438 65.1875 248.308594 65.304688 248.691406 L 68.726562 259.980469 C 68.886719 260.492188 68.742188 260.59375 68.296875 260.285156 C 64.425781 257.566406 60.53125 254.984375 56.621094 252.550781 C 54.757812 251.382812 53.195312 250.5625 51.9375 250.089844 C 51.738281 250.011719 51.65625 250.078125 51.695312 250.289062 C 53.226562 258.457031 57.335938 264.753906 64.023438 269.175781 C 65.539062 270.175781 66.996094 270.902344 68.394531 271.355469 C 69.980469 271.867188 71.605469 272.144531 73.269531 272.195312 C 73.539062 272.207031 73.78125 272.355469 73.910156 272.585938 L 79.316406 282.332031 C 79.621094 282.882812 79.488281 283.027344 78.917969 282.753906 C 73.015625 279.976562 66.796875 277.523438 60.25 275.394531 C 59.996094 275.3125 59.921875 275.390625 60.03125 275.636719 C 61.785156 279.625 64.148438 283.0625 67.125 285.945312 C 72.046875 290.707031 78.210938 292.800781 85.621094 292.226562 C 85.894531 292.207031 86.15625 292.3125 86.328125 292.511719 L 95.152344 302.566406 C 95.28125 302.71875 95.328125 302.890625 95.265625 302.980469 C 95.203125 303.0625 95.082031 303.066406 94.890625 302.992188 C 91.1875 301.453125 87.34375 300.414062 83.367188 299.878906 C 80.523438 299.496094 77.679688 299.113281 74.835938 298.746094 C 74.628906 298.714844 74.582031 298.785156 74.699219 298.957031 C 76.582031 301.65625 78.992188 304.113281 81.921875 306.332031 C 86.179688 309.554688 90.859375 311.449219 95.957031 312.03125 C 98.988281 312.367188 101.878906 311.988281 104.632812 310.890625 C 104.933594 310.765625 105.28125 310.800781 105.550781 310.984375 C 109.066406 313.320312 112.421875 315.847656 115.628906 318.5625 C 116.433594 319.242188 116.328125 319.449219 115.308594 319.179688 C 113.664062 318.742188 111.996094 318.59375 110.300781 318.738281 C 106.117188 319.085938 101.707031 319.710938 97.066406 320.609375 C 96.78125 320.664062 96.746094 320.785156 96.96875 320.972656 C 99.613281 323.144531 102.425781 324.890625 105.394531 326.214844 C 108.683594 327.679688 111.847656 328.441406 114.890625 328.496094 C 119.4375 328.578125 123.679688 327.257812 127.617188 324.535156 C 127.78125 324.421875 127.988281 324.402344 128.160156 324.484375 C 131.765625 326.144531 135.21875 327.980469 138.527344 329.996094 C 139.363281 330.5 139.296875 330.800781 138.324219 330.890625 C 132.519531 331.433594 127.011719 332.96875 121.804688 335.503906 C 121.339844 335.734375 121.339844 335.960938 121.804688 336.183594 C 126.675781 338.519531 131.8125 339.730469 137.222656 339.8125 C 142.65625 339.890625 147.238281 338.261719 150.972656 334.925781 C 151.367188 334.574219 151.921875 334.453125 152.4375 334.601562 C 161.492188 337.292969 170.234375 339.421875 178.671875 340.984375 C 179.796875 341.199219 179.800781 341.421875 178.683594 341.667969 C 169.757812 343.632812 162.375 348.285156 156.535156 355.621094 C 156.066406 356.210938 156.207031 356.460938 156.949219 356.363281 C 162.578125 355.664062 167.710938 354.230469 172.34375 352.058594 C 177.390625 349.6875 182.203125 346.851562 186.792969 343.539062 C 186.949219 343.425781 187.15625 343.425781 187.3125 343.539062 C 195.0625 349.082031 203.539062 353.085938 212.75 355.542969 C 213.96875 355.867188 215.300781 356.058594 216.75 356.117188 C 217.207031 356.132812 217.296875 355.960938 217.023438 355.597656 C 213.527344 350.929688 209.105469 347.207031 203.753906 344.429688 C 201.476562 343.25 199.070312 342.402344 196.53125 341.890625 C 195.097656 341.605469 195.105469 341.34375 196.550781 341.113281 C 205.566406 339.664062 214.480469 337.390625 223.292969 334.296875 C 223.46875 334.234375 223.671875 334.28125 223.8125 334.417969 C 227.570312 338.128906 232.019531 339.960938 237.167969 339.917969 C 243.09375 339.863281 248.546875 338.449219 253.527344 335.664062 C 254.074219 335.355469 254.058594 335.078125 253.484375 334.824219 C 247.894531 332.335938 242.121094 330.976562 236.160156 330.746094 C 235.5 330.714844 235.472656 330.558594 236.0625 330.273438 L 247.722656 324.617188 C 248.011719 324.480469 248.347656 324.496094 248.605469 324.671875 C 251.925781 326.90625 255.46875 328.140625 259.234375 328.371094 C 262.421875 328.570312 265.777344 327.910156 269.304688 326.386719 C 272.410156 325.046875 275.394531 323.242188 278.261719 320.972656 C 278.53125 320.757812 278.496094 320.609375 278.160156 320.519531 C 271.835938 318.863281 265.695312 318.3125 259.742188 318.871094 C 259.519531 318.890625 259.5 318.835938 259.671875 318.707031 L 270.070312 310.980469 C 270.21875 310.871094 270.425781 310.835938 270.632812 310.886719 C 278.808594 312.992188 286.292969 311.527344 293.09375 306.480469 C 295.984375 304.335938 298.355469 301.867188 300.203125 299.078125 C 300.316406 298.902344 300.269531 298.828125 300.0625 298.84375 C 297.039062 299.164062 294.027344 299.53125 291.019531 299.945312 C 287.480469 300.429688 284.058594 301.351562 280.75 302.707031 C 280.105469 302.972656 279.992188 302.828125 280.414062 302.269531 C 282.832031 299.070312 285.65625 295.796875 288.894531 292.449219 C 289.125 292.214844 289.445312 292.089844 289.773438 292.109375 C 295.589844 292.464844 300.664062 290.839844 304.996094 287.234375 C 308.71875 284.132812 311.601562 280.375 313.644531 275.960938 C 313.832031 275.558594 313.722656 275.433594 313.308594 275.589844 L 295.804688 282.183594 C 295.414062 282.335938 295.324219 282.234375 295.53125 281.882812 L 301.300781 272.25 C 301.441406 272.023438 301.707031 271.886719 302 271.886719 C 304.113281 271.894531 306.085938 271.441406 307.921875 270.527344 C 316.035156 266.46875 321.070312 259.835938 323.019531 250.632812 C 323.128906 250.128906 322.960938 250.003906 322.511719 250.257812 C 317.121094 253.375 311.917969 256.65625 306.898438 260.101562 C 306.222656 260.5625 306.003906 260.398438 306.242188 259.609375 Z M 309.5625 248.769531 " fill-opacity="1" fill-rule="nonzero"/></g><path fill="#bc813d" d="M 191.066406 157.574219 C 191.542969 157.773438 191.996094 158.015625 192.421875 158.300781 C 192.851562 158.585938 193.246094 158.910156 193.613281 159.277344 C 193.976562 159.640625 194.300781 160.035156 194.585938 160.464844 C 194.875 160.890625 195.113281 161.34375 195.3125 161.820312 C 195.507812 162.296875 195.65625 162.785156 195.757812 163.289062 C 195.859375 163.796875 195.910156 164.304688 195.910156 164.820312 C 195.910156 165.335938 195.859375 165.84375 195.757812 166.351562 C 195.65625 166.855469 195.507812 167.34375 195.3125 167.820312 C 195.113281 168.296875 194.875 168.75 194.585938 169.175781 C 194.300781 169.605469 193.976562 170 193.613281 170.363281 C 193.246094 170.730469 192.851562 171.054688 192.421875 171.339844 C 191.996094 171.625 191.542969 171.867188 191.066406 172.0625 C 190.59375 172.261719 190.101562 172.410156 189.597656 172.511719 C 189.09375 172.609375 188.582031 172.660156 188.066406 172.660156 C 187.550781 172.660156 187.042969 172.609375 186.539062 172.511719 C 186.03125 172.410156 185.542969 172.261719 185.066406 172.0625 C 184.589844 171.867188 184.140625 171.625 183.710938 171.339844 C 183.28125 171.054688 182.886719 170.730469 182.523438 170.363281 C 182.160156 170 181.832031 169.605469 181.546875 169.175781 C 181.261719 168.75 181.019531 168.296875 180.824219 167.820312 C 180.625 167.34375 180.476562 166.855469 180.378906 166.351562 C 180.277344 165.84375 180.226562 165.335938 180.226562 164.820312 C 180.226562 164.304688 180.277344 163.796875 180.378906 163.289062 C 180.476562 162.785156 180.625 162.296875 180.824219 161.820312 C 181.019531 161.34375 181.261719 160.890625 181.546875 160.464844 C 181.832031 160.035156 182.160156 159.640625 182.523438 159.277344 C 182.886719 158.910156 183.28125 158.585938 183.710938 158.300781 C 184.140625 158.015625 184.589844 157.773438 185.066406 157.574219 C 185.542969 157.378906 186.03125 157.230469 186.539062 157.128906 C 187.042969 157.027344 187.550781 156.980469 188.066406 156.980469 C 188.582031 156.980469 189.09375 157.027344 189.597656 157.128906 C 190.101562 157.230469 190.59375 157.378906 191.066406 157.574219 Z M 191.066406 157.574219 " fill-opacity="1" fill-rule="nonzero"/><path fill="#bc813d" d="M 270.550781 255.652344 C 270.367188 255.5625 270.234375 255.398438 270.183594 255.199219 C 268.824219 249.9375 267.304688 244.765625 265.632812 239.675781 C 261.128906 225.984375 256.523438 212.324219 251.820312 198.695312 C 251.4375 197.570312 251.101562 196.667969 250.816406 195.988281 C 252.261719 194.9375 253.207031 193.234375 253.207031 191.308594 C 253.207031 189.242188 252.125 187.433594 250.492188 186.410156 C 250.773438 186.34375 251.03125 186.269531 251.277344 186.191406 C 253.988281 185.710938 256.050781 183.347656 256.050781 180.496094 C 256.050781 178.433594 254.972656 176.632812 253.347656 175.601562 C 252.574219 175.050781 251.726562 174.753906 250.800781 174.710938 C 251.507812 175.535156 251.972656 176.570312 252.085938 177.699219 C 252.425781 181.152344 249.554688 184.027344 246.101562 183.683594 C 245.84375 183.660156 245.59375 183.609375 245.34375 183.550781 C 245.355469 183.566406 245.367188 183.585938 245.378906 183.605469 C 228.84375 180.734375 212.355469 178.023438 195.910156 175.476562 C 190.605469 174.65625 185.414062 174.625 180.332031 175.382812 C 164.9375 177.675781 148.554688 180.449219 131.195312 183.699219 C 131.203125 183.691406 131.207031 183.675781 131.214844 183.664062 C 130.804688 183.714844 130.378906 183.722656 129.945312 183.679688 C 127.394531 183.429688 125.328125 181.363281 125.074219 178.8125 C 124.917969 177.238281 125.433594 175.789062 126.363281 174.703125 C 125.953125 174.703125 125.554688 174.75 125.167969 174.832031 C 124.976562 174.867188 124.789062 174.90625 124.59375 174.960938 C 123.410156 175.28125 122.480469 175.945312 121.796875 176.953125 C 121.039062 177.933594 120.578125 179.160156 120.578125 180.496094 C 120.578125 180.550781 120.589844 180.605469 120.589844 180.664062 C 120.527344 181.949219 120.890625 183.082031 121.679688 184.0625 C 122.480469 185.054688 123.511719 185.800781 124.761719 186.304688 C 123.039062 187.308594 121.878906 189.167969 121.878906 191.308594 C 121.878906 193.457031 123.050781 195.328125 124.789062 196.328125 C 123.296875 201.199219 121.675781 206.050781 119.921875 210.875 C 116.371094 220.632812 112.933594 230.425781 109.613281 240.261719 C 107.386719 246.855469 105.851562 251.992188 105.011719 255.675781 C 104.96875 255.851562 104.816406 255.984375 104.632812 256 C 103.210938 256.113281 102.394531 256.847656 102.179688 258.203125 C 101.800781 260.5625 102.625 262.179688 104.648438 263.054688 C 105.023438 263.214844 105.570312 263.308594 106.292969 263.332031 C 106.863281 263.355469 107.425781 263.425781 107.984375 263.546875 C 108.175781 263.585938 108.359375 263.6875 108.503906 263.839844 C 109.472656 264.851562 110.425781 265.875 111.367188 266.914062 C 113.742188 269.535156 116.515625 271.355469 119.6875 272.382812 C 122.527344 273.300781 125.722656 273.664062 129.28125 273.472656 C 136.175781 273.097656 141.753906 269.945312 146.011719 264.027344 C 146.132812 263.863281 146.316406 263.761719 146.503906 263.753906 C 147.003906 263.730469 147.496094 263.730469 147.992188 263.753906 C 148.722656 263.78125 149.3125 263.730469 149.757812 263.601562 C 152.636719 262.777344 153.734375 260.835938 153.050781 257.78125 C 152.941406 257.28125 152.769531 256.898438 152.527344 256.628906 C 152.199219 256.253906 151.800781 256.046875 151.34375 256.007812 C 150.984375 255.976562 150.683594 255.722656 150.589844 255.371094 C 149.175781 249.859375 147.65625 244.59375 146.03125 239.566406 C 141.410156 225.234375 136.527344 210.988281 131.386719 196.832031 C 131.300781 196.589844 131.171875 196.328125 131.003906 196.039062 C 132.488281 194.988281 133.460938 193.265625 133.460938 191.308594 C 133.460938 189.257812 132.390625 187.460938 130.78125 186.433594 C 134.671875 185.921875 139.972656 185.144531 146.703125 184.101562 C 158.738281 182.242188 170.621094 180.355469 182.351562 178.445312 C 182.371094 178.441406 182.386719 178.441406 182.402344 178.441406 C 182.703125 178.425781 182.957031 178.652344 182.976562 178.949219 C 184.050781 202.191406 184.53125 225.445312 184.421875 248.703125 C 184.398438 253.289062 184.316406 257.441406 184.179688 261.148438 C 183.867188 269.242188 183.414062 275.832031 182.820312 280.925781 C 182.238281 285.929688 181.460938 290.496094 180.484375 294.625 C 179.683594 298.023438 178.542969 301.375 177.066406 304.695312 C 175.597656 307.996094 174.011719 310.679688 172.308594 312.75 C 170.300781 315.1875 167.929688 317.273438 165.191406 319.007812 C 162.351562 320.816406 159.464844 322.558594 156.542969 324.246094 C 155.496094 324.851562 155.566406 325.257812 156.761719 325.46875 C 166.914062 327.207031 176.785156 327.050781 186.386719 324.992188 C 187.304688 324.800781 188.230469 324.785156 189.164062 324.957031 C 198.910156 326.753906 208.371094 327.019531 217.546875 325.757812 C 219.050781 325.550781 219.199219 324.984375 217.996094 324.054688 C 216.96875 323.273438 215.71875 322.496094 214.238281 321.726562 C 209.472656 319.246094 205.578125 315.921875 202.550781 311.757812 C 200.546875 309 198.757812 305.277344 197.191406 300.585938 C 195.398438 295.230469 194.1875 289.921875 193.566406 284.65625 C 191.527344 267.371094 190.664062 249.261719 190.976562 230.328125 C 191.261719 213.148438 191.761719 195.976562 192.464844 178.804688 C 192.464844 178.792969 192.46875 178.78125 192.46875 178.769531 C 192.492188 178.617188 192.632812 178.511719 192.785156 178.535156 L 244.253906 186.453125 C 242.675781 187.488281 241.632812 189.269531 241.632812 191.296875 C 241.632812 193.367188 242.71875 195.175781 244.351562 196.199219 C 244.324219 196.25 244.296875 196.300781 244.28125 196.347656 C 240.914062 206.105469 237.5 215.847656 234.046875 225.578125 C 230.945312 234.308594 228.066406 243.113281 225.402344 251.988281 C 225.097656 253 224.851562 254.136719 224.652344 255.402344 C 224.621094 255.597656 224.488281 255.761719 224.304688 255.832031 C 222.375 256.550781 221.46875 257.746094 221.582031 259.410156 C 221.667969 260.71875 222.195312 261.785156 223.15625 262.613281 C 224.160156 263.484375 225.449219 263.777344 227.011719 263.488281 C 227.617188 263.375 228.238281 263.589844 228.648438 264.058594 C 229.78125 265.34375 230.929688 266.546875 232.089844 267.667969 C 233.457031 268.988281 234.773438 269.996094 236.039062 270.691406 C 239.179688 272.40625 242.765625 273.328125 246.808594 273.449219 C 255.136719 273.695312 261.566406 270.613281 266.085938 264.214844 C 266.199219 264.050781 266.378906 263.957031 266.570312 263.957031 C 268.15625 263.972656 269.574219 263.609375 270.824219 262.863281 C 272.175781 262.050781 272.945312 260.972656 273.128906 259.617188 C 273.351562 257.949219 272.496094 256.625 270.550781 255.652344 Z M 152.308594 259.019531 C 152.316406 258.96875 152.320312 258.921875 152.320312 258.875 C 152.320312 258.925781 152.316406 258.972656 152.308594 259.019531 C 152.308594 259.050781 152.300781 259.078125 152.296875 259.105469 C 152.300781 259.082031 152.308594 259.050781 152.308594 259.019531 Z M 152.191406 258.273438 C 152.15625 258.230469 152.121094 258.207031 152.074219 258.199219 C 152.117188 258.203125 152.15625 258.230469 152.191406 258.273438 Z M 151.890625 259.769531 C 151.816406 259.761719 151.753906 259.695312 151.710938 259.585938 C 151.753906 259.695312 151.816406 259.761719 151.890625 259.769531 Z M 126.265625 258.628906 C 126.265625 258.628906 126.265625 258.632812 126.265625 258.632812 C 126.265625 258.804688 126.128906 258.9375 125.964844 258.9375 L 110.554688 258.96875 C 110.148438 258.976562 109.796875 258.671875 109.730469 258.265625 C 109.550781 257.082031 109.085938 256.289062 108.34375 255.882812 C 108.289062 255.851562 108.085938 255.820312 107.738281 255.78125 L 106.527344 255.660156 C 106.511719 255.65625 106.5 255.652344 106.484375 255.652344 C 106.339844 255.609375 106.261719 255.429688 106.308594 255.253906 C 108.980469 245.386719 112.085938 235.660156 115.617188 226.070312 C 118.945312 217.035156 122.152344 207.960938 125.238281 198.84375 C 125.46875 198.15625 125.785156 197.507812 126.191406 196.902344 C 126.371094 196.945312 126.546875 196.984375 126.730469 197.011719 C 126.730469 197.03125 126.730469 197.042969 126.730469 197.0625 C 126.207031 217.527344 126.050781 238.050781 126.265625 258.628906 Z M 149.378906 255.136719 C 149.378906 255.140625 149.382812 255.140625 149.382812 255.144531 C 149.421875 255.308594 149.324219 255.472656 149.160156 255.515625 C 148.609375 255.652344 148.054688 255.765625 147.496094 255.847656 C 146.179688 256.046875 145.5 256.832031 145.453125 258.207031 C 145.441406 258.640625 145.089844 258.980469 144.65625 258.980469 L 127.589844 258.941406 C 127.582031 258.941406 127.574219 258.941406 127.5625 258.941406 C 127.402344 258.929688 127.289062 258.789062 127.300781 258.632812 C 127.332031 258.257812 127.382812 257.886719 127.445312 257.519531 C 127.515625 257.097656 127.550781 256.726562 127.550781 256.390625 C 127.636719 238.933594 127.800781 221.480469 128.042969 204.027344 C 128.078125 201.707031 128.160156 199.386719 128.292969 197.066406 C 128.820312 197.007812 129.324219 196.878906 129.796875 196.691406 C 129.90625 196.824219 130 196.976562 130.058594 197.144531 C 137.402344 216.347656 143.84375 235.679688 149.378906 255.136719 Z M 247.410156 202.15625 C 247.25 221.007812 247.214844 239.859375 247.304688 258.710938 C 247.304688 258.882812 247.164062 259.015625 246.992188 259.015625 L 230.019531 258.976562 C 229.683594 258.976562 229.40625 258.714844 229.398438 258.378906 C 229.367188 257.375 228.914062 256.554688 228.027344 255.921875 C 227.933594 255.851562 227.742188 255.796875 227.457031 255.765625 L 226.269531 255.609375 C 226.265625 255.609375 226.265625 255.609375 226.261719 255.609375 C 226.101562 255.582031 225.996094 255.402344 226.027344 255.203125 C 226.488281 252.449219 227.238281 249.449219 228.273438 246.214844 C 233.800781 228.972656 239.542969 212.664062 245.5 197.28125 C 245.5625 197.109375 245.628906 196.96875 245.699219 196.839844 C 246.15625 196.980469 246.636719 197.0625 247.136719 197.085938 C 247.339844 197.664062 247.429688 199.351562 247.410156 202.15625 Z M 267.003906 258.628906 C 267.011719 258.492188 267.042969 258.363281 267.085938 258.25 C 267.042969 258.363281 267.011719 258.492188 267.003906 258.628906 C 266.984375 258.929688 267.066406 259.203125 267.210938 259.371094 C 267.066406 259.203125 266.980469 258.929688 267.003906 258.628906 Z M 267.523438 259.542969 C 267.535156 259.542969 267.550781 259.539062 267.5625 259.539062 C 267.550781 259.539062 267.535156 259.542969 267.523438 259.542969 Z M 267.726562 259.503906 C 267.917969 259.410156 268.074219 259.175781 268.132812 258.882812 C 268.074219 259.175781 267.917969 259.410156 267.726562 259.503906 Z M 267.636719 257.789062 C 267.789062 257.800781 267.917969 257.894531 268.011719 258.042969 C 267.917969 257.894531 267.789062 257.800781 267.636719 257.789062 Z M 268.597656 255.523438 C 266.351562 255.683594 265.148438 256.660156 264.992188 258.449219 C 264.964844 258.773438 264.691406 259.019531 264.363281 259.019531 L 248.9375 259.015625 C 248.769531 259.015625 248.636719 258.875 248.636719 258.703125 L 248.824219 196.917969 C 249.105469 196.847656 249.378906 196.761719 249.640625 196.652344 C 249.679688 196.71875 249.710938 196.789062 249.742188 196.871094 C 256.832031 216.0625 263.257812 235.410156 269.015625 254.917969 C 269.023438 254.949219 269.03125 254.984375 269.03125 255.019531 C 269.050781 255.277344 268.855469 255.5 268.597656 255.523438 Z M 268.597656 255.523438 " fill-opacity="1" fill-rule="nonzero"/><g clip-path="url(#2ab118ee2b)"><path fill="#bc813d" d="M 187.195312 18.6875 L 196.113281 36.765625 L 216.058594 39.664062 L 201.621094 53.742188 L 205.039062 73.609375 L 187.195312 64.230469 L 169.339844 73.609375 L 172.746094 53.742188 L 158.320312 39.664062 L 178.265625 36.765625 Z M 187.195312 18.6875 " fill-opacity="1" fill-rule="nonzero"/><path fill="#bc813d" d="M 187.054688 18.515625 L 195.984375 36.589844 L 215.933594 39.488281 L 201.496094 53.570312 L 204.902344 73.4375 L 187.054688 64.058594 L 169.210938 73.4375 L 172.617188 53.570312 L 158.179688 39.488281 L 178.128906 36.589844 Z M 187.054688 18.515625 " fill-opacity="1" fill-rule="nonzero"/><path fill="#bc813d" d="M 187.054688 18.515625 L 195.984375 36.589844 L 215.933594 39.488281 L 201.496094 53.570312 L 204.902344 73.4375 L 187.054688 64.058594 L 169.210938 73.4375 L 172.617188 53.570312 L 158.179688 39.488281 L 178.128906 36.589844 Z M 187.054688 18.515625 " fill-opacity="1" fill-rule="nonzero"/><path fill="#bc813d" d="M 187.054688 18.515625 L 195.984375 36.589844 L 215.933594 39.488281 L 201.496094 53.570312 L 204.902344 73.4375 L 187.054688 64.058594 L 169.210938 73.4375 L 172.617188 53.570312 L 158.179688 39.488281 L 178.128906 36.589844 Z M 187.054688 18.515625 " fill-opacity="1" fill-rule="nonzero"/></g><g clip-path="url(#b2e684c592)"><path fill="#bc813d" d="M 263.449219 18.6875 L 272.367188 36.765625 L 292.3125 39.664062 L 277.875 53.742188 L 281.292969 73.609375 L 263.449219 64.230469 L 245.59375 73.609375 L 249 53.742188 L 234.574219 39.664062 L 254.519531 36.765625 Z M 263.449219 18.6875 " fill-opacity="1" fill-rule="nonzero"/><path fill="#bc813d" d="M 263.3125 18.515625 L 272.238281 36.589844 L 292.1875 39.488281 L 277.75 53.570312 L 281.15625 73.4375 L 263.3125 64.058594 L 245.464844 73.4375 L 248.871094 53.570312 L 234.433594 39.488281 L 254.382812 36.589844 Z M 263.3125 18.515625 " fill-opacity="1" fill-rule="nonzero"/><path fill="#bc813d" d="M 263.3125 18.515625 L 272.238281 36.589844 L 292.1875 39.488281 L 277.75 53.570312 L 281.15625 73.4375 L 263.3125 64.058594 L 245.464844 73.4375 L 248.871094 53.570312 L 234.433594 39.488281 L 254.382812 36.589844 Z M 263.3125 18.515625 " fill-opacity="1" fill-rule="nonzero"/><path fill="#bc813d" d="M 263.3125 18.515625 L 272.238281 36.589844 L 292.1875 39.488281 L 277.75 53.570312 L 281.15625 73.4375 L 263.3125 64.058594 L 245.464844 73.4375 L 248.871094 53.570312 L 234.433594 39.488281 L 254.382812 36.589844 Z M 263.3125 18.515625 " fill-opacity="1" fill-rule="nonzero"/></g></svg>