<svg xmlns="http://www.w3.org/2000/svg" xmlns:xlink="http://www.w3.org/1999/xlink" width="500" zoomAndPan="magnify" viewBox="0 0 375 374.999991" height="500" preserveAspectRatio="xMidYMid meet" version="1.0"><defs><clipPath id="c102e34260"><path d="M 158 13 L 217.175781 13 L 217.175781 69.828125 L 158 69.828125 Z M 158 13 " clip-rule="nonzero"/></clipPath><clipPath id="ed1f47d5f5"><path d="M 157.925781 12.828125 L 217.175781 12.828125 L 217.175781 69.828125 L 157.925781 69.828125 Z M 157.925781 12.828125 " clip-rule="nonzero"/></clipPath><clipPath id="f334b20917"><path d="M 51.566406 87.808594 L 323.066406 87.808594 L 323.066406 362.308594 L 51.566406 362.308594 Z M 51.566406 87.808594 " clip-rule="nonzero"/></clipPath></defs><g clip-path="url(#c102e34260)"><path fill="#00bf63" d="M 187.78125 13.027344 L 196.957031 31.625 L 217.480469 34.609375 L 202.625 49.097656 L 206.144531 69.539062 L 187.78125 59.886719 L 169.40625 69.539062 L 172.914062 49.097656 L 158.070312 34.609375 L 178.59375 31.625 Z M 187.78125 13.027344 " fill-opacity="1" fill-rule="nonzero"/></g><g clip-path="url(#ed1f47d5f5)"><path fill="#00bf63" d="M 187.640625 12.847656 L 196.828125 31.445312 L 217.351562 34.429688 L 202.496094 48.917969 L 206 69.359375 L 187.640625 59.707031 L 169.277344 69.359375 L 172.785156 48.917969 L 157.925781 34.429688 L 178.453125 31.445312 Z M 187.640625 12.847656 " fill-opacity="1" fill-rule="nonzero"/><path fill="#00bf63" d="M 187.640625 12.847656 L 196.828125 31.445312 L 217.351562 34.429688 L 202.496094 48.917969 L 206 69.359375 L 187.640625 59.707031 L 169.277344 69.359375 L 172.785156 48.917969 L 157.925781 34.429688 L 178.453125 31.445312 Z M 187.640625 12.847656 " fill-opacity="1" fill-rule="nonzero"/><path fill="#00bf63" d="M 187.640625 12.847656 L 196.828125 31.445312 L 217.351562 34.429688 L 202.496094 48.917969 L 206 69.359375 L 187.640625 59.707031 L 169.277344 69.359375 L 172.785156 48.917969 L 157.925781 34.429688 L 178.453125 31.445312 Z M 187.640625 12.847656 " fill-opacity="1" fill-rule="nonzero"/></g><path fill="#ffffff" d="M 303.679688 174.375 L 303.679688 334.480469 C 303.679688 334.480469 211.675781 316.28125 187.734375 334.480469 L 187.515625 334.480469 C 163.574219 316.28125 71.566406 334.480469 71.566406 334.480469 L 71.566406 174.375 C 83.96875 171.785156 101.742188 168.617188 111.664062 167.15625 C 111.664062 167.15625 101.304688 178.089844 114.144531 186.625 C 126.992188 195.164062 162.378906 185.53125 145.816406 164.773438 C 164.566406 164.589844 181.71875 168.132812 187.503906 170.679688 L 188.773438 170.257812 C 195.375 167.761719 211.695312 164.601562 229.433594 164.773438 C 229.433594 164.773438 224.074219 180.816406 226.148438 184.117188 C 228.222656 187.421875 262.691406 192.515625 265.171875 184.117188 C 267.652344 175.71875 266.046875 173.132812 263.582031 167.15625 C 273.503906 168.617188 291.277344 171.785156 303.679688 174.375 " fill-opacity="1" fill-rule="nonzero"/><path fill="#9ac8a8" d="M 320.941406 191.144531 L 320.941406 349.675781 L 54.066406 349.675781 L 54.066406 191.144531 L 71.566406 191.144531 L 71.566406 334.480469 C 71.566406 334.480469 163.574219 316.28125 187.515625 334.480469 C 211.453125 316.28125 303.457031 334.480469 303.457031 334.480469 L 303.457031 191.144531 L 320.941406 191.144531 " fill-opacity="1" fill-rule="nonzero"/><g clip-path="url(#f334b20917)"><path fill="#dfaa61" d="M 266.890625 113.285156 L 263.460938 109.855469 L 255.914062 117.402344 L 259.339844 120.832031 Z M 280.164062 100.011719 L 276.734375 96.582031 L 269.1875 104.128906 L 272.613281 107.554688 Z M 280.164062 117.402344 L 272.613281 109.855469 L 269.1875 113.285156 L 276.734375 120.832031 Z M 266.890625 104.128906 L 259.339844 96.582031 L 255.914062 100.011719 L 263.460938 107.554688 Z M 318.535156 193.566406 L 306.101562 193.566406 C 306.101562 193.882812 306.101562 194.191406 306.101562 194.507812 C 306.101562 241.167969 306.101562 287.824219 306.101562 334.480469 C 306.101562 336.152344 304.5625 337.121094 303.035156 336.820312 C 299.300781 336.082031 295.550781 335.445312 291.792969 334.824219 C 273.972656 331.890625 255.96875 329.691406 237.914062 329.003906 C 228.535156 328.648438 219.050781 328.65625 209.726562 329.824219 C 202.574219 330.722656 194.878906 332.21875 188.957031 336.574219 C 188.285156 337.066406 187.625 337.125 187.058594 336.917969 C 186.792969 336.859375 186.53125 336.757812 186.289062 336.574219 C 179.503906 331.585938 170.394531 330.230469 162.21875 329.46875 C 142.773438 327.648438 122.9375 329.480469 103.628906 331.894531 C 93.121094 333.207031 82.605469 334.769531 72.210938 336.820312 C 70.6875 337.121094 69.144531 336.152344 69.144531 334.480469 C 69.144531 327.769531 69.144531 321.0625 69.144531 314.351562 C 69.144531 274.089844 69.144531 233.828125 69.144531 193.566406 L 56.492188 193.566406 L 56.472656 347.25 L 318.515625 347.25 Z M 107.625 170.230469 C 96.367188 172 85.152344 174.070312 73.992188 176.355469 C 73.992188 182.402344 73.992188 188.457031 73.992188 194.507812 C 73.992188 240.195312 73.992188 285.886719 73.992188 331.578125 C 77.046875 331.015625 80.113281 330.484375 83.179688 329.984375 C 101.621094 326.988281 120.273438 324.699219 138.957031 324.101562 C 148.640625 323.789062 158.398438 323.925781 168.003906 325.304688 C 173.765625 326.132812 179.839844 327.390625 185.089844 330.128906 C 185.089844 308.140625 185.089844 286.144531 185.089844 264.148438 C 185.089844 262.980469 185.773438 262.25 186.628906 261.957031 L 149.691406 261.957031 L 149.691406 248.105469 L 163.953125 248.105469 L 163.953125 243.691406 C 163.953125 238.3125 168.328125 233.9375 173.710938 233.9375 L 173.738281 233.9375 L 173.738281 215.355469 C 173.738281 210.476562 177.339844 206.425781 182.019531 205.707031 L 182.019531 171.25 C 171.726562 168 160.144531 167.289062 149.441406 167.207031 L 153.035156 175.199219 L 153.035156 178.339844 C 153.035156 189 142.332031 197.675781 129.179688 197.675781 C 116.023438 197.675781 105.320312 189 105.320312 178.339844 L 105.320312 175.578125 L 105.394531 175.578125 L 105.394531 175.199219 Z M 147.257812 162.351562 C 158.441406 162.359375 170.964844 162.941406 182.019531 166.195312 L 182.019531 138.550781 L 181.882812 138.25 C 178.605469 131.089844 172.574219 125.824219 165.746094 124.167969 C 161.679688 123.183594 157.964844 123.703125 155.550781 125.597656 C 152.390625 128.082031 146.1875 132.539062 140.152344 134.511719 L 139.996094 134.558594 C 139.261719 134.746094 137.121094 135.246094 135.160156 135.441406 Z M 193.453125 166.128906 C 204.523438 162.910156 217.046875 162.351562 228.210938 162.351562 L 240.308594 135.445312 C 238.347656 135.25 236.207031 134.746094 235.476562 134.558594 L 235.316406 134.511719 C 229.28125 132.539062 223.082031 128.078125 219.917969 125.597656 C 217.507812 123.703125 213.789062 123.183594 209.726562 124.167969 C 202.894531 125.820312 196.863281 131.089844 193.589844 138.25 L 193.453125 138.550781 Z M 110.535156 175.578125 L 126.824219 175.578125 L 126.824219 139.34375 L 114.046875 167.773438 C 114 168.203125 113.835938 168.597656 113.535156 168.902344 Z M 131.671875 139.503906 L 131.671875 175.578125 L 147.886719 175.578125 Z M 227.582031 175.578125 L 243.800781 175.578125 L 243.800781 139.503906 Z M 261.199219 167.269531 L 248.648438 139.34375 L 248.648438 175.578125 L 264.933594 175.578125 L 262.058594 169.183594 C 261.378906 168.761719 261.121094 168.027344 261.199219 167.269531 Z M 267.863281 170.269531 L 270.078125 175.199219 L 270.078125 175.578125 L 270.148438 175.578125 L 270.148438 178.339844 C 270.148438 189 259.449219 197.675781 246.292969 197.675781 C 233.140625 197.675781 222.4375 189 222.4375 178.339844 L 222.4375 175.199219 L 226.03125 167.207031 C 215.34375 167.28125 203.761719 167.976562 193.453125 171.1875 L 193.453125 205.707031 C 198.132812 206.425781 201.734375 210.476562 201.734375 215.355469 L 201.761719 233.9375 C 207.140625 233.9375 211.519531 238.3125 211.519531 243.691406 L 211.519531 248.105469 L 225.78125 248.105469 L 225.78125 261.957031 L 188.394531 261.957031 C 189.253906 262.25 189.9375 262.980469 189.9375 264.148438 C 189.9375 286.183594 189.9375 308.21875 189.9375 330.25 C 196.222656 326.882812 203.71875 325.660156 210.65625 324.867188 C 230.664062 322.574219 251.238281 324.515625 271.132812 326.988281 C 281.203125 328.238281 291.273438 329.707031 301.257812 331.578125 C 301.257812 325.835938 301.257812 320.09375 301.257812 314.351562 C 301.257812 268.351562 301.257812 222.351562 301.257812 176.355469 C 290.175781 174.082031 279.039062 172.03125 267.863281 170.269531 Z M 323.363281 352.097656 L 207.503906 352.097656 C 205.675781 357.839844 197.480469 362.167969 187.644531 362.167969 C 177.800781 362.167969 169.605469 357.839844 167.777344 352.097656 L 51.625 352.097656 L 51.644531 188.71875 L 69.144531 188.71875 C 69.144531 183.9375 69.144531 179.15625 69.144531 174.375 C 69.144531 173.359375 69.894531 172.253906 70.925781 172.039062 C 83.875 169.355469 96.90625 166.960938 109.984375 164.984375 L 125.429688 130.628906 C 123.796875 127.851562 123.492188 124.300781 124.539062 120.285156 C 123.648438 119.230469 123.101562 117.863281 123.101562 116.371094 C 123.101562 113.023438 125.828125 110.296875 129.179688 110.296875 C 132.527344 110.296875 135.253906 113.023438 135.253906 116.371094 C 135.253906 119.164062 133.355469 121.515625 130.789062 122.222656 C 130.804688 123.683594 131.214844 124.957031 132.5 125.351562 C 136.175781 126.488281 138.75 124.101562 142.980469 119.789062 C 146.6875 116.011719 151.300781 111.308594 158.25 109.617188 C 168.695312 107.078125 176.902344 110.445312 182.019531 114.417969 L 182.019531 110.277344 C 178.359375 108.214844 175.878906 104.300781 175.878906 99.8125 C 175.878906 93.195312 181.265625 87.808594 187.886719 87.808594 C 194.503906 87.808594 199.890625 93.195312 199.890625 99.8125 C 199.890625 104.425781 197.273438 108.429688 193.453125 110.441406 L 193.453125 114.417969 C 198.566406 110.445312 206.765625 107.078125 217.222656 109.617188 C 224.171875 111.308594 228.785156 116.011719 232.492188 119.789062 C 236.722656 124.101562 239.296875 126.488281 242.96875 125.351562 C 244.253906 124.957031 244.667969 123.683594 244.683594 122.222656 C 242.109375 121.515625 240.21875 119.164062 240.21875 116.371094 C 240.21875 113.023438 242.945312 110.296875 246.292969 110.296875 C 249.644531 110.296875 252.367188 113.023438 252.367188 116.371094 C 252.367188 117.863281 251.824219 119.226562 250.929688 120.285156 C 251.976562 124.300781 251.671875 127.851562 250.039062 130.628906 L 265.503906 165.019531 C 278.5 166.992188 291.453125 169.371094 304.324219 172.039062 C 305.355469 172.253906 306.101562 173.367188 306.101562 174.375 C 306.101562 179.15625 306.101562 183.9375 306.101562 188.71875 L 323.382812 188.71875 Z M 88.363281 142.859375 L 77.6875 142.859375 L 77.6875 147.707031 L 88.363281 147.707031 Z M 107.136719 142.859375 L 96.464844 142.859375 L 96.464844 147.707031 L 107.136719 147.707031 Z M 94.835938 149.335938 L 89.988281 149.335938 L 89.988281 160.007812 L 94.835938 160.007812 Z M 94.835938 130.558594 L 89.988281 130.558594 L 89.988281 141.230469 L 94.835938 141.230469 Z M 208.511719 210.175781 C 228.035156 207.441406 248.226562 209.242188 267.707031 211.46875 C 270.800781 211.824219 270.773438 206.972656 267.707031 206.621094 C 247.722656 204.335938 227.234375 202.699219 207.226562 205.503906 C 204.144531 205.9375 205.457031 210.605469 208.511719 210.175781 Z M 276.5625 212.574219 C 278.421875 212.824219 280.277344 213.089844 282.136719 213.359375 C 283.425781 213.546875 284.738281 213.039062 285.117188 211.664062 C 285.425781 210.527344 284.726562 208.875 283.421875 208.683594 C 281.136719 208.351562 278.847656 208.039062 276.5625 207.726562 C 275.257812 207.558594 274.136719 208.96875 274.136719 210.152344 C 274.136719 211.609375 275.253906 212.398438 276.5625 212.574219 Z M 211.976562 227.273438 C 224.515625 226.019531 237.136719 226.398438 249.679688 227.28125 C 252.792969 227.5 252.777344 222.652344 249.679688 222.433594 C 237.136719 221.550781 224.515625 221.171875 211.976562 222.425781 C 208.902344 222.734375 208.871094 227.585938 211.976562 227.273438 Z M 259.914062 228.160156 C 267.339844 228.910156 274.742188 229.824219 282.136719 230.886719 C 285.183594 231.328125 286.5 226.660156 283.421875 226.214844 C 275.601562 225.085938 267.773438 224.105469 259.914062 223.3125 C 256.808594 223 256.832031 227.851562 259.914062 228.160156 Z M 232.554688 244.019531 C 237.882812 244.113281 243.203125 244.363281 248.519531 244.722656 C 251.632812 244.933594 251.617188 240.085938 248.519531 239.875 C 243.203125 239.515625 237.882812 239.265625 232.554688 239.171875 C 229.4375 239.113281 229.4375 243.960938 232.554688 244.019531 Z M 254.851562 245.21875 C 257.578125 245.457031 260.300781 245.722656 263.023438 246.007812 C 264.335938 246.140625 265.433594 244.792969 265.445312 243.582031 C 265.460938 242.160156 264.320312 241.296875 263.023438 241.160156 C 260.300781 240.875 257.578125 240.609375 254.851562 240.371094 C 251.746094 240.097656 251.761719 244.949219 254.851562 245.21875 Z M 268.8125 246.65625 C 273.261719 247.1875 277.699219 247.773438 282.136719 248.414062 C 285.183594 248.855469 286.5 244.183594 283.421875 243.742188 C 278.5625 243.035156 273.691406 242.390625 268.8125 241.808594 C 265.722656 241.4375 265.75 246.289062 268.8125 246.65625 Z M 230.828125 261.527344 C 248.011719 261.734375 265.140625 263.496094 282.136719 265.949219 C 285.183594 266.386719 286.5 261.71875 283.421875 261.273438 C 265.996094 258.761719 248.445312 256.890625 230.828125 256.679688 C 227.710938 256.644531 227.710938 261.492188 230.828125 261.527344 Z M 208.511719 280.296875 C 217.269531 279.074219 226.125 278.9375 234.949219 279.125 C 238.070312 279.195312 238.070312 274.347656 234.949219 274.28125 C 225.671875 274.082031 216.421875 274.339844 207.226562 275.625 C 204.144531 276.050781 205.457031 280.722656 208.511719 280.296875 Z M 243.105469 279.453125 C 256.171875 280.1875 269.183594 281.609375 282.136719 283.476562 C 285.183594 283.917969 286.5 279.25 283.421875 278.804688 C 270.042969 276.875 256.609375 275.367188 243.105469 274.605469 C 239.988281 274.425781 240 279.273438 243.105469 279.453125 Z M 208.511719 297.828125 C 221.742188 295.984375 235.234375 296.425781 248.519531 297.316406 C 251.632812 297.523438 251.617188 292.675781 248.519531 292.46875 C 234.757812 291.542969 220.914062 291.246094 207.226562 293.152344 C 204.144531 293.582031 205.457031 298.25 208.511719 297.828125 Z M 256.65625 298.1875 C 259.585938 298.472656 262.507812 298.78125 265.425781 299.117188 C 266.742188 299.269531 267.839844 297.898438 267.851562 296.695312 C 267.867188 295.261719 266.722656 294.421875 265.425781 294.269531 C 262.507812 293.933594 259.585938 293.625 256.65625 293.339844 C 253.554688 293.035156 253.578125 297.882812 256.65625 298.1875 Z M 273.105469 299.777344 C 276.117188 300.160156 279.125 300.574219 282.136719 301.007812 C 283.4375 301.199219 284.722656 300.6875 285.117188 299.316406 C 285.441406 298.179688 284.714844 296.519531 283.421875 296.335938 C 279.988281 295.835938 276.550781 295.371094 273.105469 294.929688 C 271.792969 294.757812 270.695312 296.160156 270.679688 297.355469 C 270.664062 298.800781 271.8125 299.609375 273.105469 299.777344 Z M 208.511719 315.355469 C 210.171875 315.113281 211.835938 314.929688 213.507812 314.765625 C 214.8125 314.644531 215.929688 313.742188 215.929688 312.34375 C 215.929688 311.128906 214.816406 309.796875 213.507812 309.917969 C 211.40625 310.125 209.3125 310.378906 207.226562 310.683594 C 205.925781 310.875 205.214844 312.511719 205.53125 313.664062 C 205.914062 315.054688 207.210938 315.546875 208.511719 315.355469 Z M 221.410156 314.253906 C 241.707031 313.550781 262.066406 315.644531 282.136719 318.539062 C 285.183594 318.976562 286.5 314.308594 283.421875 313.863281 C 262.925781 310.90625 242.144531 308.6875 221.410156 309.40625 C 218.296875 309.511719 218.285156 314.359375 221.410156 314.253906 Z M 167.964844 205.503906 C 147.957031 202.699219 127.464844 204.335938 107.484375 206.621094 C 104.421875 206.972656 104.386719 211.824219 107.484375 211.46875 C 126.964844 209.242188 147.15625 207.441406 166.679688 210.175781 C 169.726562 210.605469 171.046875 205.9375 167.964844 205.503906 Z M 98.628906 207.726562 C 96.34375 208.039062 94.054688 208.351562 91.769531 208.683594 C 90.472656 208.871094 89.761719 210.515625 90.074219 211.664062 C 90.457031 213.054688 91.757812 213.546875 93.054688 213.359375 C 94.914062 213.089844 96.769531 212.824219 98.628906 212.574219 C 99.929688 212.402344 101.054688 211.585938 101.054688 210.152344 C 101.054688 208.976562 99.9375 207.554688 98.628906 207.726562 Z M 163.210938 222.425781 C 150.675781 221.171875 138.058594 221.550781 125.507812 222.433594 C 122.414062 222.648438 122.390625 227.5 125.507812 227.28125 C 138.058594 226.398438 150.675781 226.019531 163.210938 227.273438 C 166.3125 227.582031 166.292969 222.734375 163.210938 222.425781 Z M 115.277344 223.3125 C 107.417969 224.105469 99.585938 225.085938 91.769531 226.214844 C 88.691406 226.660156 90 231.328125 93.054688 230.886719 C 100.445312 229.824219 107.851562 228.910156 115.277344 228.160156 C 118.351562 227.851562 118.386719 223 115.277344 223.3125 Z M 142.632812 239.171875 C 137.304688 239.265625 131.988281 239.515625 126.671875 239.875 C 123.578125 240.082031 123.554688 244.933594 126.671875 244.722656 C 131.988281 244.363281 137.304688 244.113281 142.632812 244.019531 C 145.75 243.960938 145.757812 239.109375 142.632812 239.171875 Z M 120.339844 240.371094 C 117.613281 240.609375 114.886719 240.875 112.167969 241.160156 C 110.855469 241.296875 109.757812 242.171875 109.746094 243.582031 C 109.730469 244.785156 110.867188 246.140625 112.167969 246.007812 C 114.886719 245.722656 117.613281 245.457031 120.339844 245.21875 C 123.421875 244.949219 123.453125 240.097656 120.339844 240.371094 Z M 106.378906 241.808594 C 101.5 242.390625 96.628906 243.035156 91.769531 243.742188 C 88.691406 244.183594 90 248.859375 93.054688 248.414062 C 97.488281 247.773438 101.929688 247.1875 106.378906 246.65625 C 109.433594 246.289062 109.472656 241.4375 106.378906 241.808594 Z M 144.363281 256.679688 C 126.742188 256.890625 109.195312 258.761719 91.769531 261.273438 C 88.691406 261.71875 90 266.386719 93.054688 265.949219 C 110.050781 263.496094 127.179688 261.734375 144.363281 261.527344 C 147.476562 261.492188 147.484375 256.644531 144.363281 256.679688 Z M 167.964844 275.625 C 158.765625 274.339844 149.519531 274.082031 140.242188 274.28125 C 137.125 274.347656 137.113281 279.195312 140.242188 279.125 C 149.066406 278.9375 157.921875 279.074219 166.679688 280.296875 C 169.726562 280.722656 171.046875 276.050781 167.964844 275.625 Z M 132.082031 274.605469 C 118.582031 275.367188 105.148438 276.875 91.769531 278.804688 C 88.691406 279.25 90 283.917969 93.054688 283.476562 C 106.007812 281.609375 119.015625 280.1875 132.082031 279.453125 C 135.183594 279.277344 135.203125 274.425781 132.082031 274.605469 Z M 167.964844 293.152344 C 154.277344 291.246094 140.433594 291.542969 126.671875 292.46875 C 123.578125 292.675781 123.554688 297.523438 126.671875 297.316406 C 139.957031 296.425781 153.449219 295.984375 166.679688 297.828125 C 169.726562 298.25 171.046875 293.582031 167.964844 293.152344 Z M 118.53125 293.339844 C 115.605469 293.625 112.683594 293.933594 109.761719 294.269531 C 108.449219 294.421875 107.351562 295.277344 107.339844 296.695312 C 107.324219 297.890625 108.460938 299.269531 109.761719 299.117188 C 112.683594 298.78125 115.605469 298.472656 118.53125 298.1875 C 121.609375 297.886719 121.640625 293.035156 118.53125 293.339844 Z M 102.085938 294.929688 C 98.640625 295.371094 95.203125 295.835938 91.769531 296.335938 C 90.460938 296.519531 89.773438 298.164062 90.074219 299.316406 C 90.441406 300.707031 91.769531 301.195312 93.054688 301.007812 C 96.0625 300.574219 99.074219 300.160156 102.085938 299.777344 C 103.394531 299.609375 104.496094 298.78125 104.511719 297.355469 C 104.523438 296.167969 103.386719 294.761719 102.085938 294.929688 Z M 167.964844 310.683594 C 165.878906 310.378906 163.785156 310.125 161.683594 309.917969 C 160.375 309.796875 159.257812 311.125 159.257812 312.34375 C 159.257812 313.757812 160.371094 314.644531 161.683594 314.765625 C 163.351562 314.929688 165.019531 315.113281 166.679688 315.355469 C 167.972656 315.542969 169.285156 315.035156 169.660156 313.664062 C 169.972656 312.523438 169.269531 310.875 167.964844 310.683594 Z M 153.78125 309.40625 C 156.894531 309.511719 156.898438 314.359375 153.78125 314.253906 C 133.484375 313.550781 113.121094 315.644531 93.054688 318.539062 C 90 318.976562 88.691406 314.308594 91.769531 313.863281 C 112.265625 310.90625 133.042969 308.6875 153.78125 309.40625 " fill-opacity="1" fill-rule="nonzero"/></g></svg>