<svg xmlns="http://www.w3.org/2000/svg" xmlns:xlink="http://www.w3.org/1999/xlink" width="500" zoomAndPan="magnify" viewBox="0 0 375 374.999991" height="500" preserveAspectRatio="xMidYMid meet" version="1.0"><defs><clipPath id="10b3a531e5"><path d="M 4.636719 27.148438 L 63 27.148438 L 63 82.648438 L 4.636719 82.648438 Z M 4.636719 27.148438 " clip-rule="nonzero"/></clipPath><clipPath id="2cd4a5104e"><path d="M 19.050781 93.914062 L 355.800781 93.914062 L 355.800781 348 L 19.050781 348 Z M 19.050781 93.914062 " clip-rule="nonzero"/></clipPath><clipPath id="f341cd50f9"><path d="M 82.214844 27.148438 L 140.714844 27.148438 L 140.714844 82.648438 L 82.214844 82.648438 Z M 82.214844 27.148438 " clip-rule="nonzero"/></clipPath><clipPath id="44152320d2"><path d="M 159 27.148438 L 217.367188 27.148438 L 217.367188 82.648438 L 159 82.648438 Z M 159 27.148438 " clip-rule="nonzero"/></clipPath><clipPath id="1102ff269d"><path d="M 158.867188 27.148438 L 217 27.148438 L 217 82.648438 L 158.867188 82.648438 Z M 158.867188 27.148438 " clip-rule="nonzero"/></clipPath><clipPath id="ec7ecf1843"><path d="M 235.519531 27.148438 L 294 27.148438 L 294 82.648438 L 235.519531 82.648438 Z M 235.519531 27.148438 " clip-rule="nonzero"/></clipPath><clipPath id="81764749b6"><path d="M 312.171875 27.148438 L 370.671875 27.148438 L 370.671875 82.648438 L 312.171875 82.648438 Z M 312.171875 27.148438 " clip-rule="nonzero"/></clipPath></defs><g clip-path="url(#10b3a531e5)"><path fill="#a67120" d="M 33.804688 27.339844 L 42.765625 45.511719 L 62.820312 48.425781 L 48.304688 62.578125 L 51.742188 82.550781 L 33.804688 73.121094 L 15.851562 82.550781 L 19.277344 62.578125 L 4.777344 48.425781 L 24.828125 45.511719 Z M 33.804688 27.339844 " fill-opacity="1" fill-rule="nonzero"/><path fill="#a67120" d="M 33.664062 27.164062 L 42.640625 45.335938 L 62.691406 48.25 L 48.179688 62.40625 L 51.605469 82.375 L 33.664062 72.949219 L 15.726562 82.375 L 19.152344 62.40625 L 4.636719 48.25 L 24.6875 45.335938 Z M 33.664062 27.164062 " fill-opacity="1" fill-rule="nonzero"/><path fill="#a67120" d="M 33.664062 27.164062 L 42.640625 45.335938 L 62.691406 48.25 L 48.179688 62.40625 L 51.605469 82.375 L 33.664062 72.949219 L 15.726562 82.375 L 19.152344 62.40625 L 4.636719 48.25 L 24.6875 45.335938 Z M 33.664062 27.164062 " fill-opacity="1" fill-rule="nonzero"/><path fill="#a67120" d="M 33.664062 27.164062 L 42.640625 45.335938 L 62.691406 48.25 L 48.179688 62.40625 L 51.605469 82.375 L 33.664062 72.949219 L 15.726562 82.375 L 19.152344 62.40625 L 4.636719 48.25 L 24.6875 45.335938 Z M 33.664062 27.164062 " fill-opacity="1" fill-rule="nonzero"/></g><g clip-path="url(#2cd4a5104e)"><path fill="#ffffff" d="M 300.808594 140.394531 L 337.835938 256.734375 L 263.777344 256.734375 Z M 182.101562 114.699219 C 182.101562 111.707031 184.535156 109.273438 187.53125 109.273438 C 190.523438 109.273438 192.957031 111.707031 192.957031 114.699219 C 192.957031 117.691406 190.523438 120.128906 187.53125 120.128906 C 184.535156 120.128906 182.101562 117.691406 182.101562 114.699219 Z M 37.222656 256.734375 L 74.25 140.394531 L 111.28125 256.734375 Z M 355.023438 259.34375 C 354.117188 257.730469 352.410156 256.734375 350.5625 256.734375 L 345.855469 256.734375 L 307.257812 135.472656 L 307.394531 135.472656 C 311.628906 135.472656 315.0625 132.035156 315.0625 127.800781 C 315.0625 123.5625 311.628906 120.128906 307.394531 120.128906 L 207.554688 120.128906 C 208.027344 118.394531 208.300781 116.578125 208.300781 114.699219 C 208.300781 103.246094 198.984375 93.929688 187.53125 93.929688 C 176.074219 93.929688 166.757812 103.246094 166.757812 114.699219 C 166.757812 116.578125 167.035156 118.394531 167.503906 120.128906 L 67.667969 120.128906 C 63.433594 120.128906 59.996094 123.5625 59.996094 127.800781 C 59.996094 132.035156 63.433594 135.472656 67.667969 135.472656 L 67.800781 135.472656 L 29.207031 256.734375 L 24.496094 256.734375 C 22.648438 256.734375 20.945312 257.730469 20.035156 259.34375 C 19.132812 260.957031 19.167969 262.929688 20.132812 264.511719 C 31.769531 283.597656 52.003906 294.996094 74.253906 294.996094 C 96.503906 294.996094 116.738281 283.597656 128.375 264.511719 C 129.335938 262.929688 129.371094 260.953125 128.464844 259.34375 C 127.5625 257.730469 125.855469 256.734375 124.007812 256.734375 L 119.296875 256.734375 L 80.703125 135.472656 L 179.859375 135.472656 L 179.859375 326.523438 L 125.023438 326.523438 C 122.199219 326.523438 119.910156 328.8125 119.910156 331.636719 L 119.910156 342.714844 C 119.910156 345.542969 122.199219 347.828125 125.023438 347.828125 L 250.035156 347.828125 C 252.859375 347.828125 255.152344 345.542969 255.152344 342.714844 L 255.152344 331.636719 C 255.152344 328.8125 252.859375 326.523438 250.035156 326.523438 L 195.199219 326.523438 L 195.199219 135.472656 L 294.355469 135.472656 L 255.757812 256.734375 L 251.054688 256.734375 C 249.203125 256.734375 247.496094 257.730469 246.59375 259.34375 C 245.691406 260.953125 245.722656 262.929688 246.683594 264.511719 C 258.324219 283.597656 278.554688 294.996094 300.808594 294.996094 C 323.058594 294.996094 343.289062 283.597656 354.929688 264.511719 C 355.894531 262.929688 355.925781 260.957031 355.023438 259.34375 " fill-opacity="1" fill-rule="nonzero"/></g><g clip-path="url(#f341cd50f9)"><path fill="#a67120" d="M 111.382812 27.339844 L 120.347656 45.511719 L 140.398438 48.425781 L 125.882812 62.578125 L 129.320312 82.550781 L 111.382812 73.121094 L 93.429688 82.550781 L 96.855469 62.578125 L 82.355469 48.425781 L 102.40625 45.511719 Z M 111.382812 27.339844 " fill-opacity="1" fill-rule="nonzero"/><path fill="#a67120" d="M 111.242188 27.164062 L 120.21875 45.335938 L 140.269531 48.25 L 125.757812 62.40625 L 129.183594 82.375 L 111.242188 72.949219 L 93.304688 82.375 L 96.730469 62.40625 L 82.214844 48.25 L 102.265625 45.335938 Z M 111.242188 27.164062 " fill-opacity="1" fill-rule="nonzero"/><path fill="#a67120" d="M 111.242188 27.164062 L 120.21875 45.335938 L 140.269531 48.25 L 125.757812 62.40625 L 129.183594 82.375 L 111.242188 72.949219 L 93.304688 82.375 L 96.730469 62.40625 L 82.214844 48.25 L 102.265625 45.335938 Z M 111.242188 27.164062 " fill-opacity="1" fill-rule="nonzero"/><path fill="#a67120" d="M 111.242188 27.164062 L 120.21875 45.335938 L 140.269531 48.25 L 125.757812 62.40625 L 129.183594 82.375 L 111.242188 72.949219 L 93.304688 82.375 L 96.730469 62.40625 L 82.214844 48.25 L 102.265625 45.335938 Z M 111.242188 27.164062 " fill-opacity="1" fill-rule="nonzero"/></g><g clip-path="url(#44152320d2)"><path fill="#a67120" d="M 188.035156 27.339844 L 197 45.511719 L 217.050781 48.425781 L 202.535156 62.578125 L 205.972656 82.550781 L 188.035156 73.121094 L 170.082031 82.550781 L 173.507812 62.578125 L 159.007812 48.425781 L 179.058594 45.511719 Z M 188.035156 27.339844 " fill-opacity="1" fill-rule="nonzero"/></g><g clip-path="url(#1102ff269d)"><path fill="#a67120" d="M 187.894531 27.164062 L 196.871094 45.335938 L 216.921875 48.25 L 202.410156 62.40625 L 205.835938 82.375 L 187.894531 72.949219 L 169.957031 82.375 L 173.382812 62.40625 L 158.867188 48.25 L 178.917969 45.335938 Z M 187.894531 27.164062 " fill-opacity="1" fill-rule="nonzero"/><path fill="#a67120" d="M 187.894531 27.164062 L 196.871094 45.335938 L 216.921875 48.25 L 202.410156 62.40625 L 205.835938 82.375 L 187.894531 72.949219 L 169.957031 82.375 L 173.382812 62.40625 L 158.867188 48.25 L 178.917969 45.335938 Z M 187.894531 27.164062 " fill-opacity="1" fill-rule="nonzero"/><path fill="#a67120" d="M 187.894531 27.164062 L 196.871094 45.335938 L 216.921875 48.25 L 202.410156 62.40625 L 205.835938 82.375 L 187.894531 72.949219 L 169.957031 82.375 L 173.382812 62.40625 L 158.867188 48.25 L 178.917969 45.335938 Z M 187.894531 27.164062 " fill-opacity="1" fill-rule="nonzero"/></g><g clip-path="url(#ec7ecf1843)"><path fill="#a67120" d="M 264.6875 27.339844 L 273.652344 45.511719 L 293.703125 48.425781 L 279.1875 62.578125 L 282.625 82.550781 L 264.6875 73.121094 L 246.734375 82.550781 L 250.160156 62.578125 L 235.660156 48.425781 L 255.710938 45.511719 Z M 264.6875 27.339844 " fill-opacity="1" fill-rule="nonzero"/><path fill="#a67120" d="M 264.546875 27.164062 L 273.523438 45.335938 L 293.574219 48.25 L 279.0625 62.40625 L 282.488281 82.375 L 264.546875 72.949219 L 246.609375 82.375 L 250.035156 62.40625 L 235.519531 48.25 L 255.570312 45.335938 Z M 264.546875 27.164062 " fill-opacity="1" fill-rule="nonzero"/><path fill="#a67120" d="M 264.546875 27.164062 L 273.523438 45.335938 L 293.574219 48.25 L 279.0625 62.40625 L 282.488281 82.375 L 264.546875 72.949219 L 246.609375 82.375 L 250.035156 62.40625 L 235.519531 48.25 L 255.570312 45.335938 Z M 264.546875 27.164062 " fill-opacity="1" fill-rule="nonzero"/><path fill="#a67120" d="M 264.546875 27.164062 L 273.523438 45.335938 L 293.574219 48.25 L 279.0625 62.40625 L 282.488281 82.375 L 264.546875 72.949219 L 246.609375 82.375 L 250.035156 62.40625 L 235.519531 48.25 L 255.570312 45.335938 Z M 264.546875 27.164062 " fill-opacity="1" fill-rule="nonzero"/></g><g clip-path="url(#81764749b6)"><path fill="#a67120" d="M 341.339844 27.339844 L 350.300781 45.511719 L 370.355469 48.425781 L 355.839844 62.578125 L 359.277344 82.550781 L 341.339844 73.121094 L 323.386719 82.550781 L 326.8125 62.578125 L 312.3125 48.425781 L 332.363281 45.511719 Z M 341.339844 27.339844 " fill-opacity="1" fill-rule="nonzero"/><path fill="#a67120" d="M 341.199219 27.164062 L 350.175781 45.335938 L 370.226562 48.25 L 355.714844 62.40625 L 359.140625 82.375 L 341.199219 72.949219 L 323.261719 82.375 L 326.683594 62.40625 L 312.171875 48.25 L 332.222656 45.335938 Z M 341.199219 27.164062 " fill-opacity="1" fill-rule="nonzero"/><path fill="#a67120" d="M 341.199219 27.164062 L 350.175781 45.335938 L 370.226562 48.25 L 355.714844 62.40625 L 359.140625 82.375 L 341.199219 72.949219 L 323.261719 82.375 L 326.683594 62.40625 L 312.171875 48.25 L 332.222656 45.335938 Z M 341.199219 27.164062 " fill-opacity="1" fill-rule="nonzero"/><path fill="#a67120" d="M 341.199219 27.164062 L 350.175781 45.335938 L 370.226562 48.25 L 355.714844 62.40625 L 359.140625 82.375 L 341.199219 72.949219 L 323.261719 82.375 L 326.683594 62.40625 L 312.171875 48.25 L 332.222656 45.335938 Z M 341.199219 27.164062 " fill-opacity="1" fill-rule="nonzero"/></g></svg>