<svg xmlns="http://www.w3.org/2000/svg" xmlns:xlink="http://www.w3.org/1999/xlink" width="500" zoomAndPan="magnify" viewBox="0 0 375 374.999991" height="500" preserveAspectRatio="xMidYMid meet" version="1.0"><defs><clipPath id="3f4231007b"><path d="M 14.515625 14.515625 L 360 14.515625 L 360 360 L 14.515625 360 Z M 14.515625 14.515625 " clip-rule="nonzero"/></clipPath><clipPath id="32e8adaab2"><path d="M 14.515625 14.515625 L 360.265625 14.515625 L 360.265625 360.265625 L 14.515625 360.265625 Z M 14.515625 14.515625 " clip-rule="nonzero"/></clipPath><clipPath id="3da7759b08"><path d="M 122 53 L 291 53 L 291 360.265625 L 122 360.265625 Z M 122 53 " clip-rule="nonzero"/></clipPath></defs><g clip-path="url(#3f4231007b)"><path fill="#4267b2" d="M 359.839844 187.351562 C 359.839844 190.171875 359.769531 192.996094 359.628906 195.8125 C 359.492188 198.632812 359.285156 201.445312 359.007812 204.253906 C 358.730469 207.0625 358.386719 209.863281 357.972656 212.65625 C 357.558594 215.445312 357.074219 218.226562 356.523438 220.996094 C 355.972656 223.761719 355.355469 226.515625 354.671875 229.253906 C 353.984375 231.992188 353.230469 234.710938 352.414062 237.410156 C 351.59375 240.109375 350.707031 242.789062 349.757812 245.449219 C 348.808594 248.105469 347.792969 250.738281 346.710938 253.34375 C 345.632812 255.953125 344.488281 258.53125 343.28125 261.082031 C 342.074219 263.632812 340.804688 266.152344 339.476562 268.644531 C 338.144531 271.132812 336.753906 273.585938 335.304688 276.007812 C 333.851562 278.429688 332.34375 280.8125 330.777344 283.160156 C 329.207031 285.503906 327.582031 287.8125 325.902344 290.078125 C 324.222656 292.34375 322.484375 294.570312 320.695312 296.75 C 318.902344 298.933594 317.0625 301.070312 315.164062 303.160156 C 313.269531 305.25 311.324219 307.296875 309.328125 309.289062 C 307.332031 311.285156 305.289062 313.230469 303.199219 315.128906 C 301.109375 317.023438 298.972656 318.867188 296.789062 320.65625 C 294.609375 322.445312 292.382812 324.183594 290.117188 325.863281 C 287.851562 327.542969 285.542969 329.167969 283.199219 330.738281 C 280.851562 332.304688 278.46875 333.8125 276.046875 335.265625 C 273.625 336.714844 271.171875 338.105469 268.683594 339.4375 C 266.191406 340.769531 263.671875 342.035156 261.121094 343.242188 C 258.570312 344.449219 255.992188 345.59375 253.382812 346.671875 C 250.777344 347.753906 248.144531 348.769531 245.488281 349.71875 C 242.828125 350.667969 240.148438 351.554688 237.449219 352.375 C 234.75 353.195312 232.03125 353.945312 229.292969 354.632812 C 226.554688 355.316406 223.800781 355.933594 221.035156 356.484375 C 218.265625 357.035156 215.484375 357.519531 212.695312 357.933594 C 209.902344 358.347656 207.101562 358.691406 204.292969 358.96875 C 201.484375 359.246094 198.671875 359.453125 195.851562 359.59375 C 193.03125 359.730469 190.210938 359.800781 187.390625 359.800781 C 184.566406 359.800781 181.746094 359.730469 178.929688 359.59375 C 176.109375 359.453125 173.296875 359.246094 170.488281 358.96875 C 167.679688 358.691406 164.878906 358.347656 162.085938 357.933594 C 159.296875 357.519531 156.515625 357.035156 153.746094 356.484375 C 150.980469 355.933594 148.226562 355.316406 145.488281 354.632812 C 142.75 353.945312 140.03125 353.195312 137.332031 352.375 C 134.628906 351.554688 131.953125 350.667969 129.292969 349.71875 C 126.636719 348.769531 124.003906 347.753906 121.398438 346.671875 C 118.789062 345.59375 116.210938 344.449219 113.660156 343.242188 C 111.109375 342.035156 108.585938 340.769531 106.097656 339.4375 C 103.609375 338.105469 101.15625 336.714844 98.734375 335.265625 C 96.3125 333.8125 93.929688 332.304688 91.582031 330.738281 C 89.238281 329.167969 86.929688 327.542969 84.664062 325.863281 C 82.394531 324.183594 80.171875 322.445312 77.992188 320.65625 C 75.808594 318.867188 73.671875 317.023438 71.582031 315.128906 C 69.488281 313.230469 67.445312 311.285156 65.449219 309.289062 C 63.457031 307.296875 61.511719 305.25 59.613281 303.160156 C 57.71875 301.070312 55.875 298.933594 54.085938 296.75 C 52.296875 294.570312 50.558594 292.34375 48.878906 290.078125 C 47.199219 287.8125 45.574219 285.503906 44.003906 283.160156 C 42.4375 280.8125 40.925781 278.429688 39.476562 276.007812 C 38.027344 273.585938 36.636719 271.132812 35.304688 268.644531 C 33.972656 266.152344 32.707031 263.632812 31.5 261.082031 C 30.292969 258.53125 29.148438 255.953125 28.070312 253.34375 C 26.988281 250.738281 25.972656 248.105469 25.023438 245.449219 C 24.070312 242.789062 23.1875 240.113281 22.367188 237.410156 C 21.546875 234.710938 20.796875 231.992188 20.109375 229.253906 C 19.425781 226.515625 18.804688 223.761719 18.253906 220.996094 C 17.707031 218.226562 17.222656 215.445312 16.808594 212.65625 C 16.394531 209.863281 16.050781 207.0625 15.773438 204.253906 C 15.496094 201.445312 15.289062 198.632812 15.148438 195.8125 C 15.011719 192.996094 14.941406 190.171875 14.941406 187.351562 C 14.941406 184.53125 15.011719 181.707031 15.148438 178.890625 C 15.289062 176.070312 15.496094 173.257812 15.773438 170.449219 C 16.050781 167.640625 16.394531 164.839844 16.808594 162.046875 C 17.222656 159.257812 17.707031 156.476562 18.253906 153.707031 C 18.804688 150.941406 19.425781 148.1875 20.109375 145.449219 C 20.796875 142.710938 21.546875 139.992188 22.367188 137.292969 C 23.1875 134.589844 24.070312 131.914062 25.023438 129.253906 C 25.972656 126.597656 26.988281 123.964844 28.070312 121.359375 C 29.148438 118.75 30.292969 116.171875 31.5 113.621094 C 32.707031 111.070312 33.972656 108.550781 35.304688 106.058594 C 36.636719 103.570312 38.027344 101.117188 39.476562 98.695312 C 40.925781 96.273438 42.4375 93.890625 44.003906 91.542969 C 45.574219 89.199219 47.199219 86.890625 48.878906 84.625 C 50.558594 82.359375 52.296875 80.132812 54.085938 77.953125 C 55.875 75.769531 57.71875 73.632812 59.613281 71.542969 C 61.511719 69.453125 63.457031 67.40625 65.449219 65.414062 C 67.445312 63.417969 69.488281 61.472656 71.582031 59.574219 C 73.671875 57.679688 75.808594 55.835938 77.992188 54.046875 C 80.171875 52.257812 82.394531 50.519531 84.664062 48.839844 C 86.929688 47.160156 89.238281 45.535156 91.582031 43.964844 C 93.929688 42.398438 96.3125 40.890625 98.734375 39.4375 C 101.15625 37.988281 103.609375 36.597656 106.097656 35.265625 C 108.585938 33.933594 111.109375 32.667969 113.660156 31.460938 C 116.210938 30.253906 118.789062 29.109375 121.398438 28.03125 C 124.003906 26.949219 126.636719 25.933594 129.292969 24.984375 C 131.953125 24.035156 134.628906 23.148438 137.332031 22.328125 C 140.03125 21.507812 142.75 20.757812 145.488281 20.070312 C 148.226562 19.386719 150.980469 18.765625 153.746094 18.21875 C 156.515625 17.667969 159.296875 17.183594 162.085938 16.769531 C 164.878906 16.355469 167.679688 16.011719 170.488281 15.734375 C 173.296875 15.457031 176.109375 15.25 178.929688 15.109375 C 181.746094 14.972656 184.566406 14.902344 187.390625 14.902344 C 190.210938 14.902344 193.03125 14.972656 195.851562 15.109375 C 198.671875 15.25 201.484375 15.457031 204.292969 15.734375 C 207.101562 16.011719 209.902344 16.355469 212.695312 16.769531 C 215.484375 17.183594 218.265625 17.667969 221.035156 18.21875 C 223.800781 18.765625 226.554688 19.386719 229.292969 20.070312 C 232.03125 20.757812 234.75 21.507812 237.449219 22.328125 C 240.148438 23.148438 242.828125 24.035156 245.488281 24.984375 C 248.144531 25.933594 250.777344 26.949219 253.382812 28.03125 C 255.992188 29.109375 258.570312 30.253906 261.121094 31.460938 C 263.671875 32.667969 266.191406 33.933594 268.683594 35.265625 C 271.171875 36.597656 273.625 37.988281 276.046875 39.4375 C 278.46875 40.890625 280.851562 42.398438 283.199219 43.964844 C 285.542969 45.535156 287.851562 47.160156 290.117188 48.839844 C 292.382812 50.519531 294.609375 52.257812 296.789062 54.046875 C 298.972656 55.835938 301.109375 57.679688 303.199219 59.574219 C 305.289062 61.472656 307.332031 63.417969 309.328125 65.414062 C 311.324219 67.40625 313.269531 69.453125 315.164062 71.542969 C 317.0625 73.632812 318.902344 75.769531 320.695312 77.953125 C 322.484375 80.132812 324.222656 82.359375 325.902344 84.625 C 327.582031 86.890625 329.207031 89.199219 330.777344 91.542969 C 332.34375 93.890625 333.851562 96.273438 335.304688 98.695312 C 336.753906 101.117188 338.144531 103.570312 339.476562 106.058594 C 340.804688 108.550781 342.074219 111.070312 343.28125 113.621094 C 344.488281 116.171875 345.632812 118.75 346.710938 121.359375 C 347.792969 123.964844 348.808594 126.597656 349.757812 129.253906 C 350.707031 131.914062 351.59375 134.589844 352.414062 137.292969 C 353.230469 139.992188 353.984375 142.710938 354.671875 145.449219 C 355.355469 148.1875 355.972656 150.941406 356.523438 153.707031 C 357.074219 156.476562 357.558594 159.257812 357.972656 162.046875 C 358.386719 164.839844 358.730469 167.640625 359.007812 170.449219 C 359.285156 173.257812 359.492188 176.070312 359.628906 178.890625 C 359.769531 181.707031 359.839844 184.53125 359.839844 187.351562 Z M 359.839844 187.351562 " fill-opacity="1" fill-rule="nonzero"/></g><g clip-path="url(#32e8adaab2)"><path stroke-linecap="butt" transform="matrix(0.776094, 0, 0, 0.776094, 0.739704, 5.279849)" fill="none" stroke-linejoin="miter" d="M 462.701708 234.599999 C 462.701708 238.233981 462.61111 241.872996 462.429914 245.501945 C 462.253751 249.135927 461.986991 252.759842 461.629633 256.378725 C 461.272274 259.997607 460.829351 263.606423 460.29583 267.205172 C 459.76231 270.798888 459.138191 274.382538 458.428507 277.951088 C 457.718824 281.514605 456.923576 285.063022 456.042763 288.591307 C 455.156917 292.119591 454.185506 295.622709 453.133564 299.100661 C 452.076589 302.578614 450.934049 306.0314 449.710977 309.45902 C 448.487906 312.881607 447.17927 316.273994 445.785069 319.631149 C 444.395901 322.993337 442.921169 326.31526 441.365905 329.60195 C 439.810642 332.88864 438.174846 336.135064 436.463553 339.346256 C 434.747226 342.552415 432.955402 345.713274 431.088078 348.833868 C 429.215722 351.954462 427.272901 355.024724 425.254581 358.049686 C 423.231228 361.069616 421.137411 364.044247 418.973128 366.963512 C 416.808845 369.882777 414.569064 372.75171 412.263851 375.560245 C 409.953605 378.373812 407.58296 381.126982 405.136817 383.819752 C 402.695707 386.512523 400.189166 389.149928 397.617192 391.716868 C 395.045219 394.288841 392.412847 396.795383 389.720077 399.241526 C 387.027306 401.682635 384.274137 404.058313 381.460569 406.363526 C 378.652035 408.668739 375.783102 410.90852 372.863837 413.072803 C 369.944571 415.237086 366.969941 417.330904 363.950011 419.354257 C 360.925048 421.372576 357.854787 423.315397 354.734193 425.187754 C 351.613599 427.055077 348.452739 428.846902 345.246581 430.563228 C 342.035389 432.279555 338.788965 433.910317 335.502275 435.465581 C 332.215585 437.020844 328.893662 438.495577 325.531474 439.884744 C 322.174319 441.278945 318.781931 442.587581 315.359344 443.810653 C 311.931724 445.033724 308.478938 446.176264 305.000986 447.23324 C 301.523034 448.290215 298.019916 449.256592 294.491631 450.142438 C 290.963347 451.023251 287.41493 451.818499 283.851413 452.528183 C 280.282863 453.237866 276.699213 453.861985 273.105497 454.395506 C 269.506747 454.929027 265.897931 455.37195 262.279049 455.729308 C 258.660167 456.086666 255.036252 456.353427 251.40227 456.534623 C 247.768288 456.710785 244.134306 456.801383 240.500324 456.801383 C 236.861309 456.801383 233.227327 456.710785 229.598378 456.534623 C 225.964396 456.353427 222.340481 456.086666 218.721599 455.729308 C 215.102716 455.37195 211.4939 454.929027 207.895151 454.395506 C 204.301435 453.861985 200.717785 453.237866 197.149235 452.528183 C 193.585718 451.818499 190.037301 451.023251 186.509017 450.142438 C 182.980732 449.256592 179.477614 448.290215 175.999662 447.23324 C 172.516676 446.176264 169.068923 445.033724 165.641303 443.810653 C 162.218716 442.587581 158.826329 441.278945 155.469174 439.884744 C 152.106986 438.495577 148.785063 437.020844 145.498373 435.465581 C 142.211683 433.910317 138.960226 432.279555 135.754067 430.563228 C 132.547909 428.846902 129.387049 427.055077 126.266455 425.187754 C 123.145861 423.315397 120.075599 421.372576 117.050637 419.354257 C 114.030707 417.330904 111.056077 415.237086 108.136811 413.072803 C 105.212513 410.90852 102.348613 408.668739 99.540078 406.363526 C 96.726511 404.058313 93.973342 401.682635 91.280571 399.241526 C 88.582767 396.795383 85.950395 394.288841 83.378422 391.716868 C 80.811482 389.149928 78.30494 386.512523 75.858798 383.819752 C 73.417688 381.126982 71.04201 378.373812 68.736797 375.560245 C 66.431584 372.75171 64.191803 369.882777 62.02752 366.963512 C 59.863237 364.044247 57.769419 361.069616 55.746067 358.049686 C 53.727747 355.024724 51.779893 351.954462 49.912569 348.833868 C 48.045246 345.713274 46.253421 342.552415 44.537095 339.346256 C 42.820768 336.135064 41.190006 332.88864 39.634742 329.60195 C 38.079479 326.31526 36.604746 322.993337 35.215579 319.631149 C 33.821378 316.273994 32.512742 312.881607 31.28967 309.45902 C 30.061566 306.0314 28.924059 302.583647 27.867084 299.100661 C 26.810108 295.622709 25.843731 292.119591 24.957885 288.591307 C 24.077072 285.063022 23.276791 281.514605 22.567107 277.951088 C 21.862457 274.382538 21.238338 270.798888 20.704817 267.205172 C 20.171296 263.606423 19.728373 259.997607 19.371015 256.378725 C 19.013657 252.759842 18.746896 249.135927 18.565701 245.501945 C 18.389538 241.872996 18.29894 238.233981 18.29894 234.599999 C 18.29894 230.966017 18.389538 227.327002 18.565701 223.698054 C 18.746896 220.064072 19.013657 216.440156 19.371015 212.821274 C 19.728373 209.202392 20.171296 205.593576 20.704817 201.994826 C 21.238338 198.40111 21.862457 194.817461 22.567107 191.24891 C 23.276791 187.685394 24.077072 184.136976 24.957885 180.608692 C 25.843731 177.080408 26.810108 173.577289 27.867084 170.099337 C 28.924059 166.616352 30.061566 163.168599 31.28967 159.740979 C 32.512742 156.318392 33.821378 152.926004 35.215579 149.568849 C 36.604746 146.206661 38.079479 142.884739 39.634742 139.598049 C 41.190006 136.311359 42.820768 133.064934 44.537095 129.853743 C 46.253421 126.647584 48.045246 123.486724 49.912569 120.36613 C 51.779893 117.245537 53.727747 114.175275 55.746067 111.150312 C 57.769419 108.130383 59.863237 105.155752 62.02752 102.236487 C 64.191803 99.317221 66.431584 96.448288 68.736797 93.639754 C 71.04201 90.826186 73.417688 88.073017 75.858798 85.380247 C 78.30494 82.687476 80.811482 80.050071 83.378422 77.483131 C 85.950395 74.911157 88.582767 72.404616 91.280571 69.958473 C 93.973342 67.517363 96.726511 65.141685 99.540078 62.836472 C 102.348613 60.531259 105.212513 58.291478 108.136811 56.127196 C 111.056077 53.962913 114.030707 51.869095 117.050637 49.845742 C 120.075599 47.827422 123.145861 45.884601 126.266455 44.012245 C 129.387049 42.144922 132.547909 40.353097 135.754067 38.63677 C 138.960226 36.920444 142.211683 35.289682 145.498373 33.734418 C 148.785063 32.179154 152.106986 30.704422 155.469174 29.315254 C 158.826329 27.921053 162.218716 26.612417 165.641303 25.389346 C 169.068923 24.166274 172.516676 23.023734 175.999662 21.966759 C 179.477614 20.909784 182.980732 19.943406 186.509017 19.05756 C 190.037301 18.176747 193.585718 17.376466 197.149235 16.671816 C 200.717785 15.962132 204.301435 15.338014 207.895151 14.804493 C 211.4939 14.270972 215.102716 13.828049 218.721599 13.47069 C 222.340481 13.113332 225.964396 12.846572 229.598378 12.665376 C 233.227327 12.489213 236.861309 12.398616 240.500324 12.398616 C 244.134306 12.398616 247.768288 12.489213 251.40227 12.665376 C 255.036252 12.846572 258.660167 13.113332 262.279049 13.47069 C 265.897931 13.828049 269.506747 14.270972 273.105497 14.804493 C 276.699213 15.338014 280.282863 15.962132 283.851413 16.671816 C 287.41493 17.376466 290.963347 18.176747 294.491631 19.05756 C 298.019916 19.943406 301.523034 20.909784 305.000986 21.966759 C 308.478938 23.023734 311.931724 24.166274 315.359344 25.389346 C 318.781931 26.612417 322.174319 27.921053 325.531474 29.315254 C 328.893662 30.704422 332.215585 32.179154 335.502275 33.734418 C 338.788965 35.289682 342.035389 36.920444 345.246581 38.63677 C 348.452739 40.353097 351.613599 42.144922 354.734193 44.012245 C 357.854787 45.884601 360.925048 47.827422 363.950011 49.845742 C 366.969941 51.869095 369.944571 53.962913 372.863837 56.127196 C 375.783102 58.291478 378.652035 60.531259 381.460569 62.836472 C 384.274137 65.141685 387.027306 67.517363 389.720077 69.958473 C 392.412847 72.404616 395.045219 74.911157 397.617192 77.483131 C 400.189166 80.050071 402.695707 82.687476 405.136817 85.380247 C 407.58296 88.073017 409.953605 90.826186 412.263851 93.639754 C 414.569064 96.448288 416.808845 99.317221 418.973128 102.236487 C 421.137411 105.155752 423.231228 108.130383 425.254581 111.150312 C 427.272901 114.175275 429.215722 117.245537 431.088078 120.36613 C 432.955402 123.486724 434.747226 126.647584 436.463553 129.853743 C 438.174846 133.064934 439.810642 136.311359 441.365905 139.598049 C 442.921169 142.884739 444.395901 146.206661 445.785069 149.568849 C 447.17927 152.926004 448.487906 156.318392 449.710977 159.740979 C 450.934049 163.168599 452.076589 166.616352 453.133564 170.099337 C 454.185506 173.577289 455.156917 177.080408 456.042763 180.608692 C 456.923576 184.136976 457.718824 187.685394 458.428507 191.24891 C 459.138191 194.817461 459.76231 198.40111 460.29583 201.994826 C 460.829351 205.593576 461.272274 209.202392 461.629633 212.821274 C 461.986991 216.440156 462.253751 220.064072 462.429914 223.698054 C 462.61111 227.327002 462.701708 230.966017 462.701708 234.599999 Z M 462.701708 234.599999 " stroke="#4267b2" stroke-width="1" stroke-opacity="1" stroke-miterlimit="10"/></g><path fill="#ffffff" d="M 227.902344 65.816406 C 214.164062 68.296875 209.429688 70.628906 201.515625 75.128906 C 193.054688 79.941406 187.15625 84.984375 183.121094 89.097656 C 169.929688 102.757812 166.980469 115.484375 164.496094 125.339844 C 160.769531 139.855469 161.160156 153.515625 161.160156 153.515625 L 161.160156 164.144531 L 133.453125 164.144531 L 133.453125 212.339844 L 161.160156 212.339844 L 161.160156 357.859375 C 169.695312 359.179688 178.464844 359.878906 187.390625 359.878906 C 200.582031 359.878906 213.46875 358.402344 225.808594 355.609375 L 225.808594 212.339844 L 267.949219 212.339844 L 267.949219 164.144531 L 225.808594 164.144531 L 225.808594 153.902344 C 225.808594 153.902344 225.808594 152.039062 225.808594 151.804688 C 225.808594 151.574219 225.808594 151.261719 225.808594 151.03125 C 225.808594 148.933594 225.882812 145.832031 226.351562 143.113281 C 227.515625 136.050781 229.921875 130.542969 233.957031 125.652344 C 238.613281 120.0625 244.046875 117.660156 250.097656 116.726562 C 265.078125 114.398438 277.574219 119.597656 277.574219 119.597656 L 279.902344 68.917969 C 279.902344 68.917969 270.511719 65.894531 254.988281 64.804688 C 244.046875 64.03125 234.34375 64.652344 227.902344 65.816406 Z M 227.902344 65.816406 " fill-opacity="1" fill-rule="nonzero"/><g clip-path="url(#3da7759b08)"><path stroke-linecap="butt" transform="matrix(0.776094, 0, 0, 0.776094, 0.739704, 5.279849)" fill="none" stroke-linejoin="miter" d="M 292.699806 78.001552 C 274.997986 81.197644 268.897728 84.202474 258.700433 90.000739 C 247.798487 96.201661 240.198331 102.699543 234.999019 107.999519 C 218.001849 125.600675 214.201771 141.998893 211.000645 154.697696 C 206.198957 173.401127 206.702279 191.002283 206.702279 191.002283 L 206.702279 204.697663 L 171.001678 204.697663 L 171.001678 266.797482 L 206.702279 266.797482 L 206.702279 454.299875 C 217.699856 456.001102 228.999425 456.902047 240.500324 456.902047 C 257.497494 456.902047 274.102073 454.999492 290.002003 451.400742 L 290.002003 266.797482 L 344.300336 266.797482 L 344.300336 204.697663 L 290.002003 204.697663 L 290.002003 191.500571 C 290.002003 191.500571 290.002003 189.099727 290.002003 188.797734 C 290.002003 188.500775 290.002003 188.098117 290.002003 187.801158 C 290.002003 185.098321 290.097634 181.101947 290.70162 177.598829 C 292.201518 168.498774 295.301979 161.40194 300.501291 155.100354 C 306.500884 147.897822 313.502088 144.802394 321.298539 143.599455 C 340.600922 140.599659 356.70218 147.298869 356.70218 147.298869 L 359.701977 81.997925 C 359.701977 81.997925 347.602126 78.102216 327.600126 76.697949 C 313.502088 75.701372 300.999579 76.501654 292.699806 78.001552 Z M 292.699806 78.001552 " stroke="#ffffff" stroke-width="1" stroke-opacity="1" stroke-miterlimit="10"/></g></svg>