<svg xmlns="http://www.w3.org/2000/svg" xmlns:xlink="http://www.w3.org/1999/xlink" width="500" zoomAndPan="magnify" viewBox="0 0 375 374.999991" height="500" preserveAspectRatio="xMidYMid meet" version="1.0"><defs><clipPath id="08ffd60460"><path d="M 149 286 L 232 286 L 232 370.929688 L 149 370.929688 Z M 149 286 " clip-rule="nonzero"/></clipPath><clipPath id="c384eb15f2"><path d="M 21.8125 4.179688 L 353.476562 4.179688 L 353.476562 362 L 21.8125 362 Z M 21.8125 4.179688 " clip-rule="nonzero"/></clipPath></defs><path fill="#f6b737" d="M 285.25 169.316406 C 279.964844 192.488281 268.035156 211.972656 252.4375 229.601562 C 244.492188 238.585938 236.230469 247.480469 230.519531 258.117188 C 227.539062 263.671875 225.363281 269.625 224.003906 275.777344 C 222.644531 281.929688 222.976562 288.082031 222.0625 294.246094 C 220.5 304.757812 210.515625 306.472656 201.507812 306.417969 C 188.753906 306.335938 175.976562 305.050781 163.457031 302.617188 C 162.375 303.035156 160.898438 302.699219 160.703125 301.382812 C 159.808594 295.417969 158.941406 289.445312 157.746094 283.53125 C 155.28125 271.335938 151.246094 259.558594 143.5 249.660156 C 136.570312 240.800781 127.910156 233.496094 120.359375 225.195312 C 105.816406 209.207031 97.429688 188.488281 95.652344 167.023438 C 94.039062 147.527344 97.96875 127.148438 108.261719 110.367188 C 119.230469 92.492188 136.960938 80.957031 156.804688 74.96875 C 178.691406 68.371094 203.773438 66.4375 226.394531 69.550781 C 248.132812 72.550781 269.898438 82.96875 280.289062 103.242188 C 290.484375 123.136719 290.105469 147.996094 285.25 169.316406 " fill-opacity="1" fill-rule="nonzero"/><path fill="#f59a3d" d="M 221.941406 240.421875 C 213.910156 237.574219 212.542969 226.164062 204.996094 234.542969 C 204.1875 235.441406 197.304688 271.316406 197.734375 272.945312 C 203.949219 296.601562 234.085938 244.722656 221.941406 240.421875 Z M 212.261719 92.992188 C 216.90625 90.335938 232.308594 92.398438 236.035156 86.984375 C 241.964844 78.367188 228.6875 75.03125 222.09375 74.261719 C 202.652344 71.992188 205.238281 97 212.261719 92.992188 Z M 275.09375 129.898438 C 275.140625 159.324219 265.433594 195.300781 245.464844 217.757812 C 239.695312 224.242188 227.988281 235.351562 220.585938 225.140625 C 216.332031 219.28125 222.039062 191.089844 221.804688 184.332031 C 221.199219 166.519531 217.21875 149.566406 215.171875 131.972656 C 213.472656 117.308594 215.601562 112.558594 229.261719 106.675781 C 254.855469 95.648438 275.042969 97.78125 275.09375 129.898438 " fill-opacity="1" fill-rule="nonzero"/><g clip-path="url(#08ffd60460)"><path fill="#c49261" d="M 231.714844 326.46875 C 231.464844 331.953125 228.269531 337.351562 222.957031 338.382812 C 224.84375 343.707031 221.855469 349.410156 217.253906 352.671875 C 217.382812 357.699219 216.085938 362.285156 211.6875 365.71875 C 206.636719 369.660156 199.789062 370.808594 193.539062 370.859375 C 184.65625 370.925781 165.5625 366.699219 166.390625 355.058594 C 163.351562 354.300781 160.355469 353.183594 158.109375 351.058594 C 155.792969 348.867188 154.671875 345.746094 155.980469 342.699219 C 156.847656 340.679688 158.398438 339.328125 160.191406 338.304688 C 154.929688 335.902344 150.636719 331.710938 149.832031 325.597656 C 149.132812 320.34375 151.921875 315.242188 156.59375 313.179688 C 152.585938 308.425781 148.960938 302.996094 149.699219 296.503906 C 150.179688 292.261719 152.945312 288.609375 156.75 287.21875 C 156.96875 286.839844 157.34375 286.578125 157.855469 286.640625 C 158.121094 286.675781 158.386719 286.707031 158.648438 286.738281 C 159.382812 286.625 160.144531 286.585938 160.929688 286.644531 C 161.402344 286.683594 161.78125 286.867188 162.058594 287.136719 C 170.164062 288.039062 178.292969 288.628906 186.460938 288.554688 C 195.773438 288.472656 204.796875 287.15625 214.023438 286.148438 C 220.144531 285.480469 227.054688 287.066406 228.855469 293.769531 C 230.4375 299.652344 228.773438 305.765625 225.433594 310.667969 C 229.808594 314.640625 231.984375 320.515625 231.714844 326.46875 " fill-opacity="1" fill-rule="nonzero"/></g><g clip-path="url(#c384eb15f2)"><path fill="#2e2e30" d="M 214.378906 353.988281 C 208.042969 358.339844 201.039062 358.714844 193.566406 358.699219 C 185.277344 358.6875 177.671875 357.546875 169.683594 355.4375 C 168.507812 355.125 167.699219 356.859375 168.835938 357.445312 C 176.65625 361.480469 186.378906 361.515625 194.972656 361.589844 C 202.128906 361.652344 210.628906 361.535156 215.964844 356.039062 C 216.960938 355.011719 215.640625 353.121094 214.378906 353.988281 Z M 219.257812 337.101562 C 214.914062 337.691406 210.660156 339.34375 206.320312 340.144531 C 201.617188 341.007812 196.851562 341.503906 192.070312 341.648438 C 182.796875 341.921875 173.652344 340.648438 164.652344 338.496094 C 163.070312 338.117188 162.421875 340.457031 163.980469 340.929688 C 173.308594 343.746094 183.074219 344.902344 192.808594 344.707031 C 201.519531 344.535156 212.566406 343.914062 220.414062 339.839844 C 222.058594 338.984375 220.800781 336.890625 219.257812 337.101562 Z M 192.160156 317.4375 C 201.144531 316.996094 212.132812 316.585938 220.402344 312.796875 C 221.527344 312.277344 220.976562 310.363281 219.765625 310.453125 C 215.410156 310.773438 211.105469 312.183594 206.785156 312.898438 C 201.695312 313.742188 196.558594 314.320312 191.402344 314.554688 C 181.714844 314.988281 172.390625 313.664062 162.773438 313.046875 C 161.414062 312.957031 161.175781 315.046875 162.457031 315.390625 C 171.875 317.921875 182.488281 317.914062 192.160156 317.4375 Z M 238.230469 165.726562 C 238.070312 164.929688 237.007812 164.371094 235.382812 164.234375 C 235.152344 164.210938 234.921875 164.199219 234.6875 164.199219 C 231.023438 164.199219 227.3125 166.613281 224.796875 169.113281 C 226.570312 169.730469 228.40625 170.050781 230.167969 170.050781 C 232.21875 170.050781 234.070312 169.625 235.675781 168.777344 C 237.65625 167.730469 238.386719 166.488281 238.230469 165.726562 Z M 216.3125 169.929688 L 216.183594 169.882812 L 216.089844 169.804688 C 215.019531 168.894531 214.019531 167.878906 213.117188 166.792969 C 211.554688 164.921875 210.210938 162.757812 209.121094 160.347656 C 206.382812 162.222656 203.265625 163.210938 200.046875 163.210938 C 194.996094 163.210938 190.183594 160.742188 186.984375 156.558594 C 183.242188 161.269531 178.703125 163.851562 174.109375 163.851562 C 172.433594 163.851562 170.753906 163.507812 169.101562 162.824219 C 168.503906 166.058594 167.753906 168.671875 166.773438 170.996094 C 166.570312 171.464844 166.242188 172.035156 165.890625 172.640625 C 165.417969 173.449219 164.632812 174.804688 164.6875 175.273438 C 164.761719 175.941406 166.0625 177.453125 167.007812 178.554688 C 167.835938 179.519531 168.613281 180.429688 169.011719 181.160156 C 170.148438 183.265625 171.144531 185.679688 172.050781 188.542969 C 175.441406 199.277344 176.011719 210.917969 176.277344 220.988281 C 176.566406 231.972656 176.285156 243.152344 176.011719 253.972656 C 175.945312 256.496094 175.882812 259.015625 175.828125 261.535156 C 175.6875 267.832031 175.496094 274.382812 175.269531 281.003906 C 175.257812 281.382812 175.273438 282.066406 175.292969 282.929688 C 175.3125 283.90625 175.332031 284.878906 175.332031 285.835938 C 180.507812 286.097656 185.679688 286.316406 190.898438 286.191406 C 197.292969 286.042969 203.601562 285.453125 209.917969 284.773438 C 209.386719 281.898438 209.289062 278.09375 209.273438 274.242188 C 209.273438 273.152344 209.269531 272.210938 209.234375 271.648438 C 208.492188 259.300781 208.488281 245.953125 209.21875 229.640625 C 209.359375 226.605469 209.472656 223.554688 209.589844 220.496094 C 209.96875 210.539062 210.359375 200.246094 211.492188 190.265625 C 211.910156 186.597656 212.417969 183.648438 213.09375 180.984375 C 213.308594 180.140625 213.78125 178.90625 214.320312 177.476562 C 215.105469 175.421875 216.9375 170.609375 216.3125 169.929688 Z M 165.46875 153.792969 C 165.515625 153.464844 165.566406 153.121094 165.617188 152.765625 C 166.273438 148.265625 167.269531 141.460938 165.40625 138.25 C 164.816406 137.222656 163.964844 136.609375 163.144531 136.609375 C 162.535156 136.609375 161.9375 136.933594 161.359375 137.570312 C 160.101562 138.953125 160.882812 142.046875 161.347656 143.894531 L 161.445312 144.292969 C 162.433594 148.257812 163.753906 151.386719 165.46875 153.792969 Z M 187.648438 146.503906 C 189.195312 143.925781 190.886719 140.882812 191.171875 138.082031 C 191.296875 136.859375 190.859375 134.855469 190.089844 134.007812 C 189.90625 133.800781 189.726562 133.699219 189.558594 133.699219 C 189.398438 133.699219 188.945312 133.800781 188.246094 134.757812 C 186.03125 137.777344 186.582031 142.554688 187.648438 146.503906 Z M 211.496094 151.074219 C 215.234375 146.289062 216.894531 142.460938 216.429688 139.6875 C 216.152344 138.023438 214.664062 136.566406 213.246094 136.566406 C 212.09375 136.566406 211.496094 137.558594 211.195312 138.394531 C 210.1875 141.1875 210.292969 145.453125 211.496094 151.074219 Z M 156.449219 175.804688 C 155.5 175.476562 154.503906 175.308594 153.511719 175.308594 C 151.648438 175.308594 149.996094 175.898438 148.777344 176.980469 C 149.625 177.382812 150.519531 177.585938 151.445312 177.585938 C 153.371094 177.585938 155.117188 176.730469 156.449219 175.804688 Z M 242.957031 164.964844 C 243.394531 168.574219 240.640625 173.199219 234.6875 174.648438 C 233.386719 174.964844 231.976562 175.125 230.492188 175.125 C 229.550781 175.125 228.566406 175.0625 227.574219 174.933594 C 226.960938 174.851562 225.953125 174.472656 224.78125 174.035156 C 223.640625 173.605469 222.070312 173.019531 221.503906 173.019531 C 220.21875 173.382812 218.433594 176.351562 217.121094 188.425781 L 217.035156 189.164062 C 213.785156 217.316406 212.929688 245.816406 214.492188 273.878906 C 214.503906 274.167969 214.585938 274.8125 214.683594 275.628906 C 215.039062 278.574219 215.363281 281.648438 215.367188 284.167969 C 216.472656 284.042969 217.574219 283.921875 218.683594 283.796875 C 220.425781 283.605469 220.789062 286.523438 219.09375 286.835938 C 209.863281 288.554688 200.269531 289.09375 190.898438 289.273438 C 181.582031 289.449219 171.886719 289.390625 162.695312 287.757812 C 161.253906 287.5 161.621094 285.203125 163.03125 285.25 C 165.300781 285.320312 167.5625 285.429688 169.820312 285.546875 C 169.832031 280.914062 170.132812 274.496094 170.699219 265.816406 C 170.855469 263.480469 170.972656 261.632812 170.988281 260.835938 C 171.179688 250.15625 171.351562 237.558594 171.175781 225.105469 C 171.027344 214.523438 170.464844 203.238281 167.351562 192.445312 C 167.25 192.097656 167.132812 191.660156 167 191.15625 C 166.148438 188.007812 164.164062 180.640625 161.597656 179.5625 C 161.59375 179.558594 161.542969 179.539062 161.414062 179.539062 C 160.652344 179.539062 159.085938 180.1875 157.570312 180.820312 C 155.375 181.730469 152.890625 182.761719 150.9375 182.761719 C 150.792969 182.761719 150.65625 182.753906 150.519531 182.742188 C 147.699219 182.519531 144.019531 181.355469 142.945312 178.820312 C 142.5 177.777344 142.347656 176.074219 144.144531 173.890625 C 146.222656 171.371094 149.398438 169.980469 153.089844 169.980469 C 153.480469 169.980469 153.875 169.996094 154.265625 170.03125 C 155.121094 170.097656 156.144531 170.507812 157.132812 170.90625 C 158.066406 171.28125 159.035156 171.667969 159.628906 171.667969 C 159.667969 171.667969 159.703125 171.667969 159.738281 171.664062 C 160.941406 171.527344 161.636719 169.777344 162.308594 168.085938 L 162.703125 167.101562 C 163.34375 165.519531 164.222656 163.351562 164.222656 161.808594 C 164.226562 159.785156 163.8125 159.289062 162.808594 158.105469 C 162.429688 157.65625 162 157.148438 161.503906 156.453125 C 158.664062 152.496094 154.28125 142.496094 156.496094 136.222656 C 157.355469 133.78125 159.105469 132.179688 161.695312 131.464844 C 162.480469 131.246094 163.234375 131.132812 163.933594 131.132812 C 165.601562 131.132812 167.011719 131.742188 168.128906 132.9375 C 171.371094 136.417969 171.222656 143.996094 171.011719 147.09375 C 170.960938 147.820312 170.726562 149.074219 170.453125 150.523438 C 170.050781 152.652344 169.21875 157.078125 169.671875 157.796875 C 170.457031 158.914062 171.980469 159.148438 173.121094 159.148438 C 175.363281 159.148438 178.050781 158.238281 179.351562 157.363281 C 180.929688 156.296875 182.808594 154.585938 183.4375 153.175781 C 184.148438 151.570312 183.828125 150.511719 183.339844 148.914062 C 183.140625 148.246094 182.910156 147.496094 182.738281 146.617188 C 181.621094 140.875 181.996094 136.339844 183.855469 133.136719 C 185.195312 130.824219 187.824219 128.492188 190.671875 128.492188 C 191.777344 128.492188 192.824219 128.839844 193.773438 129.519531 C 197.933594 132.480469 196.429688 138.835938 195.589844 141.429688 C 195.210938 142.613281 194.089844 144.347656 192.902344 146.1875 C 191.554688 148.273438 189.710938 151.128906 189.804688 152.199219 C 190.003906 154.414062 194.738281 157.324219 197.125 157.992188 C 197.886719 158.207031 198.878906 158.324219 199.917969 158.324219 C 203.15625 158.324219 206.835938 157.238281 207.261719 154.851562 C 207.535156 153.28125 206.957031 151.089844 206.398438 148.972656 C 205.917969 147.148438 205.417969 145.261719 205.417969 143.617188 C 205.417969 140.972656 206.289062 137.933594 207.75 135.484375 C 209.433594 132.660156 211.601562 131.109375 213.851562 131.109375 C 215.894531 131.109375 217.835938 132.355469 219.636719 134.8125 C 222.179688 138.289062 222.019531 143.078125 219.175781 148.660156 L 215.601562 154.089844 C 215.226562 154.5625 214.890625 154.949219 214.601562 155.273438 C 213.375 156.6875 213.300781 156.769531 214.191406 159.183594 C 215.007812 161.390625 216.847656 163.527344 217.871094 164.609375 C 218.453125 165.21875 219.425781 166.242188 219.753906 166.242188 C 219.910156 166.242188 220.265625 166 220.675781 165.71875 C 221.003906 165.496094 221.390625 165.230469 221.878906 164.941406 C 222.847656 164.367188 223.738281 163.757812 224.601562 163.167969 C 227.097656 161.460938 229.460938 159.847656 233.070312 159.378906 C 233.761719 159.289062 234.441406 159.246094 235.085938 159.246094 C 240.382812 159.246094 242.625 162.199219 242.957031 164.964844 Z M 311.328125 259.320312 C 306.082031 254.980469 300.398438 251.199219 295.171875 246.824219 C 290.164062 242.636719 285.625 237.785156 280.363281 233.917969 C 278.695312 232.6875 276.347656 235.105469 277.507812 236.773438 C 281.363281 242.28125 286.820312 246.753906 292 250.988281 C 297.230469 255.261719 302.695312 259.621094 308.726562 262.691406 C 310.773438 263.726562 313.308594 260.960938 311.328125 259.320312 Z M 352.34375 209.796875 C 345.691406 204.941406 338.152344 201.207031 330.871094 197.398438 C 324.191406 193.902344 316.578125 188.757812 309.058594 187.5625 C 307.015625 187.234375 304.894531 189.734375 306.8125 191.414062 C 312.578125 196.484375 320.960938 199.230469 327.769531 202.695312 C 335.132812 206.4375 342.3125 210.71875 349.910156 213.957031 C 352.753906 215.167969 354.886719 211.652344 352.34375 209.796875 Z M 313.421875 111.769531 C 319.835938 110.738281 326.128906 108.503906 332.359375 106.691406 C 338.589844 104.878906 345.089844 103.359375 351.109375 100.929688 C 353.789062 99.851562 352.8125 96.0625 349.910156 96.582031 C 343.269531 97.769531 336.703125 100.03125 330.222656 101.890625 C 324.023438 103.664062 317.636719 105.15625 311.691406 107.675781 C 309.171875 108.742188 311.132812 112.136719 313.421875 111.769531 Z M 291.730469 29.070312 C 293.34375 26.824219 289.671875 24.773438 288.046875 26.921875 C 283.484375 32.960938 278.8125 38.925781 274.027344 44.796875 C 269.683594 50.121094 264.785156 55.203125 260.941406 60.902344 C 259.550781 62.964844 262.558594 65.027344 264.265625 63.464844 C 269.71875 58.476562 274.25 52.09375 278.800781 46.292969 C 283.230469 40.640625 287.53125 34.894531 291.730469 29.070312 Z M 190.898438 50.109375 C 191.8125 43.015625 190.617188 35.316406 190.46875 28.160156 C 190.308594 20.839844 190.378906 13.519531 190.316406 6.199219 C 190.292969 3.480469 186.324219 3.535156 186.128906 6.199219 C 185.578125 13.761719 185.46875 21.363281 185.503906 28.945312 C 185.535156 35.960938 184.992188 43.832031 186.6875 50.679688 C 187.3125 53.222656 190.613281 52.339844 190.898438 50.109375 Z M 92.164062 59.5625 C 87.742188 53.75 83.542969 47.410156 78.523438 42.097656 C 76.800781 40.277344 73.78125 42.617188 75.0625 44.765625 C 78.960938 51.3125 84.136719 57.328125 88.714844 63.410156 C 93.070312 69.195312 97.179688 75.792969 102.398438 80.835938 C 104.171875 82.550781 106.933594 80.382812 105.78125 78.226562 C 102.214844 71.574219 96.730469 65.554688 92.164062 59.5625 Z M 65.699219 138.464844 C 70.582031 139.082031 75.722656 140.09375 80.648438 139.652344 C 83.304688 139.410156 84.003906 135.757812 81.292969 134.902344 C 77.066406 133.570312 72.4375 133.355469 68.058594 132.8125 C 62.820312 132.164062 57.582031 131.476562 52.355469 130.742188 C 42.976562 129.425781 33.628906 127.664062 24.214844 126.628906 C 21.410156 126.320312 20.894531 130.820312 23.554688 131.492188 C 32.980469 133.882812 42.746094 135.21875 52.359375 136.640625 C 56.796875 137.300781 61.246094 137.90625 65.699219 138.464844 Z M 88.054688 218.230469 C 81.964844 222.398438 75.179688 225.574219 68.824219 229.324219 C 62.933594 232.796875 56.976562 237.894531 50.570312 240.21875 C 48.429688 240.996094 47.21875 238.125 48.503906 236.671875 C 50.894531 233.972656 54.324219 232.144531 57.339844 230.210938 C 60.457031 228.210938 63.605469 226.265625 66.792969 224.382812 C 73.078125 220.679688 79.496094 216.757812 86.417969 214.351562 C 88.828125 213.511719 89.914062 216.953125 88.054688 218.230469 " fill-opacity="1" fill-rule="nonzero"/></g><path fill="#ffffff" d="M 124.054688 192.992188 C 122.945312 189.835938 122.53125 186.59375 120.734375 183.742188 C 120.296875 183.039062 119.234375 183.171875 118.992188 183.96875 C 116.992188 190.523438 119.882812 198.457031 123.171875 204.171875 C 125.871094 208.867188 130.152344 216.519531 136.027344 217.195312 C 136.75 217.273438 137.40625 216.5 137.390625 215.832031 C 137.257812 210.546875 131.339844 206.121094 128.636719 201.941406 C 126.8125 199.136719 125.167969 196.152344 124.054688 192.992188 Z M 143.160156 109.9375 C 135.234375 114.792969 129.597656 122.632812 126.15625 131.160156 C 122.039062 141.363281 122.371094 152.0625 119.875 162.570312 C 119.292969 165.027344 115.117188 165.238281 114.683594 162.570312 C 112.84375 151.125 115.605469 137.871094 120.195312 127.347656 C 124.34375 117.839844 131.136719 109.980469 140.316406 105.070312 C 143.515625 103.359375 146.257812 108.039062 143.160156 109.9375 " fill-opacity="1" fill-rule="nonzero"/></svg>