<svg xmlns="http://www.w3.org/2000/svg" xmlns:xlink="http://www.w3.org/1999/xlink" width="500" zoomAndPan="magnify" viewBox="0 0 375 374.999991" height="500" preserveAspectRatio="xMidYMid meet" version="1.0"><defs><clipPath id="697e0defa0"><path d="M 207.050781 87 L 302 87 L 302 181.859375 L 207.050781 181.859375 Z M 207.050781 87 " clip-rule="nonzero"/></clipPath><clipPath id="ef4b97760c"><path d="M 291 75 L 342.050781 75 L 342.050781 127 L 291 127 Z M 291 75 " clip-rule="nonzero"/></clipPath><clipPath id="b332e48f35"><path d="M 141 173.886719 L 234 173.886719 L 234 274 L 141 274 Z M 141 173.886719 " clip-rule="nonzero"/></clipPath><clipPath id="25ebe9a655"><path d="M 100.355469 273 L 274.355469 273 L 274.355469 365.136719 L 100.355469 365.136719 Z M 100.355469 273 " clip-rule="nonzero"/></clipPath></defs><g clip-path="url(#697e0defa0)"><path fill="#ffffff" d="M 299.757812 127.097656 L 290.511719 124.101562 C 289.761719 121.101562 288.511719 118.351562 287.011719 115.605469 L 291.511719 106.859375 C 292.011719 106.109375 291.761719 105.359375 291.261719 104.609375 L 283.515625 97.113281 C 283.015625 96.613281 282.015625 96.363281 281.265625 96.863281 L 272.519531 101.359375 C 269.769531 99.859375 267.023438 98.613281 264.273438 97.863281 L 261.273438 88.367188 C 261.023438 87.617188 260.273438 87.117188 259.527344 87.117188 L 248.53125 87.117188 C 247.78125 87.117188 247.03125 87.617188 246.78125 88.367188 L 243.78125 97.863281 C 240.785156 98.613281 238.035156 99.859375 235.535156 101.359375 L 226.789062 96.863281 C 226.039062 96.363281 225.292969 96.613281 224.542969 97.113281 L 216.796875 104.859375 C 216.296875 105.359375 216.046875 106.359375 216.546875 107.109375 L 221.042969 115.855469 C 219.542969 118.601562 218.292969 121.351562 217.546875 124.351562 L 208.300781 127.097656 C 207.550781 127.347656 207.050781 128.097656 207.050781 128.847656 L 207.050781 139.84375 C 207.050781 140.59375 207.550781 141.34375 208.300781 141.59375 L 217.546875 144.589844 C 218.292969 147.589844 219.542969 150.339844 221.042969 153.085938 L 216.546875 161.582031 C 216.046875 162.332031 216.296875 163.082031 216.796875 163.832031 L 224.542969 171.578125 C 225.042969 172.078125 226.039062 172.328125 226.789062 171.828125 L 235.285156 167.332031 C 238.035156 168.828125 240.785156 170.078125 243.78125 170.828125 L 246.78125 180.074219 C 247.03125 180.824219 247.78125 181.324219 248.53125 181.324219 L 259.527344 181.324219 C 260.273438 181.324219 261.023438 180.824219 261.273438 180.074219 L 264.273438 170.828125 C 267.273438 170.078125 270.019531 168.828125 272.769531 167.332031 L 281.265625 171.828125 C 282.015625 172.328125 282.765625 172.078125 283.515625 171.578125 L 291.261719 163.832031 C 291.761719 163.332031 292.011719 162.332031 291.511719 161.582031 L 287.011719 153.085938 C 288.511719 150.339844 289.761719 147.589844 290.511719 144.589844 L 299.757812 141.59375 C 300.507812 141.34375 301.007812 140.59375 301.007812 139.84375 L 301.007812 128.847656 C 301.007812 128.097656 300.507812 127.347656 299.757812 127.097656 Z M 297.257812 138.34375 L 288.261719 141.09375 C 287.761719 141.34375 287.261719 141.84375 287.011719 142.339844 C 286.261719 145.589844 284.765625 148.839844 283.265625 151.835938 C 283.015625 152.335938 283.015625 153.085938 283.265625 153.585938 L 287.511719 161.832031 L 281.765625 167.578125 L 273.519531 163.332031 C 273.019531 163.082031 272.269531 163.082031 271.769531 163.332031 C 268.769531 165.082031 265.773438 166.332031 262.273438 167.332031 C 261.523438 167.578125 261.023438 168.078125 261.023438 168.578125 L 258.277344 177.574219 L 250.03125 177.574219 L 247.03125 168.828125 C 246.78125 168.328125 246.28125 167.828125 245.78125 167.578125 C 242.535156 166.832031 239.285156 165.332031 236.285156 163.582031 C 235.785156 163.332031 235.035156 163.332031 234.535156 163.582031 L 226.289062 167.828125 L 220.542969 162.082031 L 224.792969 153.835938 C 225.042969 153.335938 225.042969 152.585938 224.792969 152.085938 C 223.042969 149.089844 221.792969 146.089844 221.042969 142.589844 C 220.792969 141.84375 220.292969 141.34375 219.792969 141.34375 L 210.796875 138.59375 L 210.796875 130.347656 L 219.792969 127.597656 C 220.292969 127.347656 220.792969 126.847656 221.042969 126.347656 C 221.792969 123.101562 223.292969 119.851562 224.792969 117.101562 C 225.042969 116.605469 225.042969 115.855469 224.792969 115.355469 L 220.292969 106.859375 L 226.042969 101.109375 L 234.535156 105.609375 C 235.035156 105.859375 235.785156 105.859375 236.285156 105.609375 C 239.035156 103.859375 242.285156 102.609375 245.53125 101.859375 C 246.28125 101.609375 246.78125 101.109375 246.78125 100.609375 L 249.53125 91.613281 L 257.777344 91.613281 L 260.523438 100.609375 C 260.773438 101.109375 261.273438 101.609375 261.773438 101.859375 C 265.023438 102.609375 268.273438 103.859375 271.019531 105.609375 C 271.519531 105.859375 272.269531 105.859375 272.769531 105.609375 L 281.265625 101.109375 L 287.011719 106.859375 L 282.515625 115.355469 C 282.265625 115.855469 282.265625 116.605469 282.515625 117.101562 C 284.265625 120.101562 285.511719 123.101562 286.261719 126.347656 C 286.511719 127.097656 287.011719 127.597656 287.511719 127.597656 L 296.507812 130.347656 L 296.507812 138.34375 Z M 297.257812 138.34375 " fill-opacity="1" fill-rule="nonzero"/></g><path fill="#ffffff" d="M 254.027344 108.605469 C 239.785156 108.605469 228.289062 120.101562 228.289062 134.34375 C 228.289062 148.589844 239.785156 160.082031 254.027344 160.082031 C 268.273438 160.082031 279.765625 148.589844 279.765625 134.34375 C 279.765625 120.351562 268.273438 108.605469 254.027344 108.605469 Z M 254.027344 156.335938 C 241.785156 156.335938 232.039062 146.589844 232.039062 134.34375 C 232.039062 122.101562 241.785156 112.355469 254.027344 112.355469 C 266.273438 112.355469 276.019531 122.101562 276.019531 134.34375 C 276.019531 146.589844 266.023438 156.335938 254.027344 156.335938 Z M 254.027344 156.335938 " fill-opacity="1" fill-rule="nonzero"/><path fill="#ffffff" d="M 245.78125 62.378906 L 251.03125 65.378906 C 251.03125 67.125 251.28125 69.125 251.777344 70.875 L 247.78125 75.371094 C 247.28125 75.871094 247.28125 76.871094 247.53125 77.621094 L 251.28125 83.617188 C 251.777344 84.367188 252.527344 84.617188 253.277344 84.367188 L 259.027344 82.871094 C 260.273438 84.117188 261.773438 85.117188 263.523438 86.117188 L 264.023438 92.113281 C 264.023438 92.863281 264.773438 93.613281 265.523438 93.863281 L 272.519531 95.613281 L 273.019531 95.613281 C 273.769531 95.613281 274.269531 95.363281 274.519531 94.613281 L 277.515625 89.367188 C 279.265625 89.367188 281.265625 89.117188 283.015625 88.617188 L 287.511719 92.613281 C 288.011719 93.113281 289.011719 93.113281 289.761719 92.863281 L 295.757812 89.117188 C 296.507812 88.617188 296.757812 87.867188 296.507812 87.117188 L 295.007812 81.371094 C 296.257812 80.121094 297.257812 78.621094 298.257812 76.871094 L 304.253906 76.371094 C 305.003906 76.371094 305.753906 75.621094 306.003906 74.871094 L 307.753906 67.875 C 308.003906 67.125 307.503906 66.125 307.003906 65.878906 L 301.757812 62.628906 C 301.757812 60.878906 301.507812 59.128906 301.007812 57.382812 L 305.003906 52.882812 C 305.503906 52.382812 305.503906 51.382812 305.253906 50.632812 L 301.507812 44.636719 C 301.007812 43.886719 300.257812 43.636719 299.507812 43.886719 L 293.511719 45.386719 C 292.261719 44.136719 290.761719 43.136719 289.261719 42.136719 L 288.761719 36.140625 C 288.761719 35.390625 288.011719 34.640625 287.261719 34.390625 L 280.265625 32.640625 C 279.515625 32.390625 278.515625 32.890625 278.265625 33.390625 L 275.019531 38.640625 C 273.269531 38.640625 271.519531 38.890625 269.769531 39.390625 L 265.273438 35.390625 C 264.773438 34.890625 263.773438 34.890625 263.023438 35.140625 L 257.027344 39.140625 C 256.277344 39.640625 256.027344 40.390625 256.277344 41.136719 L 257.527344 47.136719 C 256.277344 48.386719 255.277344 49.882812 254.277344 51.382812 L 248.28125 51.882812 C 247.53125 51.882812 246.78125 52.632812 246.53125 53.382812 L 244.78125 60.378906 C 244.78125 61.128906 245.03125 61.878906 245.78125 62.378906 Z M 250.03125 55.632812 L 255.777344 55.382812 C 256.527344 55.382812 257.027344 54.882812 257.277344 54.382812 C 258.277344 52.382812 259.527344 50.632812 261.023438 49.132812 C 261.523438 48.636719 261.773438 47.886719 261.523438 47.386719 L 260.273438 41.886719 L 264.023438 39.640625 L 268.273438 43.386719 C 268.769531 43.886719 269.519531 43.886719 270.019531 43.886719 C 272.019531 43.136719 274.269531 42.886719 276.269531 42.886719 C 277.015625 42.886719 277.515625 42.636719 277.765625 41.886719 L 280.765625 36.890625 L 285.015625 37.890625 L 285.511719 43.636719 C 285.511719 44.386719 286.011719 44.886719 286.511719 45.136719 C 288.511719 46.136719 290.011719 47.386719 291.761719 48.886719 C 292.011719 49.382812 292.761719 49.632812 293.511719 49.382812 L 299.007812 47.886719 L 301.257812 51.632812 L 297.507812 55.882812 C 297.007812 56.632812 297.007812 57.132812 297.007812 57.878906 C 297.757812 59.878906 298.007812 62.128906 298.007812 64.128906 C 298.007812 64.878906 298.257812 65.378906 299.007812 65.628906 L 304.003906 68.625 L 303.003906 72.875 L 297.257812 73.125 C 296.507812 73.125 296.007812 73.625 295.757812 74.125 C 294.757812 76.121094 293.511719 77.871094 292.011719 79.371094 C 291.511719 79.871094 291.261719 80.621094 291.511719 81.121094 L 292.761719 86.617188 L 289.011719 88.867188 L 284.765625 85.117188 C 284.265625 84.617188 283.515625 84.617188 283.015625 84.617188 C 281.015625 85.367188 278.765625 85.617188 276.519531 85.617188 C 275.769531 85.617188 275.269531 85.867188 275.019531 86.617188 L 272.019531 91.863281 L 267.773438 90.867188 L 267.523438 85.117188 C 267.523438 84.367188 267.023438 83.867188 266.523438 83.617188 C 264.523438 82.621094 262.773438 81.371094 261.273438 79.871094 C 260.773438 79.371094 260.023438 79.121094 259.527344 79.371094 L 254.027344 80.621094 L 251.777344 76.871094 L 255.527344 72.625 C 256.027344 72.125 256.027344 71.375 256.027344 70.875 C 255.277344 68.875 255.027344 66.625 255.027344 64.378906 C 255.027344 63.628906 254.777344 63.128906 254.027344 62.878906 L 249.28125 59.878906 Z M 250.03125 55.632812 " fill-opacity="1" fill-rule="nonzero"/><path fill="#ffffff" d="M 272.269531 81.371094 C 273.519531 81.621094 275.019531 81.871094 276.519531 81.871094 C 284.515625 81.871094 291.511719 76.371094 293.511719 68.625 C 294.507812 64.128906 294.007812 59.378906 291.511719 55.382812 C 289.011719 51.382812 285.261719 48.636719 280.765625 47.386719 C 279.515625 47.136719 278.015625 46.886719 276.519531 46.886719 C 268.519531 46.886719 261.523438 52.382812 259.527344 60.128906 C 258.527344 64.628906 259.027344 69.375 261.523438 73.375 C 264.023438 77.371094 267.773438 80.121094 272.269531 81.371094 Z M 263.023438 61.128906 C 264.523438 54.882812 270.019531 50.632812 276.269531 50.632812 C 277.265625 50.632812 278.515625 50.882812 279.515625 51.132812 C 283.015625 51.882812 286.011719 54.132812 288.011719 57.382812 C 290.011719 60.628906 290.511719 64.128906 289.511719 67.875 C 288.011719 74.125 282.515625 78.371094 276.269531 78.371094 C 275.269531 78.371094 274.019531 78.121094 273.019531 77.871094 C 269.519531 76.871094 266.523438 74.621094 264.523438 71.375 C 262.773438 68.375 262.023438 64.628906 263.023438 61.128906 Z M 263.023438 61.128906 " fill-opacity="1" fill-rule="nonzero"/><g clip-path="url(#ef4b97760c)"><path fill="#ffffff" d="M 340.988281 100.109375 L 336.738281 98.113281 C 336.488281 96.863281 336.238281 95.613281 335.742188 94.363281 L 338.488281 90.617188 C 338.988281 89.867188 338.988281 89.117188 338.488281 88.367188 L 334.992188 83.867188 C 334.492188 83.117188 333.742188 82.871094 332.742188 83.117188 L 328.492188 84.617188 C 327.492188 83.867188 326.246094 83.117188 324.996094 82.621094 L 324.496094 77.871094 C 324.246094 77.121094 323.746094 76.371094 322.996094 76.371094 L 317.25 75.621094 C 316.5 75.621094 315.75 75.871094 315.25 76.621094 L 313.25 80.871094 C 312 81.121094 310.75 81.371094 309.503906 81.871094 L 305.753906 79.121094 C 305.003906 78.621094 304.253906 78.621094 303.503906 79.121094 L 299.007812 82.621094 C 298.257812 83.117188 298.007812 83.867188 298.257812 84.867188 L 299.757812 89.117188 C 299.007812 90.117188 298.257812 91.367188 297.757812 92.613281 L 293.261719 93.363281 C 292.511719 93.613281 291.761719 94.113281 291.761719 94.863281 L 291.011719 100.609375 C 291.011719 101.359375 291.261719 102.109375 292.011719 102.609375 L 296.257812 104.609375 C 296.507812 105.859375 296.757812 107.359375 297.257812 108.605469 L 294.507812 112.105469 C 294.007812 112.855469 294.007812 113.605469 294.507812 114.355469 L 298.007812 118.851562 C 298.507812 119.601562 299.257812 119.851562 300.007812 119.601562 L 304.253906 118.101562 C 305.253906 118.851562 306.503906 119.601562 307.753906 120.101562 L 308.503906 124.601562 C 308.753906 125.347656 309.253906 126.097656 310.003906 126.097656 L 315.75 126.847656 L 316 126.847656 C 316.75 126.847656 317.5 126.347656 317.75 125.847656 L 319.746094 121.601562 C 320.996094 121.351562 322.496094 121.101562 323.746094 120.601562 L 327.492188 123.351562 C 328.242188 123.851562 328.992188 123.851562 329.742188 123.351562 L 334.242188 119.851562 C 334.992188 119.351562 335.242188 118.601562 334.992188 117.601562 L 333.492188 113.355469 C 334.242188 112.355469 334.992188 111.105469 335.492188 109.855469 L 339.988281 109.105469 C 340.738281 108.855469 341.488281 108.355469 341.488281 107.609375 L 342.238281 101.859375 C 342.238281 101.109375 341.738281 100.359375 340.988281 100.109375 Z M 337.738281 105.609375 L 333.492188 106.359375 C 332.742188 106.359375 332.242188 106.859375 331.992188 107.609375 C 331.492188 109.105469 330.492188 110.605469 329.492188 111.855469 C 328.992188 112.355469 328.992188 113.105469 329.242188 113.605469 L 330.742188 117.601562 L 328.492188 119.351562 L 324.996094 116.851562 C 324.496094 116.355469 323.746094 116.355469 323.246094 116.605469 C 321.746094 117.351562 319.996094 117.601562 318.25 117.851562 C 317.5 117.851562 317 118.351562 316.75 118.851562 L 315 122.601562 L 312 122.601562 L 311.25 118.351562 C 311.25 117.601562 310.75 117.101562 310.003906 116.851562 C 308.503906 116.105469 307.003906 115.355469 305.753906 114.355469 C 305.253906 113.855469 304.503906 113.855469 304.003906 114.105469 L 300.007812 115.605469 L 298.257812 113.355469 L 300.757812 109.855469 C 301.257812 109.355469 301.257812 108.605469 301.007812 108.109375 C 300.257812 106.609375 300.007812 104.859375 299.757812 103.109375 C 299.757812 102.359375 299.257812 101.859375 298.757812 101.609375 L 294.757812 99.613281 L 295.257812 96.613281 L 299.507812 95.863281 C 300.257812 95.863281 300.757812 95.363281 301.007812 94.613281 C 301.757812 93.113281 302.503906 91.613281 303.503906 90.367188 C 304.003906 89.867188 304.003906 89.117188 303.753906 88.617188 L 302.253906 84.617188 L 304.503906 82.871094 L 308.003906 85.367188 C 308.503906 85.867188 309.253906 85.867188 309.753906 85.617188 C 311.25 84.867188 313 84.617188 314.5 84.367188 C 315.25 84.367188 315.75 83.867188 316 83.367188 L 317.75 79.621094 L 320.746094 80.121094 L 321.496094 84.367188 C 321.496094 85.117188 321.996094 85.617188 322.746094 85.867188 C 324.246094 86.367188 325.746094 87.367188 326.996094 88.367188 C 327.492188 88.867188 328.242188 88.867188 328.742188 88.617188 L 332.742188 87.117188 L 334.492188 89.367188 L 331.992188 92.863281 C 331.492188 93.363281 331.492188 94.113281 331.742188 94.613281 C 332.492188 96.113281 332.742188 97.863281 332.992188 99.363281 C 332.992188 100.109375 333.492188 100.609375 333.992188 100.859375 L 337.988281 102.609375 Z M 337.738281 105.609375 " fill-opacity="1" fill-rule="nonzero"/></g><path fill="#ffffff" d="M 316.5 86.867188 C 313.25 86.867188 310.503906 87.867188 308.003906 89.867188 C 305.003906 92.113281 303.003906 95.613281 302.503906 99.363281 C 302.007812 103.109375 303.003906 106.859375 305.253906 109.855469 C 308.003906 113.605469 312.25 115.605469 316.75 115.605469 C 319.996094 115.605469 322.746094 114.605469 325.246094 112.605469 C 331.492188 107.859375 332.742188 98.863281 327.992188 92.613281 C 325.246094 89.117188 320.996094 86.867188 316.5 86.867188 Z M 322.746094 109.605469 C 320.996094 111.105469 318.75 111.855469 316.5 111.855469 C 313.25 111.855469 310.003906 110.355469 308.003906 107.609375 C 306.253906 105.359375 305.503906 102.609375 306.003906 99.859375 C 306.503906 97.113281 307.753906 94.613281 310.003906 92.863281 C 311.75 91.363281 314 90.617188 316.25 90.617188 C 319.496094 90.617188 322.746094 92.113281 324.746094 94.863281 C 328.492188 99.613281 327.492188 106.109375 322.746094 109.605469 Z M 322.746094 109.605469 " fill-opacity="1" fill-rule="nonzero"/><g clip-path="url(#b332e48f35)"><path fill="#ffffff" d="M 187.496094 273.089844 C 213.097656 273.089844 233.925781 245.917969 233.925781 220.316406 C 233.925781 194.714844 213.097656 173.886719 187.496094 173.886719 C 161.894531 173.886719 141.066406 194.714844 141.066406 220.316406 C 141.070312 245.914062 161.898438 273.089844 187.496094 273.089844 Z M 187.496094 273.089844 " fill-opacity="1" fill-rule="nonzero"/></g><g clip-path="url(#25ebe9a655)"><path fill="#ffffff" d="M 222.351562 273.566406 C 213.34375 280.425781 202.109375 284.507812 189.941406 284.507812 L 185.054688 284.507812 C 172.882812 284.507812 161.644531 280.425781 152.640625 273.566406 C 123.234375 278.320312 100.78125 303.804688 100.78125 334.550781 C 100.78125 351.441406 139.605469 365.136719 187.496094 365.136719 C 235.386719 365.136719 274.214844 351.441406 274.214844 334.550781 C 274.214844 303.804688 251.757812 278.320312 222.351562 273.566406 Z M 222.351562 273.566406 " fill-opacity="1" fill-rule="nonzero"/></g></svg>