<svg xmlns="http://www.w3.org/2000/svg" xmlns:xlink="http://www.w3.org/1999/xlink" width="500" zoomAndPan="magnify" viewBox="0 0 375 374.999991" height="500" preserveAspectRatio="xMidYMid meet" version="1.0"><defs><clipPath id="1e1337757c"><path d="M 2.59375 22.429688 L 372.34375 22.429688 L 372.34375 186 L 2.59375 186 Z M 2.59375 22.429688 " clip-rule="nonzero"/></clipPath><clipPath id="c5853eb53d"><path d="M 36 185 L 341 185 L 341 352.429688 L 36 352.429688 Z M 36 185 " clip-rule="nonzero"/></clipPath></defs><g clip-path="url(#1e1337757c)"><path fill="#ffffff" d="M 361.265625 108.546875 L 301.605469 108.546875 L 301.605469 22.6875 L 66.960938 22.6875 L 66.960938 108.546875 L 13.722656 108.546875 C 7.589844 108.546875 2.59375 113.542969 2.59375 119.675781 L 2.59375 174.8125 C 2.59375 180.945312 7.589844 185.941406 13.722656 185.941406 L 361.277344 185.941406 C 367.40625 185.941406 372.402344 180.945312 372.402344 174.8125 L 372.402344 119.675781 C 372.390625 113.542969 367.398438 108.546875 361.265625 108.546875 Z M 75.441406 31.167969 L 293.136719 31.167969 L 293.136719 108.558594 L 75.441406 108.558594 Z M 363.914062 174.8125 C 363.914062 176.269531 362.734375 177.460938 361.265625 177.460938 L 13.722656 177.460938 C 12.261719 177.460938 11.074219 176.269531 11.074219 174.8125 L 11.074219 119.675781 C 11.074219 118.207031 12.261719 117.027344 13.722656 117.027344 L 361.277344 117.027344 C 362.746094 117.027344 363.925781 118.207031 363.925781 119.675781 L 363.925781 174.8125 Z M 363.914062 174.8125 " fill-opacity="1" fill-rule="nonzero"/></g><path fill="#ffffff" d="M 66.960938 26.214844 L 66.960938 51.8125 L 47.066406 108.546875 L 38.097656 108.546875 Z M 66.960938 26.214844 " fill-opacity="1" fill-rule="nonzero"/><path fill="#ffffff" d="M 332.871094 108.546875 L 323.8125 108.546875 L 301.605469 50.023438 L 301.605469 26.128906 Z M 332.871094 108.546875 " fill-opacity="1" fill-rule="nonzero"/><path fill="#ffffff" d="M 112.433594 78.972656 L 114.597656 74.117188 C 117.289062 76.285156 121.566406 77.816406 125.691406 77.816406 C 130.921875 77.816406 133.140625 75.941406 133.140625 73.441406 C 133.140625 66.1875 113.160156 70.945312 113.160156 58.457031 C 113.160156 53.035156 117.480469 48.414062 126.710938 48.414062 C 130.742188 48.414062 134.976562 49.476562 137.902344 51.394531 L 135.929688 56.25 C 132.90625 54.46875 129.582031 53.613281 126.65625 53.613281 C 121.46875 53.613281 119.359375 55.628906 119.359375 58.179688 C 119.359375 65.339844 139.296875 60.675781 139.296875 73.023438 C 139.296875 78.40625 134.921875 83.015625 125.703125 83.015625 C 120.460938 83.003906 115.21875 81.375 112.433594 78.972656 Z M 112.433594 78.972656 " fill-opacity="1" fill-rule="nonzero"/><path fill="#ffffff" d="M 175.363281 48.898438 L 175.363281 82.523438 L 169.117188 82.523438 L 169.117188 68.117188 L 151.730469 68.117188 L 151.730469 82.523438 L 145.480469 82.523438 L 145.480469 48.898438 L 151.730469 48.898438 L 151.730469 62.777344 L 169.117188 62.777344 L 169.117188 48.898438 Z M 175.363281 48.898438 " fill-opacity="1" fill-rule="nonzero"/><path fill="#ffffff" d="M 182 65.714844 C 182 55.765625 189.6875 48.425781 200.117188 48.425781 C 210.542969 48.425781 218.230469 55.722656 218.230469 65.714844 C 218.230469 75.703125 210.542969 83.003906 200.117188 83.003906 C 189.6875 83.003906 182 75.660156 182 65.714844 Z M 211.925781 65.714844 C 211.925781 58.84375 206.878906 53.902344 200.117188 53.902344 C 193.339844 53.902344 188.304688 58.855469 188.304688 65.714844 C 188.304688 72.585938 193.351562 77.527344 200.117188 77.527344 C 206.878906 77.527344 211.925781 72.585938 211.925781 65.714844 Z M 211.925781 65.714844 " fill-opacity="1" fill-rule="nonzero"/><path fill="#ffffff" d="M 253.003906 60.859375 C 253.003906 68.253906 247.527344 72.820312 238.683594 72.820312 L 231.09375 72.820312 L 231.09375 82.523438 L 224.84375 82.523438 L 224.84375 48.898438 L 238.683594 48.898438 C 247.527344 48.898438 253.003906 53.421875 253.003906 60.859375 Z M 246.710938 60.859375 C 246.710938 56.636719 243.882812 54.179688 238.402344 54.179688 L 231.105469 54.179688 L 231.105469 67.535156 L 238.402344 67.535156 C 243.871094 67.535156 246.710938 65.09375 246.710938 60.859375 Z M 246.710938 60.859375 " fill-opacity="1" fill-rule="nonzero"/><g clip-path="url(#c5853eb53d)"><path fill="#ffffff" d="M 340.792969 185.941406 L 340.792969 341.882812 C 340.792969 347.59375 336.152344 352.246094 330.425781 352.246094 L 47.21875 352.246094 C 41.515625 352.246094 36.851562 347.605469 36.851562 341.882812 L 36.851562 185.941406 L 45.332031 185.941406 L 45.332031 341.882812 C 45.332031 342.921875 46.179688 343.769531 47.21875 343.769531 L 330.425781 343.769531 C 331.46875 343.769531 332.3125 342.921875 332.3125 341.882812 L 332.3125 185.941406 Z M 340.792969 185.941406 " fill-opacity="1" fill-rule="nonzero"/></g><path fill="#ffffff" d="M 141.308594 228.871094 L 141.308594 343.769531 L 132.832031 343.769531 L 132.832031 228.871094 C 132.832031 227.003906 131.320312 225.484375 129.445312 225.484375 L 83.375 225.484375 C 81.507812 225.484375 79.988281 227.003906 79.988281 228.871094 L 79.988281 343.769531 L 71.507812 343.769531 L 71.507812 228.871094 C 71.507812 222.332031 76.835938 217.003906 83.375 217.003906 L 129.453125 217.003906 C 135.992188 217.003906 141.308594 222.332031 141.308594 228.871094 Z M 141.308594 228.871094 " fill-opacity="1" fill-rule="nonzero"/><path fill="#ffffff" d="M 300.296875 288.863281 L 175.449219 288.863281 C 169.222656 288.863281 164.152344 283.792969 164.152344 277.566406 L 164.152344 228.3125 C 164.152344 222.085938 169.222656 217.015625 175.449219 217.015625 L 300.296875 217.015625 C 306.523438 217.015625 311.59375 222.085938 311.59375 228.3125 L 311.59375 277.566406 C 311.59375 283.792969 306.523438 288.863281 300.296875 288.863281 Z M 175.449219 225.484375 C 173.894531 225.484375 172.632812 226.746094 172.632812 228.300781 L 172.632812 277.554688 C 172.632812 279.109375 173.894531 280.375 175.449219 280.375 L 300.296875 280.375 C 301.851562 280.375 303.113281 279.109375 303.113281 277.554688 L 303.113281 228.300781 C 303.113281 226.746094 301.851562 225.484375 300.296875 225.484375 Z M 175.449219 225.484375 " fill-opacity="1" fill-rule="nonzero"/><path fill="#ffffff" d="M 35.007812 117.027344 L 43.488281 117.027344 L 43.488281 177.460938 L 35.007812 177.460938 Z M 35.007812 117.027344 " fill-opacity="1" fill-rule="nonzero"/><path fill="#ffffff" d="M 77.359375 117.027344 L 85.839844 117.027344 L 85.839844 177.460938 L 77.359375 177.460938 Z M 77.359375 117.027344 " fill-opacity="1" fill-rule="nonzero"/><path fill="#ffffff" d="M 119.722656 117.027344 L 128.199219 117.027344 L 128.199219 177.460938 L 119.722656 177.460938 Z M 119.722656 117.027344 " fill-opacity="1" fill-rule="nonzero"/><path fill="#ffffff" d="M 162.082031 117.027344 L 170.550781 117.027344 L 170.550781 177.460938 L 162.082031 177.460938 Z M 162.082031 117.027344 " fill-opacity="1" fill-rule="nonzero"/><path fill="#ffffff" d="M 204.433594 117.027344 L 212.914062 117.027344 L 212.914062 177.460938 L 204.433594 177.460938 Z M 204.433594 117.027344 " fill-opacity="1" fill-rule="nonzero"/><path fill="#ffffff" d="M 246.796875 117.027344 L 255.277344 117.027344 L 255.277344 177.460938 L 246.796875 177.460938 Z M 246.796875 117.027344 " fill-opacity="1" fill-rule="nonzero"/><path fill="#ffffff" d="M 289.148438 117.027344 L 297.625 117.027344 L 297.625 177.460938 L 289.148438 177.460938 Z M 289.148438 117.027344 " fill-opacity="1" fill-rule="nonzero"/><path fill="#ffffff" d="M 331.511719 117.027344 L 339.988281 117.027344 L 339.988281 177.460938 L 331.511719 177.460938 Z M 331.511719 117.027344 " fill-opacity="1" fill-rule="nonzero"/></svg>